<?xml version="1.0" encoding="UTF-8" standalone="no"?>
<svg
   version="1.1"
   width="720px"
   height="720px"
   style="shape-rendering:geometricPrecision; text-rendering:geometricPrecision; image-rendering:optimizeQuality; fill-rule:evenodd; clip-rule:evenodd"
   id="svg926"
   sodipodi:docname="V-NOM_logo.svg"
   inkscape:version="1.2.1 (9c6d41e410, 2022-07-14)"
   xmlns:inkscape="http://www.inkscape.org/namespaces/inkscape"
   xmlns:sodipodi="http://sodipodi.sourceforge.net/DTD/sodipodi-0.dtd"
   xmlns="http://www.w3.org/2000/svg"
   xmlns:svg="http://www.w3.org/2000/svg">
  <defs
     id="defs930" />
  <sodipodi:namedview
     id="namedview928"
     pagecolor="#ffffff"
     bordercolor="#000000"
     borderopacity="0.25"
     inkscape:showpageshadow="2"
     inkscape:pageopacity="0.0"
     inkscape:pagecheckerboard="0"
     inkscape:deskcolor="#d1d1d1"
     showgrid="false"
     inkscape:zoom="0.78960257"
     inkscape:cx="177.30439"
     inkscape:cy="366.64014"
     inkscape:window-width="1920"
     inkscape:window-height="991"
     inkscape:window-x="-9"
     inkscape:window-y="-9"
     inkscape:window-maximized="1"
     inkscape:current-layer="svg926" />
  <rect
     style="clip-rule:evenodd;opacity:0.97;fill:#ffffff;fill-opacity:1;fill-rule:evenodd;stroke:none;stroke-width:3.8;paint-order:stroke markers fill;image-rendering:optimizeQuality;shape-rendering:geometricPrecision;text-rendering:geometricPrecision"
     id="rect3372"
     width="752.27716"
     height="752.27716"
     x="-12.664599"
     y="-12.664599"
     inkscape:label="background" />
  <g
     id="g3260"
     inkscape:label="V-NOM_font"
     style="clip-rule:evenodd;fill:#000000;fill-opacity:1;fill-rule:evenodd;stroke:none;stroke-opacity:1;image-rendering:optimizeQuality;shape-rendering:geometricPrecision;text-rendering:geometricPrecision"
     transform="matrix(0.37785465,0,0,0.37785465,-100.4331,117.00363)">
    <path
       fill="#fdfdfd"
       d="m 647.5,869.5 c 4.473,-0.551 8.807,-1.217 13,-2 6.691,-1.006 13.024,-3.173 19,-6.5 9.237,-5.901 17.904,-12.568 26,-20 6.743,-4.4 13.743,-8.4 21,-12 12.719,-4.349 25.719,-7.683 39,-10 5.932,-1.968 11.599,-4.468 17,-7.5 0.333,0.667 0.667,1.333 1,2 -2.971,11.418 -6.471,22.752 -10.5,34 -4.726,11.119 -9.726,22.119 -15,33 -5.921,10.173 -11.587,20.506 -17,31 -18.944,26.285 -36.278,53.618 -52,82 -3.456,7.95 -5.123,16.28 -5,25 -2.478,12.28 -7.145,23.62 -14,34 -5.511,11.38 -8.511,23.38 -9,36 -10.91,17.15 -20.243,35.15 -28,54 -14.578,42.99 -27.912,86.32 -40,130 -6.804,18.93 -14.137,37.6 -22,56 -7.758,38.17 -14.424,76.5 -20,115 -2.151,7.92 -3.985,15.92 -5.5,24 2.572,11.82 8.238,21.82 17,30 -0.532,2.24 -1.865,3.74 -4,4.5 -27.683,0.35 -55.35,0.02 -83,-1 -14.559,0.27 -28.393,3.43 -41.5,9.5 -0.772,-0.14 -1.439,-0.48 -2,-1 1.155,-3.97 3.155,-7.63 6,-11 8.667,-8.67 17.333,-17.33 26,-26 3.983,-6.12 6.483,-12.78 7.5,-20 -1.521,-16.96 -2.688,-33.96 -3.5,-51 -4.327,-17.62 -8.66,-35.29 -13,-53 0.68,-17.32 -1.32,-34.32 -6,-51 -12.679,-44.36 -29.013,-87.36 -49,-129 -4.418,-17.51 -8.085,-35.18 -11,-53 -3.423,-16.62 -9.757,-31.95 -19,-46 -8.087,-10.11 -18.254,-16.95 -30.5,-20.5 -5.311,-3.99 -9.145,-9.16 -11.5,-15.5 -2.335,-7.34 -4.669,-14.68 -7,-22 -7.559,-8.55 -14.726,-17.388 -21.5,-26.5 0.145,-0.772 0.478,-1.439 1,-2 7.307,-0.95 14.64,-1.617 22,-2 30.984,-1.195 61.984,-1.861 93,-2 6.278,-1.243 12.611,-2.076 19,-2.5 10.437,2.232 20.937,4.565 31.5,7 3,-0.667 6,-1.333 9,-2 1.404,0.009 2.57,0.509 3.5,1.5 -9.404,18.64 -18.404,37.47 -27,56.5 6.893,34.84 15.727,69.18 26.5,103 3.873,16.37 7.873,32.7 12,49 1.017,14.69 2.351,29.36 4,44 4.976,21.85 9.309,43.85 13,66 0.196,1.79 1.029,3.12 2.5,4 4.187,-18.03 11.354,-34.7 21.5,-50 1.087,-9.02 3.421,-17.68 7,-26 10.677,-18.35 20.011,-37.35 28,-57 9.93,-15.43 18.93,-31.43 27,-48 3.489,-11.62 6.822,-23.29 10,-35 2.667,-4 5.333,-8 8,-12 5.927,-13.79 10.26,-28.12 13,-43 5.544,-18.63 11.877,-36.966 19,-55 2.001,-5.839 3.168,-11.839 3.5,-18 -1.921,-15.253 -7.088,-29.253 -15.5,-42 -0.973,-8.602 -3.64,-16.602 -8,-24 -1.219,-5.398 0.281,-9.898 4.5,-13.5 6.817,-3.995 13.484,-8.162 20,-12.5 z"
       id="path1163"
       style="fill:#000000;fill-opacity:1;stroke:none;stroke-opacity:1" />
    <path
       fill="#fcfcfc"
       d="m 1391.5,854.5 c 3.65,0.122 6.48,1.788 8.5,5 0.67,1 0.67,2 0,3 -17.35,20.699 -30.02,44.033 -38,70 -14.92,12.167 -23.92,27.834 -27,47 -1.67,17.338 -3.33,34.67 -5,52 -0.36,4.82 -1.36,9.49 -3,14 -0.33,17.67 -0.67,35.33 -1,53 -0.29,7.2 -1.62,14.2 -4,21 -1.67,22.9 -0.17,45.57 4.5,68 12.34,-24.69 24.84,-49.69 37.5,-75 9.93,-15.53 20.6,-30.53 32,-45 2.4,-8.33 6.9,-15.16 13.5,-20.5 11.53,1.79 22.19,-0.55 32,-7 6.15,-5.57 12.48,-10.9 19,-16 30.11,-10.45 61.11,-14.78 93,-13 8.52,0.77 16.85,2.44 25,5 2.55,3.59 4.71,7.42 6.5,11.5 2.45,11.07 7.62,20.57 15.5,28.5 1.77,1.44 3.77,2.44 6,3 11.2,1.18 21.87,4.18 32,9 2.87,2.54 5.37,5.37 7.5,8.5 1.56,21.65 5.22,42.98 11,64 5.5,20.17 12,40 19.5,59.5 1,0.67 2,0.67 3,0 6.8,-11.29 12.46,-23.13 17,-35.5 -1.19,-18.31 -2.02,-36.65 -2.5,-55 -3.27,-3.49 -4.77,-7.66 -4.5,-12.5 4.3,-16.45 2.13,-31.95 -6.5,-46.5 -6.09,-8.42 -11.76,-17.08 -17,-26 -1.2,-2.18 -1.7,-4.51 -1.5,-7 13.29,1.39 26.62,2.22 40,2.5 10.73,5.28 22.06,6.95 34,5 14.14,-4.23 28.47,-7.56 43,-10 9.51,-0.48 18.84,0.19 28,2 -2.79,3.08 -4.96,6.58 -6.5,10.5 -1.99,7.88 -3.32,15.88 -4,24 -1.65,6.79 -4.48,12.95 -8.5,18.5 -1.4,10.43 -0.24,20.59 3.5,30.5 4.67,8.67 9.33,17.33 14,26 4.23,11.05 8.56,22.05 13,33 3.81,14.5 6.81,29.17 9,44 3.13,10.72 7.79,20.72 14,30 7.59,21.71 14.26,43.71 20,66 1.94,6.49 4.27,12.82 7,19 4.57,-8.9 9.57,-17.57 15,-26 1.72,-6.88 2.72,-13.88 3,-21 7.23,-22.46 15.57,-44.46 25,-66 4.67,-6 9.33,-12 14,-18 10.26,-33.78 21.93,-67.12 35,-100 0.67,-4.33 0.67,-8.67 0,-13 -2.9,-12.52 -5.57,-25.18 -8,-38 -1.91,-4.84 -4.58,-9.17 -8,-13 -0.67,-1 -0.67,-2 0,-3 8.35,-3.53 16.85,-3.7 25.5,-0.5 9.47,3.83 19.31,5.99 29.5,6.5 6.14,0.34 11.98,-0.83 17.5,-3.5 18.66,-0.5 37.33,-0.67 56,-0.5 0.16,1.37 -0.01,2.71 -0.5,4 -9.59,10.75 -14.92,23.41 -16,38 -1.54,18.77 -3.88,37.44 -7,56 -2.28,5.56 -4.28,11.23 -6,17 -1.3,47.33 -1.97,94.66 -2,142 0.33,23.18 2.5,46.18 6.5,69 -1.44,8.44 -0.94,16.77 1.5,25 5.54,13.77 10.54,27.77 15,42 2,22.01 4,44.01 6,66 2.91,20.41 9.58,39.41 20,57 3.69,15.81 5.69,31.81 6,48 -1.05,1.02 -2.22,1.18 -3.5,0.5 -11.67,-10.33 -23.33,-20.67 -35,-31 -4.89,-3.15 -9.89,-6.15 -15,-9 -6.47,-8.81 -14.47,-15.81 -24,-21 -12.74,-6.04 -25.41,-12.04 -38,-18 -6.03,-3.18 -11.03,-7.51 -15,-13 8.58,-12.35 17.75,-24.18 27.5,-35.5 1.53,-4.26 2.86,-8.6 4,-13 0.59,-9.83 1.09,-19.66 1.5,-29.5 -2.3,-22.1 -3.3,-44.27 -3,-66.5 1.03,-66 1.2,-132 0.5,-198 -1.04,-2.21 -1.71,-4.55 -2,-7 -0.67,-0.67 -1.33,-1.33 -2,-2 -2.52,5.22 -4.85,10.55 -7,16 -2.08,9.64 -5.08,18.97 -9,28 -12.48,23.97 -24.15,48.3 -35,73 -3,10.65 -6,21.32 -9,32 -7.93,13.54 -15.6,27.2 -23,41 -0.93,4.14 -2.27,8.14 -4,12 -0.33,6.33 -0.67,12.67 -1,19 -5.8,17.06 -11.8,34.06 -18,51 -4.33,4.33 -8.67,8.67 -13,13 -12.91,-29.16 -26.91,-57.82 -42,-86 -14.64,-28.24 -22.97,-58.24 -25,-90 -4.16,-17.64 -8.16,-35.31 -12,-53 -6.63,-16.92 -12.97,-33.92 -19,-51 -4.34,-10.7 -10.17,-20.37 -17.5,-29 0,13.96 -1,27.96 -3,42 0.91,4.97 1.75,9.97 2.5,15 1.87,2.31 2.87,4.97 3,8 0.7,8.99 1.2,17.99 1.5,27 -2.14,37 -2.3,74 -0.5,111 2.83,29.81 9.16,58.81 19,87 0.5,1.97 0.66,3.97 0.5,6 -15.81,1.88 -31.48,1.05 -47,-2.5 -6.88,-3.27 -13.54,-6.77 -20,-10.5 -9.32,2.83 -17.98,6.99 -26,12.5 -2.78,1.04 -5.61,1.87 -8.5,2.5 -1.71,0.06 -3.04,-0.61 -4,-2 5.32,-11.64 10.99,-23.31 17,-35 -0.76,-21.66 -0.6,-43.33 0.5,-65 -0.17,-5.33 -0.33,-10.67 -0.5,-16 -4.53,-18.74 -5.7,-37.74 -3.5,-57 -1.05,-8.1 -4.72,-14.76 -11,-20 -11.8,19.55 -19.96,40.55 -24.5,63 -0.57,4.19 -0.41,8.35 0.5,12.5 -6.27,34.55 -22.6,63.22 -49,86 -5.68,3.84 -11.68,7.17 -18,10 -11.88,0.97 -23.55,2.97 -35,6 -5.47,5.11 -9.31,11.27 -11.5,18.5 -5.79,6.31 -12.96,10.15 -21.5,11.5 -22.68,4.89 -44.68,2.56 -66,-7 -18.81,-9.06 -34.47,-21.89 -47,-38.5 -14.01,-3.67 -26.68,-10.01 -38,-19 -5.92,-12.25 -10.75,-24.91 -14.5,-38 -4.84,-24.27 -10.51,-48.27 -17,-72 -2.33,-6.33 -4.67,-12.67 -7,-19 -0.7,-1.53 -1.87,-2.53 -3.5,-3 -2.18,3.71 -3.68,7.71 -4.5,12 -2.56,17.26 -6.23,34.26 -11,51 -0.41,15 -0.91,30 -1.5,45 0.1,9.76 1.1,19.43 3,29 -0.96,10.28 -3.12,20.28 -6.5,30 -2.25,1.88 -4.75,3.38 -7.5,4.5 -5.73,0.68 -11.39,1.68 -17,3 -2.09,0.79 -3.92,1.96 -5.5,3.5 -1.27,7.56 -1.93,15.23 -2,23 -0.8,1.3 -1.97,1.97 -3.5,2 -13.43,-7.05 -27.1,-13.55 -41,-19.5 -1.54,-1.93 -2.71,-4.1 -3.5,-6.5 -3.05,-16.48 -7.72,-32.48 -14,-48 -12.84,-30.68 -24.84,-61.68 -36,-93 -6.91,-13.49 -14.58,-26.49 -23,-39 -0.7,-14.17 -3.7,-27.84 -9,-41 -8.51,-16.36 -18.51,-31.69 -30,-46 -5.21,-10.29 -9.21,-20.96 -12,-32 -2.28,-11.76 -4.95,-23.42 -8,-35 -1.01,-3.34 -2.51,-6.34 -4.5,-9 -9.54,12.09 -15.54,25.75 -18,41 0.29,7.71 2.12,15.04 5.5,22 0.71,11.01 0.55,22.01 -0.5,33 2.88,17.85 3.72,35.85 2.5,54 -3.62,25.25 -4.29,50.58 -2,76 4.54,41.82 8.7,83.65 12.5,125.5 -1.15,4.49 -3.82,7.83 -8,10 -6.46,2.89 -13.13,4.23 -20,4 -6.63,8.3 -13.63,16.3 -21,24 -5.88,4.78 -12.55,7.61 -20,8.5 1.51,-7.36 3.34,-14.7 5.5,-22 5.55,-13.78 10.55,-27.78 15,-42 -0.33,-29.46 1.34,-58.79 5,-88 1.03,-6.84 2.7,-13.51 5,-20 0.23,-22.89 1.4,-45.73 3.5,-68.5 -0.17,-4.83 -0.33,-9.67 -0.5,-14.5 -3.32,-10.89 -4.82,-22.06 -4.5,-33.5 1.22,-16.98 2.22,-33.98 3,-51 -1.04,-21.49 -1.2,-42.99 -0.5,-64.5 0.2,-8.15 1.37,-16.15 3.5,-24 -1.55,-7.77 -4.72,-14.77 -9.5,-21 -0.67,-1 -0.67,-2 0,-3 19.05,-0.94 38.05,-2.94 57,-6 10.49,1.12 20.99,1.12 31.5,0 11.81,1.29 23.64,2.29 35.5,3 6.75,0.43 13.25,-0.57 19.5,-3 4.05,0.09 4.88,1.76 2.5,5 -4.17,4.83 -8.33,9.67 -12.5,14.5 -9.08,6.96 -18.24,13.79 -27.5,20.5 -0.67,10.33 -0.67,20.67 0,31 6.86,8.54 12.52,17.88 17,28 7.51,23.73 15.18,47.39 23,71 15.12,32.25 31.79,63.59 50,94 8.89,18.78 18.55,37.11 29,55 1.42,-17.31 1.75,-34.65 1,-52 -1.82,-11.1 -2.99,-22.27 -3.5,-33.5 2.86,-55.17 6.03,-110.34 9.5,-165.5 1.16,-26.33 1.5,-52.66 1,-79 -6.5,-12.328 -13.5,-24.328 -21,-36 -5.41,-5.628 -11.91,-9.628 -19.5,-12 -1.13,-1.574 -1.3,-3.241 -0.5,-5 12.8,-5.15 24.63,-11.983 35.5,-20.5 5.08,-1.804 10.08,-3.804 15,-6 5.05,-5.038 10.72,-9.371 17,-13 11.55,-5.607 23.21,-10.941 35,-16 15.96,-11.811 32.3,-22.978 49,-33.5 z"
       id="path1167"
       style="fill:#000000;fill-opacity:1;stroke:none;stroke-opacity:1" />
    <path
       fill="#9a9a9a"
       d="m 660.5,867.5 c -4.193,0.783 -8.527,1.449 -13,2 0.111,-0.617 0.444,-1.117 1,-1.5 3.986,-0.499 7.986,-0.666 12,-0.5 z"
       id="path1171"
       style="fill:#000000;fill-opacity:1;stroke:none;stroke-opacity:1" />
    <path
       fill="#fdfdfd"
       d="m 817.5,1166 c 44.55522,-3.2929 45.346,-2.82 68,-5 2.686,-1.37 5.353,-2.7 8,-4 22.342,-0.24 44.675,-0.74 67,-1.5 10.565,0.68 21.065,1.01 31.5,1 0.426,6.21 -0.574,12.21 -3,18 -2.612,7.89 -6.279,15.22 -11,22 -14.308,19.14 -28.808,38.14 -43.5,57 -1.545,0.95 -3.212,1.29 -5,1 -2.169,-13.03 -7.503,-24.53 -16,-34.5 -7.704,-0.06 -15.37,0.6 -23,2 -4.239,1.9 -8.239,4.24 -12,7 -12.922,2.25 -25.922,3.92 -39,5 -4.809,0.75 -15.00755,-2.4021 -30.41791,-2.2836 -15.41036,0.1185 -18.49809,-2.7896 -39.78358,-4.4254 -21.28549,-1.6357 -46.45451,0.719 -51.29851,-0.791 -1,0.33 -2,0.67 -3,1 -7.738,-1.57 -15.571,-2.41 -23.5,-2.5 -4.228,-17.92 0.772,-32.92 15,-45 7.718,-1.79 28.74027,-2.3416 50.43996,-5.4723 21.6997,-3.1307 16.00482,-5.2348 60.56004,-8.5277 z"
       id="path1175"
       sodipodi:nodetypes="zcccccccccccczzcccczz"
       style="fill:#000000;fill-opacity:1;stroke:none;stroke-opacity:1" />
    <path
       fill="#000000"
       d="m 1521.5,1067.5 c 2.43,0.02 4.76,0.52 7,1.5 6.64,5.99 13.97,10.99 22,15 7.32,1.83 14.32,4.49 21,8 3.29,3.29 5.79,7.13 7.5,11.5 2.67,6.68 5.34,13.34 8,20 3.32,11.21 3.99,22.54 2,34 -3.57,7.62 -5.91,15.62 -7,24 -1.49,33.34 -3.16,66.68 -5,100 -0.47,5.4 -2.13,10.4 -5,15 -7.82,8.97 -15.15,18.3 -22,28 -3.51,6.68 -6.17,13.68 -8,21 -3.93,10.93 -11.43,14.27 -22.5,10 -14.18,-0.14 -25.52,5.36 -34,16.5 -2.59,1.6 -5.26,1.77 -8,0.5 -1.31,-1.82 -2.81,-3.48 -4.5,-5 -6,-11.33 -12,-22.67 -18,-34 -7.65,-11.3 -15.65,-22.3 -24,-33 -1.87,-6.89 -3.2,-13.89 -4,-21 -0.92,-18.85 -1.75,-37.68 -2.5,-56.5 1.09,-16.14 -0.75,-31.97 -5.5,-47.5 2.75,-45.71 24.92,-77.88 66.5,-96.5 11.89,-4.58 23.89,-8.41 36,-11.5 z"
       id="path1179"
       style="fill:#ffffff;fill-opacity:1;stroke:none;stroke-opacity:1" />
    <path
       fill="#4a4a4a"
       d="m 1167.5,1216.5 c 1.84,0.14 2.17,0.81 1,2 -0.8,-0.46 -1.13,-1.12 -1,-2 z"
       id="path1183"
       style="fill:#000000;fill-opacity:1;stroke:none;stroke-opacity:1" />
  </g>
  <g
     id="g3659"
     inkscape:label="Face"
     transform="matrix(1.5049798,0,0,1.343563,-161.78552,-213.90358)"
     inkscape:export-filename="V-NOM_logo.png"
     inkscape:export-xdpi="96"
     inkscape:export-ydpi="96"
     style="clip-rule:evenodd;fill-rule:evenodd;image-rendering:optimizeQuality;shape-rendering:geometricPrecision;text-rendering:geometricPrecision">
    <path
       style="clip-rule:evenodd;display:none;opacity:1;fill:#000000;fill-opacity:1;fill-rule:evenodd;stroke:none;stroke-opacity:1;image-rendering:optimizeQuality;shape-rendering:geometricPrecision;text-rendering:geometricPrecision"
       fill="#be0a11"
       d="m 416.5,458.5 c 6.667,0 13.333,0 20,0 0,1.667 0,3.333 0,5 -1.406,0.473 -2.073,1.473 -2,3 -1.452,2.348 -2.118,5.014 -2,8 0.007,1.869 0.34,3.536 1,5 0.967,4.88 2.301,9.547 4,14 0,0.667 0,1.333 0,2 -4.326,8.646 -9.659,16.646 -16,24 -0.722,0.418 -1.222,1.084 -1.5,2 -0.815,4.852 -0.648,9.519 0.5,14 1.733,3.686 3.566,7.352 5.5,11 2.185,2.04 4.685,3.374 7.5,4 0,0.667 0,1.333 0,2 0,0.333 0,0.667 0,1 -3.508,5.522 -5.842,11.522 -7,18 1.373,0.157 2.707,-0.01 4,-0.5 2.138,-4.3 5.138,-7.8 9,-10.5 1.639,-2.306 3.639,-4.306 6,-6 0.667,-0.667 1.333,-1.333 2,-2 3.068,-0.522 6.068,-1.355 9,-2.5 7.651,-5.719 16.317,-8.219 26,-7.5 11.22,0.978 22.22,2.978 33,6 1.926,0.986 3.926,1.986 6,3 8.348,4.174 16.682,8.341 25,12.5 4.878,5.209 9.378,10.709 13.5,16.5 2.729,4.689 4.563,9.689 5.5,15 0.105,3.819 0.938,7.486 2.5,11 0.499,4.989 0.666,9.989 0.5,15 0.065,2.971 -0.769,5.638 -2.5,8 -2.263,-10.735 -5.597,-21.068 -10,-31 -4.542,-5.908 -10.042,-10.742 -16.5,-14.5 -2.043,-1.708 -3.71,-3.708 -5,-6 -7.716,-3.313 -15.716,-5.813 -24,-7.5 -9.491,-1.158 -19.158,-1.325 -29,-0.5 -0.916,0.278 -1.582,0.778 -2,1.5 -11.269,4.324 -20.936,11.157 -29,20.5 -1.333,0.333 -2.667,0.667 -4,1 -11.578,13.251 -23.578,26.251 -36,39 -6.171,5.694 -13.171,9.861 -21,12.5 -0.895,-4.764 -2.562,-9.097 -5,-13 -6.438,-17.757 -10.772,-17.09 -13,2 -1.112,2.099 -1.779,4.433 -2,7 -9.673,-9.672 -19.673,-19.006 -30,-28 -0.667,-2.667 -2.333,-4.333 -5,-5 -4.663,-4.831 -9.163,-9.831 -13.5,-15 -5.275,-8.9 -10.775,-17.567 -16.5,-26 -0.489,-1.495 -1.155,-2.829 -2,-4 -2.019,-7.251 -3.852,-14.584 -5.5,-22 -0.167,-3 -0.333,-6 -0.5,-9 1.007,-10.374 2.34,-20.708 4,-31 1.424,-2.015 2.09,-4.348 2,-7 1.465,-3.524 2.465,-7.191 3,-11 1.869,-2.135 2.536,-4.802 2,-8 2.461,-3.973 2.461,-7.973 0,-12 0,-0.667 0,-1.333 0,-2 5.667,-1.333 11.333,-1.333 17,0 -1.295,4.474 -2.962,8.807 -5,13 -2.938,7.618 -2.604,14.951 1,22 0,1.667 0,3.333 0,5 0.676,9.685 3.343,18.685 8,27 0.255,2.467 1.255,4.467 3,6 1.801,6.944 5.135,12.944 10,18 0.511,-4.626 0.678,-9.293 0.5,-14 1.736,-9.857 3.903,-19.524 6.5,-29 0.996,0.086 1.829,-0.248 2.5,-1 1.081,-5.358 2.914,-10.358 5.5,-15 1.238,-1.714 1.905,-3.714 2,-6 5.046,-4.783 7.38,-10.783 7,-18 -0.007,-1.869 -0.34,-3.536 -1,-5 0.17,-1.322 -0.163,-2.489 -1,-3.5 7.333,-0.667 14.667,-0.667 22,0 -1.298,2.727 -2.298,5.56 -3,8.5 -0.306,2.885 0.027,5.552 1,8 1.618,4.526 3.618,8.859 6,13 1.573,7.967 3.573,15.634 6,23 0.629,9.32 0.962,18.654 1,28 -0.086,4.357 -0.42,8.69 -1,13 1.478,0.262 2.811,-0.071 4,-1 0.98,-1.481 2.147,-2.815 3.5,-4 1.455,-5.535 3.955,-10.535 7.5,-15 1.236,-2.149 2.236,-4.482 3,-7 0.188,-2.706 1.188,-5.039 3,-7 1.424,-2.015 2.09,-4.348 2,-7 8.473,-18.46 7.807,-36.46 -2,-54 z"
       id="path534"
       inkscape:label="Tongue" />
    <path
       id="path398"
       d="m 155.5,390.5 c -0.942,0.108 -1.775,0.441 -2.5,1 -0.04,4.657 0.294,9.324 1,14 0.383,0.556 0.883,0.889 1.5,1 -0.0405,-0.50687 -0.0699,-1.01242 -0.0898,-1.51758 -0.02,-0.50515 -0.0299,-1.01023 -0.0293,-1.51367 5.7e-4,-0.50344 0.0101,-1.00609 0.0312,-1.50781 0.0211,-0.50172 0.054,-1.00196 0.0957,-1.50196 0.0417,-0.5 0.0921,-0.99976 0.1543,-1.49804 0.0622,-0.49828 0.13599,-0.99563 0.21875,-1.49219 0.0828,-0.49656 0.17598,-0.99148 0.2793,-1.48633 0.10331,-0.49484 0.21597,-0.9893 0.33984,-1.48242 0.48125,0.35437 0.94961,0.716 1.4043,1.08594 0.45468,0.36994 0.89609,0.7473 1.32422,1.13281 0.42812,0.38551 0.84257,0.78056 1.24414,1.18164 0.40156,0.40108 0.78906,0.80991 1.16406,1.22656 0.375,0.41666 0.7375,0.8412 1.08594,1.27344 0.34843,0.43224 0.68398,0.87054 1.00586,1.31836 0.32187,0.44782 0.63046,0.90378 0.92578,1.36719 0.29531,0.46341 0.57695,0.93506 0.8457,1.41406 -0.26875,-0.479 -0.55039,-0.95065 -0.8457,-1.41406 -0.29532,-0.46341 -0.60391,-0.91937 -0.92578,-1.36719 -0.32188,-0.44782 -0.65743,-0.88612 -1.00586,-1.31836 -0.34844,-0.43224 -0.71094,-0.85678 -1.08594,-1.27344 -0.375,-0.41665 -0.7625,-0.82548 -1.16406,-1.22656 -0.40157,-0.40108 -0.81602,-0.79613 -1.24414,-1.18164 -0.42813,-0.38551 -0.86954,-0.76287 -1.32422,-1.13281 -0.45469,-0.36994 -0.92305,-0.73157 -1.4043,-1.08594 -0.12387,0.49312 -0.23653,0.98758 -0.33984,1.48242 -0.10332,0.49485 -0.19654,0.98977 -0.2793,1.48633 -0.0828,0.49656 -0.15655,0.99391 -0.21875,1.49219 -0.0622,0.49828 -0.11264,0.99804 -0.1543,1.49804 -0.0417,0.5 -0.0746,1.00024 -0.0957,1.50196 -0.0211,0.50172 -0.0307,1.00437 -0.0312,1.50781 -5.7e-4,0.50344 0.009,1.00852 0.0293,1.51367 0.02,0.50516 0.0493,1.01071 0.0898,1.51758 0.247,3.354 1.247,6.354 3,9 0.002,3.665 1.335,6.665 4,9 v 1 c 3.615,6.91799 6.448,14.25201 8.5,22 0.689,0.857 1.522,1.523 2.5,2 0.785,-8.31999 0.618,-16.65301 -0.5,-25 -0.383,-0.556 -0.883,-0.889 -1.5,-1 -0.16,-1.653 -0.826,-2.986 -2,-4 0.165,-3.018 -0.002,-6.018 -0.5,-9 -0.278,-0.916 -0.778,-1.582 -1.5,-2 0.313,-2.747 -0.02,-5.414 -1,-8 -4.421,-2.765 -8.087,-6.098 -11,-10 z m 386,9 c 0.149,1.052 -0.017,2.052 -0.5,3 -1.992,0.828 -3.492,2.161 -4.5,4 -0.958,0.453 -1.792,1.119 -2.5,2 -0.494,6.61999 0.339,12.95301 2.5,19 0.755,1.966 1.921,2.3 3.5,1 3.282,-9.35799 4.782,-19.02501 4.5,-29 z m -375.5,15 c 0.6225,1.84075 1.22453,3.68056 1.80664,5.51758 C 167.22453,418.18056 166.6225,416.34075 166,414.5 Z m 12.19531,1.92773 c -0.2216,0.004 -0.45325,0.0278 -0.69531,0.0723 -0.323,6.52199 0.01,12.85501 1,19 0.691,6.63599 1.524,13.30301 2.5,20 0.983,2.811 2.149,5.477 3.5,8 1.146,3.443 2.479,6.777 4,10 1.419,0.951 3.085,1.284 5,1 0.717,-4.844 0.717,-9.511 0,-14 -0.324,-6.11599 0.343,-12.11601 2,-18 -0.667,-1.667 -1.333,-3.333 -2,-5 0.831,-1.973 0.998,-3.973 0.5,-6 -2.328,-4.827 -5.828,-8.494 -10.5,-11 -0.806,-1.228 -1.806,-2.228 -3,-3 -0.57606,-0.7345 -1.34442,-1.09113 -2.30469,-1.07227 z m 351.55664,1.56641 c -3.6771,0.0918 -6.42758,1.92743 -8.25195,5.50586 -0.617,0.111 -1.117,0.444 -1.5,1 -1.029,5.62299 -1.529,11.29001 -1.5,17 v 1 c -0.15037,0.83237 -0.28175,1.66545 -0.39453,2.49805 -0.11278,0.83259 -0.20606,1.66522 -0.28125,2.49804 -0.0752,0.83283 -0.13233,1.66499 -0.16992,2.49805 -0.0376,0.83307 -0.0566,1.66669 -0.0566,2.5 0,0.83331 0.019,1.66644 0.0566,2.5 0.0376,0.83357 0.0947,1.66813 0.16992,2.50195 0.0752,0.83383 0.16847,1.66786 0.28125,2.50196 0.11278,0.83409 0.24416,1.66758 0.39453,2.50195 -0.15037,-0.83437 -0.28175,-1.66786 -0.39453,-2.50195 -0.11278,-0.8341 -0.20606,-1.66813 -0.28125,-2.50196 -0.0752,-0.83382 -0.13233,-1.66838 -0.16992,-2.50195 -0.0376,-0.83356 -0.0566,-1.66669 -0.0566,-2.5 0,-0.83331 0.019,-1.66693 0.0566,-2.5 0.0376,-0.83306 0.0947,-1.66522 0.16992,-2.49805 0.0752,-0.83282 0.16847,-1.66545 0.28125,-2.49804 0.11278,-0.8326 0.24416,-1.66568 0.39453,-2.49805 -1.767,2.292 -2.767,4.958 -3,8 -0.522,1.719 -1.522,3.052 -3,4 0.228,-4.424 -0.772,-8.424 -3,-12 -0.628,-3.455 -2.628,-4.622 -6,-3.5 -5.55199,3.725 -11.21801,7.225 -17,10.5 -1.781,4.071 -3.448,8.238 -5,12.5 0.167,1.167 0.333,2.333 0.5,3.5 2.036,2.092 3.536,4.426 4.5,7 2.089,4.8 3.422,9.80001 4,15 0.193,9.69399 -0.14,19.36101 -1,29 v 1 c -2.466,3.518 -3.466,7.518 -3,12 1.88,0.271 3.213,-0.396 4,-2 -0.14912,-0.0588 -0.28919,-0.12586 -0.42188,-0.20117 -0.13268,-0.0753 -0.25875,-0.15813 -0.375,-0.25 -0.11624,-0.0919 -0.22442,-0.19235 -0.32421,-0.30078 -0.0998,-0.10844 -0.1901,-0.22461 -0.27344,-0.34961 -0.0833,-0.125 -0.15968,-0.25883 -0.22656,-0.40039 -0.0669,-0.14157 -0.12536,-0.2911 -0.17579,-0.44922 -0.0504,-0.15813 -0.091,-0.32531 -0.125,-0.5 -0.034,-0.17469 -0.0606,-0.35758 -0.0781,-0.54883 0.0175,0.19125 0.0442,0.37414 0.0781,0.54883 0.034,0.17469 0.0746,0.34187 0.125,0.5 0.0504,0.15812 0.1089,0.30765 0.17579,0.44922 0.0669,0.14156 0.14322,0.27539 0.22656,0.40039 0.0833,0.125 0.17364,0.24117 0.27344,0.34961 0.0998,0.10843 0.20797,0.2089 0.32421,0.30078 0.11625,0.0919 0.24232,0.17469 0.375,0.25 0.13269,0.0753 0.27276,0.14242 0.42188,0.20117 0,-0.667 0.333,-1 1,-1 5.17999,-7.52199 10.18,-15.18901 15,-23 2.287,-3.652 4.121,-7.652 5.5,-12 2.047,-8.19699 2.88,-16.53001 2.5,-25 -0.165,-3.35 0.002,-6.683 0.5,-10 1.035,5.15599 2.202,10.156 3.5,15 -0.163,2.357 0.003,4.69 0.5,7 1.011,0.837 2.178,1.17 3.5,1 0.129,-1.716 0.462,-3.383 1,-5 3.084,-5.96799 5.418,-12.30101 7,-19 1.424,-2.015 2.09,-4.348 2,-7 v -1 c 1.349,-9.37799 1.015,-18.71101 -1,-28 -0.111,-0.617 -0.444,-1.117 -1,-1.5 -0.25337,-0.009 -0.50291,-0.012 -0.74805,-0.006 z m -328.86328,18.4082 c -0.44765,-0.006 -0.90992,0.0267 -1.38867,0.0977 -0.772,3.952 -1.105,7.952 -1,12 -1.16,12.15999 -1.327,24.49301 -0.5,37 1.8,3.851 3.3,7.851 4.5,12 1.445,1.894 3.112,3.56 5,5 -0.698,-1.724 -1.37756,-3.45441 -2.03906,-5.19141 -0.6615,-1.73699 -1.30469,-3.48047 -1.92969,-5.23047 -0.625,-1.74999 -1.23181,-3.50653 -1.82031,-5.26953 C 201.12244,485.0456 200.552,483.276 200,481.5 c -0.125,-2.74875 -0.22914,-5.49867 -0.3125,-8.24805 -0.0834,-2.74937 -0.14581,-5.49805 -0.1875,-8.24804 -0.0417,-2.75 -0.0625,-5.50133 -0.0625,-8.25196 2e-5,-2.75062 0.0207,-5.5007 0.0625,-8.25195 -0.0418,2.75125 -0.0625,5.50133 -0.0625,8.25195 -2e-5,2.75063 0.0208,5.50196 0.0625,8.25196 0.0417,2.74999 0.10414,5.49867 0.1875,8.24804 0.0834,2.74938 0.1875,5.4993 0.3125,8.24805 0.552,1.776 1.12244,3.5456 1.71094,5.30859 0.5885,1.763 1.19531,3.51954 1.82031,5.26953 0.625,1.75 1.26819,3.49348 1.92969,5.23047 0.6615,1.737 1.34106,3.46741 2.03906,5.19141 0.901,2.227 2.567,3.227 5,3 -1.869,-10.22699 -1.203,-20.22701 2,-30 3.744,-5.82699 6.744,-12.16101 9,-19 1.333,-2.667 1.333,-5.333 0,-8 -6.52399,-3.426 -12.85801,-7.092 -19,-11 -1.06425,-0.71325 -2.26836,-1.07923 -3.61133,-1.09766 z M 172.5,436.5 c 0.12637,0.4515 0.23985,0.90421 0.33984,1.35742 0.1,0.45322 0.18615,0.9064 0.25977,1.36133 0.0736,0.45493 0.13441,0.91055 0.18164,1.36719 0.0472,0.45664 0.0807,0.9147 0.10156,1.37304 0.0208,0.45835 0.029,0.91691 0.0234,1.37696 -0.006,0.46004 -0.0247,0.92107 -0.0566,1.38281 -0.032,0.46174 -0.0764,0.92524 -0.13477,1.38867 -0.0583,0.46344 -0.13009,0.92746 -0.21484,1.39258 0.0848,-0.46512 0.1565,-0.92914 0.21484,-1.39258 0.0583,-0.46343 0.10282,-0.92693 0.13477,-1.38867 0.0319,-0.46174 0.0511,-0.92277 0.0566,-1.38281 0.006,-0.46005 -0.003,-0.91861 -0.0234,-1.37696 -0.0208,-0.45834 -0.0543,-0.9164 -0.10156,-1.37304 -0.0472,-0.45664 -0.10802,-0.91226 -0.18164,-1.36719 -0.0736,-0.45493 -0.15977,-0.90811 -0.25977,-1.36133 -0.1,-0.45321 -0.21347,-0.90592 -0.33984,-1.35742 z m 169.38867,9.99609 c -1.76033,-0.0194 -3.55598,0.14866 -5.38867,0.50391 -1.442,0.377 -2.442,1.21 -3,2.5 0.59687,-0.20587 1.19688,-0.39702 1.80078,-0.57227 0.60391,-0.17524 1.21133,-0.33389 1.82227,-0.47851 0.61093,-0.14462 1.22578,-0.27469 1.84375,-0.38867 0.61797,-0.11399 1.24023,-0.21353 1.86523,-0.29688 0.625,-0.0833 1.25274,-0.15042 1.88477,-0.20312 0.63203,-0.0527 1.26719,-0.0893 1.90625,-0.11133 0.63906,-0.0221 1.28164,-0.0301 1.92773,-0.0215 0.64609,0.009 1.2961,0.033 1.94922,0.0723 -2.14369,-0.64406 -4.34804,-0.97891 -6.61133,-1.00391 z M 348.5,447.5 c -0.65312,-0.0392 -1.30313,-0.0637 -1.94922,-0.0723 -0.64609,-0.009 -1.28867,-5.7e-4 -1.92773,0.0215 -0.63906,0.022 -1.27422,0.0586 -1.90625,0.11133 -0.63203,0.0527 -1.25977,0.11978 -1.88477,0.20312 -0.625,0.0833 -1.24726,0.18289 -1.86523,0.29688 -0.61797,0.11398 -1.23282,0.24405 -1.84375,0.38867 -0.61094,0.14462 -1.21836,0.30327 -1.82227,0.47851 -0.6039,0.17525 -1.20391,0.3664 -1.80078,0.57227 -2.155,3.103 -4.489,6.103 -7,9 -0.333,1 -1,1.667 -2,2 -1.295,4.474 -2.962,8.807 -5,13 -2.938,7.61799 -2.604,14.95101 1,22 -0.14831,-1.00256 -0.27192,-1.99776 -0.36914,-2.98438 -0.0972,-0.98661 -0.16872,-1.96487 -0.21484,-2.93554 -0.0461,-0.97067 -0.0655,-1.93395 -0.0605,-2.88867 0.005,-0.95473 0.0357,-1.90107 0.0918,-2.83985 0.056,-0.93878 0.13699,-1.87013 0.24414,-2.79297 0.10715,-0.92283 0.24019,-1.83725 0.39843,-2.74414 0.15824,-0.90689 0.34145,-1.80436 0.55078,-2.69531 0.20934,-0.89094 0.44466,-1.77539 0.70508,-2.65039 0.26042,-0.875 0.54591,-1.74056 0.85742,-2.59961 0.31152,-0.85905 0.64912,-1.71158 1.01172,-2.55469 0.3626,-0.84311 0.75038,-1.67869 1.16407,-2.50586 0.41369,-0.82716 0.85358,-1.64581 1.31836,-2.45703 0.46477,-0.81122 0.95483,-1.61488 1.4707,-2.41015 0.51586,-0.79528 1.05609,-1.582 1.62305,-2.36133 0.56695,-0.77933 1.1593,-1.55107 1.77734,-2.31446 0.61804,-0.76338 1.26252,-1.51818 1.93164,-2.26562 -0.66912,0.74744 -1.3136,1.50224 -1.93164,2.26562 -0.61804,0.76339 -1.21039,1.53513 -1.77734,2.31446 -0.56696,0.77933 -1.10719,1.56605 -1.62305,2.36133 -0.51587,0.79527 -1.00593,1.59893 -1.4707,2.41015 -0.46478,0.81122 -0.90467,1.62987 -1.31836,2.45703 -0.41369,0.82717 -0.80147,1.66275 -1.16407,2.50586 -0.3626,0.84311 -0.7002,1.69564 -1.01172,2.55469 -0.31151,0.85905 -0.597,1.72461 -0.85742,2.59961 -0.26042,0.875 -0.49574,1.75945 -0.70508,2.65039 -0.20933,0.89095 -0.39254,1.78842 -0.55078,2.69531 -0.15824,0.90689 -0.29128,1.82131 -0.39843,2.74414 -0.10715,0.92284 -0.18809,1.85419 -0.24414,2.79297 -0.0561,0.93878 -0.0868,1.88512 -0.0918,2.83985 -0.005,0.95472 0.0144,1.918 0.0605,2.88867 0.0461,0.97067 0.11762,1.94893 0.21484,2.93554 0.0972,0.98662 0.22083,1.98182 0.36914,2.98438 v 5 c 0.676,9.68499 3.343,18.68501 8,27 0.255,2.467 1.255,4.467 3,6 1.801,6.94399 5.135,12.94401 10,18 0.511,-4.626 0.678,-9.293 0.5,-14 1.736,-9.85699 3.903,-19.52401 6.5,-29 0.996,0.086 1.829,-0.248 2.5,-1 1.081,-5.35799 2.914,-10.358 5.5,-15 1.238,-1.714 1.905,-3.714 2,-6 0.48225,-0.84625 0.93856,-1.71031 1.36719,-2.5918 0.42862,-0.88148 0.83008,-1.78058 1.20508,-2.69726 0.375,-0.91669 0.72354,-1.85088 1.04492,-2.80274 0.32137,-0.95186 0.61506,-1.9212 0.88281,-2.9082 -0.26775,0.987 -0.56144,1.95634 -0.88281,2.9082 -0.32138,0.95186 -0.66992,1.88605 -1.04492,2.80274 -0.375,0.91668 -0.77646,1.81578 -1.20508,2.69726 -0.42863,0.88149 -0.88494,1.74555 -1.36719,2.5918 5.04599,-4.783 7.38,-10.78301 7,-18 -0.007,-1.869 -0.34,-3.536 -1,-5 -1.431,-1.28 -2.098,-2.947 -2,-5 -1.333,-1 -2.667,-2 -4,-3 0.368,0.54137 0.71683,1.09135 1.04492,1.64844 0.32809,0.55709 0.63565,1.12056 0.92383,1.69336 0.28818,0.57279 0.55642,1.15369 0.80469,1.74218 0.24826,0.5885 0.4772,1.18488 0.68554,1.78907 0.20835,0.60418 0.39604,1.21606 0.56446,1.83593 0.16842,0.61987 0.31682,1.24727 0.44531,1.88282 0.12849,0.63554 0.23761,1.28042 0.32617,1.93164 0.0886,0.65121 0.15646,1.30969 0.20508,1.97656 -0.0486,-0.66687 -0.11652,-1.32535 -0.20508,-1.97656 -0.0886,-0.65122 -0.19768,-1.2961 -0.32617,-1.93164 -0.12849,-0.63555 -0.27689,-1.26295 -0.44531,-1.88282 -0.16842,-0.61987 -0.35611,-1.23175 -0.56446,-1.83593 -0.20834,-0.60419 -0.43728,-1.20057 -0.68554,-1.78907 -0.24827,-0.58849 -0.51651,-1.16939 -0.80469,-1.74218 -0.28818,-0.5728 -0.59574,-1.13627 -0.92383,-1.69336 -0.32809,-0.55709 -0.67692,-1.10707 -1.04492,-1.64844 -2.418,-3.745 -5.751,-6.412 -10,-8 z m 53.38086,-0.5 c -1.432,-2e-5 -2.89186,0.16675 -4.38086,0.5 -4.068,2.098 -6.735,5.431 -8,10 -0.683,0.363 -1.35,0.696 -2,1 -1.298,3.588 -2.964,6.921 -5,10 -0.306,2.885 0.027,5.552 1,8 -0.0408,-0.58925 -0.0609,-1.17741 -0.0605,-1.76367 4.1e-4,-0.58627 0.0209,-1.1706 0.0625,-1.75391 0.0416,-0.58331 0.1046,-1.1657 0.1875,-1.74609 0.0829,-0.58039 0.1863,-1.15883 0.31055,-1.73633 -0.12425,0.5775 -0.22764,1.15594 -0.31055,1.73633 -0.0829,0.58039 -0.14587,1.16278 -0.1875,1.74609 -0.0416,0.58331 -0.0621,1.16764 -0.0625,1.75391 -4e-4,0.58626 0.0198,1.17442 0.0605,1.76367 1.618,4.526 3.618,8.859 6,13 1.573,7.96699 3.573,15.63401 6,23 0.629,9.31999 0.962,18.65401 1,28 -0.086,4.357 -0.42,8.69 -1,13 1.478,0.262 2.811,-0.071 4,-1 0.98,-1.481 2.147,-2.815 3.5,-4 1.455,-5.53499 3.955,-10.535 7.5,-15 1.236,-2.149 2.236,-4.482 3,-7 0.188,-2.706 1.188,-5.039 3,-7 1.424,-2.015 2.09,-4.348 2,-7 8.47299,-18.45998 7.80699,-36.46002 -2,-54 -0.667,-1 -1.333,-2 -2,-3 0.157,-1.373 -0.01,-2.707 -0.5,-4 -3.783,-3 -7.82314,-4.49995 -12.11914,-4.5 z m -170.27344,4.55859 c -1,0 -2.03592,0.31441 -3.10742,0.94141 -1.326,15.18498 -0.992,30.18501 1,45 -0.0418,-3.6675 -0.0625,-7.33485 -0.0625,-11.00195 -2e-5,-3.66711 0.0208,-7.33332 0.0625,-11 0.0417,-3.66669 0.10414,-7.33377 0.1875,-11 0.0834,-3.66623 0.1875,-7.3323 0.3125,-10.99805 -0.125,3.66575 -0.22914,7.33182 -0.3125,10.99805 -0.0834,3.66623 -0.14581,7.33331 -0.1875,11 -0.0417,3.66668 -0.0625,7.33289 -0.0625,11 2e-5,3.6671 0.0207,7.33445 0.0625,11.00195 0.623,7.47599 1.623,14.80901 3,22 2.923,5.90899 6.59,11.243 11,16 2.42,4.441 6.087,6.775 11,7 0.302,-2.559 -0.032,-4.893 -1,-7 -0.667,-1 -1.333,-2 -2,-3 0.132,-3.07 -0.201,-6.07 -1,-9 -0.599,-10.65599 -0.933,-21.32301 -1,-32 0.838,-9.59399 2.171,-19.26001 4,-29 -0.167,-1.333 -0.333,-2.667 -0.5,-4 -0.383,-0.556 -0.883,-0.889 -1.5,-1 -5.39399,-2.405 -11.06101,-4.072 -17,-5 -0.9285,-0.627 -1.89258,-0.94141 -2.89258,-0.94141 z m 66.72656,0.92383 c -0.27215,-0.003 -0.54973,0.003 -0.83398,0.0176 -6.27899,1.228 -12.61201,2.061 -19,2.5 -3.303,3.455 -5.969,7.289 -8,11.5 -0.54387,1.66 -1.04586,3.32596 -1.50586,4.99805 -0.46,1.67209 -0.87779,3.35098 -1.25391,5.03515 -0.37611,1.68418 -0.70972,3.37405 -1.00195,5.07032 0.29223,-1.69627 0.62584,-3.38614 1.00195,-5.07032 0.37612,-1.68417 0.79391,-3.36306 1.25391,-5.03515 0.46,-1.67209 0.96199,-3.33805 1.50586,-4.99805 -0.617,0.111 -1.117,0.444 -1.5,1 -1.017,3.744 -2.184,7.411 -3.5,11 -0.11387,1.07825 -0.21861,2.15683 -0.31445,3.23633 -0.0958,1.0795 -0.18197,2.15947 -0.25977,3.24023 -0.0778,1.08077 -0.14728,2.16211 -0.20703,3.24414 -0.0598,1.08204 -0.11066,2.16474 -0.15234,3.24805 -0.0417,1.08331 -0.074,2.16736 -0.0977,3.25195 -0.0236,1.0846 -0.0394,2.16997 -0.0449,3.25586 -0.006,1.08589 -8.2e-4,2.17258 0.0117,3.25977 0.0125,1.08719 0.0338,2.17517 0.0645,3.26367 -0.237,1.291 0.096,2.291 1,3 -0.12725,-1.75662 -0.21251,-3.50739 -0.25586,-5.25195 -0.0434,-1.74456 -0.0445,-3.48236 -0.004,-5.21485 0.0406,-1.73249 0.1236,-3.45927 0.24805,-5.17968 0.12445,-1.72042 0.2897,-3.43424 0.49805,-5.14258 -0.20835,1.70834 -0.3736,3.42216 -0.49805,5.14258 -0.12445,1.72041 -0.20749,3.44719 -0.24805,5.17968 -0.0405,1.73249 -0.0394,3.47029 0.004,5.21485 0.0433,1.74456 0.12861,3.49533 0.25586,5.25195 v 2 c 2.103,12.42099 5.437,24.42101 10,36 h 1 c 2.566,4.577 5.566,8.911 9,13 2.513,2.941 4.847,5.941 7,9 1,1.333 2,2.667 3,4 2.103,3.845 5.103,4.845 9,3 -0.34325,0.0393 -0.68314,0.0579 -1.02148,0.0566 -0.33835,-10e-4 -0.67444,-0.0228 -1.00782,-0.0644 -0.33337,-0.0417 -0.66579,-0.10344 -0.99414,-0.18555 -0.32834,-0.0821 -0.65331,-0.18414 -0.97656,-0.30664 0.32325,0.1225 0.64822,0.22453 0.97656,0.30664 0.32835,0.0821 0.66077,0.14386 0.99414,0.18555 0.33338,0.0417 0.66947,0.0632 1.00782,0.0644 0.33834,0.001 0.67823,-0.0174 1.02148,-0.0566 1.086,-0.12 1.753,-0.787 2,-2 -1.151,-1.825 -1.818,-3.825 -2,-6 -0.489,-1.495 -1.155,-2.829 -2,-4 -2.019,-7.25099 -3.852,-14.58401 -5.5,-22 -0.167,-3 -0.333,-6 -0.5,-9 1.007,-10.37399 2.34,-20.70801 4,-31 1.424,-2.015 2.09,-4.348 2,-7 1.465,-3.524 2.465,-7.191 3,-11 1.869,-2.135 2.536,-4.802 2,-8 2.461,-3.973 2.461,-7.973 0,-12 v -2 c -0.838,-0.342 -1.172,-1.008 -1,-2 -1.36125,-3.96656 -4.08368,-5.9727 -8.16602,-6.01758 z M 264.5,504.5 c -0.0306,-1.0885 -0.0519,-2.17648 -0.0645,-3.26367 -0.0125,-1.08719 -0.0173,-2.17388 -0.0117,-3.25977 0.006,-1.08589 0.0213,-2.17126 0.0449,-3.25586 0.0236,-1.08459 0.056,-2.16864 0.0977,-3.25195 0.0417,-1.08331 0.0926,-2.16601 0.15234,-3.24805 0.0598,-1.08203 0.12923,-2.16337 0.20703,-3.24414 0.0778,-1.08076 0.16393,-2.16073 0.25977,-3.24023 0.0958,-1.0795 0.20058,-2.15808 0.31445,-3.23633 -0.722,0.418 -1.222,1.084 -1.5,2 -0.823,8.17699 -0.656,16.17701 0.5,24 z m 189,-50 c -4.66675,0 -9.3335,0.1665 -14,0.5 -0.663,1.518 -1.663,2.685 -3,3.5 v 5 c -0.11987,0.70475 -0.22714,1.40958 -0.32227,2.11523 -0.0951,0.70566 -0.17768,1.41259 -0.24804,2.11915 -0.0704,0.70655 -0.12822,1.41364 -0.17383,2.12109 -0.0456,0.70745 -0.0788,1.4147 -0.0996,2.12305 -0.0208,0.70834 -0.0293,1.41772 -0.0254,2.12695 0.004,0.70923 0.0201,1.41879 0.0488,2.12891 0.0287,0.71011 0.0696,1.41986 0.12304,2.13085 0.0535,0.711 0.11902,1.4229 0.19727,2.13477 -0.0783,-0.71187 -0.14379,-1.42377 -0.19727,-2.13477 -0.0535,-0.71099 -0.0944,-1.42074 -0.12304,-2.13085 -0.0287,-0.71012 -0.0449,-1.41968 -0.0488,-2.12891 -0.004,-0.70923 0.005,-1.41861 0.0254,-2.12695 0.0208,-0.70835 0.054,-1.4156 0.0996,-2.12305 0.0456,-0.70745 0.10346,-1.41454 0.17383,-2.12109 0.0704,-0.70656 0.15292,-1.41349 0.24804,-2.11915 0.0951,-0.70565 0.2024,-1.41048 0.32227,-2.11523 -1.406,0.473 -2.073,1.473 -2,3 -0.0875,0.53725 -0.17006,1.07494 -0.24609,1.61328 -0.076,0.53835 -0.14637,1.07774 -0.21094,1.61719 -0.0646,0.53944 -0.12267,1.07859 -0.17578,1.61914 -0.0531,0.54055 -0.10092,1.08139 -0.14258,1.62305 -0.0417,0.54165 -0.0772,1.08418 -0.10742,1.62695 -0.0302,0.54277 -0.0555,1.08698 -0.0742,1.63086 -0.0188,0.54388 -0.0318,1.08781 -0.0391,1.63281 -0.007,0.545 -0.008,1.0906 -0.004,1.63672 0.967,4.88 2.301,9.547 4,14 v 2 c 0.963,12.95099 1.296,25.95101 1,39 -0.027,1.699 -0.694,3.033 -2,4 -1.63,3.726 -2.63,7.726 -3,12 v 2 1 c -0.119,0.85675 -0.20808,1.70772 -0.26758,2.55273 -0.0595,0.84502 -0.0898,1.68427 -0.0898,2.51758 0,0.83331 0.0303,1.66078 0.0898,2.48242 0.0595,0.82164 0.14858,1.63727 0.26758,2.44727 -0.119,-0.81 -0.20808,-1.62563 -0.26758,-2.44727 -0.0595,-0.82164 -0.0898,-1.64911 -0.0898,-2.48242 0,-0.83331 0.0303,-1.67256 0.0898,-2.51758 0.0595,-0.84501 0.14858,-1.69598 0.26758,-2.55273 -3.508,5.52199 -5.842,11.52201 -7,18 1.373,0.157 2.707,-0.01 4,-0.5 2.138,-4.3 5.138,-7.8 9,-10.5 1.639,-2.306 3.639,-4.306 6,-6 l 2,-2 c 0.761,-3.865 2.761,-6.865 6,-9 1.962,-2.974 3.962,-5.974 6,-9 1.333,-3.667 2.667,-7.333 4,-11 1.474,-0.936 2.474,-2.27 3,-4 0.4055,-1.20837 0.78636,-2.42184 1.14258,-3.64062 0.35621,-1.21879 0.68721,-2.44269 0.99414,-3.67188 0.30693,-1.22919 0.59002,-2.46353 0.84766,-3.70312 0.25763,-1.2396 0.49087,-2.48438 0.69921,-3.73438 0.20835,-1.25 0.39174,-2.50522 0.55079,-3.76562 0.15904,-1.26041 0.2926,-2.52607 0.40234,-3.79688 0.10974,-1.27081 0.19542,-2.54691 0.25586,-3.82812 0.0604,-1.28122 0.0963,-2.56776 0.10742,-3.85938 -0.0111,1.29162 -0.047,2.57816 -0.10742,3.85938 -0.0604,1.28121 -0.14612,2.55731 -0.25586,3.82812 -0.10974,1.27081 -0.2433,2.53647 -0.40234,3.79688 -0.15905,1.2604 -0.34244,2.51562 -0.55079,3.76562 -0.20834,1.25 -0.44158,2.49478 -0.69921,3.73438 -0.25764,1.23959 -0.54073,2.47393 -0.84766,3.70312 -0.30693,1.22919 -0.63793,2.45309 -0.99414,3.67188 -0.35622,1.21878 -0.73708,2.43225 -1.14258,3.64062 1.723,-1.753 3.223,-3.753 4.5,-6 0.642,-3.991 1.142,-7.991 1.5,-12 1.153,-6.15299 1.32,-12.48601 0.5,-19 -1.492,-7.93599 -2.492,-15.93601 -3,-24 -0.278,-0.916 -0.778,-1.582 -1.5,-2 -0.111,-0.617 -0.444,-1.117 -1,-1.5 -4.6665,-0.3335 -9.33325,-0.5 -14,-0.5 z m -20,25 c -0.004,-0.54612 -0.003,-1.09172 0.004,-1.63672 0.007,-0.545 0.0203,-1.08893 0.0391,-1.63281 0.0188,-0.54388 0.044,-1.08809 0.0742,-1.63086 0.0302,-0.54277 0.0658,-1.0853 0.10742,-1.62695 0.0417,-0.54166 0.0895,-1.0825 0.14258,-1.62305 0.0531,-0.54055 0.11121,-1.0797 0.17578,-1.61914 0.0646,-0.53945 0.1349,-1.07884 0.21094,-1.61719 0.076,-0.53834 0.15859,-1.07603 0.24609,-1.61328 -1.452,2.348 -2.118,5.014 -2,8 0.007,1.869 0.34,3.536 1,5 z M 299.62305,454.95703 c 0.95874,0.006 1.91808,0.0205 2.87695,0.043 0.33575,0.7765 0.64986,1.55825 0.94336,2.34375 0.2935,0.7855 0.56712,1.57464 0.81836,2.36914 0.25123,0.7945 0.48049,1.59299 0.68945,2.39649 0.20897,0.80349 0.39777,1.61132 0.56445,2.42382 0.16669,0.8125 0.31115,1.62968 0.43555,2.45118 0.1244,0.82149 0.22844,1.64801 0.31055,2.47851 0.0821,0.8305 0.14183,1.66636 0.18164,2.50586 0.0398,0.8395 0.0591,1.68275 0.0566,2.53125 0.067,0.39975 0.0961,0.78192 0.0879,1.14844 -0.008,0.36651 -0.0533,0.71747 -0.13672,1.05078 -0.0834,0.33331 -0.20481,0.64908 -0.36328,0.94922 -0.15847,0.30014 -0.35439,0.58456 -0.58789,0.85156 0.2335,-0.267 0.42942,-0.55142 0.58789,-0.85156 0.15847,-0.30014 0.27991,-0.61591 0.36328,-0.94922 0.0834,-0.33331 0.1285,-0.68427 0.13672,-1.05078 0.008,-0.36652 -0.0209,-0.74869 -0.0879,-1.14844 0.002,-0.8485 -0.0168,-1.69175 -0.0566,-2.53125 -0.0398,-0.8395 -0.0995,-1.67536 -0.18164,-2.50586 -0.0821,-0.8305 -0.18615,-1.65702 -0.31055,-2.47851 -0.1244,-0.8215 -0.26886,-1.63868 -0.43555,-2.45118 -0.16668,-0.8125 -0.35548,-1.62033 -0.56445,-2.42382 -0.20896,-0.8035 -0.43822,-1.60199 -0.68945,-2.39649 -0.25124,-0.7945 -0.52486,-1.58364 -0.81836,-2.36914 -0.2935,-0.7855 -0.60761,-1.56725 -0.94336,-2.34375 -1.91775,-0.045 -3.83472,-0.0583 -5.75195,-0.0391 -1.91724,0.0192 -3.83527,0.0709 -5.75196,0.15429 -1.91668,0.0834 -3.83194,0.19824 -5.74804,0.34571 -1.91611,0.14747 -3.83255,0.32756 -5.74805,0.53906 1.9155,-0.2115 3.83194,-0.39159 5.74805,-0.53906 1.9161,-0.14747 3.83136,-0.26233 5.74804,-0.34571 1.91669,-0.0834 3.83472,-0.13507 5.75196,-0.15429 0.95861,-0.01 1.91625,-0.0104 2.875,-0.004 z m 160.37304,1.48047 c 2.16749,-3e-5 4.33566,0.021 6.50391,0.0625 -2.16825,-0.0415 -4.33642,-0.0625 -6.50391,-0.0625 z m 0,0 c -2.16748,3e-5 -4.33331,0.0209 -6.5,0.0625 -2.16668,0.0416 -4.33414,0.10422 -6.5,0.1875 -2.16585,0.0833 -4.33109,0.1875 -6.49609,0.3125 2.165,-0.125 4.33024,-0.22922 6.49609,-0.3125 2.16586,-0.0833 4.33332,-0.14588 6.5,-0.1875 2.16669,-0.0416 4.33252,-0.0625 6.5,-0.0625 z M 512.5,460.5 c 0.12525,1.66775 0.22902,3.3348 0.3125,5.00195 0.0835,1.66716 0.14581,3.33533 0.1875,5.00196 0.0417,1.66662 0.0626,3.33189 0.0625,4.99804 -1.4e-4,1.66616 -0.0205,3.3323 -0.0625,4.99805 -0.14575,0.3755 -0.30736,0.74131 -0.48438,1.0957 -0.17701,0.35439 -0.36981,0.69794 -0.57812,1.03125 -0.20831,0.33332 -0.43223,0.65649 -0.67188,0.96875 -0.23964,0.31227 -0.49462,0.61305 -0.76562,0.9043 0.271,-0.29125 0.52598,-0.59203 0.76562,-0.9043 0.23965,-0.31226 0.46357,-0.63543 0.67188,-0.96875 0.20831,-0.33331 0.40111,-0.67686 0.57812,-1.03125 0.17702,-0.35439 0.33863,-0.7202 0.48438,-1.0957 0.042,-1.66575 0.0624,-3.33189 0.0625,-4.99805 1.4e-4,-1.66615 -0.0208,-3.33142 -0.0625,-4.99804 -0.0417,-1.66663 -0.10402,-3.3348 -0.1875,-5.00196 -0.0835,-1.66715 -0.18725,-3.3342 -0.3125,-5.00195 z m 6,7 c 0.1735,0.73025 0.35598,1.46495 0.54688,2.20508 0.19089,0.74012 0.38934,1.48633 0.59765,2.23633 0.20831,0.75 0.42658,1.50379 0.65235,2.26367 0.22576,0.75987 0.45987,1.52517 0.70312,2.29492 -0.24325,-0.76975 -0.47736,-1.53505 -0.70312,-2.29492 -0.22577,-0.75988 -0.44404,-1.51367 -0.65235,-2.26367 -0.20831,-0.75 -0.40676,-1.49621 -0.59765,-2.23633 -0.1909,-0.74013 -0.37338,-1.47483 -0.54688,-2.20508 z m -96,20 c -0.3205,2.10275 -0.66459,4.19996 -1.0332,6.29297 -0.36861,2.09301 -0.76105,4.18231 -1.17774,6.26562 -0.41668,2.08331 -0.85753,4.16074 -1.32226,6.23438 -0.46474,2.07364 -0.95405,4.14303 -1.4668,6.20703 -0.15562,0.44637 -0.32011,0.88919 -0.49414,1.32812 -0.17403,0.43894 -0.35836,0.87319 -0.55078,1.30469 -0.19242,0.43151 -0.39271,0.86108 -0.60352,1.28516 -0.21081,0.42408 -0.43097,0.84311 -0.66015,1.25976 -0.22919,0.41666 -0.46729,0.82905 -0.71485,1.23829 -0.24756,0.40923 -0.50556,0.81497 -0.77148,1.21679 -0.26592,0.40182 -0.53994,0.80091 -0.82422,1.19531 -0.28428,0.39441 -0.57824,0.78488 -0.88086,1.17188 0.30262,-0.387 0.59658,-0.77747 0.88086,-1.17188 0.28428,-0.3944 0.5583,-0.79349 0.82422,-1.19531 0.26592,-0.40182 0.52392,-0.80756 0.77148,-1.21679 0.24756,-0.40924 0.48566,-0.82163 0.71485,-1.23829 0.22918,-0.41665 0.44934,-0.83568 0.66015,-1.25976 0.21081,-0.42408 0.4111,-0.85365 0.60352,-1.28516 0.19242,-0.4315 0.37675,-0.86575 0.55078,-1.30469 0.17403,-0.43893 0.33852,-0.88175 0.49414,-1.32812 0.51275,-2.064 1.00206,-4.13339 1.4668,-6.20703 0.46473,-2.07364 0.90558,-4.15107 1.32226,-6.23438 0.41669,-2.08331 0.80913,-4.17261 1.17774,-6.26562 0.36861,-2.09301 0.7127,-4.19022 1.0332,-6.29297 z m -78.5,29 c -0.34125,2.28025 -0.71156,4.55324 -1.11133,6.81836 -0.39976,2.26512 -0.8288,4.52149 -1.28711,6.77148 -0.45831,2.25 -0.946,4.49365 -1.46289,6.72852 -0.51689,2.23487 -1.06317,4.46189 -1.63867,6.68164 0.5755,-2.21975 1.12178,-4.44677 1.63867,-6.68164 0.51689,-2.23487 1.00458,-4.47852 1.46289,-6.72852 0.45831,-2.24999 0.88735,-4.50636 1.28711,-6.77148 0.39977,-2.26512 0.77008,-4.53811 1.11133,-6.81836 z m -109,4 c 0.82525,1.28375 1.66355,2.5593 2.51367,3.82617 0.85013,1.26688 1.71289,2.52539 2.58789,3.77539 0.875,1.25 1.76224,2.49149 2.66211,3.72461 0.89988,1.23313 1.81158,2.45758 2.73633,3.67383 0.2305,0.39837 0.47425,0.77739 0.73047,1.13867 0.25622,0.36128 0.52471,0.70511 0.80664,1.0293 0.28193,0.32419 0.57713,0.62892 0.88477,0.91601 0.30763,0.2871 0.62759,0.55665 0.96093,0.80664 0.33335,0.25 0.68002,0.48046 1.03907,0.69336 0.35904,0.21291 0.73049,0.40818 1.11523,0.58399 0.38474,0.17581 0.78292,0.33198 1.19336,0.4707 0.41043,0.13872 0.83341,0.25971 1.26953,0.36133 -0.43612,-0.10162 -0.8591,-0.22261 -1.26953,-0.36133 -0.41044,-0.13872 -0.80862,-0.29489 -1.19336,-0.4707 -0.38474,-0.17581 -0.75619,-0.37108 -1.11523,-0.58399 -0.35905,-0.2129 -0.70572,-0.44336 -1.03907,-0.69336 -0.33334,-0.24999 -0.6533,-0.51954 -0.96093,-0.80664 -0.30764,-0.28709 -0.60284,-0.59182 -0.88477,-0.91601 -0.28193,-0.32419 -0.55042,-0.66802 -0.80664,-1.0293 -0.25622,-0.36128 -0.49997,-0.7403 -0.73047,-1.13867 -0.92475,-1.21625 -1.83645,-2.4407 -2.73633,-3.67383 -0.89987,-1.23312 -1.78711,-2.47461 -2.66211,-3.72461 -0.875,-1.25 -1.73776,-2.50851 -2.58789,-3.77539 C 236.66355,523.0593 235.82525,521.78375 235,520.5 Z m 175.5,9 c -0.22312,0.49837 -0.45766,0.9921 -0.70312,1.48047 -0.24547,0.48837 -0.50172,0.97085 -0.76954,1.44922 -0.26781,0.47836 -0.54773,0.95156 -0.83789,1.41992 -0.29015,0.46836 -0.58984,0.93228 -0.90234,1.39062 -0.3125,0.45835 -0.63781,0.91105 -0.97266,1.35938 -0.33484,0.44833 -0.67992,0.89177 -1.03711,1.33008 0.35719,-0.43831 0.70227,-0.88175 1.03711,-1.33008 0.33485,-0.44833 0.66016,-0.90103 0.97266,-1.35938 0.3125,-0.45834 0.61219,-0.92226 0.90234,-1.39062 0.29016,-0.46836 0.57008,-0.94156 0.83789,-1.41992 0.26782,-0.47837 0.52407,-0.96085 0.76954,-1.44922 0.24546,-0.48837 0.48,-0.9821 0.70312,-1.48047 z m -11,5 c -0.112,0.62912 -0.21092,1.25863 -0.29492,1.88672 -0.084,0.62809 -0.15299,1.25575 -0.20899,1.88281 -0.056,0.62706 -0.099,1.25288 -0.12695,1.87891 -0.028,0.62603 -0.041,1.25195 -0.041,1.87695 0,0.625 0.013,1.24908 0.041,1.87305 0.028,0.62397 0.0709,1.24815 0.12695,1.87109 0.056,0.62294 0.12499,1.24528 0.20899,1.86719 0.084,0.6219 0.18292,1.24241 0.29492,1.86328 -0.112,-0.62087 -0.21092,-1.24138 -0.29492,-1.86328 -0.084,-0.62191 -0.15299,-1.24425 -0.20899,-1.86719 -0.056,-0.62294 -0.099,-1.24712 -0.12695,-1.87109 -0.028,-0.62397 -0.041,-1.24805 -0.041,-1.87305 0,-0.625 0.013,-1.25092 0.041,-1.87695 0.028,-0.62603 0.0709,-1.25185 0.12695,-1.87891 0.056,-0.62706 0.12499,-1.25472 0.20899,-1.88281 0.084,-0.62809 0.18292,-1.2576 0.29492,-1.88672 z m 55.5,1 c -0.1535,0.58975 -0.32628,1.1664 -0.51953,1.72852 -0.19325,0.56212 -0.40763,1.11004 -0.64063,1.64453 -0.233,0.53448 -0.48506,1.05566 -0.75781,1.5625 -0.27275,0.50684 -0.56641,0.99933 -0.87891,1.47851 -0.31249,0.47919 -0.64384,0.94496 -0.99609,1.39649 -0.35225,0.45152 -0.72519,0.88864 -1.11719,1.3125 -0.392,0.42386 -0.80262,0.83428 -1.23437,1.23047 -0.43175,0.39618 -0.88397,0.77798 -1.35547,1.14648 0.4715,-0.3685 0.92372,-0.7503 1.35547,-1.14648 0.43175,-0.39619 0.84237,-0.80661 1.23437,-1.23047 0.392,-0.42386 0.76494,-0.86098 1.11719,-1.3125 0.35225,-0.45153 0.6836,-0.9173 0.99609,-1.39649 0.3125,-0.47918 0.60616,-0.97167 0.87891,-1.47851 0.27275,-0.50684 0.52481,-1.02802 0.75781,-1.5625 0.233,-0.53449 0.44738,-1.08241 0.64063,-1.64453 C 454.67372,536.6664 454.8465,536.08975 455,535.5 Z"
       style="clip-rule:evenodd;fill:#000000;fill-opacity:1;fill-rule:evenodd;stroke:#ffffff;stroke-width:10.9;stroke-linejoin:round;stroke-dasharray:none;stroke-opacity:1;paint-order:markers stroke fill;image-rendering:optimizeQuality;shape-rendering:geometricPrecision;text-rendering:geometricPrecision"
       sodipodi:nodetypes="ccccssssssscssssssscssssssscsssssssccccccccccccccccccccccccsccccccccccccssccccssssssscsssssssccccccccccccccssssssscssssssscccccccccccccccsscccccssscssscssscsssccccccscssssssscssssssscsccssssssscscssssssscccccssssssssssssssscsssssssssssssssccccccccccssscssscccccssssssscsssssssccscccccssscsssccccccccccccccssccssscsssccccccccccccsscccsscsscccsssssssccssscsssccccccccssscssscccccccccccccscssssssscccscccssssssscsssssssccsssssssccccccccssscsssccccccccccssssssscssssssscccccccscssssssscccscssssssscssscssscssssssscssscssssccccsscssccssscssscssscsssccssscsssccssscssssssscssssssscsssccssscsssccssscssssssscssssssscsssccssssscsssssccssssssscsssssssccssssssscsssssssc"
       inkscape:label="Upper_teeth" />
    <path
       id="path746"
       d="m 214.5,589.5 c -0.833,3.708 -0.5,7.374 1,11 0.495,1.982 0.995,3.982 1.5,6 1.011,0.837 2.178,1.17 3.5,1 0.165,-3.682 -0.001,-7.348 -0.5,-11 -0.232,-1.237 -0.732,-2.237 -1.5,-3 -0.979,-1.645 -2.312,-2.979 -4,-4 z m 290,2 c -4.514,5.05899 -6.181,11.05901 -5,18 2.092,-0.061 3.592,-1.061 4.5,-3 1.285,-3.4 2.119,-6.9 2.5,-10.5 -0.069,-1.986 -0.735,-3.486 -2,-4.5 z m -11,13 c -2.335,7.34699 -4.668,14.68101 -7,22 -0.617,0.111 -1.117,0.444 -1.5,1 -0.495,1.973 -0.662,3.973 -0.5,6 v 2 c -0.0362,0.25931 -0.0672,0.51594 -0.0937,0.77148 -0.0265,0.25555 -0.0477,0.50994 -0.0645,0.76172 -0.0168,0.25178 -0.0301,0.50199 -0.0371,0.75 -0.007,0.24802 -0.009,0.49404 -0.006,0.73828 0.003,0.24425 0.011,0.48609 0.0234,0.72657 0.0124,0.24047 0.0286,0.48008 0.0508,0.71679 0.0222,0.23671 0.0501,0.47019 0.082,0.70313 0.0319,0.23294 0.0677,0.46419 0.10937,0.69336 0.0417,0.22917 0.0892,0.45624 0.14063,0.68164 0.0514,0.2254 0.10682,0.45024 0.16797,0.67187 0.0611,0.22164 0.12638,0.44035 0.19726,0.65821 0.0709,0.21786 0.14789,0.43434 0.22852,0.64843 0.0806,0.21409 0.16548,0.42641 0.25586,0.63672 0.0904,0.21032 0.18503,0.41846 0.28515,0.625 0.10013,0.20655 0.20653,0.41051 0.31641,0.61328 0.10988,0.20278 0.22413,0.40452 0.34375,0.60352 3.397,-5.04399 6.73,-10.044 10,-15 0.0942,-0.62037 0.18258,-1.24175 0.26367,-1.86328 0.0811,-0.62153 0.15471,-1.24255 0.22266,-1.86524 0.0679,-0.62268 0.12879,-1.24725 0.18359,-1.87109 0.0548,-0.62384 0.10288,-1.24805 0.14453,-1.87305 0.0417,-0.625 0.0769,-1.25079 0.10547,-1.87695 0.0285,-0.62615 0.051,-1.25159 0.0664,-1.87891 0.0154,-0.62731 0.0251,-1.25629 0.0273,-1.88476 0.002,-0.62847 -0.003,-1.2571 -0.0137,-1.88672 -0.12,-4.509 -1.453,-8.509 -4,-12 z m 4,12 c 0.0109,0.62962 0.0159,1.25825 0.0137,1.88672 -0.002,0.62847 -0.012,1.25745 -0.0273,1.88476 -0.0154,0.62732 -0.0379,1.25276 -0.0664,1.87891 -0.0285,0.62616 -0.0638,1.25195 -0.10547,1.87695 -0.0417,0.625 -0.0897,1.24921 -0.14453,1.87305 -0.0548,0.62384 -0.11565,1.24841 -0.18359,1.87109 -0.0679,0.62269 -0.14156,1.24371 -0.22266,1.86524 -0.0811,0.62153 -0.16942,1.24291 -0.26367,1.86328 1.491,-2.686 2.157,-5.686 2,-9 -0.005,-2.196 -0.338,-4.196 -1,-6 z m -11,30 c -0.11962,-0.199 -0.23387,-0.40074 -0.34375,-0.60352 -0.10988,-0.20277 -0.21628,-0.40673 -0.31641,-0.61328 -0.10012,-0.20654 -0.19477,-0.41468 -0.28515,-0.625 -0.0904,-0.21031 -0.17523,-0.42263 -0.25586,-0.63672 -0.0806,-0.21409 -0.15763,-0.43057 -0.22852,-0.64843 -0.0709,-0.21786 -0.13612,-0.43657 -0.19726,-0.65821 -0.0611,-0.22163 -0.11657,-0.44647 -0.16797,-0.67187 -0.0514,-0.2254 -0.099,-0.45247 -0.14063,-0.68164 -0.0417,-0.22917 -0.0775,-0.46042 -0.10937,-0.69336 -0.0319,-0.23294 -0.0599,-0.46642 -0.082,-0.70313 -0.0222,-0.23671 -0.0383,-0.47632 -0.0508,-0.71679 -0.0124,-0.24048 -0.0208,-0.48232 -0.0234,-0.72657 -0.003,-0.24424 -10e-4,-0.49026 0.006,-0.73828 0.007,-0.24801 0.0203,-0.49822 0.0371,-0.75 0.0168,-0.25178 0.0379,-0.50617 0.0645,-0.76172 0.0265,-0.25554 0.0575,-0.51217 0.0937,-0.77148 -1.147,4.146 -1.314,8.48 -0.5,13 0.995,-0.566 1.828,-1.233 2.5,-2 z m -263,-38 c -1.642,10.02899 0.69101,18.69501 7,26 0.393,1.784 1.059,3.45 2,5 1.442,2.137 2.609,4.47 3.5,7 1.011,0.837 2.178,1.17 3.5,1 -0.075,-2.706 -0.408,-5.373 -1,-8 2.351,-1.416 2.351,-3.083 0,-5 -1.639,-5.59899 -4.305,-10.599 -8,-15 -0.238,-1.904 -1.238,-3.238 -3,-4 -0.174,-2.361 -0.507,-4.694 -1,-7 z m 1.5,3 c -0.0913,0.32394 -0.17141,0.64364 -0.24219,0.96094 -0.0708,0.31729 -0.13139,0.6327 -0.18164,0.94336 -0.0502,0.31065 -0.0914,0.61785 -0.12109,0.92187 -0.0297,0.30402 -0.0494,0.60497 -0.0586,0.90235 -0.009,0.29737 -0.007,0.59011 0.004,0.88086 0.0113,0.29074 0.0326,0.57917 0.0645,0.86328 0.0319,0.2841 0.0746,0.56433 0.12696,0.84179 0.0524,0.27747 0.11458,0.55144 0.1875,0.82227 0.0729,0.27083 0.15655,0.53854 0.25,0.80273 0.0934,0.26419 0.19657,0.52565 0.31054,0.78321 0.11398,0.25755 0.23855,0.5108 0.37305,0.76172 0.1345,0.25091 0.27857,0.49985 0.43359,0.74414 0.15503,0.24428 0.32055,0.485 0.4961,0.72265 0.17555,0.23765 0.36251,0.47211 0.55859,0.70313 0.19608,0.23101 0.40254,0.45725 0.61914,0.68164 0.2166,0.22438 0.44257,0.44631 0.67969,0.66406 -0.23712,-0.21775 -0.46309,-0.43968 -0.67969,-0.66406 -0.2166,-0.22439 -0.42306,-0.45063 -0.61914,-0.68164 -0.19608,-0.23102 -0.38304,-0.46548 -0.55859,-0.70313 -0.17555,-0.23765 -0.34107,-0.47837 -0.4961,-0.72265 -0.15502,-0.24429 -0.29909,-0.49323 -0.43359,-0.74414 -0.1345,-0.25092 -0.25907,-0.50417 -0.37305,-0.76172 -0.11397,-0.25756 -0.21709,-0.51902 -0.31054,-0.78321 -0.0935,-0.26419 -0.17708,-0.5319 -0.25,-0.80273 -0.0729,-0.27083 -0.13511,-0.5448 -0.1875,-0.82227 -0.0524,-0.27746 -0.0951,-0.55769 -0.12696,-0.84179 -0.0319,-0.28411 -0.0531,-0.57254 -0.0645,-0.86328 -0.0113,-0.29075 -0.0131,-0.58349 -0.004,-0.88086 0.009,-0.29738 0.0289,-0.59833 0.0586,-0.90235 0.0297,-0.30402 0.0708,-0.61122 0.12109,-0.92187 0.0503,-0.31066 0.11086,-0.62607 0.18164,-0.94336 0.0708,-0.3173 0.15088,-0.637 0.24219,-0.96094 z m 151.625,7.16406 c -2.26838,0.0469 -3.97619,4.99267 -5.125,14.83594 -1.112,2.099 -1.779,4.433 -2,7 v 1 c -1.863,9.10099 -2.863,18.43401 -3,28 -0.958,5.14899 -1.625,10.48301 -2,16 0.007,1.869 0.34,3.536 1,5 0.111,0.617 0.444,1.117 1,1.5 7.32599,0.5 14.65901,0.666 22,0.5 3.333,1.333 6.667,1.333 10,0 1.165,-0.996 1.832,-2.329 2,-4 -0.894,-6.55799 -2.228,-12.89101 -4,-19 -1.545,-8.50699 -3.878,-16.84001 -7,-25 -0.895,-4.764 -2.562,-9.097 -5,-13 -3.1184,-8.60104 -5.7441,-12.88002 -7.875,-12.83594 z m -130.10938,0.96485 C 245.81891,619.65409 244.98,620.27806 244,621.5 c -0.498,2.982 -0.665,5.982 -0.5,9 -1.044,8.63899 -1.211,17.30601 -0.5,26 2,3.166 4.5,5.832 7.5,8 2.763,5.88599 7.09701,10.219 13,13 0.18337,0.099 0.36378,0.18552 0.54297,0.25977 0.17919,0.0743 0.35624,0.13604 0.53125,0.18554 0.17501,0.0495 0.3487,0.0866 0.51953,0.11133 0.17083,0.0248 0.3392,0.0371 0.50586,0.0371 0.16666,0 0.33165,-0.0124 0.49414,-0.0371 0.16249,-0.0248 0.32215,-0.0618 0.48047,-0.11133 0.15832,-0.0495 0.31459,-0.11129 0.46875,-0.18554 0.15416,-0.0743 0.30703,-0.16077 0.45703,-0.25977 -0.15,0.099 -0.30287,0.18552 -0.45703,0.25977 -0.15416,0.0743 -0.31043,0.13604 -0.46875,0.18554 -0.15832,0.0495 -0.31798,0.0866 -0.48047,0.11133 -0.16249,0.0248 -0.32748,0.0371 -0.49414,0.0371 -0.16666,0 -0.33503,-0.0124 -0.50586,-0.0371 -0.17083,-0.0248 -0.34452,-0.0618 -0.51953,-0.11133 -0.17501,-0.0495 -0.35206,-0.11129 -0.53125,-0.18554 -0.17919,-0.0743 -0.3596,-0.16077 -0.54297,-0.25977 1.074,1.385 2.407,2.551 4,3.5 3.475,2.514 4.975,1.681 4.5,-2.5 -2.068,-1.896 -3.901,-3.896 -5.5,-6 0.38,-2.198 -0.287,-3.865 -2,-5 -1.259,-4.147 -3.259,-7.814 -6,-11 -0.151,-0.0918 -0.30408,-0.17664 -0.45898,-0.25586 -0.15491,-0.0792 -0.31189,-0.15205 -0.47071,-0.21875 -0.15882,-0.0667 -0.31968,-0.12747 -0.48242,-0.18164 -0.16274,-0.0542 -0.32748,-0.10288 -0.49414,-0.14453 -0.16666,-0.0417 -0.33528,-0.0763 -0.50586,-0.10547 -0.17058,-0.0291 -0.34307,-0.0517 -0.51758,-0.0684 -0.17451,-0.0166 -0.35086,-0.0271 -0.52929,-0.0312 -0.17844,-0.004 -0.35865,-0.003 -0.54102,0.006 0.18237,-0.008 0.36258,-0.01 0.54102,-0.006 0.17843,0.004 0.35478,0.0146 0.52929,0.0312 0.17451,0.0166 0.347,0.0392 0.51758,0.0684 0.17058,0.0291 0.3392,0.0638 0.50586,0.10547 0.16666,0.0417 0.3314,0.0904 0.49414,0.14453 0.16274,0.0542 0.3236,0.11495 0.48242,0.18164 0.15882,0.0667 0.3158,0.13953 0.47071,0.21875 0.1549,0.0792 0.30798,0.16411 0.45898,0.25586 -2.247,-4.91 -4.247,-9.91001 -6,-15 -0.296,-1.903 -0.963,-3.57 -2,-5 -0.27,-4.528 -0.937,-8.861 -2,-13 v -1 c -0.144,-0.14062 -0.28653,-0.26367 -0.42578,-0.36914 -0.13925,-0.10547 -0.27566,-0.19336 -0.41016,-0.26367 -0.1345,-0.0703 -0.26673,-0.12305 -0.39648,-0.15821 -0.12975,-0.0352 -0.25586,-0.0527 -0.38086,-0.0527 -0.125,0 -0.24889,0.0176 -0.36914,0.0527 -0.12025,0.0352 -0.23802,0.0879 -0.35352,0.15821 -0.1155,0.0703 -0.22909,0.1582 -0.33984,0.26367 -0.11075,0.10547 -0.21822,0.22852 -0.32422,0.36914 0.106,-0.14062 0.21347,-0.26367 0.32422,-0.36914 0.11075,-0.10547 0.22434,-0.19336 0.33984,-0.26367 0.1155,-0.0703 0.23327,-0.12305 0.35352,-0.15821 0.12025,-0.0352 0.24414,-0.0527 0.36914,-0.0527 0.125,0 0.25111,0.0176 0.38086,0.0527 0.12975,0.0352 0.26198,0.0879 0.39648,0.15821 0.1345,0.0703 0.27091,0.1582 0.41016,0.26367 0.13925,0.10547 0.28178,0.22852 0.42578,0.36914 -0.4275,-1.94625 -1.08859,-2.90347 -1.98438,-2.87109 z m 226.01368,3.03515 c -0.56461,0.007 -0.90699,0.61935 -1.0293,1.83594 0.19975,0.29462 0.38925,0.59415 0.57031,0.89844 0.18106,0.30428 0.35325,0.61378 0.51563,0.92773 0.16237,0.31395 0.31529,0.63145 0.45898,0.95508 0.14369,0.32363 0.2793,0.65302 0.4043,0.98633 0.125,0.33331 0.23939,0.67067 0.3457,1.01367 0.10631,0.343 0.20339,0.69222 0.29102,1.04492 0.0876,0.3527 0.16544,0.70986 0.23437,1.07227 0.0689,0.36241 0.12944,0.72944 0.17969,1.10156 0.165,-3.018 -0.002,-6.018 -0.5,-9 -0.59353,-0.56184 -1.08439,-0.8407 -1.4707,-0.83594 z M 474.5,632.5 c -0.0503,-0.37212 -0.11075,-0.73915 -0.17969,-1.10156 -0.0689,-0.36241 -0.14675,-0.71957 -0.23437,-1.07227 -0.0876,-0.3527 -0.18471,-0.70192 -0.29102,-1.04492 -0.10631,-0.343 -0.2207,-0.68036 -0.3457,-1.01367 -0.125,-0.33331 -0.26061,-0.6627 -0.4043,-0.98633 -0.14369,-0.32363 -0.29661,-0.64113 -0.45898,-0.95508 -0.16238,-0.31395 -0.33457,-0.62345 -0.51563,-0.92773 -0.18106,-0.30429 -0.37056,-0.60382 -0.57031,-0.89844 -3.074,8.06199 -5.241,16.39601 -6.5,25 -3.365,4.738 -6.365,9.73801 -9,15 -1.655,6.97599 -4.655,13.30901 -9,19 -0.49,1.293 -0.657,2.627 -0.5,4 3.374,-0.174 6.707,-0.674 10,-1.5 2.039,-2.374 4.372,-4.374 7,-6 4.165,-6.48099 8.331,-12.98101 12.5,-19.5 0.667,-7.33299 0.667,-14.66701 0,-22 -0.191,-2.208 -0.691,-4.208 -1.5,-6 z m -141.91797,-6.97461 c -1.08337,0 -2.11053,1.65861 -3.08203,4.97461 -2.95,4.161 -4.95,8.82801 -6,14 -0.768,0.763 -1.268,1.763 -1.5,3 -0.499,4.655 -0.666,9.321 -0.5,14 -0.61,0.891 -0.943,1.891 -1,3 -0.0289,0.96362 -0.0493,1.92636 -0.0605,2.88867 -0.0112,0.96231 -0.0142,1.92378 -0.008,2.88477 0.006,0.96099 0.0229,1.92119 0.0469,2.88086 0.024,0.95967 0.056,1.91861 0.0976,2.87695 0.0417,0.95834 0.0931,1.91603 0.15235,2.87305 0.0593,0.95701 0.12618,1.91346 0.20312,2.86914 0.077,0.95568 0.16322,1.91089 0.25781,2.86523 0.0946,0.95434 0.1983,1.90833 0.31055,2.86133 v 1 c 1.394,2.208 3.394,3.708 6,4.5 3.986,0.499 7.986,0.666 12,0.5 4.035,0.107 8.035,-0.226 12,-1 3.57,-0.255 3.903,-1.255 1,-3 -0.0854,0.2095 -0.18139,0.40406 -0.28711,0.58203 -0.10571,0.17797 -0.22161,0.3399 -0.34766,0.48633 -0.12604,0.14643 -0.26183,0.27574 -0.4082,0.39062 -0.14637,0.11489 -0.30206,0.21549 -0.46875,0.29883 -0.16669,0.0833 -0.34425,0.14938 -0.53125,0.20117 -0.18699,0.0518 -0.3845,0.0891 -0.5918,0.10938 -0.20729,0.0202 -0.42475,0.025 -0.65234,0.0137 -0.22759,-0.0113 -0.46502,-0.0392 -0.71289,-0.082 -0.36625,0.0999 -0.73313,0.19203 -1.10156,0.27734 -0.36844,0.0853 -0.73875,0.16362 -1.10938,0.23438 -0.37062,0.0708 -0.74242,0.1352 -1.11523,0.1914 -0.37281,0.0562 -0.7461,0.10483 -1.1211,0.14649 -0.375,0.0417 -0.75171,0.0764 -1.1289,0.10351 -0.37719,0.0271 -0.75539,0.046 -1.13477,0.0586 -0.37937,0.0126 -0.75906,0.0176 -1.14062,0.0156 -0.38156,-0.002 -0.76469,-0.0108 -1.14844,-0.0273 -0.8375,0.0412 -1.67438,0.0608 -2.50977,0.0606 -0.83539,-2.4e-4 -1.66864,-0.0208 -2.50195,-0.0625 -0.83331,-0.0417 -1.66678,-0.10439 -2.49805,-0.1875 -0.83126,-0.0831 -1.66098,-0.18605 -2.49023,-0.31055 0.82925,0.1245 1.65897,0.22744 2.49023,0.31055 0.83127,0.0831 1.66474,0.14581 2.49805,0.1875 0.83331,0.0417 1.66656,0.0623 2.50195,0.0625 0.83539,2.3e-4 1.67227,-0.0193 2.50977,-0.0606 0.38375,0.0165 0.76688,0.0254 1.14844,0.0273 0.38156,0.002 0.76125,-0.003 1.14062,-0.0156 0.37938,-0.0126 0.75758,-0.0315 1.13477,-0.0586 0.37719,-0.0271 0.7539,-0.0619 1.1289,-0.10351 0.375,-0.0417 0.74829,-0.0903 1.1211,-0.14649 0.37281,-0.0562 0.74461,-0.12064 1.11523,-0.1914 0.37063,-0.0708 0.74094,-0.14906 1.10938,-0.23438 0.36843,-0.0853 0.73531,-0.17747 1.10156,-0.27734 0.24787,0.0429 0.4853,0.0707 0.71289,0.082 0.22759,0.0113 0.44505,0.007 0.65234,-0.0137 0.2073,-0.0202 0.40481,-0.0576 0.5918,-0.10938 0.187,-0.0518 0.36456,-0.11782 0.53125,-0.20117 0.16669,-0.0833 0.32238,-0.18394 0.46875,-0.29883 0.14637,-0.11488 0.28216,-0.24419 0.4082,-0.39062 0.12605,-0.14643 0.24195,-0.30836 0.34766,-0.48633 0.10572,-0.17797 0.20174,-0.37253 0.28711,-0.58203 -1.52,-6.04099 -4.353,-11.374 -8.5,-16 -3.707,-14.12599 -6.373,-28.45901 -8,-43 -1.195,-3.316 -2.33459,-4.97461 -3.41797,-4.97461 z M 321.5,687.5 c -0.11225,-0.953 -0.21595,-1.90699 -0.31055,-2.86133 -0.0946,-0.95434 -0.18086,-1.90955 -0.25781,-2.86523 -0.0769,-0.95568 -0.14383,-1.91213 -0.20312,-2.86914 -0.0593,-0.95702 -0.11069,-1.91471 -0.15235,-2.87305 -0.0417,-0.95834 -0.0736,-1.91728 -0.0976,-2.87695 -0.024,-0.95967 -0.0405,-1.91987 -0.0469,-2.88086 -0.006,-0.96099 -0.003,-1.92246 0.008,-2.88477 0.0112,-0.96231 0.0317,-1.92505 0.0605,-2.88867 -0.865,5.49399 -1.531,11.16101 -2,17 -0.422,2.808 0.578,4.808 3,6 z m -40,-52 c -0.5,0 -1,0.3335 -1.5,1 -3.825,14.38499 -2.32499,28.05201 4.5,41 -0.354,3.461 0.979,5.961 4,7.5 5.92299,1.304 11.92301,1.804 18,1.5 0.202,-2.489 -0.298,-4.823 -1.5,-7 -9.74199,-11.47499 -16.908,-24.47501 -21.5,-39 0.157,-1.373 -0.01,-2.707 -0.5,-4 -0.5,-0.6665 -1,-1 -1.5,-1 z m 0,2 c -0.17494,0.8505 -0.33521,1.70048 -0.48047,2.54883 -0.14526,0.84835 -0.27505,1.69481 -0.39062,2.54101 -0.11558,0.84621 -0.21684,1.6911 -0.30274,2.53516 -0.0859,0.84406 -0.15667,1.68739 -0.21289,2.5293 -0.0562,0.84191 -0.0985,1.68367 -0.125,2.52343 -0.0265,0.83977 -0.0383,1.67801 -0.0352,2.51563 0.003,0.83762 0.0219,1.67429 0.0547,2.50976 0.0328,0.83548 0.0801,1.66863 0.14258,2.50196 0.0625,0.83333 0.14024,1.66686 0.23242,2.49804 0.0922,0.83119 0.19846,1.6612 0.32031,2.49024 0.12186,0.82904 0.25862,1.65748 0.41016,2.48437 0.15154,0.8269 0.31878,1.65181 0.5,2.47657 0.18122,0.82475 0.37699,1.64809 0.58789,2.4707 0.2109,0.82261 0.43716,1.64437 0.67774,2.46484 0.24057,0.82047 0.49536,1.64066 0.76562,2.45899 -0.27026,-0.81833 -0.52505,-1.63852 -0.76562,-2.45899 -0.24058,-0.82047 -0.46684,-1.64223 -0.67774,-2.46484 -0.2109,-0.82261 -0.40667,-1.64595 -0.58789,-2.4707 -0.18122,-0.82476 -0.34846,-1.64967 -0.5,-2.47657 -0.15154,-0.82689 -0.2883,-1.65533 -0.41016,-2.48437 -0.12185,-0.82904 -0.22813,-1.65905 -0.32031,-2.49024 -0.0922,-0.83118 -0.16992,-1.66471 -0.23242,-2.49804 -0.0625,-0.83333 -0.10976,-1.66648 -0.14258,-2.50196 -0.0328,-0.83547 -0.0515,-1.67214 -0.0547,-2.50976 -0.003,-0.83762 0.009,-1.67586 0.0352,-2.51563 0.0265,-0.83976 0.0688,-1.68152 0.125,-2.52343 0.0562,-0.84191 0.12699,-1.68524 0.21289,-2.5293 0.0859,-0.84406 0.18716,-1.68895 0.30274,-2.53516 0.11557,-0.8462 0.24536,-1.69266 0.39062,-2.54101 0.14526,-0.84835 0.30553,-1.69833 0.48047,-2.54883 z m 155.54492,2.35742 c -2.34116,0.0254 -3.1887,1.57302 -2.54492,4.64258 -0.489,1.495 -1.155,2.829 -2,4 -3.259,6.58699 -6.926,12.92001 -11,19 -3.279,2.612 -6.279,5.612 -9,9 -2.928,1.091 -5.094,3.091 -6.5,6 -0.74,1.249 -0.573,2.249 0.5,3 7.24999,1.002 14.58401,0.502 22,-1.5 1.502,-0.583 2.835,-1.416 4,-2.5 1.346,-3.355 2.68,-6.688 4,-10 0.2415,-1.02462 0.46927,-2.0512 0.68164,-3.08008 0.21238,-1.02887 0.40855,-2.06062 0.5918,-3.09375 0.18325,-1.03313 0.35369,-2.06808 0.50781,-3.10547 0.15412,-1.03739 0.29297,-2.07748 0.41797,-3.11914 0.125,-1.04165 0.23616,-2.08493 0.33203,-3.13086 0.0959,-1.04592 0.17544,-2.09433 0.24219,-3.14453 0.0668,-1.05019 0.12058,-2.10178 0.1582,-3.15625 0.0376,-1.05447 0.0599,-2.11117 0.0684,-3.16992 0.256,-2.292 -0.077,-4.459 -1,-6.5 -0.53594,-0.0997 -1.02153,-0.14729 -1.45508,-0.14258 z M 439.5,646.5 c -0.009,1.05875 -0.0307,2.11545 -0.0684,3.16992 -0.0376,1.05447 -0.0915,2.10606 -0.1582,3.15625 -0.0668,1.0502 -0.14632,2.09861 -0.24219,3.14453 -0.0959,1.04593 -0.20703,2.08921 -0.33203,3.13086 -0.125,1.04166 -0.26385,2.08175 -0.41797,3.11914 -0.15412,1.03739 -0.32456,2.07234 -0.50781,3.10547 -0.18325,1.03313 -0.37942,2.06488 -0.5918,3.09375 -0.21237,1.02888 -0.44014,2.05546 -0.68164,3.08008 1.605,-1.98 2.772,-4.313 3.5,-7 2.01,-6.21799 1.843,-12.21801 -0.5,-18 z"
       style="clip-rule:evenodd;fill:#000000;fill-opacity:1;fill-rule:evenodd;stroke:#ffffff;stroke-width:10.9;stroke-linejoin:round;stroke-dasharray:none;stroke-opacity:1;paint-order:markers stroke fill;image-rendering:optimizeQuality;shape-rendering:geometricPrecision;text-rendering:geometricPrecision"
       inkscape:label="Lower_teeth" />
    <path
       id="path198"
       d="m 142.5,109.5 c -1.084,4.899 -1.75,9.89901 -2,15 0.001,3.849 0.335,7.516 1,11 0.152,12.67299 0.485,25.33901 1,38 -0.665,3.149 -0.998,6.482 -1,10 -0.132,5.57699 0.535,10.91001 2,16 0.856,6.71399 1.856,13.38001 3,20 1.078,5.77299 2.078,11.44001 3,17 v 1 c -0.164,2.687 0.003,5.354 0.5,8 0.377,1.442 1.21,2.442 2.5,3 1.709,3.745 3.709,7.412 6,11 -0.09,2.652 0.576,4.985 2,7 0.721,3.317 0.888,6.651 0.5,10 -3.37,2.174 -5.203,5.174 -5.5,9 0.37925,-0.75875 0.79936,-1.49438 1.25977,-2.20703 0.4604,-0.71266 0.96032,-1.40174 1.50195,-2.06836 0.54162,-0.66662 1.12514,-1.31099 1.74805,-1.93164 0.6229,-0.62066 1.28598,-1.21822 1.99023,-1.79297 -0.70425,0.57475 -1.36733,1.17231 -1.99023,1.79297 -0.62291,0.62065 -1.20643,1.26502 -1.74805,1.93164 -0.54163,0.66662 -1.04155,1.3557 -1.50195,2.06836 -0.46041,0.71265 -0.88052,1.44828 -1.25977,2.20703 -0.289,3.606 0.044,7.106 1,10.5 1.333,0.667 2.667,0.667 4,0 1.205,-1.376 2.538,-2.542 4,-3.5 h 5 c 2.612,0.777 4.445,2.444 5.5,5 0.573,4.348 1.24,8.681 2,13 4.667,5.33299 9.333,10.66701 14,16 1.289,2.851 1.789,5.851 1.5,9 -1.6,1.452 -2.6,3.285 -3,5.5 0.184,1.376 0.851,2.209 2,2.5 -0.423,-0.765 -0.757,-1.598 -1,-2.5 0.243,0.902 0.577,1.735 1,2.5 4.001,3.767 8.167,7.434 12.5,11 0.395,2.707 0.895,5.373 1.5,8 1,1.667 2.333,3 4,4 1,0.333 1.667,1 2,2 1.399,1.39 3.066,2.39 5,3 1.391,2.39 3.391,4.057 6,5 2.62,1.662 5.287,3.328 8,5 0.762,1.762 2.096,2.762 4,3 0.8625,0.3525 1.73938,0.65844 2.62891,0.91797 0.88953,0.25953 1.79236,0.47205 2.70898,0.63867 0.91662,0.16663 1.84528,0.28755 2.78906,0.36133 0.94378,0.0738 1.90205,0.10103 2.87305,0.082 -0.971,0.019 -1.92927,-0.008 -2.87305,-0.082 -0.94378,-0.0738 -1.87244,-0.1947 -2.78906,-0.36133 -0.91662,-0.16662 -1.81945,-0.37914 -2.70898,-0.63867 -0.88953,-0.25953 -1.76641,-0.56547 -2.62891,-0.91797 2.884,3.729 6.551,4.729 11,3 2.698,-0.345 4.698,-1.678 6,-4 0.756,-2.894 2.423,-4.894 5,-6 2.087,-1.085 3.42,-2.751 4,-5 2.645,-5.82499 6.312,-10.991 11,-15.5 8.56599,-3.742 16.89901,-7.908 25,-12.5 1.643,0.02 2.976,-0.647 4,-2 0.855,-2.455 1.855,-4.788 3,-7 2.058,-1.433 4.392,-2.1 7,-2 3.391,3.363 7.391,5.696 12,7 0.632,2.602 1.632,4.936 3,7 0.56325,0.5085 1.15259,0.95278 1.76758,1.33203 0.61498,0.37925 1.25519,0.69336 1.92187,0.94336 0.66669,0.25 1.35977,0.43589 2.07813,0.55664 0.71836,0.12075 1.46242,0.17647 2.23242,0.16797 -0.0515,-0.97375 -0.13113,-1.94406 -0.24023,-2.91016 -0.10911,-0.96609 -0.24738,-1.92834 -0.41407,-2.88672 -0.16668,-0.95837 -0.3617,-1.91268 -0.58593,-2.86328 -0.22424,-0.95059 -0.47802,-1.89709 -0.75977,-2.83984 0.28175,0.94275 0.53553,1.88925 0.75977,2.83984 0.22423,0.9506 0.41925,1.90491 0.58593,2.86328 0.16669,0.95838 0.30496,1.92063 0.41407,2.88672 0.1091,0.9661 0.18873,1.93641 0.24023,2.91016 -0.77,0.009 -1.51406,-0.0472 -2.23242,-0.16797 -0.71836,-0.12075 -1.41144,-0.30664 -2.07813,-0.55664 -0.66668,-0.25 -1.30689,-0.56411 -1.92187,-0.94336 -0.61499,-0.37925 -1.20433,-0.82353 -1.76758,-1.33203 0.011,1.517 0.677,2.684 2,3.5 2.31,0.497 4.643,0.663 7,0.5 0.062,-5.77299 -0.604,-11.43901 -2,-17 6.16399,-9.15399 7.664,-19.15401 4.5,-30 -0.353,-2.652 -1.52,-4.652 -3.5,-6 -0.58,-2.249 -1.913,-3.915 -4,-5 -0.993,-5.02499 -3.66,-8.692 -8,-11 -0.8495,-0.08 -1.69006,-0.0793 -2.52344,0.004 -0.83337,0.0832 -1.65956,0.24909 -2.47656,0.49609 0.817,-0.247 1.64319,-0.41284 2.47656,-0.49609 0.83338,-0.0833 1.67394,-0.0839 2.52344,-0.004 -4.995,-2.056 -8.329,-0.38899 -10,5 -1.713,1.135 -2.38,2.802 -2,5 v 1 c -1.979,1.668 -4.312,2.334 -7,2 -1.012,-1.372 -2.012,-2.705 -3,-4 -0.919,-2.589 -2.586,-4.589 -5,-6 -1.643,-4.63 -4.97701,-6.963 -10,-7 -2.461,0.791 -3.794,2.458 -4,5 0.60075,-0.65375 1.23869,-1.19594 1.91406,-1.62695 0.33769,-0.21551 0.68467,-0.40267 1.04102,-0.5625 0.35634,-0.15983 0.72265,-0.29233 1.09765,-0.39649 0.375,-0.10415 0.75869,-0.18003 1.15235,-0.22851 0.39365,-0.0485 0.79667,-0.0697 1.20898,-0.0625 0.82463,0.0144 1.68669,0.13995 2.58594,0.37695 -0.89925,-0.237 -1.76131,-0.36259 -2.58594,-0.37695 -0.41231,-0.007 -0.81533,0.014 -1.20898,0.0625 -0.39366,0.0485 -0.77735,0.12436 -1.15235,0.22851 -0.375,0.10416 -0.74131,0.23666 -1.09765,0.39649 -0.35635,0.15983 -0.70333,0.34699 -1.04102,0.5625 -0.67537,0.43101 -1.31331,0.9732 -1.91406,1.62695 0,0.667 -0.333,1 -1,1 -3.944,0.387 -7.611,-0.28 -11,-2 -3.31,-1.646 -5.977,-3.98 -8,-7 -0.417,-0.624 -1.084,-0.957 -2,-1 -3.746,1.753 -7.746,2.42 -12,2 h -9 c -2.255,-1.88 -4.922,-2.88 -8,-3 -4.724,-2.813 -8.724,-6.646 -12,-11.5 -5.99999,-0.333 -12.00001,-0.667 -18,-1 -7.07499,-3.167 -9.575,-8.66701 -7.5,-16.5 2.736,-3.557 5.569,-6.89 8.5,-10 -3.264,-3.442 -6.431,-7.109 -9.5,-11 -0.495,-1.973 -0.662,-3.973 -0.5,-6 0.0265,-0.77875 -0.0152,-1.5293 -0.12695,-2.25195 -0.11175,-0.72266 -0.29297,-1.41736 -0.54297,-2.08399 -0.25,-0.66662 -0.56878,-1.30536 -0.95703,-1.91601 -0.38825,-0.61066 -0.84655,-1.1933 -1.37305,-1.74805 -2.029,-2.358 -4.029,-4.692 -6,-7 -0.011,-1.517 -0.677,-2.684 -2,-3.5 -1.973,-0.495 -3.973,-0.662 -6,-0.5 -2.083,-0.529 -3.917,-1.529 -5.5,-3 -2.511,-6.74599 -5.011,-13.41301 -7.5,-20 0.162,-2.027 -0.005,-4.027 -0.5,-6 -0.383,-0.556 -0.883,-0.889 -1.5,-1 -0.939,-3.781 -1.939,-7.447 -3,-11 -0.017,-4.034 -1.017,-7.701 -3,-11 -0.771,-2.954 -1.438,-5.954 -2,-9 -0.017,-4.034 -1.017,-7.701 -3,-11 -1.522,-5.54499 -2.188,-11.21201 -2,-17 z m 45,100 c 0.5265,0.55475 0.9848,1.13739 1.37305,1.74805 0.38825,0.61065 0.70703,1.24939 0.95703,1.91601 0.25,0.66663 0.43122,1.36133 0.54297,2.08399 0.11175,0.72265 0.15345,1.4732 0.12695,2.25195 0.617,-0.111 1.117,-0.444 1.5,-1 1.752,3.172 3.752,6.172 6,9 -2.249,-6.03999 -4.916,-12.04001 -8,-18 -0.417,1.256 -1.25,1.923 -2.5,2 z"
       style="clip-rule:evenodd;fill:#000000;fill-opacity:1;fill-rule:evenodd;stroke:none;stroke-opacity:1;image-rendering:optimizeQuality;shape-rendering:geometricPrecision;text-rendering:geometricPrecision"
       inkscape:label="Left_eye"
       transform="translate(-1.6830259,30.163617)" />
    <path
       id="path190"
       d="m 576,99.5 c -2,2.667 -4,5.333 -6,8 -1.675,10.34999 -3.342,20.68301 -5,31 -2.105,8.15799 -5.271,15.82501 -9.5,23 -3.667,3 -7,6.333 -10,10 -2.504,1.084 -4.837,2.417 -7,4 -4.487,1.492 -8.82,3.158 -13,5 -4.603,5.10499 -9.43601,10.105 -14.5,15 -3.047,8.05799 -8.04701,14.72501 -15,20 -1.705,2.077 -2.872,4.41 -3.5,7 -1.424,2.015 -2.09,4.348 -2,7 -10.66699,9.99999 -21.00001,20.33301 -31,31 -2.667,0.667 -4.333,2.333 -5,5 -5.74199,5.91499 -12.40901,10.415 -20,13.5 -0.752,0.671 -1.086,1.504 -1,2.5 -3.63,0.201 -6.297,1.868 -8,5 -1.527,-0.073 -2.527,0.594 -3,2 -2.808,1.429 -5.808,2.095 -9,2 -1.498,-4.822 -4.164,-8.822 -8,-12 -0.652,-0.025 -1.28658,-0.002 -1.9043,0.0684 -0.61772,0.0709 -1.21936,0.19073 -1.80273,0.35742 -0.58338,0.16669 -1.1483,0.3801 -1.69727,0.64258 -0.54897,0.26248 -1.0812,0.57339 -1.5957,0.93164 -3.82,2.753 -7.486,5.753 -11,9 -3.116,3.248 -5.45,6.915 -7,11 0.755,2.488 2.255,4.488 4.5,6 0.183,5.72799 -0.15,11.39401 -1,17 6.02599,0.273 9.859,3.27301 11.5,9 1.896,0.966 3.896,1.299 6,1 -0.149,-1.052 0.017,-2.052 0.5,-3 5.29499,-4.98 10.96101,-5.313 17,-1 0.798,3.043 1.965,5.876 3.5,8.5 4.965,-0.022 9.632,0.812 14,2.5 0.239,1.967 -0.094,3.801 -1,5.5 -4.188,0.176 -8.188,0.676 -12,1.5 -2.388,0.849 -4.721,1.849 -7,3 -4.034,0.172 -8.034,0.672 -12,1.5 -1.21,1.039 -2.21,2.206 -3,3.5 -0.3825,1.298 -0.65747,2.61389 -0.82422,3.94727 -0.16675,1.33337 -0.22528,2.68423 -0.17578,4.05273 -0.0495,-1.3685 0.009,-2.71936 0.17578,-4.05273 0.16675,-1.33338 0.44172,-2.64927 0.82422,-3.94727 -0.958,0.453 -1.792,1.119 -2.5,2 -0.657,6.03899 2.17701,9.039 8.5,9 3.272,0.756 6.606,1.422 10,2 2.398,-0.889 4.398,-2.389 6,-4.5 7.00799,-0.227 13.84101,-1.06 20.5,-2.5 3.2,0.156 6.367,0.489 9.5,1 3.411,1.025 6.744,2.359 10,4 2.845,7.61399 0.67799,13.28 -6.5,17 -0.659,2.853 0.508,4.52 3.5,5 3.959,-1.647 7.625,-3.814 11,-6.5 1.973,-0.495 3.973,-0.662 6,-0.5 0.472,-3.315 2.305,-5.649 5.5,-7 0.875,-3.383 1.875,-6.716 3,-10 3.261,-2.716 6.428,-5.549 9.5,-8.5 3.382,-0.176 6.715,-0.676 10,-1.5 0.654,-1.615 1.154,-3.282 1.5,-5 7.72999,-5.57099 14.56401,-11.90401 20.5,-19 4.11,-0.201 7.776,-1.201 11,-3 2.023,-3.02 4.69,-5.354 8,-7 1.96,-2.654 4.627,-4.321 8,-5 0.706,-2.204 1.706,-4.204 3,-6 1.221,-2.939 2.554,-5.939 4,-9 7.52999,-5.77199 9.864,-13.27201 7,-22.5 -0.092,-2.821 0.574,-5.321 2,-7.5 0.997,-4.628 1.997,-9.295 3,-14 3.562,-4.496 6.396,-9.49601 8.5,-15 2.436,-2.947 5.269,-5.28 8.5,-7 1.25,-0.077 2.083,-0.744 2.5,-2 1.727,-3.118 2.561,-6.451 2.5,-10 0.166,-6.34199 0,-12.67501 -0.5,-19 -3.611,-10.76199 -4.445,-21.76201 -2.5,-33 0.308,-4.458 0.308,-9.125 0,-14 0.608,-1.3 1.275,-2.633 2,-4 -2.657,-9.64699 -6.157,-18.98101 -10.5,-28 -1.026,-5.28499 -1.693,-10.61801 -2,-16 -2.248,-2.828 -4.248,-5.828 -6,-9 z m -177.5,181 c 0.5145,-0.35825 1.04673,-0.66916 1.5957,-0.93164 0.54897,-0.26248 1.11389,-0.47589 1.69727,-0.64258 0.58337,-0.16669 1.18501,-0.28656 1.80273,-0.35742 0.61772,-0.0709 1.2523,-0.0934 1.9043,-0.0684 -2.902,-1.615 -5.235,-0.949 -7,2 z"
       style="clip-rule:evenodd;fill:#000000;fill-opacity:1;fill-rule:evenodd;stroke:none;stroke-opacity:1;image-rendering:optimizeQuality;shape-rendering:geometricPrecision;text-rendering:geometricPrecision"
       inkscape:label="Right_eye"
       transform="translate(-1.6830259,30.163617)" />
  </g>
</svg>
