<?xml version="1.0" encoding="UTF-8" standalone="no"?>
<svg
   version="1.1"
   width="2400px"
   height="2400px"
   style="shape-rendering:geometricPrecision; text-rendering:geometricPrecision; image-rendering:optimizeQuality; fill-rule:evenodd; clip-rule:evenodd"
   id="svg1187"
   sodipodi:docname="V-NOM_font.svg"
   inkscape:version="1.2.1 (9c6d41e410, 2022-07-14)"
   xmlns:inkscape="http://www.inkscape.org/namespaces/inkscape"
   xmlns:sodipodi="http://sodipodi.sourceforge.net/DTD/sodipodi-0.dtd"
   xmlns="http://www.w3.org/2000/svg"
   xmlns:svg="http://www.w3.org/2000/svg">
  <defs
     id="defs1191" />
  <sodipodi:namedview
     id="namedview1189"
     pagecolor="#ffffff"
     bordercolor="#000000"
     borderopacity="0.25"
     inkscape:showpageshadow="2"
     inkscape:pageopacity="0.0"
     inkscape:pagecheckerboard="0"
     inkscape:deskcolor="#d1d1d1"
     showgrid="false"
     inkscape:zoom="0.23688077"
     inkscape:cx="797.86974"
     inkscape:cy="985.72796"
     inkscape:window-width="1920"
     inkscape:window-height="991"
     inkscape:window-x="-9"
     inkscape:window-y="-9"
     inkscape:window-maximized="1"
     inkscape:current-layer="svg1187" />
  <g
     id="g1161"
     style="display:inline">
    <path
       style="opacity:1"
       fill="#000000"
       d="m -0.5,-0.5 c 800,0 1600,0 2400,0 0,800 0,1600 0,2400 -800,0 -1600,0 -2400,0 0,-800 0,-1600 0,-2400 z"
       id="path1159" />
  </g>
  <g
     id="g3260"
     inkscape:label="V-NOM_font">
    <path
       fill="#fdfdfd"
       d="m 647.5,869.5 c 4.473,-0.551 8.807,-1.217 13,-2 6.691,-1.006 13.024,-3.173 19,-6.5 9.237,-5.901 17.904,-12.568 26,-20 6.743,-4.4 13.743,-8.4 21,-12 12.719,-4.349 25.719,-7.683 39,-10 5.932,-1.968 11.599,-4.468 17,-7.5 0.333,0.667 0.667,1.333 1,2 -2.971,11.418 -6.471,22.752 -10.5,34 -4.726,11.119 -9.726,22.119 -15,33 -5.921,10.173 -11.587,20.506 -17,31 -18.944,26.285 -36.278,53.618 -52,82 -3.456,7.95 -5.123,16.28 -5,25 -2.478,12.28 -7.145,23.62 -14,34 -5.511,11.38 -8.511,23.38 -9,36 -10.91,17.15 -20.243,35.15 -28,54 -14.578,42.99 -27.912,86.32 -40,130 -6.804,18.93 -14.137,37.6 -22,56 -7.758,38.17 -14.424,76.5 -20,115 -2.151,7.92 -3.985,15.92 -5.5,24 2.572,11.82 8.238,21.82 17,30 -0.532,2.24 -1.865,3.74 -4,4.5 -27.683,0.35 -55.35,0.02 -83,-1 -14.559,0.27 -28.393,3.43 -41.5,9.5 -0.772,-0.14 -1.439,-0.48 -2,-1 1.155,-3.97 3.155,-7.63 6,-11 8.667,-8.67 17.333,-17.33 26,-26 3.983,-6.12 6.483,-12.78 7.5,-20 -1.521,-16.96 -2.688,-33.96 -3.5,-51 -4.327,-17.62 -8.66,-35.29 -13,-53 0.68,-17.32 -1.32,-34.32 -6,-51 -12.679,-44.36 -29.013,-87.36 -49,-129 -4.418,-17.51 -8.085,-35.18 -11,-53 -3.423,-16.62 -9.757,-31.95 -19,-46 -8.087,-10.11 -18.254,-16.95 -30.5,-20.5 -5.311,-3.99 -9.145,-9.16 -11.5,-15.5 -2.335,-7.34 -4.669,-14.68 -7,-22 -7.559,-8.55 -14.726,-17.388 -21.5,-26.5 0.145,-0.772 0.478,-1.439 1,-2 7.307,-0.95 14.64,-1.617 22,-2 30.984,-1.195 61.984,-1.861 93,-2 6.278,-1.243 12.611,-2.076 19,-2.5 10.437,2.232 20.937,4.565 31.5,7 3,-0.667 6,-1.333 9,-2 1.404,0.009 2.57,0.509 3.5,1.5 -9.404,18.64 -18.404,37.47 -27,56.5 6.893,34.84 15.727,69.18 26.5,103 3.873,16.37 7.873,32.7 12,49 1.017,14.69 2.351,29.36 4,44 4.976,21.85 9.309,43.85 13,66 0.196,1.79 1.029,3.12 2.5,4 4.187,-18.03 11.354,-34.7 21.5,-50 1.087,-9.02 3.421,-17.68 7,-26 10.677,-18.35 20.011,-37.35 28,-57 9.93,-15.43 18.93,-31.43 27,-48 3.489,-11.62 6.822,-23.29 10,-35 2.667,-4 5.333,-8 8,-12 5.927,-13.79 10.26,-28.12 13,-43 5.544,-18.63 11.877,-36.966 19,-55 2.001,-5.839 3.168,-11.839 3.5,-18 -1.921,-15.253 -7.088,-29.253 -15.5,-42 -0.973,-8.602 -3.64,-16.602 -8,-24 -1.219,-5.398 0.281,-9.898 4.5,-13.5 6.817,-3.995 13.484,-8.162 20,-12.5 z"
       id="path1163" />
    <path
       fill="#fcfcfc"
       d="m 1391.5,854.5 c 3.65,0.122 6.48,1.788 8.5,5 0.67,1 0.67,2 0,3 -17.35,20.699 -30.02,44.033 -38,70 -14.92,12.167 -23.92,27.834 -27,47 -1.67,17.338 -3.33,34.67 -5,52 -0.36,4.82 -1.36,9.49 -3,14 -0.33,17.67 -0.67,35.33 -1,53 -0.29,7.2 -1.62,14.2 -4,21 -1.67,22.9 -0.17,45.57 4.5,68 12.34,-24.69 24.84,-49.69 37.5,-75 9.93,-15.53 20.6,-30.53 32,-45 2.4,-8.33 6.9,-15.16 13.5,-20.5 11.53,1.79 22.19,-0.55 32,-7 6.15,-5.57 12.48,-10.9 19,-16 30.11,-10.45 61.11,-14.78 93,-13 8.52,0.77 16.85,2.44 25,5 2.55,3.59 4.71,7.42 6.5,11.5 2.45,11.07 7.62,20.57 15.5,28.5 1.77,1.44 3.77,2.44 6,3 11.2,1.18 21.87,4.18 32,9 2.87,2.54 5.37,5.37 7.5,8.5 1.56,21.65 5.22,42.98 11,64 5.5,20.17 12,40 19.5,59.5 1,0.67 2,0.67 3,0 6.8,-11.29 12.46,-23.13 17,-35.5 -1.19,-18.31 -2.02,-36.65 -2.5,-55 -3.27,-3.49 -4.77,-7.66 -4.5,-12.5 4.3,-16.45 2.13,-31.95 -6.5,-46.5 -6.09,-8.42 -11.76,-17.08 -17,-26 -1.2,-2.18 -1.7,-4.51 -1.5,-7 13.29,1.39 26.62,2.22 40,2.5 10.73,5.28 22.06,6.95 34,5 14.14,-4.23 28.47,-7.56 43,-10 9.51,-0.48 18.84,0.19 28,2 -2.79,3.08 -4.96,6.58 -6.5,10.5 -1.99,7.88 -3.32,15.88 -4,24 -1.65,6.79 -4.48,12.95 -8.5,18.5 -1.4,10.43 -0.24,20.59 3.5,30.5 4.67,8.67 9.33,17.33 14,26 4.23,11.05 8.56,22.05 13,33 3.81,14.5 6.81,29.17 9,44 3.13,10.72 7.79,20.72 14,30 7.59,21.71 14.26,43.71 20,66 1.94,6.49 4.27,12.82 7,19 4.57,-8.9 9.57,-17.57 15,-26 1.72,-6.88 2.72,-13.88 3,-21 7.23,-22.46 15.57,-44.46 25,-66 4.67,-6 9.33,-12 14,-18 10.26,-33.78 21.93,-67.12 35,-100 0.67,-4.33 0.67,-8.67 0,-13 -2.9,-12.52 -5.57,-25.18 -8,-38 -1.91,-4.84 -4.58,-9.17 -8,-13 -0.67,-1 -0.67,-2 0,-3 8.35,-3.53 16.85,-3.7 25.5,-0.5 9.47,3.83 19.31,5.99 29.5,6.5 6.14,0.34 11.98,-0.83 17.5,-3.5 18.66,-0.5 37.33,-0.67 56,-0.5 0.16,1.37 -0.01,2.71 -0.5,4 -9.59,10.75 -14.92,23.41 -16,38 -1.54,18.77 -3.88,37.44 -7,56 -2.28,5.56 -4.28,11.23 -6,17 -1.3,47.33 -1.97,94.66 -2,142 0.33,23.18 2.5,46.18 6.5,69 -1.44,8.44 -0.94,16.77 1.5,25 5.54,13.77 10.54,27.77 15,42 2,22.01 4,44.01 6,66 2.91,20.41 9.58,39.41 20,57 3.69,15.81 5.69,31.81 6,48 -1.05,1.02 -2.22,1.18 -3.5,0.5 -11.67,-10.33 -23.33,-20.67 -35,-31 -4.89,-3.15 -9.89,-6.15 -15,-9 -6.47,-8.81 -14.47,-15.81 -24,-21 -12.74,-6.04 -25.41,-12.04 -38,-18 -6.03,-3.18 -11.03,-7.51 -15,-13 8.58,-12.35 17.75,-24.18 27.5,-35.5 1.53,-4.26 2.86,-8.6 4,-13 0.59,-9.83 1.09,-19.66 1.5,-29.5 -2.3,-22.1 -3.3,-44.27 -3,-66.5 1.03,-66 1.2,-132 0.5,-198 -1.04,-2.21 -1.71,-4.55 -2,-7 -0.67,-0.67 -1.33,-1.33 -2,-2 -2.52,5.22 -4.85,10.55 -7,16 -2.08,9.64 -5.08,18.97 -9,28 -12.48,23.97 -24.15,48.3 -35,73 -3,10.65 -6,21.32 -9,32 -7.93,13.54 -15.6,27.2 -23,41 -0.93,4.14 -2.27,8.14 -4,12 -0.33,6.33 -0.67,12.67 -1,19 -5.8,17.06 -11.8,34.06 -18,51 -4.33,4.33 -8.67,8.67 -13,13 -12.91,-29.16 -26.91,-57.82 -42,-86 -14.64,-28.24 -22.97,-58.24 -25,-90 -4.16,-17.64 -8.16,-35.31 -12,-53 -6.63,-16.92 -12.97,-33.92 -19,-51 -4.34,-10.7 -10.17,-20.37 -17.5,-29 0,13.96 -1,27.96 -3,42 0.91,4.97 1.75,9.97 2.5,15 1.87,2.31 2.87,4.97 3,8 0.7,8.99 1.2,17.99 1.5,27 -2.14,37 -2.3,74 -0.5,111 2.83,29.81 9.16,58.81 19,87 0.5,1.97 0.66,3.97 0.5,6 -15.81,1.88 -31.48,1.05 -47,-2.5 -6.88,-3.27 -13.54,-6.77 -20,-10.5 -9.32,2.83 -17.98,6.99 -26,12.5 -2.78,1.04 -5.61,1.87 -8.5,2.5 -1.71,0.06 -3.04,-0.61 -4,-2 5.32,-11.64 10.99,-23.31 17,-35 -0.76,-21.66 -0.6,-43.33 0.5,-65 -0.17,-5.33 -0.33,-10.67 -0.5,-16 -4.53,-18.74 -5.7,-37.74 -3.5,-57 -1.05,-8.1 -4.72,-14.76 -11,-20 -11.8,19.55 -19.96,40.55 -24.5,63 -0.57,4.19 -0.41,8.35 0.5,12.5 -6.27,34.55 -22.6,63.22 -49,86 -5.68,3.84 -11.68,7.17 -18,10 -11.88,0.97 -23.55,2.97 -35,6 -5.47,5.11 -9.31,11.27 -11.5,18.5 -5.79,6.31 -12.96,10.15 -21.5,11.5 -22.68,4.89 -44.68,2.56 -66,-7 -18.81,-9.06 -34.47,-21.89 -47,-38.5 -14.01,-3.67 -26.68,-10.01 -38,-19 -5.92,-12.25 -10.75,-24.91 -14.5,-38 -4.84,-24.27 -10.51,-48.27 -17,-72 -2.33,-6.33 -4.67,-12.67 -7,-19 -0.7,-1.53 -1.87,-2.53 -3.5,-3 -2.18,3.71 -3.68,7.71 -4.5,12 -2.56,17.26 -6.23,34.26 -11,51 -0.41,15 -0.91,30 -1.5,45 0.1,9.76 1.1,19.43 3,29 -0.96,10.28 -3.12,20.28 -6.5,30 -2.25,1.88 -4.75,3.38 -7.5,4.5 -5.73,0.68 -11.39,1.68 -17,3 -2.09,0.79 -3.92,1.96 -5.5,3.5 -1.27,7.56 -1.93,15.23 -2,23 -0.8,1.3 -1.97,1.97 -3.5,2 -13.43,-7.05 -27.1,-13.55 -41,-19.5 -1.54,-1.93 -2.71,-4.1 -3.5,-6.5 -3.05,-16.48 -7.72,-32.48 -14,-48 -12.84,-30.68 -24.84,-61.68 -36,-93 -6.91,-13.49 -14.58,-26.49 -23,-39 -0.7,-14.17 -3.7,-27.84 -9,-41 -8.51,-16.36 -18.51,-31.69 -30,-46 -5.21,-10.29 -9.21,-20.96 -12,-32 -2.28,-11.76 -4.95,-23.42 -8,-35 -1.01,-3.34 -2.51,-6.34 -4.5,-9 -9.54,12.09 -15.54,25.75 -18,41 0.29,7.71 2.12,15.04 5.5,22 0.71,11.01 0.55,22.01 -0.5,33 2.88,17.85 3.72,35.85 2.5,54 -3.62,25.25 -4.29,50.58 -2,76 4.54,41.82 8.7,83.65 12.5,125.5 -1.15,4.49 -3.82,7.83 -8,10 -6.46,2.89 -13.13,4.23 -20,4 -6.63,8.3 -13.63,16.3 -21,24 -5.88,4.78 -12.55,7.61 -20,8.5 1.51,-7.36 3.34,-14.7 5.5,-22 5.55,-13.78 10.55,-27.78 15,-42 -0.33,-29.46 1.34,-58.79 5,-88 1.03,-6.84 2.7,-13.51 5,-20 0.23,-22.89 1.4,-45.73 3.5,-68.5 -0.17,-4.83 -0.33,-9.67 -0.5,-14.5 -3.32,-10.89 -4.82,-22.06 -4.5,-33.5 1.22,-16.98 2.22,-33.98 3,-51 -1.04,-21.49 -1.2,-42.99 -0.5,-64.5 0.2,-8.15 1.37,-16.15 3.5,-24 -1.55,-7.77 -4.72,-14.77 -9.5,-21 -0.67,-1 -0.67,-2 0,-3 19.05,-0.94 38.05,-2.94 57,-6 10.49,1.12 20.99,1.12 31.5,0 11.81,1.29 23.64,2.29 35.5,3 6.75,0.43 13.25,-0.57 19.5,-3 4.05,0.09 4.88,1.76 2.5,5 -4.17,4.83 -8.33,9.67 -12.5,14.5 -9.08,6.96 -18.24,13.79 -27.5,20.5 -0.67,10.33 -0.67,20.67 0,31 6.86,8.54 12.52,17.88 17,28 7.51,23.73 15.18,47.39 23,71 15.12,32.25 31.79,63.59 50,94 8.89,18.78 18.55,37.11 29,55 1.42,-17.31 1.75,-34.65 1,-52 -1.82,-11.1 -2.99,-22.27 -3.5,-33.5 2.86,-55.17 6.03,-110.34 9.5,-165.5 1.16,-26.33 1.5,-52.66 1,-79 -6.5,-12.328 -13.5,-24.328 -21,-36 -5.41,-5.628 -11.91,-9.628 -19.5,-12 -1.13,-1.574 -1.3,-3.241 -0.5,-5 12.8,-5.15 24.63,-11.983 35.5,-20.5 5.08,-1.804 10.08,-3.804 15,-6 5.05,-5.038 10.72,-9.371 17,-13 11.55,-5.607 23.21,-10.941 35,-16 15.96,-11.811 32.3,-22.978 49,-33.5 z"
       id="path1167" />
    <path
       fill="#9a9a9a"
       d="m 660.5,867.5 c -4.193,0.783 -8.527,1.449 -13,2 0.111,-0.617 0.444,-1.117 1,-1.5 3.986,-0.499 7.986,-0.666 12,-0.5 z"
       id="path1171" />
    <path
       fill="#fdfdfd"
       d="m 817.5,1166 c 44.55522,-3.2929 45.346,-2.82 68,-5 2.686,-1.37 5.353,-2.7 8,-4 22.342,-0.24 44.675,-0.74 67,-1.5 10.565,0.68 21.065,1.01 31.5,1 0.426,6.21 -0.574,12.21 -3,18 -2.612,7.89 -6.279,15.22 -11,22 -14.308,19.14 -28.808,38.14 -43.5,57 -1.545,0.95 -3.212,1.29 -5,1 -2.169,-13.03 -7.503,-24.53 -16,-34.5 -7.704,-0.06 -15.37,0.6 -23,2 -4.239,1.9 -8.239,4.24 -12,7 -12.922,2.25 -25.922,3.92 -39,5 -4.809,0.75 -15.00755,-2.4021 -30.41791,-2.2836 -15.41036,0.1185 -18.49809,-2.7896 -39.78358,-4.4254 -21.28549,-1.6357 -46.45451,0.719 -51.29851,-0.791 -1,0.33 -2,0.67 -3,1 -7.738,-1.57 -15.571,-2.41 -23.5,-2.5 -4.228,-17.92 0.772,-32.92 15,-45 7.718,-1.79 28.74027,-2.3416 50.43996,-5.4723 21.6997,-3.1307 16.00482,-5.2348 60.56004,-8.5277 z"
       id="path1175"
       sodipodi:nodetypes="zcccccccccccczzcccczz" />
    <path
       fill="#000000"
       d="m 1521.5,1067.5 c 2.43,0.02 4.76,0.52 7,1.5 6.64,5.99 13.97,10.99 22,15 7.32,1.83 14.32,4.49 21,8 3.29,3.29 5.79,7.13 7.5,11.5 2.67,6.68 5.34,13.34 8,20 3.32,11.21 3.99,22.54 2,34 -3.57,7.62 -5.91,15.62 -7,24 -1.49,33.34 -3.16,66.68 -5,100 -0.47,5.4 -2.13,10.4 -5,15 -7.82,8.97 -15.15,18.3 -22,28 -3.51,6.68 -6.17,13.68 -8,21 -3.93,10.93 -11.43,14.27 -22.5,10 -14.18,-0.14 -25.52,5.36 -34,16.5 -2.59,1.6 -5.26,1.77 -8,0.5 -1.31,-1.82 -2.81,-3.48 -4.5,-5 -6,-11.33 -12,-22.67 -18,-34 -7.65,-11.3 -15.65,-22.3 -24,-33 -1.87,-6.89 -3.2,-13.89 -4,-21 -0.92,-18.85 -1.75,-37.68 -2.5,-56.5 1.09,-16.14 -0.75,-31.97 -5.5,-47.5 2.75,-45.71 24.92,-77.88 66.5,-96.5 11.89,-4.58 23.89,-8.41 36,-11.5 z"
       id="path1179" />
    <path
       fill="#4a4a4a"
       d="m 1167.5,1216.5 c 1.84,0.14 2.17,0.81 1,2 -0.8,-0.46 -1.13,-1.12 -1,-2 z"
       id="path1183" />
  </g>
</svg>
