<?xml version="1.0" encoding="UTF-8"?>
<!DOCTYPE svg PUBLIC "-//W3C//DTD SVG 1.1//EN" "http://www.w3.org/Graphics/SVG/1.1/DTD/svg11.dtd">
<svg xmlns="http://www.w3.org/2000/svg" version="1.1" width="2400px" height="2400px" style="shape-rendering:geometricPrecision; text-rendering:geometricPrecision; image-rendering:optimizeQuality; fill-rule:evenodd; clip-rule:evenodd" xmlns:xlink="http://www.w3.org/1999/xlink">
<g><path style="opacity:1" fill="#000000" d="M -0.5,-0.5 C 799.5,-0.5 1599.5,-0.5 2399.5,-0.5C 2399.5,799.5 2399.5,1599.5 2399.5,2399.5C 1599.5,2399.5 799.5,2399.5 -0.5,2399.5C -0.5,1599.5 -0.5,799.5 -0.5,-0.5 Z"/></g>
<g><path style="opacity:1" fill="#fdfdfd" d="M 647.5,869.5 C 651.973,868.949 656.307,868.283 660.5,867.5C 667.191,866.494 673.524,864.327 679.5,861C 688.737,855.099 697.404,848.432 705.5,841C 712.243,836.6 719.243,832.6 726.5,829C 739.219,824.651 752.219,821.317 765.5,819C 771.432,817.032 777.099,814.532 782.5,811.5C 782.833,812.167 783.167,812.833 783.5,813.5C 780.529,824.918 777.029,836.252 773,847.5C 768.274,858.619 763.274,869.619 758,880.5C 752.079,890.673 746.413,901.006 741,911.5C 722.056,937.785 704.722,965.118 689,993.5C 685.544,1001.45 683.877,1009.78 684,1018.5C 681.522,1030.78 676.855,1042.12 670,1052.5C 664.489,1063.88 661.489,1075.88 661,1088.5C 650.09,1105.65 640.757,1123.65 633,1142.5C 618.422,1185.49 605.088,1228.82 593,1272.5C 586.196,1291.43 578.863,1310.1 571,1328.5C 563.242,1366.67 556.576,1405 551,1443.5C 548.849,1451.42 547.015,1459.42 545.5,1467.5C 548.072,1479.32 553.738,1489.32 562.5,1497.5C 561.968,1499.74 560.635,1501.24 558.5,1502C 530.817,1502.35 503.15,1502.02 475.5,1501C 460.941,1501.27 447.107,1504.43 434,1510.5C 433.228,1510.36 432.561,1510.02 432,1509.5C 433.155,1505.53 435.155,1501.87 438,1498.5C 446.667,1489.83 455.333,1481.17 464,1472.5C 467.983,1466.38 470.483,1459.72 471.5,1452.5C 469.979,1435.54 468.812,1418.54 468,1401.5C 463.673,1383.88 459.34,1366.21 455,1348.5C 455.68,1331.18 453.68,1314.18 449,1297.5C 436.321,1253.14 419.987,1210.14 400,1168.5C 395.582,1150.99 391.915,1133.32 389,1115.5C 385.577,1098.88 379.243,1083.55 370,1069.5C 361.913,1059.39 351.746,1052.55 339.5,1049C 334.189,1045.01 330.355,1039.84 328,1033.5C 325.665,1026.16 323.331,1018.82 321,1011.5C 313.441,1002.95 306.274,994.112 299.5,985C 299.645,984.228 299.978,983.561 300.5,983C 307.807,982.05 315.14,981.383 322.5,981C 353.484,979.805 384.484,979.139 415.5,979C 421.778,977.757 428.111,976.924 434.5,976.5C 444.937,978.732 455.437,981.065 466,983.5C 469,982.833 472,982.167 475,981.5C 476.404,981.509 477.57,982.009 478.5,983C 469.096,1001.64 460.096,1020.47 451.5,1039.5C 458.393,1074.34 467.227,1108.68 478,1142.5C 481.873,1158.87 485.873,1175.2 490,1191.5C 491.017,1206.19 492.351,1220.86 494,1235.5C 498.976,1257.35 503.309,1279.35 507,1301.5C 507.196,1303.29 508.029,1304.62 509.5,1305.5C 513.687,1287.47 520.854,1270.8 531,1255.5C 532.087,1246.48 534.421,1237.82 538,1229.5C 548.677,1211.15 558.011,1192.15 566,1172.5C 575.93,1157.07 584.93,1141.07 593,1124.5C 596.489,1112.88 599.822,1101.21 603,1089.5C 605.667,1085.5 608.333,1081.5 611,1077.5C 616.927,1063.71 621.26,1049.38 624,1034.5C 629.544,1015.87 635.877,997.534 643,979.5C 645.001,973.661 646.168,967.661 646.5,961.5C 644.579,946.247 639.412,932.247 631,919.5C 630.027,910.898 627.36,902.898 623,895.5C 621.781,890.102 623.281,885.602 627.5,882C 634.317,878.005 640.984,873.838 647.5,869.5 Z"/></g>
<g><path style="opacity:1" fill="#fcfcfc" d="M 1391.5,854.5 C 1395.15,854.622 1397.98,856.288 1400,859.5C 1400.67,860.5 1400.67,861.5 1400,862.5C 1382.65,883.199 1369.98,906.533 1362,932.5C 1347.08,944.667 1338.08,960.334 1335,979.5C 1333.33,996.838 1331.67,1014.17 1330,1031.5C 1329.64,1036.32 1328.64,1040.99 1327,1045.5C 1326.67,1063.17 1326.33,1080.83 1326,1098.5C 1325.71,1105.7 1324.38,1112.7 1322,1119.5C 1320.33,1142.4 1321.83,1165.07 1326.5,1187.5C 1338.84,1162.81 1351.34,1137.81 1364,1112.5C 1373.93,1096.97 1384.6,1081.97 1396,1067.5C 1398.4,1059.17 1402.9,1052.34 1409.5,1047C 1421.03,1048.79 1431.69,1046.45 1441.5,1040C 1447.65,1034.43 1453.98,1029.1 1460.5,1024C 1490.61,1013.55 1521.61,1009.22 1553.5,1011C 1562.02,1011.77 1570.35,1013.44 1578.5,1016C 1581.05,1019.59 1583.21,1023.42 1585,1027.5C 1587.45,1038.57 1592.62,1048.07 1600.5,1056C 1602.27,1057.44 1604.27,1058.44 1606.5,1059C 1617.7,1060.18 1628.37,1063.18 1638.5,1068C 1641.37,1070.54 1643.87,1073.37 1646,1076.5C 1647.56,1098.15 1651.22,1119.48 1657,1140.5C 1662.5,1160.67 1669,1180.5 1676.5,1200C 1677.5,1200.67 1678.5,1200.67 1679.5,1200C 1686.3,1188.71 1691.96,1176.87 1696.5,1164.5C 1695.31,1146.19 1694.48,1127.85 1694,1109.5C 1690.73,1106.01 1689.23,1101.84 1689.5,1097C 1693.8,1080.55 1691.63,1065.05 1683,1050.5C 1676.91,1042.08 1671.24,1033.42 1666,1024.5C 1664.8,1022.32 1664.3,1019.99 1664.5,1017.5C 1677.79,1018.89 1691.12,1019.72 1704.5,1020C 1715.23,1025.28 1726.56,1026.95 1738.5,1025C 1752.64,1020.77 1766.97,1017.44 1781.5,1015C 1791.01,1014.52 1800.34,1015.19 1809.5,1017C 1806.71,1020.08 1804.54,1023.58 1803,1027.5C 1801.01,1035.38 1799.68,1043.38 1799,1051.5C 1797.35,1058.29 1794.52,1064.45 1790.5,1070C 1789.1,1080.43 1790.26,1090.59 1794,1100.5C 1798.67,1109.17 1803.33,1117.83 1808,1126.5C 1812.23,1137.55 1816.56,1148.55 1821,1159.5C 1824.81,1174 1827.81,1188.67 1830,1203.5C 1833.13,1214.22 1837.79,1224.22 1844,1233.5C 1851.59,1255.21 1858.26,1277.21 1864,1299.5C 1865.94,1305.99 1868.27,1312.32 1871,1318.5C 1875.57,1309.6 1880.57,1300.93 1886,1292.5C 1887.72,1285.62 1888.72,1278.62 1889,1271.5C 1896.23,1249.04 1904.57,1227.04 1914,1205.5C 1918.67,1199.5 1923.33,1193.5 1928,1187.5C 1938.26,1153.72 1949.93,1120.38 1963,1087.5C 1963.67,1083.17 1963.67,1078.83 1963,1074.5C 1960.1,1061.98 1957.43,1049.32 1955,1036.5C 1953.09,1031.66 1950.42,1027.33 1947,1023.5C 1946.33,1022.5 1946.33,1021.5 1947,1020.5C 1955.35,1016.97 1963.85,1016.8 1972.5,1020C 1981.97,1023.83 1991.81,1025.99 2002,1026.5C 2008.14,1026.84 2013.98,1025.67 2019.5,1023C 2038.16,1022.5 2056.83,1022.33 2075.5,1022.5C 2075.66,1023.87 2075.49,1025.21 2075,1026.5C 2065.41,1037.25 2060.08,1049.91 2059,1064.5C 2057.46,1083.27 2055.12,1101.94 2052,1120.5C 2049.72,1126.06 2047.72,1131.73 2046,1137.5C 2044.7,1184.83 2044.03,1232.16 2044,1279.5C 2044.33,1302.68 2046.5,1325.68 2050.5,1348.5C 2049.06,1356.94 2049.56,1365.27 2052,1373.5C 2057.54,1387.27 2062.54,1401.27 2067,1415.5C 2069,1437.51 2071,1459.51 2073,1481.5C 2075.91,1501.91 2082.58,1520.91 2093,1538.5C 2096.69,1554.31 2098.69,1570.31 2099,1586.5C 2097.95,1587.52 2096.78,1587.68 2095.5,1587C 2083.83,1576.67 2072.17,1566.33 2060.5,1556C 2055.61,1552.85 2050.61,1549.85 2045.5,1547C 2039.03,1538.19 2031.03,1531.19 2021.5,1526C 2008.76,1519.96 1996.09,1513.96 1983.5,1508C 1977.47,1504.82 1972.47,1500.49 1968.5,1495C 1977.08,1482.65 1986.25,1470.82 1996,1459.5C 1997.53,1455.24 1998.86,1450.9 2000,1446.5C 2000.59,1436.67 2001.09,1426.84 2001.5,1417C 1999.2,1394.9 1998.2,1372.73 1998.5,1350.5C 1999.53,1284.5 1999.7,1218.5 1999,1152.5C 1997.96,1150.29 1997.29,1147.95 1997,1145.5C 1996.33,1144.83 1995.67,1144.17 1995,1143.5C 1992.48,1148.72 1990.15,1154.05 1988,1159.5C 1985.92,1169.14 1982.92,1178.47 1979,1187.5C 1966.52,1211.47 1954.85,1235.8 1944,1260.5C 1941,1271.15 1938,1281.82 1935,1292.5C 1927.07,1306.04 1919.4,1319.7 1912,1333.5C 1911.07,1337.64 1909.73,1341.64 1908,1345.5C 1907.67,1351.83 1907.33,1358.17 1907,1364.5C 1901.2,1381.56 1895.2,1398.56 1889,1415.5C 1884.67,1419.83 1880.33,1424.17 1876,1428.5C 1863.09,1399.34 1849.09,1370.68 1834,1342.5C 1819.36,1314.26 1811.03,1284.26 1809,1252.5C 1804.84,1234.86 1800.84,1217.19 1797,1199.5C 1790.37,1182.58 1784.03,1165.58 1778,1148.5C 1773.66,1137.8 1767.83,1128.13 1760.5,1119.5C 1760.5,1133.46 1759.5,1147.46 1757.5,1161.5C 1758.41,1166.47 1759.25,1171.47 1760,1176.5C 1761.87,1178.81 1762.87,1181.47 1763,1184.5C 1763.7,1193.49 1764.2,1202.49 1764.5,1211.5C 1762.36,1248.5 1762.2,1285.5 1764,1322.5C 1766.83,1352.31 1773.16,1381.31 1783,1409.5C 1783.5,1411.47 1783.66,1413.47 1783.5,1415.5C 1767.69,1417.38 1752.02,1416.55 1736.5,1413C 1729.62,1409.73 1722.96,1406.23 1716.5,1402.5C 1707.18,1405.33 1698.52,1409.49 1690.5,1415C 1687.72,1416.04 1684.89,1416.87 1682,1417.5C 1680.29,1417.56 1678.96,1416.89 1678,1415.5C 1683.32,1403.86 1688.99,1392.19 1695,1380.5C 1694.24,1358.84 1694.4,1337.17 1695.5,1315.5C 1695.33,1310.17 1695.17,1304.83 1695,1299.5C 1690.47,1280.76 1689.3,1261.76 1691.5,1242.5C 1690.45,1234.4 1686.78,1227.74 1680.5,1222.5C 1668.7,1242.05 1660.54,1263.05 1656,1285.5C 1655.43,1289.69 1655.59,1293.85 1656.5,1298C 1650.23,1332.55 1633.9,1361.22 1607.5,1384C 1601.82,1387.84 1595.82,1391.17 1589.5,1394C 1577.62,1394.97 1565.95,1396.97 1554.5,1400C 1549.03,1405.11 1545.19,1411.27 1543,1418.5C 1537.21,1424.81 1530.04,1428.65 1521.5,1430C 1498.82,1434.89 1476.82,1432.56 1455.5,1423C 1436.69,1413.94 1421.03,1401.11 1408.5,1384.5C 1394.49,1380.83 1381.82,1374.49 1370.5,1365.5C 1364.58,1353.25 1359.75,1340.59 1356,1327.5C 1351.16,1303.23 1345.49,1279.23 1339,1255.5C 1336.67,1249.17 1334.33,1242.83 1332,1236.5C 1331.3,1234.97 1330.13,1233.97 1328.5,1233.5C 1326.32,1237.21 1324.82,1241.21 1324,1245.5C 1321.44,1262.76 1317.77,1279.76 1313,1296.5C 1312.59,1311.5 1312.09,1326.5 1311.5,1341.5C 1311.6,1351.26 1312.6,1360.93 1314.5,1370.5C 1313.54,1380.78 1311.38,1390.78 1308,1400.5C 1305.75,1402.38 1303.25,1403.88 1300.5,1405C 1294.77,1405.68 1289.11,1406.68 1283.5,1408C 1281.41,1408.79 1279.58,1409.96 1278,1411.5C 1276.73,1419.06 1276.07,1426.73 1276,1434.5C 1275.2,1435.8 1274.03,1436.47 1272.5,1436.5C 1259.07,1429.45 1245.4,1422.95 1231.5,1417C 1229.96,1415.07 1228.79,1412.9 1228,1410.5C 1224.95,1394.02 1220.28,1378.02 1214,1362.5C 1201.16,1331.82 1189.16,1300.82 1178,1269.5C 1171.09,1256.01 1163.42,1243.01 1155,1230.5C 1154.3,1216.33 1151.3,1202.66 1146,1189.5C 1137.49,1173.14 1127.49,1157.81 1116,1143.5C 1110.79,1133.21 1106.79,1122.54 1104,1111.5C 1101.72,1099.74 1099.05,1088.08 1096,1076.5C 1094.99,1073.16 1093.49,1070.16 1091.5,1067.5C 1081.96,1079.59 1075.96,1093.25 1073.5,1108.5C 1073.79,1116.21 1075.62,1123.54 1079,1130.5C 1079.71,1141.51 1079.55,1152.51 1078.5,1163.5C 1081.38,1181.35 1082.22,1199.35 1081,1217.5C 1077.38,1242.75 1076.71,1268.08 1079,1293.5C 1083.54,1335.32 1087.7,1377.15 1091.5,1419C 1090.35,1423.49 1087.68,1426.83 1083.5,1429C 1077.04,1431.89 1070.37,1433.23 1063.5,1433C 1056.87,1441.3 1049.87,1449.3 1042.5,1457C 1036.62,1461.78 1029.95,1464.61 1022.5,1465.5C 1024.01,1458.14 1025.84,1450.8 1028,1443.5C 1033.55,1429.72 1038.55,1415.72 1043,1401.5C 1042.67,1372.04 1044.34,1342.71 1048,1313.5C 1049.03,1306.66 1050.7,1299.99 1053,1293.5C 1053.23,1270.61 1054.4,1247.77 1056.5,1225C 1056.33,1220.17 1056.17,1215.33 1056,1210.5C 1052.68,1199.61 1051.18,1188.44 1051.5,1177C 1052.72,1160.02 1053.72,1143.02 1054.5,1126C 1053.46,1104.51 1053.3,1083.01 1054,1061.5C 1054.2,1053.35 1055.37,1045.35 1057.5,1037.5C 1055.95,1029.73 1052.78,1022.73 1048,1016.5C 1047.33,1015.5 1047.33,1014.5 1048,1013.5C 1067.05,1012.56 1086.05,1010.56 1105,1007.5C 1115.49,1008.62 1125.99,1008.62 1136.5,1007.5C 1148.31,1008.79 1160.14,1009.79 1172,1010.5C 1178.75,1010.93 1185.25,1009.93 1191.5,1007.5C 1195.55,1007.59 1196.38,1009.26 1194,1012.5C 1189.83,1017.33 1185.67,1022.17 1181.5,1027C 1172.42,1033.96 1163.26,1040.79 1154,1047.5C 1153.33,1057.83 1153.33,1068.17 1154,1078.5C 1160.86,1087.04 1166.52,1096.38 1171,1106.5C 1178.51,1130.23 1186.18,1153.89 1194,1177.5C 1209.12,1209.75 1225.79,1241.09 1244,1271.5C 1252.89,1290.28 1262.55,1308.61 1273,1326.5C 1274.42,1309.19 1274.75,1291.85 1274,1274.5C 1272.18,1263.4 1271.01,1252.23 1270.5,1241C 1273.36,1185.83 1276.53,1130.66 1280,1075.5C 1281.16,1049.17 1281.5,1022.84 1281,996.5C 1274.5,984.172 1267.5,972.172 1260,960.5C 1254.59,954.872 1248.09,950.872 1240.5,948.5C 1239.37,946.926 1239.2,945.259 1240,943.5C 1252.8,938.35 1264.63,931.517 1275.5,923C 1280.58,921.196 1285.58,919.196 1290.5,917C 1295.55,911.962 1301.22,907.629 1307.5,904C 1319.05,898.393 1330.71,893.059 1342.5,888C 1358.46,876.189 1374.8,865.022 1391.5,854.5 Z"/></g>
<g><path style="opacity:1" fill="#9a9a9a" d="M 660.5,867.5 C 656.307,868.283 651.973,868.949 647.5,869.5C 647.611,868.883 647.944,868.383 648.5,868C 652.486,867.501 656.486,867.334 660.5,867.5 Z"/></g>
<g><path style="opacity:1" fill="#fdfdfd" d="M 786.5,1012.5 C 798.838,1012.33 811.171,1012.5 823.5,1013C 828.547,1016.84 834.214,1018.34 840.5,1017.5C 871.224,1015.91 901.891,1016.57 932.5,1019.5C 939.67,1015.67 947.336,1014 955.5,1014.5C 963.1,1014.76 970.6,1015.76 978,1017.5C 993.43,1015.05 1008.93,1014.39 1024.5,1015.5C 1026.65,1019.35 1026.98,1023.35 1025.5,1027.5C 1019.53,1029.93 1013.86,1032.93 1008.5,1036.5C 1007.92,1038 1007.08,1039.33 1006,1040.5C 1005.22,1048.54 1004.22,1056.54 1003,1064.5C 998.133,1069.03 993.633,1073.87 989.5,1079C 987.741,1079.8 986.074,1079.63 984.5,1078.5C 970.88,1057.42 951.546,1044.92 926.5,1041C 910.233,1040.53 894.066,1039.03 878,1036.5C 863.088,1037.24 848.254,1038.74 833.5,1041C 829.852,1044.98 825.852,1048.65 821.5,1052C 816.976,1051.37 814.143,1053.2 813,1057.5C 812.399,1059.14 811.899,1060.8 811.5,1062.5C 813.168,1066.33 814.835,1070.17 816.5,1074C 815.857,1086.56 814.69,1099.06 813,1111.5C 811.71,1129.31 812.71,1146.98 816,1164.5C 816.5,1165 817,1165.5 817.5,1166C 840.179,1164.85 862.846,1163.18 885.5,1161C 888.186,1159.63 890.853,1158.3 893.5,1157C 915.842,1156.76 938.175,1156.26 960.5,1155.5C 971.065,1156.18 981.565,1156.51 992,1156.5C 992.426,1162.71 991.426,1168.71 989,1174.5C 986.388,1182.39 982.721,1189.72 978,1196.5C 963.692,1215.64 949.192,1234.64 934.5,1253.5C 932.955,1254.45 931.288,1254.79 929.5,1254.5C 927.331,1241.47 921.997,1229.97 913.5,1220C 905.796,1219.94 898.13,1220.6 890.5,1222C 886.261,1223.9 882.261,1226.24 878.5,1229C 865.578,1231.25 852.578,1232.92 839.5,1234C 834.691,1234.75 830.025,1235.92 825.5,1237.5C 824.389,1238.61 823.722,1239.94 823.5,1241.5C 826.366,1253.29 827.699,1265.29 827.5,1277.5C 826.794,1294.56 825.294,1311.56 823,1328.5C 822.5,1336.16 822.334,1343.83 822.5,1351.5C 841.742,1346.11 861.409,1343.61 881.5,1344C 890.12,1343.03 898.62,1341.53 907,1339.5C 913.14,1340.05 918.974,1341.71 924.5,1344.5C 931.592,1341.73 938.925,1339.89 946.5,1339C 970.596,1336.49 994.596,1333.32 1018.5,1329.5C 1018.66,1331.2 1018.49,1332.87 1018,1334.5C 1012.08,1347.35 1006.41,1360.35 1001,1373.5C 998.628,1383.7 995.628,1393.7 992,1403.5C 983.607,1422.62 974.941,1441.62 966,1460.5C 965.439,1461.02 964.772,1461.36 964,1461.5C 955.444,1450.08 948.111,1437.75 942,1424.5C 940.634,1422.26 938.634,1420.92 936,1420.5C 928.143,1421.74 920.31,1422.9 912.5,1424C 881.801,1424.86 851.134,1426.36 820.5,1428.5C 783.241,1424.16 745.908,1422.33 708.5,1423C 698.788,1421.59 689.288,1419.43 680,1416.5C 679.685,1415.09 680.018,1413.76 681,1412.5C 695.325,1395.84 709.992,1379.51 725,1363.5C 736.289,1345.79 740.289,1326.46 737,1305.5C 734.594,1282.11 731.928,1258.77 729,1235.5C 726.51,1231.01 722.844,1228.01 718,1226.5C 717,1226.83 716,1227.17 715,1227.5C 707.262,1225.93 699.429,1225.09 691.5,1225C 687.272,1207.08 692.272,1192.08 706.5,1180C 714.218,1178.21 721.885,1176.21 729.5,1174C 732.927,1172.57 735.76,1170.4 738,1167.5C 739.598,1134.29 736.265,1101.63 728,1069.5C 721.676,1051.34 711.51,1035.68 697.5,1022.5C 698.381,1021.03 699.714,1020.2 701.5,1020C 709.214,1018.52 716.881,1016.85 724.5,1015C 745.354,1014.85 766.02,1014.01 786.5,1012.5 Z"/></g>
<g><path style="opacity:1" fill="#000000" d="M 1521.5,1067.5 C 1523.93,1067.52 1526.26,1068.02 1528.5,1069C 1535.14,1074.99 1542.47,1079.99 1550.5,1084C 1557.82,1085.83 1564.82,1088.49 1571.5,1092C 1574.79,1095.29 1577.29,1099.13 1579,1103.5C 1581.67,1110.18 1584.34,1116.84 1587,1123.5C 1590.32,1134.71 1590.99,1146.04 1589,1157.5C 1585.43,1165.12 1583.09,1173.12 1582,1181.5C 1580.51,1214.84 1578.84,1248.18 1577,1281.5C 1576.53,1286.9 1574.87,1291.9 1572,1296.5C 1564.18,1305.47 1556.85,1314.8 1550,1324.5C 1546.49,1331.18 1543.83,1338.18 1542,1345.5C 1538.07,1356.43 1530.57,1359.77 1519.5,1355.5C 1505.32,1355.36 1493.98,1360.86 1485.5,1372C 1482.91,1373.6 1480.24,1373.77 1477.5,1372.5C 1476.19,1370.68 1474.69,1369.02 1473,1367.5C 1467,1356.17 1461,1344.83 1455,1333.5C 1447.35,1322.2 1439.35,1311.2 1431,1300.5C 1429.13,1293.61 1427.8,1286.61 1427,1279.5C 1426.08,1260.65 1425.25,1241.82 1424.5,1223C 1425.59,1206.86 1423.75,1191.03 1419,1175.5C 1421.75,1129.79 1443.92,1097.62 1485.5,1079C 1497.39,1074.42 1509.39,1070.59 1521.5,1067.5 Z"/></g>
<g><path style="opacity:1" fill="#4a4a4a" d="M 1167.5,1216.5 C 1169.34,1216.64 1169.67,1217.31 1168.5,1218.5C 1167.7,1218.04 1167.37,1217.38 1167.5,1216.5 Z"/></g>
</svg>
