<?xml version="1.0" encoding="UTF-8"?>
<!DOCTYPE svg PUBLIC "-//W3C//DTD SVG 1.1//EN" "http://www.w3.org/Graphics/SVG/1.1/DTD/svg11.dtd">
<svg xmlns="http://www.w3.org/2000/svg" version="1.1" width="720px" height="720px" style="shape-rendering:geometricPrecision; text-rendering:geometricPrecision; image-rendering:optimizeQuality; fill-rule:evenodd; clip-rule:evenodd" xmlns:xlink="http://www.w3.org/1999/xlink">
<g><path style="opacity:0.995" fill="#010101" d="M 290.5,-0.5 C 334.167,-0.5 377.833,-0.5 421.5,-0.5C 553.185,27.017 645.351,102.684 698,226.5C 708.028,253.818 715.194,281.818 719.5,310.5C 719.5,348.167 719.5,385.833 719.5,423.5C 704.034,504.269 666.701,573.103 607.5,630C 590.731,645.21 572.731,658.71 553.5,670.5C 551.973,670.427 550.973,671.094 550.5,672.5C 549.035,673.737 547.368,674.737 545.5,675.5C 543.973,675.427 542.973,676.094 542.5,677.5C 540.819,679.008 538.819,680.008 536.5,680.5C 534.326,680.75 532.659,681.75 531.5,683.5C 531.158,684.338 530.492,684.672 529.5,684.5C 523.182,686.992 517.182,689.992 511.5,693.5C 511.158,694.338 510.492,694.672 509.5,694.5C 483.178,705.162 456.178,713.495 428.5,719.5C 380.5,719.5 332.5,719.5 284.5,719.5C 163.944,691.806 76.9442,621.973 23.5,510C 13.6663,485.656 5.66629,460.489 -0.5,434.5C -0.5,384.5 -0.5,334.5 -0.5,284.5C 12.9058,222.684 40.0724,167.351 81,118.5C 87.6547,110.679 94.8213,103.345 102.5,96.5C 103.5,96.1667 104.167,95.5 104.5,94.5C 123.587,75.2835 144.92,58.9502 168.5,45.5C 171.513,45.4191 173.513,44.0858 174.5,41.5C 177.122,39.3565 180.122,38.0231 183.5,37.5C 190.848,34.3923 197.848,30.7256 204.5,26.5C 214.207,23.3402 223.873,19.8402 233.5,16C 237.702,14.5448 241.035,12.7115 243.5,10.5C 243.842,9.66175 244.508,9.32842 245.5,9.5C 245.369,10.2389 245.536,10.9056 246,11.5C 249.384,11.0238 252.384,9.69047 255,7.5C 255.333,7.83333 255.667,8.16667 256,8.5C 267.42,4.93723 278.92,1.93723 290.5,-0.5 Z"/></g>
<g><path style="opacity:0.421" fill="#e5e5e5" d="M 421.5,-0.5 C 427.833,-0.5 434.167,-0.5 440.5,-0.5C 483.54,9.88517 523.207,26.8852 559.5,50.5C 560.29,51.4013 561.29,52.0679 562.5,52.5C 579.23,63.2101 594.897,75.3768 609.5,89C 628.841,107.838 646.174,128.338 661.5,150.5C 661.427,152.027 662.094,153.027 663.5,153.5C 691.906,196.644 710.573,243.644 719.5,294.5C 719.5,299.833 719.5,305.167 719.5,310.5C 715.194,281.818 708.028,253.818 698,226.5C 645.351,102.684 553.185,27.017 421.5,-0.5 Z"/></g>
<g><path style="opacity:0.016" fill="#717271" d="M 551.5,-0.5 C 552.167,-0.5 552.833,-0.5 553.5,-0.5C 553.5,0.166667 553.833,0.5 554.5,0.5C 555.141,1.48224 555.807,2.48224 556.5,3.5C 553.853,3.89515 552.187,2.56181 551.5,-0.5 Z"/></g>
<g><path style="opacity:0.004" fill="#8a8c8b" d="M 554.5,0.5 C 554.5,0.166667 554.5,-0.166667 554.5,-0.5C 555.167,-0.5 555.833,-0.5 556.5,-0.5C 556.158,0.338246 555.492,0.67158 554.5,0.5 Z"/></g>
<g><path style="opacity:0.004" fill="#797a7a" d="M 559.5,-0.5 C 560.167,-0.5 560.833,-0.5 561.5,-0.5C 560.833,2.16667 560.167,2.16667 559.5,-0.5 Z"/></g>
<g><path style="opacity:0.004" fill="#838484" d="M 562.5,0.5 C 564.686,0.510636 565.519,1.51064 565,3.5C 563.583,2.92206 562.75,1.92206 562.5,0.5 Z"/></g>
<g><path style="opacity:0.176" fill="#d3d4d4" d="M 279.5,-0.5 C 283.167,-0.5 286.833,-0.5 290.5,-0.5C 278.92,1.93723 267.42,4.93723 256,8.5C 255.667,8.16667 255.333,7.83333 255,7.5C 252.384,9.69047 249.384,11.0238 246,11.5C 245.536,10.9056 245.369,10.2389 245.5,9.5C 256.937,5.13135 268.271,1.79802 279.5,-0.5 Z"/></g>
<g><path style="opacity:0.004" fill="#808181" d="M 566.5,2.5 C 568.337,2.63945 568.67,3.30612 567.5,4.5C 566.702,4.04311 566.369,3.37644 566.5,2.5 Z"/></g>
<g><path style="opacity:0.004" fill="#808181" d="M 571.5,5.5 C 569.663,5.36055 569.33,4.69388 570.5,3.5C 571.298,3.95689 571.631,4.62356 571.5,5.5 Z"/></g>
<g><path style="opacity:0.004" fill="#8a8c8b" d="M 169.5,5.5 C 169.842,4.66175 170.508,4.32842 171.5,4.5C 171.591,6.69772 170.925,7.03105 169.5,5.5 Z"/></g>
<g><path style="opacity:0.004" fill="#838484" d="M 169.5,5.5 C 169.5,7.5 168.5,8.5 166.5,8.5C 166.5,6.5 167.5,5.5 169.5,5.5 Z"/></g>
<g><path style="opacity:0.016" fill="#717271" d="M 571.5,5.5 C 572.363,4.53705 573.03,4.53705 573.5,5.5C 572.743,6.77329 572.077,6.77329 571.5,5.5 Z"/></g>
<g><path style="opacity:0.004" fill="#808180" d="M 587.5,14.5 C 583.672,12.4212 579.672,10.5879 575.5,9C 574.483,7.95054 574.316,6.78387 575,5.5C 578.558,8.03238 582.391,10.199 586.5,12C 587.252,12.6708 587.586,13.5041 587.5,14.5 Z"/></g>
<g><path style="opacity:0.016" fill="#717271" d="M 166.5,8.5 C 165.923,9.77329 165.257,9.77329 164.5,8.5C 164.97,7.53705 165.637,7.53705 166.5,8.5 Z"/></g>
<g><path style="opacity:0.016" fill="#6f7070" d="M 171.5,4.5 C 174.485,1.5455 176.818,2.0455 178.5,6C 174.948,8.57083 171.948,11.7375 169.5,15.5C 168.417,14.635 168.251,13.635 169,12.5C 171.179,9.98905 173.679,7.82239 176.5,6C 174.753,5.64814 173.086,5.14814 171.5,4.5 Z"/></g>
<g><path style="opacity:0.004" fill="#818282" d="M 557.5,3.5 C 560.464,5.96192 563.297,8.62859 566,11.5C 565.569,15.1945 565.403,18.8611 565.5,22.5C 564.692,22.1924 564.025,21.6924 563.5,21C 564.299,18.5191 564.466,15.6858 564,12.5C 560.774,10.1311 558.608,7.13105 557.5,3.5 Z"/></g>
<g><path style="opacity:0.016" fill="#777878" d="M 161.5,9.5 C 163.028,9.51731 163.528,10.184 163,11.5C 159.019,14.3135 155.519,17.6468 152.5,21.5C 151.635,22.5827 150.635,22.7494 149.5,22C 153.759,17.9114 157.759,13.7447 161.5,9.5 Z"/></g>
<g><path style="opacity:0.016" fill="#767776" d="M 587.5,14.5 C 591.44,16.6342 594.773,19.4675 597.5,23C 594.813,21.8774 592.147,20.3774 589.5,18.5C 588.37,17.3777 587.703,16.0443 587.5,14.5 Z"/></g>
<g><path style="opacity:0.333" fill="#a2a2a2" d="M 243.5,10.5 C 241.035,12.7115 237.702,14.5448 233.5,16C 223.873,19.8402 214.207,23.3402 204.5,26.5C 216.848,19.6055 229.848,14.2722 243.5,10.5 Z"/></g>
<g><path style="opacity:0.004" fill="#8a8c8b" d="M 599.5,25.5 C 598.475,25.1034 598.308,24.4368 599,23.5C 599.464,24.0944 599.631,24.7611 599.5,25.5 Z"/></g>
<g><path style="opacity:0.016" fill="#727372" d="M 564.5,28.5 C 563.387,27.0536 563.22,25.3869 564,23.5C 565.788,25.0231 565.955,26.6898 564.5,28.5 Z"/></g>
<g><path style="opacity:0.004" fill="#8a8c8b" d="M 599.5,25.5 C 600.5,25.8333 601.167,26.5 601.5,27.5C 600.167,27.5 599.5,26.8333 599.5,25.5 Z"/></g>
<g><path style="opacity:0.004" fill="#808181" d="M 606.5,34.5 C 604.6,32.3805 602.934,30.0472 601.5,27.5C 602.117,27.3893 602.617,27.056 603,26.5C 603.624,28.754 604.957,30.4206 607,31.5C 607.47,32.5768 607.303,33.5768 606.5,34.5 Z"/></g>
<g><path style="opacity:0.004" fill="#777878" d="M 174.5,41.5 C 173.513,44.0858 171.513,45.4191 168.5,45.5C 171.184,42.9918 170.851,40.8252 167.5,39C 167.833,38.6667 168.167,38.3333 168.5,38C 167.046,35.5272 166.046,32.8605 165.5,30C 166.833,28 166.833,26 165.5,24C 166.209,21.3708 167.209,18.8708 168.5,16.5C 169.643,18.9593 169.31,21.2927 167.5,23.5C 168.833,25.5 168.833,27.5 167.5,29.5C 167.89,33.5406 169.224,37.2072 171.5,40.5C 172.325,41.3857 173.325,41.719 174.5,41.5 Z"/></g>
<g><path style="opacity:0.016" fill="#6e6f6e" d="M 140.5,32.5 C 142.338,30.1931 144.338,27.8598 146.5,25.5C 147.723,24.3861 149.056,24.2195 150.5,25C 147.271,27.7411 143.938,30.2411 140.5,32.5 Z"/></g>
<g><path style="opacity:0.004" fill="#828383" d="M 564.5,28.5 C 565.376,28.3691 566.043,28.7025 566.5,29.5C 568.02,31.6621 569.02,33.9954 569.5,36.5C 566.862,34.5821 565.195,31.9154 564.5,28.5 Z"/></g>
<g><path style="opacity:0.565" fill="#7d7d7d" d="M 204.5,26.5 C 197.848,30.7256 190.848,34.3923 183.5,37.5C 189.553,32.2158 196.553,28.5492 204.5,26.5 Z"/></g>
<g><path style="opacity:0.004" fill="#7e7f7f" d="M 140.5,32.5 C 140.063,34.0744 139.063,35.2411 137.5,36C 136.668,36.6877 136.002,36.521 135.5,35.5C 136.688,33.7377 138.355,32.7377 140.5,32.5 Z"/></g>
<g><path style="opacity:0.004" fill="#8a8c8b" d="M 606.5,34.5 C 609.007,34.6322 609.674,35.6322 608.5,37.5C 607.599,36.7095 606.932,35.7095 606.5,34.5 Z"/></g>
<g><path style="opacity:0.004" fill="#8a8c8b" d="M 569.5,36.5 C 570.833,37.1667 570.833,37.8333 569.5,38.5C 569.5,37.8333 569.5,37.1667 569.5,36.5 Z"/></g>
<g><path style="opacity:0.016" fill="#797a7a" d="M 131.5,38.5 C 134.472,34.4325 134.972,34.7659 133,39.5C 132.617,38.944 132.117,38.6107 131.5,38.5 Z"/></g>
<g><path style="opacity:0.004" fill="#7e7f7e" d="M 608.5,37.5 C 610.982,38.6627 612.316,40.6627 612.5,43.5C 610.39,42.0499 609.057,40.0499 608.5,37.5 Z"/></g>
<g><path style="opacity:0.004" fill="#7f8080" d="M 569.5,38.5 C 568.76,43.9809 566.426,48.6476 562.5,52.5C 561.29,52.0679 560.29,51.4013 559.5,50.5C 560.675,50.719 561.675,50.3857 562.5,49.5C 565.12,45.905 567.453,42.2383 569.5,38.5 Z"/></g>
<g><path style="opacity:0.016" fill="#737473" d="M 612.5,43.5 C 613.496,43.4142 614.329,43.7476 615,44.5C 615.785,46.249 616.618,47.9157 617.5,49.5C 614.438,48.7322 612.772,46.7322 612.5,43.5 Z"/></g>
<g><path style="opacity:0.004" fill="#7a7b7b" d="M 637.5,59.5 C 634.083,55.8682 630.75,52.0348 627.5,48C 625.074,49.0332 622.574,50.1999 620,51.5C 618.624,51.3158 617.791,50.6491 617.5,49.5C 618.873,49.6567 620.207,49.49 621.5,49C 622.817,47.3409 624.483,46.1743 626.5,45.5C 628.561,47.5631 630.894,49.2297 633.5,50.5C 634.155,53.6588 635.822,56.1588 638.5,58C 637.944,58.3826 637.611,58.8826 637.5,59.5 Z"/></g>
<g><path style="opacity:0.016" fill="#797a79" d="M 131.5,38.5 C 131.586,39.4959 131.252,40.3292 130.5,41C 134.537,41.9107 135.703,44.0774 134,47.5C 128.512,51.656 123.346,56.156 118.5,61C 115.073,63.7564 112.407,67.0897 110.5,71C 109.906,71.4643 109.239,71.631 108.5,71.5C 110.343,67.3103 113.01,63.6436 116.5,60.5C 121.544,55.2885 127.044,50.6218 133,46.5C 133.667,45.8333 133.667,45.1667 133,44.5C 131.197,43.6866 129.697,42.5199 128.5,41C 128.748,39.2509 129.748,38.4176 131.5,38.5 Z"/></g>
<g><path style="opacity:0.004" fill="#838484" d="M 637.5,59.5 C 639.465,59.9483 639.798,60.9483 638.5,62.5C 637.614,61.675 637.281,60.675 637.5,59.5 Z"/></g>
<g><path style="opacity:0.004" fill="#7f8080" d="M 637.5,70.5 C 637.913,68.1099 638.579,65.7765 639.5,63.5C 640.631,65.0745 640.798,66.7412 640,68.5C 639.583,69.756 638.75,70.4226 637.5,70.5 Z"/></g>
<g><path style="opacity:0.004" fill="#868787" d="M 108.5,71.5 C 108.408,73.8477 107.408,75.5144 105.5,76.5C 105.687,74.4357 106.187,72.4357 107,70.5C 107.383,71.056 107.883,71.3893 108.5,71.5 Z"/></g>
<g><path style="opacity:0.004" fill="#878888" d="M 637.5,70.5 C 637.315,72.1958 636.481,73.5291 635,74.5C 634.09,72.0551 634.924,70.7218 637.5,70.5 Z"/></g>
<g><path style="opacity:0.004" fill="#818282" d="M 634.5,75.5 C 637.584,78.0793 640.584,80.9126 643.5,84C 643,84.5 642.5,85 642,85.5C 639.886,82.9302 637.553,80.5968 635,78.5C 634.517,77.552 634.351,76.552 634.5,75.5 Z"/></g>
<g><path style="opacity:0.016" fill="#727373" d="M 105.5,76.5 C 105.611,77.1174 105.944,77.6174 106.5,78C 104.959,79.5793 103.792,81.4127 103,83.5C 102.308,82.9747 101.808,82.3081 101.5,81.5C 102.838,79.7252 104.171,78.0586 105.5,76.5 Z"/></g>
<g><path style="opacity:0.004" fill="#818282" d="M 644.5,85.5 C 646.035,84.2121 647.701,84.2121 649.5,85.5C 647.833,86.6664 646.166,86.6664 644.5,85.5 Z"/></g>
<g><path style="opacity:0.004" fill="#828383" d="M 660.5,95.5 C 657.232,92.5729 653.899,89.5729 650.5,86.5C 651.002,85.479 651.668,85.3123 652.5,86C 655.777,88.7663 658.443,91.933 660.5,95.5 Z"/></g>
<g><path style="opacity:0.004" fill="#767776" d="M 104.5,94.5 C 104.167,95.5 103.5,96.1667 102.5,96.5C 98.7181,92.7549 98.5514,88.7549 102,84.5C 102.419,86.6797 102.252,88.8463 101.5,91C 101.715,92.9078 102.715,94.0744 104.5,94.5 Z"/></g>
<g><path style="opacity:0.016" fill="#757675" d="M 660.5,95.5 C 661.906,95.9731 662.573,96.9731 662.5,98.5C 659.993,98.3678 659.326,97.3678 660.5,95.5 Z"/></g>
<g><path style="opacity:0.004" fill="#7f8080" d="M 662.5,98.5 C 664.915,99.9824 665.582,101.982 664.5,104.5C 663.232,102.696 662.565,100.696 662.5,98.5 Z"/></g>
<g><path style="opacity:1" fill="#fcfcfc" d="M 592.5,156.5 C 591.322,161.021 591.322,165.688 592.5,170.5C 590.555,181.738 591.389,192.738 595,203.5C 595.5,209.825 595.666,216.158 595.5,222.5C 593.852,226.429 592.185,230.429 590.5,234.5C 587.269,236.22 584.436,238.553 582,241.5C 579.896,247.004 577.062,252.004 573.5,256.5C 571.046,260.673 570.046,265.339 570.5,270.5C 569.074,272.679 568.408,275.179 568.5,278C 571.364,287.228 569.03,294.728 561.5,300.5C 560.054,303.561 558.721,306.561 557.5,309.5C 556.5,309.5 555.5,309.5 554.5,309.5C 554.5,311.167 554.5,312.833 554.5,314.5C 549.976,314.204 547.31,316.204 546.5,320.5C 543.19,322.146 540.523,324.48 538.5,327.5C 535.09,327.457 531.757,327.957 528.5,329C 527.944,329.383 527.611,329.883 527.5,330.5C 521.564,337.596 514.73,343.929 507,349.5C 506.654,351.218 506.154,352.885 505.5,354.5C 502.215,355.324 498.882,355.824 495.5,356C 492.428,358.951 489.261,361.784 486,364.5C 484.875,367.784 483.875,371.117 483,374.5C 479.805,375.851 477.972,378.185 477.5,381.5C 475.473,381.338 473.473,381.505 471.5,382C 468.125,384.686 464.459,386.853 460.5,388.5C 457.508,388.02 456.341,386.353 457,383.5C 464.178,379.78 466.345,374.114 463.5,366.5C 463.586,365.504 463.252,364.671 462.5,364C 459.568,363.047 456.568,362.547 453.5,362.5C 450.367,361.989 447.2,361.656 444,361.5C 437.341,362.94 430.508,363.773 423.5,364C 421.898,366.111 419.898,367.611 417.5,368.5C 414.106,367.922 410.772,367.256 407.5,366.5C 405.396,365.088 403.063,364.088 400.5,363.5C 400.401,360.763 400.735,358.096 401.5,355.5C 403.196,355.315 404.529,354.481 405.5,353C 408.5,352.667 411.5,352.333 414.5,352C 415.416,351.722 416.082,351.222 416.5,350.5C 418.779,349.349 421.112,348.349 423.5,347.5C 427.846,347.666 432.179,347.499 436.5,347C 437.811,344.726 437.811,342.56 436.5,340.5C 432.132,338.812 427.465,337.978 422.5,338C 420.965,335.376 419.798,332.543 419,329.5C 412.961,325.187 407.295,325.52 402,330.5C 401.517,331.448 401.351,332.448 401.5,333.5C 399.396,333.799 397.396,333.466 395.5,332.5C 393.859,326.773 390.026,323.773 384,323.5C 384.85,317.894 385.183,312.228 385,306.5C 382.755,304.988 381.255,302.988 380.5,300.5C 382.05,296.415 384.384,292.748 387.5,289.5C 391.014,286.253 394.68,283.253 398.5,280.5C 400.558,279.067 402.892,278.4 405.5,278.5C 409.336,281.678 412.002,285.678 413.5,290.5C 415.288,291.622 417.288,291.789 419.5,291C 421.119,290.764 422.119,289.931 422.5,288.5C 422.973,287.094 423.973,286.427 425.5,286.5C 428.213,284.828 430.88,283.162 433.5,281.5C 433.414,280.504 433.748,279.671 434.5,279C 442.091,275.915 448.758,271.415 454.5,265.5C 456.5,264.167 458.167,262.5 459.5,260.5C 469.5,249.833 479.833,239.5 490.5,229.5C 491.924,227.485 492.59,225.152 492.5,222.5C 493.128,219.91 494.295,217.577 496,215.5C 502.953,210.225 507.953,203.558 511,195.5C 516.064,190.605 520.897,185.605 525.5,180.5C 530.541,180.162 534.874,178.495 538.5,175.5C 540.663,173.917 542.996,172.584 545.5,171.5C 549.833,169.167 553.167,165.833 555.5,161.5C 559.729,154.325 562.895,146.658 565,138.5C 566.658,128.183 568.325,117.85 570,107.5C 572,104.833 574,102.167 576,99.5C 577.752,102.672 579.752,105.672 582,108.5C 582.307,113.882 582.974,119.215 584,124.5C 588.343,133.519 591.843,142.853 594.5,152.5C 593.775,153.867 593.108,155.2 592.5,156.5 Z"/></g>
<g><path style="opacity:0.004" fill="#777878" d="M 666.5,136.5 C 665.965,131.824 665.299,127.157 664.5,122.5C 664.752,119.41 665.419,116.41 666.5,113.5C 665.934,111.303 665.268,109.136 664.5,107C 664.833,106.5 665.167,106 665.5,105.5C 667.104,107.898 668.104,110.565 668.5,113.5C 665.904,120.151 665.904,126.818 668.5,133.5C 668.547,135.038 667.88,136.038 666.5,136.5 Z"/></g>
<g><path style="opacity:1" fill="#fcfcfc" d="M 147.5,126.5 C 147.682,130.489 148.682,134.156 150.5,137.5C 151.062,140.546 151.729,143.546 152.5,146.5C 152.926,150.427 153.926,154.093 155.5,157.5C 156.561,161.053 157.561,164.719 158.5,168.5C 158.927,171.01 159.593,173.343 160.5,175.5C 162.989,182.087 165.489,188.754 168,195.5C 169.583,196.971 171.417,197.971 173.5,198.5C 176.025,199.957 178.692,201.291 181.5,202.5C 183.471,204.808 185.471,207.142 187.5,209.5C 189.606,211.719 190.606,214.385 190.5,217.5C 190.338,219.527 190.505,221.527 191,223.5C 194.069,227.391 197.236,231.058 200.5,234.5C 197.569,237.61 194.736,240.943 192,244.5C 189.925,252.333 192.425,257.833 199.5,261C 205.5,261.333 211.5,261.667 217.5,262C 220.776,266.854 224.776,270.687 229.5,273.5C 231.755,275.38 234.422,276.38 237.5,276.5C 240.5,276.5 243.5,276.5 246.5,276.5C 247.964,277.16 249.631,277.493 251.5,277.5C 254.741,277.552 257.741,276.885 260.5,275.5C 262.523,278.52 265.19,280.854 268.5,282.5C 268.953,283.458 269.619,284.292 270.5,285C 273.696,285.805 276.696,285.638 279.5,284.5C 280.167,284.5 280.5,284.167 280.5,283.5C 282.903,280.885 285.903,280.052 289.5,281C 291.037,282.707 292.704,284.207 294.5,285.5C 295.419,288.089 297.086,290.089 299.5,291.5C 300.488,292.795 301.488,294.128 302.5,295.5C 304.288,296.622 306.288,296.789 308.5,296C 309.252,295.329 309.586,294.496 309.5,293.5C 309.5,293.167 309.5,292.833 309.5,292.5C 310.537,291.07 311.204,289.403 311.5,287.5C 313.296,286.207 314.963,284.707 316.5,283C 318.134,282.506 319.801,282.34 321.5,282.5C 325.84,284.808 328.507,288.475 329.5,293.5C 330.08,295.749 331.413,297.415 333.5,298.5C 335.48,299.848 336.647,301.848 337,304.5C 340.164,315.346 338.664,325.346 332.5,334.5C 331.842,335.793 331.508,337.293 331.5,339C 332.627,342.771 333.294,346.605 333.5,350.5C 330.42,350.534 327.753,349.534 325.5,347.5C 324.132,345.436 323.132,343.102 322.5,340.5C 317.891,339.196 313.891,336.863 310.5,333.5C 307.598,331.885 305.265,332.551 303.5,335.5C 300.777,338.22 298.443,341.22 296.5,344.5C 288.399,349.092 280.066,353.258 271.5,357C 266.812,361.509 263.145,366.675 260.5,372.5C 258.413,373.585 257.08,375.251 256.5,377.5C 253.923,378.606 252.256,380.606 251.5,383.5C 249.517,384.471 247.517,385.471 245.5,386.5C 241.616,386.576 237.95,385.91 234.5,384.5C 232.596,384.262 231.262,383.262 230.5,381.5C 228.797,378.368 226.13,376.701 222.5,376.5C 219.891,375.557 217.891,373.89 216.5,371.5C 215.656,369.241 213.989,368.241 211.5,368.5C 211.167,367.5 210.5,366.833 209.5,366.5C 209.167,364.167 207.833,362.833 205.5,362.5C 204.895,359.873 204.395,357.207 204,354.5C 199.667,350.934 195.501,347.267 191.5,343.5C 191.077,342.735 190.743,341.902 190.5,341C 191.856,339.433 192.523,337.6 192.5,335.5C 192.789,332.351 192.289,329.351 191,326.5C 186.333,321.167 181.667,315.833 177,310.5C 176.24,306.181 175.573,301.848 175,297.5C 173.945,294.944 172.112,293.277 169.5,292.5C 167.833,289.833 166.167,289.833 164.5,292.5C 163.038,293.458 161.705,294.624 160.5,296C 159.167,296.667 157.833,296.667 156.5,296C 155.544,292.606 155.211,289.106 155.5,285.5C 157.017,282.465 159.183,279.799 162,277.5C 162.667,274.5 162.667,271.5 162,268.5C 161.722,267.584 161.222,266.918 160.5,266.5C 160.829,263.772 160.163,261.438 158.5,259.5C 156.209,255.912 154.209,252.245 152.5,248.5C 151.632,244.686 150.632,241.019 149.5,237.5C 149.5,237.167 149.5,236.833 149.5,236.5C 150.003,230.439 149.003,224.773 146.5,219.5C 145.356,212.88 144.356,206.214 143.5,199.5C 143.287,192.826 142.954,186.159 142.5,179.5C 143.704,164.811 143.371,150.144 141.5,135.5C 140.835,132.016 140.501,128.349 140.5,124.5C 140.75,119.399 141.416,114.399 142.5,109.5C 143.5,109.5 144.5,109.5 145.5,109.5C 145.312,115.288 145.978,120.955 147.5,126.5 Z"/></g>
<g><path style="opacity:1" fill="#929291" d="M 147.5,126.5 C 149.483,129.799 150.483,133.466 150.5,137.5C 148.682,134.156 147.682,130.489 147.5,126.5 Z"/></g>
<g><path style="opacity:0.016" fill="#6f7070" d="M 666.5,136.5 C 668.138,138.955 667.805,140.955 665.5,142.5C 665.205,140.265 665.539,138.265 666.5,136.5 Z"/></g>
<g><path style="opacity:1" fill="#808181" d="M 141.5,135.5 C 143.371,150.144 143.704,164.811 142.5,179.5C 142.5,177.5 142.5,175.5 142.5,173.5C 141.985,160.839 141.652,148.173 141.5,135.5 Z"/></g>
<g><path style="opacity:1" fill="#787878" d="M 152.5,146.5 C 154.483,149.799 155.483,153.466 155.5,157.5C 153.926,154.093 152.926,150.427 152.5,146.5 Z"/></g>
<g><path style="opacity:0.016" fill="#747575" d="M 665.5,142.5 C 665.249,146.249 664.583,149.915 663.5,153.5C 662.094,153.027 661.427,152.027 661.5,150.5C 663.598,147.872 664.931,145.205 665.5,142.5 Z"/></g>
<g><path style="opacity:1" fill="#828383" d="M 592.5,156.5 C 592.808,161.375 592.808,166.042 592.5,170.5C 591.322,165.688 591.322,161.021 592.5,156.5 Z"/></g>
<g><path style="opacity:1" fill="#a8a9a9" d="M 555.5,161.5 C 553.167,165.833 549.833,169.167 545.5,171.5C 548.5,167.833 551.833,164.5 555.5,161.5 Z"/></g>
<g><path style="opacity:1" fill="#979999" d="M 158.5,168.5 C 159.117,168.611 159.617,168.944 160,169.5C 160.495,171.473 160.662,173.473 160.5,175.5C 159.593,173.343 158.927,171.01 158.5,168.5 Z"/></g>
<g><path style="opacity:1" fill="#939393" d="M 538.5,175.5 C 534.874,178.495 530.541,180.162 525.5,180.5C 529.68,178.658 534.013,176.992 538.5,175.5 Z"/></g>
<g><path style="opacity:1" fill="#424343" d="M 142.5,173.5 C 142.5,175.5 142.5,177.5 142.5,179.5C 142.954,186.159 143.287,192.826 143.5,199.5C 142.035,194.41 141.368,189.077 141.5,183.5C 141.502,179.982 141.835,176.649 142.5,173.5 Z"/></g>
<g><path style="opacity:1" fill="#b3b4b4" d="M 173.5,198.5 C 175.527,198.338 177.527,198.505 179.5,199C 180.823,199.816 181.489,200.983 181.5,202.5C 178.692,201.291 176.025,199.957 173.5,198.5 Z"/></g>
<g><path style="opacity:1" fill="#545454" d="M 190.5,217.5 C 190.606,214.385 189.606,211.719 187.5,209.5C 188.75,209.423 189.583,208.756 190,207.5C 193.084,213.46 195.751,219.46 198,225.5C 195.752,222.672 193.752,219.672 192,216.5C 191.617,217.056 191.117,217.389 190.5,217.5 Z"/></g>
<g><path style="opacity:1" fill="#969797" d="M 492.5,222.5 C 492.59,225.152 491.924,227.485 490.5,229.5C 490.41,226.848 491.076,224.515 492.5,222.5 Z"/></g>
<g><path style="opacity:1" fill="#3c3c3c" d="M 595.5,222.5 C 595.561,226.049 594.727,229.382 593,232.5C 592.583,233.756 591.75,234.423 590.5,234.5C 592.185,230.429 593.852,226.429 595.5,222.5 Z"/></g>
<g><path style="opacity:1" fill="#6a6b6a" d="M 146.5,219.5 C 149.003,224.773 150.003,230.439 149.5,236.5C 148.578,230.94 147.578,225.273 146.5,219.5 Z"/></g>
<g><path style="opacity:1" fill="#4c4c4c" d="M 149.5,237.5 C 150.632,241.019 151.632,244.686 152.5,248.5C 151.21,247.942 150.377,246.942 150,245.5C 149.503,242.854 149.336,240.187 149.5,237.5 Z"/></g>
<g><path style="opacity:1" fill="#6a6a6a" d="M 573.5,256.5 C 572.497,261.205 571.497,265.872 570.5,270.5C 570.046,265.339 571.046,260.673 573.5,256.5 Z"/></g>
<g><path style="opacity:1" fill="#969696" d="M 459.5,260.5 C 458.167,262.5 456.5,264.167 454.5,265.5C 455.167,262.833 456.833,261.167 459.5,260.5 Z"/></g>
<g><path style="opacity:1" fill="#595959" d="M 158.5,259.5 C 160.163,261.438 160.829,263.772 160.5,266.5C 159.076,264.485 158.41,262.152 158.5,259.5 Z"/></g>
<g><path style="opacity:1" fill="#6e6f6f" d="M 229.5,273.5 C 232.578,273.62 235.245,274.62 237.5,276.5C 234.422,276.38 231.755,275.38 229.5,273.5 Z"/></g>
<g><path style="opacity:1" fill="#9c9d9d" d="M 160.5,266.5 C 161.222,266.918 161.722,267.584 162,268.5C 162.667,271.5 162.667,274.5 162,277.5C 159.183,279.799 157.017,282.465 155.5,285.5C 155.797,281.674 157.63,278.674 161,276.5C 161.388,273.151 161.221,269.817 160.5,266.5 Z"/></g>
<g><path style="opacity:1" fill="#8e8f8f" d="M 260.5,275.5 C 257.741,276.885 254.741,277.552 251.5,277.5C 249.631,277.493 247.964,277.16 246.5,276.5C 250.754,276.92 254.754,276.253 258.5,274.5C 259.416,274.543 260.083,274.876 260.5,275.5 Z"/></g>
<g><path style="opacity:1" fill="#909191" d="M 405.5,278.5 C 402.892,278.4 400.558,279.067 398.5,280.5C 400.265,277.551 402.598,276.885 405.5,278.5 Z"/></g>
<g><path style="opacity:1" fill="#797a79" d="M 294.5,285.5 C 292.704,284.207 291.037,282.707 289.5,281C 285.903,280.052 282.903,280.885 280.5,283.5C 280.706,280.958 282.039,279.291 284.5,278.5C 289.523,278.537 292.857,280.87 294.5,285.5 Z"/></g>
<g><path style="opacity:1" fill="#7d7d7d" d="M 321.5,282.5 C 319.801,282.34 318.134,282.506 316.5,283C 314.963,284.707 313.296,286.207 311.5,287.5C 313.171,282.111 316.505,280.444 321.5,282.5 Z"/></g>
<g><path style="opacity:1" fill="#8c8d8c" d="M 433.5,281.5 C 430.88,283.162 428.213,284.828 425.5,286.5C 427.203,283.368 429.87,281.701 433.5,281.5 Z"/></g>
<g><path style="opacity:1" fill="#5f6060" d="M 268.5,282.5 C 271.889,284.22 275.556,284.887 279.5,284.5C 276.696,285.638 273.696,285.805 270.5,285C 269.619,284.292 268.953,283.458 268.5,282.5 Z"/></g>
<g><path style="opacity:1" fill="#8d8d8d" d="M 294.5,285.5 C 296.914,286.911 298.581,288.911 299.5,291.5C 297.086,290.089 295.419,288.089 294.5,285.5 Z"/></g>
<g><path style="opacity:1" fill="#797978" d="M 311.5,287.5 C 311.204,289.403 310.537,291.07 309.5,292.5C 309.12,290.302 309.787,288.635 311.5,287.5 Z"/></g>
<g><path style="opacity:1" fill="#858686" d="M 422.5,288.5 C 422.119,289.931 421.119,290.764 419.5,291C 417.288,291.789 415.288,291.622 413.5,290.5C 416.692,290.595 419.692,289.929 422.5,288.5 Z"/></g>
<g><path style="opacity:1" fill="#505151" d="M 169.5,292.5 C 167.833,292.5 166.167,292.5 164.5,292.5C 166.167,289.833 167.833,289.833 169.5,292.5 Z"/></g>
<g><path style="opacity:1" fill="#8f9090" d="M 309.5,293.5 C 309.586,294.496 309.252,295.329 308.5,296C 306.288,296.789 304.288,296.622 302.5,295.5C 305.188,295.834 307.521,295.168 309.5,293.5 Z"/></g>
<g><path style="opacity:1" fill="#939493" d="M 329.5,293.5 C 331.587,294.585 332.92,296.251 333.5,298.5C 331.413,297.415 330.08,295.749 329.5,293.5 Z"/></g>
<g><path style="opacity:1" fill="#a4a5a5" d="M 557.5,309.5 C 556.206,311.296 555.206,313.296 554.5,315.5C 551.127,316.179 548.46,317.846 546.5,320.5C 547.31,316.204 549.976,314.204 554.5,314.5C 554.5,312.833 554.5,311.167 554.5,309.5C 555.5,309.5 556.5,309.5 557.5,309.5 Z"/></g>
<g><path style="opacity:1" fill="#454444" d="M 538.5,327.5 C 535.276,329.299 531.61,330.299 527.5,330.5C 527.611,329.883 527.944,329.383 528.5,329C 531.757,327.957 535.09,327.457 538.5,327.5 Z"/></g>
<g><path style="opacity:1" fill="#5f6060" d="M 310.5,333.5 C 307.892,333.4 305.558,334.067 303.5,335.5C 305.265,332.551 307.598,331.885 310.5,333.5 Z"/></g>
<g><path style="opacity:1" fill="#9d9d9d" d="M 192.5,335.5 C 192.523,337.6 191.856,339.433 190.5,341C 190.743,341.902 191.077,342.735 191.5,343.5C 190.351,343.209 189.684,342.376 189.5,341C 189.9,338.785 190.9,336.952 192.5,335.5 Z"/></g>
<g><path style="opacity:1" fill="#434343" d="M 303.5,335.5 C 302.355,337.712 301.355,340.045 300.5,342.5C 299.476,343.853 298.143,344.52 296.5,344.5C 298.443,341.22 300.777,338.22 303.5,335.5 Z"/></g>
<g><path style="opacity:1" fill="#bbbbbb" d="M 332.5,334.5 C 333.896,340.061 334.562,345.727 334.5,351.5C 332.143,351.663 329.81,351.497 327.5,351C 326.177,350.184 325.511,349.017 325.5,347.5C 327.753,349.534 330.42,350.534 333.5,350.5C 333.294,346.605 332.627,342.771 331.5,339C 331.508,337.293 331.842,335.793 332.5,334.5 Z"/></g>
<g><path style="opacity:1" fill="#959596" d="M 436.5,340.5 C 437.811,342.56 437.811,344.726 436.5,347C 432.179,347.499 427.846,347.666 423.5,347.5C 427.312,346.676 431.312,346.176 435.5,346C 436.406,344.301 436.739,342.467 436.5,340.5 Z"/></g>
<g><path style="opacity:1" fill="#aaabab" d="M 416.5,350.5 C 416.082,351.222 415.416,351.722 414.5,352C 411.5,352.333 408.5,352.667 405.5,353C 404.529,354.481 403.196,355.315 401.5,355.5C 402.29,354.206 403.29,353.039 404.5,352C 408.466,351.172 412.466,350.672 416.5,350.5 Z"/></g>
<g><path style="opacity:1" fill="#b3b4b4" d="M 401.5,355.5 C 400.735,358.096 400.401,360.763 400.5,363.5C 403.063,364.088 405.396,365.088 407.5,366.5C 401.177,366.539 398.343,363.539 399,357.5C 399.708,356.619 400.542,355.953 401.5,355.5 Z"/></g>
<g><path style="opacity:1" fill="#797878" d="M 205.5,362.5 C 207.833,362.833 209.167,364.167 209.5,366.5C 207.833,365.5 206.5,364.167 205.5,362.5 Z"/></g>
<g><path style="opacity:1" fill="#8d8d8d" d="M 453.5,362.5 C 456.568,362.547 459.568,363.047 462.5,364C 463.252,364.671 463.586,365.504 463.5,366.5C 460.244,364.859 456.911,363.525 453.5,362.5 Z"/></g>
<g><path style="opacity:1" fill="#9c9b9c" d="M 211.5,368.5 C 213.989,368.241 215.656,369.241 216.5,371.5C 214.566,370.89 212.899,369.89 211.5,368.5 Z"/></g>
<g><path style="opacity:1" fill="#656666" d="M 260.5,372.5 C 259.92,374.749 258.587,376.415 256.5,377.5C 257.08,375.251 258.413,373.585 260.5,372.5 Z"/></g>
<g><path style="opacity:1" fill="#7e7f7f" d="M 222.5,376.5 C 226.13,376.701 228.797,378.368 230.5,381.5C 227.787,379.828 225.12,378.162 222.5,376.5 Z"/></g>
<g><path style="opacity:1" fill="#5c5c5c" d="M 251.5,383.5 C 250.198,385.822 248.198,387.155 245.5,387.5C 245.5,387.167 245.5,386.833 245.5,386.5C 247.517,385.471 249.517,384.471 251.5,383.5 Z"/></g>
<g><path style="opacity:1" fill="#a9aaaa" d="M 234.5,384.5 C 237.95,385.91 241.616,386.576 245.5,386.5C 245.5,386.833 245.5,387.167 245.5,387.5C 241.051,389.229 237.384,388.229 234.5,384.5 Z"/></g>
<g><path style="opacity:1" fill="#8f8f8f" d="M 167.5,408.5 C 166.833,407.167 166.167,405.833 165.5,404.5C 163.35,400.668 160.35,397.335 156.5,394.5C 155.509,398.445 155.176,402.445 155.5,406.5C 154.883,406.389 154.383,406.056 154,405.5C 153.294,400.824 152.96,396.157 153,391.5C 153.725,390.941 154.558,390.608 155.5,390.5C 158.413,394.402 162.079,397.735 166.5,400.5C 167.48,403.086 167.813,405.753 167.5,408.5 Z"/></g>
<g><path style="opacity:1" fill="#e0e3e2" d="M 536.5,427.5 C 536.743,422.516 536.076,417.682 534.5,413C 534.482,410.558 535.149,408.392 536.5,406.5C 537.508,404.661 539.008,403.328 541,402.5C 541.483,401.552 541.649,400.552 541.5,399.5C 542.5,399.5 543.5,399.5 544.5,399.5C 544.782,409.475 543.282,419.142 540,428.5C 538.421,429.8 537.255,429.466 536.5,427.5 Z"/></g>
<g><path style="opacity:1" fill="#747373" d="M 536.5,406.5 C 535.149,408.392 534.482,410.558 534.5,413C 536.076,417.682 536.743,422.516 536.5,427.5C 534.339,421.453 533.506,415.12 534,408.5C 534.708,407.619 535.542,406.953 536.5,406.5 Z"/></g>
<g><path style="opacity:1" fill="#f4f6f1" d="M 165.5,404.5 C 165.335,407.85 165.502,411.183 166,414.5C 168.49,421.863 170.657,429.196 172.5,436.5C 173.511,440.112 173.678,443.779 173,447.5C 170.622,440.324 167.788,433.324 164.5,426.5C 164.043,425.702 163.376,425.369 162.5,425.5C 162.5,425.167 162.5,424.833 162.5,424.5C 162.308,420.898 160.974,417.898 158.5,415.5C 156.747,412.854 155.747,409.854 155.5,406.5C 155.176,402.445 155.509,398.445 156.5,394.5C 160.35,397.335 163.35,400.668 165.5,404.5 Z"/></g>
<g><path style="opacity:1" fill="#7a7675" d="M 167.5,408.5 C 168.222,408.918 168.722,409.584 169,410.5C 169.498,413.482 169.665,416.482 169.5,419.5C 168.313,416.054 167.646,412.387 167.5,408.5 Z"/></g>
<g><path style="opacity:1" fill="#d8d5cd" d="M 165.5,404.5 C 166.167,405.833 166.833,407.167 167.5,408.5C 167.646,412.387 168.313,416.054 169.5,419.5C 170.674,420.514 171.34,421.847 171.5,423.5C 172.373,427.768 172.706,432.102 172.5,436.5C 170.657,429.196 168.49,421.863 166,414.5C 165.502,411.183 165.335,407.85 165.5,404.5 Z"/></g>
<g><path style="opacity:1" fill="#98a9b7" d="M 158.5,415.5 C 160.974,417.898 162.308,420.898 162.5,424.5C 159.835,422.165 158.502,419.165 158.5,415.5 Z"/></g>
<g><path style="opacity:1" fill="#f9faf8" d="M 183.5,420.5 C 183.539,421.583 183.873,422.583 184.5,423.5C 186.937,424.803 189.104,426.47 191,428.5C 192.722,443.156 192.889,457.822 191.5,472.5C 190.5,472.5 189.5,472.5 188.5,472.5C 189.341,468.425 188.008,465.425 184.5,463.5C 182.469,451.389 180.802,439.222 179.5,427C 179.833,424.5 180.167,422 180.5,419.5C 181.417,420.127 182.417,420.461 183.5,420.5 Z"/></g>
<g><path style="opacity:1" fill="#f5f6f6" d="M 531.5,419.5 C 531.538,428.846 531.871,438.18 532.5,447.5C 532.5,447.833 532.5,448.167 532.5,448.5C 531.599,449.29 530.932,450.29 530.5,451.5C 528.481,455.237 526.648,459.237 525,463.5C 524.58,467.191 524.08,470.858 523.5,474.5C 522.542,474.953 521.708,475.619 521,476.5C 520.027,473.421 519.194,470.421 518.5,467.5C 518.5,465.833 518.5,464.167 518.5,462.5C 517.297,455.825 517.297,449.159 518.5,442.5C 518.5,442.167 518.5,441.833 518.5,441.5C 519.493,435.622 520.493,429.622 521.5,423.5C 523.446,419.683 526.446,417.85 530.5,418C 531.056,418.383 531.389,418.883 531.5,419.5 Z"/></g>
<g><path style="opacity:1" fill="#4e4d4d" d="M 180.5,417.5 C 178.547,423.074 177.88,429.074 178.5,435.5C 177.51,429.355 177.177,423.022 177.5,416.5C 178.791,416.263 179.791,416.596 180.5,417.5 Z"/></g>
<g><path style="opacity:1" fill="#bcbcbc" d="M 183.5,420.5 C 188.172,423.006 191.672,426.673 194,431.5C 194.498,433.527 194.331,435.527 193.5,437.5C 194.167,439.167 194.833,440.833 195.5,442.5C 193.843,448.384 193.176,454.384 193.5,460.5C 193.073,464.824 192.739,469.158 192.5,473.5C 191.167,473.5 189.833,473.5 188.5,473.5C 186.979,470.277 185.646,466.943 184.5,463.5C 188.008,465.425 189.341,468.425 188.5,472.5C 189.5,472.5 190.5,472.5 191.5,472.5C 192.889,457.822 192.722,443.156 191,428.5C 189.104,426.47 186.937,424.803 184.5,423.5C 183.873,422.583 183.539,421.583 183.5,420.5 Z"/></g>
<g><path style="opacity:1" fill="#92908f" d="M 521.5,423.5 C 520.493,429.622 519.493,435.622 518.5,441.5C 518.471,435.79 518.971,430.123 520,424.5C 520.383,423.944 520.883,423.611 521.5,423.5 Z"/></g>
<g><path style="opacity:1" fill="#898c8d" d="M 531.5,419.5 C 533.515,428.789 533.849,438.122 532.5,447.5C 531.871,438.18 531.538,428.846 531.5,419.5 Z"/></g>
<g><path style="opacity:1" fill="#fbfcfa" d="M 214.5,475.5 C 212.777,477.253 211.277,479.253 210,481.5C 209.444,488.886 209.444,496.219 210,503.5C 209.329,502.748 208.496,502.414 207.5,502.5C 204.708,495.604 202.208,488.604 200,481.5C 199.5,470.505 199.333,459.505 199.5,448.5C 199.5,448.167 199.5,447.833 199.5,447.5C 200.117,447.389 200.617,447.056 201,446.5C 201.497,443.854 201.664,441.187 201.5,438.5C 208.132,442.236 214.965,445.903 222,449.5C 221.591,455.63 219.591,461.297 216,466.5C 215.047,469.432 214.547,472.432 214.5,475.5 Z"/></g>
<g><path style="opacity:1" fill="#f7f8f8" d="M 509.5,442.5 C 509.24,448.194 510.24,453.527 512.5,458.5C 512.5,459.167 512.5,459.833 512.5,460.5C 513.001,467.171 513.168,473.837 513,480.5C 512.417,482.002 511.584,483.335 510.5,484.5C 510.002,491.123 508.668,497.456 506.5,503.5C 503.702,504.706 501.535,506.706 500,509.5C 496.117,514.6 493.284,520.266 491.5,526.5C 490.833,526.5 490.5,526.833 490.5,527.5C 489.307,527.03 488.64,526.03 488.5,524.5C 488.997,522.182 489.33,519.848 489.5,517.5C 489.5,517.167 489.5,516.833 489.5,516.5C 490.117,516.389 490.617,516.056 491,515.5C 491.824,505.991 491.658,496.657 490.5,487.5C 489.922,482.3 488.589,477.3 486.5,472.5C 486.059,468.964 485.059,465.63 483.5,462.5C 484.971,458.281 485.971,453.948 486.5,449.5C 492.282,446.225 497.948,442.725 503.5,439C 506.872,437.878 508.872,439.045 509.5,442.5 Z"/></g>
<g><path style="opacity:1" fill="#c4c2bf" d="M 180.5,417.5 C 181.694,418.272 182.694,419.272 183.5,420.5C 182.417,420.461 181.417,420.127 180.5,419.5C 180.167,422 179.833,424.5 179.5,427C 180.802,439.222 182.469,451.389 184.5,463.5C 183.149,460.977 181.983,458.311 181,455.5C 180.024,448.803 179.191,442.136 178.5,435.5C 177.88,429.074 178.547,423.074 180.5,417.5 Z"/></g>
<g><path style="opacity:1" fill="#686868" d="M 204.5,437.5 C 203.167,437.5 201.833,437.5 200.5,437.5C 200.384,440.86 200.051,444.193 199.5,447.5C 199.5,447.833 199.5,448.167 199.5,448.5C 199.167,448.5 198.833,448.5 198.5,448.5C 198.395,444.452 198.728,440.452 199.5,436.5C 201.415,436.216 203.081,436.549 204.5,437.5 Z"/></g>
<g><path style="opacity:1" fill="#9d9c9a" d="M 171.5,423.5 C 172.117,423.611 172.617,423.944 173,424.5C 174.118,432.847 174.285,441.18 173.5,449.5C 172.522,449.023 171.689,448.357 171,447.5C 168.948,439.752 166.115,432.418 162.5,425.5C 163.376,425.369 164.043,425.702 164.5,426.5C 167.788,433.324 170.622,440.324 173,447.5C 173.678,443.779 173.511,440.112 172.5,436.5C 172.706,432.102 172.373,427.768 171.5,423.5 Z"/></g>
<g><path style="opacity:1" fill="#afb0ad" d="M 348.5,447.5 C 343.275,447.186 338.275,447.853 333.5,449.5C 334.058,448.21 335.058,447.377 336.5,447C 340.689,446.188 344.689,446.355 348.5,447.5 Z"/></g>
<g><path style="opacity:1" fill="#fafbfa" d="M 348.5,447.5 C 352.749,449.088 356.082,451.755 358.5,455.5C 361.444,459.831 363.111,464.665 363.5,470C 363.333,471.833 363.167,473.667 363,475.5C 361.929,479.448 360.429,483.115 358.5,486.5C 358.405,488.786 357.738,490.786 356.5,492.5C 355.761,492.369 355.094,492.536 354.5,493C 351.208,497.716 349.208,502.882 348.5,508.5C 346.928,510.944 345.428,513.61 344,516.5C 342.635,525.621 340.802,534.621 338.5,543.5C 336.182,539.51 333.849,535.51 331.5,531.5C 330.857,529.924 329.857,528.59 328.5,527.5C 325.803,518.418 323.136,509.418 320.5,500.5C 320.5,498.833 320.5,497.167 320.5,495.5C 318.127,479.459 322.294,465.459 333,453.5C 333.49,452.207 333.657,450.873 333.5,449.5C 338.275,447.853 343.275,447.186 348.5,447.5 Z"/></g>
<g><path style="opacity:1" fill="#fafbfa" d="M 414.5,455.5 C 415.582,460.758 417.415,465.758 420,470.5C 420.734,476.195 421.568,481.862 422.5,487.5C 421.218,495.911 419.551,504.244 417.5,512.5C 416.255,516.071 414.421,519.404 412,522.5C 411.338,524.813 410.838,527.146 410.5,529.5C 408.715,533.487 406.215,537.154 403,540.5C 402.389,543.721 401.222,546.721 399.5,549.5C 398.604,544.533 398.604,539.533 399.5,534.5C 399.375,529.945 398.708,525.611 397.5,521.5C 396.709,511.379 394.709,501.546 391.5,492C 391.316,490.624 390.649,489.791 389.5,489.5C 387.118,485.359 385.118,481.026 383.5,476.5C 383.337,474.143 383.503,471.81 384,469.5C 388.799,462.234 393.299,454.901 397.5,447.5C 403.456,446.167 408.956,447.5 414,451.5C 414.49,452.793 414.657,454.127 414.5,455.5 Z"/></g>
<g><path style="opacity:1" fill="#b4b3b3" d="M 509.5,442.5 C 511.728,446.076 512.728,450.076 512.5,454.5C 512.5,455.833 512.5,457.167 512.5,458.5C 510.24,453.527 509.24,448.194 509.5,442.5 Z"/></g>
<g><path style="opacity:1" fill="#adafae" d="M 518.5,442.5 C 517.297,449.159 517.297,455.825 518.5,462.5C 517.264,458.662 516.264,454.662 515.5,450.5C 515.733,447.458 516.733,444.792 518.5,442.5 Z"/></g>
<g><path style="opacity:1" fill="#a1a1a2" d="M 306.5,458.5 C 306.328,459.492 306.662,460.158 307.5,460.5C 307.5,461.167 307.5,461.833 307.5,462.5C 307.5,466.5 307.5,470.5 307.5,474.5C 307.167,474.5 306.833,474.5 306.5,474.5C 306.52,467.712 305.186,461.212 302.5,455C 294.829,454.82 287.162,455.154 279.5,456C 276.714,459.877 273.714,463.377 270.5,466.5C 272.531,462.289 275.197,458.455 278.5,455C 284.888,454.561 291.221,453.728 297.5,452.5C 302.048,452.269 305.048,454.269 306.5,458.5 Z"/></g>
<g><path style="opacity:1" fill="#5a5350" d="M 532.5,448.5 C 532.59,451.152 531.924,453.485 530.5,455.5C 530.5,454.167 530.5,452.833 530.5,451.5C 530.932,450.29 531.599,449.29 532.5,448.5 Z"/></g>
<g><path style="opacity:1" fill="#f8f9f9" d="M 234.5,452.5 C 240.439,453.428 246.106,455.095 251.5,457.5C 249.732,473.459 248.399,489.459 247.5,505.5C 247.667,512.5 247.833,519.5 248,526.5C 248.716,528.879 249.883,530.879 251.5,532.5C 252.167,533.5 252.833,534.5 253.5,535.5C 253.5,537.5 253.5,539.5 253.5,541.5C 250.011,540.687 247.344,538.687 245.5,535.5C 241.801,530.635 238.301,525.635 235,520.5C 234.329,519.748 233.496,519.414 232.5,519.5C 231.123,512.309 230.123,504.976 229.5,497.5C 229.333,482.83 229.5,468.163 230,453.5C 231.356,452.62 232.856,452.286 234.5,452.5 Z"/></g>
<g><path style="opacity:1" fill="#b9bbbb" d="M 204.5,437.5 C 210.642,441.408 216.976,445.074 223.5,448.5C 224.833,451.167 224.833,453.833 223.5,456.5C 221.244,463.339 218.244,469.673 214.5,475.5C 214.547,472.432 215.047,469.432 216,466.5C 219.591,461.297 221.591,455.63 222,449.5C 214.965,445.903 208.132,442.236 201.5,438.5C 201.664,441.187 201.497,443.854 201,446.5C 200.617,447.056 200.117,447.389 199.5,447.5C 200.051,444.193 200.384,440.86 200.5,437.5C 201.833,437.5 203.167,437.5 204.5,437.5 Z"/></g>
<g><path style="opacity:1" fill="#fafbfa" d="M 306.5,474.5 C 306.768,476.099 306.434,477.432 305.5,478.5C 302.58,482.951 301.247,487.951 301.5,493.5C 301.007,495.806 300.674,498.139 300.5,500.5C 299.883,500.611 299.383,500.944 299,501.5C 293.824,518.783 293.49,536.117 298,553.5C 299.058,556.766 300.558,559.766 302.5,562.5C 303.345,563.671 304.011,565.005 304.5,566.5C 304.682,568.675 305.349,570.675 306.5,572.5C 306.253,573.713 305.586,574.38 304.5,574.5C 303.127,574.657 301.793,574.49 300.5,574C 299.416,569.739 296.749,567.572 292.5,567.5C 291.821,563.112 289.488,560.112 285.5,558.5C 282.066,554.411 279.066,550.077 276.5,545.5C 272.766,533.315 269.1,521.315 265.5,509.5C 265.5,508.833 265.5,508.167 265.5,507.5C 264.482,493.447 266.149,479.78 270.5,466.5C 273.714,463.377 276.714,459.877 279.5,456C 287.162,455.154 294.829,454.82 302.5,455C 305.186,461.212 306.52,467.712 306.5,474.5 Z"/></g>
<g><path style="opacity:1" fill="#b4a19e" d="M 333.5,449.5 C 333.657,450.873 333.49,452.207 333,453.5C 322.294,465.459 318.127,479.459 320.5,495.5C 316.896,488.451 316.562,481.118 319.5,473.5C 321.538,469.307 323.205,464.974 324.5,460.5C 325.5,460.167 326.167,459.5 326.5,458.5C 329.011,455.603 331.345,452.603 333.5,449.5 Z"/></g>
<g><path style="opacity:1" fill="#cdc3c1" d="M 468.5,456.5 C 469.254,461.463 469.587,466.463 469.5,471.5C 468.396,466.647 467.396,461.647 466.5,456.5C 457.827,456.334 449.16,456.5 440.5,457C 439.432,459.438 438.098,461.605 436.5,463.5C 436.5,461.833 436.5,460.167 436.5,458.5C 437.837,457.685 438.837,456.518 439.5,455C 448.833,454.333 458.167,454.333 467.5,455C 468.056,455.383 468.389,455.883 468.5,456.5 Z"/></g>
<g><path style="opacity:1" fill="#f9fafa" d="M 469.5,471.5 C 470.956,477.394 471.623,483.394 471.5,489.5C 471.411,499.833 469.744,509.833 466.5,519.5C 465.974,521.23 464.974,522.564 463.5,523.5C 460.419,527.329 457.586,531.329 455,535.5C 453.772,540.218 451.272,544.052 447.5,547C 446.521,549.433 445.855,551.933 445.5,554.5C 443.139,556.194 441.139,558.194 439.5,560.5C 437.071,560.585 435.071,561.585 433.5,563.5C 433.024,560.26 433.024,556.927 433.5,553.5C 433.5,553.167 433.5,552.833 433.5,552.5C 436.09,548.307 437.09,543.64 436.5,538.5C 437.806,537.533 438.473,536.199 438.5,534.5C 439.495,521.677 439.829,508.677 439.5,495.5C 438.413,490.42 437.246,485.42 436,480.5C 435.374,474.805 435.541,469.138 436.5,463.5C 438.098,461.605 439.432,459.438 440.5,457C 449.16,456.5 457.827,456.334 466.5,456.5C 467.396,461.647 468.396,466.647 469.5,471.5 Z"/></g>
<g><path style="opacity:1" fill="#730d11" d="M 306.5,458.5 C 313.167,458.5 319.833,458.5 326.5,458.5C 326.167,459.5 325.5,460.167 324.5,460.5C 318.833,459.167 313.167,459.167 307.5,460.5C 306.662,460.158 306.328,459.492 306.5,458.5 Z"/></g>
<g><path style="opacity:1" fill="#8e1e1d" d="M 362.5,458.5 C 370.833,458.5 379.167,458.5 387.5,458.5C 386.202,462.088 384.536,465.421 382.5,468.5C 383.202,465.56 384.202,462.727 385.5,460C 378.167,459.333 370.833,459.333 363.5,460C 364.337,461.011 364.67,462.178 364.5,463.5C 363.069,462.22 362.402,460.553 362.5,458.5 Z"/></g>
<g><path style="opacity:1" fill="#adaaa8" d="M 397.5,447.5 C 393.299,454.901 388.799,462.234 384,469.5C 383.503,471.81 383.337,474.143 383.5,476.5C 382.527,474.052 382.194,471.385 382.5,468.5C 384.536,465.421 386.202,462.088 387.5,458.5C 388.15,458.196 388.817,457.863 389.5,457.5C 390.765,452.931 393.432,449.598 397.5,447.5 Z"/></g>
<g><path style="opacity:1" fill="#be0a11" d="M 416.5,458.5 C 423.167,458.5 429.833,458.5 436.5,458.5C 436.5,460.167 436.5,461.833 436.5,463.5C 435.094,463.973 434.427,464.973 434.5,466.5C 433.048,468.848 432.382,471.514 432.5,474.5C 432.507,476.369 432.84,478.036 433.5,479.5C 434.467,484.38 435.801,489.047 437.5,493.5C 437.5,494.167 437.5,494.833 437.5,495.5C 433.174,504.146 427.841,512.146 421.5,519.5C 420.778,519.918 420.278,520.584 420,521.5C 419.185,526.352 419.352,531.019 420.5,535.5C 422.233,539.186 424.066,542.852 426,546.5C 428.185,548.54 430.685,549.874 433.5,550.5C 433.5,551.167 433.5,551.833 433.5,552.5C 433.5,552.833 433.5,553.167 433.5,553.5C 429.992,559.022 427.658,565.022 426.5,571.5C 427.873,571.657 429.207,571.49 430.5,571C 432.638,566.7 435.638,563.2 439.5,560.5C 441.139,558.194 443.139,556.194 445.5,554.5C 446.167,553.833 446.833,553.167 447.5,552.5C 450.568,551.978 453.568,551.145 456.5,550C 464.151,544.281 472.817,541.781 482.5,542.5C 493.72,543.478 504.72,545.478 515.5,548.5C 517.426,549.486 519.426,550.486 521.5,551.5C 529.848,555.674 538.182,559.841 546.5,564C 551.378,569.209 555.878,574.709 560,580.5C 562.729,585.189 564.563,590.189 565.5,595.5C 565.605,599.319 566.438,602.986 568,606.5C 568.499,611.489 568.666,616.489 568.5,621.5C 568.565,624.471 567.731,627.138 566,629.5C 563.737,618.765 560.403,608.432 556,598.5C 551.458,592.592 545.958,587.758 539.5,584C 537.457,582.292 535.79,580.292 534.5,578C 526.784,574.687 518.784,572.187 510.5,570.5C 501.009,569.342 491.342,569.175 481.5,570C 480.584,570.278 479.918,570.778 479.5,571.5C 468.231,575.824 458.564,582.657 450.5,592C 449.167,592.333 447.833,592.667 446.5,593C 434.922,606.251 422.922,619.251 410.5,632C 404.329,637.694 397.329,641.861 389.5,644.5C 388.605,639.736 386.938,635.403 384.5,631.5C 378.062,613.743 373.728,614.41 371.5,633.5C 370.388,635.599 369.721,637.933 369.5,640.5C 359.827,630.828 349.827,621.494 339.5,612.5C 338.833,609.833 337.167,608.167 334.5,607.5C 329.837,602.669 325.337,597.669 321,592.5C 315.725,583.6 310.225,574.933 304.5,566.5C 304.011,565.005 303.345,563.671 302.5,562.5C 300.481,555.249 298.648,547.916 297,540.5C 296.833,537.5 296.667,534.5 296.5,531.5C 297.507,521.126 298.84,510.792 300.5,500.5C 301.924,498.485 302.59,496.152 302.5,493.5C 303.965,489.976 304.965,486.309 305.5,482.5C 307.369,480.365 308.036,477.698 307.5,474.5C 309.961,470.527 309.961,466.527 307.5,462.5C 307.5,461.833 307.5,461.167 307.5,460.5C 313.167,459.167 318.833,459.167 324.5,460.5C 323.205,464.974 321.538,469.307 319.5,473.5C 316.562,481.118 316.896,488.451 320.5,495.5C 320.5,497.167 320.5,498.833 320.5,500.5C 321.176,510.185 323.843,519.185 328.5,527.5C 328.755,529.967 329.755,531.967 331.5,533.5C 333.301,540.444 336.635,546.444 341.5,551.5C 342.011,546.874 342.178,542.207 342,537.5C 343.736,527.643 345.903,517.976 348.5,508.5C 349.496,508.586 350.329,508.252 351,507.5C 352.081,502.142 353.914,497.142 356.5,492.5C 357.738,490.786 358.405,488.786 358.5,486.5C 363.546,481.717 365.88,475.717 365.5,468.5C 365.493,466.631 365.16,464.964 364.5,463.5C 364.67,462.178 364.337,461.011 363.5,460C 370.833,459.333 378.167,459.333 385.5,460C 384.202,462.727 383.202,465.56 382.5,468.5C 382.194,471.385 382.527,474.052 383.5,476.5C 385.118,481.026 387.118,485.359 389.5,489.5C 391.073,497.467 393.073,505.134 395.5,512.5C 396.129,521.82 396.462,531.154 396.5,540.5C 396.414,544.857 396.08,549.19 395.5,553.5C 396.978,553.762 398.311,553.429 399.5,552.5C 400.48,551.019 401.647,549.685 403,548.5C 404.455,542.965 406.955,537.965 410.5,533.5C 411.736,531.351 412.736,529.018 413.5,526.5C 413.688,523.794 414.688,521.461 416.5,519.5C 417.924,517.485 418.59,515.152 418.5,512.5C 426.973,494.04 426.307,476.04 416.5,458.5 Z"/></g>
<g><path style="opacity:1" fill="#b4b0ad" d="M 530.5,451.5 C 530.5,452.833 530.5,454.167 530.5,455.5C 528.918,462.199 526.584,468.532 523.5,474.5C 524.08,470.858 524.58,467.191 525,463.5C 526.648,459.237 528.481,455.237 530.5,451.5 Z"/></g>
<g><path style="opacity:1" fill="#424242" d="M 515.5,450.5 C 516.264,454.662 517.264,458.662 518.5,462.5C 518.5,464.167 518.5,465.833 518.5,467.5C 518.5,468.833 518.5,470.167 518.5,471.5C 517.202,466.656 516.035,461.656 515,456.5C 514.502,459.817 514.335,463.15 514.5,466.5C 513.833,464.5 513.167,462.5 512.5,460.5C 512.5,459.833 512.5,459.167 512.5,458.5C 512.5,457.167 512.5,455.833 512.5,454.5C 513.978,453.552 514.978,452.219 515.5,450.5 Z"/></g>
<g><path style="opacity:1" fill="#888887" d="M 193.5,460.5 C 194.217,464.989 194.217,469.656 193.5,474.5C 191.585,474.784 189.919,474.451 188.5,473.5C 189.833,473.5 191.167,473.5 192.5,473.5C 192.739,469.158 193.073,464.824 193.5,460.5 Z"/></g>
<g><path style="opacity:1" fill="#bbb5b3" d="M 486.5,449.5 C 485.971,453.948 484.971,458.281 483.5,462.5C 485.059,465.63 486.059,468.964 486.5,472.5C 485.536,469.926 484.036,467.592 482,465.5C 481.833,464.333 481.667,463.167 481.5,462C 483.052,457.738 484.719,453.571 486.5,449.5 Z"/></g>
<g><path style="opacity:1" fill="#a27773" d="M 307.5,462.5 C 309.961,466.527 309.961,470.527 307.5,474.5C 307.5,470.5 307.5,466.5 307.5,462.5 Z"/></g>
<g><path style="opacity:1" fill="#646464" d="M 468.5,456.5 C 469.222,456.918 469.722,457.584 470,458.5C 470.508,466.564 471.508,474.564 473,482.5C 473.82,489.014 473.653,495.347 472.5,501.5C 472.817,497.298 472.483,493.298 471.5,489.5C 471.623,483.394 470.956,477.394 469.5,471.5C 469.587,466.463 469.254,461.463 468.5,456.5 Z"/></g>
<g><path style="opacity:1" fill="#a23c3d" d="M 434.5,466.5 C 433.8,470.798 433.467,475.131 433.5,479.5C 432.84,478.036 432.507,476.369 432.5,474.5C 432.382,471.514 433.048,468.848 434.5,466.5 Z"/></g>
<g><path style="opacity:1" fill="#969696" d="M 518.5,467.5 C 519.194,470.421 520.027,473.421 521,476.5C 521.708,475.619 522.542,474.953 523.5,474.5C 522.962,476.117 522.629,477.784 522.5,479.5C 521.178,479.67 520.011,479.337 519,478.5C 518.503,476.19 518.337,473.857 518.5,471.5C 518.5,470.167 518.5,468.833 518.5,467.5 Z"/></g>
<g><path style="opacity:1" fill="#bda39f" d="M 358.5,455.5 C 359.833,456.5 361.167,457.5 362.5,458.5C 362.402,460.553 363.069,462.22 364.5,463.5C 365.16,464.964 365.493,466.631 365.5,468.5C 365.88,475.717 363.546,481.717 358.5,486.5C 360.429,483.115 361.929,479.448 363,475.5C 363.167,473.667 363.333,471.833 363.5,470C 363.111,464.665 361.444,459.831 358.5,455.5 Z"/></g>
<g><path style="opacity:1" fill="#959493" d="M 234.5,452.5 C 232.856,452.286 231.356,452.62 230,453.5C 229.5,468.163 229.333,482.83 229.5,497.5C 227.508,482.685 227.174,467.685 228.5,452.5C 230.643,451.246 232.643,451.246 234.5,452.5 Z"/></g>
<g><path style="opacity:1" fill="#ac4943" d="M 306.5,474.5 C 306.833,474.5 307.167,474.5 307.5,474.5C 308.036,477.698 307.369,480.365 305.5,482.5C 305.5,481.167 305.5,479.833 305.5,478.5C 306.434,477.432 306.768,476.099 306.5,474.5 Z"/></g>
<g><path style="opacity:1" fill="#cfc3c0" d="M 436.5,463.5 C 435.541,469.138 435.374,474.805 436,480.5C 437.246,485.42 438.413,490.42 439.5,495.5C 438.833,494.833 438.167,494.167 437.5,493.5C 435.801,489.047 434.467,484.38 433.5,479.5C 433.467,475.131 433.8,470.798 434.5,466.5C 434.427,464.973 435.094,463.973 436.5,463.5 Z"/></g>
<g><path style="opacity:1" fill="#c5c3be" d="M 512.5,460.5 C 513.167,462.5 513.833,464.5 514.5,466.5C 514.88,474.97 514.047,483.303 512,491.5C 510.621,495.848 508.787,499.848 506.5,503.5C 508.668,497.456 510.002,491.123 510.5,484.5C 511.584,483.335 512.417,482.002 513,480.5C 513.168,473.837 513.001,467.171 512.5,460.5 Z"/></g>
<g><path style="opacity:1" fill="#d5c9c5" d="M 251.5,457.5 C 252.117,457.611 252.617,457.944 253,458.5C 253.167,459.833 253.333,461.167 253.5,462.5C 251.671,472.24 250.338,481.906 249.5,491.5C 248.834,496.656 248.501,501.989 248.5,507.5C 248.505,513.211 249.172,518.544 250.5,523.5C 251.299,526.43 251.632,529.43 251.5,532.5C 249.883,530.879 248.716,528.879 248,526.5C 247.833,519.5 247.667,512.5 247.5,505.5C 248.399,489.459 249.732,473.459 251.5,457.5 Z"/></g>
<g><path style="opacity:1" fill="#bfbfbf" d="M 198.5,448.5 C 198.833,448.5 199.167,448.5 199.5,448.5C 199.333,459.505 199.5,470.505 200,481.5C 202.208,488.604 204.708,495.604 207.5,502.5C 205.612,501.06 203.945,499.394 202.5,497.5C 201.3,493.351 199.8,489.351 198,485.5C 197.173,472.993 197.34,460.66 198.5,448.5 Z"/></g>
<g><path style="opacity:1" fill="#c2b4b0" d="M 414.5,455.5 C 415.167,456.5 415.833,457.5 416.5,458.5C 426.307,476.04 426.973,494.04 418.5,512.5C 418.167,512.5 417.833,512.5 417.5,512.5C 419.551,504.244 421.218,495.911 422.5,487.5C 421.568,481.862 420.734,476.195 420,470.5C 417.415,465.758 415.582,460.758 414.5,455.5 Z"/></g>
<g><path style="opacity:1" fill="#6b5d57" d="M 265.5,478.5 C 264.589,487.126 264.255,495.792 264.5,504.5C 263.344,496.677 263.177,488.677 264,480.5C 264.278,479.584 264.778,478.918 265.5,478.5 Z"/></g>
<g><path style="opacity:1" fill="#d7bfbc" d="M 305.5,478.5 C 305.5,479.833 305.5,481.167 305.5,482.5C 304.965,486.309 303.965,489.976 302.5,493.5C 302.167,493.5 301.833,493.5 301.5,493.5C 301.247,487.951 302.58,482.951 305.5,478.5 Z"/></g>
<g><path style="opacity:1" fill="#c0b6b3" d="M 270.5,466.5 C 266.149,479.78 264.482,493.447 265.5,507.5C 264.596,506.791 264.263,505.791 264.5,504.5C 264.255,495.792 264.589,487.126 265.5,478.5C 266.816,474.911 267.983,471.244 269,467.5C 269.383,466.944 269.883,466.611 270.5,466.5 Z"/></g>
<g><path style="opacity:1" fill="#c7c4be" d="M 214.5,475.5 C 211.297,485.273 210.631,495.273 212.5,505.5C 210.067,505.727 208.401,504.727 207.5,502.5C 208.496,502.414 209.329,502.748 210,503.5C 209.444,496.219 209.444,488.886 210,481.5C 211.277,479.253 212.777,477.253 214.5,475.5 Z"/></g>
<g><path style="opacity:1" fill="#c6b4af" d="M 389.5,489.5 C 390.649,489.791 391.316,490.624 391.5,492C 394.709,501.546 396.709,511.379 397.5,521.5C 396.833,518.5 396.167,515.5 395.5,512.5C 393.073,505.134 391.073,497.467 389.5,489.5 Z"/></g>
<g><path style="opacity:1" fill="#060101" d="M 437.5,495.5 C 438.463,508.451 438.796,521.451 438.5,534.5C 438.473,536.199 437.806,537.533 436.5,538.5C 434.87,542.226 433.87,546.226 433.5,550.5C 430.685,549.874 428.185,548.54 426,546.5C 424.066,542.852 422.233,539.186 420.5,535.5C 420.392,530.13 420.725,524.797 421.5,519.5C 427.841,512.146 433.174,504.146 437.5,495.5 Z"/></g>
<g><path style="opacity:1" fill="#ab4847" d="M 301.5,493.5 C 301.833,493.5 302.167,493.5 302.5,493.5C 302.59,496.152 301.924,498.485 300.5,500.5C 300.674,498.139 301.007,495.806 301.5,493.5 Z"/></g>
<g><path style="opacity:1" fill="#cfb8b4" d="M 356.5,492.5 C 353.914,497.142 352.081,502.142 351,507.5C 350.329,508.252 349.496,508.586 348.5,508.5C 349.208,502.882 351.208,497.716 354.5,493C 355.094,492.536 355.761,492.369 356.5,492.5 Z"/></g>
<g><path style="opacity:1" fill="#a0a0a0" d="M 471.5,489.5 C 472.483,493.298 472.817,497.298 472.5,501.5C 472.142,505.509 471.642,509.509 471,513.5C 469.723,515.747 468.223,517.747 466.5,519.5C 469.744,509.833 471.411,499.833 471.5,489.5 Z"/></g>
<g><path style="opacity:1" fill="#ab9892" d="M 249.5,491.5 C 249.567,502.177 249.901,512.844 250.5,523.5C 249.172,518.544 248.505,513.211 248.5,507.5C 248.501,501.989 248.834,496.656 249.5,491.5 Z"/></g>
<g><path style="opacity:1" fill="#bc908c" d="M 300.5,500.5 C 298.84,510.792 297.507,521.126 296.5,531.5C 296.667,534.5 296.833,537.5 297,540.5C 298.648,547.916 300.481,555.249 302.5,562.5C 300.558,559.766 299.058,556.766 298,553.5C 293.49,536.117 293.824,518.783 299,501.5C 299.383,500.944 299.883,500.611 300.5,500.5 Z"/></g>
<g><path style="opacity:1" fill="#ae3b39" d="M 320.5,500.5 C 323.136,509.418 325.803,518.418 328.5,527.5C 323.843,519.185 321.176,510.185 320.5,500.5 Z"/></g>
<g><path style="opacity:1" fill="#8f8682" d="M 490.5,487.5 C 491.658,496.657 491.824,505.991 491,515.5C 490.617,516.056 490.117,516.389 489.5,516.5C 490.36,506.861 490.693,497.194 490.5,487.5 Z"/></g>
<g><path style="opacity:1" fill="#aa4442" d="M 417.5,512.5 C 417.833,512.5 418.167,512.5 418.5,512.5C 418.59,515.152 417.924,517.485 416.5,519.5C 416.674,517.139 417.007,514.806 417.5,512.5 Z"/></g>
<g><path style="opacity:1" fill="#bebdbb" d="M 506.5,503.5 C 501.68,511.311 496.68,518.978 491.5,526.5C 493.284,520.266 496.117,514.6 500,509.5C 501.535,506.706 503.702,504.706 506.5,503.5 Z"/></g>
<g><path style="opacity:1" fill="#b07370" d="M 395.5,512.5 C 396.167,515.5 396.833,518.5 397.5,521.5C 397.823,528.022 397.49,534.355 396.5,540.5C 396.462,531.154 396.129,521.82 395.5,512.5 Z"/></g>
<g><path style="opacity:1" fill="#cbb9b4" d="M 417.5,512.5 C 417.007,514.806 416.674,517.139 416.5,519.5C 414.688,521.461 413.688,523.794 413.5,526.5C 412.272,527.306 411.272,528.306 410.5,529.5C 410.838,527.146 411.338,524.813 412,522.5C 414.421,519.404 416.255,516.071 417.5,512.5 Z"/></g>
<g><path style="opacity:1" fill="#b2b2b1" d="M 232.5,519.5 C 233.496,519.414 234.329,519.748 235,520.5C 238.301,525.635 241.801,530.635 245.5,535.5C 244.833,535.5 244.167,535.5 243.5,535.5C 239.09,530.743 235.423,525.409 232.5,519.5 Z"/></g>
<g><path style="opacity:1" fill="#34302f" d="M 437.5,493.5 C 438.167,494.167 438.833,494.833 439.5,495.5C 439.829,508.677 439.495,521.677 438.5,534.5C 438.796,521.451 438.463,508.451 437.5,495.5C 437.5,494.833 437.5,494.167 437.5,493.5 Z"/></g>
<g><path style="opacity:1" fill="#979594" d="M 489.5,517.5 C 489.33,519.848 488.997,522.182 488.5,524.5C 488.64,526.03 489.307,527.03 490.5,527.5C 489.713,529.104 488.38,529.771 486.5,529.5C 486.034,525.018 487.034,521.018 489.5,517.5 Z"/></g>
<g><path style="opacity:1" fill="#a65957" d="M 413.5,526.5 C 412.736,529.018 411.736,531.351 410.5,533.5C 410.5,532.167 410.5,530.833 410.5,529.5C 411.272,528.306 412.272,527.306 413.5,526.5 Z"/></g>
<g><path style="opacity:1" fill="#3f0607" d="M 421.5,519.5 C 420.725,524.797 420.392,530.13 420.5,535.5C 419.352,531.019 419.185,526.352 420,521.5C 420.278,520.584 420.778,519.918 421.5,519.5 Z"/></g>
<g><path style="opacity:1" fill="#c0bab6" d="M 463.5,523.5 C 462.167,527.167 460.833,530.833 459.5,534.5C 455.897,536.435 453.897,539.435 453.5,543.5C 450.261,545.635 448.261,548.635 447.5,552.5C 446.833,553.167 446.167,553.833 445.5,554.5C 445.855,551.933 446.521,549.433 447.5,547C 451.272,544.052 453.772,540.218 455,535.5C 457.586,531.329 460.419,527.329 463.5,523.5 Z"/></g>
<g><path style="opacity:1" fill="#afb0af" d="M 265.5,509.5 C 269.1,521.315 272.766,533.315 276.5,545.5C 276.167,545.5 275.833,545.5 275.5,545.5C 270.937,533.921 267.603,521.921 265.5,509.5 Z"/></g>
<g><path style="opacity:1" fill="#b1726d" d="M 328.5,527.5 C 329.857,528.59 330.857,529.924 331.5,531.5C 331.5,532.167 331.5,532.833 331.5,533.5C 329.755,531.967 328.755,529.967 328.5,527.5 Z"/></g>
<g><path style="opacity:1" fill="#443c3a" d="M 459.5,534.5 C 457.462,537.526 455.462,540.526 453.5,543.5C 453.897,539.435 455.897,536.435 459.5,534.5 Z"/></g>
<g><path style="opacity:1" fill="#575352" d="M 243.5,535.5 C 244.167,535.5 244.833,535.5 245.5,535.5C 247.344,538.687 250.011,540.687 253.5,541.5C 253.5,539.5 253.5,537.5 253.5,535.5C 254.468,537.607 254.802,539.941 254.5,542.5C 249.587,542.275 245.92,539.941 243.5,535.5 Z"/></g>
<g><path style="opacity:1" fill="#d4c5c2" d="M 348.5,508.5 C 345.903,517.976 343.736,527.643 342,537.5C 342.178,542.207 342.011,546.874 341.5,551.5C 336.635,546.444 333.301,540.444 331.5,533.5C 331.5,532.833 331.5,532.167 331.5,531.5C 333.849,535.51 336.182,539.51 338.5,543.5C 340.802,534.621 342.635,525.621 344,516.5C 345.428,513.61 346.928,510.944 348.5,508.5 Z"/></g>
<g><path style="opacity:1" fill="#ccbebc" d="M 397.5,521.5 C 398.708,525.611 399.375,529.945 399.5,534.5C 398.604,539.533 398.604,544.533 399.5,549.5C 401.222,546.721 402.389,543.721 403,540.5C 406.215,537.154 408.715,533.487 410.5,529.5C 410.5,530.833 410.5,532.167 410.5,533.5C 406.955,537.965 404.455,542.965 403,548.5C 401.647,549.685 400.48,551.019 399.5,552.5C 398.311,553.429 396.978,553.762 395.5,553.5C 396.08,549.19 396.414,544.857 396.5,540.5C 397.49,534.355 397.823,528.022 397.5,521.5 Z"/></g>
<g><path style="opacity:1" fill="#959695" d="M 436.5,538.5 C 437.09,543.64 436.09,548.307 433.5,552.5C 433.5,551.833 433.5,551.167 433.5,550.5C 433.87,546.226 434.87,542.226 436.5,538.5 Z"/></g>
<g><path style="opacity:1" fill="#55070b" d="M 515.5,548.5 C 518.393,548.031 520.393,549.031 521.5,551.5C 519.426,550.486 517.426,549.486 515.5,548.5 Z"/></g>
<g><path style="opacity:1" fill="#1b1b1b" d="M 275.5,545.5 C 275.833,545.5 276.167,545.5 276.5,545.5C 279.066,550.077 282.066,554.411 285.5,558.5C 288.013,561.441 290.347,564.441 292.5,567.5C 293.5,568.833 294.5,570.167 295.5,571.5C 293.822,572.747 292.489,574.414 291.5,576.5C 291.167,576.333 290.833,576.167 290.5,576C 291.554,574.612 291.72,573.112 291,571.5C 287.006,566.506 282.673,561.84 278,557.5C 274.989,553.858 274.156,549.858 275.5,545.5 Z"/></g>
<g><path style="opacity:1" fill="#b4b5b5" d="M 285.5,558.5 C 289.488,560.112 291.821,563.112 292.5,567.5C 290.347,564.441 288.013,561.441 285.5,558.5 Z"/></g>
<g><path style="opacity:1" fill="#cac3c2" d="M 433.5,553.5 C 433.024,556.927 433.024,560.26 433.5,563.5C 435.071,561.585 437.071,560.585 439.5,560.5C 435.638,563.2 432.638,566.7 430.5,571C 429.207,571.49 427.873,571.657 426.5,571.5C 427.658,565.022 429.992,559.022 433.5,553.5 Z"/></g>
<g><path style="opacity:1" fill="#3c0606" d="M 510.5,570.5 C 500.135,570.267 489.802,570.6 479.5,571.5C 479.918,570.778 480.584,570.278 481.5,570C 491.342,569.175 501.009,569.342 510.5,570.5 Z"/></g>
<g><path style="opacity:1" fill="#bec3c6" d="M 292.5,567.5 C 296.749,567.572 299.416,569.739 300.5,574C 301.793,574.49 303.127,574.657 304.5,574.5C 300.603,576.345 297.603,575.345 295.5,571.5C 294.5,570.167 293.5,568.833 292.5,567.5 Z"/></g>
<g><path style="opacity:1" fill="#d8d8cf" d="M 218.5,593.5 C 218.665,596.518 218.498,599.518 218,602.5C 217.583,601.244 216.75,600.577 215.5,600.5C 214,596.874 213.667,593.208 214.5,589.5C 216.188,590.521 217.521,591.855 218.5,593.5 Z"/></g>
<g><path style="opacity:1" fill="#a9a5a1" d="M 218.5,593.5 C 219.268,594.263 219.768,595.263 220,596.5C 220.499,600.152 220.665,603.818 220.5,607.5C 219.178,607.67 218.011,607.337 217,606.5C 216.495,604.482 215.995,602.482 215.5,600.5C 216.75,600.577 217.583,601.244 218,602.5C 218.498,599.518 218.665,596.518 218.5,593.5 Z"/></g>
<g><path style="opacity:1" fill="#6a060b" d="M 565.5,595.5 C 569.396,603.858 570.396,612.525 568.5,621.5C 568.666,616.489 568.499,611.489 568,606.5C 566.438,602.986 565.605,599.319 565.5,595.5 Z"/></g>
<g><path style="opacity:1" fill="#cdccc8" d="M 504.5,591.5 C 505.765,592.514 506.431,594.014 506.5,596C 506.119,599.6 505.285,603.1 504,606.5C 503.092,608.439 501.592,609.439 499.5,609.5C 498.319,602.559 499.986,596.559 504.5,591.5 Z"/></g>
<g><path style="opacity:1" fill="#6f050c" d="M 334.5,607.5 C 337.167,608.167 338.833,609.833 339.5,612.5C 337.5,611.167 335.833,609.5 334.5,607.5 Z"/></g>
<g><path style="opacity:1" fill="#efefef" d="M 497.5,616.5 C 497.587,621.537 497.254,626.537 496.5,631.5C 493.23,636.456 489.897,641.456 486.5,646.5C 484.586,643.316 483.92,639.649 484.5,635.5C 484.5,634.833 484.5,634.167 484.5,633.5C 485.924,631.485 486.59,629.152 486.5,626.5C 488.832,619.181 491.165,611.847 493.5,604.5C 496.047,607.991 497.38,611.991 497.5,616.5 Z"/></g>
<g><path style="opacity:1" fill="#cdcfce" d="M 227.5,615.5 C 226.768,614.192 225.934,612.858 225,611.5C 223.539,616.683 224.706,621.016 228.5,624.5C 228.291,625.086 227.957,625.586 227.5,626C 229.253,628.58 230.253,631.413 230.5,634.5C 224.191,627.195 221.858,618.529 223.5,608.5C 224.5,608.5 225.5,608.5 226.5,608.5C 226.993,610.806 227.326,613.139 227.5,615.5 Z"/></g>
<g><path style="opacity:1" fill="#f4f4f1" d="M 227.5,615.5 C 229.262,616.262 230.262,617.596 230.5,619.5C 232.566,625.413 234.9,631.247 237.5,637C 237.375,638.627 236.875,640.127 236,641.5C 235.29,640.027 234.124,639.36 232.5,639.5C 231.559,637.95 230.893,636.284 230.5,634.5C 230.253,631.413 229.253,628.58 227.5,626C 227.957,625.586 228.291,625.086 228.5,624.5C 224.706,621.016 223.539,616.683 225,611.5C 225.934,612.858 226.768,614.192 227.5,615.5 Z"/></g>
<g><path style="opacity:1" fill="#f2f2f1" d="M 471.5,624.5 C 473.098,626.857 474.098,629.523 474.5,632.5C 475.309,634.292 475.809,636.292 476,638.5C 476.667,645.833 476.667,653.167 476,660.5C 471.831,667.019 467.665,673.519 463.5,680C 460.872,681.626 458.539,683.626 456.5,686C 453.207,686.826 449.874,687.326 446.5,687.5C 446.343,686.127 446.51,684.793 447,683.5C 451.345,677.809 454.345,671.476 456,664.5C 458.635,659.238 461.635,654.238 465,649.5C 466.259,640.896 468.426,632.562 471.5,624.5 Z"/></g>
<g><path style="opacity:1" fill="#d0cccb" d="M 384.5,631.5 C 382.968,630.323 381.468,628.989 380,627.5C 379.51,626.207 379.343,624.873 379.5,623.5C 377.833,623.5 376.167,623.5 374.5,623.5C 374.79,627.324 373.79,630.658 371.5,633.5C 373.728,614.41 378.062,613.743 384.5,631.5 Z"/></g>
<g><path style="opacity:1" fill="#858584" d="M 474.5,632.5 C 474.098,629.523 473.098,626.857 471.5,624.5C 471.706,622.451 472.539,622.117 474,623.5C 474.498,626.482 474.665,629.482 474.5,632.5 Z"/></g>
<g><path style="opacity:1" fill="#6b6b6b" d="M 248.5,622.5 C 247.348,621.375 246.348,621.375 245.5,622.5C 244.833,625.167 244.167,627.833 243.5,630.5C 243.335,627.482 243.502,624.482 244,621.5C 246.24,618.707 247.74,619.04 248.5,622.5 Z"/></g>
<g><path style="opacity:1" fill="#f8fafa" d="M 348.5,691.5 C 345.57,692.299 342.57,692.632 339.5,692.5C 336.15,692.665 332.817,692.498 329.5,692C 327.133,690.155 324.467,688.989 321.5,688.5C 321.5,688.167 321.5,687.833 321.5,687.5C 320.602,679.876 320.269,672.209 320.5,664.5C 320.557,663.391 320.89,662.391 321.5,661.5C 322.365,655.996 323.032,650.329 323.5,644.5C 324.55,639.328 326.55,634.661 329.5,630.5C 330.859,629.993 331.859,628.993 332.5,627.5C 333.327,631.459 333.827,635.459 334,639.5C 334.667,640.167 335.333,640.833 336,641.5C 335.914,656.042 339.58,669.375 347,681.5C 347.248,684.919 347.748,688.253 348.5,691.5 Z"/></g>
<g><path style="opacity:1" fill="#444545" d="M 497.5,616.5 C 498.162,618.304 498.495,620.304 498.5,622.5C 498.657,625.814 497.991,628.814 496.5,631.5C 497.254,626.537 497.587,621.537 497.5,616.5 Z"/></g>
<g><path style="opacity:1" fill="#93918f" d="M 486.5,626.5 C 486.59,629.152 485.924,631.485 484.5,633.5C 484.338,631.473 484.505,629.473 485,627.5C 485.383,626.944 485.883,626.611 486.5,626.5 Z"/></g>
<g><path style="opacity:1" fill="#f9fafa" d="M 384.5,631.5 C 386.938,635.403 388.605,639.736 389.5,644.5C 392.622,652.66 394.955,660.993 396.5,669.5C 397.167,677.167 397.833,684.833 398.5,692.5C 395.167,693.833 391.833,693.833 388.5,692.5C 381.432,691.818 374.266,691.151 367,690.5C 367.404,674.174 368.238,657.841 369.5,641.5C 369.5,641.167 369.5,640.833 369.5,640.5C 369.721,637.933 370.388,635.599 371.5,633.5C 373.79,630.658 374.79,627.324 374.5,623.5C 376.167,623.5 377.833,623.5 379.5,623.5C 379.343,624.873 379.51,626.207 380,627.5C 381.468,628.989 382.968,630.323 384.5,631.5 Z"/></g>
<g><path style="opacity:1" fill="#9b9c9c" d="M 248.5,623.5 C 249.563,627.639 250.23,631.972 250.5,636.5C 249.883,636.389 249.383,636.056 249,635.5C 248.501,631.514 248.334,627.514 248.5,623.5 Z"/></g>
<g><path style="opacity:1" fill="#817c7a" d="M 238.5,634.5 C 240.851,636.417 240.851,638.084 238.5,639.5C 238.5,637.833 238.5,636.167 238.5,634.5 Z"/></g>
<g><path style="opacity:1" fill="#f5f6f5" d="M 248.5,622.5 C 248.5,622.833 248.5,623.167 248.5,623.5C 248.334,627.514 248.501,631.514 249,635.5C 249.383,636.056 249.883,636.389 250.5,636.5C 251.537,637.93 252.204,639.597 252.5,641.5C 252.352,646.319 253.018,650.985 254.5,655.5C 255.959,655.433 257.292,655.766 258.5,656.5C 259,661.015 261,664.682 264.5,667.5C 266.213,668.635 266.88,670.302 266.5,672.5C 266.357,674.262 266.691,675.929 267.5,677.5C 266.3,678.292 264.967,678.292 263.5,677.5C 257.597,674.719 253.263,670.386 250.5,664.5C 248.913,661.732 247.08,659.065 245,656.5C 244.58,645.161 244.746,633.828 245.5,622.5C 246.348,621.375 247.348,621.375 248.5,622.5 Z"/></g>
<g><path style="opacity:1" fill="#eef1f1" d="M 283.5,640.5 C 288.092,655.025 295.258,668.025 305,679.5C 306.202,681.677 306.702,684.011 306.5,686.5C 300.423,686.804 294.423,686.304 288.5,685C 285.479,683.461 284.146,680.961 284.5,677.5C 279.701,664.441 278.701,651.108 281.5,637.5C 282.176,638.602 282.842,639.602 283.5,640.5 Z"/></g>
<g><path style="opacity:1" fill="#b9bab9" d="M 230.5,619.5 C 234.195,623.901 236.861,628.901 238.5,634.5C 238.5,636.167 238.5,637.833 238.5,639.5C 239.092,642.127 239.425,644.794 239.5,647.5C 238.178,647.67 237.011,647.337 236,646.5C 235.109,643.97 233.942,641.637 232.5,639.5C 234.124,639.36 235.29,640.027 236,641.5C 236.875,640.127 237.375,638.627 237.5,637C 234.9,631.247 232.566,625.413 230.5,619.5 Z"/></g>
<g><path style="opacity:1" fill="#a8a8a8" d="M 484.5,635.5 C 483.92,639.649 484.586,643.316 486.5,646.5C 485.828,647.267 484.995,647.934 484,648.5C 483.186,643.98 483.353,639.646 484.5,635.5 Z"/></g>
<g><path style="opacity:1" fill="#f2f5f5" d="M 439.5,646.5 C 439.432,654.97 438.432,663.303 436.5,671.5C 435.18,674.812 433.846,678.145 432.5,681.5C 431.335,682.584 430.002,683.417 428.5,684C 421.084,686.002 413.75,686.502 406.5,685.5C 408.5,682.5 410.5,679.5 412.5,676.5C 415.221,673.112 418.221,670.112 421.5,667.5C 427.555,662.582 431.221,656.248 432.5,648.5C 433.345,647.329 434.011,645.995 434.5,644.5C 435.404,643.791 435.737,642.791 435.5,641.5C 436.5,641.5 437.5,641.5 438.5,641.5C 438.216,643.415 438.549,645.081 439.5,646.5 Z"/></g>
<g><path style="opacity:1" fill="#aea5a2" d="M 439.5,646.5 C 438.549,645.081 438.216,643.415 438.5,641.5C 437.5,641.5 436.5,641.5 435.5,641.5C 435.737,642.791 435.404,643.791 434.5,644.5C 433.737,640.862 435.07,639.362 438.5,640C 439.423,642.041 439.756,644.208 439.5,646.5 Z"/></g>
<g><path style="opacity:1" fill="#c9cac8" d="M 245.5,622.5 C 244.746,633.828 244.58,645.161 245,656.5C 247.08,659.065 248.913,661.732 250.5,664.5C 247.5,662.332 245,659.666 243,656.5C 242.289,647.806 242.456,639.139 243.5,630.5C 244.167,627.833 244.833,625.167 245.5,622.5 Z"/></g>
<g><path style="opacity:1" fill="#c6c6c3" d="M 283.5,640.5 C 282.842,639.602 282.176,638.602 281.5,637.5C 278.701,651.108 279.701,664.441 284.5,677.5C 277.675,664.552 276.175,650.885 280,636.5C 281,635.167 282,635.167 283,636.5C 283.49,637.793 283.657,639.127 283.5,640.5 Z"/></g>
<g><path style="opacity:1" fill="#afb1b1" d="M 252.5,641.5 C 254.253,646.59 256.253,651.59 258.5,656.5C 257.292,655.766 255.959,655.433 254.5,655.5C 253.018,650.985 252.352,646.319 252.5,641.5 Z"/></g>
<g><path style="opacity:1" fill="#bbbbba" d="M 439.5,646.5 C 441.843,652.282 442.01,658.282 440,664.5C 439.272,667.187 438.105,669.52 436.5,671.5C 438.432,663.303 439.432,654.97 439.5,646.5 Z"/></g>
<g><path style="opacity:1" fill="#acadad" d="M 323.5,644.5 C 323.032,650.329 322.365,655.996 321.5,661.5C 321.334,656.821 321.501,652.155 322,647.5C 322.232,646.263 322.732,645.263 323.5,644.5 Z"/></g>
<g><path style="opacity:1" fill="#afb0b0" d="M 432.5,648.5 C 431.221,656.248 427.555,662.582 421.5,667.5C 425.574,661.42 429.241,655.087 432.5,648.5 Z"/></g>
<g><path style="opacity:1" fill="#9fa09e" d="M 258.5,656.5 C 261.241,659.686 263.241,663.353 264.5,667.5C 261,664.682 259,661.015 258.5,656.5 Z"/></g>
<g><path style="opacity:1" fill="#bfc1c1" d="M 352.5,689.5 C 351.817,691.176 350.483,691.843 348.5,691.5C 347.748,688.253 347.248,684.919 347,681.5C 339.58,669.375 335.914,656.042 336,641.5C 335.333,640.833 334.667,640.167 334,639.5C 333.827,635.459 333.327,631.459 332.5,627.5C 331.859,628.993 330.859,629.993 329.5,630.5C 331.443,623.868 333.61,623.868 336,630.5C 337.627,645.041 340.293,659.374 344,673.5C 348.147,678.126 350.98,683.459 352.5,689.5 Z"/></g>
<g><path style="opacity:0.004" fill="#797a7a" d="M 553.5,670.5 C 553.027,671.906 552.027,672.573 550.5,672.5C 550.973,671.094 551.973,670.427 553.5,670.5 Z"/></g>
<g><path style="opacity:0.004" fill="#808181" d="M 545.5,675.5 C 545.027,676.906 544.027,677.573 542.5,677.5C 542.973,676.094 543.973,675.427 545.5,675.5 Z"/></g>
<g><path style="opacity:1" fill="#c1c3c4" d="M 266.5,672.5 C 268.099,674.604 269.932,676.604 272,678.5C 272.475,682.681 270.975,683.514 267.5,681C 265.907,680.051 264.574,678.885 263.5,677.5C 264.967,678.292 266.3,678.292 267.5,677.5C 266.691,675.929 266.357,674.262 266.5,672.5 Z"/></g>
<g><path style="opacity:1" fill="#a1a2a1" d="M 320.5,664.5 C 320.269,672.209 320.602,679.876 321.5,687.5C 319.078,686.308 318.078,684.308 318.5,681.5C 318.969,675.661 319.635,669.994 320.5,664.5 Z"/></g>
<g><path style="opacity:1" fill="#9ea0a0" d="M 412.5,676.5 C 410.5,679.5 408.5,682.5 406.5,685.5C 405.427,684.749 405.26,683.749 406,682.5C 407.406,679.591 409.572,677.591 412.5,676.5 Z"/></g>
<g><path style="opacity:0.004" fill="#808180" d="M 536.5,680.5 C 535.341,682.25 533.674,683.25 531.5,683.5C 532.659,681.75 534.326,680.75 536.5,680.5 Z"/></g>
<g><path style="opacity:1" fill="#d7d1cf" d="M 369.5,641.5 C 368.238,657.841 367.404,674.174 367,690.5C 374.266,691.151 381.432,691.818 388.5,692.5C 381.159,692.666 373.826,692.5 366.5,692C 365.944,691.617 365.611,691.117 365.5,690.5C 365.999,683.51 366.332,676.51 366.5,669.5C 366.637,659.934 367.637,650.601 369.5,641.5 Z"/></g>
<g><path style="opacity:1" fill="#9d9896" d="M 366.5,669.5 C 366.332,676.51 365.999,683.51 365.5,690.5C 364.84,689.036 364.507,687.369 364.5,685.5C 364.875,679.983 365.542,674.649 366.5,669.5 Z"/></g>
<g><path style="opacity:0.004" fill="#8a8c8b" d="M 529.5,684.5 C 524.086,688.54 518.086,691.54 511.5,693.5C 517.182,689.992 523.182,686.992 529.5,684.5 Z"/></g>
<g><path style="opacity:1" fill="#b0aaa8" d="M 396.5,669.5 C 398.272,675.609 399.606,681.942 400.5,688.5C 400.332,690.171 399.665,691.504 398.5,692.5C 397.833,684.833 397.167,677.167 396.5,669.5 Z"/></g>
<g><path style="opacity:1" fill="#a3abaf" d="M 321.5,688.5 C 324.467,688.989 327.133,690.155 329.5,692C 332.817,692.498 336.15,692.665 339.5,692.5C 339.5,692.833 339.5,693.167 339.5,693.5C 335.486,693.666 331.486,693.499 327.5,693C 324.894,692.208 322.894,690.708 321.5,688.5 Z"/></g>
<g><path style="opacity:1" fill="#5e5e5e" d="M 352.5,689.5 C 355.403,691.245 355.07,692.245 351.5,692.5C 347.535,693.274 343.535,693.607 339.5,693.5C 339.5,693.167 339.5,692.833 339.5,692.5C 342.57,692.632 345.57,692.299 348.5,691.5C 350.483,691.843 351.817,691.176 352.5,689.5 Z"/></g>
<g><path style="opacity:0.004" fill="#828383" d="M 509.5,694.5 C 486.055,705.426 461.722,713.759 436.5,719.5C 433.833,719.5 431.167,719.5 428.5,719.5C 456.178,713.495 483.178,705.162 509.5,694.5 Z"/></g>
</svg>
