%TF.GenerationSoftware,KiCad,Pcbnew,8.0.5*%
%TF.CreationDate,2024-10-23T11:00:24+02:00*%
%TF.ProjectId,Pojet_V-NOM_KiCAD,506f6a65-745f-4562-9d4e-4f4d5f4b6943,rev?*%
%TF.SameCoordinates,Original*%
%TF.FileFunction,Paste,Top*%
%TF.FilePolarity,Positive*%
%FSLAX46Y46*%
G04 Gerber Fmt 4.6, Leading zero omitted, Abs format (unit mm)*
G04 Created by KiCad (PCBNEW 8.0.5) date 2024-10-23 11:00:24*
%MOMM*%
%LPD*%
G01*
G04 APERTURE LIST*
G04 Aperture macros list*
%AMRoundRect*
0 Rectangle with rounded corners*
0 $1 Rounding radius*
0 $2 $3 $4 $5 $6 $7 $8 $9 X,Y pos of 4 corners*
0 Add a 4 corners polygon primitive as box body*
4,1,4,$2,$3,$4,$5,$6,$7,$8,$9,$2,$3,0*
0 Add four circle primitives for the rounded corners*
1,1,$1+$1,$2,$3*
1,1,$1+$1,$4,$5*
1,1,$1+$1,$6,$7*
1,1,$1+$1,$8,$9*
0 Add four rect primitives between the rounded corners*
20,1,$1+$1,$2,$3,$4,$5,0*
20,1,$1+$1,$4,$5,$6,$7,0*
20,1,$1+$1,$6,$7,$8,$9,0*
20,1,$1+$1,$8,$9,$2,$3,0*%
G04 Aperture macros list end*
%ADD10RoundRect,0.157500X-0.157500X-0.175000X0.157500X-0.175000X0.157500X0.175000X-0.157500X0.175000X0*%
%ADD11RoundRect,0.098000X0.098000X0.119000X-0.098000X0.119000X-0.098000X-0.119000X0.098000X-0.119000X0*%
%ADD12RoundRect,0.098000X-0.098000X-0.119000X0.098000X-0.119000X0.098000X0.119000X-0.098000X0.119000X0*%
%ADD13RoundRect,0.094500X-0.129500X0.094500X-0.129500X-0.094500X0.129500X-0.094500X0.129500X0.094500X0*%
%ADD14RoundRect,0.166250X-0.166250X0.201250X-0.166250X-0.201250X0.166250X-0.201250X0.166250X0.201250X0*%
%ADD15R,0.561400X1.053500*%
%ADD16R,2.101200X1.567800*%
%ADD17RoundRect,0.157500X0.175000X-0.157500X0.175000X0.157500X-0.175000X0.157500X-0.175000X-0.157500X0*%
%ADD18RoundRect,0.175000X0.175000X0.332500X-0.175000X0.332500X-0.175000X-0.332500X0.175000X-0.332500X0*%
%ADD19RoundRect,0.157500X0.157500X0.175000X-0.157500X0.175000X-0.157500X-0.175000X0.157500X-0.175000X0*%
%ADD20R,1.053500X0.561400*%
%ADD21R,1.567800X2.101200*%
%ADD22RoundRect,0.087500X0.087500X-0.376250X0.087500X0.376250X-0.087500X0.376250X-0.087500X-0.376250X0*%
%ADD23RoundRect,0.098000X0.119000X-0.098000X0.119000X0.098000X-0.119000X0.098000X-0.119000X-0.098000X0*%
%ADD24RoundRect,0.094500X0.129500X-0.094500X0.129500X0.094500X-0.129500X0.094500X-0.129500X-0.094500X0*%
%ADD25R,1.085000X0.910000*%
%ADD26RoundRect,0.105000X0.105000X-0.358750X0.105000X0.358750X-0.105000X0.358750X-0.105000X-0.358750X0*%
%ADD27R,1.680000X0.518000*%
%ADD28R,0.700000X0.910000*%
%ADD29RoundRect,0.094500X-0.094500X-0.129500X0.094500X-0.129500X0.094500X0.129500X-0.094500X0.129500X0*%
%ADD30RoundRect,0.250000X0.315000X0.315000X-0.315000X0.315000X-0.315000X-0.315000X0.315000X-0.315000X0*%
%ADD31RoundRect,0.043750X0.262500X0.043750X-0.262500X0.043750X-0.262500X-0.043750X0.262500X-0.043750X0*%
%ADD32RoundRect,0.043750X0.043750X0.262500X-0.043750X0.262500X-0.043750X-0.262500X0.043750X-0.262500X0*%
%ADD33RoundRect,0.098000X-0.119000X0.098000X-0.119000X-0.098000X0.119000X-0.098000X0.119000X0.098000X0*%
%ADD34RoundRect,0.103250X-0.103250X-0.120750X0.103250X-0.120750X0.103250X0.120750X-0.103250X0.120750X0*%
%ADD35RoundRect,0.157500X-0.175000X0.157500X-0.175000X-0.157500X0.175000X-0.157500X0.175000X0.157500X0*%
%ADD36RoundRect,0.280000X1.330000X0.279999X-1.330000X0.279999X-1.330000X-0.279999X1.330000X-0.279999X0*%
%ADD37RoundRect,0.105000X0.105000X-0.227500X0.105000X0.227500X-0.105000X0.227500X-0.105000X-0.227500X0*%
%ADD38RoundRect,0.105000X0.227500X-0.105000X0.227500X0.105000X-0.227500X0.105000X-0.227500X-0.105000X0*%
%ADD39RoundRect,0.094500X0.094500X0.129500X-0.094500X0.129500X-0.094500X-0.129500X0.094500X-0.129500X0*%
G04 APERTURE END LIST*
D10*
%TO.C,C902*%
X88425000Y-63575000D03*
X89975000Y-63575000D03*
%TD*%
D11*
%TO.C,C1011*%
X82495000Y-86117500D03*
X81535000Y-86117500D03*
%TD*%
D12*
%TO.C,C4*%
X69720000Y-57850000D03*
X70680000Y-57850000D03*
%TD*%
%TO.C,C2*%
X69150000Y-67680000D03*
X70110000Y-67680000D03*
%TD*%
D13*
%TO.C,R1009*%
X78285000Y-78237500D03*
X78285000Y-79257500D03*
%TD*%
D14*
%TO.C,D1*%
X62800000Y-59925000D03*
X62800000Y-61675000D03*
%TD*%
D15*
%TO.C,U801*%
X47705000Y-67200000D03*
X48975000Y-67200000D03*
X50245000Y-67200000D03*
X51515000Y-67200000D03*
X51515000Y-62205000D03*
X50245000Y-62205000D03*
X48975000Y-62205000D03*
X47705000Y-62205000D03*
D16*
X49610000Y-64702500D03*
%TD*%
D17*
%TO.C,C701*%
X57000000Y-52435000D03*
X57000000Y-50885000D03*
%TD*%
D14*
%TO.C,D2*%
X64800000Y-59725000D03*
X64800000Y-61475000D03*
%TD*%
D18*
%TO.C,C1010*%
X83435000Y-84347500D03*
X81535000Y-84347500D03*
%TD*%
D19*
%TO.C,C801*%
X51975000Y-69100000D03*
X50425000Y-69100000D03*
%TD*%
D20*
%TO.C,U701*%
X58952500Y-48105000D03*
X58952500Y-49375000D03*
X58952500Y-50645000D03*
X58952500Y-51915000D03*
X63947500Y-51915000D03*
X63947500Y-50645000D03*
X63947500Y-49375000D03*
X63947500Y-48105000D03*
D21*
X61450000Y-50010000D03*
%TD*%
D22*
%TO.C,IC1002*%
X81510000Y-82310000D03*
X82160000Y-82310000D03*
X82810000Y-82310000D03*
X83460000Y-82310000D03*
X83460000Y-80035000D03*
X82810000Y-80035000D03*
X82160000Y-80035000D03*
X81510000Y-80035000D03*
%TD*%
D23*
%TO.C,C202*%
X59660000Y-63120000D03*
X59660000Y-62160000D03*
%TD*%
D24*
%TO.C,R1011*%
X84990000Y-79050000D03*
X84990000Y-78030000D03*
%TD*%
D25*
%TO.C,SW501*%
X80525000Y-43000000D03*
X88475000Y-43000000D03*
X80525000Y-47500000D03*
X88475000Y-47500000D03*
%TD*%
D26*
%TO.C,PS901*%
X88400000Y-67925000D03*
X89350000Y-67925000D03*
X90300000Y-67925000D03*
X90300000Y-65650000D03*
X88400000Y-65650000D03*
%TD*%
D24*
%TO.C,R501*%
X76000000Y-43910000D03*
X76000000Y-42890000D03*
%TD*%
%TO.C,R3*%
X65050000Y-58310000D03*
X65050000Y-57290000D03*
%TD*%
D27*
%TO.C,J1*%
X94900000Y-60620000D03*
X91000000Y-60620000D03*
X94900000Y-59350000D03*
X91000000Y-59350000D03*
X94900000Y-58080000D03*
X91000000Y-58080000D03*
X94900000Y-56810000D03*
X91000000Y-56810000D03*
X94900000Y-55540000D03*
X91000000Y-55540000D03*
X94900000Y-54270000D03*
X91000000Y-54270000D03*
X94900000Y-53000000D03*
X91000000Y-53000000D03*
%TD*%
D28*
%TO.C,Y1*%
X71450000Y-65950000D03*
X71450000Y-68150000D03*
X73250000Y-68150000D03*
X73250000Y-65950000D03*
%TD*%
D29*
%TO.C,R1012*%
X78825000Y-83947500D03*
X79845000Y-83947500D03*
%TD*%
D12*
%TO.C,C1014*%
X82155000Y-77797500D03*
X83115000Y-77797500D03*
%TD*%
D30*
%TO.C,U1*%
X64300000Y-70400000D03*
X64300000Y-69000000D03*
X64300000Y-67600000D03*
X64300000Y-66200000D03*
X62900000Y-70400000D03*
X62900000Y-69000000D03*
X62900000Y-67600000D03*
X62900000Y-66200000D03*
X61500000Y-70400000D03*
X61500000Y-69000000D03*
X61500000Y-67600000D03*
X61500000Y-66200000D03*
X60100000Y-70400000D03*
X60100000Y-69000000D03*
X60100000Y-67600000D03*
X60100000Y-66200000D03*
D31*
X65637500Y-71050000D03*
X65637500Y-70550000D03*
X65637500Y-70050000D03*
X65637500Y-69550000D03*
X65637500Y-69050000D03*
X65637500Y-68550000D03*
X65637500Y-68050000D03*
X65637500Y-67550000D03*
X65637500Y-67050000D03*
X65637500Y-66550000D03*
X65637500Y-66050000D03*
X65637500Y-65550000D03*
D32*
X64950000Y-64862500D03*
X64450000Y-64862500D03*
X63950000Y-64862500D03*
X63450000Y-64862500D03*
X62950000Y-64862500D03*
X62450000Y-64862500D03*
X61950000Y-64862500D03*
X61450000Y-64862500D03*
X60950000Y-64862500D03*
X60450000Y-64862500D03*
X59950000Y-64862500D03*
X59450000Y-64862500D03*
D31*
X58762500Y-65550000D03*
X58762500Y-66050000D03*
X58762500Y-66550000D03*
X58762500Y-67050000D03*
X58762500Y-67550000D03*
X58762500Y-68050000D03*
X58762500Y-68550000D03*
X58762500Y-69050000D03*
X58762500Y-69550000D03*
X58762500Y-70050000D03*
X58762500Y-70550000D03*
X58762500Y-71050000D03*
D32*
X59450000Y-71737500D03*
X59950000Y-71737500D03*
X60450000Y-71737500D03*
X60950000Y-71737500D03*
X61450000Y-71737500D03*
X61950000Y-71737500D03*
X62450000Y-71737500D03*
X62950000Y-71737500D03*
X63450000Y-71737500D03*
X63950000Y-71737500D03*
X64450000Y-71737500D03*
X64950000Y-71737500D03*
%TD*%
D13*
%TO.C,R1008*%
X81635000Y-75287500D03*
X81635000Y-76307500D03*
%TD*%
D33*
%TO.C,C502*%
X77700000Y-42920000D03*
X77700000Y-43880000D03*
%TD*%
%TO.C,C5*%
X57300000Y-70980000D03*
X57300000Y-71940000D03*
%TD*%
D24*
%TO.C,R502*%
X53900000Y-84710000D03*
X53900000Y-83690000D03*
%TD*%
D10*
%TO.C,C802*%
X47325000Y-69100000D03*
X48875000Y-69100000D03*
%TD*%
D34*
%TO.C,L1*%
X59765000Y-60600000D03*
X60735000Y-60600000D03*
%TD*%
D35*
%TO.C,C702*%
X57000000Y-47785000D03*
X57000000Y-49335000D03*
%TD*%
D10*
%TO.C,C901*%
X88425000Y-70075000D03*
X89975000Y-70075000D03*
%TD*%
D18*
%TO.C,C1009*%
X86940000Y-89210000D03*
X85040000Y-89210000D03*
%TD*%
D36*
%TO.C,L1002*%
X88705000Y-83687500D03*
X88705000Y-79787500D03*
%TD*%
D37*
%TO.C,U2*%
X69800000Y-56300000D03*
X70600000Y-56300000D03*
X71400000Y-56300000D03*
X72200000Y-56300000D03*
X73000000Y-56300000D03*
X73800000Y-56300000D03*
D38*
X73800000Y-55300000D03*
D37*
X73800000Y-54300000D03*
X73000000Y-54300000D03*
X72200000Y-54300000D03*
X71400000Y-54300000D03*
X70600000Y-54300000D03*
X69800000Y-54300000D03*
D38*
X69800000Y-55300000D03*
%TD*%
D12*
%TO.C,C7*%
X64980000Y-73540000D03*
X65940000Y-73540000D03*
%TD*%
D13*
%TO.C,R1007*%
X79835000Y-78247500D03*
X79835000Y-79267500D03*
%TD*%
D23*
%TO.C,C1*%
X73100000Y-70530000D03*
X73100000Y-69570000D03*
%TD*%
D18*
%TO.C,C1012*%
X86985000Y-86447500D03*
X85085000Y-86447500D03*
%TD*%
D12*
%TO.C,C203*%
X67170000Y-67675000D03*
X68130000Y-67675000D03*
%TD*%
%TO.C,C1013*%
X86220000Y-77910000D03*
X87180000Y-77910000D03*
%TD*%
D25*
%TO.C,SW502*%
X51975000Y-83650000D03*
X44025000Y-83650000D03*
X51975000Y-79150000D03*
X44025000Y-79150000D03*
%TD*%
D39*
%TO.C,R1010*%
X79985000Y-82297500D03*
X78965000Y-82297500D03*
%TD*%
D19*
%TO.C,C3*%
X73775000Y-58050000D03*
X72225000Y-58050000D03*
%TD*%
D24*
%TO.C,R2*%
X62550000Y-58300000D03*
X62550000Y-57280000D03*
%TD*%
D23*
%TO.C,C501*%
X53900000Y-82760000D03*
X53900000Y-81800000D03*
%TD*%
D33*
%TO.C,C6*%
X67350000Y-71620000D03*
X67350000Y-72580000D03*
%TD*%
%TO.C,C1008*%
X79785000Y-75317500D03*
X79785000Y-76277500D03*
%TD*%
D39*
%TO.C,R1*%
X70130000Y-68690000D03*
X69110000Y-68690000D03*
%TD*%
D23*
%TO.C,C201*%
X60750000Y-63130000D03*
X60750000Y-62170000D03*
%TD*%
D19*
%TO.C,C8*%
X68925000Y-73950000D03*
X67375000Y-73950000D03*
%TD*%
M02*
