%TF.GenerationSoftware,KiCad,Pcbnew,8.0.5*%
%TF.CreationDate,2024-10-23T10:25:23+02:00*%
%TF.ProjectId,Pojet_V-NOM_KiCAD,506f6a65-745f-4562-9d4e-4f4d5f4b6943,rev?*%
%TF.SameCoordinates,Original*%
%TF.FileFunction,Soldermask,Top*%
%TF.FilePolarity,Negative*%
%FSLAX46Y46*%
G04 Gerber Fmt 4.6, Leading zero omitted, Abs format (unit mm)*
G04 Created by KiCad (PCBNEW 8.0.5) date 2024-10-23 10:25:23*
%MOMM*%
%LPD*%
G01*
G04 APERTURE LIST*
G04 Aperture macros list*
%AMRoundRect*
0 Rectangle with rounded corners*
0 $1 Rounding radius*
0 $2 $3 $4 $5 $6 $7 $8 $9 X,Y pos of 4 corners*
0 Add a 4 corners polygon primitive as box body*
4,1,4,$2,$3,$4,$5,$6,$7,$8,$9,$2,$3,0*
0 Add four circle primitives for the rounded corners*
1,1,$1+$1,$2,$3*
1,1,$1+$1,$4,$5*
1,1,$1+$1,$6,$7*
1,1,$1+$1,$8,$9*
0 Add four rect primitives between the rounded corners*
20,1,$1+$1,$2,$3,$4,$5,0*
20,1,$1+$1,$4,$5,$6,$7,0*
20,1,$1+$1,$6,$7,$8,$9,0*
20,1,$1+$1,$8,$9,$2,$3,0*%
G04 Aperture macros list end*
%ADD10RoundRect,0.225000X-0.225000X-0.250000X0.225000X-0.250000X0.225000X0.250000X-0.225000X0.250000X0*%
%ADD11RoundRect,0.140000X0.140000X0.170000X-0.140000X0.170000X-0.140000X-0.170000X0.140000X-0.170000X0*%
%ADD12RoundRect,0.140000X-0.140000X-0.170000X0.140000X-0.170000X0.140000X0.170000X-0.140000X0.170000X0*%
%ADD13RoundRect,0.135000X-0.185000X0.135000X-0.185000X-0.135000X0.185000X-0.135000X0.185000X0.135000X0*%
%ADD14C,1.500000*%
%ADD15RoundRect,0.237500X-0.237500X0.287500X-0.237500X-0.287500X0.237500X-0.287500X0.237500X0.287500X0*%
%ADD16R,0.802000X1.505000*%
%ADD17R,3.502000X2.613000*%
%ADD18RoundRect,0.225000X0.250000X-0.225000X0.250000X0.225000X-0.250000X0.225000X-0.250000X-0.225000X0*%
%ADD19RoundRect,0.250000X0.725000X-0.600000X0.725000X0.600000X-0.725000X0.600000X-0.725000X-0.600000X0*%
%ADD20O,1.950000X1.700000*%
%ADD21RoundRect,0.250000X0.250000X0.475000X-0.250000X0.475000X-0.250000X-0.475000X0.250000X-0.475000X0*%
%ADD22RoundRect,0.225000X0.225000X0.250000X-0.225000X0.250000X-0.225000X-0.250000X0.225000X-0.250000X0*%
%ADD23R,1.505000X0.802000*%
%ADD24R,2.613000X3.502000*%
%ADD25RoundRect,0.125000X0.125000X-0.537500X0.125000X0.537500X-0.125000X0.537500X-0.125000X-0.537500X0*%
%ADD26RoundRect,0.140000X0.170000X-0.140000X0.170000X0.140000X-0.170000X0.140000X-0.170000X-0.140000X0*%
%ADD27RoundRect,0.135000X0.185000X-0.135000X0.185000X0.135000X-0.185000X0.135000X-0.185000X-0.135000X0*%
%ADD28R,1.550000X1.300000*%
%ADD29RoundRect,0.150000X0.150000X-0.512500X0.150000X0.512500X-0.150000X0.512500X-0.150000X-0.512500X0*%
%ADD30RoundRect,0.250000X-0.600000X-0.725000X0.600000X-0.725000X0.600000X0.725000X-0.600000X0.725000X0*%
%ADD31O,1.700000X1.950000*%
%ADD32R,2.400000X0.740000*%
%ADD33R,1.000000X1.300000*%
%ADD34C,0.800000*%
%ADD35C,6.400000*%
%ADD36RoundRect,0.135000X-0.135000X-0.185000X0.135000X-0.185000X0.135000X0.185000X-0.135000X0.185000X0*%
%ADD37RoundRect,0.062500X0.375000X0.062500X-0.375000X0.062500X-0.375000X-0.062500X0.375000X-0.062500X0*%
%ADD38RoundRect,0.062500X0.062500X0.375000X-0.062500X0.375000X-0.062500X-0.375000X0.062500X-0.375000X0*%
%ADD39R,5.600000X5.600000*%
%ADD40RoundRect,0.250000X-0.600000X-0.750000X0.600000X-0.750000X0.600000X0.750000X-0.600000X0.750000X0*%
%ADD41O,1.700000X2.000000*%
%ADD42RoundRect,0.140000X-0.170000X0.140000X-0.170000X-0.140000X0.170000X-0.140000X0.170000X0.140000X0*%
%ADD43RoundRect,0.147500X-0.147500X-0.172500X0.147500X-0.172500X0.147500X0.172500X-0.147500X0.172500X0*%
%ADD44RoundRect,0.225000X-0.250000X0.225000X-0.250000X-0.225000X0.250000X-0.225000X0.250000X0.225000X0*%
%ADD45RoundRect,0.400000X1.900000X0.399999X-1.900000X0.399999X-1.900000X-0.399999X1.900000X-0.399999X0*%
%ADD46RoundRect,0.250000X0.600000X0.725000X-0.600000X0.725000X-0.600000X-0.725000X0.600000X-0.725000X0*%
%ADD47RoundRect,0.150000X0.150000X-0.325000X0.150000X0.325000X-0.150000X0.325000X-0.150000X-0.325000X0*%
%ADD48RoundRect,0.150000X0.325000X-0.150000X0.325000X0.150000X-0.325000X0.150000X-0.325000X-0.150000X0*%
%ADD49RoundRect,0.135000X0.135000X0.185000X-0.135000X0.185000X-0.135000X-0.185000X0.135000X-0.185000X0*%
%ADD50RoundRect,0.250000X-0.725000X0.600000X-0.725000X-0.600000X0.725000X-0.600000X0.725000X0.600000X0*%
G04 APERTURE END LIST*
D10*
%TO.C,C902*%
X88425000Y-63575000D03*
X89975000Y-63575000D03*
%TD*%
D11*
%TO.C,C1011*%
X82495000Y-86117500D03*
X81535000Y-86117500D03*
%TD*%
D12*
%TO.C,C4*%
X69720000Y-57850000D03*
X70680000Y-57850000D03*
%TD*%
%TO.C,C2*%
X69150000Y-67680000D03*
X70110000Y-67680000D03*
%TD*%
D13*
%TO.C,R1009*%
X78285000Y-78237500D03*
X78285000Y-79257500D03*
%TD*%
D14*
%TO.C,TP611*%
X67550000Y-56400000D03*
%TD*%
D15*
%TO.C,D1*%
X62800000Y-59925000D03*
X62800000Y-61675000D03*
%TD*%
D16*
%TO.C,U801*%
X47705000Y-67200000D03*
X48975000Y-67200000D03*
X50245000Y-67200000D03*
X51515000Y-67200000D03*
X51515000Y-62205000D03*
X50245000Y-62205000D03*
X48975000Y-62205000D03*
X47705000Y-62205000D03*
D17*
X49610000Y-64702500D03*
%TD*%
D18*
%TO.C,C701*%
X57000000Y-52435000D03*
X57000000Y-50885000D03*
%TD*%
D15*
%TO.C,D2*%
X64800000Y-59725000D03*
X64800000Y-61475000D03*
%TD*%
D19*
%TO.C,J3*%
X95680000Y-84870000D03*
D20*
X95680000Y-82370000D03*
X95680000Y-79870000D03*
X95680000Y-77370000D03*
X95680000Y-74870000D03*
X95680000Y-72370000D03*
X95680000Y-69870000D03*
X95680000Y-67370000D03*
%TD*%
D21*
%TO.C,C1010*%
X83435000Y-84347500D03*
X81535000Y-84347500D03*
%TD*%
D14*
%TO.C,TP1003*%
X76835000Y-82297500D03*
%TD*%
D22*
%TO.C,C801*%
X51975000Y-69100000D03*
X50425000Y-69100000D03*
%TD*%
D14*
%TO.C,TP703*%
X63800000Y-53970000D03*
%TD*%
D23*
%TO.C,U701*%
X58952500Y-48105000D03*
X58952500Y-49375000D03*
X58952500Y-50645000D03*
X58952500Y-51915000D03*
X63947500Y-51915000D03*
X63947500Y-50645000D03*
X63947500Y-49375000D03*
X63947500Y-48105000D03*
D24*
X61450000Y-50010000D03*
%TD*%
D25*
%TO.C,IC1002*%
X81510000Y-82310000D03*
X82160000Y-82310000D03*
X82810000Y-82310000D03*
X83460000Y-82310000D03*
X83460000Y-80035000D03*
X82810000Y-80035000D03*
X82160000Y-80035000D03*
X81510000Y-80035000D03*
%TD*%
D26*
%TO.C,C202*%
X59660000Y-63120000D03*
X59660000Y-62160000D03*
%TD*%
D27*
%TO.C,R1011*%
X84990000Y-79050000D03*
X84990000Y-78030000D03*
%TD*%
D28*
%TO.C,SW501*%
X80525000Y-43000000D03*
X88475000Y-43000000D03*
X80525000Y-47500000D03*
X88475000Y-47500000D03*
%TD*%
D29*
%TO.C,PS901*%
X88400000Y-67925000D03*
X89350000Y-67925000D03*
X90300000Y-67925000D03*
X90300000Y-65650000D03*
X88400000Y-65650000D03*
%TD*%
D27*
%TO.C,R501*%
X76000000Y-43910000D03*
X76000000Y-42890000D03*
%TD*%
%TO.C,R3*%
X65050000Y-58310000D03*
X65050000Y-57290000D03*
%TD*%
D30*
%TO.C,J4*%
X70500000Y-93150000D03*
D31*
X73000000Y-93150000D03*
X75500000Y-93150000D03*
%TD*%
D32*
%TO.C,J1*%
X94900000Y-60620000D03*
X91000000Y-60620000D03*
X94900000Y-59350000D03*
X91000000Y-59350000D03*
X94900000Y-58080000D03*
X91000000Y-58080000D03*
X94900000Y-56810000D03*
X91000000Y-56810000D03*
X94900000Y-55540000D03*
X91000000Y-55540000D03*
X94900000Y-54270000D03*
X91000000Y-54270000D03*
X94900000Y-53000000D03*
X91000000Y-53000000D03*
%TD*%
D33*
%TO.C,Y1*%
X71450000Y-65950000D03*
X71450000Y-68150000D03*
X73250000Y-68150000D03*
X73250000Y-65950000D03*
%TD*%
D34*
%TO.C,H4*%
X91600000Y-45500000D03*
X92302944Y-43802944D03*
X92302944Y-47197056D03*
X94000000Y-43100000D03*
D35*
X94000000Y-45500000D03*
D34*
X94000000Y-47900000D03*
X95697056Y-43802944D03*
X95697056Y-47197056D03*
X96400000Y-45500000D03*
%TD*%
D14*
%TO.C,TP603*%
X70650000Y-52100000D03*
%TD*%
D36*
%TO.C,R1012*%
X78825000Y-83947500D03*
X79845000Y-83947500D03*
%TD*%
D34*
%TO.C,H2*%
X42600000Y-91500000D03*
X43302944Y-89802944D03*
X43302944Y-93197056D03*
X45000000Y-89100000D03*
D35*
X45000000Y-91500000D03*
D34*
X45000000Y-93900000D03*
X46697056Y-89802944D03*
X46697056Y-93197056D03*
X47400000Y-91500000D03*
%TD*%
D12*
%TO.C,C1014*%
X82155000Y-77797500D03*
X83115000Y-77797500D03*
%TD*%
D37*
%TO.C,U1*%
X65637500Y-71050000D03*
X65637500Y-70550000D03*
X65637500Y-70050000D03*
X65637500Y-69550000D03*
X65637500Y-69050000D03*
X65637500Y-68550000D03*
X65637500Y-68050000D03*
X65637500Y-67550000D03*
X65637500Y-67050000D03*
X65637500Y-66550000D03*
X65637500Y-66050000D03*
X65637500Y-65550000D03*
D38*
X64950000Y-64862500D03*
X64450000Y-64862500D03*
X63950000Y-64862500D03*
X63450000Y-64862500D03*
X62950000Y-64862500D03*
X62450000Y-64862500D03*
X61950000Y-64862500D03*
X61450000Y-64862500D03*
X60950000Y-64862500D03*
X60450000Y-64862500D03*
X59950000Y-64862500D03*
X59450000Y-64862500D03*
D37*
X58762500Y-65550000D03*
X58762500Y-66050000D03*
X58762500Y-66550000D03*
X58762500Y-67050000D03*
X58762500Y-67550000D03*
X58762500Y-68050000D03*
X58762500Y-68550000D03*
X58762500Y-69050000D03*
X58762500Y-69550000D03*
X58762500Y-70050000D03*
X58762500Y-70550000D03*
X58762500Y-71050000D03*
D38*
X59450000Y-71737500D03*
X59950000Y-71737500D03*
X60450000Y-71737500D03*
X60950000Y-71737500D03*
X61450000Y-71737500D03*
X61950000Y-71737500D03*
X62450000Y-71737500D03*
X62950000Y-71737500D03*
X63450000Y-71737500D03*
X63950000Y-71737500D03*
X64450000Y-71737500D03*
X64950000Y-71737500D03*
D39*
X62200000Y-68300000D03*
%TD*%
D13*
%TO.C,R1008*%
X81635000Y-75287500D03*
X81635000Y-76307500D03*
%TD*%
D40*
%TO.C,BT1*%
X52750000Y-93150000D03*
D41*
X55250000Y-93150000D03*
%TD*%
D14*
%TO.C,TP604*%
X67150000Y-52150000D03*
%TD*%
%TO.C,TP804*%
X53552500Y-67200000D03*
%TD*%
%TO.C,TP803*%
X51570000Y-59400000D03*
%TD*%
%TO.C,TP901*%
X85860000Y-63620000D03*
%TD*%
%TO.C,TP504*%
X87250000Y-52750000D03*
%TD*%
%TO.C,TP505*%
X89750000Y-50500000D03*
%TD*%
D42*
%TO.C,C502*%
X77700000Y-42920000D03*
X77700000Y-43880000D03*
%TD*%
D40*
%TO.C,J6*%
X61700000Y-93100000D03*
D41*
X64200000Y-93100000D03*
%TD*%
D42*
%TO.C,C5*%
X57300000Y-70980000D03*
X57300000Y-71940000D03*
%TD*%
D27*
%TO.C,R502*%
X53900000Y-84710000D03*
X53900000Y-83690000D03*
%TD*%
D10*
%TO.C,C802*%
X47325000Y-69100000D03*
X48875000Y-69100000D03*
%TD*%
D34*
%TO.C,H3*%
X91600000Y-91500000D03*
X92302944Y-89802944D03*
X92302944Y-93197056D03*
X94000000Y-89100000D03*
D35*
X94000000Y-91500000D03*
D34*
X94000000Y-93900000D03*
X95697056Y-89802944D03*
X95697056Y-93197056D03*
X96400000Y-91500000D03*
%TD*%
D43*
%TO.C,L1*%
X59765000Y-60600000D03*
X60735000Y-60600000D03*
%TD*%
D44*
%TO.C,C702*%
X57000000Y-47785000D03*
X57000000Y-49335000D03*
%TD*%
D10*
%TO.C,C901*%
X88425000Y-70075000D03*
X89975000Y-70075000D03*
%TD*%
D21*
%TO.C,C1009*%
X86940000Y-89210000D03*
X85040000Y-89210000D03*
%TD*%
D45*
%TO.C,L1002*%
X88705000Y-83687500D03*
X88705000Y-79787500D03*
%TD*%
D46*
%TO.C,J301*%
X71290000Y-43940000D03*
D31*
X68790000Y-43940000D03*
X66290000Y-43940000D03*
X63790000Y-43940000D03*
X61290000Y-43940000D03*
X58790000Y-43940000D03*
%TD*%
D14*
%TO.C,TP1002*%
X79465000Y-86127500D03*
%TD*%
D47*
%TO.C,U2*%
X69800000Y-56300000D03*
X70600000Y-56300000D03*
X71400000Y-56300000D03*
X72200000Y-56300000D03*
X73000000Y-56300000D03*
X73800000Y-56300000D03*
D48*
X73800000Y-55300000D03*
D47*
X73800000Y-54300000D03*
X73000000Y-54300000D03*
X72200000Y-54300000D03*
X71400000Y-54300000D03*
X70600000Y-54300000D03*
X69800000Y-54300000D03*
D48*
X69800000Y-55300000D03*
%TD*%
D14*
%TO.C,TP704*%
X58880000Y-54460000D03*
%TD*%
%TO.C,TP1001*%
X77645000Y-75287500D03*
%TD*%
D30*
%TO.C,J5*%
X81500000Y-93150000D03*
D31*
X84000000Y-93150000D03*
X86500000Y-93150000D03*
%TD*%
D12*
%TO.C,C7*%
X64980000Y-73540000D03*
X65940000Y-73540000D03*
%TD*%
D13*
%TO.C,R1007*%
X79835000Y-78247500D03*
X79835000Y-79267500D03*
%TD*%
D26*
%TO.C,C1*%
X73100000Y-70530000D03*
X73100000Y-69570000D03*
%TD*%
D21*
%TO.C,C1012*%
X86985000Y-86447500D03*
X85085000Y-86447500D03*
%TD*%
D12*
%TO.C,C203*%
X67170000Y-67675000D03*
X68130000Y-67675000D03*
%TD*%
%TO.C,C1013*%
X86220000Y-77910000D03*
X87180000Y-77910000D03*
%TD*%
D28*
%TO.C,SW502*%
X51975000Y-83650000D03*
X44025000Y-83650000D03*
X51975000Y-79150000D03*
X44025000Y-79150000D03*
%TD*%
D49*
%TO.C,R1010*%
X79985000Y-82297500D03*
X78965000Y-82297500D03*
%TD*%
D22*
%TO.C,C3*%
X73775000Y-58050000D03*
X72225000Y-58050000D03*
%TD*%
D50*
%TO.C,J302*%
X43510000Y-59000000D03*
D20*
X43510000Y-61500000D03*
X43510000Y-64000000D03*
X43510000Y-66500000D03*
X43510000Y-69000000D03*
X43510000Y-71500000D03*
%TD*%
D27*
%TO.C,R2*%
X62550000Y-58300000D03*
X62550000Y-57280000D03*
%TD*%
D34*
%TO.C,H1*%
X42600000Y-45500000D03*
X43302944Y-43802944D03*
X43302944Y-47197056D03*
X45000000Y-43100000D03*
D35*
X45000000Y-45500000D03*
D34*
X45000000Y-47900000D03*
X46697056Y-43802944D03*
X46697056Y-47197056D03*
X47400000Y-45500000D03*
%TD*%
D26*
%TO.C,C501*%
X53900000Y-82760000D03*
X53900000Y-81800000D03*
%TD*%
D42*
%TO.C,C6*%
X67350000Y-71620000D03*
X67350000Y-72580000D03*
%TD*%
%TO.C,C1008*%
X79785000Y-75317500D03*
X79785000Y-76277500D03*
%TD*%
D49*
%TO.C,R1*%
X70130000Y-68690000D03*
X69110000Y-68690000D03*
%TD*%
D14*
%TO.C,TP612*%
X75880000Y-55310000D03*
%TD*%
D26*
%TO.C,C201*%
X60750000Y-63130000D03*
X60750000Y-62170000D03*
%TD*%
D22*
%TO.C,C8*%
X68925000Y-73950000D03*
X67375000Y-73950000D03*
%TD*%
M02*
