%TF.GenerationSoftware,KiCad,Pcbnew,8.0.5*%
%TF.CreationDate,2024-10-23T09:04:43+02:00*%
%TF.ProjectId,Pojet_V-NOM_KiCAD,506f6a65-745f-4562-9d4e-4f4d5f4b6943,rev?*%
%TF.SameCoordinates,Original*%
%TF.FileFunction,Copper,L2,Inr*%
%TF.FilePolarity,Positive*%
%FSLAX46Y46*%
G04 Gerber Fmt 4.6, Leading zero omitted, Abs format (unit mm)*
G04 Created by KiCad (PCBNEW 8.0.5) date 2024-10-23 09:04:43*
%MOMM*%
%LPD*%
G01*
G04 APERTURE LIST*
G04 Aperture macros list*
%AMRoundRect*
0 Rectangle with rounded corners*
0 $1 Rounding radius*
0 $2 $3 $4 $5 $6 $7 $8 $9 X,Y pos of 4 corners*
0 Add a 4 corners polygon primitive as box body*
4,1,4,$2,$3,$4,$5,$6,$7,$8,$9,$2,$3,0*
0 Add four circle primitives for the rounded corners*
1,1,$1+$1,$2,$3*
1,1,$1+$1,$4,$5*
1,1,$1+$1,$6,$7*
1,1,$1+$1,$8,$9*
0 Add four rect primitives between the rounded corners*
20,1,$1+$1,$2,$3,$4,$5,0*
20,1,$1+$1,$4,$5,$6,$7,0*
20,1,$1+$1,$6,$7,$8,$9,0*
20,1,$1+$1,$8,$9,$2,$3,0*%
G04 Aperture macros list end*
%TA.AperFunction,ComponentPad*%
%ADD10RoundRect,0.250000X0.725000X-0.600000X0.725000X0.600000X-0.725000X0.600000X-0.725000X-0.600000X0*%
%TD*%
%TA.AperFunction,ComponentPad*%
%ADD11O,1.950000X1.700000*%
%TD*%
%TA.AperFunction,ComponentPad*%
%ADD12RoundRect,0.250000X-0.600000X-0.725000X0.600000X-0.725000X0.600000X0.725000X-0.600000X0.725000X0*%
%TD*%
%TA.AperFunction,ComponentPad*%
%ADD13O,1.700000X1.950000*%
%TD*%
%TA.AperFunction,ComponentPad*%
%ADD14C,0.800000*%
%TD*%
%TA.AperFunction,ComponentPad*%
%ADD15C,6.400000*%
%TD*%
%TA.AperFunction,ComponentPad*%
%ADD16RoundRect,0.250000X-0.600000X-0.750000X0.600000X-0.750000X0.600000X0.750000X-0.600000X0.750000X0*%
%TD*%
%TA.AperFunction,ComponentPad*%
%ADD17O,1.700000X2.000000*%
%TD*%
%TA.AperFunction,ComponentPad*%
%ADD18RoundRect,0.250000X0.600000X0.725000X-0.600000X0.725000X-0.600000X-0.725000X0.600000X-0.725000X0*%
%TD*%
%TA.AperFunction,ComponentPad*%
%ADD19RoundRect,0.250000X-0.725000X0.600000X-0.725000X-0.600000X0.725000X-0.600000X0.725000X0.600000X0*%
%TD*%
%TA.AperFunction,ViaPad*%
%ADD20C,0.450000*%
%TD*%
G04 APERTURE END LIST*
D10*
%TO.N,+5V*%
%TO.C,J3*%
X95680000Y-84870000D03*
D11*
%TO.N,/acquisition/TX_LIDAR*%
X95680000Y-82370000D03*
%TO.N,/acquisition/RX_LIDAR*%
X95680000Y-79870000D03*
%TO.N,GND*%
X95680000Y-77370000D03*
%TO.N,/acquisition/EN_MOT*%
X95680000Y-74870000D03*
%TO.N,/acquisition/EN_LIDAR*%
X95680000Y-72370000D03*
%TO.N,/acquisition/VIT_MOT_LIDAR*%
X95680000Y-69870000D03*
%TO.N,unconnected-(J3-Pin_8-Pad8)*%
X95680000Y-67370000D03*
%TD*%
D12*
%TO.N,/acquisition/TOF1*%
%TO.C,J4*%
X70500000Y-93150000D03*
D13*
%TO.N,GND*%
X73000000Y-93150000D03*
%TO.N,+5V*%
X75500000Y-93150000D03*
%TD*%
D14*
%TO.N,GND*%
%TO.C,H4*%
X91600000Y-45500000D03*
X92302944Y-43802944D03*
X92302944Y-47197056D03*
X94000000Y-43100000D03*
D15*
X94000000Y-45500000D03*
D14*
X94000000Y-47900000D03*
X95697056Y-43802944D03*
X95697056Y-47197056D03*
X96400000Y-45500000D03*
%TD*%
%TO.N,GND*%
%TO.C,H2*%
X42600000Y-91500000D03*
X43302944Y-89802944D03*
X43302944Y-93197056D03*
X45000000Y-89100000D03*
D15*
X45000000Y-91500000D03*
D14*
X45000000Y-93900000D03*
X46697056Y-89802944D03*
X46697056Y-93197056D03*
X47400000Y-91500000D03*
%TD*%
D16*
%TO.N,Net-(BT1-+)*%
%TO.C,BT1*%
X52750000Y-93150000D03*
D17*
%TO.N,GND*%
X55250000Y-93150000D03*
%TD*%
D16*
%TO.N,Net-(BT1-+)*%
%TO.C,J6*%
X61700000Y-93100000D03*
D17*
%TO.N,+BATT*%
X64200000Y-93100000D03*
%TD*%
D14*
%TO.N,GND*%
%TO.C,H3*%
X91600000Y-91500000D03*
X92302944Y-89802944D03*
X92302944Y-93197056D03*
X94000000Y-89100000D03*
D15*
X94000000Y-91500000D03*
D14*
X94000000Y-93900000D03*
X95697056Y-89802944D03*
X95697056Y-93197056D03*
X96400000Y-91500000D03*
%TD*%
D18*
%TO.N,/Deplacement/Driver_Motor1/OUT2*%
%TO.C,J301*%
X71290000Y-43940000D03*
D13*
%TO.N,GND*%
X68790000Y-43940000D03*
%TO.N,/Deplacement/Encoder B phase 1*%
X66290000Y-43940000D03*
%TO.N,/Deplacement/Encoder A phase 1*%
X63790000Y-43940000D03*
%TO.N,+3.3V*%
X61290000Y-43940000D03*
%TO.N,/Deplacement/Driver_Motor1/OUT1*%
X58790000Y-43940000D03*
%TD*%
D12*
%TO.N,/acquisition/TOF2*%
%TO.C,J5*%
X81500000Y-93150000D03*
D13*
%TO.N,GND*%
X84000000Y-93150000D03*
%TO.N,+5V*%
X86500000Y-93150000D03*
%TD*%
D19*
%TO.N,/Deplacement/Driver_Motor2/OUT2*%
%TO.C,J302*%
X43510000Y-59000000D03*
D11*
%TO.N,GND*%
X43510000Y-61500000D03*
%TO.N,/Deplacement/Encoder B phase 2*%
X43510000Y-64000000D03*
%TO.N,/Deplacement/Encoder A phase 2*%
X43510000Y-66500000D03*
%TO.N,+3.3V*%
X43510000Y-69000000D03*
%TO.N,/Deplacement/Driver_Motor2/OUT1*%
X43510000Y-71500000D03*
%TD*%
D14*
%TO.N,GND*%
%TO.C,H1*%
X42600000Y-45500000D03*
X43302944Y-43802944D03*
X43302944Y-47197056D03*
X45000000Y-43100000D03*
D15*
X45000000Y-45500000D03*
D14*
X45000000Y-47900000D03*
X46697056Y-43802944D03*
X46697056Y-47197056D03*
X47400000Y-45500000D03*
%TD*%
D20*
%TO.N,GND*%
X72200000Y-57200000D03*
X47277500Y-70760000D03*
X73200000Y-65050000D03*
X62200000Y-69700000D03*
X96460000Y-56810000D03*
X52000000Y-77400000D03*
X51110000Y-65700000D03*
X53900000Y-81030000D03*
X62450000Y-50010000D03*
X65940000Y-74270000D03*
X56650000Y-71940000D03*
X61450000Y-51410000D03*
X67350000Y-73100000D03*
X48110000Y-64700000D03*
X82495000Y-87207500D03*
X89350000Y-69050000D03*
X51110000Y-63700000D03*
X47702500Y-60900000D03*
X77700000Y-44650000D03*
X60450000Y-50010000D03*
X60450000Y-48610000D03*
X62200000Y-66900000D03*
X83690000Y-89210000D03*
X42350000Y-79150000D03*
X49610000Y-65700000D03*
X63600000Y-66900000D03*
X65000000Y-56800000D03*
X90000000Y-62550000D03*
X70600000Y-57150000D03*
X63600000Y-68300000D03*
X60800000Y-68300000D03*
X96420000Y-58080000D03*
X72400000Y-70600000D03*
X62450000Y-48610000D03*
X56075000Y-52285000D03*
X85070000Y-85160000D03*
X56050000Y-47710000D03*
X77385000Y-79247500D03*
X96450000Y-54270000D03*
X60450000Y-51410000D03*
X62450000Y-51410000D03*
X83085000Y-76897500D03*
X79150000Y-47400000D03*
X52920000Y-69100000D03*
X60750000Y-61580000D03*
X91000000Y-70100000D03*
X59660000Y-61560000D03*
X48110000Y-63700000D03*
X61450000Y-48610000D03*
X60800000Y-66900000D03*
X65250000Y-48110000D03*
X51110000Y-64700000D03*
X88500000Y-48600000D03*
X60800000Y-69700000D03*
X48110000Y-65700000D03*
X62550000Y-56800000D03*
X49610000Y-63700000D03*
X72150000Y-68900000D03*
X68600000Y-67675000D03*
X63600000Y-69700000D03*
X84735000Y-84347500D03*
X62200000Y-68300000D03*
X84585000Y-82297500D03*
%TO.N,+3.3V*%
X61450000Y-63790000D03*
X76000000Y-44650000D03*
X64975000Y-72710000D03*
X56450000Y-70980000D03*
X66440000Y-71120000D03*
X59650000Y-63770000D03*
X54760000Y-84710000D03*
X69800000Y-57250000D03*
X59765000Y-60050000D03*
X96590000Y-59350000D03*
X73800000Y-57280000D03*
X57891644Y-70608771D03*
X88400000Y-64600000D03*
%TO.N,+BATT*%
X65240000Y-50640000D03*
X50400000Y-68300000D03*
X82150000Y-83400000D03*
X48975000Y-68300000D03*
X80700000Y-86117500D03*
X80600000Y-83947500D03*
X50250000Y-60840000D03*
X81535000Y-85400000D03*
X57800000Y-49375000D03*
X57900000Y-50735000D03*
%TO.N,+5V*%
X80795000Y-75297500D03*
X82575000Y-75277500D03*
X75955000Y-75287500D03*
X88400000Y-69000000D03*
X88705000Y-84800000D03*
X87600000Y-84800000D03*
X90300000Y-69000000D03*
X88000000Y-89100000D03*
X89800000Y-84800000D03*
%TO.N,Net-(IC1002-VCC)*%
X75430000Y-82297500D03*
X80550000Y-77830000D03*
%TO.N,Net-(IC1002-EN{slash}SYNC)*%
X77930000Y-83940000D03*
X82785000Y-78597500D03*
%TO.N,/controle/SWCLK*%
X58980000Y-76180000D03*
X78650000Y-68800000D03*
%TO.N,/controle/VCP_RX*%
X82050000Y-60850000D03*
X63717500Y-73322500D03*
%TO.N,/controle/NRST*%
X87800000Y-54300000D03*
X69500000Y-65100000D03*
%TO.N,/controle/SWDIO*%
X89000000Y-59410000D03*
X58800000Y-71980000D03*
%TO.N,/controle/VCP_TX*%
X63820000Y-74490000D03*
X83031091Y-60021091D03*
%TO.N,/acquisition/EN_MOT*%
X61000000Y-75150000D03*
X63674805Y-75123578D03*
X63723924Y-77773894D03*
X79125000Y-74195000D03*
%TO.N,/acquisition/EN_LIDAR*%
X63173924Y-77240070D03*
X60450000Y-75700000D03*
X79360000Y-72450000D03*
X63173924Y-75700000D03*
%TO.N,/acquisition/VIT_MOT_LIDAR*%
X55960000Y-68740000D03*
X82600000Y-71552182D03*
%TO.N,/acquisition/RX_LIDAR*%
X61450000Y-79300000D03*
X90020000Y-86080000D03*
%TO.N,/acquisition/TX_LIDAR*%
X59600000Y-79070000D03*
%TO.N,/Deplacement/Encoder B phase 1*%
X56510000Y-69450000D03*
%TO.N,/Deplacement/Encoder A phase 1*%
X60405134Y-80832952D03*
%TO.N,/Deplacement/Encoder A phase 2*%
X60478768Y-81478768D03*
%TO.N,/Deplacement/Encoder B phase 2*%
X54850000Y-70050000D03*
%TO.N,/controle/BTN_START*%
X77575000Y-62475000D03*
X66855330Y-70620000D03*
%TO.N,/acquisition/AG_MISO*%
X69070000Y-52520000D03*
X68100000Y-53700000D03*
%TO.N,/acquisition/AG_CSN*%
X68300000Y-60200000D03*
X64650000Y-62500000D03*
%TO.N,/Deplacement/FWD1*%
X54440000Y-65040000D03*
X54450000Y-62530000D03*
%TO.N,/acquisition/AG_INT1*%
X78775000Y-56050000D03*
X77427500Y-54702500D03*
%TD*%
%TA.AperFunction,Conductor*%
%TO.N,GND*%
G36*
X92748006Y-42020185D02*
G01*
X92793761Y-42072989D01*
X92803705Y-42142147D01*
X92774680Y-42205703D01*
X92725405Y-42240264D01*
X92574464Y-42298204D01*
X92247594Y-42464754D01*
X91939924Y-42664557D01*
X91706849Y-42853296D01*
X91706849Y-42853297D01*
X93059301Y-44205748D01*
X92957670Y-44279588D01*
X92779588Y-44457670D01*
X92705748Y-44559300D01*
X91353297Y-43206849D01*
X91353296Y-43206849D01*
X91164557Y-43439924D01*
X90964754Y-43747594D01*
X90798204Y-44074464D01*
X90666736Y-44416948D01*
X90571784Y-44771313D01*
X90571784Y-44771315D01*
X90514397Y-45133646D01*
X90495197Y-45499999D01*
X90495197Y-45500000D01*
X90514397Y-45866353D01*
X90571784Y-46228684D01*
X90571784Y-46228686D01*
X90666736Y-46583051D01*
X90798204Y-46925535D01*
X90964754Y-47252406D01*
X91164553Y-47560070D01*
X91353297Y-47793148D01*
X92705748Y-46440698D01*
X92779588Y-46542330D01*
X92957670Y-46720412D01*
X93059300Y-46794251D01*
X91706850Y-48146701D01*
X91939929Y-48335446D01*
X92247593Y-48535245D01*
X92574464Y-48701795D01*
X92916948Y-48833263D01*
X93271314Y-48928215D01*
X93633646Y-48985602D01*
X93999999Y-49004803D01*
X94000001Y-49004803D01*
X94366353Y-48985602D01*
X94728684Y-48928215D01*
X94728686Y-48928215D01*
X95083051Y-48833263D01*
X95425535Y-48701795D01*
X95752406Y-48535245D01*
X96060064Y-48335450D01*
X96293148Y-48146701D01*
X94940698Y-46794251D01*
X95042330Y-46720412D01*
X95220412Y-46542330D01*
X95294251Y-46440698D01*
X96646701Y-47793148D01*
X96835450Y-47560064D01*
X97035245Y-47252406D01*
X97201795Y-46925535D01*
X97259736Y-46774595D01*
X97302138Y-46719063D01*
X97367832Y-46695270D01*
X97435960Y-46710772D01*
X97484893Y-46760645D01*
X97499500Y-46819033D01*
X97499500Y-90180966D01*
X97479815Y-90248005D01*
X97427011Y-90293760D01*
X97357853Y-90303704D01*
X97294297Y-90274679D01*
X97259736Y-90225404D01*
X97201795Y-90074464D01*
X97035245Y-89747594D01*
X96835446Y-89439929D01*
X96646701Y-89206850D01*
X95294251Y-90559300D01*
X95220412Y-90457670D01*
X95042330Y-90279588D01*
X94940698Y-90205748D01*
X96293149Y-88853297D01*
X96060070Y-88664553D01*
X95752406Y-88464754D01*
X95425535Y-88298204D01*
X95083051Y-88166736D01*
X94728685Y-88071784D01*
X94366353Y-88014397D01*
X94000001Y-87995197D01*
X93999999Y-87995197D01*
X93633646Y-88014397D01*
X93271315Y-88071784D01*
X93271313Y-88071784D01*
X92916948Y-88166736D01*
X92574464Y-88298204D01*
X92247594Y-88464754D01*
X91939924Y-88664557D01*
X91706849Y-88853296D01*
X91706849Y-88853297D01*
X93059301Y-90205748D01*
X92957670Y-90279588D01*
X92779588Y-90457670D01*
X92705748Y-90559300D01*
X91353297Y-89206849D01*
X91353296Y-89206849D01*
X91164557Y-89439924D01*
X90964754Y-89747594D01*
X90798204Y-90074464D01*
X90666736Y-90416948D01*
X90571784Y-90771313D01*
X90571784Y-90771315D01*
X90514397Y-91133646D01*
X90495197Y-91499999D01*
X90495197Y-91500000D01*
X90514397Y-91866353D01*
X90571784Y-92228684D01*
X90571784Y-92228686D01*
X90666736Y-92583051D01*
X90798204Y-92925535D01*
X90964754Y-93252406D01*
X91164553Y-93560070D01*
X91353297Y-93793148D01*
X92705748Y-92440698D01*
X92779588Y-92542330D01*
X92957670Y-92720412D01*
X93059300Y-92794251D01*
X91706850Y-94146701D01*
X91939929Y-94335446D01*
X92247593Y-94535245D01*
X92574464Y-94701795D01*
X92725405Y-94759736D01*
X92780937Y-94802138D01*
X92804730Y-94867832D01*
X92789228Y-94935960D01*
X92739355Y-94984893D01*
X92680967Y-94999500D01*
X46319033Y-94999500D01*
X46251994Y-94979815D01*
X46206239Y-94927011D01*
X46196295Y-94857853D01*
X46225320Y-94794297D01*
X46274595Y-94759736D01*
X46425535Y-94701795D01*
X46752406Y-94535245D01*
X47060064Y-94335450D01*
X47293148Y-94146701D01*
X45940698Y-92794251D01*
X46042330Y-92720412D01*
X46220412Y-92542330D01*
X46294251Y-92440698D01*
X47646701Y-93793148D01*
X47835450Y-93560064D01*
X48035245Y-93252406D01*
X48201795Y-92925535D01*
X48333263Y-92583051D01*
X48396853Y-92345730D01*
X51699500Y-92345730D01*
X51699500Y-93954269D01*
X51702353Y-93984699D01*
X51702353Y-93984701D01*
X51738458Y-94087880D01*
X51747207Y-94112882D01*
X51827850Y-94222150D01*
X51937118Y-94302793D01*
X51979845Y-94317744D01*
X52065299Y-94347646D01*
X52095730Y-94350500D01*
X52095734Y-94350500D01*
X53404270Y-94350500D01*
X53434699Y-94347646D01*
X53434701Y-94347646D01*
X53506145Y-94322646D01*
X53562882Y-94302793D01*
X53672150Y-94222150D01*
X53752793Y-94112882D01*
X53783835Y-94024169D01*
X53797646Y-93984701D01*
X53797646Y-93984699D01*
X53800500Y-93954269D01*
X53800500Y-92900000D01*
X54101504Y-92900000D01*
X54816988Y-92900000D01*
X54784075Y-92957007D01*
X54750000Y-93084174D01*
X54750000Y-93215826D01*
X54784075Y-93342993D01*
X54816988Y-93400000D01*
X54101504Y-93400000D01*
X54128317Y-93569293D01*
X54184251Y-93741444D01*
X54184252Y-93741447D01*
X54266434Y-93902734D01*
X54372823Y-94049169D01*
X54500830Y-94177176D01*
X54647265Y-94283565D01*
X54808552Y-94365747D01*
X54808555Y-94365748D01*
X54980699Y-94421680D01*
X54980712Y-94421683D01*
X55000000Y-94424738D01*
X55000000Y-93583012D01*
X55057007Y-93615925D01*
X55184174Y-93650000D01*
X55315826Y-93650000D01*
X55442993Y-93615925D01*
X55500000Y-93583012D01*
X55500000Y-94424737D01*
X55519287Y-94421683D01*
X55519300Y-94421680D01*
X55691444Y-94365748D01*
X55691447Y-94365747D01*
X55852734Y-94283565D01*
X55999169Y-94177176D01*
X56127176Y-94049169D01*
X56233565Y-93902734D01*
X56315747Y-93741447D01*
X56315748Y-93741444D01*
X56371682Y-93569293D01*
X56398496Y-93400000D01*
X55683012Y-93400000D01*
X55715925Y-93342993D01*
X55750000Y-93215826D01*
X55750000Y-93084174D01*
X55715925Y-92957007D01*
X55683012Y-92900000D01*
X56398496Y-92900000D01*
X56371682Y-92730706D01*
X56315748Y-92558555D01*
X56315747Y-92558552D01*
X56233565Y-92397265D01*
X56159797Y-92295730D01*
X60649500Y-92295730D01*
X60649500Y-93904269D01*
X60652353Y-93934699D01*
X60652353Y-93934701D01*
X60697206Y-94062880D01*
X60697207Y-94062882D01*
X60777850Y-94172150D01*
X60887118Y-94252793D01*
X60908089Y-94260131D01*
X61015299Y-94297646D01*
X61045730Y-94300500D01*
X61045734Y-94300500D01*
X62354270Y-94300500D01*
X62384699Y-94297646D01*
X62384701Y-94297646D01*
X62448790Y-94275219D01*
X62512882Y-94252793D01*
X62622150Y-94172150D01*
X62702793Y-94062882D01*
X62733712Y-93974520D01*
X62747646Y-93934701D01*
X62747646Y-93934699D01*
X62750500Y-93904269D01*
X62750500Y-92846530D01*
X63149500Y-92846530D01*
X63149500Y-93353469D01*
X63189868Y-93556412D01*
X63189870Y-93556420D01*
X63256154Y-93716444D01*
X63269059Y-93747598D01*
X63299494Y-93793148D01*
X63384024Y-93919657D01*
X63530342Y-94065975D01*
X63530345Y-94065977D01*
X63702402Y-94180941D01*
X63893580Y-94260130D01*
X64082187Y-94297646D01*
X64096530Y-94300499D01*
X64096534Y-94300500D01*
X64096535Y-94300500D01*
X64303466Y-94300500D01*
X64303467Y-94300499D01*
X64506420Y-94260130D01*
X64697598Y-94180941D01*
X64869655Y-94065977D01*
X65015977Y-93919655D01*
X65130941Y-93747598D01*
X65210130Y-93556420D01*
X65250500Y-93353465D01*
X65250500Y-92846535D01*
X65210130Y-92643580D01*
X65130941Y-92452402D01*
X65076370Y-92370730D01*
X69449500Y-92370730D01*
X69449500Y-93929269D01*
X69452353Y-93959699D01*
X69452353Y-93959701D01*
X69488458Y-94062880D01*
X69497207Y-94087882D01*
X69577850Y-94197150D01*
X69687118Y-94277793D01*
X69708089Y-94285131D01*
X69815299Y-94322646D01*
X69845730Y-94325500D01*
X69845734Y-94325500D01*
X71154270Y-94325500D01*
X71184699Y-94322646D01*
X71184701Y-94322646D01*
X71256145Y-94297646D01*
X71312882Y-94277793D01*
X71422150Y-94197150D01*
X71502793Y-94087882D01*
X71525219Y-94023790D01*
X71547646Y-93959701D01*
X71547646Y-93959699D01*
X71550500Y-93929269D01*
X71550500Y-92900000D01*
X71855463Y-92900000D01*
X72595854Y-92900000D01*
X72557370Y-92966657D01*
X72525000Y-93087465D01*
X72525000Y-93212535D01*
X72557370Y-93333343D01*
X72595854Y-93400000D01*
X71855463Y-93400000D01*
X71878317Y-93544293D01*
X71934251Y-93716444D01*
X71934252Y-93716447D01*
X72016434Y-93877734D01*
X72122823Y-94024169D01*
X72250830Y-94152176D01*
X72397265Y-94258565D01*
X72558552Y-94340747D01*
X72558555Y-94340748D01*
X72730699Y-94396680D01*
X72730712Y-94396683D01*
X72750000Y-94399738D01*
X72750000Y-93554145D01*
X72816657Y-93592630D01*
X72937465Y-93625000D01*
X73062535Y-93625000D01*
X73183343Y-93592630D01*
X73250000Y-93554145D01*
X73250000Y-94399737D01*
X73269287Y-94396683D01*
X73269300Y-94396680D01*
X73441444Y-94340748D01*
X73441447Y-94340747D01*
X73602734Y-94258565D01*
X73749169Y-94152176D01*
X73877176Y-94024169D01*
X73983565Y-93877734D01*
X74065747Y-93716447D01*
X74065748Y-93716444D01*
X74121682Y-93544293D01*
X74144537Y-93400000D01*
X73404146Y-93400000D01*
X73442630Y-93333343D01*
X73475000Y-93212535D01*
X73475000Y-93087465D01*
X73442630Y-92966657D01*
X73416576Y-92921530D01*
X74449500Y-92921530D01*
X74449500Y-93378469D01*
X74489868Y-93581412D01*
X74489870Y-93581420D01*
X74569058Y-93772596D01*
X74684024Y-93944657D01*
X74830342Y-94090975D01*
X74830345Y-94090977D01*
X75002402Y-94205941D01*
X75193580Y-94285130D01*
X75382187Y-94322646D01*
X75396530Y-94325499D01*
X75396534Y-94325500D01*
X75396535Y-94325500D01*
X75603466Y-94325500D01*
X75603467Y-94325499D01*
X75806420Y-94285130D01*
X75997598Y-94205941D01*
X76169655Y-94090977D01*
X76315977Y-93944655D01*
X76430941Y-93772598D01*
X76510130Y-93581420D01*
X76550500Y-93378465D01*
X76550500Y-92921535D01*
X76510130Y-92718580D01*
X76430941Y-92527402D01*
X76326257Y-92370730D01*
X80449500Y-92370730D01*
X80449500Y-93929269D01*
X80452353Y-93959699D01*
X80452353Y-93959701D01*
X80488458Y-94062880D01*
X80497207Y-94087882D01*
X80577850Y-94197150D01*
X80687118Y-94277793D01*
X80708089Y-94285131D01*
X80815299Y-94322646D01*
X80845730Y-94325500D01*
X80845734Y-94325500D01*
X82154270Y-94325500D01*
X82184699Y-94322646D01*
X82184701Y-94322646D01*
X82256145Y-94297646D01*
X82312882Y-94277793D01*
X82422150Y-94197150D01*
X82502793Y-94087882D01*
X82525219Y-94023790D01*
X82547646Y-93959701D01*
X82547646Y-93959699D01*
X82550500Y-93929269D01*
X82550500Y-92900000D01*
X82855463Y-92900000D01*
X83595854Y-92900000D01*
X83557370Y-92966657D01*
X83525000Y-93087465D01*
X83525000Y-93212535D01*
X83557370Y-93333343D01*
X83595854Y-93400000D01*
X82855463Y-93400000D01*
X82878317Y-93544293D01*
X82934251Y-93716444D01*
X82934252Y-93716447D01*
X83016434Y-93877734D01*
X83122823Y-94024169D01*
X83250830Y-94152176D01*
X83397265Y-94258565D01*
X83558552Y-94340747D01*
X83558555Y-94340748D01*
X83730699Y-94396680D01*
X83730712Y-94396683D01*
X83750000Y-94399738D01*
X83750000Y-93554145D01*
X83816657Y-93592630D01*
X83937465Y-93625000D01*
X84062535Y-93625000D01*
X84183343Y-93592630D01*
X84250000Y-93554145D01*
X84250000Y-94399737D01*
X84269287Y-94396683D01*
X84269300Y-94396680D01*
X84441444Y-94340748D01*
X84441447Y-94340747D01*
X84602734Y-94258565D01*
X84749169Y-94152176D01*
X84877176Y-94024169D01*
X84983565Y-93877734D01*
X85065747Y-93716447D01*
X85065748Y-93716444D01*
X85121682Y-93544293D01*
X85144537Y-93400000D01*
X84404146Y-93400000D01*
X84442630Y-93333343D01*
X84475000Y-93212535D01*
X84475000Y-93087465D01*
X84442630Y-92966657D01*
X84416576Y-92921530D01*
X85449500Y-92921530D01*
X85449500Y-93378469D01*
X85489868Y-93581412D01*
X85489870Y-93581420D01*
X85569058Y-93772596D01*
X85684024Y-93944657D01*
X85830342Y-94090975D01*
X85830345Y-94090977D01*
X86002402Y-94205941D01*
X86193580Y-94285130D01*
X86382187Y-94322646D01*
X86396530Y-94325499D01*
X86396534Y-94325500D01*
X86396535Y-94325500D01*
X86603466Y-94325500D01*
X86603467Y-94325499D01*
X86806420Y-94285130D01*
X86997598Y-94205941D01*
X87169655Y-94090977D01*
X87315977Y-93944655D01*
X87430941Y-93772598D01*
X87510130Y-93581420D01*
X87550500Y-93378465D01*
X87550500Y-92921535D01*
X87510130Y-92718580D01*
X87430941Y-92527402D01*
X87315977Y-92355345D01*
X87315975Y-92355342D01*
X87169657Y-92209024D01*
X87057409Y-92134023D01*
X86997598Y-92094059D01*
X86982953Y-92087993D01*
X86806420Y-92014870D01*
X86806412Y-92014868D01*
X86603469Y-91974500D01*
X86603465Y-91974500D01*
X86396535Y-91974500D01*
X86396530Y-91974500D01*
X86193587Y-92014868D01*
X86193579Y-92014870D01*
X86002403Y-92094058D01*
X85830342Y-92209024D01*
X85684024Y-92355342D01*
X85569058Y-92527403D01*
X85489870Y-92718579D01*
X85489868Y-92718587D01*
X85449500Y-92921530D01*
X84416576Y-92921530D01*
X84404146Y-92900000D01*
X85144537Y-92900000D01*
X85121682Y-92755706D01*
X85065748Y-92583555D01*
X85065747Y-92583552D01*
X84983565Y-92422265D01*
X84877176Y-92275830D01*
X84749169Y-92147823D01*
X84602734Y-92041434D01*
X84441447Y-91959252D01*
X84441441Y-91959250D01*
X84269295Y-91903318D01*
X84269285Y-91903315D01*
X84250000Y-91900260D01*
X84250000Y-92745854D01*
X84183343Y-92707370D01*
X84062535Y-92675000D01*
X83937465Y-92675000D01*
X83816657Y-92707370D01*
X83750000Y-92745854D01*
X83750000Y-91900260D01*
X83730714Y-91903315D01*
X83730704Y-91903318D01*
X83558558Y-91959250D01*
X83558552Y-91959252D01*
X83397265Y-92041434D01*
X83250830Y-92147823D01*
X83122823Y-92275830D01*
X83016434Y-92422265D01*
X82934252Y-92583552D01*
X82934251Y-92583555D01*
X82878317Y-92755706D01*
X82855463Y-92900000D01*
X82550500Y-92900000D01*
X82550500Y-92370730D01*
X82547646Y-92340300D01*
X82547646Y-92340298D01*
X82502793Y-92212119D01*
X82502792Y-92212117D01*
X82422150Y-92102850D01*
X82312882Y-92022207D01*
X82312880Y-92022206D01*
X82184700Y-91977353D01*
X82154270Y-91974500D01*
X82154266Y-91974500D01*
X80845734Y-91974500D01*
X80845730Y-91974500D01*
X80815300Y-91977353D01*
X80815298Y-91977353D01*
X80687119Y-92022206D01*
X80687117Y-92022207D01*
X80577850Y-92102850D01*
X80497207Y-92212117D01*
X80497206Y-92212119D01*
X80452353Y-92340298D01*
X80452353Y-92340300D01*
X80449500Y-92370730D01*
X76326257Y-92370730D01*
X76315977Y-92355345D01*
X76315975Y-92355342D01*
X76169657Y-92209024D01*
X76057409Y-92134023D01*
X75997598Y-92094059D01*
X75982953Y-92087993D01*
X75806420Y-92014870D01*
X75806412Y-92014868D01*
X75603469Y-91974500D01*
X75603465Y-91974500D01*
X75396535Y-91974500D01*
X75396530Y-91974500D01*
X75193587Y-92014868D01*
X75193579Y-92014870D01*
X75002403Y-92094058D01*
X74830342Y-92209024D01*
X74684024Y-92355342D01*
X74569058Y-92527403D01*
X74489870Y-92718579D01*
X74489868Y-92718587D01*
X74449500Y-92921530D01*
X73416576Y-92921530D01*
X73404146Y-92900000D01*
X74144537Y-92900000D01*
X74121682Y-92755706D01*
X74065748Y-92583555D01*
X74065747Y-92583552D01*
X73983565Y-92422265D01*
X73877176Y-92275830D01*
X73749169Y-92147823D01*
X73602734Y-92041434D01*
X73441447Y-91959252D01*
X73441441Y-91959250D01*
X73269295Y-91903318D01*
X73269285Y-91903315D01*
X73250000Y-91900260D01*
X73250000Y-92745854D01*
X73183343Y-92707370D01*
X73062535Y-92675000D01*
X72937465Y-92675000D01*
X72816657Y-92707370D01*
X72750000Y-92745854D01*
X72750000Y-91900260D01*
X72730714Y-91903315D01*
X72730704Y-91903318D01*
X72558558Y-91959250D01*
X72558552Y-91959252D01*
X72397265Y-92041434D01*
X72250830Y-92147823D01*
X72122823Y-92275830D01*
X72016434Y-92422265D01*
X71934252Y-92583552D01*
X71934251Y-92583555D01*
X71878317Y-92755706D01*
X71855463Y-92900000D01*
X71550500Y-92900000D01*
X71550500Y-92370730D01*
X71547646Y-92340300D01*
X71547646Y-92340298D01*
X71502793Y-92212119D01*
X71502792Y-92212117D01*
X71422150Y-92102850D01*
X71312882Y-92022207D01*
X71312880Y-92022206D01*
X71184700Y-91977353D01*
X71154270Y-91974500D01*
X71154266Y-91974500D01*
X69845734Y-91974500D01*
X69845730Y-91974500D01*
X69815300Y-91977353D01*
X69815298Y-91977353D01*
X69687119Y-92022206D01*
X69687117Y-92022207D01*
X69577850Y-92102850D01*
X69497207Y-92212117D01*
X69497206Y-92212119D01*
X69452353Y-92340298D01*
X69452353Y-92340300D01*
X69449500Y-92370730D01*
X65076370Y-92370730D01*
X65015977Y-92280345D01*
X65015975Y-92280342D01*
X64869657Y-92134024D01*
X64783626Y-92076541D01*
X64697598Y-92019059D01*
X64596911Y-91977353D01*
X64506420Y-91939870D01*
X64506412Y-91939868D01*
X64303469Y-91899500D01*
X64303465Y-91899500D01*
X64096535Y-91899500D01*
X64096530Y-91899500D01*
X63893587Y-91939868D01*
X63893579Y-91939870D01*
X63702403Y-92019058D01*
X63530342Y-92134024D01*
X63384024Y-92280342D01*
X63269058Y-92452403D01*
X63189870Y-92643579D01*
X63189868Y-92643587D01*
X63149500Y-92846530D01*
X62750500Y-92846530D01*
X62750500Y-92295730D01*
X62747646Y-92265300D01*
X62747646Y-92265298D01*
X62702793Y-92137119D01*
X62702792Y-92137117D01*
X62622150Y-92027850D01*
X62512882Y-91947207D01*
X62512880Y-91947206D01*
X62384700Y-91902353D01*
X62354270Y-91899500D01*
X62354266Y-91899500D01*
X61045734Y-91899500D01*
X61045730Y-91899500D01*
X61015300Y-91902353D01*
X61015298Y-91902353D01*
X60887119Y-91947206D01*
X60887117Y-91947207D01*
X60777850Y-92027850D01*
X60697207Y-92137117D01*
X60697206Y-92137119D01*
X60652353Y-92265298D01*
X60652353Y-92265300D01*
X60649500Y-92295730D01*
X56159797Y-92295730D01*
X56127176Y-92250830D01*
X55999169Y-92122823D01*
X55852734Y-92016434D01*
X55691447Y-91934252D01*
X55691441Y-91934250D01*
X55519295Y-91878318D01*
X55519285Y-91878315D01*
X55500000Y-91875260D01*
X55500000Y-92716988D01*
X55442993Y-92684075D01*
X55315826Y-92650000D01*
X55184174Y-92650000D01*
X55057007Y-92684075D01*
X55000000Y-92716988D01*
X55000000Y-91875260D01*
X54980714Y-91878315D01*
X54980704Y-91878318D01*
X54808558Y-91934250D01*
X54808552Y-91934252D01*
X54647265Y-92016434D01*
X54500830Y-92122823D01*
X54372823Y-92250830D01*
X54266434Y-92397265D01*
X54184252Y-92558552D01*
X54184251Y-92558555D01*
X54128317Y-92730706D01*
X54101504Y-92900000D01*
X53800500Y-92900000D01*
X53800500Y-92345730D01*
X53797646Y-92315300D01*
X53797646Y-92315298D01*
X53752793Y-92187119D01*
X53752792Y-92187117D01*
X53715892Y-92137119D01*
X53672150Y-92077850D01*
X53562882Y-91997207D01*
X53562880Y-91997206D01*
X53434700Y-91952353D01*
X53404270Y-91949500D01*
X53404266Y-91949500D01*
X52095734Y-91949500D01*
X52095730Y-91949500D01*
X52065300Y-91952353D01*
X52065298Y-91952353D01*
X51937119Y-91997206D01*
X51937117Y-91997207D01*
X51827850Y-92077850D01*
X51747207Y-92187117D01*
X51747206Y-92187119D01*
X51702353Y-92315298D01*
X51702353Y-92315300D01*
X51699500Y-92345730D01*
X48396853Y-92345730D01*
X48428215Y-92228686D01*
X48428215Y-92228684D01*
X48485602Y-91866353D01*
X48504803Y-91500000D01*
X48504803Y-91499999D01*
X48485602Y-91133646D01*
X48428215Y-90771315D01*
X48428215Y-90771313D01*
X48333263Y-90416948D01*
X48201795Y-90074464D01*
X48035245Y-89747594D01*
X47835446Y-89439929D01*
X47646701Y-89206850D01*
X46294251Y-90559300D01*
X46220412Y-90457670D01*
X46042330Y-90279588D01*
X45940698Y-90205748D01*
X47046449Y-89099997D01*
X87569196Y-89099997D01*
X87569196Y-89100002D01*
X87590279Y-89233121D01*
X87590280Y-89233124D01*
X87590281Y-89233126D01*
X87651472Y-89353220D01*
X87651473Y-89353221D01*
X87651476Y-89353225D01*
X87746774Y-89448523D01*
X87746778Y-89448526D01*
X87746780Y-89448528D01*
X87866874Y-89509719D01*
X87866876Y-89509719D01*
X87866878Y-89509720D01*
X87999998Y-89530804D01*
X88000000Y-89530804D01*
X88000002Y-89530804D01*
X88133121Y-89509720D01*
X88133121Y-89509719D01*
X88133126Y-89509719D01*
X88253220Y-89448528D01*
X88348528Y-89353220D01*
X88409719Y-89233126D01*
X88430804Y-89100000D01*
X88409719Y-88966874D01*
X88348528Y-88846780D01*
X88348526Y-88846778D01*
X88348523Y-88846774D01*
X88253225Y-88751476D01*
X88253221Y-88751473D01*
X88253220Y-88751472D01*
X88133126Y-88690281D01*
X88133124Y-88690280D01*
X88133121Y-88690279D01*
X88000002Y-88669196D01*
X87999998Y-88669196D01*
X87866878Y-88690279D01*
X87746778Y-88751473D01*
X87746774Y-88751476D01*
X87651476Y-88846774D01*
X87651473Y-88846778D01*
X87590279Y-88966878D01*
X87569196Y-89099997D01*
X47046449Y-89099997D01*
X47293149Y-88853297D01*
X47060070Y-88664553D01*
X46752406Y-88464754D01*
X46425535Y-88298204D01*
X46083051Y-88166736D01*
X45728685Y-88071784D01*
X45366353Y-88014397D01*
X45000001Y-87995197D01*
X44999999Y-87995197D01*
X44633646Y-88014397D01*
X44271315Y-88071784D01*
X44271313Y-88071784D01*
X43916948Y-88166736D01*
X43574464Y-88298204D01*
X43247594Y-88464754D01*
X42939924Y-88664557D01*
X42706849Y-88853296D01*
X42706849Y-88853297D01*
X44059301Y-90205748D01*
X43957670Y-90279588D01*
X43779588Y-90457670D01*
X43705748Y-90559301D01*
X42353297Y-89206849D01*
X42353296Y-89206849D01*
X42164557Y-89439924D01*
X41964754Y-89747594D01*
X41798204Y-90074464D01*
X41740264Y-90225404D01*
X41697862Y-90280936D01*
X41632168Y-90304729D01*
X41564039Y-90289227D01*
X41515107Y-90239354D01*
X41500500Y-90180966D01*
X41500500Y-86117497D01*
X80269196Y-86117497D01*
X80269196Y-86117502D01*
X80290279Y-86250621D01*
X80290280Y-86250624D01*
X80290281Y-86250626D01*
X80351472Y-86370720D01*
X80351473Y-86370721D01*
X80351476Y-86370725D01*
X80446774Y-86466023D01*
X80446778Y-86466026D01*
X80446780Y-86466028D01*
X80566874Y-86527219D01*
X80566876Y-86527219D01*
X80566878Y-86527220D01*
X80699998Y-86548304D01*
X80700000Y-86548304D01*
X80700002Y-86548304D01*
X80833121Y-86527220D01*
X80833121Y-86527219D01*
X80833126Y-86527219D01*
X80953220Y-86466028D01*
X81048528Y-86370720D01*
X81109719Y-86250626D01*
X81109720Y-86250621D01*
X81130804Y-86117502D01*
X81130804Y-86117497D01*
X81124865Y-86079997D01*
X89589196Y-86079997D01*
X89589196Y-86080002D01*
X89610279Y-86213121D01*
X89610280Y-86213124D01*
X89610281Y-86213126D01*
X89671472Y-86333220D01*
X89671473Y-86333221D01*
X89671476Y-86333225D01*
X89766774Y-86428523D01*
X89766778Y-86428526D01*
X89766780Y-86428528D01*
X89886874Y-86489719D01*
X89886876Y-86489719D01*
X89886878Y-86489720D01*
X90019998Y-86510804D01*
X90020000Y-86510804D01*
X90020002Y-86510804D01*
X90153121Y-86489720D01*
X90153121Y-86489719D01*
X90153126Y-86489719D01*
X90273220Y-86428528D01*
X90368528Y-86333220D01*
X90429719Y-86213126D01*
X90429720Y-86213121D01*
X90450804Y-86080002D01*
X90450804Y-86079997D01*
X90429720Y-85946878D01*
X90429719Y-85946876D01*
X90429719Y-85946874D01*
X90368528Y-85826780D01*
X90368526Y-85826778D01*
X90368523Y-85826774D01*
X90273225Y-85731476D01*
X90273221Y-85731473D01*
X90273220Y-85731472D01*
X90153126Y-85670281D01*
X90153124Y-85670280D01*
X90153121Y-85670279D01*
X90020002Y-85649196D01*
X90019998Y-85649196D01*
X89886878Y-85670279D01*
X89766778Y-85731473D01*
X89766774Y-85731476D01*
X89671476Y-85826774D01*
X89671473Y-85826778D01*
X89610279Y-85946878D01*
X89589196Y-86079997D01*
X81124865Y-86079997D01*
X81109720Y-85984378D01*
X81109719Y-85984376D01*
X81109719Y-85984374D01*
X81048528Y-85864280D01*
X81048525Y-85864277D01*
X81047364Y-85862678D01*
X81046553Y-85860405D01*
X81044097Y-85855585D01*
X81044720Y-85855267D01*
X81037895Y-85836140D01*
X81011592Y-85825898D01*
X80999635Y-85815386D01*
X80953225Y-85768976D01*
X80953221Y-85768973D01*
X80953220Y-85768972D01*
X80833126Y-85707781D01*
X80833124Y-85707780D01*
X80833121Y-85707779D01*
X80700002Y-85686696D01*
X80699998Y-85686696D01*
X80566878Y-85707779D01*
X80446778Y-85768973D01*
X80446774Y-85768976D01*
X80351476Y-85864274D01*
X80351473Y-85864278D01*
X80290279Y-85984378D01*
X80269196Y-86117497D01*
X41500500Y-86117497D01*
X41500500Y-85399997D01*
X81104196Y-85399997D01*
X81104196Y-85400002D01*
X81125279Y-85533121D01*
X81125280Y-85533124D01*
X81125281Y-85533126D01*
X81184422Y-85649196D01*
X81186473Y-85653221D01*
X81187637Y-85654823D01*
X81188448Y-85657097D01*
X81190903Y-85661915D01*
X81190280Y-85662232D01*
X81197103Y-85681358D01*
X81223405Y-85691599D01*
X81235364Y-85702113D01*
X81281774Y-85748523D01*
X81281778Y-85748526D01*
X81281780Y-85748528D01*
X81401874Y-85809719D01*
X81401876Y-85809719D01*
X81401878Y-85809720D01*
X81534998Y-85830804D01*
X81535000Y-85830804D01*
X81535002Y-85830804D01*
X81668121Y-85809720D01*
X81668121Y-85809719D01*
X81668126Y-85809719D01*
X81788220Y-85748528D01*
X81883528Y-85653220D01*
X81944719Y-85533126D01*
X81965804Y-85400000D01*
X81944719Y-85266874D01*
X81883528Y-85146780D01*
X81883526Y-85146778D01*
X81883523Y-85146774D01*
X81788225Y-85051476D01*
X81788221Y-85051473D01*
X81788220Y-85051472D01*
X81668126Y-84990281D01*
X81668124Y-84990280D01*
X81668121Y-84990279D01*
X81535002Y-84969196D01*
X81534998Y-84969196D01*
X81401878Y-84990279D01*
X81281778Y-85051473D01*
X81281774Y-85051476D01*
X81186476Y-85146774D01*
X81186473Y-85146778D01*
X81125279Y-85266878D01*
X81104196Y-85399997D01*
X41500500Y-85399997D01*
X41500500Y-84709997D01*
X54329196Y-84709997D01*
X54329196Y-84710002D01*
X54350279Y-84843121D01*
X54350280Y-84843124D01*
X54350281Y-84843126D01*
X54411472Y-84963220D01*
X54411473Y-84963221D01*
X54411476Y-84963225D01*
X54506774Y-85058523D01*
X54506778Y-85058526D01*
X54506780Y-85058528D01*
X54626874Y-85119719D01*
X54626876Y-85119719D01*
X54626878Y-85119720D01*
X54759998Y-85140804D01*
X54760000Y-85140804D01*
X54760002Y-85140804D01*
X54893121Y-85119720D01*
X54893121Y-85119719D01*
X54893126Y-85119719D01*
X55013220Y-85058528D01*
X55108528Y-84963220D01*
X55169719Y-84843126D01*
X55176549Y-84800002D01*
X55176550Y-84799997D01*
X87169196Y-84799997D01*
X87169196Y-84800002D01*
X87190279Y-84933121D01*
X87190280Y-84933124D01*
X87190281Y-84933126D01*
X87251472Y-85053220D01*
X87251473Y-85053221D01*
X87251476Y-85053225D01*
X87346774Y-85148523D01*
X87346778Y-85148526D01*
X87346780Y-85148528D01*
X87466874Y-85209719D01*
X87466876Y-85209719D01*
X87466878Y-85209720D01*
X87599998Y-85230804D01*
X87600000Y-85230804D01*
X87600002Y-85230804D01*
X87733121Y-85209720D01*
X87733121Y-85209719D01*
X87733126Y-85209719D01*
X87853220Y-85148528D01*
X87948528Y-85053220D01*
X88009719Y-84933126D01*
X88023974Y-84843126D01*
X88030027Y-84804908D01*
X88032310Y-84800091D01*
X88032226Y-84799907D01*
X88272689Y-84799907D01*
X88274973Y-84804908D01*
X88295279Y-84933121D01*
X88295280Y-84933124D01*
X88295281Y-84933126D01*
X88356472Y-85053220D01*
X88356473Y-85053221D01*
X88356476Y-85053225D01*
X88451774Y-85148523D01*
X88451778Y-85148526D01*
X88451780Y-85148528D01*
X88571874Y-85209719D01*
X88571876Y-85209719D01*
X88571878Y-85209720D01*
X88704998Y-85230804D01*
X88705000Y-85230804D01*
X88705002Y-85230804D01*
X88838121Y-85209720D01*
X88838121Y-85209719D01*
X88838126Y-85209719D01*
X88958220Y-85148528D01*
X89053528Y-85053220D01*
X89114719Y-84933126D01*
X89128974Y-84843126D01*
X89130027Y-84836478D01*
X89146996Y-84800680D01*
X89146374Y-84799318D01*
X89358003Y-84799318D01*
X89374973Y-84836478D01*
X89390279Y-84933121D01*
X89390280Y-84933124D01*
X89390281Y-84933126D01*
X89451472Y-85053220D01*
X89451473Y-85053221D01*
X89451476Y-85053225D01*
X89546774Y-85148523D01*
X89546778Y-85148526D01*
X89546780Y-85148528D01*
X89666874Y-85209719D01*
X89666876Y-85209719D01*
X89666878Y-85209720D01*
X89799998Y-85230804D01*
X89800000Y-85230804D01*
X89800002Y-85230804D01*
X89933121Y-85209720D01*
X89933121Y-85209719D01*
X89933126Y-85209719D01*
X90053220Y-85148528D01*
X90148528Y-85053220D01*
X90209719Y-84933126D01*
X90223974Y-84843126D01*
X90230804Y-84800002D01*
X90230804Y-84799997D01*
X90209720Y-84666878D01*
X90209719Y-84666876D01*
X90209719Y-84666874D01*
X90148528Y-84546780D01*
X90148526Y-84546778D01*
X90148523Y-84546774D01*
X90053225Y-84451476D01*
X90053221Y-84451473D01*
X90053220Y-84451472D01*
X89933126Y-84390281D01*
X89933124Y-84390280D01*
X89933121Y-84390279D01*
X89800002Y-84369196D01*
X89799998Y-84369196D01*
X89666878Y-84390279D01*
X89546778Y-84451473D01*
X89546774Y-84451476D01*
X89451476Y-84546774D01*
X89451473Y-84546778D01*
X89390279Y-84666878D01*
X89374973Y-84763522D01*
X89358003Y-84799318D01*
X89146374Y-84799318D01*
X89130027Y-84763522D01*
X89114720Y-84666878D01*
X89114719Y-84666876D01*
X89114719Y-84666874D01*
X89053528Y-84546780D01*
X89053526Y-84546778D01*
X89053523Y-84546774D01*
X88958225Y-84451476D01*
X88958221Y-84451473D01*
X88958220Y-84451472D01*
X88838126Y-84390281D01*
X88838124Y-84390280D01*
X88838121Y-84390279D01*
X88705002Y-84369196D01*
X88704998Y-84369196D01*
X88571878Y-84390279D01*
X88451778Y-84451473D01*
X88451774Y-84451476D01*
X88356476Y-84546774D01*
X88356473Y-84546778D01*
X88295279Y-84666878D01*
X88274973Y-84795091D01*
X88272689Y-84799907D01*
X88032226Y-84799907D01*
X88030027Y-84795091D01*
X88009720Y-84666878D01*
X88009719Y-84666876D01*
X88009719Y-84666874D01*
X87948528Y-84546780D01*
X87948526Y-84546778D01*
X87948523Y-84546774D01*
X87853225Y-84451476D01*
X87853221Y-84451473D01*
X87853220Y-84451472D01*
X87733126Y-84390281D01*
X87733124Y-84390280D01*
X87733121Y-84390279D01*
X87600002Y-84369196D01*
X87599998Y-84369196D01*
X87466878Y-84390279D01*
X87346778Y-84451473D01*
X87346774Y-84451476D01*
X87251476Y-84546774D01*
X87251473Y-84546778D01*
X87190279Y-84666878D01*
X87169196Y-84799997D01*
X55176550Y-84799997D01*
X55190804Y-84710002D01*
X55190804Y-84709997D01*
X55169720Y-84576878D01*
X55169719Y-84576876D01*
X55169719Y-84576874D01*
X55108528Y-84456780D01*
X55108526Y-84456778D01*
X55108523Y-84456774D01*
X55013225Y-84361476D01*
X55013221Y-84361473D01*
X55013220Y-84361472D01*
X54893126Y-84300281D01*
X54893124Y-84300280D01*
X54893121Y-84300279D01*
X54760002Y-84279196D01*
X54759998Y-84279196D01*
X54626878Y-84300279D01*
X54506778Y-84361473D01*
X54506774Y-84361476D01*
X54411476Y-84456774D01*
X54411473Y-84456778D01*
X54350279Y-84576878D01*
X54329196Y-84709997D01*
X41500500Y-84709997D01*
X41500500Y-83939997D01*
X77499196Y-83939997D01*
X77499196Y-83940002D01*
X77520279Y-84073121D01*
X77520280Y-84073124D01*
X77520281Y-84073126D01*
X77581472Y-84193220D01*
X77581473Y-84193221D01*
X77581476Y-84193225D01*
X77676774Y-84288523D01*
X77676778Y-84288526D01*
X77676780Y-84288528D01*
X77796874Y-84349719D01*
X77796876Y-84349719D01*
X77796878Y-84349720D01*
X77929998Y-84370804D01*
X77930000Y-84370804D01*
X77930002Y-84370804D01*
X78063121Y-84349720D01*
X78063121Y-84349719D01*
X78063126Y-84349719D01*
X78183220Y-84288528D01*
X78278528Y-84193220D01*
X78339719Y-84073126D01*
X78342254Y-84057119D01*
X78359617Y-83947497D01*
X80169196Y-83947497D01*
X80169196Y-83947502D01*
X80190279Y-84080621D01*
X80190280Y-84080624D01*
X80190281Y-84080626D01*
X80251472Y-84200720D01*
X80251473Y-84200721D01*
X80251476Y-84200725D01*
X80346774Y-84296023D01*
X80346778Y-84296026D01*
X80346780Y-84296028D01*
X80466874Y-84357219D01*
X80466876Y-84357219D01*
X80466878Y-84357220D01*
X80599998Y-84378304D01*
X80600000Y-84378304D01*
X80600002Y-84378304D01*
X80733121Y-84357220D01*
X80733121Y-84357219D01*
X80733126Y-84357219D01*
X80853220Y-84296028D01*
X80933518Y-84215730D01*
X94504500Y-84215730D01*
X94504500Y-85524269D01*
X94507353Y-85554699D01*
X94507353Y-85554701D01*
X94552206Y-85682880D01*
X94552207Y-85682882D01*
X94632850Y-85792150D01*
X94742118Y-85872793D01*
X94784845Y-85887744D01*
X94870299Y-85917646D01*
X94900730Y-85920500D01*
X94900734Y-85920500D01*
X96459270Y-85920500D01*
X96489699Y-85917646D01*
X96489701Y-85917646D01*
X96553790Y-85895219D01*
X96617882Y-85872793D01*
X96727150Y-85792150D01*
X96807793Y-85682882D01*
X96830219Y-85618790D01*
X96852646Y-85554701D01*
X96852646Y-85554699D01*
X96855500Y-85524269D01*
X96855500Y-84215730D01*
X96852646Y-84185300D01*
X96852646Y-84185298D01*
X96813394Y-84073126D01*
X96807793Y-84057118D01*
X96727150Y-83947850D01*
X96617882Y-83867207D01*
X96617880Y-83867206D01*
X96489700Y-83822353D01*
X96459270Y-83819500D01*
X96459266Y-83819500D01*
X94900734Y-83819500D01*
X94900730Y-83819500D01*
X94870300Y-83822353D01*
X94870298Y-83822353D01*
X94742119Y-83867206D01*
X94742117Y-83867207D01*
X94632850Y-83947850D01*
X94552207Y-84057117D01*
X94552206Y-84057119D01*
X94507353Y-84185298D01*
X94507353Y-84185300D01*
X94504500Y-84215730D01*
X80933518Y-84215730D01*
X80948528Y-84200720D01*
X81009719Y-84080626D01*
X81013442Y-84057119D01*
X81030804Y-83947502D01*
X81030804Y-83947497D01*
X81009720Y-83814378D01*
X81009719Y-83814376D01*
X81009719Y-83814374D01*
X80948528Y-83694280D01*
X80948526Y-83694278D01*
X80948523Y-83694274D01*
X80853225Y-83598976D01*
X80853221Y-83598973D01*
X80853220Y-83598972D01*
X80733126Y-83537781D01*
X80733124Y-83537780D01*
X80733121Y-83537779D01*
X80600002Y-83516696D01*
X80599998Y-83516696D01*
X80466878Y-83537779D01*
X80346778Y-83598973D01*
X80346774Y-83598976D01*
X80251476Y-83694274D01*
X80251473Y-83694278D01*
X80190279Y-83814378D01*
X80169196Y-83947497D01*
X78359617Y-83947497D01*
X78360804Y-83940002D01*
X78360804Y-83939997D01*
X78339720Y-83806878D01*
X78339719Y-83806876D01*
X78339719Y-83806874D01*
X78278528Y-83686780D01*
X78278526Y-83686778D01*
X78278523Y-83686774D01*
X78183225Y-83591476D01*
X78183221Y-83591473D01*
X78183220Y-83591472D01*
X78063126Y-83530281D01*
X78063124Y-83530280D01*
X78063121Y-83530279D01*
X77930002Y-83509196D01*
X77929998Y-83509196D01*
X77796878Y-83530279D01*
X77676778Y-83591473D01*
X77676774Y-83591476D01*
X77581476Y-83686774D01*
X77581473Y-83686778D01*
X77520279Y-83806878D01*
X77499196Y-83939997D01*
X41500500Y-83939997D01*
X41500500Y-83399997D01*
X81719196Y-83399997D01*
X81719196Y-83400002D01*
X81740279Y-83533121D01*
X81740280Y-83533124D01*
X81740281Y-83533126D01*
X81801472Y-83653220D01*
X81801473Y-83653221D01*
X81801476Y-83653225D01*
X81896774Y-83748523D01*
X81896778Y-83748526D01*
X81896780Y-83748528D01*
X82016874Y-83809719D01*
X82016876Y-83809719D01*
X82016878Y-83809720D01*
X82149998Y-83830804D01*
X82150000Y-83830804D01*
X82150002Y-83830804D01*
X82283121Y-83809720D01*
X82283121Y-83809719D01*
X82283126Y-83809719D01*
X82403220Y-83748528D01*
X82498528Y-83653220D01*
X82559719Y-83533126D01*
X82577557Y-83420500D01*
X82580804Y-83400002D01*
X82580804Y-83399997D01*
X82559720Y-83266878D01*
X82559719Y-83266876D01*
X82559719Y-83266874D01*
X82498528Y-83146780D01*
X82498526Y-83146778D01*
X82498523Y-83146774D01*
X82403225Y-83051476D01*
X82403221Y-83051473D01*
X82403220Y-83051472D01*
X82283126Y-82990281D01*
X82283124Y-82990280D01*
X82283121Y-82990279D01*
X82150002Y-82969196D01*
X82149998Y-82969196D01*
X82016878Y-82990279D01*
X81896778Y-83051473D01*
X81896774Y-83051476D01*
X81801476Y-83146774D01*
X81801473Y-83146778D01*
X81740279Y-83266878D01*
X81719196Y-83399997D01*
X41500500Y-83399997D01*
X41500500Y-82297497D01*
X74999196Y-82297497D01*
X74999196Y-82297502D01*
X75020279Y-82430621D01*
X75020280Y-82430624D01*
X75020281Y-82430626D01*
X75042111Y-82473469D01*
X75081473Y-82550721D01*
X75081476Y-82550725D01*
X75176774Y-82646023D01*
X75176778Y-82646026D01*
X75176780Y-82646028D01*
X75296874Y-82707219D01*
X75296876Y-82707219D01*
X75296878Y-82707220D01*
X75429998Y-82728304D01*
X75430000Y-82728304D01*
X75430002Y-82728304D01*
X75563121Y-82707220D01*
X75563121Y-82707219D01*
X75563126Y-82707219D01*
X75683220Y-82646028D01*
X75778528Y-82550720D01*
X75839719Y-82430626D01*
X75860804Y-82297500D01*
X75855899Y-82266534D01*
X75855898Y-82266530D01*
X94504500Y-82266530D01*
X94504500Y-82473469D01*
X94544868Y-82676412D01*
X94544870Y-82676420D01*
X94624058Y-82867596D01*
X94739024Y-83039657D01*
X94885342Y-83185975D01*
X94885345Y-83185977D01*
X95057402Y-83300941D01*
X95248580Y-83380130D01*
X95451530Y-83420499D01*
X95451534Y-83420500D01*
X95451535Y-83420500D01*
X95908466Y-83420500D01*
X95908467Y-83420499D01*
X96111420Y-83380130D01*
X96302598Y-83300941D01*
X96474655Y-83185977D01*
X96620977Y-83039655D01*
X96735941Y-82867598D01*
X96815130Y-82676420D01*
X96855500Y-82473465D01*
X96855500Y-82266535D01*
X96815130Y-82063580D01*
X96735941Y-81872402D01*
X96620977Y-81700345D01*
X96620975Y-81700342D01*
X96474657Y-81554024D01*
X96362027Y-81478768D01*
X96302598Y-81439059D01*
X96111420Y-81359870D01*
X96111412Y-81359868D01*
X95908469Y-81319500D01*
X95908465Y-81319500D01*
X95451535Y-81319500D01*
X95451530Y-81319500D01*
X95248587Y-81359868D01*
X95248579Y-81359870D01*
X95057403Y-81439058D01*
X94885342Y-81554024D01*
X94739024Y-81700342D01*
X94624058Y-81872403D01*
X94544870Y-82063579D01*
X94544868Y-82063587D01*
X94504500Y-82266530D01*
X75855898Y-82266530D01*
X75839720Y-82164378D01*
X75839719Y-82164376D01*
X75839719Y-82164374D01*
X75778528Y-82044280D01*
X75778526Y-82044278D01*
X75778523Y-82044274D01*
X75683225Y-81948976D01*
X75683221Y-81948973D01*
X75683220Y-81948972D01*
X75563126Y-81887781D01*
X75563124Y-81887780D01*
X75563121Y-81887779D01*
X75430002Y-81866696D01*
X75429998Y-81866696D01*
X75296878Y-81887779D01*
X75296874Y-81887780D01*
X75296874Y-81887781D01*
X75254107Y-81909572D01*
X75176778Y-81948973D01*
X75176774Y-81948976D01*
X75081476Y-82044274D01*
X75081473Y-82044278D01*
X75020279Y-82164378D01*
X74999196Y-82297497D01*
X41500500Y-82297497D01*
X41500500Y-80832949D01*
X59974330Y-80832949D01*
X59974330Y-80832954D01*
X59995413Y-80966073D01*
X59995414Y-80966076D01*
X59995415Y-80966078D01*
X60037896Y-81049451D01*
X60056607Y-81086173D01*
X60056610Y-81086177D01*
X60088726Y-81118293D01*
X60122211Y-81179616D01*
X60117227Y-81249308D01*
X60111530Y-81262268D01*
X60069047Y-81345644D01*
X60047964Y-81478765D01*
X60047964Y-81478770D01*
X60069047Y-81611889D01*
X60069048Y-81611892D01*
X60069049Y-81611894D01*
X60130240Y-81731988D01*
X60130241Y-81731989D01*
X60130244Y-81731993D01*
X60225542Y-81827291D01*
X60225546Y-81827294D01*
X60225548Y-81827296D01*
X60345642Y-81888487D01*
X60345644Y-81888487D01*
X60345646Y-81888488D01*
X60478766Y-81909572D01*
X60478768Y-81909572D01*
X60478770Y-81909572D01*
X60611889Y-81888488D01*
X60611889Y-81888487D01*
X60611894Y-81888487D01*
X60731988Y-81827296D01*
X60827296Y-81731988D01*
X60888487Y-81611894D01*
X60909572Y-81478768D01*
X60890740Y-81359870D01*
X60888488Y-81345646D01*
X60888487Y-81345644D01*
X60888487Y-81345642D01*
X60827296Y-81225548D01*
X60827294Y-81225546D01*
X60827292Y-81225543D01*
X60795176Y-81193428D01*
X60761690Y-81132106D01*
X60766674Y-81062414D01*
X60772362Y-81049469D01*
X60814853Y-80966078D01*
X60835938Y-80832952D01*
X60814853Y-80699826D01*
X60753662Y-80579732D01*
X60753660Y-80579730D01*
X60753657Y-80579726D01*
X60658359Y-80484428D01*
X60658355Y-80484425D01*
X60658354Y-80484424D01*
X60538260Y-80423233D01*
X60538258Y-80423232D01*
X60538255Y-80423231D01*
X60405136Y-80402148D01*
X60405132Y-80402148D01*
X60272012Y-80423231D01*
X60151912Y-80484425D01*
X60151908Y-80484428D01*
X60056610Y-80579726D01*
X60056607Y-80579730D01*
X59995413Y-80699830D01*
X59974330Y-80832949D01*
X41500500Y-80832949D01*
X41500500Y-79766530D01*
X94504500Y-79766530D01*
X94504500Y-79973469D01*
X94544868Y-80176412D01*
X94544870Y-80176420D01*
X94624059Y-80367598D01*
X94661232Y-80423231D01*
X94739024Y-80539657D01*
X94885342Y-80685975D01*
X94885345Y-80685977D01*
X95057402Y-80800941D01*
X95248580Y-80880130D01*
X95451530Y-80920499D01*
X95451534Y-80920500D01*
X95451535Y-80920500D01*
X95908466Y-80920500D01*
X95908467Y-80920499D01*
X96111420Y-80880130D01*
X96302598Y-80800941D01*
X96474655Y-80685977D01*
X96620977Y-80539655D01*
X96735941Y-80367598D01*
X96815130Y-80176420D01*
X96855500Y-79973465D01*
X96855500Y-79766535D01*
X96815130Y-79563580D01*
X96735941Y-79372402D01*
X96620977Y-79200345D01*
X96620975Y-79200342D01*
X96474657Y-79054024D01*
X96321175Y-78951472D01*
X96302598Y-78939059D01*
X96184833Y-78890279D01*
X96111420Y-78859870D01*
X96111412Y-78859868D01*
X95908469Y-78819500D01*
X95908465Y-78819500D01*
X95451535Y-78819500D01*
X95451530Y-78819500D01*
X95248587Y-78859868D01*
X95248579Y-78859870D01*
X95057403Y-78939058D01*
X94885342Y-79054024D01*
X94739024Y-79200342D01*
X94624058Y-79372403D01*
X94544870Y-79563579D01*
X94544868Y-79563587D01*
X94504500Y-79766530D01*
X41500500Y-79766530D01*
X41500500Y-79069997D01*
X59169196Y-79069997D01*
X59169196Y-79070002D01*
X59190279Y-79203121D01*
X59190280Y-79203124D01*
X59190281Y-79203126D01*
X59239641Y-79300000D01*
X59251473Y-79323221D01*
X59251476Y-79323225D01*
X59346774Y-79418523D01*
X59346778Y-79418526D01*
X59346780Y-79418528D01*
X59466874Y-79479719D01*
X59466876Y-79479719D01*
X59466878Y-79479720D01*
X59599998Y-79500804D01*
X59600000Y-79500804D01*
X59600002Y-79500804D01*
X59733121Y-79479720D01*
X59733121Y-79479719D01*
X59733126Y-79479719D01*
X59853220Y-79418528D01*
X59948528Y-79323220D01*
X59960361Y-79299997D01*
X61019196Y-79299997D01*
X61019196Y-79300002D01*
X61040279Y-79433121D01*
X61040280Y-79433124D01*
X61040281Y-79433126D01*
X61064022Y-79479720D01*
X61101473Y-79553221D01*
X61101476Y-79553225D01*
X61196774Y-79648523D01*
X61196778Y-79648526D01*
X61196780Y-79648528D01*
X61316874Y-79709719D01*
X61316876Y-79709719D01*
X61316878Y-79709720D01*
X61449998Y-79730804D01*
X61450000Y-79730804D01*
X61450002Y-79730804D01*
X61583121Y-79709720D01*
X61583121Y-79709719D01*
X61583126Y-79709719D01*
X61703220Y-79648528D01*
X61798528Y-79553220D01*
X61859719Y-79433126D01*
X61862031Y-79418528D01*
X61880804Y-79300002D01*
X61880804Y-79299997D01*
X61859720Y-79166878D01*
X61859719Y-79166876D01*
X61859719Y-79166874D01*
X61798528Y-79046780D01*
X61798526Y-79046778D01*
X61798523Y-79046774D01*
X61703225Y-78951476D01*
X61703221Y-78951473D01*
X61703220Y-78951472D01*
X61583126Y-78890281D01*
X61583124Y-78890280D01*
X61583121Y-78890279D01*
X61450002Y-78869196D01*
X61449998Y-78869196D01*
X61316878Y-78890279D01*
X61196778Y-78951473D01*
X61196774Y-78951476D01*
X61101476Y-79046774D01*
X61101473Y-79046778D01*
X61040279Y-79166878D01*
X61019196Y-79299997D01*
X59960361Y-79299997D01*
X60009719Y-79203126D01*
X60009720Y-79203121D01*
X60030804Y-79070002D01*
X60030804Y-79069997D01*
X60009720Y-78936878D01*
X60009719Y-78936876D01*
X60009719Y-78936874D01*
X59948528Y-78816780D01*
X59948526Y-78816778D01*
X59948523Y-78816774D01*
X59853225Y-78721476D01*
X59853221Y-78721473D01*
X59853220Y-78721472D01*
X59733126Y-78660281D01*
X59733124Y-78660280D01*
X59733121Y-78660279D01*
X59600002Y-78639196D01*
X59599998Y-78639196D01*
X59466878Y-78660279D01*
X59346778Y-78721473D01*
X59346774Y-78721476D01*
X59251476Y-78816774D01*
X59251473Y-78816778D01*
X59190279Y-78936878D01*
X59169196Y-79069997D01*
X41500500Y-79069997D01*
X41500500Y-78597497D01*
X82354196Y-78597497D01*
X82354196Y-78597502D01*
X82375279Y-78730621D01*
X82375280Y-78730624D01*
X82375281Y-78730626D01*
X82419176Y-78816774D01*
X82436473Y-78850721D01*
X82436476Y-78850725D01*
X82531774Y-78946023D01*
X82531778Y-78946026D01*
X82531780Y-78946028D01*
X82651874Y-79007219D01*
X82651876Y-79007219D01*
X82651878Y-79007220D01*
X82784998Y-79028304D01*
X82785000Y-79028304D01*
X82785002Y-79028304D01*
X82918121Y-79007220D01*
X82918121Y-79007219D01*
X82918126Y-79007219D01*
X83038220Y-78946028D01*
X83133528Y-78850720D01*
X83194719Y-78730626D01*
X83215804Y-78597500D01*
X83199044Y-78491682D01*
X83194720Y-78464378D01*
X83194719Y-78464376D01*
X83194719Y-78464374D01*
X83133528Y-78344280D01*
X83133526Y-78344278D01*
X83133523Y-78344274D01*
X83038225Y-78248976D01*
X83038221Y-78248973D01*
X83038220Y-78248972D01*
X82918126Y-78187781D01*
X82918124Y-78187780D01*
X82918121Y-78187779D01*
X82785002Y-78166696D01*
X82784998Y-78166696D01*
X82651878Y-78187779D01*
X82531778Y-78248973D01*
X82531774Y-78248976D01*
X82436476Y-78344274D01*
X82436473Y-78344278D01*
X82375279Y-78464378D01*
X82354196Y-78597497D01*
X41500500Y-78597497D01*
X41500500Y-77240067D01*
X62743120Y-77240067D01*
X62743120Y-77240072D01*
X62764203Y-77373191D01*
X62764204Y-77373194D01*
X62764205Y-77373196D01*
X62825396Y-77493290D01*
X62825397Y-77493291D01*
X62825400Y-77493295D01*
X62920698Y-77588593D01*
X62920702Y-77588596D01*
X62920704Y-77588598D01*
X63040798Y-77649789D01*
X63040800Y-77649789D01*
X63040802Y-77649790D01*
X63183563Y-77672401D01*
X63183231Y-77674495D01*
X63237936Y-77690559D01*
X63283691Y-77743363D01*
X63293370Y-77775476D01*
X63314203Y-77907015D01*
X63314204Y-77907018D01*
X63314205Y-77907020D01*
X63347688Y-77972734D01*
X63375397Y-78027115D01*
X63375400Y-78027119D01*
X63470698Y-78122417D01*
X63470702Y-78122420D01*
X63470704Y-78122422D01*
X63590798Y-78183613D01*
X63590800Y-78183613D01*
X63590802Y-78183614D01*
X63723922Y-78204698D01*
X63723924Y-78204698D01*
X63723926Y-78204698D01*
X63857045Y-78183614D01*
X63857045Y-78183613D01*
X63857050Y-78183613D01*
X63977144Y-78122422D01*
X64072452Y-78027114D01*
X64133643Y-77907020D01*
X64143466Y-77845000D01*
X64145842Y-77829997D01*
X80119196Y-77829997D01*
X80119196Y-77830002D01*
X80140279Y-77963121D01*
X80140280Y-77963124D01*
X80140281Y-77963126D01*
X80201472Y-78083220D01*
X80201473Y-78083221D01*
X80201476Y-78083225D01*
X80296774Y-78178523D01*
X80296778Y-78178526D01*
X80296780Y-78178528D01*
X80416874Y-78239719D01*
X80416876Y-78239719D01*
X80416878Y-78239720D01*
X80549998Y-78260804D01*
X80550000Y-78260804D01*
X80550002Y-78260804D01*
X80683121Y-78239720D01*
X80683121Y-78239719D01*
X80683126Y-78239719D01*
X80803220Y-78178528D01*
X80898528Y-78083220D01*
X80959719Y-77963126D01*
X80959720Y-77963121D01*
X80980804Y-77830002D01*
X80980804Y-77829997D01*
X80959720Y-77696878D01*
X80959719Y-77696876D01*
X80959719Y-77696874D01*
X80898528Y-77576780D01*
X80898526Y-77576778D01*
X80898523Y-77576774D01*
X80803225Y-77481476D01*
X80803221Y-77481473D01*
X80803220Y-77481472D01*
X80683126Y-77420281D01*
X80683124Y-77420280D01*
X80683121Y-77420279D01*
X80550002Y-77399196D01*
X80549998Y-77399196D01*
X80416878Y-77420279D01*
X80296778Y-77481473D01*
X80296774Y-77481476D01*
X80201476Y-77576774D01*
X80201473Y-77576778D01*
X80140279Y-77696878D01*
X80119196Y-77829997D01*
X64145842Y-77829997D01*
X64154728Y-77773896D01*
X64154728Y-77773891D01*
X64133644Y-77640772D01*
X64133643Y-77640770D01*
X64133643Y-77640768D01*
X64072452Y-77520674D01*
X64072450Y-77520672D01*
X64072447Y-77520668D01*
X63977149Y-77425370D01*
X63977145Y-77425367D01*
X63977144Y-77425366D01*
X63857050Y-77364175D01*
X63857048Y-77364174D01*
X63857045Y-77364173D01*
X63714285Y-77341563D01*
X63714616Y-77339468D01*
X63659912Y-77323405D01*
X63614157Y-77270601D01*
X63604478Y-77238488D01*
X63585711Y-77120000D01*
X94430261Y-77120000D01*
X95275854Y-77120000D01*
X95237370Y-77186657D01*
X95205000Y-77307465D01*
X95205000Y-77432535D01*
X95237370Y-77553343D01*
X95275854Y-77620000D01*
X94430261Y-77620000D01*
X94433315Y-77639285D01*
X94433318Y-77639295D01*
X94489250Y-77811441D01*
X94489252Y-77811447D01*
X94571434Y-77972734D01*
X94677823Y-78119169D01*
X94805830Y-78247176D01*
X94952265Y-78353565D01*
X95113552Y-78435747D01*
X95113555Y-78435748D01*
X95285705Y-78491682D01*
X95430000Y-78514536D01*
X95430000Y-77774145D01*
X95496657Y-77812630D01*
X95617465Y-77845000D01*
X95742535Y-77845000D01*
X95863343Y-77812630D01*
X95930000Y-77774145D01*
X95930000Y-78514535D01*
X96074292Y-78491682D01*
X96074295Y-78491682D01*
X96246444Y-78435748D01*
X96246447Y-78435747D01*
X96407734Y-78353565D01*
X96554169Y-78247176D01*
X96682176Y-78119169D01*
X96788565Y-77972734D01*
X96870747Y-77811447D01*
X96870749Y-77811441D01*
X96926681Y-77639295D01*
X96926684Y-77639285D01*
X96929739Y-77620000D01*
X96084146Y-77620000D01*
X96122630Y-77553343D01*
X96155000Y-77432535D01*
X96155000Y-77307465D01*
X96122630Y-77186657D01*
X96084146Y-77120000D01*
X96929739Y-77120000D01*
X96926684Y-77100714D01*
X96926681Y-77100704D01*
X96870749Y-76928558D01*
X96870747Y-76928552D01*
X96788565Y-76767265D01*
X96682176Y-76620830D01*
X96554169Y-76492823D01*
X96407734Y-76386434D01*
X96246447Y-76304252D01*
X96246444Y-76304251D01*
X96074293Y-76248317D01*
X95930000Y-76225462D01*
X95930000Y-76965854D01*
X95863343Y-76927370D01*
X95742535Y-76895000D01*
X95617465Y-76895000D01*
X95496657Y-76927370D01*
X95430000Y-76965854D01*
X95430000Y-76225462D01*
X95285706Y-76248317D01*
X95113555Y-76304251D01*
X95113552Y-76304252D01*
X94952265Y-76386434D01*
X94805830Y-76492823D01*
X94677823Y-76620830D01*
X94571434Y-76767265D01*
X94489252Y-76928552D01*
X94489250Y-76928558D01*
X94433318Y-77100704D01*
X94433315Y-77100714D01*
X94430261Y-77120000D01*
X63585711Y-77120000D01*
X63583644Y-77106948D01*
X63583643Y-77106946D01*
X63583643Y-77106944D01*
X63522452Y-76986850D01*
X63522450Y-76986848D01*
X63522447Y-76986844D01*
X63427149Y-76891546D01*
X63427145Y-76891543D01*
X63427144Y-76891542D01*
X63307050Y-76830351D01*
X63307048Y-76830350D01*
X63307045Y-76830349D01*
X63173926Y-76809266D01*
X63173922Y-76809266D01*
X63040802Y-76830349D01*
X62920702Y-76891543D01*
X62920698Y-76891546D01*
X62825400Y-76986844D01*
X62825397Y-76986848D01*
X62764203Y-77106948D01*
X62743120Y-77240067D01*
X41500500Y-77240067D01*
X41500500Y-76179997D01*
X58549196Y-76179997D01*
X58549196Y-76180002D01*
X58570279Y-76313121D01*
X58570280Y-76313124D01*
X58570281Y-76313126D01*
X58631472Y-76433220D01*
X58631473Y-76433221D01*
X58631476Y-76433225D01*
X58726774Y-76528523D01*
X58726778Y-76528526D01*
X58726780Y-76528528D01*
X58846874Y-76589719D01*
X58846876Y-76589719D01*
X58846878Y-76589720D01*
X58979998Y-76610804D01*
X58980000Y-76610804D01*
X58980002Y-76610804D01*
X59113121Y-76589720D01*
X59113121Y-76589719D01*
X59113126Y-76589719D01*
X59233220Y-76528528D01*
X59328528Y-76433220D01*
X59389719Y-76313126D01*
X59389720Y-76313121D01*
X59410804Y-76180002D01*
X59410804Y-76179997D01*
X59389720Y-76046878D01*
X59389719Y-76046876D01*
X59389719Y-76046874D01*
X59328528Y-75926780D01*
X59328526Y-75926778D01*
X59328523Y-75926774D01*
X59233225Y-75831476D01*
X59233221Y-75831473D01*
X59233220Y-75831472D01*
X59113126Y-75770281D01*
X59113124Y-75770280D01*
X59113121Y-75770279D01*
X58980002Y-75749196D01*
X58979998Y-75749196D01*
X58846878Y-75770279D01*
X58726778Y-75831473D01*
X58726774Y-75831476D01*
X58631476Y-75926774D01*
X58631473Y-75926778D01*
X58570279Y-76046878D01*
X58549196Y-76179997D01*
X41500500Y-76179997D01*
X41500500Y-75699997D01*
X60019196Y-75699997D01*
X60019196Y-75700002D01*
X60040279Y-75833121D01*
X60040280Y-75833124D01*
X60040281Y-75833126D01*
X60101472Y-75953220D01*
X60101473Y-75953221D01*
X60101476Y-75953225D01*
X60196774Y-76048523D01*
X60196778Y-76048526D01*
X60196780Y-76048528D01*
X60316874Y-76109719D01*
X60316876Y-76109719D01*
X60316878Y-76109720D01*
X60449998Y-76130804D01*
X60450000Y-76130804D01*
X60450002Y-76130804D01*
X60583121Y-76109720D01*
X60583121Y-76109719D01*
X60583126Y-76109719D01*
X60703220Y-76048528D01*
X60798528Y-75953220D01*
X60859719Y-75833126D01*
X60859720Y-75833121D01*
X60880805Y-75699997D01*
X62743120Y-75699997D01*
X62743120Y-75700002D01*
X62764203Y-75833121D01*
X62764204Y-75833124D01*
X62764205Y-75833126D01*
X62825396Y-75953220D01*
X62825397Y-75953221D01*
X62825400Y-75953225D01*
X62920698Y-76048523D01*
X62920702Y-76048526D01*
X62920704Y-76048528D01*
X63040798Y-76109719D01*
X63040800Y-76109719D01*
X63040802Y-76109720D01*
X63173922Y-76130804D01*
X63173924Y-76130804D01*
X63173926Y-76130804D01*
X63307045Y-76109720D01*
X63307045Y-76109719D01*
X63307050Y-76109719D01*
X63427144Y-76048528D01*
X63522452Y-75953220D01*
X63583643Y-75833126D01*
X63583644Y-75833121D01*
X63604728Y-75700002D01*
X63604728Y-75699999D01*
X63603342Y-75691251D01*
X63612293Y-75621957D01*
X63657287Y-75568504D01*
X63706411Y-75549375D01*
X63807931Y-75533297D01*
X63928025Y-75472106D01*
X64023333Y-75376798D01*
X64068834Y-75287497D01*
X75524196Y-75287497D01*
X75524196Y-75287502D01*
X75545279Y-75420621D01*
X75545280Y-75420624D01*
X75545281Y-75420626D01*
X75606472Y-75540720D01*
X75606473Y-75540721D01*
X75606476Y-75540725D01*
X75701774Y-75636023D01*
X75701778Y-75636026D01*
X75701780Y-75636028D01*
X75821874Y-75697219D01*
X75821876Y-75697219D01*
X75821878Y-75697220D01*
X75954998Y-75718304D01*
X75955000Y-75718304D01*
X75955002Y-75718304D01*
X76088121Y-75697220D01*
X76088121Y-75697219D01*
X76088126Y-75697219D01*
X76208220Y-75636028D01*
X76303528Y-75540720D01*
X76364719Y-75420626D01*
X76371660Y-75376803D01*
X76384221Y-75297497D01*
X80364196Y-75297497D01*
X80364196Y-75297502D01*
X80385279Y-75430621D01*
X80385280Y-75430624D01*
X80385281Y-75430626D01*
X80446472Y-75550720D01*
X80446473Y-75550721D01*
X80446476Y-75550725D01*
X80541774Y-75646023D01*
X80541778Y-75646026D01*
X80541780Y-75646028D01*
X80661874Y-75707219D01*
X80661876Y-75707219D01*
X80661878Y-75707220D01*
X80794998Y-75728304D01*
X80795000Y-75728304D01*
X80795002Y-75728304D01*
X80928121Y-75707220D01*
X80928121Y-75707219D01*
X80928126Y-75707219D01*
X81048220Y-75646028D01*
X81143528Y-75550720D01*
X81204719Y-75430626D01*
X81207887Y-75410626D01*
X81225804Y-75297502D01*
X81225804Y-75297497D01*
X81222636Y-75277497D01*
X82144196Y-75277497D01*
X82144196Y-75277502D01*
X82165279Y-75410621D01*
X82165280Y-75410624D01*
X82165281Y-75410626D01*
X82226472Y-75530720D01*
X82226473Y-75530721D01*
X82226476Y-75530725D01*
X82321774Y-75626023D01*
X82321778Y-75626026D01*
X82321780Y-75626028D01*
X82441874Y-75687219D01*
X82441876Y-75687219D01*
X82441878Y-75687220D01*
X82574998Y-75708304D01*
X82575000Y-75708304D01*
X82575002Y-75708304D01*
X82708121Y-75687220D01*
X82708121Y-75687219D01*
X82708126Y-75687219D01*
X82828220Y-75626028D01*
X82923528Y-75530720D01*
X82984719Y-75410626D01*
X82991534Y-75367596D01*
X83005804Y-75277502D01*
X83005804Y-75277497D01*
X82984720Y-75144378D01*
X82984719Y-75144376D01*
X82984719Y-75144374D01*
X82923528Y-75024280D01*
X82923526Y-75024278D01*
X82923523Y-75024274D01*
X82828225Y-74928976D01*
X82828221Y-74928973D01*
X82828220Y-74928972D01*
X82708126Y-74867781D01*
X82708124Y-74867780D01*
X82708121Y-74867779D01*
X82575002Y-74846696D01*
X82574998Y-74846696D01*
X82441878Y-74867779D01*
X82321778Y-74928973D01*
X82321774Y-74928976D01*
X82226476Y-75024274D01*
X82226473Y-75024278D01*
X82165279Y-75144378D01*
X82144196Y-75277497D01*
X81222636Y-75277497D01*
X81204720Y-75164378D01*
X81204719Y-75164376D01*
X81204719Y-75164374D01*
X81143528Y-75044280D01*
X81143526Y-75044278D01*
X81143523Y-75044274D01*
X81048225Y-74948976D01*
X81048221Y-74948973D01*
X81048220Y-74948972D01*
X80928126Y-74887781D01*
X80928124Y-74887780D01*
X80928121Y-74887779D01*
X80795002Y-74866696D01*
X80794998Y-74866696D01*
X80661878Y-74887779D01*
X80661874Y-74887780D01*
X80661874Y-74887781D01*
X80581811Y-74928575D01*
X80541778Y-74948973D01*
X80541774Y-74948976D01*
X80446476Y-75044274D01*
X80446473Y-75044278D01*
X80446472Y-75044280D01*
X80395470Y-75144378D01*
X80385279Y-75164378D01*
X80364196Y-75297497D01*
X76384221Y-75297497D01*
X76385804Y-75287502D01*
X76385804Y-75287497D01*
X76364720Y-75154378D01*
X76364719Y-75154376D01*
X76364719Y-75154374D01*
X76303528Y-75034280D01*
X76303526Y-75034278D01*
X76303523Y-75034274D01*
X76208225Y-74938976D01*
X76208221Y-74938973D01*
X76208220Y-74938972D01*
X76088126Y-74877781D01*
X76088124Y-74877780D01*
X76088121Y-74877779D01*
X75955002Y-74856696D01*
X75954998Y-74856696D01*
X75821878Y-74877779D01*
X75701778Y-74938973D01*
X75701774Y-74938976D01*
X75606476Y-75034274D01*
X75606473Y-75034278D01*
X75606472Y-75034280D01*
X75556513Y-75132331D01*
X75545279Y-75154378D01*
X75524196Y-75287497D01*
X64068834Y-75287497D01*
X64084524Y-75256704D01*
X64100731Y-75154378D01*
X64105609Y-75123580D01*
X64105609Y-75123575D01*
X64084525Y-74990456D01*
X64084524Y-74990454D01*
X64084524Y-74990452D01*
X64070327Y-74962588D01*
X64057431Y-74893925D01*
X64083706Y-74829184D01*
X64093123Y-74818624D01*
X64145218Y-74766530D01*
X94504500Y-74766530D01*
X94504500Y-74973469D01*
X94544868Y-75176412D01*
X94544870Y-75176420D01*
X94595111Y-75297713D01*
X94624059Y-75367598D01*
X94647864Y-75403225D01*
X94739024Y-75539657D01*
X94885342Y-75685975D01*
X94885345Y-75685977D01*
X95057402Y-75800941D01*
X95248580Y-75880130D01*
X95451530Y-75920499D01*
X95451534Y-75920500D01*
X95451535Y-75920500D01*
X95908466Y-75920500D01*
X95908467Y-75920499D01*
X96111420Y-75880130D01*
X96302598Y-75800941D01*
X96474655Y-75685977D01*
X96620977Y-75539655D01*
X96735941Y-75367598D01*
X96815130Y-75176420D01*
X96855500Y-74973465D01*
X96855500Y-74766535D01*
X96815130Y-74563580D01*
X96735941Y-74372402D01*
X96620977Y-74200345D01*
X96620975Y-74200342D01*
X96474657Y-74054024D01*
X96306661Y-73941774D01*
X96302598Y-73939059D01*
X96111420Y-73859870D01*
X96111412Y-73859868D01*
X95908469Y-73819500D01*
X95908465Y-73819500D01*
X95451535Y-73819500D01*
X95451530Y-73819500D01*
X95248587Y-73859868D01*
X95248579Y-73859870D01*
X95057403Y-73939058D01*
X94885342Y-74054024D01*
X94739024Y-74200342D01*
X94624058Y-74372403D01*
X94544870Y-74563579D01*
X94544868Y-74563587D01*
X94504500Y-74766530D01*
X64145218Y-74766530D01*
X64168528Y-74743220D01*
X64229719Y-74623126D01*
X64232634Y-74604720D01*
X64250804Y-74490002D01*
X64250804Y-74489997D01*
X64229720Y-74356878D01*
X64229719Y-74356876D01*
X64229719Y-74356874D01*
X64168528Y-74236780D01*
X64168526Y-74236778D01*
X64168523Y-74236774D01*
X64126746Y-74194997D01*
X78694196Y-74194997D01*
X78694196Y-74195002D01*
X78715279Y-74328121D01*
X78715280Y-74328124D01*
X78715281Y-74328126D01*
X78776472Y-74448220D01*
X78776473Y-74448221D01*
X78776476Y-74448225D01*
X78871774Y-74543523D01*
X78871778Y-74543526D01*
X78871780Y-74543528D01*
X78991874Y-74604719D01*
X78991876Y-74604719D01*
X78991878Y-74604720D01*
X79124998Y-74625804D01*
X79125000Y-74625804D01*
X79125002Y-74625804D01*
X79258121Y-74604720D01*
X79258121Y-74604719D01*
X79258126Y-74604719D01*
X79378220Y-74543528D01*
X79473528Y-74448220D01*
X79534719Y-74328126D01*
X79549188Y-74236774D01*
X79555804Y-74195002D01*
X79555804Y-74194997D01*
X79534720Y-74061878D01*
X79534719Y-74061876D01*
X79534719Y-74061874D01*
X79473528Y-73941780D01*
X79473526Y-73941778D01*
X79473523Y-73941774D01*
X79378225Y-73846476D01*
X79378221Y-73846473D01*
X79378220Y-73846472D01*
X79258126Y-73785281D01*
X79258124Y-73785280D01*
X79258121Y-73785279D01*
X79125002Y-73764196D01*
X79124998Y-73764196D01*
X78991878Y-73785279D01*
X78871778Y-73846473D01*
X78871774Y-73846476D01*
X78776476Y-73941774D01*
X78776473Y-73941778D01*
X78715279Y-74061878D01*
X78694196Y-74194997D01*
X64126746Y-74194997D01*
X64073225Y-74141476D01*
X64073221Y-74141473D01*
X64073220Y-74141472D01*
X63953126Y-74080281D01*
X63953124Y-74080280D01*
X63953121Y-74080279D01*
X63820002Y-74059196D01*
X63819998Y-74059196D01*
X63686878Y-74080279D01*
X63566778Y-74141473D01*
X63566774Y-74141476D01*
X63471476Y-74236774D01*
X63471473Y-74236778D01*
X63410279Y-74356878D01*
X63389196Y-74489997D01*
X63389196Y-74490002D01*
X63410279Y-74623122D01*
X63424477Y-74650987D01*
X63437372Y-74719656D01*
X63411094Y-74784396D01*
X63401673Y-74794961D01*
X63326278Y-74870356D01*
X63265084Y-74990456D01*
X63244001Y-75123575D01*
X63244001Y-75123580D01*
X63245387Y-75132331D01*
X63236432Y-75201625D01*
X63191436Y-75255077D01*
X63142312Y-75274202D01*
X63040802Y-75290279D01*
X62920702Y-75351473D01*
X62920698Y-75351476D01*
X62825400Y-75446774D01*
X62825397Y-75446778D01*
X62764203Y-75566878D01*
X62743120Y-75699997D01*
X60880805Y-75699997D01*
X60882331Y-75690361D01*
X60884924Y-75690771D01*
X60900489Y-75637765D01*
X60953293Y-75592010D01*
X60990608Y-75583892D01*
X60990361Y-75582331D01*
X61133121Y-75559720D01*
X61133121Y-75559719D01*
X61133126Y-75559719D01*
X61253220Y-75498528D01*
X61348528Y-75403220D01*
X61409719Y-75283126D01*
X61410611Y-75277497D01*
X61430804Y-75150002D01*
X61430804Y-75149997D01*
X61409720Y-75016878D01*
X61409719Y-75016876D01*
X61409719Y-75016874D01*
X61348528Y-74896780D01*
X61348526Y-74896778D01*
X61348523Y-74896774D01*
X61253225Y-74801476D01*
X61253221Y-74801473D01*
X61253220Y-74801472D01*
X61133126Y-74740281D01*
X61133124Y-74740280D01*
X61133121Y-74740279D01*
X61000002Y-74719196D01*
X60999998Y-74719196D01*
X60866878Y-74740279D01*
X60866874Y-74740280D01*
X60866874Y-74740281D01*
X60815350Y-74766534D01*
X60746778Y-74801473D01*
X60746774Y-74801476D01*
X60651476Y-74896774D01*
X60651473Y-74896778D01*
X60651472Y-74896780D01*
X60612399Y-74973466D01*
X60590279Y-75016878D01*
X60567669Y-75159639D01*
X60565075Y-75159228D01*
X60549511Y-75212235D01*
X60496707Y-75257990D01*
X60459391Y-75266107D01*
X60459639Y-75267669D01*
X60316878Y-75290279D01*
X60196778Y-75351473D01*
X60196774Y-75351476D01*
X60101476Y-75446774D01*
X60101473Y-75446778D01*
X60040279Y-75566878D01*
X60019196Y-75699997D01*
X41500500Y-75699997D01*
X41500500Y-73322497D01*
X63286696Y-73322497D01*
X63286696Y-73322502D01*
X63307779Y-73455621D01*
X63307780Y-73455624D01*
X63307781Y-73455626D01*
X63368972Y-73575720D01*
X63368973Y-73575721D01*
X63368976Y-73575725D01*
X63464274Y-73671023D01*
X63464278Y-73671026D01*
X63464280Y-73671028D01*
X63584374Y-73732219D01*
X63584376Y-73732219D01*
X63584378Y-73732220D01*
X63717498Y-73753304D01*
X63717500Y-73753304D01*
X63717502Y-73753304D01*
X63850621Y-73732220D01*
X63850621Y-73732219D01*
X63850626Y-73732219D01*
X63970720Y-73671028D01*
X64066028Y-73575720D01*
X64127219Y-73455626D01*
X64127220Y-73455621D01*
X64148304Y-73322502D01*
X64148304Y-73322497D01*
X64127220Y-73189378D01*
X64127219Y-73189376D01*
X64127219Y-73189374D01*
X64066028Y-73069280D01*
X64066026Y-73069278D01*
X64066023Y-73069274D01*
X63970725Y-72973976D01*
X63970721Y-72973973D01*
X63970720Y-72973972D01*
X63850626Y-72912781D01*
X63850624Y-72912780D01*
X63850621Y-72912779D01*
X63717502Y-72891696D01*
X63717498Y-72891696D01*
X63584378Y-72912779D01*
X63464278Y-72973973D01*
X63464274Y-72973976D01*
X63368976Y-73069274D01*
X63368973Y-73069278D01*
X63307779Y-73189378D01*
X63286696Y-73322497D01*
X41500500Y-73322497D01*
X41500500Y-72709997D01*
X64544196Y-72709997D01*
X64544196Y-72710002D01*
X64565279Y-72843121D01*
X64565280Y-72843124D01*
X64565281Y-72843126D01*
X64626472Y-72963220D01*
X64626473Y-72963221D01*
X64626476Y-72963225D01*
X64721774Y-73058523D01*
X64721778Y-73058526D01*
X64721780Y-73058528D01*
X64841874Y-73119719D01*
X64841876Y-73119719D01*
X64841878Y-73119720D01*
X64974998Y-73140804D01*
X64975000Y-73140804D01*
X64975002Y-73140804D01*
X65108121Y-73119720D01*
X65108121Y-73119719D01*
X65108126Y-73119719D01*
X65228220Y-73058528D01*
X65323528Y-72963220D01*
X65384719Y-72843126D01*
X65391783Y-72798526D01*
X65405804Y-72710002D01*
X65405804Y-72709997D01*
X65384720Y-72576878D01*
X65384719Y-72576876D01*
X65384719Y-72576874D01*
X65323528Y-72456780D01*
X65323526Y-72456778D01*
X65323523Y-72456774D01*
X65316746Y-72449997D01*
X78929196Y-72449997D01*
X78929196Y-72450002D01*
X78950279Y-72583121D01*
X78950280Y-72583124D01*
X78950281Y-72583126D01*
X78997813Y-72676412D01*
X79011473Y-72703221D01*
X79011476Y-72703225D01*
X79106774Y-72798523D01*
X79106778Y-72798526D01*
X79106780Y-72798528D01*
X79226874Y-72859719D01*
X79226876Y-72859719D01*
X79226878Y-72859720D01*
X79359998Y-72880804D01*
X79360000Y-72880804D01*
X79360002Y-72880804D01*
X79493121Y-72859720D01*
X79493121Y-72859719D01*
X79493126Y-72859719D01*
X79613220Y-72798528D01*
X79708528Y-72703220D01*
X79769719Y-72583126D01*
X79770709Y-72576874D01*
X79790804Y-72450002D01*
X79790804Y-72449997D01*
X79769720Y-72316878D01*
X79769719Y-72316876D01*
X79769719Y-72316874D01*
X79744067Y-72266530D01*
X94504500Y-72266530D01*
X94504500Y-72473469D01*
X94544868Y-72676412D01*
X94544870Y-72676420D01*
X94624058Y-72867596D01*
X94739024Y-73039657D01*
X94885342Y-73185975D01*
X94885345Y-73185977D01*
X95057402Y-73300941D01*
X95248580Y-73380130D01*
X95451530Y-73420499D01*
X95451534Y-73420500D01*
X95451535Y-73420500D01*
X95908466Y-73420500D01*
X95908467Y-73420499D01*
X96111420Y-73380130D01*
X96302598Y-73300941D01*
X96474655Y-73185977D01*
X96620977Y-73039655D01*
X96735941Y-72867598D01*
X96815130Y-72676420D01*
X96855500Y-72473465D01*
X96855500Y-72266535D01*
X96815130Y-72063580D01*
X96735941Y-71872402D01*
X96620977Y-71700345D01*
X96620975Y-71700342D01*
X96474657Y-71554024D01*
X96346694Y-71468523D01*
X96302598Y-71439059D01*
X96254316Y-71419060D01*
X96111420Y-71359870D01*
X96111412Y-71359868D01*
X95908469Y-71319500D01*
X95908465Y-71319500D01*
X95451535Y-71319500D01*
X95451530Y-71319500D01*
X95248587Y-71359868D01*
X95248579Y-71359870D01*
X95057403Y-71439058D01*
X94885342Y-71554024D01*
X94739024Y-71700342D01*
X94624058Y-71872403D01*
X94544870Y-72063579D01*
X94544868Y-72063587D01*
X94504500Y-72266530D01*
X79744067Y-72266530D01*
X79708528Y-72196780D01*
X79708526Y-72196778D01*
X79708523Y-72196774D01*
X79613225Y-72101476D01*
X79613221Y-72101473D01*
X79613220Y-72101472D01*
X79493126Y-72040281D01*
X79493124Y-72040280D01*
X79493121Y-72040279D01*
X79360002Y-72019196D01*
X79359998Y-72019196D01*
X79226878Y-72040279D01*
X79106778Y-72101473D01*
X79106774Y-72101476D01*
X79011476Y-72196774D01*
X79011473Y-72196778D01*
X78950279Y-72316878D01*
X78929196Y-72449997D01*
X65316746Y-72449997D01*
X65228225Y-72361476D01*
X65228221Y-72361473D01*
X65228220Y-72361472D01*
X65108126Y-72300281D01*
X65108124Y-72300280D01*
X65108121Y-72300279D01*
X64975002Y-72279196D01*
X64974998Y-72279196D01*
X64841878Y-72300279D01*
X64721778Y-72361473D01*
X64721774Y-72361476D01*
X64626476Y-72456774D01*
X64626473Y-72456778D01*
X64565279Y-72576878D01*
X64544196Y-72709997D01*
X41500500Y-72709997D01*
X41500500Y-71396530D01*
X42334500Y-71396530D01*
X42334500Y-71603469D01*
X42374868Y-71806412D01*
X42374870Y-71806420D01*
X42446769Y-71980000D01*
X42454059Y-71997598D01*
X42498151Y-72063587D01*
X42569024Y-72169657D01*
X42715342Y-72315975D01*
X42715345Y-72315977D01*
X42887402Y-72430941D01*
X43078580Y-72510130D01*
X43281530Y-72550499D01*
X43281534Y-72550500D01*
X43281535Y-72550500D01*
X43738466Y-72550500D01*
X43738467Y-72550499D01*
X43941420Y-72510130D01*
X44132598Y-72430941D01*
X44304655Y-72315977D01*
X44450977Y-72169655D01*
X44565941Y-71997598D01*
X44573232Y-71979997D01*
X58369196Y-71979997D01*
X58369196Y-71980002D01*
X58390279Y-72113121D01*
X58390280Y-72113124D01*
X58390281Y-72113126D01*
X58432902Y-72196774D01*
X58451473Y-72233221D01*
X58451476Y-72233225D01*
X58546774Y-72328523D01*
X58546778Y-72328526D01*
X58546780Y-72328528D01*
X58666874Y-72389719D01*
X58666876Y-72389719D01*
X58666878Y-72389720D01*
X58799998Y-72410804D01*
X58800000Y-72410804D01*
X58800002Y-72410804D01*
X58933121Y-72389720D01*
X58933121Y-72389719D01*
X58933126Y-72389719D01*
X59053220Y-72328528D01*
X59148528Y-72233220D01*
X59209719Y-72113126D01*
X59217565Y-72063587D01*
X59230804Y-71980002D01*
X59230804Y-71979997D01*
X59209720Y-71846878D01*
X59209719Y-71846876D01*
X59209719Y-71846874D01*
X59148528Y-71726780D01*
X59148526Y-71726778D01*
X59148523Y-71726774D01*
X59053225Y-71631476D01*
X59053221Y-71631473D01*
X59053220Y-71631472D01*
X58933126Y-71570281D01*
X58933124Y-71570280D01*
X58933121Y-71570279D01*
X58818837Y-71552179D01*
X82169196Y-71552179D01*
X82169196Y-71552184D01*
X82190279Y-71685303D01*
X82190280Y-71685306D01*
X82190281Y-71685308D01*
X82251472Y-71805402D01*
X82251473Y-71805403D01*
X82251476Y-71805407D01*
X82346774Y-71900705D01*
X82346778Y-71900708D01*
X82346780Y-71900710D01*
X82466874Y-71961901D01*
X82466876Y-71961901D01*
X82466878Y-71961902D01*
X82599998Y-71982986D01*
X82600000Y-71982986D01*
X82600002Y-71982986D01*
X82733121Y-71961902D01*
X82733121Y-71961901D01*
X82733126Y-71961901D01*
X82853220Y-71900710D01*
X82948528Y-71805402D01*
X83009719Y-71685308D01*
X83022681Y-71603469D01*
X83030804Y-71552184D01*
X83030804Y-71552179D01*
X83009720Y-71419060D01*
X83009719Y-71419058D01*
X83009719Y-71419056D01*
X82948528Y-71298962D01*
X82948526Y-71298960D01*
X82948523Y-71298956D01*
X82853225Y-71203658D01*
X82853221Y-71203655D01*
X82853220Y-71203654D01*
X82733126Y-71142463D01*
X82733124Y-71142462D01*
X82733121Y-71142461D01*
X82600002Y-71121378D01*
X82599998Y-71121378D01*
X82466878Y-71142461D01*
X82346778Y-71203655D01*
X82346774Y-71203658D01*
X82251476Y-71298956D01*
X82251473Y-71298960D01*
X82190279Y-71419060D01*
X82169196Y-71552179D01*
X58818837Y-71552179D01*
X58800002Y-71549196D01*
X58799998Y-71549196D01*
X58666878Y-71570279D01*
X58546778Y-71631473D01*
X58546774Y-71631476D01*
X58451476Y-71726774D01*
X58451473Y-71726778D01*
X58390279Y-71846878D01*
X58369196Y-71979997D01*
X44573232Y-71979997D01*
X44645130Y-71806420D01*
X44685500Y-71603465D01*
X44685500Y-71396535D01*
X44645130Y-71193580D01*
X44565941Y-71002402D01*
X44550971Y-70979997D01*
X56019196Y-70979997D01*
X56019196Y-70980002D01*
X56040279Y-71113121D01*
X56040280Y-71113124D01*
X56040281Y-71113126D01*
X56101472Y-71233220D01*
X56101473Y-71233221D01*
X56101476Y-71233225D01*
X56196774Y-71328523D01*
X56196778Y-71328526D01*
X56196780Y-71328528D01*
X56316874Y-71389719D01*
X56316876Y-71389719D01*
X56316878Y-71389720D01*
X56449998Y-71410804D01*
X56450000Y-71410804D01*
X56450002Y-71410804D01*
X56583121Y-71389720D01*
X56583121Y-71389719D01*
X56583126Y-71389719D01*
X56703220Y-71328528D01*
X56798528Y-71233220D01*
X56856218Y-71119997D01*
X66009196Y-71119997D01*
X66009196Y-71120002D01*
X66030279Y-71253121D01*
X66030280Y-71253124D01*
X66030281Y-71253126D01*
X66084669Y-71359868D01*
X66091473Y-71373221D01*
X66091476Y-71373225D01*
X66186774Y-71468523D01*
X66186778Y-71468526D01*
X66186780Y-71468528D01*
X66306874Y-71529719D01*
X66306876Y-71529719D01*
X66306878Y-71529720D01*
X66439998Y-71550804D01*
X66440000Y-71550804D01*
X66440002Y-71550804D01*
X66573121Y-71529720D01*
X66573121Y-71529719D01*
X66573126Y-71529719D01*
X66693220Y-71468528D01*
X66788528Y-71373220D01*
X66849719Y-71253126D01*
X66868350Y-71135487D01*
X66898278Y-71072357D01*
X66957590Y-71035425D01*
X66971416Y-71032417D01*
X66988456Y-71029719D01*
X67108550Y-70968528D01*
X67203858Y-70873220D01*
X67265049Y-70753126D01*
X67265050Y-70753121D01*
X67286134Y-70620002D01*
X67286134Y-70619997D01*
X67265050Y-70486878D01*
X67265049Y-70486876D01*
X67265049Y-70486874D01*
X67203858Y-70366780D01*
X67203856Y-70366778D01*
X67203853Y-70366774D01*
X67108555Y-70271476D01*
X67108551Y-70271473D01*
X67108550Y-70271472D01*
X66988456Y-70210281D01*
X66988454Y-70210280D01*
X66988451Y-70210279D01*
X66855332Y-70189196D01*
X66855328Y-70189196D01*
X66722208Y-70210279D01*
X66602108Y-70271473D01*
X66602104Y-70271476D01*
X66506806Y-70366774D01*
X66506803Y-70366778D01*
X66445609Y-70486878D01*
X66426979Y-70604508D01*
X66397050Y-70667643D01*
X66337738Y-70704574D01*
X66323904Y-70707583D01*
X66306876Y-70710279D01*
X66244834Y-70741892D01*
X66186780Y-70771472D01*
X66186779Y-70771473D01*
X66186774Y-70771476D01*
X66091476Y-70866774D01*
X66091473Y-70866778D01*
X66091472Y-70866780D01*
X66033784Y-70980000D01*
X66030279Y-70986878D01*
X66009196Y-71119997D01*
X56856218Y-71119997D01*
X56859719Y-71113126D01*
X56866176Y-71072357D01*
X56880804Y-70980002D01*
X56880804Y-70979997D01*
X56859720Y-70846878D01*
X56859719Y-70846876D01*
X56859719Y-70846874D01*
X56798528Y-70726780D01*
X56798526Y-70726778D01*
X56798523Y-70726774D01*
X56703225Y-70631476D01*
X56703221Y-70631473D01*
X56703220Y-70631472D01*
X56658661Y-70608768D01*
X57460840Y-70608768D01*
X57460840Y-70608773D01*
X57481923Y-70741892D01*
X57481924Y-70741895D01*
X57481925Y-70741897D01*
X57535416Y-70846878D01*
X57543117Y-70861992D01*
X57543120Y-70861996D01*
X57638418Y-70957294D01*
X57638422Y-70957297D01*
X57638424Y-70957299D01*
X57758518Y-71018490D01*
X57758520Y-71018490D01*
X57758522Y-71018491D01*
X57891642Y-71039575D01*
X57891644Y-71039575D01*
X57891646Y-71039575D01*
X58024765Y-71018491D01*
X58024765Y-71018490D01*
X58024770Y-71018490D01*
X58144864Y-70957299D01*
X58240172Y-70861991D01*
X58301363Y-70741897D01*
X58301364Y-70741892D01*
X58322448Y-70608773D01*
X58322448Y-70608768D01*
X58301364Y-70475649D01*
X58301363Y-70475647D01*
X58301363Y-70475645D01*
X58240172Y-70355551D01*
X58240170Y-70355549D01*
X58240167Y-70355545D01*
X58144869Y-70260247D01*
X58144865Y-70260244D01*
X58144864Y-70260243D01*
X58024770Y-70199052D01*
X58024768Y-70199051D01*
X58024765Y-70199050D01*
X57891646Y-70177967D01*
X57891642Y-70177967D01*
X57758522Y-70199050D01*
X57638422Y-70260244D01*
X57638418Y-70260247D01*
X57543120Y-70355545D01*
X57543117Y-70355549D01*
X57481923Y-70475649D01*
X57460840Y-70608768D01*
X56658661Y-70608768D01*
X56583126Y-70570281D01*
X56583124Y-70570280D01*
X56583121Y-70570279D01*
X56450002Y-70549196D01*
X56449998Y-70549196D01*
X56316878Y-70570279D01*
X56196778Y-70631473D01*
X56196774Y-70631476D01*
X56101476Y-70726774D01*
X56101473Y-70726778D01*
X56101472Y-70726780D01*
X56048705Y-70830342D01*
X56040279Y-70846878D01*
X56019196Y-70979997D01*
X44550971Y-70979997D01*
X44450977Y-70830345D01*
X44450975Y-70830342D01*
X44304657Y-70684024D01*
X44208833Y-70619997D01*
X44132598Y-70569059D01*
X43941420Y-70489870D01*
X43941412Y-70489868D01*
X43738469Y-70449500D01*
X43738465Y-70449500D01*
X43281535Y-70449500D01*
X43281530Y-70449500D01*
X43078587Y-70489868D01*
X43078579Y-70489870D01*
X42887403Y-70569058D01*
X42715342Y-70684024D01*
X42569024Y-70830342D01*
X42454058Y-71002403D01*
X42374870Y-71193579D01*
X42374868Y-71193587D01*
X42334500Y-71396530D01*
X41500500Y-71396530D01*
X41500500Y-68896530D01*
X42334500Y-68896530D01*
X42334500Y-69103469D01*
X42374868Y-69306412D01*
X42374870Y-69306420D01*
X42417658Y-69409720D01*
X42454059Y-69497598D01*
X42498151Y-69563587D01*
X42569024Y-69669657D01*
X42715342Y-69815975D01*
X42715345Y-69815977D01*
X42887402Y-69930941D01*
X43078580Y-70010130D01*
X43279006Y-70049997D01*
X43281530Y-70050499D01*
X43281534Y-70050500D01*
X43281535Y-70050500D01*
X43738466Y-70050500D01*
X43738467Y-70050499D01*
X43740991Y-70049997D01*
X54419196Y-70049997D01*
X54419196Y-70050002D01*
X54440279Y-70183121D01*
X54440280Y-70183124D01*
X54440281Y-70183126D01*
X54485298Y-70271476D01*
X54501473Y-70303221D01*
X54501476Y-70303225D01*
X54596774Y-70398523D01*
X54596778Y-70398526D01*
X54596780Y-70398528D01*
X54716874Y-70459719D01*
X54716876Y-70459719D01*
X54716878Y-70459720D01*
X54849998Y-70480804D01*
X54850000Y-70480804D01*
X54850002Y-70480804D01*
X54983121Y-70459720D01*
X54983121Y-70459719D01*
X54983126Y-70459719D01*
X55103220Y-70398528D01*
X55198528Y-70303220D01*
X55259719Y-70183126D01*
X55260781Y-70176420D01*
X55280804Y-70050002D01*
X55280804Y-70049997D01*
X55259720Y-69916878D01*
X55259719Y-69916876D01*
X55259719Y-69916874D01*
X55198528Y-69796780D01*
X55198526Y-69796778D01*
X55198523Y-69796774D01*
X55103225Y-69701476D01*
X55103221Y-69701473D01*
X55103220Y-69701472D01*
X54983126Y-69640281D01*
X54983124Y-69640280D01*
X54983121Y-69640279D01*
X54850002Y-69619196D01*
X54849998Y-69619196D01*
X54716878Y-69640279D01*
X54596778Y-69701473D01*
X54596774Y-69701476D01*
X54501476Y-69796774D01*
X54501473Y-69796778D01*
X54440279Y-69916878D01*
X54419196Y-70049997D01*
X43740991Y-70049997D01*
X43941420Y-70010130D01*
X44132598Y-69930941D01*
X44304655Y-69815977D01*
X44450977Y-69669655D01*
X44565941Y-69497598D01*
X44645130Y-69306420D01*
X44685500Y-69103465D01*
X44685500Y-68896535D01*
X44654363Y-68739997D01*
X55529196Y-68739997D01*
X55529196Y-68740002D01*
X55550279Y-68873121D01*
X55550280Y-68873124D01*
X55550281Y-68873126D01*
X55611472Y-68993220D01*
X55611473Y-68993221D01*
X55611476Y-68993225D01*
X55706774Y-69088523D01*
X55706778Y-69088526D01*
X55706780Y-69088528D01*
X55826874Y-69149719D01*
X55826876Y-69149719D01*
X55826878Y-69149720D01*
X55959998Y-69170804D01*
X55969759Y-69170804D01*
X55969759Y-69172339D01*
X56028333Y-69179904D01*
X56081789Y-69224896D01*
X56102435Y-69291645D01*
X56100921Y-69312824D01*
X56079196Y-69449996D01*
X56079196Y-69450002D01*
X56100279Y-69583121D01*
X56100280Y-69583124D01*
X56100281Y-69583126D01*
X56161472Y-69703220D01*
X56161473Y-69703221D01*
X56161476Y-69703225D01*
X56256774Y-69798523D01*
X56256778Y-69798526D01*
X56256780Y-69798528D01*
X56376874Y-69859719D01*
X56376876Y-69859719D01*
X56376878Y-69859720D01*
X56509998Y-69880804D01*
X56510000Y-69880804D01*
X56510002Y-69880804D01*
X56643121Y-69859720D01*
X56643121Y-69859719D01*
X56643126Y-69859719D01*
X56763220Y-69798528D01*
X56795218Y-69766530D01*
X94504500Y-69766530D01*
X94504500Y-69973469D01*
X94544868Y-70176412D01*
X94544870Y-70176420D01*
X94624058Y-70367596D01*
X94739024Y-70539657D01*
X94885342Y-70685975D01*
X94885345Y-70685977D01*
X95057402Y-70800941D01*
X95248580Y-70880130D01*
X95451530Y-70920499D01*
X95451534Y-70920500D01*
X95451535Y-70920500D01*
X95908466Y-70920500D01*
X95908467Y-70920499D01*
X96111420Y-70880130D01*
X96302598Y-70800941D01*
X96474655Y-70685977D01*
X96620977Y-70539655D01*
X96735941Y-70367598D01*
X96815130Y-70176420D01*
X96855500Y-69973465D01*
X96855500Y-69766535D01*
X96815130Y-69563580D01*
X96735941Y-69372402D01*
X96620977Y-69200345D01*
X96620975Y-69200342D01*
X96474657Y-69054024D01*
X96341556Y-68965090D01*
X96302598Y-68939059D01*
X96288262Y-68933121D01*
X96111420Y-68859870D01*
X96111412Y-68859868D01*
X95908469Y-68819500D01*
X95908465Y-68819500D01*
X95451535Y-68819500D01*
X95451530Y-68819500D01*
X95248587Y-68859868D01*
X95248579Y-68859870D01*
X95057403Y-68939058D01*
X94885342Y-69054024D01*
X94739024Y-69200342D01*
X94624058Y-69372403D01*
X94544870Y-69563579D01*
X94544868Y-69563587D01*
X94504500Y-69766530D01*
X56795218Y-69766530D01*
X56858528Y-69703220D01*
X56919719Y-69583126D01*
X56922815Y-69563579D01*
X56940804Y-69450002D01*
X56940804Y-69449997D01*
X56919720Y-69316878D01*
X56919719Y-69316876D01*
X56919719Y-69316874D01*
X56858528Y-69196780D01*
X56858526Y-69196778D01*
X56858523Y-69196774D01*
X56763225Y-69101476D01*
X56763221Y-69101473D01*
X56763220Y-69101472D01*
X56643126Y-69040281D01*
X56643124Y-69040280D01*
X56643121Y-69040279D01*
X56510002Y-69019196D01*
X56500241Y-69019196D01*
X56500241Y-69017662D01*
X56441651Y-69010088D01*
X56388201Y-68965090D01*
X56367564Y-68898338D01*
X56369078Y-68877174D01*
X56381302Y-68799997D01*
X78219196Y-68799997D01*
X78219196Y-68800002D01*
X78240279Y-68933121D01*
X78240280Y-68933124D01*
X78240281Y-68933126D01*
X78301472Y-69053220D01*
X78301473Y-69053221D01*
X78301476Y-69053225D01*
X78396774Y-69148523D01*
X78396778Y-69148526D01*
X78396780Y-69148528D01*
X78516874Y-69209719D01*
X78516876Y-69209719D01*
X78516878Y-69209720D01*
X78649998Y-69230804D01*
X78650000Y-69230804D01*
X78650002Y-69230804D01*
X78783121Y-69209720D01*
X78783121Y-69209719D01*
X78783126Y-69209719D01*
X78903220Y-69148528D01*
X78998528Y-69053220D01*
X79025646Y-68999997D01*
X87969196Y-68999997D01*
X87969196Y-69000002D01*
X87990279Y-69133121D01*
X87990280Y-69133124D01*
X87990281Y-69133126D01*
X88051472Y-69253220D01*
X88051473Y-69253221D01*
X88051476Y-69253225D01*
X88146774Y-69348523D01*
X88146778Y-69348526D01*
X88146780Y-69348528D01*
X88266874Y-69409719D01*
X88266876Y-69409719D01*
X88266878Y-69409720D01*
X88399998Y-69430804D01*
X88400000Y-69430804D01*
X88400002Y-69430804D01*
X88533121Y-69409720D01*
X88533121Y-69409719D01*
X88533126Y-69409719D01*
X88653220Y-69348528D01*
X88748528Y-69253220D01*
X88809719Y-69133126D01*
X88814732Y-69101476D01*
X88830804Y-69000002D01*
X88830804Y-68999997D01*
X89869196Y-68999997D01*
X89869196Y-69000002D01*
X89890279Y-69133121D01*
X89890280Y-69133124D01*
X89890281Y-69133126D01*
X89951472Y-69253220D01*
X89951473Y-69253221D01*
X89951476Y-69253225D01*
X90046774Y-69348523D01*
X90046778Y-69348526D01*
X90046780Y-69348528D01*
X90166874Y-69409719D01*
X90166876Y-69409719D01*
X90166878Y-69409720D01*
X90299998Y-69430804D01*
X90300000Y-69430804D01*
X90300002Y-69430804D01*
X90433121Y-69409720D01*
X90433121Y-69409719D01*
X90433126Y-69409719D01*
X90553220Y-69348528D01*
X90648528Y-69253220D01*
X90709719Y-69133126D01*
X90714732Y-69101476D01*
X90730804Y-69000002D01*
X90730804Y-68999997D01*
X90709720Y-68866878D01*
X90709719Y-68866876D01*
X90709719Y-68866874D01*
X90648528Y-68746780D01*
X90648526Y-68746778D01*
X90648523Y-68746774D01*
X90553225Y-68651476D01*
X90553221Y-68651473D01*
X90553220Y-68651472D01*
X90433126Y-68590281D01*
X90433124Y-68590280D01*
X90433121Y-68590279D01*
X90300002Y-68569196D01*
X90299998Y-68569196D01*
X90166878Y-68590279D01*
X90046778Y-68651473D01*
X90046774Y-68651476D01*
X89951476Y-68746774D01*
X89951473Y-68746778D01*
X89890279Y-68866878D01*
X89869196Y-68999997D01*
X88830804Y-68999997D01*
X88809720Y-68866878D01*
X88809719Y-68866876D01*
X88809719Y-68866874D01*
X88748528Y-68746780D01*
X88748526Y-68746778D01*
X88748523Y-68746774D01*
X88653225Y-68651476D01*
X88653221Y-68651473D01*
X88653220Y-68651472D01*
X88533126Y-68590281D01*
X88533124Y-68590280D01*
X88533121Y-68590279D01*
X88400002Y-68569196D01*
X88399998Y-68569196D01*
X88266878Y-68590279D01*
X88146778Y-68651473D01*
X88146774Y-68651476D01*
X88051476Y-68746774D01*
X88051473Y-68746778D01*
X87990279Y-68866878D01*
X87969196Y-68999997D01*
X79025646Y-68999997D01*
X79059719Y-68933126D01*
X79065229Y-68898338D01*
X79080804Y-68800002D01*
X79080804Y-68799997D01*
X79059720Y-68666878D01*
X79059719Y-68666876D01*
X79059719Y-68666874D01*
X78998528Y-68546780D01*
X78998526Y-68546778D01*
X78998523Y-68546774D01*
X78903225Y-68451476D01*
X78903221Y-68451473D01*
X78903220Y-68451472D01*
X78783126Y-68390281D01*
X78783124Y-68390280D01*
X78783121Y-68390279D01*
X78650002Y-68369196D01*
X78649998Y-68369196D01*
X78516878Y-68390279D01*
X78396778Y-68451473D01*
X78396774Y-68451476D01*
X78301476Y-68546774D01*
X78301473Y-68546778D01*
X78240279Y-68666878D01*
X78219196Y-68799997D01*
X56381302Y-68799997D01*
X56390804Y-68740002D01*
X56390804Y-68739997D01*
X56369720Y-68606878D01*
X56369719Y-68606876D01*
X56369719Y-68606874D01*
X56308528Y-68486780D01*
X56308526Y-68486778D01*
X56308523Y-68486774D01*
X56213225Y-68391476D01*
X56213221Y-68391473D01*
X56213220Y-68391472D01*
X56093126Y-68330281D01*
X56093124Y-68330280D01*
X56093121Y-68330279D01*
X55960002Y-68309196D01*
X55959998Y-68309196D01*
X55826878Y-68330279D01*
X55706778Y-68391473D01*
X55706774Y-68391476D01*
X55611476Y-68486774D01*
X55611473Y-68486778D01*
X55550279Y-68606878D01*
X55529196Y-68739997D01*
X44654363Y-68739997D01*
X44645130Y-68693580D01*
X44565941Y-68502402D01*
X44450977Y-68330345D01*
X44450975Y-68330342D01*
X44420630Y-68299997D01*
X48544196Y-68299997D01*
X48544196Y-68300002D01*
X48565279Y-68433121D01*
X48565280Y-68433124D01*
X48565281Y-68433126D01*
X48623188Y-68546774D01*
X48626473Y-68553221D01*
X48626476Y-68553225D01*
X48721774Y-68648523D01*
X48721778Y-68648526D01*
X48721780Y-68648528D01*
X48841874Y-68709719D01*
X48841876Y-68709719D01*
X48841878Y-68709720D01*
X48974998Y-68730804D01*
X48975000Y-68730804D01*
X48975002Y-68730804D01*
X49108121Y-68709720D01*
X49108121Y-68709719D01*
X49108126Y-68709719D01*
X49228220Y-68648528D01*
X49323528Y-68553220D01*
X49384719Y-68433126D01*
X49391316Y-68391473D01*
X49405804Y-68300002D01*
X49405804Y-68299997D01*
X49969196Y-68299997D01*
X49969196Y-68300002D01*
X49990279Y-68433121D01*
X49990280Y-68433124D01*
X49990281Y-68433126D01*
X50048188Y-68546774D01*
X50051473Y-68553221D01*
X50051476Y-68553225D01*
X50146774Y-68648523D01*
X50146778Y-68648526D01*
X50146780Y-68648528D01*
X50266874Y-68709719D01*
X50266876Y-68709719D01*
X50266878Y-68709720D01*
X50399998Y-68730804D01*
X50400000Y-68730804D01*
X50400002Y-68730804D01*
X50533121Y-68709720D01*
X50533121Y-68709719D01*
X50533126Y-68709719D01*
X50653220Y-68648528D01*
X50748528Y-68553220D01*
X50809719Y-68433126D01*
X50816316Y-68391473D01*
X50830804Y-68300002D01*
X50830804Y-68299997D01*
X50809720Y-68166878D01*
X50809719Y-68166876D01*
X50809719Y-68166874D01*
X50748528Y-68046780D01*
X50748526Y-68046778D01*
X50748523Y-68046774D01*
X50653225Y-67951476D01*
X50653221Y-67951473D01*
X50653220Y-67951472D01*
X50533126Y-67890281D01*
X50533124Y-67890280D01*
X50533121Y-67890279D01*
X50400002Y-67869196D01*
X50399998Y-67869196D01*
X50266878Y-67890279D01*
X50146778Y-67951473D01*
X50146774Y-67951476D01*
X50051476Y-68046774D01*
X50051473Y-68046778D01*
X49990279Y-68166878D01*
X49969196Y-68299997D01*
X49405804Y-68299997D01*
X49384720Y-68166878D01*
X49384719Y-68166876D01*
X49384719Y-68166874D01*
X49323528Y-68046780D01*
X49323526Y-68046778D01*
X49323523Y-68046774D01*
X49228225Y-67951476D01*
X49228221Y-67951473D01*
X49228220Y-67951472D01*
X49108126Y-67890281D01*
X49108124Y-67890280D01*
X49108121Y-67890279D01*
X48975002Y-67869196D01*
X48974998Y-67869196D01*
X48841878Y-67890279D01*
X48721778Y-67951473D01*
X48721774Y-67951476D01*
X48626476Y-68046774D01*
X48626473Y-68046778D01*
X48565279Y-68166878D01*
X48544196Y-68299997D01*
X44420630Y-68299997D01*
X44304657Y-68184024D01*
X44218626Y-68126541D01*
X44132598Y-68069059D01*
X44078807Y-68046778D01*
X43941420Y-67989870D01*
X43941412Y-67989868D01*
X43738469Y-67949500D01*
X43738465Y-67949500D01*
X43281535Y-67949500D01*
X43281530Y-67949500D01*
X43078587Y-67989868D01*
X43078579Y-67989870D01*
X42887403Y-68069058D01*
X42715342Y-68184024D01*
X42569024Y-68330342D01*
X42454058Y-68502403D01*
X42374870Y-68693579D01*
X42374868Y-68693587D01*
X42334500Y-68896530D01*
X41500500Y-68896530D01*
X41500500Y-66396530D01*
X42334500Y-66396530D01*
X42334500Y-66603469D01*
X42374868Y-66806412D01*
X42374870Y-66806420D01*
X42454059Y-66997598D01*
X42498151Y-67063587D01*
X42569024Y-67169657D01*
X42715342Y-67315975D01*
X42715345Y-67315977D01*
X42887402Y-67430941D01*
X43078580Y-67510130D01*
X43281530Y-67550499D01*
X43281534Y-67550500D01*
X43281535Y-67550500D01*
X43738466Y-67550500D01*
X43738467Y-67550499D01*
X43941420Y-67510130D01*
X44132598Y-67430941D01*
X44304655Y-67315977D01*
X44354102Y-67266530D01*
X94504500Y-67266530D01*
X94504500Y-67473469D01*
X94544868Y-67676412D01*
X94544870Y-67676420D01*
X94624058Y-67867596D01*
X94739024Y-68039657D01*
X94885342Y-68185975D01*
X94885345Y-68185977D01*
X95057402Y-68300941D01*
X95248580Y-68380130D01*
X95451530Y-68420499D01*
X95451534Y-68420500D01*
X95451535Y-68420500D01*
X95908466Y-68420500D01*
X95908467Y-68420499D01*
X96111420Y-68380130D01*
X96302598Y-68300941D01*
X96474655Y-68185977D01*
X96620977Y-68039655D01*
X96735941Y-67867598D01*
X96815130Y-67676420D01*
X96855500Y-67473465D01*
X96855500Y-67266535D01*
X96815130Y-67063580D01*
X96735941Y-66872402D01*
X96620977Y-66700345D01*
X96620975Y-66700342D01*
X96474657Y-66554024D01*
X96388626Y-66496541D01*
X96302598Y-66439059D01*
X96111420Y-66359870D01*
X96111412Y-66359868D01*
X95908469Y-66319500D01*
X95908465Y-66319500D01*
X95451535Y-66319500D01*
X95451530Y-66319500D01*
X95248587Y-66359868D01*
X95248579Y-66359870D01*
X95057403Y-66439058D01*
X94885342Y-66554024D01*
X94739024Y-66700342D01*
X94624058Y-66872403D01*
X94544870Y-67063579D01*
X94544868Y-67063587D01*
X94504500Y-67266530D01*
X44354102Y-67266530D01*
X44450977Y-67169655D01*
X44565941Y-66997598D01*
X44645130Y-66806420D01*
X44685500Y-66603465D01*
X44685500Y-66396535D01*
X44645130Y-66193580D01*
X44565941Y-66002402D01*
X44450977Y-65830345D01*
X44450975Y-65830342D01*
X44304657Y-65684024D01*
X44218626Y-65626541D01*
X44132598Y-65569059D01*
X43989339Y-65509719D01*
X43941420Y-65489870D01*
X43941412Y-65489868D01*
X43738469Y-65449500D01*
X43738465Y-65449500D01*
X43281535Y-65449500D01*
X43281530Y-65449500D01*
X43078587Y-65489868D01*
X43078579Y-65489870D01*
X42887403Y-65569058D01*
X42715342Y-65684024D01*
X42569024Y-65830342D01*
X42454058Y-66002403D01*
X42374870Y-66193579D01*
X42374868Y-66193587D01*
X42334500Y-66396530D01*
X41500500Y-66396530D01*
X41500500Y-63896530D01*
X42334500Y-63896530D01*
X42334500Y-64103469D01*
X42374868Y-64306412D01*
X42374870Y-64306420D01*
X42454058Y-64497596D01*
X42569024Y-64669657D01*
X42715342Y-64815975D01*
X42715345Y-64815977D01*
X42887402Y-64930941D01*
X43078580Y-65010130D01*
X43228733Y-65039997D01*
X43281530Y-65050499D01*
X43281534Y-65050500D01*
X43281535Y-65050500D01*
X43738466Y-65050500D01*
X43738467Y-65050499D01*
X43791265Y-65039997D01*
X54009196Y-65039997D01*
X54009196Y-65040002D01*
X54030279Y-65173121D01*
X54030280Y-65173124D01*
X54030281Y-65173126D01*
X54060853Y-65233126D01*
X54091473Y-65293221D01*
X54091476Y-65293225D01*
X54186774Y-65388523D01*
X54186778Y-65388526D01*
X54186780Y-65388528D01*
X54306874Y-65449719D01*
X54306876Y-65449719D01*
X54306878Y-65449720D01*
X54439998Y-65470804D01*
X54440000Y-65470804D01*
X54440002Y-65470804D01*
X54573121Y-65449720D01*
X54573121Y-65449719D01*
X54573126Y-65449719D01*
X54693220Y-65388528D01*
X54788528Y-65293220D01*
X54849719Y-65173126D01*
X54861301Y-65100000D01*
X54861301Y-65099997D01*
X69069196Y-65099997D01*
X69069196Y-65100002D01*
X69090279Y-65233121D01*
X69090280Y-65233124D01*
X69090281Y-65233126D01*
X69151472Y-65353220D01*
X69151473Y-65353221D01*
X69151476Y-65353225D01*
X69246774Y-65448523D01*
X69246778Y-65448526D01*
X69246780Y-65448528D01*
X69366874Y-65509719D01*
X69366876Y-65509719D01*
X69366878Y-65509720D01*
X69499998Y-65530804D01*
X69500000Y-65530804D01*
X69500002Y-65530804D01*
X69633121Y-65509720D01*
X69633121Y-65509719D01*
X69633126Y-65509719D01*
X69753220Y-65448528D01*
X69848528Y-65353220D01*
X69909719Y-65233126D01*
X69930804Y-65100000D01*
X69921301Y-65040002D01*
X69909720Y-64966878D01*
X69909719Y-64966876D01*
X69909719Y-64966874D01*
X69848528Y-64846780D01*
X69848526Y-64846778D01*
X69848523Y-64846774D01*
X69753225Y-64751476D01*
X69753221Y-64751473D01*
X69753220Y-64751472D01*
X69633126Y-64690281D01*
X69633124Y-64690280D01*
X69633121Y-64690279D01*
X69500002Y-64669196D01*
X69499998Y-64669196D01*
X69366878Y-64690279D01*
X69246778Y-64751473D01*
X69246774Y-64751476D01*
X69151476Y-64846774D01*
X69151473Y-64846778D01*
X69090279Y-64966878D01*
X69069196Y-65099997D01*
X54861301Y-65099997D01*
X54870804Y-65040002D01*
X54870804Y-65039997D01*
X54849720Y-64906878D01*
X54849719Y-64906876D01*
X54849719Y-64906874D01*
X54788528Y-64786780D01*
X54788526Y-64786778D01*
X54788523Y-64786774D01*
X54693225Y-64691476D01*
X54693221Y-64691473D01*
X54693220Y-64691472D01*
X54573126Y-64630281D01*
X54573124Y-64630280D01*
X54573121Y-64630279D01*
X54440002Y-64609196D01*
X54439998Y-64609196D01*
X54306878Y-64630279D01*
X54186778Y-64691473D01*
X54186774Y-64691476D01*
X54091476Y-64786774D01*
X54091473Y-64786778D01*
X54030279Y-64906878D01*
X54009196Y-65039997D01*
X43791265Y-65039997D01*
X43941420Y-65010130D01*
X44132598Y-64930941D01*
X44304655Y-64815977D01*
X44450977Y-64669655D01*
X44497521Y-64599997D01*
X87969196Y-64599997D01*
X87969196Y-64600002D01*
X87990279Y-64733121D01*
X87990280Y-64733124D01*
X87990281Y-64733126D01*
X88032495Y-64815975D01*
X88051473Y-64853221D01*
X88051476Y-64853225D01*
X88146774Y-64948523D01*
X88146778Y-64948526D01*
X88146780Y-64948528D01*
X88266874Y-65009719D01*
X88266876Y-65009719D01*
X88266878Y-65009720D01*
X88399998Y-65030804D01*
X88400000Y-65030804D01*
X88400002Y-65030804D01*
X88533121Y-65009720D01*
X88533121Y-65009719D01*
X88533126Y-65009719D01*
X88653220Y-64948528D01*
X88748528Y-64853220D01*
X88809719Y-64733126D01*
X88816316Y-64691473D01*
X88830804Y-64600002D01*
X88830804Y-64599997D01*
X88809720Y-64466878D01*
X88809719Y-64466876D01*
X88809719Y-64466874D01*
X88748528Y-64346780D01*
X88748526Y-64346778D01*
X88748523Y-64346774D01*
X88653225Y-64251476D01*
X88653221Y-64251473D01*
X88653220Y-64251472D01*
X88533126Y-64190281D01*
X88533124Y-64190280D01*
X88533121Y-64190279D01*
X88400002Y-64169196D01*
X88399998Y-64169196D01*
X88266878Y-64190279D01*
X88266874Y-64190280D01*
X88266874Y-64190281D01*
X88206969Y-64220804D01*
X88146778Y-64251473D01*
X88146774Y-64251476D01*
X88051476Y-64346774D01*
X88051473Y-64346778D01*
X87990279Y-64466878D01*
X87969196Y-64599997D01*
X44497521Y-64599997D01*
X44565941Y-64497598D01*
X44645130Y-64306420D01*
X44685500Y-64103465D01*
X44685500Y-63896535D01*
X44660330Y-63769997D01*
X59219196Y-63769997D01*
X59219196Y-63770002D01*
X59240279Y-63903121D01*
X59240280Y-63903124D01*
X59240281Y-63903126D01*
X59250472Y-63923126D01*
X59301473Y-64023221D01*
X59301476Y-64023225D01*
X59396774Y-64118523D01*
X59396778Y-64118526D01*
X59396780Y-64118528D01*
X59516874Y-64179719D01*
X59516876Y-64179719D01*
X59516878Y-64179720D01*
X59649998Y-64200804D01*
X59650000Y-64200804D01*
X59650002Y-64200804D01*
X59783121Y-64179720D01*
X59783121Y-64179719D01*
X59783126Y-64179719D01*
X59903220Y-64118528D01*
X59998528Y-64023220D01*
X60059719Y-63903126D01*
X60077636Y-63790002D01*
X60077637Y-63789997D01*
X61019196Y-63789997D01*
X61019196Y-63790002D01*
X61040279Y-63923121D01*
X61040280Y-63923124D01*
X61040281Y-63923126D01*
X61101472Y-64043220D01*
X61101473Y-64043221D01*
X61101476Y-64043225D01*
X61196774Y-64138523D01*
X61196778Y-64138526D01*
X61196780Y-64138528D01*
X61316874Y-64199719D01*
X61316876Y-64199719D01*
X61316878Y-64199720D01*
X61449998Y-64220804D01*
X61450000Y-64220804D01*
X61450002Y-64220804D01*
X61583121Y-64199720D01*
X61583121Y-64199719D01*
X61583126Y-64199719D01*
X61703220Y-64138528D01*
X61798528Y-64043220D01*
X61859719Y-63923126D01*
X61862887Y-63903126D01*
X61880804Y-63790002D01*
X61880804Y-63789997D01*
X61859720Y-63656878D01*
X61859719Y-63656876D01*
X61859719Y-63656874D01*
X61798528Y-63536780D01*
X61798526Y-63536778D01*
X61798523Y-63536774D01*
X61703225Y-63441476D01*
X61703221Y-63441473D01*
X61703220Y-63441472D01*
X61583126Y-63380281D01*
X61583124Y-63380280D01*
X61583121Y-63380279D01*
X61450002Y-63359196D01*
X61449998Y-63359196D01*
X61316878Y-63380279D01*
X61196778Y-63441473D01*
X61196774Y-63441476D01*
X61101476Y-63536774D01*
X61101473Y-63536778D01*
X61101472Y-63536780D01*
X61050470Y-63636878D01*
X61040279Y-63656878D01*
X61019196Y-63789997D01*
X60077637Y-63789997D01*
X60080804Y-63770002D01*
X60080804Y-63769997D01*
X60059720Y-63636878D01*
X60059719Y-63636876D01*
X60059719Y-63636874D01*
X59998528Y-63516780D01*
X59998526Y-63516778D01*
X59998523Y-63516774D01*
X59903225Y-63421476D01*
X59903221Y-63421473D01*
X59903220Y-63421472D01*
X59783126Y-63360281D01*
X59783124Y-63360280D01*
X59783121Y-63360279D01*
X59650002Y-63339196D01*
X59649998Y-63339196D01*
X59516878Y-63360279D01*
X59396778Y-63421473D01*
X59396774Y-63421476D01*
X59301476Y-63516774D01*
X59301473Y-63516778D01*
X59240279Y-63636878D01*
X59219196Y-63769997D01*
X44660330Y-63769997D01*
X44645130Y-63693580D01*
X44565941Y-63502402D01*
X44450977Y-63330345D01*
X44450975Y-63330342D01*
X44304657Y-63184024D01*
X44218626Y-63126541D01*
X44132598Y-63069059D01*
X43941420Y-62989870D01*
X43941412Y-62989868D01*
X43738469Y-62949500D01*
X43738465Y-62949500D01*
X43281535Y-62949500D01*
X43281530Y-62949500D01*
X43078587Y-62989868D01*
X43078579Y-62989870D01*
X42887403Y-63069058D01*
X42715342Y-63184024D01*
X42569024Y-63330342D01*
X42454058Y-63502403D01*
X42374870Y-63693579D01*
X42374868Y-63693587D01*
X42334500Y-63896530D01*
X41500500Y-63896530D01*
X41500500Y-61250000D01*
X42260261Y-61250000D01*
X43105854Y-61250000D01*
X43067370Y-61316657D01*
X43035000Y-61437465D01*
X43035000Y-61562535D01*
X43067370Y-61683343D01*
X43105854Y-61750000D01*
X42260261Y-61750000D01*
X42263315Y-61769285D01*
X42263318Y-61769295D01*
X42319250Y-61941441D01*
X42319252Y-61941447D01*
X42401434Y-62102734D01*
X42507823Y-62249169D01*
X42635830Y-62377176D01*
X42782265Y-62483565D01*
X42943552Y-62565747D01*
X42943555Y-62565748D01*
X43115705Y-62621682D01*
X43260000Y-62644536D01*
X43260000Y-61904145D01*
X43326657Y-61942630D01*
X43447465Y-61975000D01*
X43572535Y-61975000D01*
X43693343Y-61942630D01*
X43760000Y-61904145D01*
X43760000Y-62644535D01*
X43904292Y-62621682D01*
X43904295Y-62621682D01*
X44076444Y-62565748D01*
X44076447Y-62565747D01*
X44146608Y-62529997D01*
X54019196Y-62529997D01*
X54019196Y-62530002D01*
X54040279Y-62663121D01*
X54040280Y-62663124D01*
X54040281Y-62663126D01*
X54086187Y-62753221D01*
X54101473Y-62783221D01*
X54101476Y-62783225D01*
X54196774Y-62878523D01*
X54196778Y-62878526D01*
X54196780Y-62878528D01*
X54316874Y-62939719D01*
X54316876Y-62939719D01*
X54316878Y-62939720D01*
X54449998Y-62960804D01*
X54450000Y-62960804D01*
X54450002Y-62960804D01*
X54583121Y-62939720D01*
X54583121Y-62939719D01*
X54583126Y-62939719D01*
X54703220Y-62878528D01*
X54798528Y-62783220D01*
X54859719Y-62663126D01*
X54859720Y-62663121D01*
X54880804Y-62530002D01*
X54880804Y-62529997D01*
X54876052Y-62499997D01*
X64219196Y-62499997D01*
X64219196Y-62500002D01*
X64240279Y-62633121D01*
X64240280Y-62633124D01*
X64240281Y-62633126D01*
X64301472Y-62753220D01*
X64301473Y-62753221D01*
X64301476Y-62753225D01*
X64396774Y-62848523D01*
X64396778Y-62848526D01*
X64396780Y-62848528D01*
X64516874Y-62909719D01*
X64516876Y-62909719D01*
X64516878Y-62909720D01*
X64649998Y-62930804D01*
X64650000Y-62930804D01*
X64650002Y-62930804D01*
X64783121Y-62909720D01*
X64783121Y-62909719D01*
X64783126Y-62909719D01*
X64903220Y-62848528D01*
X64998528Y-62753220D01*
X65059719Y-62633126D01*
X65063679Y-62608126D01*
X65080804Y-62500002D01*
X65080804Y-62499997D01*
X65076844Y-62474997D01*
X77144196Y-62474997D01*
X77144196Y-62475002D01*
X77165279Y-62608121D01*
X77165280Y-62608124D01*
X77165281Y-62608126D01*
X77193305Y-62663126D01*
X77226473Y-62728221D01*
X77226476Y-62728225D01*
X77321774Y-62823523D01*
X77321778Y-62823526D01*
X77321780Y-62823528D01*
X77441874Y-62884719D01*
X77441876Y-62884719D01*
X77441878Y-62884720D01*
X77574998Y-62905804D01*
X77575000Y-62905804D01*
X77575002Y-62905804D01*
X77708121Y-62884720D01*
X77708121Y-62884719D01*
X77708126Y-62884719D01*
X77828220Y-62823528D01*
X77923528Y-62728220D01*
X77984719Y-62608126D01*
X77997093Y-62530000D01*
X78005804Y-62475002D01*
X78005804Y-62474997D01*
X77984720Y-62341878D01*
X77984719Y-62341876D01*
X77984719Y-62341874D01*
X77923528Y-62221780D01*
X77923526Y-62221778D01*
X77923523Y-62221774D01*
X77828225Y-62126476D01*
X77828221Y-62126473D01*
X77828220Y-62126472D01*
X77708126Y-62065281D01*
X77708124Y-62065280D01*
X77708121Y-62065279D01*
X77575002Y-62044196D01*
X77574998Y-62044196D01*
X77441878Y-62065279D01*
X77321778Y-62126473D01*
X77321774Y-62126476D01*
X77226476Y-62221774D01*
X77226473Y-62221778D01*
X77165279Y-62341878D01*
X77144196Y-62474997D01*
X65076844Y-62474997D01*
X65059720Y-62366878D01*
X65059719Y-62366876D01*
X65059719Y-62366874D01*
X64998528Y-62246780D01*
X64998526Y-62246778D01*
X64998523Y-62246774D01*
X64903225Y-62151476D01*
X64903221Y-62151473D01*
X64903220Y-62151472D01*
X64783126Y-62090281D01*
X64783124Y-62090280D01*
X64783121Y-62090279D01*
X64650002Y-62069196D01*
X64649998Y-62069196D01*
X64516878Y-62090279D01*
X64396778Y-62151473D01*
X64396774Y-62151476D01*
X64301476Y-62246774D01*
X64301473Y-62246778D01*
X64240279Y-62366878D01*
X64219196Y-62499997D01*
X54876052Y-62499997D01*
X54859720Y-62396878D01*
X54859719Y-62396876D01*
X54859719Y-62396874D01*
X54798528Y-62276780D01*
X54798526Y-62276778D01*
X54798523Y-62276774D01*
X54703225Y-62181476D01*
X54703221Y-62181473D01*
X54703220Y-62181472D01*
X54583126Y-62120281D01*
X54583124Y-62120280D01*
X54583121Y-62120279D01*
X54450002Y-62099196D01*
X54449998Y-62099196D01*
X54316878Y-62120279D01*
X54316874Y-62120280D01*
X54316874Y-62120281D01*
X54304722Y-62126473D01*
X54196778Y-62181473D01*
X54196774Y-62181476D01*
X54101476Y-62276774D01*
X54101473Y-62276778D01*
X54040279Y-62396878D01*
X54019196Y-62529997D01*
X44146608Y-62529997D01*
X44237734Y-62483565D01*
X44384169Y-62377176D01*
X44512176Y-62249169D01*
X44618565Y-62102734D01*
X44700747Y-61941447D01*
X44700749Y-61941441D01*
X44756681Y-61769295D01*
X44756684Y-61769285D01*
X44759739Y-61750000D01*
X43914146Y-61750000D01*
X43952630Y-61683343D01*
X43985000Y-61562535D01*
X43985000Y-61437465D01*
X43952630Y-61316657D01*
X43914146Y-61250000D01*
X44759739Y-61250000D01*
X44756684Y-61230714D01*
X44756681Y-61230704D01*
X44700749Y-61058558D01*
X44700747Y-61058552D01*
X44618565Y-60897265D01*
X44576958Y-60839997D01*
X49819196Y-60839997D01*
X49819196Y-60840002D01*
X49840279Y-60973121D01*
X49840280Y-60973124D01*
X49840281Y-60973126D01*
X49883808Y-61058552D01*
X49901473Y-61093221D01*
X49901476Y-61093225D01*
X49996774Y-61188523D01*
X49996778Y-61188526D01*
X49996780Y-61188528D01*
X50116874Y-61249719D01*
X50116876Y-61249719D01*
X50116878Y-61249720D01*
X50249998Y-61270804D01*
X50250000Y-61270804D01*
X50250002Y-61270804D01*
X50383121Y-61249720D01*
X50383121Y-61249719D01*
X50383126Y-61249719D01*
X50503220Y-61188528D01*
X50598528Y-61093220D01*
X50659719Y-60973126D01*
X50679221Y-60849997D01*
X81619196Y-60849997D01*
X81619196Y-60850002D01*
X81640279Y-60983121D01*
X81640280Y-60983124D01*
X81640281Y-60983126D01*
X81701472Y-61103220D01*
X81701473Y-61103221D01*
X81701476Y-61103225D01*
X81796774Y-61198523D01*
X81796778Y-61198526D01*
X81796780Y-61198528D01*
X81916874Y-61259719D01*
X81916876Y-61259719D01*
X81916878Y-61259720D01*
X82049998Y-61280804D01*
X82050000Y-61280804D01*
X82050002Y-61280804D01*
X82183121Y-61259720D01*
X82183121Y-61259719D01*
X82183126Y-61259719D01*
X82303220Y-61198528D01*
X82398528Y-61103220D01*
X82459719Y-60983126D01*
X82480804Y-60850000D01*
X82479220Y-60840002D01*
X82459720Y-60716878D01*
X82459719Y-60716876D01*
X82459719Y-60716874D01*
X82398528Y-60596780D01*
X82398526Y-60596778D01*
X82398523Y-60596774D01*
X82303225Y-60501476D01*
X82303221Y-60501473D01*
X82303220Y-60501472D01*
X82183126Y-60440281D01*
X82183124Y-60440280D01*
X82183121Y-60440279D01*
X82050002Y-60419196D01*
X82049998Y-60419196D01*
X81916878Y-60440279D01*
X81796778Y-60501473D01*
X81796774Y-60501476D01*
X81701476Y-60596774D01*
X81701473Y-60596778D01*
X81640279Y-60716878D01*
X81619196Y-60849997D01*
X50679221Y-60849997D01*
X50680804Y-60840000D01*
X50661303Y-60716878D01*
X50659720Y-60706878D01*
X50659719Y-60706876D01*
X50659719Y-60706874D01*
X50598528Y-60586780D01*
X50598526Y-60586778D01*
X50598523Y-60586774D01*
X50503225Y-60491476D01*
X50503221Y-60491473D01*
X50503220Y-60491472D01*
X50383126Y-60430281D01*
X50383124Y-60430280D01*
X50383121Y-60430279D01*
X50250002Y-60409196D01*
X50249998Y-60409196D01*
X50116878Y-60430279D01*
X50116874Y-60430280D01*
X50116874Y-60430281D01*
X50097252Y-60440279D01*
X49996778Y-60491473D01*
X49996774Y-60491476D01*
X49901476Y-60586774D01*
X49901473Y-60586778D01*
X49840279Y-60706878D01*
X49819196Y-60839997D01*
X44576958Y-60839997D01*
X44512176Y-60750830D01*
X44384169Y-60622823D01*
X44237734Y-60516434D01*
X44076447Y-60434252D01*
X44076444Y-60434251D01*
X43904293Y-60378317D01*
X43760000Y-60355462D01*
X43760000Y-61095854D01*
X43693343Y-61057370D01*
X43572535Y-61025000D01*
X43447465Y-61025000D01*
X43326657Y-61057370D01*
X43260000Y-61095854D01*
X43260000Y-60355462D01*
X43115706Y-60378317D01*
X42943555Y-60434251D01*
X42943552Y-60434252D01*
X42782265Y-60516434D01*
X42635830Y-60622823D01*
X42507823Y-60750830D01*
X42401434Y-60897265D01*
X42319252Y-61058552D01*
X42319250Y-61058558D01*
X42263318Y-61230704D01*
X42263315Y-61230714D01*
X42260261Y-61250000D01*
X41500500Y-61250000D01*
X41500500Y-58345730D01*
X42334500Y-58345730D01*
X42334500Y-59654269D01*
X42337353Y-59684699D01*
X42337353Y-59684701D01*
X42382206Y-59812880D01*
X42382207Y-59812882D01*
X42462850Y-59922150D01*
X42572118Y-60002793D01*
X42614845Y-60017744D01*
X42700299Y-60047646D01*
X42730730Y-60050500D01*
X42730734Y-60050500D01*
X44289270Y-60050500D01*
X44294633Y-60049997D01*
X59334196Y-60049997D01*
X59334196Y-60050002D01*
X59355279Y-60183121D01*
X59355280Y-60183124D01*
X59355281Y-60183126D01*
X59401743Y-60274312D01*
X59416473Y-60303221D01*
X59416476Y-60303225D01*
X59511774Y-60398523D01*
X59511778Y-60398526D01*
X59511780Y-60398528D01*
X59631874Y-60459719D01*
X59631876Y-60459719D01*
X59631878Y-60459720D01*
X59764998Y-60480804D01*
X59765000Y-60480804D01*
X59765002Y-60480804D01*
X59898121Y-60459720D01*
X59898121Y-60459719D01*
X59898126Y-60459719D01*
X60018220Y-60398528D01*
X60113528Y-60303220D01*
X60166123Y-60199997D01*
X67869196Y-60199997D01*
X67869196Y-60200002D01*
X67890279Y-60333121D01*
X67890280Y-60333124D01*
X67890281Y-60333126D01*
X67950797Y-60451895D01*
X67951473Y-60453221D01*
X67951476Y-60453225D01*
X68046774Y-60548523D01*
X68046778Y-60548526D01*
X68046780Y-60548528D01*
X68166874Y-60609719D01*
X68166876Y-60609719D01*
X68166878Y-60609720D01*
X68299998Y-60630804D01*
X68300000Y-60630804D01*
X68300002Y-60630804D01*
X68433121Y-60609720D01*
X68433121Y-60609719D01*
X68433126Y-60609719D01*
X68553220Y-60548528D01*
X68648528Y-60453220D01*
X68709719Y-60333126D01*
X68714455Y-60303225D01*
X68730804Y-60200002D01*
X68730804Y-60199997D01*
X68709720Y-60066878D01*
X68709719Y-60066876D01*
X68709719Y-60066874D01*
X68686390Y-60021088D01*
X82600287Y-60021088D01*
X82600287Y-60021093D01*
X82621370Y-60154212D01*
X82621371Y-60154215D01*
X82621372Y-60154217D01*
X82644700Y-60200000D01*
X82682564Y-60274312D01*
X82682567Y-60274316D01*
X82777865Y-60369614D01*
X82777869Y-60369617D01*
X82777871Y-60369619D01*
X82897965Y-60430810D01*
X82897967Y-60430810D01*
X82897969Y-60430811D01*
X83031089Y-60451895D01*
X83031091Y-60451895D01*
X83031093Y-60451895D01*
X83164212Y-60430811D01*
X83164212Y-60430810D01*
X83164217Y-60430810D01*
X83284311Y-60369619D01*
X83379619Y-60274311D01*
X83440810Y-60154217D01*
X83457316Y-60050002D01*
X83461895Y-60021093D01*
X83461895Y-60021088D01*
X83440811Y-59887969D01*
X83440810Y-59887967D01*
X83440810Y-59887965D01*
X83379619Y-59767871D01*
X83379617Y-59767869D01*
X83379614Y-59767865D01*
X83284316Y-59672567D01*
X83284312Y-59672564D01*
X83284311Y-59672563D01*
X83164217Y-59611372D01*
X83164215Y-59611371D01*
X83164212Y-59611370D01*
X83031093Y-59590287D01*
X83031089Y-59590287D01*
X82897969Y-59611370D01*
X82777869Y-59672564D01*
X82777865Y-59672567D01*
X82682567Y-59767865D01*
X82682564Y-59767869D01*
X82621370Y-59887969D01*
X82600287Y-60021088D01*
X68686390Y-60021088D01*
X68648528Y-59946780D01*
X68648526Y-59946778D01*
X68648523Y-59946774D01*
X68553225Y-59851476D01*
X68553221Y-59851473D01*
X68553220Y-59851472D01*
X68433126Y-59790281D01*
X68433124Y-59790280D01*
X68433121Y-59790279D01*
X68300002Y-59769196D01*
X68299998Y-59769196D01*
X68166878Y-59790279D01*
X68046778Y-59851473D01*
X68046774Y-59851476D01*
X67951476Y-59946774D01*
X67951473Y-59946778D01*
X67890279Y-60066878D01*
X67869196Y-60199997D01*
X60166123Y-60199997D01*
X60174719Y-60183126D01*
X60193131Y-60066878D01*
X60195804Y-60050002D01*
X60195804Y-60049997D01*
X60174720Y-59916878D01*
X60174719Y-59916876D01*
X60174719Y-59916874D01*
X60113528Y-59796780D01*
X60113526Y-59796778D01*
X60113523Y-59796774D01*
X60018225Y-59701476D01*
X60018221Y-59701473D01*
X60018220Y-59701472D01*
X59898126Y-59640281D01*
X59898124Y-59640280D01*
X59898121Y-59640279D01*
X59765002Y-59619196D01*
X59764998Y-59619196D01*
X59631878Y-59640279D01*
X59511778Y-59701473D01*
X59511774Y-59701476D01*
X59416476Y-59796774D01*
X59416473Y-59796778D01*
X59355279Y-59916878D01*
X59334196Y-60049997D01*
X44294633Y-60049997D01*
X44319699Y-60047646D01*
X44319701Y-60047646D01*
X44395589Y-60021091D01*
X44447882Y-60002793D01*
X44557150Y-59922150D01*
X44637793Y-59812882D01*
X44660219Y-59748790D01*
X44682646Y-59684701D01*
X44682646Y-59684699D01*
X44685500Y-59654269D01*
X44685500Y-59409997D01*
X88569196Y-59409997D01*
X88569196Y-59410002D01*
X88590279Y-59543121D01*
X88590280Y-59543124D01*
X88590281Y-59543126D01*
X88651472Y-59663220D01*
X88651473Y-59663221D01*
X88651476Y-59663225D01*
X88746774Y-59758523D01*
X88746778Y-59758526D01*
X88746780Y-59758528D01*
X88866874Y-59819719D01*
X88866876Y-59819719D01*
X88866878Y-59819720D01*
X88999998Y-59840804D01*
X89000000Y-59840804D01*
X89000002Y-59840804D01*
X89133121Y-59819720D01*
X89133121Y-59819719D01*
X89133126Y-59819719D01*
X89253220Y-59758528D01*
X89348528Y-59663220D01*
X89409719Y-59543126D01*
X89430804Y-59410000D01*
X89421301Y-59350002D01*
X89421300Y-59349997D01*
X96159196Y-59349997D01*
X96159196Y-59350002D01*
X96180279Y-59483121D01*
X96180280Y-59483124D01*
X96180281Y-59483126D01*
X96241472Y-59603220D01*
X96241473Y-59603221D01*
X96241476Y-59603225D01*
X96336774Y-59698523D01*
X96336778Y-59698526D01*
X96336780Y-59698528D01*
X96456874Y-59759719D01*
X96456876Y-59759719D01*
X96456878Y-59759720D01*
X96589998Y-59780804D01*
X96590000Y-59780804D01*
X96590002Y-59780804D01*
X96723121Y-59759720D01*
X96723121Y-59759719D01*
X96723126Y-59759719D01*
X96843220Y-59698528D01*
X96938528Y-59603220D01*
X96999719Y-59483126D01*
X97011301Y-59410000D01*
X97020804Y-59350002D01*
X97020804Y-59349997D01*
X96999720Y-59216878D01*
X96999719Y-59216876D01*
X96999719Y-59216874D01*
X96938528Y-59096780D01*
X96938526Y-59096778D01*
X96938523Y-59096774D01*
X96843225Y-59001476D01*
X96843221Y-59001473D01*
X96843220Y-59001472D01*
X96723126Y-58940281D01*
X96723124Y-58940280D01*
X96723121Y-58940279D01*
X96590002Y-58919196D01*
X96589998Y-58919196D01*
X96456878Y-58940279D01*
X96336778Y-59001473D01*
X96336774Y-59001476D01*
X96241476Y-59096774D01*
X96241473Y-59096778D01*
X96180279Y-59216878D01*
X96159196Y-59349997D01*
X89421300Y-59349997D01*
X89409720Y-59276878D01*
X89409719Y-59276876D01*
X89409719Y-59276874D01*
X89348528Y-59156780D01*
X89348526Y-59156778D01*
X89348523Y-59156774D01*
X89253225Y-59061476D01*
X89253221Y-59061473D01*
X89253220Y-59061472D01*
X89133126Y-59000281D01*
X89133124Y-59000280D01*
X89133121Y-59000279D01*
X89000002Y-58979196D01*
X88999998Y-58979196D01*
X88866878Y-59000279D01*
X88746778Y-59061473D01*
X88746774Y-59061476D01*
X88651476Y-59156774D01*
X88651473Y-59156778D01*
X88590279Y-59276878D01*
X88569196Y-59409997D01*
X44685500Y-59409997D01*
X44685500Y-58345730D01*
X44682646Y-58315300D01*
X44682646Y-58315298D01*
X44637793Y-58187119D01*
X44637792Y-58187117D01*
X44557150Y-58077850D01*
X44447882Y-57997207D01*
X44447880Y-57997206D01*
X44319700Y-57952353D01*
X44289270Y-57949500D01*
X44289266Y-57949500D01*
X42730734Y-57949500D01*
X42730730Y-57949500D01*
X42700300Y-57952353D01*
X42700298Y-57952353D01*
X42572119Y-57997206D01*
X42572117Y-57997207D01*
X42462850Y-58077850D01*
X42382207Y-58187117D01*
X42382206Y-58187119D01*
X42337353Y-58315298D01*
X42337353Y-58315300D01*
X42334500Y-58345730D01*
X41500500Y-58345730D01*
X41500500Y-57249997D01*
X69369196Y-57249997D01*
X69369196Y-57250002D01*
X69390279Y-57383121D01*
X69390280Y-57383124D01*
X69390281Y-57383126D01*
X69405567Y-57413126D01*
X69451473Y-57503221D01*
X69451476Y-57503225D01*
X69546774Y-57598523D01*
X69546778Y-57598526D01*
X69546780Y-57598528D01*
X69666874Y-57659719D01*
X69666876Y-57659719D01*
X69666878Y-57659720D01*
X69799998Y-57680804D01*
X69800000Y-57680804D01*
X69800002Y-57680804D01*
X69933121Y-57659720D01*
X69933121Y-57659719D01*
X69933126Y-57659719D01*
X70053220Y-57598528D01*
X70148528Y-57503220D01*
X70209719Y-57383126D01*
X70226052Y-57280002D01*
X70226053Y-57279997D01*
X73369196Y-57279997D01*
X73369196Y-57280002D01*
X73390279Y-57413121D01*
X73390280Y-57413124D01*
X73390281Y-57413126D01*
X73436187Y-57503221D01*
X73451473Y-57533221D01*
X73451476Y-57533225D01*
X73546774Y-57628523D01*
X73546778Y-57628526D01*
X73546780Y-57628528D01*
X73666874Y-57689719D01*
X73666876Y-57689719D01*
X73666878Y-57689720D01*
X73799998Y-57710804D01*
X73800000Y-57710804D01*
X73800002Y-57710804D01*
X73933121Y-57689720D01*
X73933121Y-57689719D01*
X73933126Y-57689719D01*
X74053220Y-57628528D01*
X74148528Y-57533220D01*
X74209719Y-57413126D01*
X74214471Y-57383126D01*
X74230804Y-57280002D01*
X74230804Y-57279997D01*
X74209720Y-57146878D01*
X74209719Y-57146876D01*
X74209719Y-57146874D01*
X74148528Y-57026780D01*
X74148526Y-57026778D01*
X74148523Y-57026774D01*
X74053225Y-56931476D01*
X74053221Y-56931473D01*
X74053220Y-56931472D01*
X73933126Y-56870281D01*
X73933124Y-56870280D01*
X73933121Y-56870279D01*
X73800002Y-56849196D01*
X73799998Y-56849196D01*
X73666878Y-56870279D01*
X73546778Y-56931473D01*
X73546774Y-56931476D01*
X73451476Y-57026774D01*
X73451473Y-57026778D01*
X73390279Y-57146878D01*
X73369196Y-57279997D01*
X70226053Y-57279997D01*
X70230804Y-57250002D01*
X70230804Y-57249997D01*
X70209720Y-57116878D01*
X70209719Y-57116876D01*
X70209719Y-57116874D01*
X70148528Y-56996780D01*
X70148526Y-56996778D01*
X70148523Y-56996774D01*
X70053225Y-56901476D01*
X70053221Y-56901473D01*
X70053220Y-56901472D01*
X69933126Y-56840281D01*
X69933124Y-56840280D01*
X69933121Y-56840279D01*
X69800002Y-56819196D01*
X69799998Y-56819196D01*
X69666878Y-56840279D01*
X69546778Y-56901473D01*
X69546774Y-56901476D01*
X69451476Y-56996774D01*
X69451473Y-56996778D01*
X69390279Y-57116878D01*
X69369196Y-57249997D01*
X41500500Y-57249997D01*
X41500500Y-56049997D01*
X78344196Y-56049997D01*
X78344196Y-56050002D01*
X78365279Y-56183121D01*
X78365280Y-56183124D01*
X78365281Y-56183126D01*
X78426472Y-56303220D01*
X78426473Y-56303221D01*
X78426476Y-56303225D01*
X78521774Y-56398523D01*
X78521778Y-56398526D01*
X78521780Y-56398528D01*
X78641874Y-56459719D01*
X78641876Y-56459719D01*
X78641878Y-56459720D01*
X78774998Y-56480804D01*
X78775000Y-56480804D01*
X78775002Y-56480804D01*
X78908121Y-56459720D01*
X78908121Y-56459719D01*
X78908126Y-56459719D01*
X79028220Y-56398528D01*
X79123528Y-56303220D01*
X79184719Y-56183126D01*
X79205804Y-56050000D01*
X79184719Y-55916874D01*
X79123528Y-55796780D01*
X79123526Y-55796778D01*
X79123523Y-55796774D01*
X79028225Y-55701476D01*
X79028221Y-55701473D01*
X79028220Y-55701472D01*
X78908126Y-55640281D01*
X78908124Y-55640280D01*
X78908121Y-55640279D01*
X78775002Y-55619196D01*
X78774998Y-55619196D01*
X78641878Y-55640279D01*
X78521778Y-55701473D01*
X78521774Y-55701476D01*
X78426476Y-55796774D01*
X78426473Y-55796778D01*
X78365279Y-55916878D01*
X78344196Y-56049997D01*
X41500500Y-56049997D01*
X41500500Y-54702497D01*
X76996696Y-54702497D01*
X76996696Y-54702502D01*
X77017779Y-54835621D01*
X77017780Y-54835624D01*
X77017781Y-54835626D01*
X77078972Y-54955720D01*
X77078973Y-54955721D01*
X77078976Y-54955725D01*
X77174274Y-55051023D01*
X77174278Y-55051026D01*
X77174280Y-55051028D01*
X77294374Y-55112219D01*
X77294376Y-55112219D01*
X77294378Y-55112220D01*
X77427498Y-55133304D01*
X77427500Y-55133304D01*
X77427502Y-55133304D01*
X77560621Y-55112220D01*
X77560621Y-55112219D01*
X77560626Y-55112219D01*
X77680720Y-55051028D01*
X77776028Y-54955720D01*
X77837219Y-54835626D01*
X77853821Y-54730804D01*
X77858304Y-54702502D01*
X77858304Y-54702497D01*
X77837220Y-54569378D01*
X77837219Y-54569376D01*
X77837219Y-54569374D01*
X77776028Y-54449280D01*
X77776026Y-54449278D01*
X77776023Y-54449274D01*
X77680725Y-54353976D01*
X77680721Y-54353973D01*
X77680720Y-54353972D01*
X77574788Y-54299997D01*
X87369196Y-54299997D01*
X87369196Y-54300002D01*
X87390279Y-54433121D01*
X87390280Y-54433124D01*
X87390281Y-54433126D01*
X87398509Y-54449274D01*
X87451473Y-54553221D01*
X87451476Y-54553225D01*
X87546774Y-54648523D01*
X87546778Y-54648526D01*
X87546780Y-54648528D01*
X87666874Y-54709719D01*
X87666876Y-54709719D01*
X87666878Y-54709720D01*
X87799998Y-54730804D01*
X87800000Y-54730804D01*
X87800002Y-54730804D01*
X87933121Y-54709720D01*
X87933121Y-54709719D01*
X87933126Y-54709719D01*
X88053220Y-54648528D01*
X88148528Y-54553220D01*
X88209719Y-54433126D01*
X88230804Y-54300000D01*
X88229660Y-54292779D01*
X88209720Y-54166878D01*
X88209719Y-54166876D01*
X88209719Y-54166874D01*
X88148528Y-54046780D01*
X88148526Y-54046778D01*
X88148523Y-54046774D01*
X88053225Y-53951476D01*
X88053221Y-53951473D01*
X88053220Y-53951472D01*
X87933126Y-53890281D01*
X87933124Y-53890280D01*
X87933121Y-53890279D01*
X87800002Y-53869196D01*
X87799998Y-53869196D01*
X87666878Y-53890279D01*
X87546778Y-53951473D01*
X87546774Y-53951476D01*
X87451476Y-54046774D01*
X87451473Y-54046778D01*
X87390279Y-54166878D01*
X87369196Y-54299997D01*
X77574788Y-54299997D01*
X77560626Y-54292781D01*
X77560624Y-54292780D01*
X77560621Y-54292779D01*
X77427502Y-54271696D01*
X77427498Y-54271696D01*
X77294378Y-54292779D01*
X77174278Y-54353973D01*
X77174274Y-54353976D01*
X77078976Y-54449274D01*
X77078973Y-54449278D01*
X77017779Y-54569378D01*
X76996696Y-54702497D01*
X41500500Y-54702497D01*
X41500500Y-53699997D01*
X67669196Y-53699997D01*
X67669196Y-53700002D01*
X67690279Y-53833121D01*
X67690280Y-53833124D01*
X67690281Y-53833126D01*
X67751472Y-53953220D01*
X67751473Y-53953221D01*
X67751476Y-53953225D01*
X67846774Y-54048523D01*
X67846778Y-54048526D01*
X67846780Y-54048528D01*
X67966874Y-54109719D01*
X67966876Y-54109719D01*
X67966878Y-54109720D01*
X68099998Y-54130804D01*
X68100000Y-54130804D01*
X68100002Y-54130804D01*
X68233121Y-54109720D01*
X68233121Y-54109719D01*
X68233126Y-54109719D01*
X68353220Y-54048528D01*
X68448528Y-53953220D01*
X68509719Y-53833126D01*
X68530804Y-53700000D01*
X68509719Y-53566874D01*
X68448528Y-53446780D01*
X68448526Y-53446778D01*
X68448523Y-53446774D01*
X68353225Y-53351476D01*
X68353221Y-53351473D01*
X68353220Y-53351472D01*
X68233126Y-53290281D01*
X68233124Y-53290280D01*
X68233121Y-53290279D01*
X68100002Y-53269196D01*
X68099998Y-53269196D01*
X67966878Y-53290279D01*
X67846778Y-53351473D01*
X67846774Y-53351476D01*
X67751476Y-53446774D01*
X67751473Y-53446778D01*
X67690279Y-53566878D01*
X67669196Y-53699997D01*
X41500500Y-53699997D01*
X41500500Y-52519997D01*
X68639196Y-52519997D01*
X68639196Y-52520002D01*
X68660279Y-52653121D01*
X68660280Y-52653124D01*
X68660281Y-52653126D01*
X68721472Y-52773220D01*
X68721473Y-52773221D01*
X68721476Y-52773225D01*
X68816774Y-52868523D01*
X68816778Y-52868526D01*
X68816780Y-52868528D01*
X68936874Y-52929719D01*
X68936876Y-52929719D01*
X68936878Y-52929720D01*
X69069998Y-52950804D01*
X69070000Y-52950804D01*
X69070002Y-52950804D01*
X69203121Y-52929720D01*
X69203121Y-52929719D01*
X69203126Y-52929719D01*
X69323220Y-52868528D01*
X69418528Y-52773220D01*
X69479719Y-52653126D01*
X69500804Y-52520000D01*
X69479719Y-52386874D01*
X69418528Y-52266780D01*
X69418526Y-52266778D01*
X69418523Y-52266774D01*
X69323225Y-52171476D01*
X69323221Y-52171473D01*
X69323220Y-52171472D01*
X69203126Y-52110281D01*
X69203124Y-52110280D01*
X69203121Y-52110279D01*
X69070002Y-52089196D01*
X69069998Y-52089196D01*
X68936878Y-52110279D01*
X68816778Y-52171473D01*
X68816774Y-52171476D01*
X68721476Y-52266774D01*
X68721473Y-52266778D01*
X68660279Y-52386878D01*
X68639196Y-52519997D01*
X41500500Y-52519997D01*
X41500500Y-50734997D01*
X57469196Y-50734997D01*
X57469196Y-50735002D01*
X57490279Y-50868121D01*
X57490280Y-50868124D01*
X57490281Y-50868126D01*
X57503068Y-50893221D01*
X57551473Y-50988221D01*
X57551476Y-50988225D01*
X57646774Y-51083523D01*
X57646778Y-51083526D01*
X57646780Y-51083528D01*
X57766874Y-51144719D01*
X57766876Y-51144719D01*
X57766878Y-51144720D01*
X57899998Y-51165804D01*
X57900000Y-51165804D01*
X57900002Y-51165804D01*
X58033121Y-51144720D01*
X58033121Y-51144719D01*
X58033126Y-51144719D01*
X58153220Y-51083528D01*
X58248528Y-50988220D01*
X58309719Y-50868126D01*
X58309720Y-50868121D01*
X58330804Y-50735002D01*
X58330804Y-50734997D01*
X58315757Y-50639997D01*
X64809196Y-50639997D01*
X64809196Y-50640002D01*
X64830279Y-50773121D01*
X64830280Y-50773124D01*
X64830281Y-50773126D01*
X64878686Y-50868126D01*
X64891473Y-50893221D01*
X64891476Y-50893225D01*
X64986774Y-50988523D01*
X64986778Y-50988526D01*
X64986780Y-50988528D01*
X65106874Y-51049719D01*
X65106876Y-51049719D01*
X65106878Y-51049720D01*
X65239998Y-51070804D01*
X65240000Y-51070804D01*
X65240002Y-51070804D01*
X65373121Y-51049720D01*
X65373121Y-51049719D01*
X65373126Y-51049719D01*
X65493220Y-50988528D01*
X65588528Y-50893220D01*
X65649719Y-50773126D01*
X65670804Y-50640000D01*
X65664766Y-50601878D01*
X65649720Y-50506878D01*
X65649719Y-50506876D01*
X65649719Y-50506874D01*
X65588528Y-50386780D01*
X65588526Y-50386778D01*
X65588523Y-50386774D01*
X65493225Y-50291476D01*
X65493221Y-50291473D01*
X65493220Y-50291472D01*
X65373126Y-50230281D01*
X65373124Y-50230280D01*
X65373121Y-50230279D01*
X65240002Y-50209196D01*
X65239998Y-50209196D01*
X65106878Y-50230279D01*
X64986778Y-50291473D01*
X64986774Y-50291476D01*
X64891476Y-50386774D01*
X64891473Y-50386778D01*
X64830279Y-50506878D01*
X64809196Y-50639997D01*
X58315757Y-50639997D01*
X58309720Y-50601878D01*
X58309719Y-50601876D01*
X58309719Y-50601874D01*
X58248528Y-50481780D01*
X58248526Y-50481778D01*
X58248523Y-50481774D01*
X58153225Y-50386476D01*
X58153221Y-50386473D01*
X58153220Y-50386472D01*
X58033126Y-50325281D01*
X58033124Y-50325280D01*
X58033121Y-50325279D01*
X57900002Y-50304196D01*
X57899998Y-50304196D01*
X57766878Y-50325279D01*
X57646778Y-50386473D01*
X57646774Y-50386476D01*
X57551476Y-50481774D01*
X57551473Y-50481778D01*
X57490279Y-50601878D01*
X57469196Y-50734997D01*
X41500500Y-50734997D01*
X41500500Y-49374997D01*
X57369196Y-49374997D01*
X57369196Y-49375002D01*
X57390279Y-49508121D01*
X57390280Y-49508124D01*
X57390281Y-49508126D01*
X57451472Y-49628220D01*
X57451473Y-49628221D01*
X57451476Y-49628225D01*
X57546774Y-49723523D01*
X57546778Y-49723526D01*
X57546780Y-49723528D01*
X57666874Y-49784719D01*
X57666876Y-49784719D01*
X57666878Y-49784720D01*
X57799998Y-49805804D01*
X57800000Y-49805804D01*
X57800002Y-49805804D01*
X57933121Y-49784720D01*
X57933121Y-49784719D01*
X57933126Y-49784719D01*
X58053220Y-49723528D01*
X58148528Y-49628220D01*
X58209719Y-49508126D01*
X58230804Y-49375000D01*
X58209719Y-49241874D01*
X58148528Y-49121780D01*
X58148526Y-49121778D01*
X58148523Y-49121774D01*
X58053225Y-49026476D01*
X58053221Y-49026473D01*
X58053220Y-49026472D01*
X57933126Y-48965281D01*
X57933124Y-48965280D01*
X57933121Y-48965279D01*
X57800002Y-48944196D01*
X57799998Y-48944196D01*
X57666878Y-48965279D01*
X57546778Y-49026473D01*
X57546774Y-49026476D01*
X57451476Y-49121774D01*
X57451473Y-49121778D01*
X57390279Y-49241878D01*
X57369196Y-49374997D01*
X41500500Y-49374997D01*
X41500500Y-46819033D01*
X41520185Y-46751994D01*
X41572989Y-46706239D01*
X41642147Y-46696295D01*
X41705703Y-46725320D01*
X41740264Y-46774595D01*
X41798204Y-46925535D01*
X41964754Y-47252406D01*
X42164553Y-47560070D01*
X42353297Y-47793148D01*
X43705747Y-46440698D01*
X43779588Y-46542330D01*
X43957670Y-46720412D01*
X44059300Y-46794251D01*
X42706850Y-48146701D01*
X42939929Y-48335446D01*
X43247593Y-48535245D01*
X43574464Y-48701795D01*
X43916948Y-48833263D01*
X44271314Y-48928215D01*
X44633646Y-48985602D01*
X44999999Y-49004803D01*
X45000001Y-49004803D01*
X45366353Y-48985602D01*
X45728684Y-48928215D01*
X45728686Y-48928215D01*
X46083051Y-48833263D01*
X46425535Y-48701795D01*
X46752406Y-48535245D01*
X47060064Y-48335450D01*
X47293148Y-48146701D01*
X45940698Y-46794251D01*
X46042330Y-46720412D01*
X46220412Y-46542330D01*
X46294251Y-46440698D01*
X47646701Y-47793148D01*
X47835450Y-47560064D01*
X48035245Y-47252406D01*
X48201795Y-46925535D01*
X48333263Y-46583051D01*
X48428215Y-46228686D01*
X48428215Y-46228684D01*
X48485602Y-45866353D01*
X48504803Y-45500000D01*
X48504803Y-45499999D01*
X48485602Y-45133646D01*
X48428215Y-44771315D01*
X48428215Y-44771313D01*
X48333263Y-44416948D01*
X48201795Y-44074464D01*
X48035245Y-43747594D01*
X48011825Y-43711530D01*
X57739500Y-43711530D01*
X57739500Y-44168469D01*
X57779868Y-44371412D01*
X57779870Y-44371420D01*
X57859058Y-44562596D01*
X57974024Y-44734657D01*
X58120342Y-44880975D01*
X58120345Y-44880977D01*
X58292402Y-44995941D01*
X58483580Y-45075130D01*
X58672187Y-45112646D01*
X58686530Y-45115499D01*
X58686534Y-45115500D01*
X58686535Y-45115500D01*
X58893466Y-45115500D01*
X58893467Y-45115499D01*
X59096420Y-45075130D01*
X59287598Y-44995941D01*
X59459655Y-44880977D01*
X59605977Y-44734655D01*
X59720941Y-44562598D01*
X59800130Y-44371420D01*
X59840500Y-44168465D01*
X59840500Y-43711535D01*
X59840499Y-43711530D01*
X60239500Y-43711530D01*
X60239500Y-44168469D01*
X60279868Y-44371412D01*
X60279870Y-44371420D01*
X60359058Y-44562596D01*
X60474024Y-44734657D01*
X60620342Y-44880975D01*
X60620345Y-44880977D01*
X60792402Y-44995941D01*
X60983580Y-45075130D01*
X61172187Y-45112646D01*
X61186530Y-45115499D01*
X61186534Y-45115500D01*
X61186535Y-45115500D01*
X61393466Y-45115500D01*
X61393467Y-45115499D01*
X61596420Y-45075130D01*
X61787598Y-44995941D01*
X61959655Y-44880977D01*
X62105977Y-44734655D01*
X62220941Y-44562598D01*
X62300130Y-44371420D01*
X62340500Y-44168465D01*
X62340500Y-43711535D01*
X62340499Y-43711530D01*
X62739500Y-43711530D01*
X62739500Y-44168469D01*
X62779868Y-44371412D01*
X62779870Y-44371420D01*
X62859058Y-44562596D01*
X62974024Y-44734657D01*
X63120342Y-44880975D01*
X63120345Y-44880977D01*
X63292402Y-44995941D01*
X63483580Y-45075130D01*
X63672187Y-45112646D01*
X63686530Y-45115499D01*
X63686534Y-45115500D01*
X63686535Y-45115500D01*
X63893466Y-45115500D01*
X63893467Y-45115499D01*
X64096420Y-45075130D01*
X64287598Y-44995941D01*
X64459655Y-44880977D01*
X64605977Y-44734655D01*
X64720941Y-44562598D01*
X64800130Y-44371420D01*
X64840500Y-44168465D01*
X64840500Y-43711535D01*
X64840499Y-43711530D01*
X65239500Y-43711530D01*
X65239500Y-44168469D01*
X65279868Y-44371412D01*
X65279870Y-44371420D01*
X65359058Y-44562596D01*
X65474024Y-44734657D01*
X65620342Y-44880975D01*
X65620345Y-44880977D01*
X65792402Y-44995941D01*
X65983580Y-45075130D01*
X66172187Y-45112646D01*
X66186530Y-45115499D01*
X66186534Y-45115500D01*
X66186535Y-45115500D01*
X66393466Y-45115500D01*
X66393467Y-45115499D01*
X66596420Y-45075130D01*
X66787598Y-44995941D01*
X66959655Y-44880977D01*
X67105977Y-44734655D01*
X67220941Y-44562598D01*
X67300130Y-44371420D01*
X67340500Y-44168465D01*
X67340500Y-43711535D01*
X67336216Y-43690000D01*
X67645463Y-43690000D01*
X68385854Y-43690000D01*
X68347370Y-43756657D01*
X68315000Y-43877465D01*
X68315000Y-44002535D01*
X68347370Y-44123343D01*
X68385854Y-44190000D01*
X67645463Y-44190000D01*
X67668317Y-44334293D01*
X67724251Y-44506444D01*
X67724252Y-44506447D01*
X67806434Y-44667734D01*
X67912823Y-44814169D01*
X68040830Y-44942176D01*
X68187265Y-45048565D01*
X68348552Y-45130747D01*
X68348555Y-45130748D01*
X68520699Y-45186680D01*
X68520712Y-45186683D01*
X68540000Y-45189738D01*
X68540000Y-44344145D01*
X68606657Y-44382630D01*
X68727465Y-44415000D01*
X68852535Y-44415000D01*
X68973343Y-44382630D01*
X69040000Y-44344145D01*
X69040000Y-45189737D01*
X69059287Y-45186683D01*
X69059300Y-45186680D01*
X69231444Y-45130748D01*
X69231447Y-45130747D01*
X69392734Y-45048565D01*
X69539169Y-44942176D01*
X69667176Y-44814169D01*
X69773565Y-44667734D01*
X69855747Y-44506447D01*
X69855748Y-44506444D01*
X69911682Y-44334293D01*
X69934537Y-44190000D01*
X69194146Y-44190000D01*
X69232630Y-44123343D01*
X69265000Y-44002535D01*
X69265000Y-43877465D01*
X69232630Y-43756657D01*
X69194146Y-43690000D01*
X69934537Y-43690000D01*
X69911682Y-43545706D01*
X69855748Y-43373555D01*
X69855747Y-43373552D01*
X69773565Y-43212265D01*
X69736123Y-43160730D01*
X70239500Y-43160730D01*
X70239500Y-44719269D01*
X70242353Y-44749699D01*
X70242353Y-44749701D01*
X70287206Y-44877880D01*
X70287207Y-44877882D01*
X70367850Y-44987150D01*
X70477118Y-45067793D01*
X70519845Y-45082744D01*
X70605299Y-45112646D01*
X70635730Y-45115500D01*
X70635734Y-45115500D01*
X71944270Y-45115500D01*
X71974699Y-45112646D01*
X71974701Y-45112646D01*
X72038790Y-45090219D01*
X72102882Y-45067793D01*
X72212150Y-44987150D01*
X72292793Y-44877882D01*
X72315219Y-44813790D01*
X72337646Y-44749701D01*
X72337646Y-44749699D01*
X72340500Y-44719269D01*
X72340500Y-44649997D01*
X75569196Y-44649997D01*
X75569196Y-44650002D01*
X75590279Y-44783121D01*
X75590280Y-44783124D01*
X75590281Y-44783126D01*
X75607684Y-44817281D01*
X75651473Y-44903221D01*
X75651476Y-44903225D01*
X75746774Y-44998523D01*
X75746778Y-44998526D01*
X75746780Y-44998528D01*
X75866874Y-45059719D01*
X75866876Y-45059719D01*
X75866878Y-45059720D01*
X75999998Y-45080804D01*
X76000000Y-45080804D01*
X76000002Y-45080804D01*
X76133121Y-45059720D01*
X76133121Y-45059719D01*
X76133126Y-45059719D01*
X76253220Y-44998528D01*
X76348528Y-44903220D01*
X76409719Y-44783126D01*
X76415013Y-44749701D01*
X76430804Y-44650002D01*
X76430804Y-44649997D01*
X76409720Y-44516878D01*
X76409719Y-44516876D01*
X76409719Y-44516874D01*
X76348528Y-44396780D01*
X76348526Y-44396778D01*
X76348523Y-44396774D01*
X76253225Y-44301476D01*
X76253221Y-44301473D01*
X76253220Y-44301472D01*
X76133126Y-44240281D01*
X76133124Y-44240280D01*
X76133121Y-44240279D01*
X76000002Y-44219196D01*
X75999998Y-44219196D01*
X75866878Y-44240279D01*
X75746778Y-44301473D01*
X75746774Y-44301476D01*
X75651476Y-44396774D01*
X75651473Y-44396778D01*
X75590279Y-44516878D01*
X75569196Y-44649997D01*
X72340500Y-44649997D01*
X72340500Y-43160730D01*
X72337646Y-43130300D01*
X72337646Y-43130298D01*
X72292793Y-43002119D01*
X72292792Y-43002117D01*
X72212150Y-42892850D01*
X72102882Y-42812207D01*
X72102880Y-42812206D01*
X71974700Y-42767353D01*
X71944270Y-42764500D01*
X71944266Y-42764500D01*
X70635734Y-42764500D01*
X70635730Y-42764500D01*
X70605300Y-42767353D01*
X70605298Y-42767353D01*
X70477119Y-42812206D01*
X70477117Y-42812207D01*
X70367850Y-42892850D01*
X70287207Y-43002117D01*
X70287206Y-43002119D01*
X70242353Y-43130298D01*
X70242353Y-43130300D01*
X70239500Y-43160730D01*
X69736123Y-43160730D01*
X69667176Y-43065830D01*
X69539169Y-42937823D01*
X69392734Y-42831434D01*
X69231447Y-42749252D01*
X69231441Y-42749250D01*
X69059295Y-42693318D01*
X69059285Y-42693315D01*
X69040000Y-42690260D01*
X69040000Y-43535854D01*
X68973343Y-43497370D01*
X68852535Y-43465000D01*
X68727465Y-43465000D01*
X68606657Y-43497370D01*
X68540000Y-43535854D01*
X68540000Y-42690260D01*
X68520714Y-42693315D01*
X68520704Y-42693318D01*
X68348558Y-42749250D01*
X68348552Y-42749252D01*
X68187265Y-42831434D01*
X68040830Y-42937823D01*
X67912823Y-43065830D01*
X67806434Y-43212265D01*
X67724252Y-43373552D01*
X67724251Y-43373555D01*
X67668317Y-43545706D01*
X67645463Y-43690000D01*
X67336216Y-43690000D01*
X67300130Y-43508580D01*
X67220941Y-43317402D01*
X67105977Y-43145345D01*
X67105975Y-43145342D01*
X66959657Y-42999024D01*
X66868062Y-42937823D01*
X66787598Y-42884059D01*
X66713332Y-42853297D01*
X66596420Y-42804870D01*
X66596412Y-42804868D01*
X66393469Y-42764500D01*
X66393465Y-42764500D01*
X66186535Y-42764500D01*
X66186530Y-42764500D01*
X65983587Y-42804868D01*
X65983579Y-42804870D01*
X65792403Y-42884058D01*
X65620342Y-42999024D01*
X65474024Y-43145342D01*
X65359058Y-43317403D01*
X65279870Y-43508579D01*
X65279868Y-43508587D01*
X65239500Y-43711530D01*
X64840499Y-43711530D01*
X64800130Y-43508580D01*
X64720941Y-43317402D01*
X64605977Y-43145345D01*
X64605975Y-43145342D01*
X64459657Y-42999024D01*
X64368062Y-42937823D01*
X64287598Y-42884059D01*
X64213332Y-42853297D01*
X64096420Y-42804870D01*
X64096412Y-42804868D01*
X63893469Y-42764500D01*
X63893465Y-42764500D01*
X63686535Y-42764500D01*
X63686530Y-42764500D01*
X63483587Y-42804868D01*
X63483579Y-42804870D01*
X63292403Y-42884058D01*
X63120342Y-42999024D01*
X62974024Y-43145342D01*
X62859058Y-43317403D01*
X62779870Y-43508579D01*
X62779868Y-43508587D01*
X62739500Y-43711530D01*
X62340499Y-43711530D01*
X62300130Y-43508580D01*
X62220941Y-43317402D01*
X62105977Y-43145345D01*
X62105975Y-43145342D01*
X61959657Y-42999024D01*
X61868062Y-42937823D01*
X61787598Y-42884059D01*
X61713332Y-42853297D01*
X61596420Y-42804870D01*
X61596412Y-42804868D01*
X61393469Y-42764500D01*
X61393465Y-42764500D01*
X61186535Y-42764500D01*
X61186530Y-42764500D01*
X60983587Y-42804868D01*
X60983579Y-42804870D01*
X60792403Y-42884058D01*
X60620342Y-42999024D01*
X60474024Y-43145342D01*
X60359058Y-43317403D01*
X60279870Y-43508579D01*
X60279868Y-43508587D01*
X60239500Y-43711530D01*
X59840499Y-43711530D01*
X59800130Y-43508580D01*
X59720941Y-43317402D01*
X59605977Y-43145345D01*
X59605975Y-43145342D01*
X59459657Y-42999024D01*
X59368062Y-42937823D01*
X59287598Y-42884059D01*
X59213332Y-42853297D01*
X59096420Y-42804870D01*
X59096412Y-42804868D01*
X58893469Y-42764500D01*
X58893465Y-42764500D01*
X58686535Y-42764500D01*
X58686530Y-42764500D01*
X58483587Y-42804868D01*
X58483579Y-42804870D01*
X58292403Y-42884058D01*
X58120342Y-42999024D01*
X57974024Y-43145342D01*
X57859058Y-43317403D01*
X57779870Y-43508579D01*
X57779868Y-43508587D01*
X57739500Y-43711530D01*
X48011825Y-43711530D01*
X47835446Y-43439929D01*
X47646701Y-43206850D01*
X46294251Y-44559300D01*
X46220412Y-44457670D01*
X46042330Y-44279588D01*
X45940698Y-44205748D01*
X47293148Y-42853297D01*
X47060070Y-42664553D01*
X46752406Y-42464754D01*
X46425535Y-42298204D01*
X46274595Y-42240264D01*
X46219063Y-42197862D01*
X46195270Y-42132168D01*
X46210772Y-42064040D01*
X46260645Y-42015107D01*
X46319033Y-42000500D01*
X92680967Y-42000500D01*
X92748006Y-42020185D01*
G37*
%TD.AperFunction*%
%TD*%
M02*
