%TF.GenerationSoftware,KiCad,Pcbnew,8.0.5*%
%TF.CreationDate,2024-10-23T10:25:23+02:00*%
%TF.ProjectId,Pojet_V-NOM_KiCAD,506f6a65-745f-4562-9d4e-4f4d5f4b6943,rev?*%
%TF.SameCoordinates,Original*%
%TF.FileFunction,Copper,L3,Inr*%
%TF.FilePolarity,Positive*%
%FSLAX46Y46*%
G04 Gerber Fmt 4.6, Leading zero omitted, Abs format (unit mm)*
G04 Created by KiCad (PCBNEW 8.0.5) date 2024-10-23 10:25:23*
%MOMM*%
%LPD*%
G01*
G04 APERTURE LIST*
G04 Aperture macros list*
%AMRoundRect*
0 Rectangle with rounded corners*
0 $1 Rounding radius*
0 $2 $3 $4 $5 $6 $7 $8 $9 X,Y pos of 4 corners*
0 Add a 4 corners polygon primitive as box body*
4,1,4,$2,$3,$4,$5,$6,$7,$8,$9,$2,$3,0*
0 Add four circle primitives for the rounded corners*
1,1,$1+$1,$2,$3*
1,1,$1+$1,$4,$5*
1,1,$1+$1,$6,$7*
1,1,$1+$1,$8,$9*
0 Add four rect primitives between the rounded corners*
20,1,$1+$1,$2,$3,$4,$5,0*
20,1,$1+$1,$4,$5,$6,$7,0*
20,1,$1+$1,$6,$7,$8,$9,0*
20,1,$1+$1,$8,$9,$2,$3,0*%
G04 Aperture macros list end*
%TA.AperFunction,ComponentPad*%
%ADD10RoundRect,0.250000X0.725000X-0.600000X0.725000X0.600000X-0.725000X0.600000X-0.725000X-0.600000X0*%
%TD*%
%TA.AperFunction,ComponentPad*%
%ADD11O,1.950000X1.700000*%
%TD*%
%TA.AperFunction,ComponentPad*%
%ADD12RoundRect,0.250000X-0.600000X-0.725000X0.600000X-0.725000X0.600000X0.725000X-0.600000X0.725000X0*%
%TD*%
%TA.AperFunction,ComponentPad*%
%ADD13O,1.700000X1.950000*%
%TD*%
%TA.AperFunction,ComponentPad*%
%ADD14C,0.800000*%
%TD*%
%TA.AperFunction,ComponentPad*%
%ADD15C,6.400000*%
%TD*%
%TA.AperFunction,ComponentPad*%
%ADD16RoundRect,0.250000X-0.600000X-0.750000X0.600000X-0.750000X0.600000X0.750000X-0.600000X0.750000X0*%
%TD*%
%TA.AperFunction,ComponentPad*%
%ADD17O,1.700000X2.000000*%
%TD*%
%TA.AperFunction,ComponentPad*%
%ADD18RoundRect,0.250000X0.600000X0.725000X-0.600000X0.725000X-0.600000X-0.725000X0.600000X-0.725000X0*%
%TD*%
%TA.AperFunction,ComponentPad*%
%ADD19RoundRect,0.250000X-0.725000X0.600000X-0.725000X-0.600000X0.725000X-0.600000X0.725000X0.600000X0*%
%TD*%
%TA.AperFunction,ViaPad*%
%ADD20C,0.450000*%
%TD*%
G04 APERTURE END LIST*
D10*
%TO.N,+5V*%
%TO.C,J3*%
X95680000Y-84870000D03*
D11*
%TO.N,/acquisition/TX_LIDAR*%
X95680000Y-82370000D03*
%TO.N,/acquisition/RX_LIDAR*%
X95680000Y-79870000D03*
%TO.N,GND*%
X95680000Y-77370000D03*
%TO.N,/acquisition/EN_MOT*%
X95680000Y-74870000D03*
%TO.N,/acquisition/EN_LIDAR*%
X95680000Y-72370000D03*
%TO.N,/acquisition/VIT_MOT_LIDAR*%
X95680000Y-69870000D03*
%TO.N,unconnected-(J3-Pin_8-Pad8)*%
X95680000Y-67370000D03*
%TD*%
D12*
%TO.N,/acquisition/TOF1*%
%TO.C,J4*%
X70500000Y-93150000D03*
D13*
%TO.N,GND*%
X73000000Y-93150000D03*
%TO.N,+5V*%
X75500000Y-93150000D03*
%TD*%
D14*
%TO.N,GND*%
%TO.C,H4*%
X91600000Y-45500000D03*
X92302944Y-43802944D03*
X92302944Y-47197056D03*
X94000000Y-43100000D03*
D15*
X94000000Y-45500000D03*
D14*
X94000000Y-47900000D03*
X95697056Y-43802944D03*
X95697056Y-47197056D03*
X96400000Y-45500000D03*
%TD*%
%TO.N,GND*%
%TO.C,H2*%
X42600000Y-91500000D03*
X43302944Y-89802944D03*
X43302944Y-93197056D03*
X45000000Y-89100000D03*
D15*
X45000000Y-91500000D03*
D14*
X45000000Y-93900000D03*
X46697056Y-89802944D03*
X46697056Y-93197056D03*
X47400000Y-91500000D03*
%TD*%
D16*
%TO.N,Net-(BT1-+)*%
%TO.C,BT1*%
X52750000Y-93150000D03*
D17*
%TO.N,GND*%
X55250000Y-93150000D03*
%TD*%
D16*
%TO.N,Net-(BT1-+)*%
%TO.C,J6*%
X61700000Y-93100000D03*
D17*
%TO.N,+BATT*%
X64200000Y-93100000D03*
%TD*%
D14*
%TO.N,GND*%
%TO.C,H3*%
X91600000Y-91500000D03*
X92302944Y-89802944D03*
X92302944Y-93197056D03*
X94000000Y-89100000D03*
D15*
X94000000Y-91500000D03*
D14*
X94000000Y-93900000D03*
X95697056Y-89802944D03*
X95697056Y-93197056D03*
X96400000Y-91500000D03*
%TD*%
D18*
%TO.N,/Deplacement/Driver_Motor1/OUT2*%
%TO.C,J301*%
X71290000Y-43940000D03*
D13*
%TO.N,GND*%
X68790000Y-43940000D03*
%TO.N,/Deplacement/Encoder B phase 1*%
X66290000Y-43940000D03*
%TO.N,/Deplacement/Encoder A phase 1*%
X63790000Y-43940000D03*
%TO.N,+3.3V*%
X61290000Y-43940000D03*
%TO.N,/Deplacement/Driver_Motor1/OUT1*%
X58790000Y-43940000D03*
%TD*%
D12*
%TO.N,/acquisition/TOF2*%
%TO.C,J5*%
X81500000Y-93150000D03*
D13*
%TO.N,GND*%
X84000000Y-93150000D03*
%TO.N,+5V*%
X86500000Y-93150000D03*
%TD*%
D19*
%TO.N,/Deplacement/Driver_Motor2/OUT2*%
%TO.C,J302*%
X43510000Y-59000000D03*
D11*
%TO.N,GND*%
X43510000Y-61500000D03*
%TO.N,/Deplacement/Encoder B phase 2*%
X43510000Y-64000000D03*
%TO.N,/Deplacement/Encoder A phase 2*%
X43510000Y-66500000D03*
%TO.N,+3.3V*%
X43510000Y-69000000D03*
%TO.N,/Deplacement/Driver_Motor2/OUT1*%
X43510000Y-71500000D03*
%TD*%
D14*
%TO.N,GND*%
%TO.C,H1*%
X42600000Y-45500000D03*
X43302944Y-43802944D03*
X43302944Y-47197056D03*
X45000000Y-43100000D03*
D15*
X45000000Y-45500000D03*
D14*
X45000000Y-47900000D03*
X46697056Y-43802944D03*
X46697056Y-47197056D03*
X47400000Y-45500000D03*
%TD*%
D20*
%TO.N,GND*%
X72200000Y-57200000D03*
X47277500Y-70760000D03*
X73200000Y-65050000D03*
X62200000Y-69700000D03*
X96460000Y-56810000D03*
X52000000Y-77400000D03*
X51110000Y-65700000D03*
X53900000Y-81030000D03*
X62450000Y-50010000D03*
X65940000Y-74270000D03*
X56650000Y-71940000D03*
X61450000Y-51410000D03*
X67350000Y-73100000D03*
X48110000Y-64700000D03*
X82495000Y-87207500D03*
X89350000Y-69050000D03*
X51110000Y-63700000D03*
X47702500Y-60900000D03*
X77700000Y-44650000D03*
X60450000Y-50010000D03*
X60450000Y-48610000D03*
X62200000Y-66900000D03*
X83690000Y-89210000D03*
X42350000Y-79150000D03*
X49610000Y-65700000D03*
X63600000Y-66900000D03*
X65000000Y-56800000D03*
X90000000Y-62550000D03*
X70600000Y-57150000D03*
X63600000Y-68300000D03*
X60800000Y-68300000D03*
X96420000Y-58080000D03*
X72400000Y-70600000D03*
X62450000Y-48610000D03*
X56075000Y-52285000D03*
X85070000Y-85160000D03*
X56050000Y-47710000D03*
X77385000Y-79247500D03*
X96450000Y-54270000D03*
X60450000Y-51410000D03*
X62450000Y-51410000D03*
X83085000Y-76897500D03*
X79150000Y-47400000D03*
X52920000Y-69100000D03*
X60750000Y-61580000D03*
X91000000Y-70100000D03*
X59660000Y-61560000D03*
X48110000Y-63700000D03*
X61450000Y-48610000D03*
X60800000Y-66900000D03*
X65250000Y-48110000D03*
X51110000Y-64700000D03*
X88500000Y-48600000D03*
X60800000Y-69700000D03*
X48110000Y-65700000D03*
X62550000Y-56800000D03*
X49610000Y-63700000D03*
X72150000Y-68900000D03*
X68600000Y-67675000D03*
X63600000Y-69700000D03*
X84735000Y-84347500D03*
X62200000Y-68300000D03*
X84585000Y-82297500D03*
%TO.N,+3.3V*%
X61450000Y-63790000D03*
X76000000Y-44650000D03*
X64975000Y-72710000D03*
X56450000Y-70980000D03*
X66440000Y-71120000D03*
X59650000Y-63770000D03*
X54760000Y-84710000D03*
X69800000Y-57250000D03*
X59765000Y-60050000D03*
X96590000Y-59350000D03*
X73800000Y-57280000D03*
X57891644Y-70608771D03*
X88400000Y-64600000D03*
%TO.N,+BATT*%
X65240000Y-50640000D03*
X50400000Y-68300000D03*
X82150000Y-83400000D03*
X48975000Y-68300000D03*
X80700000Y-86117500D03*
X80600000Y-83947500D03*
X50250000Y-60840000D03*
X81535000Y-85400000D03*
X57800000Y-49375000D03*
X57900000Y-50735000D03*
%TO.N,+5V*%
X80795000Y-75297500D03*
X82575000Y-75277500D03*
X75955000Y-75287500D03*
X88400000Y-69000000D03*
X88705000Y-84800000D03*
X87600000Y-84800000D03*
X90300000Y-69000000D03*
X88000000Y-89100000D03*
X89800000Y-84800000D03*
%TO.N,Net-(IC1002-VCC)*%
X75430000Y-82297500D03*
X80550000Y-77830000D03*
%TO.N,Net-(IC1002-EN{slash}SYNC)*%
X77930000Y-83940000D03*
X82785000Y-78597500D03*
%TO.N,/controle/SWCLK*%
X58980000Y-76180000D03*
X78650000Y-68800000D03*
%TO.N,/controle/VCP_RX*%
X82050000Y-60850000D03*
X63717500Y-73322500D03*
%TO.N,/controle/NRST*%
X87800000Y-54300000D03*
X70010000Y-66590000D03*
%TO.N,/controle/SWDIO*%
X89000000Y-59410000D03*
X58800000Y-71980000D03*
%TO.N,/controle/VCP_TX*%
X63820000Y-74490000D03*
X83031091Y-60021091D03*
%TO.N,/acquisition/EN_MOT*%
X61000000Y-75150000D03*
X63674805Y-75123578D03*
X63723924Y-77773894D03*
X79125000Y-74195000D03*
%TO.N,/acquisition/EN_LIDAR*%
X63173924Y-77240070D03*
X60450000Y-75700000D03*
X79360000Y-72450000D03*
X63173924Y-75700000D03*
%TO.N,/acquisition/VIT_MOT_LIDAR*%
X55960000Y-68740000D03*
X82600000Y-71552182D03*
%TO.N,/acquisition/RX_LIDAR*%
X61450000Y-79300000D03*
X90020000Y-86080000D03*
%TO.N,/acquisition/TX_LIDAR*%
X59600000Y-79070000D03*
%TO.N,/acquisition/TOF1*%
X66783603Y-66543603D03*
X68010000Y-70160000D03*
%TO.N,/Deplacement/Encoder B phase 1*%
X56510000Y-69450000D03*
%TO.N,/Deplacement/Encoder A phase 1*%
X60405134Y-80832952D03*
%TO.N,/Deplacement/Encoder A phase 2*%
X60478768Y-81478768D03*
%TO.N,/Deplacement/Encoder B phase 2*%
X54850000Y-70050000D03*
%TO.N,/controle/BTN_START*%
X77575000Y-62475000D03*
X66855330Y-70620000D03*
%TO.N,/acquisition/AG_MISO*%
X69070000Y-52520000D03*
X68100000Y-53700000D03*
%TO.N,/acquisition/AG_CSN*%
X68300000Y-60200000D03*
X64650000Y-62500000D03*
%TO.N,/Deplacement/FWD1*%
X54440000Y-65040000D03*
X54450000Y-62530000D03*
%TO.N,/acquisition/AG_INT1*%
X78775000Y-56050000D03*
X77427500Y-54702500D03*
%TD*%
%TA.AperFunction,Conductor*%
%TO.N,+3.3V*%
G36*
X93047010Y-42020185D02*
G01*
X93092765Y-42072989D01*
X93102709Y-42142147D01*
X93073684Y-42205703D01*
X93019564Y-42242009D01*
X92739497Y-42336375D01*
X92739494Y-42336376D01*
X92739486Y-42336379D01*
X92404846Y-42491200D01*
X92404842Y-42491202D01*
X92240187Y-42590272D01*
X92088881Y-42681310D01*
X92073089Y-42693315D01*
X91795330Y-42904461D01*
X91795330Y-42904462D01*
X91527626Y-43158044D01*
X91288909Y-43439083D01*
X91081979Y-43744282D01*
X91081973Y-43744291D01*
X90909261Y-44070061D01*
X90909255Y-44070073D01*
X90772770Y-44412628D01*
X90772768Y-44412634D01*
X90674128Y-44767905D01*
X90674122Y-44767931D01*
X90614470Y-45131786D01*
X90614469Y-45131803D01*
X90594506Y-45499997D01*
X90594506Y-45500002D01*
X90614469Y-45868196D01*
X90614470Y-45868213D01*
X90674122Y-46232068D01*
X90674128Y-46232094D01*
X90772768Y-46587365D01*
X90772770Y-46587371D01*
X90909255Y-46929926D01*
X90909261Y-46929938D01*
X91081973Y-47255708D01*
X91081976Y-47255713D01*
X91081978Y-47255716D01*
X91136582Y-47336251D01*
X91288909Y-47560916D01*
X91500245Y-47809719D01*
X91527627Y-47841956D01*
X91795330Y-48095538D01*
X92088881Y-48318690D01*
X92404838Y-48508795D01*
X92404840Y-48508796D01*
X92404842Y-48508797D01*
X92404846Y-48508799D01*
X92601974Y-48600000D01*
X92739497Y-48663625D01*
X93088934Y-48781364D01*
X93449052Y-48860632D01*
X93815630Y-48900500D01*
X93815636Y-48900500D01*
X94184364Y-48900500D01*
X94184370Y-48900500D01*
X94550948Y-48860632D01*
X94911066Y-48781364D01*
X95260503Y-48663625D01*
X95595162Y-48508795D01*
X95911119Y-48318690D01*
X96204670Y-48095538D01*
X96472373Y-47841956D01*
X96711090Y-47560917D01*
X96918022Y-47255716D01*
X97090743Y-46929930D01*
X97227227Y-46587379D01*
X97247318Y-46515019D01*
X97256020Y-46483678D01*
X97292922Y-46424348D01*
X97356042Y-46394387D01*
X97425339Y-46403308D01*
X97478814Y-46448278D01*
X97499486Y-46515019D01*
X97499500Y-46516851D01*
X97499500Y-66748779D01*
X97479815Y-66815818D01*
X97427011Y-66861573D01*
X97357853Y-66871517D01*
X97356976Y-66871380D01*
X97336111Y-66868362D01*
X97336082Y-66868359D01*
X97312153Y-66866076D01*
X97292209Y-66865148D01*
X97292208Y-66865148D01*
X97263274Y-66865209D01*
X96916066Y-66865941D01*
X96910721Y-66866022D01*
X96904406Y-66866199D01*
X96841788Y-66877827D01*
X96840860Y-66878076D01*
X96840498Y-66878067D01*
X96837059Y-66878706D01*
X96836924Y-66877980D01*
X96771011Y-66876380D01*
X96713168Y-66837189D01*
X96705722Y-66827176D01*
X96691853Y-66806420D01*
X96620977Y-66700345D01*
X96620975Y-66700342D01*
X96474657Y-66554024D01*
X96379255Y-66490279D01*
X96302598Y-66439059D01*
X96233595Y-66410477D01*
X96111420Y-66359870D01*
X96111412Y-66359868D01*
X95908469Y-66319500D01*
X95908465Y-66319500D01*
X95451535Y-66319500D01*
X95451530Y-66319500D01*
X95248587Y-66359868D01*
X95248579Y-66359870D01*
X95057403Y-66439058D01*
X94885342Y-66554024D01*
X94739024Y-66700342D01*
X94694570Y-66766874D01*
X94668147Y-66806420D01*
X94650354Y-66833049D01*
X94596742Y-66877855D01*
X94527417Y-66886562D01*
X94512567Y-66883209D01*
X94499373Y-66879365D01*
X94499375Y-66879365D01*
X94453029Y-66872801D01*
X94441457Y-66871162D01*
X94441456Y-66871162D01*
X93664788Y-66872801D01*
X74213634Y-66913836D01*
X74193435Y-66914875D01*
X74193405Y-66914878D01*
X74169170Y-66917326D01*
X74169147Y-66917328D01*
X74149161Y-66920348D01*
X74149153Y-66920349D01*
X74149137Y-66920352D01*
X74116529Y-66926934D01*
X74116467Y-66926946D01*
X74070231Y-66936282D01*
X74070228Y-66936283D01*
X74031589Y-66948142D01*
X74031580Y-66948145D01*
X74031579Y-66948146D01*
X74019208Y-66953323D01*
X73986769Y-66966898D01*
X73951199Y-66986095D01*
X73951180Y-66986106D01*
X73942777Y-66991774D01*
X73942550Y-66991929D01*
X73894834Y-67024115D01*
X73863701Y-67049914D01*
X73829551Y-67084415D01*
X73829535Y-67084433D01*
X73804058Y-67115827D01*
X73804056Y-67115829D01*
X73766631Y-67172562D01*
X73766618Y-67172583D01*
X73747793Y-67208339D01*
X73747790Y-67208345D01*
X73747789Y-67208348D01*
X73729505Y-67253329D01*
X73729504Y-67253333D01*
X73718034Y-67292118D01*
X73702921Y-67371149D01*
X73702919Y-67371158D01*
X73700099Y-67391214D01*
X73697897Y-67415494D01*
X73697639Y-67421774D01*
X73697064Y-67435729D01*
X73707766Y-68750000D01*
X73708173Y-68799993D01*
X73708187Y-68801677D01*
X73708187Y-68801698D01*
X73708988Y-68900000D01*
X73710209Y-69049999D01*
X73716249Y-69791694D01*
X73718164Y-70026878D01*
X73718760Y-70099993D01*
X73718774Y-70101679D01*
X73718774Y-70101699D01*
X73730586Y-71552175D01*
X73730600Y-71553859D01*
X73730600Y-71553880D01*
X73737897Y-72449993D01*
X73737911Y-72451677D01*
X73737911Y-72451698D01*
X73752107Y-74194993D01*
X73752121Y-74196677D01*
X73752121Y-74196698D01*
X73753802Y-74403121D01*
X73756966Y-74791694D01*
X73758420Y-74970216D01*
X73774114Y-76897499D01*
X73774128Y-76899169D01*
X73777324Y-77291694D01*
X73781044Y-77748528D01*
X73781708Y-77829993D01*
X73781722Y-77831677D01*
X73781722Y-77831698D01*
X73787958Y-78597493D01*
X73787972Y-78599177D01*
X73787972Y-78599198D01*
X73791068Y-78979354D01*
X73791068Y-78979355D01*
X73791984Y-79091945D01*
X73791985Y-79091976D01*
X73793126Y-79111992D01*
X73793127Y-79112000D01*
X73795681Y-79136046D01*
X73795686Y-79136078D01*
X73798770Y-79155862D01*
X73805070Y-79186396D01*
X73799338Y-79256030D01*
X73756869Y-79311511D01*
X73691146Y-79335224D01*
X73682442Y-79335446D01*
X63133589Y-79234586D01*
X61963322Y-79223396D01*
X61896474Y-79203072D01*
X61854025Y-79155699D01*
X61798528Y-79046780D01*
X61798526Y-79046778D01*
X61798523Y-79046774D01*
X61703225Y-78951476D01*
X61703221Y-78951473D01*
X61703220Y-78951472D01*
X61583126Y-78890281D01*
X61583124Y-78890280D01*
X61583121Y-78890279D01*
X61450002Y-78869196D01*
X61449998Y-78869196D01*
X61316878Y-78890279D01*
X61196778Y-78951473D01*
X61196774Y-78951476D01*
X61101476Y-79046774D01*
X61101471Y-79046781D01*
X61050964Y-79145906D01*
X61002990Y-79196701D01*
X60939295Y-79213604D01*
X60153248Y-79206089D01*
X60086399Y-79185765D01*
X60041151Y-79132526D01*
X60034078Y-79079759D01*
X60030804Y-79079759D01*
X60030804Y-79069997D01*
X60009720Y-78936878D01*
X60009719Y-78936876D01*
X60009719Y-78936874D01*
X59948528Y-78816780D01*
X59948526Y-78816778D01*
X59948523Y-78816774D01*
X59853225Y-78721476D01*
X59853221Y-78721473D01*
X59853220Y-78721472D01*
X59733126Y-78660281D01*
X59733124Y-78660280D01*
X59733121Y-78660279D01*
X59600002Y-78639196D01*
X59599998Y-78639196D01*
X59466878Y-78660279D01*
X59346778Y-78721473D01*
X59346774Y-78721476D01*
X59251476Y-78816774D01*
X59251473Y-78816778D01*
X59190279Y-78936878D01*
X59175584Y-79029662D01*
X59145655Y-79092797D01*
X59086343Y-79129728D01*
X59016481Y-79128730D01*
X58958248Y-79090120D01*
X58955534Y-79086780D01*
X57507418Y-77240067D01*
X62743120Y-77240067D01*
X62743120Y-77240072D01*
X62764203Y-77373191D01*
X62764204Y-77373194D01*
X62764205Y-77373196D01*
X62825396Y-77493290D01*
X62825397Y-77493291D01*
X62825400Y-77493295D01*
X62920698Y-77588593D01*
X62920702Y-77588596D01*
X62920704Y-77588598D01*
X63040798Y-77649789D01*
X63040800Y-77649789D01*
X63040802Y-77649790D01*
X63183563Y-77672401D01*
X63183231Y-77674495D01*
X63237936Y-77690559D01*
X63283691Y-77743363D01*
X63293370Y-77775476D01*
X63314203Y-77907015D01*
X63314204Y-77907018D01*
X63314205Y-77907020D01*
X63375396Y-78027114D01*
X63375397Y-78027115D01*
X63375400Y-78027119D01*
X63470698Y-78122417D01*
X63470702Y-78122420D01*
X63470704Y-78122422D01*
X63590798Y-78183613D01*
X63590800Y-78183613D01*
X63590802Y-78183614D01*
X63723922Y-78204698D01*
X63723924Y-78204698D01*
X63723926Y-78204698D01*
X63857045Y-78183614D01*
X63857045Y-78183613D01*
X63857050Y-78183613D01*
X63977144Y-78122422D01*
X64072452Y-78027114D01*
X64133643Y-77907020D01*
X64145576Y-77831677D01*
X64154728Y-77773896D01*
X64154728Y-77773891D01*
X64133644Y-77640772D01*
X64133643Y-77640770D01*
X64133643Y-77640768D01*
X64072452Y-77520674D01*
X64072450Y-77520672D01*
X64072447Y-77520668D01*
X63977149Y-77425370D01*
X63977145Y-77425367D01*
X63977144Y-77425366D01*
X63857050Y-77364175D01*
X63857048Y-77364174D01*
X63857045Y-77364173D01*
X63714285Y-77341563D01*
X63714616Y-77339468D01*
X63659912Y-77323405D01*
X63614157Y-77270601D01*
X63604478Y-77238488D01*
X63583644Y-77106948D01*
X63583643Y-77106946D01*
X63583643Y-77106944D01*
X63522452Y-76986850D01*
X63522450Y-76986848D01*
X63522447Y-76986844D01*
X63427149Y-76891546D01*
X63427145Y-76891543D01*
X63427144Y-76891542D01*
X63307050Y-76830351D01*
X63307048Y-76830350D01*
X63307045Y-76830349D01*
X63173926Y-76809266D01*
X63173922Y-76809266D01*
X63040802Y-76830349D01*
X62920702Y-76891543D01*
X62920698Y-76891546D01*
X62825400Y-76986844D01*
X62825397Y-76986848D01*
X62764203Y-77106948D01*
X62743120Y-77240067D01*
X57507418Y-77240067D01*
X56676155Y-76179997D01*
X58549196Y-76179997D01*
X58549196Y-76180002D01*
X58570279Y-76313121D01*
X58570280Y-76313124D01*
X58570281Y-76313126D01*
X58631472Y-76433220D01*
X58631473Y-76433221D01*
X58631476Y-76433225D01*
X58726774Y-76528523D01*
X58726778Y-76528526D01*
X58726780Y-76528528D01*
X58846874Y-76589719D01*
X58846876Y-76589719D01*
X58846878Y-76589720D01*
X58979998Y-76610804D01*
X58980000Y-76610804D01*
X58980002Y-76610804D01*
X59113121Y-76589720D01*
X59113121Y-76589719D01*
X59113126Y-76589719D01*
X59233220Y-76528528D01*
X59328528Y-76433220D01*
X59389719Y-76313126D01*
X59410804Y-76180000D01*
X59403012Y-76130804D01*
X59389720Y-76046878D01*
X59389719Y-76046876D01*
X59389719Y-76046874D01*
X59328528Y-75926780D01*
X59328526Y-75926778D01*
X59328523Y-75926774D01*
X59233225Y-75831476D01*
X59233221Y-75831473D01*
X59233220Y-75831472D01*
X59113126Y-75770281D01*
X59113124Y-75770280D01*
X59113121Y-75770279D01*
X58980002Y-75749196D01*
X58979998Y-75749196D01*
X58846878Y-75770279D01*
X58726778Y-75831473D01*
X58726774Y-75831476D01*
X58631476Y-75926774D01*
X58631473Y-75926778D01*
X58570279Y-76046878D01*
X58549196Y-76179997D01*
X56676155Y-76179997D01*
X56637580Y-76130804D01*
X56299759Y-75699997D01*
X60019196Y-75699997D01*
X60019196Y-75700002D01*
X60040279Y-75833121D01*
X60040280Y-75833124D01*
X60040281Y-75833126D01*
X60101472Y-75953220D01*
X60101473Y-75953221D01*
X60101476Y-75953225D01*
X60196774Y-76048523D01*
X60196778Y-76048526D01*
X60196780Y-76048528D01*
X60316874Y-76109719D01*
X60316876Y-76109719D01*
X60316878Y-76109720D01*
X60449998Y-76130804D01*
X60450000Y-76130804D01*
X60450002Y-76130804D01*
X60583121Y-76109720D01*
X60583121Y-76109719D01*
X60583126Y-76109719D01*
X60703220Y-76048528D01*
X60798528Y-75953220D01*
X60859719Y-75833126D01*
X60859720Y-75833121D01*
X60880805Y-75699997D01*
X62743120Y-75699997D01*
X62743120Y-75700002D01*
X62764203Y-75833121D01*
X62764204Y-75833124D01*
X62764205Y-75833126D01*
X62825396Y-75953220D01*
X62825397Y-75953221D01*
X62825400Y-75953225D01*
X62920698Y-76048523D01*
X62920702Y-76048526D01*
X62920704Y-76048528D01*
X63040798Y-76109719D01*
X63040800Y-76109719D01*
X63040802Y-76109720D01*
X63173922Y-76130804D01*
X63173924Y-76130804D01*
X63173926Y-76130804D01*
X63307045Y-76109720D01*
X63307045Y-76109719D01*
X63307050Y-76109719D01*
X63427144Y-76048528D01*
X63522452Y-75953220D01*
X63583643Y-75833126D01*
X63583644Y-75833121D01*
X63604728Y-75700002D01*
X63604728Y-75699999D01*
X63603342Y-75691251D01*
X63612293Y-75621957D01*
X63657287Y-75568504D01*
X63706411Y-75549375D01*
X63807931Y-75533297D01*
X63928025Y-75472106D01*
X64023333Y-75376798D01*
X64084524Y-75256704D01*
X64105609Y-75123578D01*
X64088709Y-75016878D01*
X64084525Y-74990456D01*
X64084524Y-74990454D01*
X64084524Y-74990452D01*
X64070327Y-74962588D01*
X64057431Y-74893925D01*
X64083706Y-74829184D01*
X64093123Y-74818624D01*
X64168528Y-74743220D01*
X64229719Y-74623126D01*
X64245542Y-74523225D01*
X64250804Y-74490002D01*
X64250804Y-74489997D01*
X64229720Y-74356878D01*
X64229719Y-74356876D01*
X64229719Y-74356874D01*
X64185453Y-74269997D01*
X65509196Y-74269997D01*
X65509196Y-74270002D01*
X65530279Y-74403121D01*
X65530280Y-74403124D01*
X65530281Y-74403126D01*
X65574546Y-74490000D01*
X65591473Y-74523221D01*
X65591476Y-74523225D01*
X65686774Y-74618523D01*
X65686778Y-74618526D01*
X65686780Y-74618528D01*
X65806874Y-74679719D01*
X65806876Y-74679719D01*
X65806878Y-74679720D01*
X65939998Y-74700804D01*
X65940000Y-74700804D01*
X65940002Y-74700804D01*
X66073121Y-74679720D01*
X66073121Y-74679719D01*
X66073126Y-74679719D01*
X66193220Y-74618528D01*
X66288528Y-74523220D01*
X66349719Y-74403126D01*
X66364114Y-74312239D01*
X66370804Y-74270002D01*
X66370804Y-74269997D01*
X66349720Y-74136878D01*
X66349719Y-74136876D01*
X66349719Y-74136874D01*
X66288528Y-74016780D01*
X66288526Y-74016778D01*
X66288523Y-74016774D01*
X66193225Y-73921476D01*
X66193221Y-73921473D01*
X66193220Y-73921472D01*
X66073126Y-73860281D01*
X66073124Y-73860280D01*
X66073121Y-73860279D01*
X65940002Y-73839196D01*
X65939998Y-73839196D01*
X65806878Y-73860279D01*
X65686778Y-73921473D01*
X65686774Y-73921476D01*
X65591476Y-74016774D01*
X65591473Y-74016778D01*
X65530279Y-74136878D01*
X65509196Y-74269997D01*
X64185453Y-74269997D01*
X64168528Y-74236780D01*
X64168526Y-74236778D01*
X64168523Y-74236774D01*
X64073225Y-74141476D01*
X64073221Y-74141473D01*
X64073220Y-74141472D01*
X63953126Y-74080281D01*
X63953124Y-74080280D01*
X63953121Y-74080279D01*
X63820002Y-74059196D01*
X63819998Y-74059196D01*
X63686878Y-74080279D01*
X63566778Y-74141473D01*
X63566774Y-74141476D01*
X63471476Y-74236774D01*
X63471473Y-74236778D01*
X63410279Y-74356878D01*
X63389196Y-74489997D01*
X63389196Y-74490002D01*
X63410279Y-74623122D01*
X63424477Y-74650987D01*
X63437372Y-74719656D01*
X63411094Y-74784396D01*
X63401673Y-74794961D01*
X63326278Y-74870356D01*
X63265084Y-74990456D01*
X63244001Y-75123575D01*
X63244001Y-75123580D01*
X63245387Y-75132331D01*
X63236432Y-75201625D01*
X63191436Y-75255077D01*
X63142312Y-75274202D01*
X63040802Y-75290279D01*
X62920702Y-75351473D01*
X62920698Y-75351476D01*
X62825400Y-75446774D01*
X62825397Y-75446778D01*
X62764203Y-75566878D01*
X62743120Y-75699997D01*
X60880805Y-75699997D01*
X60882331Y-75690361D01*
X60884924Y-75690771D01*
X60900489Y-75637765D01*
X60953293Y-75592010D01*
X60990608Y-75583892D01*
X60990361Y-75582331D01*
X61133121Y-75559720D01*
X61133121Y-75559719D01*
X61133126Y-75559719D01*
X61253220Y-75498528D01*
X61348528Y-75403220D01*
X61409719Y-75283126D01*
X61409720Y-75283121D01*
X61430804Y-75150002D01*
X61430804Y-75149997D01*
X61409720Y-75016878D01*
X61409719Y-75016876D01*
X61409719Y-75016874D01*
X61348528Y-74896780D01*
X61348526Y-74896778D01*
X61348523Y-74896774D01*
X61253225Y-74801476D01*
X61253221Y-74801473D01*
X61253220Y-74801472D01*
X61133126Y-74740281D01*
X61133124Y-74740280D01*
X61133121Y-74740279D01*
X61000002Y-74719196D01*
X60999998Y-74719196D01*
X60866878Y-74740279D01*
X60746778Y-74801473D01*
X60746774Y-74801476D01*
X60651476Y-74896774D01*
X60651473Y-74896778D01*
X60590279Y-75016878D01*
X60567669Y-75159639D01*
X60565075Y-75159228D01*
X60549511Y-75212235D01*
X60496707Y-75257990D01*
X60459391Y-75266107D01*
X60459639Y-75267669D01*
X60316878Y-75290279D01*
X60196778Y-75351473D01*
X60196774Y-75351476D01*
X60101476Y-75446774D01*
X60101473Y-75446778D01*
X60040279Y-75566878D01*
X60019196Y-75699997D01*
X56299759Y-75699997D01*
X55211535Y-74312237D01*
X55185658Y-74247338D01*
X55185114Y-74236157D01*
X55182017Y-73322497D01*
X63286696Y-73322497D01*
X63286696Y-73322502D01*
X63307779Y-73455621D01*
X63307780Y-73455624D01*
X63307781Y-73455626D01*
X63368972Y-73575720D01*
X63368973Y-73575721D01*
X63368976Y-73575725D01*
X63464274Y-73671023D01*
X63464278Y-73671026D01*
X63464280Y-73671028D01*
X63584374Y-73732219D01*
X63584376Y-73732219D01*
X63584378Y-73732220D01*
X63717498Y-73753304D01*
X63717500Y-73753304D01*
X63717502Y-73753304D01*
X63850621Y-73732220D01*
X63850621Y-73732219D01*
X63850626Y-73732219D01*
X63970720Y-73671028D01*
X64066028Y-73575720D01*
X64127219Y-73455626D01*
X64143438Y-73353225D01*
X64148304Y-73322502D01*
X64148304Y-73322497D01*
X64127220Y-73189378D01*
X64127219Y-73189376D01*
X64127219Y-73189374D01*
X64081679Y-73099997D01*
X66919196Y-73099997D01*
X66919196Y-73100002D01*
X66940279Y-73233121D01*
X66940280Y-73233124D01*
X66940281Y-73233126D01*
X67001472Y-73353220D01*
X67001473Y-73353221D01*
X67001476Y-73353225D01*
X67096774Y-73448523D01*
X67096778Y-73448526D01*
X67096780Y-73448528D01*
X67216874Y-73509719D01*
X67216876Y-73509719D01*
X67216878Y-73509720D01*
X67349998Y-73530804D01*
X67350000Y-73530804D01*
X67350002Y-73530804D01*
X67483121Y-73509720D01*
X67483121Y-73509719D01*
X67483126Y-73509719D01*
X67603220Y-73448528D01*
X67698528Y-73353220D01*
X67759719Y-73233126D01*
X67780804Y-73100000D01*
X67775938Y-73069280D01*
X67759720Y-72966878D01*
X67759719Y-72966876D01*
X67759719Y-72966874D01*
X67698528Y-72846780D01*
X67698526Y-72846778D01*
X67698523Y-72846774D01*
X67603225Y-72751476D01*
X67603221Y-72751473D01*
X67603220Y-72751472D01*
X67483126Y-72690281D01*
X67483124Y-72690280D01*
X67483121Y-72690279D01*
X67350002Y-72669196D01*
X67349998Y-72669196D01*
X67216878Y-72690279D01*
X67096778Y-72751473D01*
X67096774Y-72751476D01*
X67001476Y-72846774D01*
X67001473Y-72846778D01*
X66940279Y-72966878D01*
X66919196Y-73099997D01*
X64081679Y-73099997D01*
X64066028Y-73069280D01*
X64066026Y-73069278D01*
X64066023Y-73069274D01*
X63970725Y-72973976D01*
X63970721Y-72973973D01*
X63970720Y-72973972D01*
X63850626Y-72912781D01*
X63850624Y-72912780D01*
X63850621Y-72912779D01*
X63717502Y-72891696D01*
X63717498Y-72891696D01*
X63584378Y-72912779D01*
X63464278Y-72973973D01*
X63464274Y-72973976D01*
X63368976Y-73069274D01*
X63368973Y-73069278D01*
X63307779Y-73189378D01*
X63286696Y-73322497D01*
X55182017Y-73322497D01*
X55177332Y-71939997D01*
X56219196Y-71939997D01*
X56219196Y-71940002D01*
X56240279Y-72073121D01*
X56240280Y-72073124D01*
X56240281Y-72073126D01*
X56301472Y-72193220D01*
X56301473Y-72193221D01*
X56301476Y-72193225D01*
X56396774Y-72288523D01*
X56396778Y-72288526D01*
X56396780Y-72288528D01*
X56516874Y-72349719D01*
X56516876Y-72349719D01*
X56516878Y-72349720D01*
X56649998Y-72370804D01*
X56650000Y-72370804D01*
X56650002Y-72370804D01*
X56783121Y-72349720D01*
X56783121Y-72349719D01*
X56783126Y-72349719D01*
X56903220Y-72288528D01*
X56998528Y-72193220D01*
X57059719Y-72073126D01*
X57059720Y-72073121D01*
X57074469Y-71979997D01*
X58369196Y-71979997D01*
X58369196Y-71980002D01*
X58390279Y-72113121D01*
X58390280Y-72113124D01*
X58390281Y-72113126D01*
X58431094Y-72193225D01*
X58451473Y-72233221D01*
X58451476Y-72233225D01*
X58546774Y-72328523D01*
X58546778Y-72328526D01*
X58546780Y-72328528D01*
X58666874Y-72389719D01*
X58666876Y-72389719D01*
X58666878Y-72389720D01*
X58799998Y-72410804D01*
X58800000Y-72410804D01*
X58800002Y-72410804D01*
X58933121Y-72389720D01*
X58933121Y-72389719D01*
X58933126Y-72389719D01*
X59053220Y-72328528D01*
X59148528Y-72233220D01*
X59209719Y-72113126D01*
X59209720Y-72113121D01*
X59230804Y-71980002D01*
X59230804Y-71979997D01*
X59209720Y-71846878D01*
X59209719Y-71846876D01*
X59209719Y-71846874D01*
X59148528Y-71726780D01*
X59148526Y-71726778D01*
X59148523Y-71726774D01*
X59053225Y-71631476D01*
X59053221Y-71631473D01*
X59053220Y-71631472D01*
X58933126Y-71570281D01*
X58933124Y-71570280D01*
X58933121Y-71570279D01*
X58800002Y-71549196D01*
X58799998Y-71549196D01*
X58666878Y-71570279D01*
X58546778Y-71631473D01*
X58546774Y-71631476D01*
X58451476Y-71726774D01*
X58451473Y-71726778D01*
X58390279Y-71846878D01*
X58369196Y-71979997D01*
X57074469Y-71979997D01*
X57080804Y-71940002D01*
X57080804Y-71939997D01*
X57059720Y-71806878D01*
X57059719Y-71806876D01*
X57059719Y-71806874D01*
X56998528Y-71686780D01*
X56998526Y-71686778D01*
X56998523Y-71686774D01*
X56903225Y-71591476D01*
X56903221Y-71591473D01*
X56903220Y-71591472D01*
X56783126Y-71530281D01*
X56783124Y-71530280D01*
X56783121Y-71530279D01*
X56650002Y-71509196D01*
X56649998Y-71509196D01*
X56516878Y-71530279D01*
X56396778Y-71591473D01*
X56396774Y-71591476D01*
X56301476Y-71686774D01*
X56301473Y-71686778D01*
X56240279Y-71806878D01*
X56219196Y-71939997D01*
X55177332Y-71939997D01*
X55173983Y-70951948D01*
X55172857Y-70619997D01*
X66424526Y-70619997D01*
X66424526Y-70620002D01*
X66445609Y-70753121D01*
X66445610Y-70753124D01*
X66445611Y-70753126D01*
X66505639Y-70870937D01*
X66506803Y-70873221D01*
X66506806Y-70873225D01*
X66602104Y-70968523D01*
X66602108Y-70968526D01*
X66602110Y-70968528D01*
X66722204Y-71029719D01*
X66722206Y-71029719D01*
X66722208Y-71029720D01*
X66855328Y-71050804D01*
X66855330Y-71050804D01*
X66855332Y-71050804D01*
X66988451Y-71029720D01*
X66988451Y-71029719D01*
X66988456Y-71029719D01*
X67108550Y-70968528D01*
X67203858Y-70873220D01*
X67265049Y-70753126D01*
X67268217Y-70733126D01*
X67286134Y-70620002D01*
X67286134Y-70619997D01*
X67282966Y-70599997D01*
X71969196Y-70599997D01*
X71969196Y-70600002D01*
X71990279Y-70733121D01*
X71990280Y-70733124D01*
X71990281Y-70733126D01*
X72039817Y-70830345D01*
X72051473Y-70853221D01*
X72051476Y-70853225D01*
X72146774Y-70948523D01*
X72146778Y-70948526D01*
X72146780Y-70948528D01*
X72266874Y-71009719D01*
X72266876Y-71009719D01*
X72266878Y-71009720D01*
X72399998Y-71030804D01*
X72400000Y-71030804D01*
X72400002Y-71030804D01*
X72533121Y-71009720D01*
X72533121Y-71009719D01*
X72533126Y-71009719D01*
X72653220Y-70948528D01*
X72748528Y-70853220D01*
X72809719Y-70733126D01*
X72827636Y-70620002D01*
X72830804Y-70600002D01*
X72830804Y-70599997D01*
X72809720Y-70466878D01*
X72809719Y-70466876D01*
X72809719Y-70466874D01*
X72748528Y-70346780D01*
X72748526Y-70346778D01*
X72748523Y-70346774D01*
X72653225Y-70251476D01*
X72653221Y-70251473D01*
X72653220Y-70251472D01*
X72533126Y-70190281D01*
X72533124Y-70190280D01*
X72533121Y-70190279D01*
X72400002Y-70169196D01*
X72399998Y-70169196D01*
X72266878Y-70190279D01*
X72146778Y-70251473D01*
X72146774Y-70251476D01*
X72051476Y-70346774D01*
X72051473Y-70346778D01*
X72041281Y-70366780D01*
X71994480Y-70458634D01*
X71990279Y-70466878D01*
X71969196Y-70599997D01*
X67282966Y-70599997D01*
X67265050Y-70486878D01*
X67265049Y-70486876D01*
X67265049Y-70486874D01*
X67203858Y-70366780D01*
X67203856Y-70366778D01*
X67203853Y-70366774D01*
X67108555Y-70271476D01*
X67108551Y-70271473D01*
X67108550Y-70271472D01*
X66988456Y-70210281D01*
X66988454Y-70210280D01*
X66988451Y-70210279D01*
X66855332Y-70189196D01*
X66855328Y-70189196D01*
X66722208Y-70210279D01*
X66602108Y-70271473D01*
X66602104Y-70271476D01*
X66506806Y-70366774D01*
X66506803Y-70366778D01*
X66506802Y-70366780D01*
X66455800Y-70466878D01*
X66445609Y-70486878D01*
X66424526Y-70619997D01*
X55172857Y-70619997D01*
X55172630Y-70553061D01*
X55167861Y-70509736D01*
X55156657Y-70458648D01*
X55154243Y-70448808D01*
X55152402Y-70441304D01*
X55154160Y-70440872D01*
X55149384Y-70380981D01*
X55182367Y-70319386D01*
X55182988Y-70318759D01*
X55198528Y-70303220D01*
X55259719Y-70183126D01*
X55259720Y-70183121D01*
X55263382Y-70159997D01*
X67579196Y-70159997D01*
X67579196Y-70160002D01*
X67600279Y-70293121D01*
X67600280Y-70293124D01*
X67600281Y-70293126D01*
X67661472Y-70413220D01*
X67661473Y-70413221D01*
X67661476Y-70413225D01*
X67756774Y-70508523D01*
X67756778Y-70508526D01*
X67756780Y-70508528D01*
X67876874Y-70569719D01*
X67876876Y-70569719D01*
X67876878Y-70569720D01*
X68009998Y-70590804D01*
X68010000Y-70590804D01*
X68010002Y-70590804D01*
X68143121Y-70569720D01*
X68143121Y-70569719D01*
X68143126Y-70569719D01*
X68263220Y-70508528D01*
X68358528Y-70413220D01*
X68419719Y-70293126D01*
X68423148Y-70271476D01*
X68440804Y-70160002D01*
X68440804Y-70159997D01*
X68419720Y-70026878D01*
X68419719Y-70026876D01*
X68419719Y-70026874D01*
X68358528Y-69906780D01*
X68358526Y-69906778D01*
X68358523Y-69906774D01*
X68263225Y-69811476D01*
X68263221Y-69811473D01*
X68263220Y-69811472D01*
X68143126Y-69750281D01*
X68143124Y-69750280D01*
X68143121Y-69750279D01*
X68010002Y-69729196D01*
X68009998Y-69729196D01*
X67876878Y-69750279D01*
X67756778Y-69811473D01*
X67756774Y-69811476D01*
X67661476Y-69906774D01*
X67661473Y-69906778D01*
X67600279Y-70026878D01*
X67579196Y-70159997D01*
X55263382Y-70159997D01*
X55280804Y-70050002D01*
X55280804Y-70049997D01*
X55259720Y-69916878D01*
X55259719Y-69916876D01*
X55259719Y-69916874D01*
X55198528Y-69796780D01*
X55198526Y-69796778D01*
X55198523Y-69796774D01*
X55177701Y-69775952D01*
X55144216Y-69714629D01*
X55146286Y-69653742D01*
X55161084Y-69602709D01*
X55169212Y-69544785D01*
X55166484Y-68739997D01*
X55529196Y-68739997D01*
X55529196Y-68740002D01*
X55550279Y-68873121D01*
X55550280Y-68873124D01*
X55550281Y-68873126D01*
X55611472Y-68993220D01*
X55611473Y-68993221D01*
X55611476Y-68993225D01*
X55706774Y-69088523D01*
X55706778Y-69088526D01*
X55706780Y-69088528D01*
X55826874Y-69149719D01*
X55826876Y-69149719D01*
X55826878Y-69149720D01*
X55959998Y-69170804D01*
X55969759Y-69170804D01*
X55969759Y-69172339D01*
X56028333Y-69179904D01*
X56081789Y-69224896D01*
X56102435Y-69291645D01*
X56100921Y-69312824D01*
X56079196Y-69449996D01*
X56079196Y-69450002D01*
X56100279Y-69583121D01*
X56100280Y-69583124D01*
X56100281Y-69583126D01*
X56161472Y-69703220D01*
X56161473Y-69703221D01*
X56161476Y-69703225D01*
X56256774Y-69798523D01*
X56256778Y-69798526D01*
X56256780Y-69798528D01*
X56376874Y-69859719D01*
X56376876Y-69859719D01*
X56376878Y-69859720D01*
X56509998Y-69880804D01*
X56510000Y-69880804D01*
X56510002Y-69880804D01*
X56643121Y-69859720D01*
X56643121Y-69859719D01*
X56643126Y-69859719D01*
X56763220Y-69798528D01*
X56858528Y-69703220D01*
X56860170Y-69699997D01*
X60369196Y-69699997D01*
X60369196Y-69700002D01*
X60390279Y-69833121D01*
X60390280Y-69833124D01*
X60390281Y-69833126D01*
X60427807Y-69906774D01*
X60451473Y-69953221D01*
X60451476Y-69953225D01*
X60546774Y-70048523D01*
X60546778Y-70048526D01*
X60546780Y-70048528D01*
X60666874Y-70109719D01*
X60666876Y-70109719D01*
X60666878Y-70109720D01*
X60799998Y-70130804D01*
X60800000Y-70130804D01*
X60800002Y-70130804D01*
X60933121Y-70109720D01*
X60933121Y-70109719D01*
X60933126Y-70109719D01*
X61053220Y-70048528D01*
X61148528Y-69953220D01*
X61209719Y-69833126D01*
X61213148Y-69811476D01*
X61230804Y-69700002D01*
X61230804Y-69699997D01*
X61769196Y-69699997D01*
X61769196Y-69700002D01*
X61790279Y-69833121D01*
X61790280Y-69833124D01*
X61790281Y-69833126D01*
X61827807Y-69906774D01*
X61851473Y-69953221D01*
X61851476Y-69953225D01*
X61946774Y-70048523D01*
X61946778Y-70048526D01*
X61946780Y-70048528D01*
X62066874Y-70109719D01*
X62066876Y-70109719D01*
X62066878Y-70109720D01*
X62199998Y-70130804D01*
X62200000Y-70130804D01*
X62200002Y-70130804D01*
X62333121Y-70109720D01*
X62333121Y-70109719D01*
X62333126Y-70109719D01*
X62453220Y-70048528D01*
X62548528Y-69953220D01*
X62609719Y-69833126D01*
X62613148Y-69811476D01*
X62630804Y-69700002D01*
X62630804Y-69699997D01*
X63169196Y-69699997D01*
X63169196Y-69700002D01*
X63190279Y-69833121D01*
X63190280Y-69833124D01*
X63190281Y-69833126D01*
X63227807Y-69906774D01*
X63251473Y-69953221D01*
X63251476Y-69953225D01*
X63346774Y-70048523D01*
X63346778Y-70048526D01*
X63346780Y-70048528D01*
X63466874Y-70109719D01*
X63466876Y-70109719D01*
X63466878Y-70109720D01*
X63599998Y-70130804D01*
X63600000Y-70130804D01*
X63600002Y-70130804D01*
X63733121Y-70109720D01*
X63733121Y-70109719D01*
X63733126Y-70109719D01*
X63853220Y-70048528D01*
X63948528Y-69953220D01*
X64009719Y-69833126D01*
X64013148Y-69811476D01*
X64030804Y-69700002D01*
X64030804Y-69699997D01*
X64009720Y-69566878D01*
X64009719Y-69566876D01*
X64009719Y-69566874D01*
X63948528Y-69446780D01*
X63948526Y-69446778D01*
X63948523Y-69446774D01*
X63853225Y-69351476D01*
X63853221Y-69351473D01*
X63853220Y-69351472D01*
X63733126Y-69290281D01*
X63733124Y-69290280D01*
X63733121Y-69290279D01*
X63600002Y-69269196D01*
X63599998Y-69269196D01*
X63466878Y-69290279D01*
X63466874Y-69290280D01*
X63466874Y-69290281D01*
X63387343Y-69330804D01*
X63346778Y-69351473D01*
X63346774Y-69351476D01*
X63251476Y-69446774D01*
X63251473Y-69446778D01*
X63190279Y-69566878D01*
X63169196Y-69699997D01*
X62630804Y-69699997D01*
X62609720Y-69566878D01*
X62609719Y-69566876D01*
X62609719Y-69566874D01*
X62548528Y-69446780D01*
X62548526Y-69446778D01*
X62548523Y-69446774D01*
X62453225Y-69351476D01*
X62453221Y-69351473D01*
X62453220Y-69351472D01*
X62333126Y-69290281D01*
X62333124Y-69290280D01*
X62333121Y-69290279D01*
X62200002Y-69269196D01*
X62199998Y-69269196D01*
X62066878Y-69290279D01*
X62066874Y-69290280D01*
X62066874Y-69290281D01*
X61987343Y-69330804D01*
X61946778Y-69351473D01*
X61946774Y-69351476D01*
X61851476Y-69446774D01*
X61851473Y-69446778D01*
X61790279Y-69566878D01*
X61769196Y-69699997D01*
X61230804Y-69699997D01*
X61209720Y-69566878D01*
X61209719Y-69566876D01*
X61209719Y-69566874D01*
X61148528Y-69446780D01*
X61148526Y-69446778D01*
X61148523Y-69446774D01*
X61053225Y-69351476D01*
X61053221Y-69351473D01*
X61053220Y-69351472D01*
X60933126Y-69290281D01*
X60933124Y-69290280D01*
X60933121Y-69290279D01*
X60800002Y-69269196D01*
X60799998Y-69269196D01*
X60666878Y-69290279D01*
X60666874Y-69290280D01*
X60666874Y-69290281D01*
X60587343Y-69330804D01*
X60546778Y-69351473D01*
X60546774Y-69351476D01*
X60451476Y-69446774D01*
X60451473Y-69446778D01*
X60390279Y-69566878D01*
X60369196Y-69699997D01*
X56860170Y-69699997D01*
X56919719Y-69583126D01*
X56919720Y-69583121D01*
X56940804Y-69450002D01*
X56940804Y-69449997D01*
X56919720Y-69316878D01*
X56919719Y-69316876D01*
X56919719Y-69316874D01*
X56858528Y-69196780D01*
X56858526Y-69196778D01*
X56858523Y-69196774D01*
X56763225Y-69101476D01*
X56763221Y-69101473D01*
X56763220Y-69101472D01*
X56643126Y-69040281D01*
X56643124Y-69040280D01*
X56643121Y-69040279D01*
X56510002Y-69019196D01*
X56500241Y-69019196D01*
X56500241Y-69017662D01*
X56441651Y-69010088D01*
X56388201Y-68965090D01*
X56368077Y-68899997D01*
X71719196Y-68899997D01*
X71719196Y-68900002D01*
X71740279Y-69033121D01*
X71740280Y-69033124D01*
X71740281Y-69033126D01*
X71799689Y-69149720D01*
X71801473Y-69153221D01*
X71801476Y-69153225D01*
X71896774Y-69248523D01*
X71896778Y-69248526D01*
X71896780Y-69248528D01*
X72016874Y-69309719D01*
X72016876Y-69309719D01*
X72016878Y-69309720D01*
X72149998Y-69330804D01*
X72150000Y-69330804D01*
X72150002Y-69330804D01*
X72283121Y-69309720D01*
X72283121Y-69309719D01*
X72283126Y-69309719D01*
X72403220Y-69248528D01*
X72498528Y-69153220D01*
X72559719Y-69033126D01*
X72559720Y-69033121D01*
X72580804Y-68900002D01*
X72580804Y-68899997D01*
X72559720Y-68766878D01*
X72559719Y-68766876D01*
X72559719Y-68766874D01*
X72498528Y-68646780D01*
X72498526Y-68646778D01*
X72498523Y-68646774D01*
X72403225Y-68551476D01*
X72403221Y-68551473D01*
X72403220Y-68551472D01*
X72283126Y-68490281D01*
X72283124Y-68490280D01*
X72283121Y-68490279D01*
X72150002Y-68469196D01*
X72149998Y-68469196D01*
X72016878Y-68490279D01*
X71896778Y-68551473D01*
X71896774Y-68551476D01*
X71801476Y-68646774D01*
X71801473Y-68646778D01*
X71740279Y-68766878D01*
X71719196Y-68899997D01*
X56368077Y-68899997D01*
X56367564Y-68898338D01*
X56369078Y-68877174D01*
X56390804Y-68740002D01*
X56390804Y-68739997D01*
X56369720Y-68606878D01*
X56369719Y-68606876D01*
X56369719Y-68606874D01*
X56308528Y-68486780D01*
X56308526Y-68486778D01*
X56308523Y-68486774D01*
X56213225Y-68391476D01*
X56213221Y-68391473D01*
X56213220Y-68391472D01*
X56093126Y-68330281D01*
X56093124Y-68330280D01*
X56093121Y-68330279D01*
X55960002Y-68309196D01*
X55959998Y-68309196D01*
X55826878Y-68330279D01*
X55706778Y-68391473D01*
X55706774Y-68391476D01*
X55611476Y-68486774D01*
X55611473Y-68486778D01*
X55550279Y-68606878D01*
X55529196Y-68739997D01*
X55166484Y-68739997D01*
X55164993Y-68299997D01*
X60369196Y-68299997D01*
X60369196Y-68300002D01*
X60390279Y-68433121D01*
X60390280Y-68433124D01*
X60390281Y-68433126D01*
X60451472Y-68553220D01*
X60451473Y-68553221D01*
X60451476Y-68553225D01*
X60546774Y-68648523D01*
X60546778Y-68648526D01*
X60546780Y-68648528D01*
X60666874Y-68709719D01*
X60666876Y-68709719D01*
X60666878Y-68709720D01*
X60799998Y-68730804D01*
X60800000Y-68730804D01*
X60800002Y-68730804D01*
X60933121Y-68709720D01*
X60933121Y-68709719D01*
X60933126Y-68709719D01*
X61053220Y-68648528D01*
X61148528Y-68553220D01*
X61209719Y-68433126D01*
X61216316Y-68391473D01*
X61230804Y-68300002D01*
X61230804Y-68299997D01*
X61769196Y-68299997D01*
X61769196Y-68300002D01*
X61790279Y-68433121D01*
X61790280Y-68433124D01*
X61790281Y-68433126D01*
X61851472Y-68553220D01*
X61851473Y-68553221D01*
X61851476Y-68553225D01*
X61946774Y-68648523D01*
X61946778Y-68648526D01*
X61946780Y-68648528D01*
X62066874Y-68709719D01*
X62066876Y-68709719D01*
X62066878Y-68709720D01*
X62199998Y-68730804D01*
X62200000Y-68730804D01*
X62200002Y-68730804D01*
X62333121Y-68709720D01*
X62333121Y-68709719D01*
X62333126Y-68709719D01*
X62453220Y-68648528D01*
X62548528Y-68553220D01*
X62609719Y-68433126D01*
X62616316Y-68391473D01*
X62630804Y-68300002D01*
X62630804Y-68299997D01*
X63169196Y-68299997D01*
X63169196Y-68300002D01*
X63190279Y-68433121D01*
X63190280Y-68433124D01*
X63190281Y-68433126D01*
X63251472Y-68553220D01*
X63251473Y-68553221D01*
X63251476Y-68553225D01*
X63346774Y-68648523D01*
X63346778Y-68648526D01*
X63346780Y-68648528D01*
X63466874Y-68709719D01*
X63466876Y-68709719D01*
X63466878Y-68709720D01*
X63599998Y-68730804D01*
X63600000Y-68730804D01*
X63600002Y-68730804D01*
X63733121Y-68709720D01*
X63733121Y-68709719D01*
X63733126Y-68709719D01*
X63853220Y-68648528D01*
X63948528Y-68553220D01*
X64009719Y-68433126D01*
X64016316Y-68391473D01*
X64030804Y-68300002D01*
X64030804Y-68299997D01*
X64009720Y-68166878D01*
X64009719Y-68166876D01*
X64009719Y-68166874D01*
X63948528Y-68046780D01*
X63948526Y-68046778D01*
X63948523Y-68046774D01*
X63853225Y-67951476D01*
X63853221Y-67951473D01*
X63853220Y-67951472D01*
X63733126Y-67890281D01*
X63733124Y-67890280D01*
X63733121Y-67890279D01*
X63600002Y-67869196D01*
X63599998Y-67869196D01*
X63466878Y-67890279D01*
X63346778Y-67951473D01*
X63346774Y-67951476D01*
X63251476Y-68046774D01*
X63251473Y-68046778D01*
X63190279Y-68166878D01*
X63169196Y-68299997D01*
X62630804Y-68299997D01*
X62609720Y-68166878D01*
X62609719Y-68166876D01*
X62609719Y-68166874D01*
X62548528Y-68046780D01*
X62548526Y-68046778D01*
X62548523Y-68046774D01*
X62453225Y-67951476D01*
X62453221Y-67951473D01*
X62453220Y-67951472D01*
X62333126Y-67890281D01*
X62333124Y-67890280D01*
X62333121Y-67890279D01*
X62200002Y-67869196D01*
X62199998Y-67869196D01*
X62066878Y-67890279D01*
X61946778Y-67951473D01*
X61946774Y-67951476D01*
X61851476Y-68046774D01*
X61851473Y-68046778D01*
X61790279Y-68166878D01*
X61769196Y-68299997D01*
X61230804Y-68299997D01*
X61209720Y-68166878D01*
X61209719Y-68166876D01*
X61209719Y-68166874D01*
X61148528Y-68046780D01*
X61148526Y-68046778D01*
X61148523Y-68046774D01*
X61053225Y-67951476D01*
X61053221Y-67951473D01*
X61053220Y-67951472D01*
X60933126Y-67890281D01*
X60933124Y-67890280D01*
X60933121Y-67890279D01*
X60800002Y-67869196D01*
X60799998Y-67869196D01*
X60666878Y-67890279D01*
X60546778Y-67951473D01*
X60546774Y-67951476D01*
X60451476Y-68046774D01*
X60451473Y-68046778D01*
X60390279Y-68166878D01*
X60369196Y-68299997D01*
X55164993Y-68299997D01*
X55162874Y-67674997D01*
X68169196Y-67674997D01*
X68169196Y-67675002D01*
X68190279Y-67808121D01*
X68190280Y-67808124D01*
X68190281Y-67808126D01*
X68251472Y-67928220D01*
X68251473Y-67928221D01*
X68251476Y-67928225D01*
X68346774Y-68023523D01*
X68346778Y-68023526D01*
X68346780Y-68023528D01*
X68466874Y-68084719D01*
X68466876Y-68084719D01*
X68466878Y-68084720D01*
X68599998Y-68105804D01*
X68600000Y-68105804D01*
X68600002Y-68105804D01*
X68733121Y-68084720D01*
X68733121Y-68084719D01*
X68733126Y-68084719D01*
X68853220Y-68023528D01*
X68948528Y-67928220D01*
X69009719Y-67808126D01*
X69030804Y-67675000D01*
X69011085Y-67550500D01*
X69009720Y-67541878D01*
X69009719Y-67541876D01*
X69009719Y-67541874D01*
X68948528Y-67421780D01*
X68948526Y-67421778D01*
X68948523Y-67421774D01*
X68853225Y-67326476D01*
X68853221Y-67326473D01*
X68853220Y-67326472D01*
X68733126Y-67265281D01*
X68733124Y-67265280D01*
X68733121Y-67265279D01*
X68600002Y-67244196D01*
X68599998Y-67244196D01*
X68466878Y-67265279D01*
X68346778Y-67326473D01*
X68346774Y-67326476D01*
X68251476Y-67421774D01*
X68251473Y-67421778D01*
X68190279Y-67541878D01*
X68169196Y-67674997D01*
X55162874Y-67674997D01*
X55160247Y-66899997D01*
X60369196Y-66899997D01*
X60369196Y-66900002D01*
X60390279Y-67033121D01*
X60390280Y-67033124D01*
X60390281Y-67033126D01*
X60451472Y-67153220D01*
X60451473Y-67153221D01*
X60451476Y-67153225D01*
X60546774Y-67248523D01*
X60546778Y-67248526D01*
X60546780Y-67248528D01*
X60666874Y-67309719D01*
X60666876Y-67309719D01*
X60666878Y-67309720D01*
X60799998Y-67330804D01*
X60800000Y-67330804D01*
X60800002Y-67330804D01*
X60933121Y-67309720D01*
X60933121Y-67309719D01*
X60933126Y-67309719D01*
X61053220Y-67248528D01*
X61148528Y-67153220D01*
X61209719Y-67033126D01*
X61215346Y-66997598D01*
X61230804Y-66900002D01*
X61230804Y-66899997D01*
X61769196Y-66899997D01*
X61769196Y-66900002D01*
X61790279Y-67033121D01*
X61790280Y-67033124D01*
X61790281Y-67033126D01*
X61851472Y-67153220D01*
X61851473Y-67153221D01*
X61851476Y-67153225D01*
X61946774Y-67248523D01*
X61946778Y-67248526D01*
X61946780Y-67248528D01*
X62066874Y-67309719D01*
X62066876Y-67309719D01*
X62066878Y-67309720D01*
X62199998Y-67330804D01*
X62200000Y-67330804D01*
X62200002Y-67330804D01*
X62333121Y-67309720D01*
X62333121Y-67309719D01*
X62333126Y-67309719D01*
X62453220Y-67248528D01*
X62548528Y-67153220D01*
X62609719Y-67033126D01*
X62615346Y-66997598D01*
X62630804Y-66900002D01*
X62630804Y-66899997D01*
X63169196Y-66899997D01*
X63169196Y-66900002D01*
X63190279Y-67033121D01*
X63190280Y-67033124D01*
X63190281Y-67033126D01*
X63251472Y-67153220D01*
X63251473Y-67153221D01*
X63251476Y-67153225D01*
X63346774Y-67248523D01*
X63346778Y-67248526D01*
X63346780Y-67248528D01*
X63466874Y-67309719D01*
X63466876Y-67309719D01*
X63466878Y-67309720D01*
X63599998Y-67330804D01*
X63600000Y-67330804D01*
X63600002Y-67330804D01*
X63733121Y-67309720D01*
X63733121Y-67309719D01*
X63733126Y-67309719D01*
X63853220Y-67248528D01*
X63948528Y-67153220D01*
X64009719Y-67033126D01*
X64015346Y-66997598D01*
X64030804Y-66900002D01*
X64030804Y-66899997D01*
X64009720Y-66766878D01*
X64009719Y-66766876D01*
X64009719Y-66766874D01*
X63948528Y-66646780D01*
X63948526Y-66646778D01*
X63948523Y-66646774D01*
X63853225Y-66551476D01*
X63853221Y-66551473D01*
X63853220Y-66551472D01*
X63837770Y-66543600D01*
X66352799Y-66543600D01*
X66352799Y-66543605D01*
X66373882Y-66676724D01*
X66373883Y-66676727D01*
X66373884Y-66676729D01*
X66435075Y-66796823D01*
X66435076Y-66796824D01*
X66435079Y-66796828D01*
X66530377Y-66892126D01*
X66530381Y-66892129D01*
X66530383Y-66892131D01*
X66650477Y-66953322D01*
X66650479Y-66953322D01*
X66650481Y-66953323D01*
X66783601Y-66974407D01*
X66783603Y-66974407D01*
X66783605Y-66974407D01*
X66916724Y-66953323D01*
X66916724Y-66953322D01*
X66916729Y-66953322D01*
X67036823Y-66892131D01*
X67132131Y-66796823D01*
X67193322Y-66676729D01*
X67193323Y-66676724D01*
X67207059Y-66589997D01*
X69579196Y-66589997D01*
X69579196Y-66590002D01*
X69600279Y-66723121D01*
X69600280Y-66723124D01*
X69600281Y-66723126D01*
X69661472Y-66843220D01*
X69661473Y-66843221D01*
X69661476Y-66843225D01*
X69756774Y-66938523D01*
X69756778Y-66938526D01*
X69756780Y-66938528D01*
X69876874Y-66999719D01*
X69876876Y-66999719D01*
X69876878Y-66999720D01*
X70009998Y-67020804D01*
X70010000Y-67020804D01*
X70010002Y-67020804D01*
X70143121Y-66999720D01*
X70143121Y-66999719D01*
X70143126Y-66999719D01*
X70263220Y-66938528D01*
X70358528Y-66843220D01*
X70419719Y-66723126D01*
X70427068Y-66676729D01*
X70440804Y-66590002D01*
X70440804Y-66589997D01*
X70419720Y-66456878D01*
X70419719Y-66456876D01*
X70419719Y-66456874D01*
X70358528Y-66336780D01*
X70358526Y-66336778D01*
X70358523Y-66336774D01*
X70263225Y-66241476D01*
X70263221Y-66241473D01*
X70263220Y-66241472D01*
X70143126Y-66180281D01*
X70143124Y-66180280D01*
X70143121Y-66180279D01*
X70010002Y-66159196D01*
X70009998Y-66159196D01*
X69876878Y-66180279D01*
X69876874Y-66180280D01*
X69876874Y-66180281D01*
X69870021Y-66183773D01*
X69756778Y-66241473D01*
X69756774Y-66241476D01*
X69661476Y-66336774D01*
X69661473Y-66336778D01*
X69600279Y-66456878D01*
X69579196Y-66589997D01*
X67207059Y-66589997D01*
X67214407Y-66543605D01*
X67214407Y-66543600D01*
X67193323Y-66410481D01*
X67193322Y-66410479D01*
X67193322Y-66410477D01*
X67132131Y-66290383D01*
X67132129Y-66290381D01*
X67132126Y-66290377D01*
X67036828Y-66195079D01*
X67036824Y-66195076D01*
X67036823Y-66195075D01*
X66916729Y-66133884D01*
X66916727Y-66133883D01*
X66916724Y-66133882D01*
X66783605Y-66112799D01*
X66783601Y-66112799D01*
X66650481Y-66133882D01*
X66530381Y-66195076D01*
X66530377Y-66195079D01*
X66435079Y-66290377D01*
X66435076Y-66290381D01*
X66373882Y-66410481D01*
X66352799Y-66543600D01*
X63837770Y-66543600D01*
X63733126Y-66490281D01*
X63733124Y-66490280D01*
X63733121Y-66490279D01*
X63600002Y-66469196D01*
X63599998Y-66469196D01*
X63466878Y-66490279D01*
X63346778Y-66551473D01*
X63346774Y-66551476D01*
X63251476Y-66646774D01*
X63251473Y-66646778D01*
X63190279Y-66766878D01*
X63169196Y-66899997D01*
X62630804Y-66899997D01*
X62609720Y-66766878D01*
X62609719Y-66766876D01*
X62609719Y-66766874D01*
X62548528Y-66646780D01*
X62548526Y-66646778D01*
X62548523Y-66646774D01*
X62453225Y-66551476D01*
X62453221Y-66551473D01*
X62453220Y-66551472D01*
X62333126Y-66490281D01*
X62333124Y-66490280D01*
X62333121Y-66490279D01*
X62200002Y-66469196D01*
X62199998Y-66469196D01*
X62066878Y-66490279D01*
X61946778Y-66551473D01*
X61946774Y-66551476D01*
X61851476Y-66646774D01*
X61851473Y-66646778D01*
X61790279Y-66766878D01*
X61769196Y-66899997D01*
X61230804Y-66899997D01*
X61209720Y-66766878D01*
X61209719Y-66766876D01*
X61209719Y-66766874D01*
X61148528Y-66646780D01*
X61148526Y-66646778D01*
X61148523Y-66646774D01*
X61053225Y-66551476D01*
X61053221Y-66551473D01*
X61053220Y-66551472D01*
X60933126Y-66490281D01*
X60933124Y-66490280D01*
X60933121Y-66490279D01*
X60800002Y-66469196D01*
X60799998Y-66469196D01*
X60666878Y-66490279D01*
X60546778Y-66551473D01*
X60546774Y-66551476D01*
X60451476Y-66646774D01*
X60451473Y-66646778D01*
X60390279Y-66766878D01*
X60369196Y-66899997D01*
X55160247Y-66899997D01*
X55155026Y-65359755D01*
X55154884Y-65352776D01*
X55154569Y-65344349D01*
X55141755Y-65280210D01*
X55117338Y-65214746D01*
X55117335Y-65214740D01*
X55117325Y-65214715D01*
X55107131Y-65191778D01*
X55107130Y-65191776D01*
X55107129Y-65191775D01*
X55107129Y-65191774D01*
X55047945Y-65122049D01*
X55047943Y-65122047D01*
X55043983Y-65117382D01*
X55015608Y-65053533D01*
X55016153Y-65049997D01*
X72769196Y-65049997D01*
X72769196Y-65050002D01*
X72790279Y-65183121D01*
X72790280Y-65183124D01*
X72790281Y-65183126D01*
X72851472Y-65303220D01*
X72851473Y-65303221D01*
X72851476Y-65303225D01*
X72946774Y-65398523D01*
X72946778Y-65398526D01*
X72946780Y-65398528D01*
X73066874Y-65459719D01*
X73066876Y-65459719D01*
X73066878Y-65459720D01*
X73199998Y-65480804D01*
X73200000Y-65480804D01*
X73200002Y-65480804D01*
X73333121Y-65459720D01*
X73333121Y-65459719D01*
X73333126Y-65459719D01*
X73453220Y-65398528D01*
X73548528Y-65303220D01*
X73609719Y-65183126D01*
X73612494Y-65165605D01*
X73630804Y-65050002D01*
X73630804Y-65049997D01*
X73609720Y-64916878D01*
X73609719Y-64916876D01*
X73609719Y-64916874D01*
X73548528Y-64796780D01*
X73548526Y-64796778D01*
X73548523Y-64796774D01*
X73453225Y-64701476D01*
X73453221Y-64701473D01*
X73453220Y-64701472D01*
X73333126Y-64640281D01*
X73333124Y-64640280D01*
X73333121Y-64640279D01*
X73200002Y-64619196D01*
X73199998Y-64619196D01*
X73066878Y-64640279D01*
X72946778Y-64701473D01*
X72946774Y-64701476D01*
X72851476Y-64796774D01*
X72851473Y-64796778D01*
X72790279Y-64916878D01*
X72769196Y-65049997D01*
X55016153Y-65049997D01*
X55026255Y-64984480D01*
X55057002Y-64943698D01*
X55062988Y-64938477D01*
X55080882Y-64920825D01*
X55125258Y-64840856D01*
X55144715Y-64773751D01*
X55152843Y-64715827D01*
X55146580Y-62868201D01*
X55146438Y-62861222D01*
X55146123Y-62852795D01*
X55133309Y-62788656D01*
X55108892Y-62723192D01*
X55108889Y-62723186D01*
X55108879Y-62723161D01*
X55098684Y-62700222D01*
X55097640Y-62698560D01*
X55097105Y-62696669D01*
X55095082Y-62692116D01*
X55095736Y-62691825D01*
X55078639Y-62631323D01*
X55099006Y-62564488D01*
X55121232Y-62539047D01*
X55137646Y-62524765D01*
X55155716Y-62499997D01*
X64219196Y-62499997D01*
X64219196Y-62500002D01*
X64240279Y-62633121D01*
X64240280Y-62633124D01*
X64240281Y-62633126D01*
X64301472Y-62753220D01*
X64301473Y-62753221D01*
X64301476Y-62753225D01*
X64396774Y-62848523D01*
X64396778Y-62848526D01*
X64396780Y-62848528D01*
X64516874Y-62909719D01*
X64516876Y-62909719D01*
X64516878Y-62909720D01*
X64649998Y-62930804D01*
X64650000Y-62930804D01*
X64650002Y-62930804D01*
X64783121Y-62909720D01*
X64783121Y-62909719D01*
X64783126Y-62909719D01*
X64903220Y-62848528D01*
X64998528Y-62753220D01*
X65059719Y-62633126D01*
X65060136Y-62630495D01*
X65080804Y-62500002D01*
X65080804Y-62499997D01*
X65076844Y-62474997D01*
X77144196Y-62474997D01*
X77144196Y-62475002D01*
X77165279Y-62608121D01*
X77165280Y-62608124D01*
X77165281Y-62608126D01*
X77226472Y-62728220D01*
X77226473Y-62728221D01*
X77226476Y-62728225D01*
X77321774Y-62823523D01*
X77321778Y-62823526D01*
X77321780Y-62823528D01*
X77441874Y-62884719D01*
X77441876Y-62884719D01*
X77441878Y-62884720D01*
X77574998Y-62905804D01*
X77575000Y-62905804D01*
X77575002Y-62905804D01*
X77708121Y-62884720D01*
X77708121Y-62884719D01*
X77708126Y-62884719D01*
X77828220Y-62823528D01*
X77923528Y-62728220D01*
X77984719Y-62608126D01*
X77986752Y-62595291D01*
X77993926Y-62549997D01*
X89569196Y-62549997D01*
X89569196Y-62550002D01*
X89590279Y-62683121D01*
X89590280Y-62683124D01*
X89590281Y-62683126D01*
X89644052Y-62788657D01*
X89651473Y-62803221D01*
X89651476Y-62803225D01*
X89746774Y-62898523D01*
X89746778Y-62898526D01*
X89746780Y-62898528D01*
X89866874Y-62959719D01*
X89866876Y-62959719D01*
X89866878Y-62959720D01*
X89999998Y-62980804D01*
X90000000Y-62980804D01*
X90000002Y-62980804D01*
X90133121Y-62959720D01*
X90133121Y-62959719D01*
X90133126Y-62959719D01*
X90253220Y-62898528D01*
X90348528Y-62803220D01*
X90409719Y-62683126D01*
X90423631Y-62595291D01*
X90430804Y-62550002D01*
X90430804Y-62549997D01*
X90409720Y-62416878D01*
X90409719Y-62416876D01*
X90409719Y-62416874D01*
X90348528Y-62296780D01*
X90348526Y-62296778D01*
X90348523Y-62296774D01*
X90253225Y-62201476D01*
X90253221Y-62201473D01*
X90253220Y-62201472D01*
X90133126Y-62140281D01*
X90133124Y-62140280D01*
X90133121Y-62140279D01*
X90000002Y-62119196D01*
X89999998Y-62119196D01*
X89866878Y-62140279D01*
X89866874Y-62140280D01*
X89866874Y-62140281D01*
X89844903Y-62151476D01*
X89746778Y-62201473D01*
X89746774Y-62201476D01*
X89651476Y-62296774D01*
X89651473Y-62296778D01*
X89590279Y-62416878D01*
X89569196Y-62549997D01*
X77993926Y-62549997D01*
X78005804Y-62475002D01*
X78005804Y-62474997D01*
X77984720Y-62341878D01*
X77984719Y-62341876D01*
X77984719Y-62341874D01*
X77923528Y-62221780D01*
X77923526Y-62221778D01*
X77923523Y-62221774D01*
X77828225Y-62126476D01*
X77828221Y-62126473D01*
X77828220Y-62126472D01*
X77708126Y-62065281D01*
X77708124Y-62065280D01*
X77708121Y-62065279D01*
X77575002Y-62044196D01*
X77574998Y-62044196D01*
X77441878Y-62065279D01*
X77321778Y-62126473D01*
X77321774Y-62126476D01*
X77226476Y-62221774D01*
X77226473Y-62221778D01*
X77165279Y-62341878D01*
X77144196Y-62474997D01*
X65076844Y-62474997D01*
X65059720Y-62366878D01*
X65059719Y-62366876D01*
X65059719Y-62366874D01*
X64998528Y-62246780D01*
X64998526Y-62246778D01*
X64998523Y-62246774D01*
X64903225Y-62151476D01*
X64903221Y-62151473D01*
X64903220Y-62151472D01*
X64783126Y-62090281D01*
X64783124Y-62090280D01*
X64783121Y-62090279D01*
X64650002Y-62069196D01*
X64649998Y-62069196D01*
X64516878Y-62090279D01*
X64396778Y-62151473D01*
X64396774Y-62151476D01*
X64301476Y-62246774D01*
X64301473Y-62246778D01*
X64240279Y-62366878D01*
X64219196Y-62499997D01*
X55155716Y-62499997D01*
X55178827Y-62468321D01*
X55206226Y-62416644D01*
X55513805Y-61559997D01*
X59229196Y-61559997D01*
X59229196Y-61560002D01*
X59250279Y-61693121D01*
X59250280Y-61693124D01*
X59250281Y-61693126D01*
X59311472Y-61813220D01*
X59311473Y-61813221D01*
X59311476Y-61813225D01*
X59406774Y-61908523D01*
X59406778Y-61908526D01*
X59406780Y-61908528D01*
X59526874Y-61969719D01*
X59526876Y-61969719D01*
X59526878Y-61969720D01*
X59659998Y-61990804D01*
X59660000Y-61990804D01*
X59660002Y-61990804D01*
X59793121Y-61969720D01*
X59793121Y-61969719D01*
X59793126Y-61969719D01*
X59913220Y-61908528D01*
X60008528Y-61813220D01*
X60069719Y-61693126D01*
X60080943Y-61622262D01*
X60104568Y-61572425D01*
X60303130Y-61572425D01*
X60325889Y-61622262D01*
X60340279Y-61713121D01*
X60340280Y-61713124D01*
X60340281Y-61713126D01*
X60401472Y-61833220D01*
X60401473Y-61833221D01*
X60401476Y-61833225D01*
X60496774Y-61928523D01*
X60496778Y-61928526D01*
X60496780Y-61928528D01*
X60616874Y-61989719D01*
X60616876Y-61989719D01*
X60616878Y-61989720D01*
X60749998Y-62010804D01*
X60750000Y-62010804D01*
X60750002Y-62010804D01*
X60883121Y-61989720D01*
X60883121Y-61989719D01*
X60883126Y-61989719D01*
X61003220Y-61928528D01*
X61098528Y-61833220D01*
X61159719Y-61713126D01*
X61162887Y-61693126D01*
X61180804Y-61580002D01*
X61180804Y-61579997D01*
X61159720Y-61446878D01*
X61159719Y-61446876D01*
X61159719Y-61446874D01*
X61098528Y-61326780D01*
X61098526Y-61326778D01*
X61098523Y-61326774D01*
X61003225Y-61231476D01*
X61003221Y-61231473D01*
X61003220Y-61231472D01*
X60883126Y-61170281D01*
X60883124Y-61170280D01*
X60883121Y-61170279D01*
X60750002Y-61149196D01*
X60749998Y-61149196D01*
X60616878Y-61170279D01*
X60496778Y-61231473D01*
X60496774Y-61231476D01*
X60401476Y-61326774D01*
X60401473Y-61326778D01*
X60401472Y-61326780D01*
X60350470Y-61426878D01*
X60340279Y-61446878D01*
X60329056Y-61517738D01*
X60303130Y-61572425D01*
X60104568Y-61572425D01*
X60106868Y-61567573D01*
X60084110Y-61517738D01*
X60069719Y-61426874D01*
X60008528Y-61306780D01*
X60008526Y-61306778D01*
X60008523Y-61306774D01*
X59913225Y-61211476D01*
X59913221Y-61211473D01*
X59913220Y-61211472D01*
X59793126Y-61150281D01*
X59793124Y-61150280D01*
X59793121Y-61150279D01*
X59660002Y-61129196D01*
X59659998Y-61129196D01*
X59526878Y-61150279D01*
X59406778Y-61211473D01*
X59406774Y-61211476D01*
X59311476Y-61306774D01*
X59311473Y-61306778D01*
X59250279Y-61426878D01*
X59229196Y-61559997D01*
X55513805Y-61559997D01*
X55768731Y-60849997D01*
X81619196Y-60849997D01*
X81619196Y-60850002D01*
X81640279Y-60983121D01*
X81640280Y-60983124D01*
X81640281Y-60983126D01*
X81701472Y-61103220D01*
X81701473Y-61103221D01*
X81701476Y-61103225D01*
X81796774Y-61198523D01*
X81796778Y-61198526D01*
X81796780Y-61198528D01*
X81916874Y-61259719D01*
X81916876Y-61259719D01*
X81916878Y-61259720D01*
X82049998Y-61280804D01*
X82050000Y-61280804D01*
X82050002Y-61280804D01*
X82183121Y-61259720D01*
X82183121Y-61259719D01*
X82183126Y-61259719D01*
X82303220Y-61198528D01*
X82398528Y-61103220D01*
X82459719Y-60983126D01*
X82459720Y-60983121D01*
X82480804Y-60850002D01*
X82480804Y-60849997D01*
X82459720Y-60716878D01*
X82459719Y-60716876D01*
X82459719Y-60716874D01*
X82398528Y-60596780D01*
X82398526Y-60596778D01*
X82398523Y-60596774D01*
X82303225Y-60501476D01*
X82303221Y-60501473D01*
X82303220Y-60501472D01*
X82183126Y-60440281D01*
X82183124Y-60440280D01*
X82183121Y-60440279D01*
X82050002Y-60419196D01*
X82049998Y-60419196D01*
X81916878Y-60440279D01*
X81796778Y-60501473D01*
X81796774Y-60501476D01*
X81701476Y-60596774D01*
X81701473Y-60596778D01*
X81640279Y-60716878D01*
X81619196Y-60849997D01*
X55768731Y-60849997D01*
X56002113Y-60199997D01*
X67869196Y-60199997D01*
X67869196Y-60200002D01*
X67890279Y-60333121D01*
X67890280Y-60333124D01*
X67890281Y-60333126D01*
X67949577Y-60449500D01*
X67951473Y-60453221D01*
X67951476Y-60453225D01*
X68046774Y-60548523D01*
X68046778Y-60548526D01*
X68046780Y-60548528D01*
X68166874Y-60609719D01*
X68166876Y-60609719D01*
X68166878Y-60609720D01*
X68299998Y-60630804D01*
X68300000Y-60630804D01*
X68300002Y-60630804D01*
X68433121Y-60609720D01*
X68433121Y-60609719D01*
X68433126Y-60609719D01*
X68553220Y-60548528D01*
X68648528Y-60453220D01*
X68709719Y-60333126D01*
X68719034Y-60274312D01*
X68730804Y-60200002D01*
X68730804Y-60199997D01*
X68709720Y-60066878D01*
X68709719Y-60066876D01*
X68709719Y-60066874D01*
X68686390Y-60021088D01*
X82600287Y-60021088D01*
X82600287Y-60021093D01*
X82621370Y-60154212D01*
X82621371Y-60154215D01*
X82621372Y-60154217D01*
X82644700Y-60200000D01*
X82682564Y-60274312D01*
X82682567Y-60274316D01*
X82777865Y-60369614D01*
X82777869Y-60369617D01*
X82777871Y-60369619D01*
X82897965Y-60430810D01*
X82897967Y-60430810D01*
X82897969Y-60430811D01*
X83031089Y-60451895D01*
X83031091Y-60451895D01*
X83031093Y-60451895D01*
X83164212Y-60430811D01*
X83164212Y-60430810D01*
X83164217Y-60430810D01*
X83284311Y-60369619D01*
X83379619Y-60274311D01*
X83440810Y-60154217D01*
X83461895Y-60021091D01*
X83450125Y-59946780D01*
X83440811Y-59887969D01*
X83440810Y-59887967D01*
X83440810Y-59887965D01*
X83379619Y-59767871D01*
X83379617Y-59767869D01*
X83379614Y-59767865D01*
X83284316Y-59672567D01*
X83284312Y-59672564D01*
X83284311Y-59672563D01*
X83164217Y-59611372D01*
X83164215Y-59611371D01*
X83164212Y-59611370D01*
X83031093Y-59590287D01*
X83031089Y-59590287D01*
X82897969Y-59611370D01*
X82777869Y-59672564D01*
X82777865Y-59672567D01*
X82682567Y-59767865D01*
X82682564Y-59767869D01*
X82621370Y-59887969D01*
X82600287Y-60021088D01*
X68686390Y-60021088D01*
X68648528Y-59946780D01*
X68648526Y-59946778D01*
X68648523Y-59946774D01*
X68553225Y-59851476D01*
X68553221Y-59851473D01*
X68553220Y-59851472D01*
X68433126Y-59790281D01*
X68433124Y-59790280D01*
X68433121Y-59790279D01*
X68300002Y-59769196D01*
X68299998Y-59769196D01*
X68166878Y-59790279D01*
X68046778Y-59851473D01*
X68046774Y-59851476D01*
X67951476Y-59946774D01*
X67951473Y-59946778D01*
X67890279Y-60066878D01*
X67869196Y-60199997D01*
X56002113Y-60199997D01*
X56285763Y-59409997D01*
X88569196Y-59409997D01*
X88569196Y-59410002D01*
X88590279Y-59543121D01*
X88590280Y-59543124D01*
X88590281Y-59543126D01*
X88651472Y-59663220D01*
X88651473Y-59663221D01*
X88651476Y-59663225D01*
X88746774Y-59758523D01*
X88746778Y-59758526D01*
X88746780Y-59758528D01*
X88866874Y-59819719D01*
X88866876Y-59819719D01*
X88866878Y-59819720D01*
X88999998Y-59840804D01*
X89000000Y-59840804D01*
X89000002Y-59840804D01*
X89133121Y-59819720D01*
X89133121Y-59819719D01*
X89133126Y-59819719D01*
X89253220Y-59758528D01*
X89348528Y-59663220D01*
X89409719Y-59543126D01*
X89430804Y-59410000D01*
X89409719Y-59276874D01*
X89348528Y-59156780D01*
X89348526Y-59156778D01*
X89348523Y-59156774D01*
X89253225Y-59061476D01*
X89253221Y-59061473D01*
X89253220Y-59061472D01*
X89133126Y-59000281D01*
X89133124Y-59000280D01*
X89133121Y-59000279D01*
X89000002Y-58979196D01*
X88999998Y-58979196D01*
X88866878Y-59000279D01*
X88746778Y-59061473D01*
X88746774Y-59061476D01*
X88651476Y-59156774D01*
X88651473Y-59156778D01*
X88590279Y-59276878D01*
X88569196Y-59409997D01*
X56285763Y-59409997D01*
X56763300Y-58079997D01*
X95989196Y-58079997D01*
X95989196Y-58080002D01*
X96010279Y-58213121D01*
X96010280Y-58213124D01*
X96010281Y-58213126D01*
X96062342Y-58315301D01*
X96071473Y-58333221D01*
X96071476Y-58333225D01*
X96166774Y-58428523D01*
X96166778Y-58428526D01*
X96166780Y-58428528D01*
X96286874Y-58489719D01*
X96286876Y-58489719D01*
X96286878Y-58489720D01*
X96419998Y-58510804D01*
X96420000Y-58510804D01*
X96420002Y-58510804D01*
X96553121Y-58489720D01*
X96553121Y-58489719D01*
X96553126Y-58489719D01*
X96673220Y-58428528D01*
X96768528Y-58333220D01*
X96829719Y-58213126D01*
X96833838Y-58187118D01*
X96850804Y-58080002D01*
X96850804Y-58079997D01*
X96829720Y-57946878D01*
X96829719Y-57946876D01*
X96829719Y-57946874D01*
X96768528Y-57826780D01*
X96768526Y-57826778D01*
X96768523Y-57826774D01*
X96673225Y-57731476D01*
X96673221Y-57731473D01*
X96673220Y-57731472D01*
X96553126Y-57670281D01*
X96553124Y-57670280D01*
X96553121Y-57670279D01*
X96420002Y-57649196D01*
X96419998Y-57649196D01*
X96286878Y-57670279D01*
X96166778Y-57731473D01*
X96166774Y-57731476D01*
X96071476Y-57826774D01*
X96071473Y-57826778D01*
X96010279Y-57946878D01*
X95989196Y-58079997D01*
X56763300Y-58079997D01*
X57222884Y-56799997D01*
X62119196Y-56799997D01*
X62119196Y-56800002D01*
X62140279Y-56933121D01*
X62140280Y-56933124D01*
X62140281Y-56933126D01*
X62182953Y-57016874D01*
X62201473Y-57053221D01*
X62201476Y-57053225D01*
X62296774Y-57148523D01*
X62296778Y-57148526D01*
X62296780Y-57148528D01*
X62416874Y-57209719D01*
X62416876Y-57209719D01*
X62416878Y-57209720D01*
X62549998Y-57230804D01*
X62550000Y-57230804D01*
X62550002Y-57230804D01*
X62683121Y-57209720D01*
X62683121Y-57209719D01*
X62683126Y-57209719D01*
X62803220Y-57148528D01*
X62898528Y-57053220D01*
X62959719Y-56933126D01*
X62979221Y-56809997D01*
X62980804Y-56800002D01*
X62980804Y-56799997D01*
X64569196Y-56799997D01*
X64569196Y-56800002D01*
X64590279Y-56933121D01*
X64590280Y-56933124D01*
X64590281Y-56933126D01*
X64632953Y-57016874D01*
X64651473Y-57053221D01*
X64651476Y-57053225D01*
X64746774Y-57148523D01*
X64746778Y-57148526D01*
X64746780Y-57148528D01*
X64866874Y-57209719D01*
X64866876Y-57209719D01*
X64866878Y-57209720D01*
X64999998Y-57230804D01*
X65000000Y-57230804D01*
X65000002Y-57230804D01*
X65133121Y-57209720D01*
X65133121Y-57209719D01*
X65133126Y-57209719D01*
X65250337Y-57149997D01*
X70169196Y-57149997D01*
X70169196Y-57150002D01*
X70190279Y-57283121D01*
X70190280Y-57283124D01*
X70190281Y-57283126D01*
X70251472Y-57403220D01*
X70251473Y-57403221D01*
X70251476Y-57403225D01*
X70346774Y-57498523D01*
X70346778Y-57498526D01*
X70346780Y-57498528D01*
X70466874Y-57559719D01*
X70466876Y-57559719D01*
X70466878Y-57559720D01*
X70599998Y-57580804D01*
X70600000Y-57580804D01*
X70600002Y-57580804D01*
X70733121Y-57559720D01*
X70733121Y-57559719D01*
X70733126Y-57559719D01*
X70853220Y-57498528D01*
X70948528Y-57403220D01*
X71009719Y-57283126D01*
X71018006Y-57230804D01*
X71022885Y-57199997D01*
X71769196Y-57199997D01*
X71769196Y-57200002D01*
X71790279Y-57333121D01*
X71790280Y-57333124D01*
X71790281Y-57333126D01*
X71851472Y-57453220D01*
X71851473Y-57453221D01*
X71851476Y-57453225D01*
X71946774Y-57548523D01*
X71946778Y-57548526D01*
X71946780Y-57548528D01*
X72066874Y-57609719D01*
X72066876Y-57609719D01*
X72066878Y-57609720D01*
X72199998Y-57630804D01*
X72200000Y-57630804D01*
X72200002Y-57630804D01*
X72333121Y-57609720D01*
X72333121Y-57609719D01*
X72333126Y-57609719D01*
X72453220Y-57548528D01*
X72548528Y-57453220D01*
X72609719Y-57333126D01*
X72617639Y-57283121D01*
X72630804Y-57200002D01*
X72630804Y-57199997D01*
X72609720Y-57066878D01*
X72609719Y-57066876D01*
X72609719Y-57066874D01*
X72548528Y-56946780D01*
X72548526Y-56946778D01*
X72548523Y-56946774D01*
X72453225Y-56851476D01*
X72453221Y-56851473D01*
X72453220Y-56851472D01*
X72371821Y-56809997D01*
X96029196Y-56809997D01*
X96029196Y-56810002D01*
X96050279Y-56943121D01*
X96050280Y-56943124D01*
X96050281Y-56943126D01*
X96111472Y-57063220D01*
X96111473Y-57063221D01*
X96111476Y-57063225D01*
X96206774Y-57158523D01*
X96206778Y-57158526D01*
X96206780Y-57158528D01*
X96326874Y-57219719D01*
X96326876Y-57219719D01*
X96326878Y-57219720D01*
X96459998Y-57240804D01*
X96460000Y-57240804D01*
X96460002Y-57240804D01*
X96593121Y-57219720D01*
X96593121Y-57219719D01*
X96593126Y-57219719D01*
X96713220Y-57158528D01*
X96808528Y-57063220D01*
X96869719Y-56943126D01*
X96871304Y-56933121D01*
X96890804Y-56810002D01*
X96890804Y-56809997D01*
X96869720Y-56676878D01*
X96869719Y-56676876D01*
X96869719Y-56676874D01*
X96808528Y-56556780D01*
X96808526Y-56556778D01*
X96808523Y-56556774D01*
X96713225Y-56461476D01*
X96713221Y-56461473D01*
X96713220Y-56461472D01*
X96593126Y-56400281D01*
X96593124Y-56400280D01*
X96593121Y-56400279D01*
X96460002Y-56379196D01*
X96459998Y-56379196D01*
X96326878Y-56400279D01*
X96206778Y-56461473D01*
X96206774Y-56461476D01*
X96111476Y-56556774D01*
X96111473Y-56556778D01*
X96050279Y-56676878D01*
X96029196Y-56809997D01*
X72371821Y-56809997D01*
X72333126Y-56790281D01*
X72333124Y-56790280D01*
X72333121Y-56790279D01*
X72200002Y-56769196D01*
X72199998Y-56769196D01*
X72066878Y-56790279D01*
X72066874Y-56790280D01*
X72066874Y-56790281D01*
X72044903Y-56801476D01*
X71946778Y-56851473D01*
X71946774Y-56851476D01*
X71851476Y-56946774D01*
X71851473Y-56946778D01*
X71790279Y-57066878D01*
X71769196Y-57199997D01*
X71022885Y-57199997D01*
X71030804Y-57150002D01*
X71030804Y-57149997D01*
X71009720Y-57016878D01*
X71009719Y-57016876D01*
X71009719Y-57016874D01*
X70948528Y-56896780D01*
X70948526Y-56896778D01*
X70948523Y-56896774D01*
X70853225Y-56801476D01*
X70853221Y-56801473D01*
X70853220Y-56801472D01*
X70733126Y-56740281D01*
X70733124Y-56740280D01*
X70733121Y-56740279D01*
X70600002Y-56719196D01*
X70599998Y-56719196D01*
X70466878Y-56740279D01*
X70346778Y-56801473D01*
X70346774Y-56801476D01*
X70251476Y-56896774D01*
X70251473Y-56896778D01*
X70190279Y-57016878D01*
X70169196Y-57149997D01*
X65250337Y-57149997D01*
X65253220Y-57148528D01*
X65348528Y-57053220D01*
X65409719Y-56933126D01*
X65429221Y-56809997D01*
X65430804Y-56800002D01*
X65430804Y-56799997D01*
X65409720Y-56666878D01*
X65409719Y-56666876D01*
X65409719Y-56666874D01*
X65348528Y-56546780D01*
X65348526Y-56546778D01*
X65348523Y-56546774D01*
X65253225Y-56451476D01*
X65253221Y-56451473D01*
X65253220Y-56451472D01*
X65133126Y-56390281D01*
X65133124Y-56390280D01*
X65133121Y-56390279D01*
X65000002Y-56369196D01*
X64999998Y-56369196D01*
X64866878Y-56390279D01*
X64746778Y-56451473D01*
X64746774Y-56451476D01*
X64651476Y-56546774D01*
X64651473Y-56546778D01*
X64590279Y-56666878D01*
X64569196Y-56799997D01*
X62980804Y-56799997D01*
X62959720Y-56666878D01*
X62959719Y-56666876D01*
X62959719Y-56666874D01*
X62898528Y-56546780D01*
X62898526Y-56546778D01*
X62898523Y-56546774D01*
X62803225Y-56451476D01*
X62803221Y-56451473D01*
X62803220Y-56451472D01*
X62683126Y-56390281D01*
X62683124Y-56390280D01*
X62683121Y-56390279D01*
X62550002Y-56369196D01*
X62549998Y-56369196D01*
X62416878Y-56390279D01*
X62296778Y-56451473D01*
X62296774Y-56451476D01*
X62201476Y-56546774D01*
X62201473Y-56546778D01*
X62140279Y-56666878D01*
X62119196Y-56799997D01*
X57222884Y-56799997D01*
X57492172Y-56049997D01*
X78344196Y-56049997D01*
X78344196Y-56050002D01*
X78365279Y-56183121D01*
X78365280Y-56183124D01*
X78365281Y-56183126D01*
X78426472Y-56303220D01*
X78426473Y-56303221D01*
X78426476Y-56303225D01*
X78521774Y-56398523D01*
X78521778Y-56398526D01*
X78521780Y-56398528D01*
X78641874Y-56459719D01*
X78641876Y-56459719D01*
X78641878Y-56459720D01*
X78774998Y-56480804D01*
X78775000Y-56480804D01*
X78775002Y-56480804D01*
X78908121Y-56459720D01*
X78908121Y-56459719D01*
X78908126Y-56459719D01*
X79028220Y-56398528D01*
X79123528Y-56303220D01*
X79184719Y-56183126D01*
X79205804Y-56050000D01*
X79197280Y-55996182D01*
X79184720Y-55916878D01*
X79184719Y-55916876D01*
X79184719Y-55916874D01*
X79123528Y-55796780D01*
X79123526Y-55796778D01*
X79123523Y-55796774D01*
X79028225Y-55701476D01*
X79028221Y-55701473D01*
X79028220Y-55701472D01*
X78908126Y-55640281D01*
X78908124Y-55640280D01*
X78908121Y-55640279D01*
X78775002Y-55619196D01*
X78774998Y-55619196D01*
X78641878Y-55640279D01*
X78521778Y-55701473D01*
X78521774Y-55701476D01*
X78426476Y-55796774D01*
X78426473Y-55796778D01*
X78365279Y-55916878D01*
X78344196Y-56049997D01*
X57492172Y-56049997D01*
X57507379Y-56007643D01*
X57548559Y-55951202D01*
X57571026Y-55937474D01*
X60180263Y-54702497D01*
X76996696Y-54702497D01*
X76996696Y-54702502D01*
X77017779Y-54835621D01*
X77017780Y-54835624D01*
X77017781Y-54835626D01*
X77078972Y-54955720D01*
X77078973Y-54955721D01*
X77078976Y-54955725D01*
X77174274Y-55051023D01*
X77174278Y-55051026D01*
X77174280Y-55051028D01*
X77294374Y-55112219D01*
X77294376Y-55112219D01*
X77294378Y-55112220D01*
X77427498Y-55133304D01*
X77427500Y-55133304D01*
X77427502Y-55133304D01*
X77560621Y-55112220D01*
X77560621Y-55112219D01*
X77560626Y-55112219D01*
X77680720Y-55051028D01*
X77776028Y-54955720D01*
X77837219Y-54835626D01*
X77853821Y-54730804D01*
X77858304Y-54702502D01*
X77858304Y-54702497D01*
X77837220Y-54569378D01*
X77837219Y-54569376D01*
X77837219Y-54569374D01*
X77776028Y-54449280D01*
X77776026Y-54449278D01*
X77776023Y-54449274D01*
X77680725Y-54353976D01*
X77680721Y-54353973D01*
X77680720Y-54353972D01*
X77574788Y-54299997D01*
X87369196Y-54299997D01*
X87369196Y-54300002D01*
X87390279Y-54433121D01*
X87390280Y-54433124D01*
X87390281Y-54433126D01*
X87436187Y-54523221D01*
X87451473Y-54553221D01*
X87451476Y-54553225D01*
X87546774Y-54648523D01*
X87546778Y-54648526D01*
X87546780Y-54648528D01*
X87666874Y-54709719D01*
X87666876Y-54709719D01*
X87666878Y-54709720D01*
X87799998Y-54730804D01*
X87800000Y-54730804D01*
X87800002Y-54730804D01*
X87933121Y-54709720D01*
X87933121Y-54709719D01*
X87933126Y-54709719D01*
X88053220Y-54648528D01*
X88148528Y-54553220D01*
X88209719Y-54433126D01*
X88214471Y-54403126D01*
X88230804Y-54300002D01*
X88230804Y-54299997D01*
X88226052Y-54269997D01*
X96019196Y-54269997D01*
X96019196Y-54270002D01*
X96040279Y-54403121D01*
X96040280Y-54403124D01*
X96040281Y-54403126D01*
X96055567Y-54433126D01*
X96101473Y-54523221D01*
X96101476Y-54523225D01*
X96196774Y-54618523D01*
X96196778Y-54618526D01*
X96196780Y-54618528D01*
X96316874Y-54679719D01*
X96316876Y-54679719D01*
X96316878Y-54679720D01*
X96449998Y-54700804D01*
X96450000Y-54700804D01*
X96450002Y-54700804D01*
X96583121Y-54679720D01*
X96583121Y-54679719D01*
X96583126Y-54679719D01*
X96703220Y-54618528D01*
X96798528Y-54523220D01*
X96859719Y-54403126D01*
X96876052Y-54300002D01*
X96880804Y-54270002D01*
X96880804Y-54269997D01*
X96859720Y-54136878D01*
X96859719Y-54136876D01*
X96859719Y-54136874D01*
X96798528Y-54016780D01*
X96798526Y-54016778D01*
X96798523Y-54016774D01*
X96703225Y-53921476D01*
X96703221Y-53921473D01*
X96703220Y-53921472D01*
X96583126Y-53860281D01*
X96583124Y-53860280D01*
X96583121Y-53860279D01*
X96450002Y-53839196D01*
X96449998Y-53839196D01*
X96316878Y-53860279D01*
X96196778Y-53921473D01*
X96196774Y-53921476D01*
X96101476Y-54016774D01*
X96101473Y-54016778D01*
X96040279Y-54136878D01*
X96019196Y-54269997D01*
X88226052Y-54269997D01*
X88209720Y-54166878D01*
X88209719Y-54166876D01*
X88209719Y-54166874D01*
X88148528Y-54046780D01*
X88148526Y-54046778D01*
X88148523Y-54046774D01*
X88053225Y-53951476D01*
X88053221Y-53951473D01*
X88053220Y-53951472D01*
X87933126Y-53890281D01*
X87933124Y-53890280D01*
X87933121Y-53890279D01*
X87800002Y-53869196D01*
X87799998Y-53869196D01*
X87666878Y-53890279D01*
X87546778Y-53951473D01*
X87546774Y-53951476D01*
X87451476Y-54046774D01*
X87451473Y-54046778D01*
X87390279Y-54166878D01*
X87369196Y-54299997D01*
X77574788Y-54299997D01*
X77560626Y-54292781D01*
X77560624Y-54292780D01*
X77560621Y-54292779D01*
X77427502Y-54271696D01*
X77427498Y-54271696D01*
X77294378Y-54292779D01*
X77174278Y-54353973D01*
X77174274Y-54353976D01*
X77078976Y-54449274D01*
X77078973Y-54449278D01*
X77017779Y-54569378D01*
X76996696Y-54702497D01*
X60180263Y-54702497D01*
X62298327Y-53699997D01*
X67669196Y-53699997D01*
X67669196Y-53700002D01*
X67690279Y-53833121D01*
X67690280Y-53833124D01*
X67690281Y-53833126D01*
X67751472Y-53953220D01*
X67751473Y-53953221D01*
X67751476Y-53953225D01*
X67846774Y-54048523D01*
X67846778Y-54048526D01*
X67846780Y-54048528D01*
X67966874Y-54109719D01*
X67966876Y-54109719D01*
X67966878Y-54109720D01*
X68099998Y-54130804D01*
X68100000Y-54130804D01*
X68100002Y-54130804D01*
X68233121Y-54109720D01*
X68233121Y-54109719D01*
X68233126Y-54109719D01*
X68353220Y-54048528D01*
X68448528Y-53953220D01*
X68509719Y-53833126D01*
X68530804Y-53700000D01*
X68509719Y-53566874D01*
X68448528Y-53446780D01*
X68448526Y-53446778D01*
X68448523Y-53446774D01*
X68353225Y-53351476D01*
X68353221Y-53351473D01*
X68353220Y-53351472D01*
X68233126Y-53290281D01*
X68233124Y-53290280D01*
X68233121Y-53290279D01*
X68100002Y-53269196D01*
X68099998Y-53269196D01*
X67966878Y-53290279D01*
X67846778Y-53351473D01*
X67846774Y-53351476D01*
X67751476Y-53446774D01*
X67751473Y-53446778D01*
X67690279Y-53566878D01*
X67669196Y-53699997D01*
X62298327Y-53699997D01*
X63049474Y-53344472D01*
X63052339Y-53343089D01*
X63055694Y-53341437D01*
X63058506Y-53340025D01*
X63069914Y-53334189D01*
X63075512Y-53331216D01*
X63082211Y-53327524D01*
X63087728Y-53324371D01*
X63098715Y-53317865D01*
X63101449Y-53316217D01*
X63104705Y-53314220D01*
X63107368Y-53312559D01*
X64356379Y-52519997D01*
X68639196Y-52519997D01*
X68639196Y-52520002D01*
X68660279Y-52653121D01*
X68660280Y-52653124D01*
X68660281Y-52653126D01*
X68721472Y-52773220D01*
X68721473Y-52773221D01*
X68721476Y-52773225D01*
X68816774Y-52868523D01*
X68816778Y-52868526D01*
X68816780Y-52868528D01*
X68936874Y-52929719D01*
X68936876Y-52929719D01*
X68936878Y-52929720D01*
X69069998Y-52950804D01*
X69070000Y-52950804D01*
X69070002Y-52950804D01*
X69203121Y-52929720D01*
X69203121Y-52929719D01*
X69203126Y-52929719D01*
X69323220Y-52868528D01*
X69418528Y-52773220D01*
X69479719Y-52653126D01*
X69500804Y-52520000D01*
X69483642Y-52411644D01*
X69479720Y-52386878D01*
X69479719Y-52386876D01*
X69479719Y-52386874D01*
X69418528Y-52266780D01*
X69418526Y-52266778D01*
X69418523Y-52266774D01*
X69323225Y-52171476D01*
X69323221Y-52171473D01*
X69323220Y-52171472D01*
X69203126Y-52110281D01*
X69203124Y-52110280D01*
X69203121Y-52110279D01*
X69070002Y-52089196D01*
X69069998Y-52089196D01*
X68936878Y-52110279D01*
X68816778Y-52171473D01*
X68816774Y-52171476D01*
X68721476Y-52266774D01*
X68721473Y-52266778D01*
X68660279Y-52386878D01*
X68639196Y-52519997D01*
X64356379Y-52519997D01*
X65954737Y-51505757D01*
X65968659Y-51496095D01*
X65984951Y-51483763D01*
X65998028Y-51472988D01*
X66048411Y-51427863D01*
X66071690Y-51403268D01*
X66097154Y-51371482D01*
X66116076Y-51343399D01*
X66144044Y-51293451D01*
X66158098Y-51262644D01*
X66171890Y-51224324D01*
X66180693Y-51191625D01*
X66192836Y-51125087D01*
X66195188Y-51108307D01*
X66197188Y-51087972D01*
X66198150Y-51071052D01*
X66236561Y-48599997D01*
X88069196Y-48599997D01*
X88069196Y-48600002D01*
X88090279Y-48733121D01*
X88090280Y-48733124D01*
X88090281Y-48733126D01*
X88114860Y-48781364D01*
X88151473Y-48853221D01*
X88151476Y-48853225D01*
X88246774Y-48948523D01*
X88246778Y-48948526D01*
X88246780Y-48948528D01*
X88366874Y-49009719D01*
X88366876Y-49009719D01*
X88366878Y-49009720D01*
X88499998Y-49030804D01*
X88500000Y-49030804D01*
X88500002Y-49030804D01*
X88633121Y-49009720D01*
X88633121Y-49009719D01*
X88633126Y-49009719D01*
X88753220Y-48948528D01*
X88848528Y-48853220D01*
X88909719Y-48733126D01*
X88920728Y-48663620D01*
X88930804Y-48600002D01*
X88930804Y-48599997D01*
X88909720Y-48466878D01*
X88909719Y-48466876D01*
X88909719Y-48466874D01*
X88848528Y-48346780D01*
X88848526Y-48346778D01*
X88848523Y-48346774D01*
X88753225Y-48251476D01*
X88753221Y-48251473D01*
X88753220Y-48251472D01*
X88633126Y-48190281D01*
X88633124Y-48190280D01*
X88633121Y-48190279D01*
X88500002Y-48169196D01*
X88499998Y-48169196D01*
X88366878Y-48190279D01*
X88246778Y-48251473D01*
X88246774Y-48251476D01*
X88151476Y-48346774D01*
X88151473Y-48346778D01*
X88090279Y-48466878D01*
X88069196Y-48599997D01*
X66236561Y-48599997D01*
X66253183Y-47530628D01*
X66252381Y-47509019D01*
X66250046Y-47483067D01*
X66246979Y-47461666D01*
X66234800Y-47399997D01*
X78719196Y-47399997D01*
X78719196Y-47400002D01*
X78740279Y-47533121D01*
X78740280Y-47533124D01*
X78740281Y-47533126D01*
X78801472Y-47653220D01*
X78801473Y-47653221D01*
X78801476Y-47653225D01*
X78896774Y-47748523D01*
X78896778Y-47748526D01*
X78896780Y-47748528D01*
X79016874Y-47809719D01*
X79016876Y-47809719D01*
X79016878Y-47809720D01*
X79149998Y-47830804D01*
X79150000Y-47830804D01*
X79150002Y-47830804D01*
X79283121Y-47809720D01*
X79283121Y-47809719D01*
X79283126Y-47809719D01*
X79403220Y-47748528D01*
X79498528Y-47653220D01*
X79559719Y-47533126D01*
X79563537Y-47509019D01*
X79580804Y-47400002D01*
X79580804Y-47399997D01*
X79559720Y-47266878D01*
X79559719Y-47266876D01*
X79559719Y-47266874D01*
X79498528Y-47146780D01*
X79498526Y-47146778D01*
X79498523Y-47146774D01*
X79403225Y-47051476D01*
X79403221Y-47051473D01*
X79403220Y-47051472D01*
X79283126Y-46990281D01*
X79283124Y-46990280D01*
X79283121Y-46990279D01*
X79150002Y-46969196D01*
X79149998Y-46969196D01*
X79016878Y-46990279D01*
X78896778Y-47051473D01*
X78896774Y-47051476D01*
X78801476Y-47146774D01*
X78801473Y-47146778D01*
X78740279Y-47266878D01*
X78719196Y-47399997D01*
X66234800Y-47399997D01*
X66230358Y-47377507D01*
X66217586Y-47336256D01*
X66197141Y-47288632D01*
X66176029Y-47250958D01*
X66126459Y-47180940D01*
X66113055Y-47163975D01*
X66097934Y-47146780D01*
X66095854Y-47144414D01*
X66095846Y-47144406D01*
X66080736Y-47128945D01*
X64893594Y-46035749D01*
X64893582Y-46035739D01*
X64893572Y-46035730D01*
X64878984Y-46023498D01*
X64860714Y-46009569D01*
X64860712Y-46009568D01*
X64860706Y-46009563D01*
X64845035Y-45998727D01*
X64823574Y-45985313D01*
X64780683Y-45958503D01*
X64746638Y-45941387D01*
X64704027Y-45924712D01*
X64667415Y-45914175D01*
X64639435Y-45908870D01*
X64639434Y-45908870D01*
X64592858Y-45900037D01*
X64592840Y-45900034D01*
X64573988Y-45897358D01*
X64573975Y-45897356D01*
X64551092Y-45895185D01*
X64551064Y-45895183D01*
X64532062Y-45894267D01*
X64184617Y-45893636D01*
X56401969Y-45879503D01*
X56400264Y-45879503D01*
X56399708Y-45879503D01*
X56399449Y-45879495D01*
X56396314Y-45879523D01*
X56396096Y-45879525D01*
X56393957Y-45879539D01*
X56393776Y-45879546D01*
X56271425Y-45880625D01*
X56271381Y-45880625D01*
X55149620Y-45890524D01*
X55149576Y-45890524D01*
X54830560Y-45893339D01*
X54810966Y-45894448D01*
X54787464Y-45896908D01*
X54768097Y-45899874D01*
X54768068Y-45899879D01*
X54768067Y-45899880D01*
X54691579Y-45915368D01*
X54691575Y-45915369D01*
X54691566Y-45915371D01*
X54654109Y-45926763D01*
X54654083Y-45926772D01*
X54610597Y-45944685D01*
X54610563Y-45944700D01*
X54575931Y-45963005D01*
X54510756Y-46005863D01*
X54510742Y-46005873D01*
X54494867Y-46017434D01*
X54494853Y-46017445D01*
X54476465Y-46032230D01*
X54476455Y-46032238D01*
X54461759Y-46045255D01*
X54461758Y-46045256D01*
X52905007Y-47562846D01*
X52754056Y-47709999D01*
X52494684Y-47962846D01*
X52343734Y-48109999D01*
X51981781Y-48462846D01*
X51830831Y-48609999D01*
X50545652Y-49862846D01*
X50394702Y-50009999D01*
X49177035Y-51197032D01*
X49176962Y-51197105D01*
X49109524Y-51262846D01*
X48958573Y-51409999D01*
X48293539Y-52058300D01*
X48293503Y-52058338D01*
X48279880Y-52072980D01*
X48279866Y-52072996D01*
X48264310Y-52091442D01*
X48252164Y-52107357D01*
X48210112Y-52168410D01*
X48210111Y-52168413D01*
X48207000Y-52172928D01*
X48187632Y-52207906D01*
X48187625Y-52207920D01*
X48168553Y-52252016D01*
X48168552Y-52252020D01*
X48157962Y-52284999D01*
X48156955Y-52288132D01*
X48156317Y-52290119D01*
X48139466Y-52367952D01*
X48136193Y-52387680D01*
X48136188Y-52387712D01*
X48133406Y-52411644D01*
X48133402Y-52411679D01*
X48132062Y-52431662D01*
X48132062Y-52431663D01*
X48068381Y-55922977D01*
X47987240Y-60371373D01*
X47966336Y-60438043D01*
X47912707Y-60482827D01*
X47843863Y-60491585D01*
X47702502Y-60469196D01*
X47702498Y-60469196D01*
X47569378Y-60490279D01*
X47569374Y-60490280D01*
X47569374Y-60490281D01*
X47547403Y-60501476D01*
X47449278Y-60551473D01*
X47449274Y-60551476D01*
X47353976Y-60646774D01*
X47353973Y-60646778D01*
X47292779Y-60766878D01*
X47271696Y-60899997D01*
X47271696Y-60900002D01*
X47292779Y-61033121D01*
X47292780Y-61033124D01*
X47292781Y-61033126D01*
X47352475Y-61150281D01*
X47353973Y-61153221D01*
X47353976Y-61153225D01*
X47449274Y-61248523D01*
X47449278Y-61248526D01*
X47449280Y-61248528D01*
X47569374Y-61309719D01*
X47569376Y-61309719D01*
X47569378Y-61309720D01*
X47702498Y-61330804D01*
X47702500Y-61330804D01*
X47702502Y-61330804D01*
X47824440Y-61311491D01*
X47893734Y-61320446D01*
X47947186Y-61365442D01*
X47967825Y-61432193D01*
X47967817Y-61436225D01*
X47947867Y-62529999D01*
X47941340Y-62887826D01*
X47941340Y-62887827D01*
X47935386Y-63214170D01*
X47935588Y-63227771D01*
X47935661Y-63229286D01*
X47935613Y-63229480D01*
X47935619Y-63229829D01*
X47935529Y-63229830D01*
X47919207Y-63297191D01*
X47868652Y-63345420D01*
X47868104Y-63345701D01*
X47856778Y-63351472D01*
X47761476Y-63446774D01*
X47761473Y-63446778D01*
X47700279Y-63566878D01*
X47679196Y-63699997D01*
X47679196Y-63700002D01*
X47700279Y-63833121D01*
X47700280Y-63833124D01*
X47700281Y-63833126D01*
X47732590Y-63896535D01*
X47761473Y-63953221D01*
X47761476Y-63953225D01*
X47856774Y-64048523D01*
X47856777Y-64048525D01*
X47856780Y-64048528D01*
X47856782Y-64048529D01*
X47864672Y-64054261D01*
X47863026Y-64056525D01*
X47902753Y-64094047D01*
X47919546Y-64161868D01*
X47918059Y-64176419D01*
X47917806Y-64177972D01*
X47917806Y-64177981D01*
X47917223Y-64209917D01*
X47917223Y-64209925D01*
X47918698Y-64237134D01*
X47902669Y-64305140D01*
X47863012Y-64343449D01*
X47864674Y-64345736D01*
X47856779Y-64351472D01*
X47761476Y-64446774D01*
X47761473Y-64446778D01*
X47700279Y-64566878D01*
X47679196Y-64699997D01*
X47679196Y-64700002D01*
X47700279Y-64833121D01*
X47700280Y-64833124D01*
X47700281Y-64833126D01*
X47761472Y-64953220D01*
X47761473Y-64953221D01*
X47761476Y-64953225D01*
X47863680Y-65055429D01*
X47861721Y-65057387D01*
X47895147Y-65100734D01*
X47901993Y-65165605D01*
X47899512Y-65180877D01*
X47899512Y-65180878D01*
X47899035Y-65207041D01*
X47900644Y-65236724D01*
X47901032Y-65239768D01*
X47889966Y-65308756D01*
X47861778Y-65342669D01*
X47863680Y-65344571D01*
X47761476Y-65446774D01*
X47761473Y-65446778D01*
X47700279Y-65566878D01*
X47679196Y-65699997D01*
X47679196Y-65700002D01*
X47700279Y-65833121D01*
X47700280Y-65833124D01*
X47700281Y-65833126D01*
X47761472Y-65953220D01*
X47761473Y-65953221D01*
X47761476Y-65953225D01*
X47851809Y-66043558D01*
X47885294Y-66104881D01*
X47886523Y-66151123D01*
X47881219Y-66183767D01*
X47881219Y-66183773D01*
X47828095Y-69096237D01*
X47828096Y-69096238D01*
X47828028Y-69099995D01*
X47828027Y-69100013D01*
X47804529Y-70388201D01*
X47783625Y-70454870D01*
X47729996Y-70499654D01*
X47660667Y-70508335D01*
X47597652Y-70478155D01*
X47592869Y-70473620D01*
X47530725Y-70411476D01*
X47530721Y-70411473D01*
X47530720Y-70411472D01*
X47410626Y-70350281D01*
X47410624Y-70350280D01*
X47410621Y-70350279D01*
X47277502Y-70329196D01*
X47277498Y-70329196D01*
X47144378Y-70350279D01*
X47024278Y-70411473D01*
X47024274Y-70411476D01*
X46928976Y-70506774D01*
X46928973Y-70506778D01*
X46928972Y-70506780D01*
X46871284Y-70620000D01*
X46867779Y-70626878D01*
X46846696Y-70759997D01*
X46846696Y-70760002D01*
X46867779Y-70893121D01*
X46867780Y-70893124D01*
X46867781Y-70893126D01*
X46928972Y-71013220D01*
X46928973Y-71013221D01*
X46928976Y-71013225D01*
X47024274Y-71108523D01*
X47024278Y-71108526D01*
X47024280Y-71108528D01*
X47144374Y-71169719D01*
X47144376Y-71169719D01*
X47144378Y-71169720D01*
X47277498Y-71190804D01*
X47277500Y-71190804D01*
X47277502Y-71190804D01*
X47410621Y-71169720D01*
X47410621Y-71169719D01*
X47410626Y-71169719D01*
X47530720Y-71108528D01*
X47626028Y-71013220D01*
X47626033Y-71013209D01*
X47628527Y-71009778D01*
X47632654Y-71006594D01*
X47632929Y-71006320D01*
X47632964Y-71006355D01*
X47683853Y-70967107D01*
X47753466Y-70961120D01*
X47815264Y-70993720D01*
X47841384Y-71030568D01*
X47852892Y-71055432D01*
X47889884Y-71119469D01*
X47889894Y-71119484D01*
X47899888Y-71135111D01*
X47910843Y-71150645D01*
X47912772Y-71153381D01*
X47919088Y-71161529D01*
X47924137Y-71168045D01*
X48928627Y-72349719D01*
X50811036Y-74564171D01*
X55336697Y-79888127D01*
X55361613Y-79934954D01*
X55613455Y-80832951D01*
X55613454Y-80832951D01*
X55629016Y-80888437D01*
X55629016Y-80888439D01*
X55629017Y-80888439D01*
X56024185Y-82297499D01*
X56039746Y-82352987D01*
X56484820Y-83939999D01*
X56500381Y-83995487D01*
X57401183Y-87207499D01*
X57416744Y-87262987D01*
X57669978Y-88165951D01*
X58839079Y-92334646D01*
X58850106Y-92373966D01*
X58909953Y-92587365D01*
X59529539Y-94796643D01*
X59537999Y-94826807D01*
X59541374Y-94837200D01*
X59543359Y-94907041D01*
X59507269Y-94966868D01*
X59444564Y-94997687D01*
X59423437Y-94999500D01*
X46020029Y-94999500D01*
X45952990Y-94979815D01*
X45907235Y-94927011D01*
X45897291Y-94857853D01*
X45926316Y-94794297D01*
X45980435Y-94757991D01*
X46001226Y-94750985D01*
X46260503Y-94663625D01*
X46595162Y-94508795D01*
X46911119Y-94318690D01*
X47204670Y-94095538D01*
X47472373Y-93841956D01*
X47711090Y-93560917D01*
X47918022Y-93255716D01*
X48090743Y-92929930D01*
X48227227Y-92587379D01*
X48294321Y-92345730D01*
X51699500Y-92345730D01*
X51699500Y-93954269D01*
X51702353Y-93984699D01*
X51702353Y-93984701D01*
X51741138Y-94095538D01*
X51747207Y-94112882D01*
X51827850Y-94222150D01*
X51937118Y-94302793D01*
X51958089Y-94310131D01*
X52065299Y-94347646D01*
X52095730Y-94350500D01*
X52095734Y-94350500D01*
X53404270Y-94350500D01*
X53434699Y-94347646D01*
X53434701Y-94347646D01*
X53498790Y-94325219D01*
X53562882Y-94302793D01*
X53672150Y-94222150D01*
X53752793Y-94112882D01*
X53775219Y-94048790D01*
X53797646Y-93984701D01*
X53797646Y-93984699D01*
X53800500Y-93954269D01*
X53800500Y-92896530D01*
X54199500Y-92896530D01*
X54199500Y-93403469D01*
X54239868Y-93606412D01*
X54239870Y-93606420D01*
X54319058Y-93797596D01*
X54434024Y-93969657D01*
X54580342Y-94115975D01*
X54580345Y-94115977D01*
X54752402Y-94230941D01*
X54943580Y-94310130D01*
X55132187Y-94347646D01*
X55146530Y-94350499D01*
X55146534Y-94350500D01*
X55146535Y-94350500D01*
X55353466Y-94350500D01*
X55353467Y-94350499D01*
X55556420Y-94310130D01*
X55747598Y-94230941D01*
X55919655Y-94115977D01*
X56065977Y-93969655D01*
X56180941Y-93797598D01*
X56260130Y-93606420D01*
X56300500Y-93403465D01*
X56300500Y-92896535D01*
X56260130Y-92693580D01*
X56180941Y-92502402D01*
X56065977Y-92330345D01*
X56065975Y-92330342D01*
X55919657Y-92184024D01*
X55775935Y-92087993D01*
X55747598Y-92069059D01*
X55556420Y-91989870D01*
X55556412Y-91989868D01*
X55353469Y-91949500D01*
X55353465Y-91949500D01*
X55146535Y-91949500D01*
X55146530Y-91949500D01*
X54943587Y-91989868D01*
X54943579Y-91989870D01*
X54752403Y-92069058D01*
X54580342Y-92184024D01*
X54434024Y-92330342D01*
X54319058Y-92502403D01*
X54239870Y-92693579D01*
X54239868Y-92693587D01*
X54199500Y-92896530D01*
X53800500Y-92896530D01*
X53800500Y-92345730D01*
X53797646Y-92315300D01*
X53797646Y-92315298D01*
X53752793Y-92187119D01*
X53752792Y-92187117D01*
X53672150Y-92077850D01*
X53562882Y-91997207D01*
X53562880Y-91997206D01*
X53434700Y-91952353D01*
X53404270Y-91949500D01*
X53404266Y-91949500D01*
X52095734Y-91949500D01*
X52095730Y-91949500D01*
X52065300Y-91952353D01*
X52065298Y-91952353D01*
X51937119Y-91997206D01*
X51937117Y-91997207D01*
X51827850Y-92077850D01*
X51747207Y-92187117D01*
X51747206Y-92187119D01*
X51702353Y-92315298D01*
X51702353Y-92315300D01*
X51699500Y-92345730D01*
X48294321Y-92345730D01*
X48325875Y-92232081D01*
X48365584Y-91989868D01*
X48385529Y-91868213D01*
X48385529Y-91868210D01*
X48385531Y-91868199D01*
X48405494Y-91500000D01*
X48385531Y-91131801D01*
X48325875Y-90767919D01*
X48265422Y-90550187D01*
X48227231Y-90412634D01*
X48227229Y-90412628D01*
X48227228Y-90412627D01*
X48227227Y-90412621D01*
X48090743Y-90070070D01*
X47918022Y-89744284D01*
X47711090Y-89439083D01*
X47472373Y-89158044D01*
X47204670Y-88904462D01*
X46911119Y-88681310D01*
X46595162Y-88491205D01*
X46595161Y-88491204D01*
X46595157Y-88491202D01*
X46595153Y-88491200D01*
X46260513Y-88336379D01*
X46260508Y-88336377D01*
X46260503Y-88336375D01*
X46090172Y-88278983D01*
X45911065Y-88218635D01*
X45550946Y-88139367D01*
X45184371Y-88099500D01*
X45184370Y-88099500D01*
X44815630Y-88099500D01*
X44815628Y-88099500D01*
X44449053Y-88139367D01*
X44088934Y-88218635D01*
X43818812Y-88309650D01*
X43739497Y-88336375D01*
X43739494Y-88336376D01*
X43739486Y-88336379D01*
X43404846Y-88491200D01*
X43404842Y-88491202D01*
X43169538Y-88632779D01*
X43088881Y-88681310D01*
X42988410Y-88757685D01*
X42795330Y-88904461D01*
X42795330Y-88904462D01*
X42527626Y-89158044D01*
X42288909Y-89439083D01*
X42081979Y-89744282D01*
X42081973Y-89744291D01*
X41909261Y-90070061D01*
X41909255Y-90070073D01*
X41772770Y-90412628D01*
X41772769Y-90412630D01*
X41743980Y-90516322D01*
X41707078Y-90575651D01*
X41643958Y-90605612D01*
X41574660Y-90596691D01*
X41521186Y-90551721D01*
X41500514Y-90484980D01*
X41500500Y-90483148D01*
X41500500Y-81029997D01*
X53469196Y-81029997D01*
X53469196Y-81030002D01*
X53490279Y-81163121D01*
X53490280Y-81163124D01*
X53490281Y-81163126D01*
X53551472Y-81283220D01*
X53551473Y-81283221D01*
X53551476Y-81283225D01*
X53646774Y-81378523D01*
X53646778Y-81378526D01*
X53646780Y-81378528D01*
X53766874Y-81439719D01*
X53766876Y-81439719D01*
X53766878Y-81439720D01*
X53899998Y-81460804D01*
X53900000Y-81460804D01*
X53900002Y-81460804D01*
X54033121Y-81439720D01*
X54033121Y-81439719D01*
X54033126Y-81439719D01*
X54153220Y-81378528D01*
X54248528Y-81283220D01*
X54309719Y-81163126D01*
X54330804Y-81030000D01*
X54309719Y-80896874D01*
X54248528Y-80776780D01*
X54248526Y-80776778D01*
X54248523Y-80776774D01*
X54153225Y-80681476D01*
X54153221Y-80681473D01*
X54153220Y-80681472D01*
X54033126Y-80620281D01*
X54033124Y-80620280D01*
X54033121Y-80620279D01*
X53900002Y-80599196D01*
X53899998Y-80599196D01*
X53766878Y-80620279D01*
X53646778Y-80681473D01*
X53646774Y-80681476D01*
X53551476Y-80776774D01*
X53551473Y-80776778D01*
X53490279Y-80896878D01*
X53469196Y-81029997D01*
X41500500Y-81029997D01*
X41500500Y-79149997D01*
X41919196Y-79149997D01*
X41919196Y-79150002D01*
X41940279Y-79283121D01*
X41940280Y-79283124D01*
X41940281Y-79283126D01*
X41967788Y-79337111D01*
X42001473Y-79403221D01*
X42001476Y-79403225D01*
X42096774Y-79498523D01*
X42096778Y-79498526D01*
X42096780Y-79498528D01*
X42216874Y-79559719D01*
X42216876Y-79559719D01*
X42216878Y-79559720D01*
X42349998Y-79580804D01*
X42350000Y-79580804D01*
X42350002Y-79580804D01*
X42483121Y-79559720D01*
X42483121Y-79559719D01*
X42483126Y-79559719D01*
X42603220Y-79498528D01*
X42698528Y-79403220D01*
X42759719Y-79283126D01*
X42767501Y-79233991D01*
X42780804Y-79150002D01*
X42780804Y-79149997D01*
X42759720Y-79016878D01*
X42759719Y-79016876D01*
X42759719Y-79016874D01*
X42698528Y-78896780D01*
X42698526Y-78896778D01*
X42698523Y-78896774D01*
X42603225Y-78801476D01*
X42603221Y-78801473D01*
X42603220Y-78801472D01*
X42483126Y-78740281D01*
X42483124Y-78740280D01*
X42483121Y-78740279D01*
X42350002Y-78719196D01*
X42349998Y-78719196D01*
X42216878Y-78740279D01*
X42096778Y-78801473D01*
X42096774Y-78801476D01*
X42001476Y-78896774D01*
X42001473Y-78896778D01*
X41940279Y-79016878D01*
X41919196Y-79149997D01*
X41500500Y-79149997D01*
X41500500Y-77399997D01*
X51569196Y-77399997D01*
X51569196Y-77400002D01*
X51590279Y-77533121D01*
X51590280Y-77533124D01*
X51590281Y-77533126D01*
X51651472Y-77653220D01*
X51651473Y-77653221D01*
X51651476Y-77653225D01*
X51746774Y-77748523D01*
X51746778Y-77748526D01*
X51746780Y-77748528D01*
X51866874Y-77809719D01*
X51866876Y-77809719D01*
X51866878Y-77809720D01*
X51999998Y-77830804D01*
X52000000Y-77830804D01*
X52000002Y-77830804D01*
X52133121Y-77809720D01*
X52133121Y-77809719D01*
X52133126Y-77809719D01*
X52253220Y-77748528D01*
X52348528Y-77653220D01*
X52409719Y-77533126D01*
X52416028Y-77493291D01*
X52430804Y-77400002D01*
X52430804Y-77399997D01*
X52409720Y-77266878D01*
X52409719Y-77266876D01*
X52409719Y-77266874D01*
X52348528Y-77146780D01*
X52348526Y-77146778D01*
X52348523Y-77146774D01*
X52253225Y-77051476D01*
X52253221Y-77051473D01*
X52253220Y-77051472D01*
X52133126Y-76990281D01*
X52133124Y-76990280D01*
X52133121Y-76990279D01*
X52000002Y-76969196D01*
X51999998Y-76969196D01*
X51866878Y-76990279D01*
X51746778Y-77051473D01*
X51746774Y-77051476D01*
X51651476Y-77146774D01*
X51651473Y-77146778D01*
X51590279Y-77266878D01*
X51569196Y-77399997D01*
X41500500Y-77399997D01*
X41500500Y-71396530D01*
X42334500Y-71396530D01*
X42334500Y-71603469D01*
X42374868Y-71806412D01*
X42374870Y-71806420D01*
X42446769Y-71980000D01*
X42454059Y-71997598D01*
X42504525Y-72073126D01*
X42569024Y-72169657D01*
X42715342Y-72315975D01*
X42715345Y-72315977D01*
X42887402Y-72430941D01*
X43078580Y-72510130D01*
X43281530Y-72550499D01*
X43281534Y-72550500D01*
X43281535Y-72550500D01*
X43738466Y-72550500D01*
X43738467Y-72550499D01*
X43941420Y-72510130D01*
X44132598Y-72430941D01*
X44304655Y-72315977D01*
X44450977Y-72169655D01*
X44565941Y-71997598D01*
X44645130Y-71806420D01*
X44685500Y-71603465D01*
X44685500Y-71396535D01*
X44645130Y-71193580D01*
X44565941Y-71002402D01*
X44450977Y-70830345D01*
X44450975Y-70830342D01*
X44304657Y-70684024D01*
X44133587Y-70569720D01*
X44132598Y-70569059D01*
X43989380Y-70509736D01*
X43941420Y-70489870D01*
X43941412Y-70489868D01*
X43738469Y-70449500D01*
X43738465Y-70449500D01*
X43281535Y-70449500D01*
X43281530Y-70449500D01*
X43078587Y-70489868D01*
X43078579Y-70489870D01*
X42887403Y-70569058D01*
X42715342Y-70684024D01*
X42569024Y-70830342D01*
X42454058Y-71002403D01*
X42374870Y-71193579D01*
X42374868Y-71193587D01*
X42334500Y-71396530D01*
X41500500Y-71396530D01*
X41500500Y-68750000D01*
X42260261Y-68750000D01*
X43105854Y-68750000D01*
X43067370Y-68816657D01*
X43035000Y-68937465D01*
X43035000Y-69062535D01*
X43067370Y-69183343D01*
X43105854Y-69250000D01*
X42260261Y-69250000D01*
X42263315Y-69269285D01*
X42263318Y-69269295D01*
X42319250Y-69441441D01*
X42319252Y-69441447D01*
X42401434Y-69602734D01*
X42507823Y-69749169D01*
X42635830Y-69877176D01*
X42782265Y-69983565D01*
X42943552Y-70065747D01*
X42943555Y-70065748D01*
X43115705Y-70121682D01*
X43260000Y-70144536D01*
X43260000Y-69404145D01*
X43326657Y-69442630D01*
X43447465Y-69475000D01*
X43572535Y-69475000D01*
X43693343Y-69442630D01*
X43760000Y-69404145D01*
X43760000Y-70144535D01*
X43904292Y-70121682D01*
X43904295Y-70121682D01*
X44076444Y-70065748D01*
X44076447Y-70065747D01*
X44237734Y-69983565D01*
X44384169Y-69877176D01*
X44512176Y-69749169D01*
X44618565Y-69602734D01*
X44700747Y-69441447D01*
X44700749Y-69441441D01*
X44756681Y-69269295D01*
X44756684Y-69269285D01*
X44759739Y-69250000D01*
X43914146Y-69250000D01*
X43952630Y-69183343D01*
X43985000Y-69062535D01*
X43985000Y-68937465D01*
X43952630Y-68816657D01*
X43914146Y-68750000D01*
X44759739Y-68750000D01*
X44756684Y-68730714D01*
X44756681Y-68730704D01*
X44700749Y-68558558D01*
X44700747Y-68558552D01*
X44618565Y-68397265D01*
X44512176Y-68250830D01*
X44384169Y-68122823D01*
X44237734Y-68016434D01*
X44076447Y-67934252D01*
X44076444Y-67934251D01*
X43904293Y-67878317D01*
X43760000Y-67855462D01*
X43760000Y-68595854D01*
X43693343Y-68557370D01*
X43572535Y-68525000D01*
X43447465Y-68525000D01*
X43326657Y-68557370D01*
X43260000Y-68595854D01*
X43260000Y-67855462D01*
X43115706Y-67878317D01*
X42943555Y-67934251D01*
X42943552Y-67934252D01*
X42782265Y-68016434D01*
X42635830Y-68122823D01*
X42507823Y-68250830D01*
X42401434Y-68397265D01*
X42319252Y-68558552D01*
X42319250Y-68558558D01*
X42263318Y-68730704D01*
X42263315Y-68730714D01*
X42260261Y-68750000D01*
X41500500Y-68750000D01*
X41500500Y-66396530D01*
X42334500Y-66396530D01*
X42334500Y-66603469D01*
X42374868Y-66806412D01*
X42374870Y-66806420D01*
X42451646Y-66991774D01*
X42454059Y-66997598D01*
X42471777Y-67024115D01*
X42569024Y-67169657D01*
X42715342Y-67315975D01*
X42715345Y-67315977D01*
X42887402Y-67430941D01*
X43078580Y-67510130D01*
X43238169Y-67541874D01*
X43281530Y-67550499D01*
X43281534Y-67550500D01*
X43281535Y-67550500D01*
X43738466Y-67550500D01*
X43738467Y-67550499D01*
X43941420Y-67510130D01*
X44132598Y-67430941D01*
X44304655Y-67315977D01*
X44450977Y-67169655D01*
X44565941Y-66997598D01*
X44645130Y-66806420D01*
X44685500Y-66603465D01*
X44685500Y-66396535D01*
X44645130Y-66193580D01*
X44565941Y-66002402D01*
X44450977Y-65830345D01*
X44450975Y-65830342D01*
X44304657Y-65684024D01*
X44218626Y-65626541D01*
X44132598Y-65569059D01*
X43941420Y-65489870D01*
X43941412Y-65489868D01*
X43738469Y-65449500D01*
X43738465Y-65449500D01*
X43281535Y-65449500D01*
X43281530Y-65449500D01*
X43078587Y-65489868D01*
X43078579Y-65489870D01*
X42887403Y-65569058D01*
X42715342Y-65684024D01*
X42569024Y-65830342D01*
X42454058Y-66002403D01*
X42374870Y-66193579D01*
X42374868Y-66193587D01*
X42334500Y-66396530D01*
X41500500Y-66396530D01*
X41500500Y-63896530D01*
X42334500Y-63896530D01*
X42334500Y-64103469D01*
X42374868Y-64306412D01*
X42374870Y-64306420D01*
X42454058Y-64497596D01*
X42569024Y-64669657D01*
X42715342Y-64815975D01*
X42715345Y-64815977D01*
X42887402Y-64930941D01*
X43078580Y-65010130D01*
X43227305Y-65039713D01*
X43281530Y-65050499D01*
X43281534Y-65050500D01*
X43281535Y-65050500D01*
X43738466Y-65050500D01*
X43738467Y-65050499D01*
X43941420Y-65010130D01*
X44132598Y-64930941D01*
X44304655Y-64815977D01*
X44450977Y-64669655D01*
X44565941Y-64497598D01*
X44645130Y-64306420D01*
X44685500Y-64103465D01*
X44685500Y-63896535D01*
X44645130Y-63693580D01*
X44565941Y-63502402D01*
X44450977Y-63330345D01*
X44450975Y-63330342D01*
X44304657Y-63184024D01*
X44218626Y-63126541D01*
X44132598Y-63069059D01*
X43941420Y-62989870D01*
X43941412Y-62989868D01*
X43738469Y-62949500D01*
X43738465Y-62949500D01*
X43281535Y-62949500D01*
X43281530Y-62949500D01*
X43078587Y-62989868D01*
X43078579Y-62989870D01*
X42887403Y-63069058D01*
X42715342Y-63184024D01*
X42569024Y-63330342D01*
X42454058Y-63502403D01*
X42374870Y-63693579D01*
X42374868Y-63693587D01*
X42334500Y-63896530D01*
X41500500Y-63896530D01*
X41500500Y-61396530D01*
X42334500Y-61396530D01*
X42334500Y-61603469D01*
X42374868Y-61806412D01*
X42374870Y-61806420D01*
X42454058Y-61997596D01*
X42569024Y-62169657D01*
X42715342Y-62315975D01*
X42715345Y-62315977D01*
X42887402Y-62430941D01*
X43078580Y-62510130D01*
X43279006Y-62549997D01*
X43281530Y-62550499D01*
X43281534Y-62550500D01*
X43281535Y-62550500D01*
X43738466Y-62550500D01*
X43738467Y-62550499D01*
X43941420Y-62510130D01*
X44132598Y-62430941D01*
X44304655Y-62315977D01*
X44450977Y-62169655D01*
X44565941Y-61997598D01*
X44645130Y-61806420D01*
X44685500Y-61603465D01*
X44685500Y-61396535D01*
X44645130Y-61193580D01*
X44565941Y-61002402D01*
X44450977Y-60830345D01*
X44450975Y-60830342D01*
X44304657Y-60684024D01*
X44193450Y-60609719D01*
X44132598Y-60569059D01*
X44090139Y-60551472D01*
X43941420Y-60489870D01*
X43941412Y-60489868D01*
X43738469Y-60449500D01*
X43738465Y-60449500D01*
X43281535Y-60449500D01*
X43281530Y-60449500D01*
X43078587Y-60489868D01*
X43078579Y-60489870D01*
X42887403Y-60569058D01*
X42715342Y-60684024D01*
X42569024Y-60830342D01*
X42454058Y-61002403D01*
X42374870Y-61193579D01*
X42374868Y-61193587D01*
X42334500Y-61396530D01*
X41500500Y-61396530D01*
X41500500Y-58345730D01*
X42334500Y-58345730D01*
X42334500Y-59654269D01*
X42337353Y-59684699D01*
X42337353Y-59684701D01*
X42382206Y-59812880D01*
X42382207Y-59812882D01*
X42462850Y-59922150D01*
X42572118Y-60002793D01*
X42614845Y-60017744D01*
X42700299Y-60047646D01*
X42730730Y-60050500D01*
X42730734Y-60050500D01*
X44289270Y-60050500D01*
X44319699Y-60047646D01*
X44319701Y-60047646D01*
X44395589Y-60021091D01*
X44447882Y-60002793D01*
X44557150Y-59922150D01*
X44637793Y-59812882D01*
X44660219Y-59748790D01*
X44682646Y-59684701D01*
X44682646Y-59684699D01*
X44685500Y-59654269D01*
X44685500Y-58345730D01*
X44682646Y-58315300D01*
X44682646Y-58315298D01*
X44649006Y-58219163D01*
X44637793Y-58187118D01*
X44557150Y-58077850D01*
X44447882Y-57997207D01*
X44447880Y-57997206D01*
X44319700Y-57952353D01*
X44289270Y-57949500D01*
X44289266Y-57949500D01*
X42730734Y-57949500D01*
X42730730Y-57949500D01*
X42700300Y-57952353D01*
X42700298Y-57952353D01*
X42572119Y-57997206D01*
X42572117Y-57997207D01*
X42462850Y-58077850D01*
X42382207Y-58187117D01*
X42382206Y-58187119D01*
X42337353Y-58315298D01*
X42337353Y-58315300D01*
X42334500Y-58345730D01*
X41500500Y-58345730D01*
X41500500Y-46516851D01*
X41520185Y-46449812D01*
X41572989Y-46404057D01*
X41642147Y-46394113D01*
X41705703Y-46423138D01*
X41743477Y-46481916D01*
X41743980Y-46483678D01*
X41772768Y-46587365D01*
X41772770Y-46587371D01*
X41909255Y-46929926D01*
X41909261Y-46929938D01*
X42081973Y-47255708D01*
X42081976Y-47255713D01*
X42081978Y-47255716D01*
X42136582Y-47336251D01*
X42288909Y-47560916D01*
X42500245Y-47809719D01*
X42527627Y-47841956D01*
X42795330Y-48095538D01*
X43088881Y-48318690D01*
X43404838Y-48508795D01*
X43404840Y-48508796D01*
X43404842Y-48508797D01*
X43404846Y-48508799D01*
X43601974Y-48600000D01*
X43739497Y-48663625D01*
X44088934Y-48781364D01*
X44449052Y-48860632D01*
X44815630Y-48900500D01*
X44815636Y-48900500D01*
X45184364Y-48900500D01*
X45184370Y-48900500D01*
X45550948Y-48860632D01*
X45911066Y-48781364D01*
X46260503Y-48663625D01*
X46595162Y-48508795D01*
X46911119Y-48318690D01*
X47204670Y-48095538D01*
X47472373Y-47841956D01*
X47711090Y-47560917D01*
X47918022Y-47255716D01*
X48090743Y-46929930D01*
X48227227Y-46587379D01*
X48325875Y-46232081D01*
X48358062Y-46035749D01*
X48385529Y-45868213D01*
X48385529Y-45868210D01*
X48385531Y-45868199D01*
X48405494Y-45500000D01*
X48385531Y-45131801D01*
X48385358Y-45130748D01*
X48325877Y-44767931D01*
X48325876Y-44767930D01*
X48325875Y-44767919D01*
X48268868Y-44562598D01*
X48227231Y-44412634D01*
X48227229Y-44412628D01*
X48227228Y-44412627D01*
X48227227Y-44412621D01*
X48090743Y-44070070D01*
X47918022Y-43744284D01*
X47895814Y-43711530D01*
X57739500Y-43711530D01*
X57739500Y-44168469D01*
X57779868Y-44371412D01*
X57779870Y-44371420D01*
X57859058Y-44562596D01*
X57974024Y-44734657D01*
X58120342Y-44880975D01*
X58120345Y-44880977D01*
X58292402Y-44995941D01*
X58483580Y-45075130D01*
X58672187Y-45112646D01*
X58686530Y-45115499D01*
X58686534Y-45115500D01*
X58686535Y-45115500D01*
X58893466Y-45115500D01*
X58893467Y-45115499D01*
X59096420Y-45075130D01*
X59287598Y-44995941D01*
X59459655Y-44880977D01*
X59605977Y-44734655D01*
X59720941Y-44562598D01*
X59800130Y-44371420D01*
X59840500Y-44168465D01*
X59840500Y-43711535D01*
X59836216Y-43690000D01*
X60145463Y-43690000D01*
X60885854Y-43690000D01*
X60847370Y-43756657D01*
X60815000Y-43877465D01*
X60815000Y-44002535D01*
X60847370Y-44123343D01*
X60885854Y-44190000D01*
X60145463Y-44190000D01*
X60168317Y-44334293D01*
X60224251Y-44506444D01*
X60224252Y-44506447D01*
X60306434Y-44667734D01*
X60412823Y-44814169D01*
X60540830Y-44942176D01*
X60687265Y-45048565D01*
X60848552Y-45130747D01*
X60848555Y-45130748D01*
X61020699Y-45186680D01*
X61020712Y-45186683D01*
X61040000Y-45189738D01*
X61040000Y-44344145D01*
X61106657Y-44382630D01*
X61227465Y-44415000D01*
X61352535Y-44415000D01*
X61473343Y-44382630D01*
X61540000Y-44344145D01*
X61540000Y-45189737D01*
X61559287Y-45186683D01*
X61559300Y-45186680D01*
X61731444Y-45130748D01*
X61731447Y-45130747D01*
X61892734Y-45048565D01*
X62039169Y-44942176D01*
X62167176Y-44814169D01*
X62273565Y-44667734D01*
X62355747Y-44506447D01*
X62355748Y-44506444D01*
X62411682Y-44334293D01*
X62434537Y-44190000D01*
X61694146Y-44190000D01*
X61732630Y-44123343D01*
X61765000Y-44002535D01*
X61765000Y-43877465D01*
X61732630Y-43756657D01*
X61706576Y-43711530D01*
X62739500Y-43711530D01*
X62739500Y-44168469D01*
X62779868Y-44371412D01*
X62779870Y-44371420D01*
X62859058Y-44562596D01*
X62974024Y-44734657D01*
X63120342Y-44880975D01*
X63120345Y-44880977D01*
X63292402Y-44995941D01*
X63483580Y-45075130D01*
X63672187Y-45112646D01*
X63686530Y-45115499D01*
X63686534Y-45115500D01*
X63686535Y-45115500D01*
X63893466Y-45115500D01*
X63893467Y-45115499D01*
X64096420Y-45075130D01*
X64287598Y-44995941D01*
X64459655Y-44880977D01*
X64605977Y-44734655D01*
X64720941Y-44562598D01*
X64800130Y-44371420D01*
X64840500Y-44168465D01*
X64840500Y-43711535D01*
X64840499Y-43711530D01*
X65239500Y-43711530D01*
X65239500Y-44168469D01*
X65279868Y-44371412D01*
X65279870Y-44371420D01*
X65359058Y-44562596D01*
X65474024Y-44734657D01*
X65620342Y-44880975D01*
X65620345Y-44880977D01*
X65792402Y-44995941D01*
X65983580Y-45075130D01*
X66172187Y-45112646D01*
X66186530Y-45115499D01*
X66186534Y-45115500D01*
X66186535Y-45115500D01*
X66393466Y-45115500D01*
X66393467Y-45115499D01*
X66596420Y-45075130D01*
X66787598Y-44995941D01*
X66959655Y-44880977D01*
X67105977Y-44734655D01*
X67220941Y-44562598D01*
X67300130Y-44371420D01*
X67340500Y-44168465D01*
X67340500Y-43711535D01*
X67340499Y-43711530D01*
X67739500Y-43711530D01*
X67739500Y-44168469D01*
X67779868Y-44371412D01*
X67779870Y-44371420D01*
X67859058Y-44562596D01*
X67974024Y-44734657D01*
X68120342Y-44880975D01*
X68120345Y-44880977D01*
X68292402Y-44995941D01*
X68483580Y-45075130D01*
X68672187Y-45112646D01*
X68686530Y-45115499D01*
X68686534Y-45115500D01*
X68686535Y-45115500D01*
X68893466Y-45115500D01*
X68893467Y-45115499D01*
X69096420Y-45075130D01*
X69287598Y-44995941D01*
X69459655Y-44880977D01*
X69605977Y-44734655D01*
X69720941Y-44562598D01*
X69800130Y-44371420D01*
X69840500Y-44168465D01*
X69840500Y-43711535D01*
X69800130Y-43508580D01*
X69720941Y-43317402D01*
X69616257Y-43160730D01*
X70239500Y-43160730D01*
X70239500Y-44719269D01*
X70242353Y-44749699D01*
X70242353Y-44749701D01*
X70287206Y-44877880D01*
X70287207Y-44877882D01*
X70367850Y-44987150D01*
X70477118Y-45067793D01*
X70519845Y-45082744D01*
X70605299Y-45112646D01*
X70635730Y-45115500D01*
X70635734Y-45115500D01*
X71944270Y-45115500D01*
X71974699Y-45112646D01*
X71974701Y-45112646D01*
X72038790Y-45090219D01*
X72102882Y-45067793D01*
X72212150Y-44987150D01*
X72292793Y-44877882D01*
X72315219Y-44813790D01*
X72337646Y-44749701D01*
X72337646Y-44749699D01*
X72340500Y-44719269D01*
X72340500Y-44649997D01*
X77269196Y-44649997D01*
X77269196Y-44650002D01*
X77290279Y-44783121D01*
X77290280Y-44783124D01*
X77290281Y-44783126D01*
X77307684Y-44817281D01*
X77351473Y-44903221D01*
X77351476Y-44903225D01*
X77446774Y-44998523D01*
X77446778Y-44998526D01*
X77446780Y-44998528D01*
X77566874Y-45059719D01*
X77566876Y-45059719D01*
X77566878Y-45059720D01*
X77699998Y-45080804D01*
X77700000Y-45080804D01*
X77700002Y-45080804D01*
X77833121Y-45059720D01*
X77833121Y-45059719D01*
X77833126Y-45059719D01*
X77953220Y-44998528D01*
X78048528Y-44903220D01*
X78109719Y-44783126D01*
X78115013Y-44749701D01*
X78130804Y-44650002D01*
X78130804Y-44649997D01*
X78109720Y-44516878D01*
X78109719Y-44516876D01*
X78109719Y-44516874D01*
X78048528Y-44396780D01*
X78048526Y-44396778D01*
X78048523Y-44396774D01*
X77953225Y-44301476D01*
X77953221Y-44301473D01*
X77953220Y-44301472D01*
X77833126Y-44240281D01*
X77833124Y-44240280D01*
X77833121Y-44240279D01*
X77700002Y-44219196D01*
X77699998Y-44219196D01*
X77566878Y-44240279D01*
X77446778Y-44301473D01*
X77446774Y-44301476D01*
X77351476Y-44396774D01*
X77351473Y-44396778D01*
X77290279Y-44516878D01*
X77269196Y-44649997D01*
X72340500Y-44649997D01*
X72340500Y-43160730D01*
X72337646Y-43130300D01*
X72337646Y-43130298D01*
X72292793Y-43002119D01*
X72292792Y-43002117D01*
X72212150Y-42892850D01*
X72102882Y-42812207D01*
X72102880Y-42812206D01*
X71974700Y-42767353D01*
X71944270Y-42764500D01*
X71944266Y-42764500D01*
X70635734Y-42764500D01*
X70635730Y-42764500D01*
X70605300Y-42767353D01*
X70605298Y-42767353D01*
X70477119Y-42812206D01*
X70477117Y-42812207D01*
X70367850Y-42892850D01*
X70287207Y-43002117D01*
X70287206Y-43002119D01*
X70242353Y-43130298D01*
X70242353Y-43130300D01*
X70239500Y-43160730D01*
X69616257Y-43160730D01*
X69605977Y-43145345D01*
X69605975Y-43145342D01*
X69459657Y-42999024D01*
X69318132Y-42904461D01*
X69287598Y-42884059D01*
X69096420Y-42804870D01*
X69096412Y-42804868D01*
X68893469Y-42764500D01*
X68893465Y-42764500D01*
X68686535Y-42764500D01*
X68686530Y-42764500D01*
X68483587Y-42804868D01*
X68483579Y-42804870D01*
X68292403Y-42884058D01*
X68120342Y-42999024D01*
X67974024Y-43145342D01*
X67859058Y-43317403D01*
X67779870Y-43508579D01*
X67779868Y-43508587D01*
X67739500Y-43711530D01*
X67340499Y-43711530D01*
X67300130Y-43508580D01*
X67220941Y-43317402D01*
X67105977Y-43145345D01*
X67105975Y-43145342D01*
X66959657Y-42999024D01*
X66818132Y-42904461D01*
X66787598Y-42884059D01*
X66596420Y-42804870D01*
X66596412Y-42804868D01*
X66393469Y-42764500D01*
X66393465Y-42764500D01*
X66186535Y-42764500D01*
X66186530Y-42764500D01*
X65983587Y-42804868D01*
X65983579Y-42804870D01*
X65792403Y-42884058D01*
X65620342Y-42999024D01*
X65474024Y-43145342D01*
X65359058Y-43317403D01*
X65279870Y-43508579D01*
X65279868Y-43508587D01*
X65239500Y-43711530D01*
X64840499Y-43711530D01*
X64800130Y-43508580D01*
X64720941Y-43317402D01*
X64605977Y-43145345D01*
X64605975Y-43145342D01*
X64459657Y-42999024D01*
X64318132Y-42904461D01*
X64287598Y-42884059D01*
X64096420Y-42804870D01*
X64096412Y-42804868D01*
X63893469Y-42764500D01*
X63893465Y-42764500D01*
X63686535Y-42764500D01*
X63686530Y-42764500D01*
X63483587Y-42804868D01*
X63483579Y-42804870D01*
X63292403Y-42884058D01*
X63120342Y-42999024D01*
X62974024Y-43145342D01*
X62859058Y-43317403D01*
X62779870Y-43508579D01*
X62779868Y-43508587D01*
X62739500Y-43711530D01*
X61706576Y-43711530D01*
X61694146Y-43690000D01*
X62434537Y-43690000D01*
X62411682Y-43545706D01*
X62355748Y-43373555D01*
X62355747Y-43373552D01*
X62273565Y-43212265D01*
X62167176Y-43065830D01*
X62039169Y-42937823D01*
X61892734Y-42831434D01*
X61731447Y-42749252D01*
X61731441Y-42749250D01*
X61559295Y-42693318D01*
X61559285Y-42693315D01*
X61540000Y-42690260D01*
X61540000Y-43535854D01*
X61473343Y-43497370D01*
X61352535Y-43465000D01*
X61227465Y-43465000D01*
X61106657Y-43497370D01*
X61040000Y-43535854D01*
X61040000Y-42690260D01*
X61020714Y-42693315D01*
X61020704Y-42693318D01*
X60848558Y-42749250D01*
X60848552Y-42749252D01*
X60687265Y-42831434D01*
X60540830Y-42937823D01*
X60412823Y-43065830D01*
X60306434Y-43212265D01*
X60224252Y-43373552D01*
X60224251Y-43373555D01*
X60168317Y-43545706D01*
X60145463Y-43690000D01*
X59836216Y-43690000D01*
X59800130Y-43508580D01*
X59720941Y-43317402D01*
X59605977Y-43145345D01*
X59605975Y-43145342D01*
X59459657Y-42999024D01*
X59318132Y-42904461D01*
X59287598Y-42884059D01*
X59096420Y-42804870D01*
X59096412Y-42804868D01*
X58893469Y-42764500D01*
X58893465Y-42764500D01*
X58686535Y-42764500D01*
X58686530Y-42764500D01*
X58483587Y-42804868D01*
X58483579Y-42804870D01*
X58292403Y-42884058D01*
X58120342Y-42999024D01*
X57974024Y-43145342D01*
X57859058Y-43317403D01*
X57779870Y-43508579D01*
X57779868Y-43508587D01*
X57739500Y-43711530D01*
X47895814Y-43711530D01*
X47711090Y-43439083D01*
X47472373Y-43158044D01*
X47204670Y-42904462D01*
X46911119Y-42681310D01*
X46595162Y-42491205D01*
X46595161Y-42491204D01*
X46595157Y-42491202D01*
X46595153Y-42491200D01*
X46260513Y-42336379D01*
X46260508Y-42336377D01*
X46260503Y-42336375D01*
X45980435Y-42242009D01*
X45923191Y-42201949D01*
X45896691Y-42137299D01*
X45909351Y-42068586D01*
X45957150Y-42017625D01*
X46020029Y-42000500D01*
X92979971Y-42000500D01*
X93047010Y-42020185D01*
G37*
%TD.AperFunction*%
%TD*%
%TA.AperFunction,Conductor*%
%TO.N,+BATT*%
G36*
X64531684Y-46099767D02*
G01*
X64554562Y-46101938D01*
X64601146Y-46110772D01*
X64629136Y-46116080D01*
X64671753Y-46132758D01*
X64736115Y-46172987D01*
X64754388Y-46186918D01*
X65941530Y-47280114D01*
X65958737Y-47299681D01*
X66008307Y-47369699D01*
X66028752Y-47417323D01*
X66045373Y-47501482D01*
X66047708Y-47527434D01*
X65992675Y-51067858D01*
X65990675Y-51088193D01*
X65978532Y-51154731D01*
X65964740Y-51193051D01*
X65936772Y-51242999D01*
X65911308Y-51274785D01*
X65860925Y-51319910D01*
X65844633Y-51332242D01*
X62997264Y-53139044D01*
X62994008Y-53141041D01*
X62983021Y-53147547D01*
X62976322Y-53151239D01*
X62964914Y-53157075D01*
X62961559Y-53158727D01*
X57360000Y-55810000D01*
X57318090Y-55926724D01*
X57318088Y-55926728D01*
X55012815Y-62347200D01*
X54971634Y-62403644D01*
X54906475Y-62428863D01*
X54838025Y-62414851D01*
X54788016Y-62366056D01*
X54785625Y-62361591D01*
X54783550Y-62357518D01*
X54757573Y-62306535D01*
X54757570Y-62306532D01*
X54757568Y-62306529D01*
X54673470Y-62222431D01*
X54673466Y-62222428D01*
X54673465Y-62222427D01*
X54567482Y-62168426D01*
X54567480Y-62168425D01*
X54567477Y-62168424D01*
X54450003Y-62149819D01*
X54449997Y-62149819D01*
X54332522Y-62168424D01*
X54332521Y-62168424D01*
X54226533Y-62222428D01*
X54226529Y-62222431D01*
X54142431Y-62306529D01*
X54142428Y-62306533D01*
X54088424Y-62412521D01*
X54088424Y-62412522D01*
X54069819Y-62529996D01*
X54069819Y-62530003D01*
X54088424Y-62647477D01*
X54088424Y-62647478D01*
X54088425Y-62647481D01*
X54088426Y-62647482D01*
X54142259Y-62753136D01*
X54142428Y-62753466D01*
X54142431Y-62753470D01*
X54226529Y-62837568D01*
X54226533Y-62837571D01*
X54226535Y-62837573D01*
X54332518Y-62891574D01*
X54332520Y-62891574D01*
X54332522Y-62891575D01*
X54449997Y-62910181D01*
X54450000Y-62910181D01*
X54450003Y-62910181D01*
X54567477Y-62891575D01*
X54567478Y-62891575D01*
X54567479Y-62891574D01*
X54567482Y-62891574D01*
X54673465Y-62837573D01*
X54729402Y-62781635D01*
X54790723Y-62748152D01*
X54860415Y-62753136D01*
X54916349Y-62795007D01*
X54940766Y-62860471D01*
X54941081Y-62868898D01*
X54947344Y-64716524D01*
X54927887Y-64783629D01*
X54875239Y-64829563D01*
X54806114Y-64839741D01*
X54742460Y-64810932D01*
X54735664Y-64804625D01*
X54663470Y-64732431D01*
X54663466Y-64732428D01*
X54663465Y-64732427D01*
X54557482Y-64678426D01*
X54557480Y-64678425D01*
X54557477Y-64678424D01*
X54440003Y-64659819D01*
X54439997Y-64659819D01*
X54322522Y-64678424D01*
X54322521Y-64678424D01*
X54216533Y-64732428D01*
X54216529Y-64732431D01*
X54132431Y-64816529D01*
X54132428Y-64816533D01*
X54078424Y-64922521D01*
X54078424Y-64922522D01*
X54059819Y-65039996D01*
X54059819Y-65040003D01*
X54078424Y-65157477D01*
X54078424Y-65157478D01*
X54078425Y-65157481D01*
X54078426Y-65157482D01*
X54123665Y-65246269D01*
X54132428Y-65263466D01*
X54132431Y-65263470D01*
X54216529Y-65347568D01*
X54216533Y-65347571D01*
X54216535Y-65347573D01*
X54322518Y-65401574D01*
X54322520Y-65401574D01*
X54322522Y-65401575D01*
X54439997Y-65420181D01*
X54440000Y-65420181D01*
X54440003Y-65420181D01*
X54557477Y-65401575D01*
X54557478Y-65401575D01*
X54557479Y-65401574D01*
X54557482Y-65401574D01*
X54663465Y-65347573D01*
X54737848Y-65273189D01*
X54799169Y-65239706D01*
X54868861Y-65244690D01*
X54924795Y-65286561D01*
X54949212Y-65352025D01*
X54949527Y-65360452D01*
X54963713Y-69545482D01*
X54944256Y-69612587D01*
X54891608Y-69658521D01*
X54859112Y-69668375D01*
X54732521Y-69688424D01*
X54626533Y-69742428D01*
X54626529Y-69742431D01*
X54542431Y-69826529D01*
X54542428Y-69826533D01*
X54488424Y-69932521D01*
X54488424Y-69932522D01*
X54469819Y-70049996D01*
X54469819Y-70050003D01*
X54488424Y-70167477D01*
X54488424Y-70167478D01*
X54488425Y-70167481D01*
X54488426Y-70167482D01*
X54540794Y-70270261D01*
X54542428Y-70273466D01*
X54542431Y-70273470D01*
X54626529Y-70357568D01*
X54626533Y-70357571D01*
X54626535Y-70357573D01*
X54732518Y-70411574D01*
X54732520Y-70411574D01*
X54732522Y-70411575D01*
X54859638Y-70431708D01*
X54859135Y-70434879D01*
X54910172Y-70449866D01*
X54955927Y-70502670D01*
X54967131Y-70553758D01*
X54968484Y-70952645D01*
X54979650Y-74246969D01*
X54979650Y-74246970D01*
X54979650Y-74246974D01*
X54980000Y-74350000D01*
X55043573Y-74431072D01*
X55043574Y-74431073D01*
X55043575Y-74431075D01*
X58851004Y-79286508D01*
X58940000Y-79400000D01*
X59084208Y-79401377D01*
X59084213Y-79401379D01*
X59400600Y-79404404D01*
X59455707Y-79417913D01*
X59482518Y-79431574D01*
X59482521Y-79431575D01*
X59599997Y-79450181D01*
X59600000Y-79450181D01*
X59600003Y-79450181D01*
X59717477Y-79431575D01*
X59717477Y-79431574D01*
X59717482Y-79431574D01*
X59736904Y-79421677D01*
X59794379Y-79408169D01*
X61014823Y-79419837D01*
X61081669Y-79440161D01*
X61124119Y-79487534D01*
X61142427Y-79523465D01*
X61142431Y-79523470D01*
X61226529Y-79607568D01*
X61226533Y-79607571D01*
X61226535Y-79607573D01*
X61332518Y-79661574D01*
X61332520Y-79661574D01*
X61332522Y-79661575D01*
X61449997Y-79680181D01*
X61450000Y-79680181D01*
X61450003Y-79680181D01*
X61567477Y-79661575D01*
X61567478Y-79661575D01*
X61567479Y-79661574D01*
X61567482Y-79661574D01*
X61673465Y-79607573D01*
X61757573Y-79523465D01*
X61771647Y-79495842D01*
X61819620Y-79445046D01*
X61883316Y-79428141D01*
X63131624Y-79440077D01*
X74224010Y-79546135D01*
X74246883Y-79548486D01*
X74255468Y-79550185D01*
X74270487Y-79552401D01*
X74294552Y-79554759D01*
X74309716Y-79555500D01*
X74309720Y-79555500D01*
X75202955Y-79555500D01*
X75204059Y-79555505D01*
X76720000Y-79570000D01*
X77158435Y-79568829D01*
X77215057Y-79582344D01*
X77267515Y-79609073D01*
X77267521Y-79609075D01*
X77384997Y-79627681D01*
X77385000Y-79627681D01*
X77385003Y-79627681D01*
X77502478Y-79609075D01*
X77502479Y-79609074D01*
X77502482Y-79609074D01*
X77557330Y-79581127D01*
X77613282Y-79567614D01*
X79766271Y-79561865D01*
X80327937Y-79560365D01*
X82150279Y-79555500D01*
X83145474Y-79555500D01*
X83212513Y-79575185D01*
X83226839Y-79585928D01*
X83232622Y-79590957D01*
X83232624Y-79590958D01*
X83235607Y-79593552D01*
X83235615Y-79593559D01*
X83457809Y-79786771D01*
X83801789Y-80085884D01*
X84159596Y-80397020D01*
X84197268Y-80455864D01*
X84202226Y-80491615D01*
X84170530Y-84331297D01*
X84150293Y-84398171D01*
X84136246Y-84415875D01*
X84091646Y-84462616D01*
X84091644Y-84462619D01*
X84058134Y-84523932D01*
X84042654Y-84565390D01*
X83985441Y-84827938D01*
X83913079Y-85159999D01*
X83838169Y-85503751D01*
X83719810Y-86046887D01*
X83719809Y-86046889D01*
X83712593Y-86079997D01*
X83712594Y-86079998D01*
X83382302Y-87595671D01*
X83348794Y-87656982D01*
X83329384Y-87672804D01*
X81194087Y-89080160D01*
X80997090Y-89209999D01*
X79977235Y-89882174D01*
X79910427Y-89902631D01*
X79906255Y-89902609D01*
X78128257Y-89863301D01*
X74433078Y-89781605D01*
X74433074Y-89781605D01*
X74433069Y-89781605D01*
X74429419Y-89781706D01*
X74417591Y-89782033D01*
X74417568Y-89782035D01*
X74392988Y-89783945D01*
X74392957Y-89783948D01*
X74377613Y-89785915D01*
X74297513Y-89800264D01*
X74297510Y-89800265D01*
X74267737Y-89808727D01*
X74267728Y-89808730D01*
X74222085Y-89826781D01*
X74194565Y-89840979D01*
X74194556Y-89840984D01*
X74137560Y-89878001D01*
X74137530Y-89878021D01*
X74137008Y-89878359D01*
X74137006Y-89878360D01*
X74112802Y-89897749D01*
X74112785Y-89897764D01*
X74077726Y-89932121D01*
X74077703Y-89932147D01*
X74057882Y-89955879D01*
X74057876Y-89955887D01*
X74019292Y-90012760D01*
X74019285Y-90012772D01*
X74004551Y-90039974D01*
X74004550Y-90039975D01*
X73985574Y-90085269D01*
X73976516Y-90114856D01*
X73976511Y-90114876D01*
X73960558Y-90194646D01*
X73960556Y-90194655D01*
X73958278Y-90209989D01*
X73955871Y-90234544D01*
X73955130Y-90250013D01*
X73959112Y-92269584D01*
X73939559Y-92336662D01*
X73886846Y-92382521D01*
X73817707Y-92392600D01*
X73754094Y-92363701D01*
X73747431Y-92357509D01*
X73637785Y-92247863D01*
X73637781Y-92247860D01*
X73473920Y-92138371D01*
X73473907Y-92138364D01*
X73291839Y-92062950D01*
X73291829Y-92062947D01*
X73098543Y-92024500D01*
X73098541Y-92024500D01*
X72901459Y-92024500D01*
X72901457Y-92024500D01*
X72708170Y-92062947D01*
X72708160Y-92062950D01*
X72526092Y-92138364D01*
X72526079Y-92138371D01*
X72362218Y-92247860D01*
X72362214Y-92247863D01*
X72222863Y-92387214D01*
X72222860Y-92387218D01*
X72113371Y-92551079D01*
X72113364Y-92551092D01*
X72037950Y-92733160D01*
X72037947Y-92733170D01*
X71999500Y-92926456D01*
X71999500Y-92926459D01*
X71999500Y-93373541D01*
X71999500Y-93373543D01*
X71999499Y-93373543D01*
X72037947Y-93566829D01*
X72037950Y-93566839D01*
X72113364Y-93748907D01*
X72113371Y-93748920D01*
X72222860Y-93912781D01*
X72222863Y-93912785D01*
X72362214Y-94052136D01*
X72362218Y-94052139D01*
X72526079Y-94161628D01*
X72526092Y-94161635D01*
X72704773Y-94235646D01*
X72708165Y-94237051D01*
X72708169Y-94237051D01*
X72708170Y-94237052D01*
X72901456Y-94275500D01*
X72901459Y-94275500D01*
X73098543Y-94275500D01*
X73228582Y-94249632D01*
X73291835Y-94237051D01*
X73473914Y-94161632D01*
X73637782Y-94052139D01*
X73750897Y-93939023D01*
X73812218Y-93905540D01*
X73881910Y-93910524D01*
X73937844Y-93952395D01*
X73962261Y-94017859D01*
X73962577Y-94026461D01*
X73963884Y-94688719D01*
X73963884Y-94688721D01*
X73964661Y-94703928D01*
X73967086Y-94728088D01*
X73967088Y-94728102D01*
X73969343Y-94743116D01*
X73969353Y-94743170D01*
X73985105Y-94821654D01*
X73985107Y-94821660D01*
X73990494Y-94839317D01*
X73991228Y-94909183D01*
X73954073Y-94968355D01*
X73890825Y-94998046D01*
X73871890Y-94999500D01*
X60034461Y-94999500D01*
X60014439Y-94997873D01*
X59951854Y-94987633D01*
X59913899Y-94974871D01*
X59864131Y-94948547D01*
X59832223Y-94924357D01*
X59793436Y-94883543D01*
X59770901Y-94850446D01*
X59742833Y-94790138D01*
X59735865Y-94771316D01*
X59047972Y-92318475D01*
X60699500Y-92318475D01*
X60699500Y-93881517D01*
X60708608Y-93939025D01*
X60714354Y-93975304D01*
X60771950Y-94088342D01*
X60771952Y-94088344D01*
X60771954Y-94088347D01*
X60861652Y-94178045D01*
X60861654Y-94178046D01*
X60861658Y-94178050D01*
X60959788Y-94228050D01*
X60974698Y-94235647D01*
X61068475Y-94250499D01*
X61068481Y-94250500D01*
X62331518Y-94250499D01*
X62425304Y-94235646D01*
X62538342Y-94178050D01*
X62628050Y-94088342D01*
X62685646Y-93975304D01*
X62685646Y-93975302D01*
X62685647Y-93975301D01*
X62700499Y-93881524D01*
X62700500Y-93881519D01*
X62700499Y-92850000D01*
X63051504Y-92850000D01*
X63766988Y-92850000D01*
X63734075Y-92907007D01*
X63700000Y-93034174D01*
X63700000Y-93165826D01*
X63734075Y-93292993D01*
X63766988Y-93350000D01*
X63051504Y-93350000D01*
X63078317Y-93519293D01*
X63134251Y-93691444D01*
X63134252Y-93691447D01*
X63216434Y-93852734D01*
X63322823Y-93999169D01*
X63450830Y-94127176D01*
X63597265Y-94233565D01*
X63758552Y-94315747D01*
X63758555Y-94315748D01*
X63930699Y-94371680D01*
X63930712Y-94371683D01*
X63950000Y-94374738D01*
X63950000Y-93533012D01*
X64007007Y-93565925D01*
X64134174Y-93600000D01*
X64265826Y-93600000D01*
X64392993Y-93565925D01*
X64450000Y-93533012D01*
X64450000Y-94374737D01*
X64469287Y-94371683D01*
X64469300Y-94371680D01*
X64641444Y-94315748D01*
X64641447Y-94315747D01*
X64802734Y-94233565D01*
X64949169Y-94127176D01*
X65077176Y-93999169D01*
X65183565Y-93852734D01*
X65265747Y-93691447D01*
X65265748Y-93691444D01*
X65321682Y-93519293D01*
X65348496Y-93350000D01*
X64633012Y-93350000D01*
X64665925Y-93292993D01*
X64700000Y-93165826D01*
X64700000Y-93034174D01*
X64665925Y-92907007D01*
X64633012Y-92850000D01*
X65348496Y-92850000D01*
X65321682Y-92680706D01*
X65265748Y-92508555D01*
X65265747Y-92508552D01*
X65207111Y-92393475D01*
X69499500Y-92393475D01*
X69499500Y-93906517D01*
X69510292Y-93974657D01*
X69514354Y-94000304D01*
X69571950Y-94113342D01*
X69571952Y-94113344D01*
X69571954Y-94113347D01*
X69661652Y-94203045D01*
X69661654Y-94203046D01*
X69661658Y-94203050D01*
X69774694Y-94260645D01*
X69774698Y-94260647D01*
X69868475Y-94275499D01*
X69868481Y-94275500D01*
X71131518Y-94275499D01*
X71225304Y-94260646D01*
X71338342Y-94203050D01*
X71428050Y-94113342D01*
X71485646Y-94000304D01*
X71485646Y-94000302D01*
X71485647Y-94000301D01*
X71497911Y-93922867D01*
X71500500Y-93906519D01*
X71500499Y-92393482D01*
X71485646Y-92299696D01*
X71428050Y-92186658D01*
X71428046Y-92186654D01*
X71428045Y-92186652D01*
X71338347Y-92096954D01*
X71338344Y-92096952D01*
X71338342Y-92096950D01*
X71261517Y-92057805D01*
X71225301Y-92039352D01*
X71131524Y-92024500D01*
X69868482Y-92024500D01*
X69787519Y-92037323D01*
X69774696Y-92039354D01*
X69661658Y-92096950D01*
X69661657Y-92096951D01*
X69661652Y-92096954D01*
X69571954Y-92186652D01*
X69571951Y-92186657D01*
X69514352Y-92299698D01*
X69499500Y-92393475D01*
X65207111Y-92393475D01*
X65183565Y-92347265D01*
X65077176Y-92200830D01*
X64949169Y-92072823D01*
X64802734Y-91966434D01*
X64641447Y-91884252D01*
X64641441Y-91884250D01*
X64469295Y-91828318D01*
X64469285Y-91828315D01*
X64450000Y-91825260D01*
X64450000Y-92666988D01*
X64392993Y-92634075D01*
X64265826Y-92600000D01*
X64134174Y-92600000D01*
X64007007Y-92634075D01*
X63950000Y-92666988D01*
X63950000Y-91825260D01*
X63930714Y-91828315D01*
X63930704Y-91828318D01*
X63758558Y-91884250D01*
X63758552Y-91884252D01*
X63597265Y-91966434D01*
X63450830Y-92072823D01*
X63322823Y-92200830D01*
X63216434Y-92347265D01*
X63134252Y-92508552D01*
X63134251Y-92508555D01*
X63078317Y-92680706D01*
X63051504Y-92850000D01*
X62700499Y-92850000D01*
X62700499Y-92318482D01*
X62685646Y-92224696D01*
X62628050Y-92111658D01*
X62628046Y-92111654D01*
X62628045Y-92111652D01*
X62538347Y-92021954D01*
X62538344Y-92021952D01*
X62538342Y-92021950D01*
X62461517Y-91982805D01*
X62425301Y-91964352D01*
X62331524Y-91949500D01*
X61068482Y-91949500D01*
X60987519Y-91962323D01*
X60974696Y-91964354D01*
X60861658Y-92021950D01*
X60861657Y-92021951D01*
X60861652Y-92021954D01*
X60771954Y-92111652D01*
X60771951Y-92111657D01*
X60714352Y-92224698D01*
X60699500Y-92318475D01*
X59047972Y-92318475D01*
X57867844Y-88110460D01*
X57614610Y-87207496D01*
X82114819Y-87207496D01*
X82114819Y-87207503D01*
X82133424Y-87324977D01*
X82133424Y-87324978D01*
X82187428Y-87430966D01*
X82187431Y-87430970D01*
X82271529Y-87515068D01*
X82271533Y-87515071D01*
X82271535Y-87515073D01*
X82377518Y-87569074D01*
X82377520Y-87569074D01*
X82377522Y-87569075D01*
X82494997Y-87587681D01*
X82495000Y-87587681D01*
X82495003Y-87587681D01*
X82612477Y-87569075D01*
X82612478Y-87569075D01*
X82612479Y-87569074D01*
X82612482Y-87569074D01*
X82718465Y-87515073D01*
X82802573Y-87430965D01*
X82856574Y-87324982D01*
X82875181Y-87207500D01*
X82875181Y-87207496D01*
X82856575Y-87090022D01*
X82856575Y-87090021D01*
X82856574Y-87090019D01*
X82856574Y-87090018D01*
X82802573Y-86984035D01*
X82802571Y-86984033D01*
X82802568Y-86984029D01*
X82718470Y-86899931D01*
X82718466Y-86899928D01*
X82718465Y-86899927D01*
X82612482Y-86845926D01*
X82612480Y-86845925D01*
X82612477Y-86845924D01*
X82495003Y-86827319D01*
X82494997Y-86827319D01*
X82377522Y-86845924D01*
X82377521Y-86845924D01*
X82271533Y-86899928D01*
X82271529Y-86899931D01*
X82187431Y-86984029D01*
X82187428Y-86984033D01*
X82133424Y-87090021D01*
X82133424Y-87090022D01*
X82114819Y-87207496D01*
X57614610Y-87207496D01*
X56698247Y-83939996D01*
X77549819Y-83939996D01*
X77549819Y-83940003D01*
X77568424Y-84057477D01*
X77568424Y-84057478D01*
X77622428Y-84163466D01*
X77622431Y-84163470D01*
X77706529Y-84247568D01*
X77706533Y-84247571D01*
X77706535Y-84247573D01*
X77812518Y-84301574D01*
X77812520Y-84301574D01*
X77812522Y-84301575D01*
X77929997Y-84320181D01*
X77930000Y-84320181D01*
X77930003Y-84320181D01*
X78047477Y-84301575D01*
X78047478Y-84301575D01*
X78047479Y-84301574D01*
X78047482Y-84301574D01*
X78153465Y-84247573D01*
X78237573Y-84163465D01*
X78291574Y-84057482D01*
X78302512Y-83988423D01*
X78310181Y-83940003D01*
X78310181Y-83939996D01*
X78291575Y-83822522D01*
X78291575Y-83822521D01*
X78291574Y-83822519D01*
X78291574Y-83822518D01*
X78237573Y-83716535D01*
X78237571Y-83716533D01*
X78237568Y-83716529D01*
X78153470Y-83632431D01*
X78153466Y-83632428D01*
X78153465Y-83632427D01*
X78047482Y-83578426D01*
X78047480Y-83578425D01*
X78047477Y-83578424D01*
X77930003Y-83559819D01*
X77929997Y-83559819D01*
X77812522Y-83578424D01*
X77812521Y-83578424D01*
X77706533Y-83632428D01*
X77706529Y-83632431D01*
X77622431Y-83716529D01*
X77622428Y-83716533D01*
X77568424Y-83822521D01*
X77568424Y-83822522D01*
X77549819Y-83939996D01*
X56698247Y-83939996D01*
X56237612Y-82297496D01*
X75049819Y-82297496D01*
X75049819Y-82297503D01*
X75068424Y-82414977D01*
X75068424Y-82414978D01*
X75068425Y-82414981D01*
X75068426Y-82414982D01*
X75087915Y-82453232D01*
X75122428Y-82520966D01*
X75122431Y-82520970D01*
X75206529Y-82605068D01*
X75206533Y-82605071D01*
X75206535Y-82605073D01*
X75312518Y-82659074D01*
X75312520Y-82659074D01*
X75312522Y-82659075D01*
X75429997Y-82677681D01*
X75430000Y-82677681D01*
X75430003Y-82677681D01*
X75547477Y-82659075D01*
X75547478Y-82659075D01*
X75547479Y-82659074D01*
X75547482Y-82659074D01*
X75653465Y-82605073D01*
X75737573Y-82520965D01*
X75791574Y-82414982D01*
X75810181Y-82297500D01*
X75810181Y-82297496D01*
X75791575Y-82180022D01*
X75791575Y-82180021D01*
X75791574Y-82180019D01*
X75791574Y-82180018D01*
X75737573Y-82074035D01*
X75737571Y-82074033D01*
X75737568Y-82074029D01*
X75653470Y-81989931D01*
X75653466Y-81989928D01*
X75653465Y-81989927D01*
X75547482Y-81935926D01*
X75547480Y-81935925D01*
X75547477Y-81935924D01*
X75430003Y-81917319D01*
X75429997Y-81917319D01*
X75312522Y-81935924D01*
X75312521Y-81935924D01*
X75206533Y-81989928D01*
X75206529Y-81989931D01*
X75122431Y-82074029D01*
X75122428Y-82074033D01*
X75068424Y-82180021D01*
X75068424Y-82180022D01*
X75049819Y-82297496D01*
X56237612Y-82297496D01*
X55826883Y-80832948D01*
X60024953Y-80832948D01*
X60024953Y-80832955D01*
X60043558Y-80950429D01*
X60043558Y-80950430D01*
X60097562Y-81056418D01*
X60149767Y-81108623D01*
X60183253Y-81169946D01*
X60178269Y-81239638D01*
X60172572Y-81252599D01*
X60117193Y-81361286D01*
X60117192Y-81361290D01*
X60098587Y-81478764D01*
X60098587Y-81478771D01*
X60117192Y-81596245D01*
X60117192Y-81596246D01*
X60171196Y-81702234D01*
X60171199Y-81702238D01*
X60255297Y-81786336D01*
X60255301Y-81786339D01*
X60255303Y-81786341D01*
X60361286Y-81840342D01*
X60361288Y-81840342D01*
X60361290Y-81840343D01*
X60478765Y-81858949D01*
X60478768Y-81858949D01*
X60478771Y-81858949D01*
X60596245Y-81840343D01*
X60596246Y-81840343D01*
X60596247Y-81840342D01*
X60596250Y-81840342D01*
X60702233Y-81786341D01*
X60786341Y-81702233D01*
X60840342Y-81596250D01*
X60858949Y-81478768D01*
X60858949Y-81478764D01*
X60840343Y-81361290D01*
X60840343Y-81361289D01*
X60840342Y-81361287D01*
X60840342Y-81361286D01*
X60786341Y-81255303D01*
X60786339Y-81255301D01*
X60786336Y-81255297D01*
X60734133Y-81203094D01*
X60700648Y-81141771D01*
X60705632Y-81072079D01*
X60711330Y-81059118D01*
X60712705Y-81056418D01*
X60712707Y-81056417D01*
X60766708Y-80950434D01*
X60785315Y-80832952D01*
X60785315Y-80832948D01*
X60766709Y-80715474D01*
X60766709Y-80715473D01*
X60766708Y-80715471D01*
X60766708Y-80715470D01*
X60712707Y-80609487D01*
X60712705Y-80609485D01*
X60712702Y-80609481D01*
X60628604Y-80525383D01*
X60628600Y-80525380D01*
X60628599Y-80525379D01*
X60522616Y-80471378D01*
X60522614Y-80471377D01*
X60522611Y-80471376D01*
X60405137Y-80452771D01*
X60405131Y-80452771D01*
X60287656Y-80471376D01*
X60287655Y-80471376D01*
X60181667Y-80525380D01*
X60181663Y-80525383D01*
X60097565Y-80609481D01*
X60097562Y-80609485D01*
X60043558Y-80715473D01*
X60043558Y-80715474D01*
X60024953Y-80832948D01*
X55826883Y-80832948D01*
X55540000Y-79810000D01*
X50967610Y-74431074D01*
X48080715Y-71034952D01*
X48067828Y-71016677D01*
X48030836Y-70952640D01*
X48015844Y-70910677D01*
X48003883Y-70837699D01*
X48002272Y-70815401D01*
X48033562Y-69099996D01*
X52539819Y-69099996D01*
X52539819Y-69100003D01*
X52558424Y-69217477D01*
X52558424Y-69217478D01*
X52558425Y-69217481D01*
X52558426Y-69217482D01*
X52610569Y-69319819D01*
X52612428Y-69323466D01*
X52612431Y-69323470D01*
X52696529Y-69407568D01*
X52696533Y-69407571D01*
X52696535Y-69407573D01*
X52802518Y-69461574D01*
X52802520Y-69461574D01*
X52802522Y-69461575D01*
X52919997Y-69480181D01*
X52920000Y-69480181D01*
X52920003Y-69480181D01*
X53037477Y-69461575D01*
X53037478Y-69461575D01*
X53037479Y-69461574D01*
X53037482Y-69461574D01*
X53143465Y-69407573D01*
X53227573Y-69323465D01*
X53281574Y-69217482D01*
X53282182Y-69213645D01*
X53300181Y-69100003D01*
X53300181Y-69099996D01*
X53281575Y-68982522D01*
X53281575Y-68982521D01*
X53281574Y-68982519D01*
X53281574Y-68982518D01*
X53227573Y-68876535D01*
X53227571Y-68876533D01*
X53227568Y-68876529D01*
X53143470Y-68792431D01*
X53143466Y-68792428D01*
X53143465Y-68792427D01*
X53037482Y-68738426D01*
X53037480Y-68738425D01*
X53037477Y-68738424D01*
X52920003Y-68719819D01*
X52919997Y-68719819D01*
X52802522Y-68738424D01*
X52802521Y-68738424D01*
X52696533Y-68792428D01*
X52696529Y-68792431D01*
X52612431Y-68876529D01*
X52612428Y-68876533D01*
X52558424Y-68982521D01*
X52558424Y-68982522D01*
X52539819Y-69099996D01*
X48033562Y-69099996D01*
X48086686Y-66187519D01*
X48107590Y-66120852D01*
X48161219Y-66076068D01*
X48191263Y-66067310D01*
X48227482Y-66061574D01*
X48333465Y-66007573D01*
X48417573Y-65923465D01*
X48471574Y-65817482D01*
X48490181Y-65700000D01*
X48490181Y-65699996D01*
X49229819Y-65699996D01*
X49229819Y-65700003D01*
X49248424Y-65817477D01*
X49248424Y-65817478D01*
X49302428Y-65923466D01*
X49302431Y-65923470D01*
X49386529Y-66007568D01*
X49386533Y-66007571D01*
X49386535Y-66007573D01*
X49492518Y-66061574D01*
X49492520Y-66061574D01*
X49492522Y-66061575D01*
X49609997Y-66080181D01*
X49610000Y-66080181D01*
X49610003Y-66080181D01*
X49727477Y-66061575D01*
X49727478Y-66061575D01*
X49727479Y-66061574D01*
X49727482Y-66061574D01*
X49833465Y-66007573D01*
X49917573Y-65923465D01*
X49971574Y-65817482D01*
X49990181Y-65700000D01*
X49990181Y-65699996D01*
X50729819Y-65699996D01*
X50729819Y-65700003D01*
X50748424Y-65817477D01*
X50748424Y-65817478D01*
X50802428Y-65923466D01*
X50802431Y-65923470D01*
X50886529Y-66007568D01*
X50886533Y-66007571D01*
X50886535Y-66007573D01*
X50992518Y-66061574D01*
X50992520Y-66061574D01*
X50992522Y-66061575D01*
X51109997Y-66080181D01*
X51110000Y-66080181D01*
X51110003Y-66080181D01*
X51227477Y-66061575D01*
X51227478Y-66061575D01*
X51227479Y-66061574D01*
X51227482Y-66061574D01*
X51333465Y-66007573D01*
X51417573Y-65923465D01*
X51471574Y-65817482D01*
X51490181Y-65700000D01*
X51490181Y-65699996D01*
X51471575Y-65582522D01*
X51471575Y-65582521D01*
X51471574Y-65582519D01*
X51471574Y-65582518D01*
X51417573Y-65476535D01*
X51417571Y-65476533D01*
X51417568Y-65476529D01*
X51333470Y-65392431D01*
X51333466Y-65392428D01*
X51333465Y-65392427D01*
X51227482Y-65338426D01*
X51227480Y-65338425D01*
X51227477Y-65338424D01*
X51126760Y-65322473D01*
X51110312Y-65314676D01*
X51093240Y-65322473D01*
X50992521Y-65338424D01*
X50886533Y-65392428D01*
X50886529Y-65392431D01*
X50802431Y-65476529D01*
X50802428Y-65476533D01*
X50748424Y-65582521D01*
X50748424Y-65582522D01*
X50729819Y-65699996D01*
X49990181Y-65699996D01*
X49971575Y-65582522D01*
X49971575Y-65582521D01*
X49971574Y-65582519D01*
X49971574Y-65582518D01*
X49917573Y-65476535D01*
X49917571Y-65476533D01*
X49917568Y-65476529D01*
X49833470Y-65392431D01*
X49833466Y-65392428D01*
X49833465Y-65392427D01*
X49727482Y-65338426D01*
X49727480Y-65338425D01*
X49727477Y-65338424D01*
X49610003Y-65319819D01*
X49609997Y-65319819D01*
X49492522Y-65338424D01*
X49492521Y-65338424D01*
X49386533Y-65392428D01*
X49386529Y-65392431D01*
X49302431Y-65476529D01*
X49302428Y-65476533D01*
X49248424Y-65582521D01*
X49248424Y-65582522D01*
X49229819Y-65699996D01*
X48490181Y-65699996D01*
X48471575Y-65582522D01*
X48471575Y-65582521D01*
X48471574Y-65582519D01*
X48471574Y-65582518D01*
X48417573Y-65476535D01*
X48417571Y-65476533D01*
X48417568Y-65476529D01*
X48333470Y-65392431D01*
X48333466Y-65392428D01*
X48333465Y-65392427D01*
X48227482Y-65338426D01*
X48227481Y-65338425D01*
X48227478Y-65338424D01*
X48209082Y-65335511D01*
X48145947Y-65305581D01*
X48109017Y-65246269D01*
X48104502Y-65210783D01*
X48104979Y-65184620D01*
X48125882Y-65117954D01*
X48179512Y-65073170D01*
X48209559Y-65064412D01*
X48227482Y-65061574D01*
X48333465Y-65007573D01*
X48417573Y-64923465D01*
X48471574Y-64817482D01*
X48471724Y-64816535D01*
X48490181Y-64700003D01*
X48490181Y-64699996D01*
X50729819Y-64699996D01*
X50729819Y-64700003D01*
X50748424Y-64817477D01*
X50748424Y-64817478D01*
X50748425Y-64817481D01*
X50748426Y-64817482D01*
X50801944Y-64922518D01*
X50802428Y-64923466D01*
X50802431Y-64923470D01*
X50886529Y-65007568D01*
X50886533Y-65007571D01*
X50886535Y-65007573D01*
X50992518Y-65061574D01*
X50992519Y-65061574D01*
X50992521Y-65061575D01*
X51093240Y-65077527D01*
X51109686Y-65085323D01*
X51126760Y-65077527D01*
X51227477Y-65061575D01*
X51227478Y-65061575D01*
X51227479Y-65061574D01*
X51227482Y-65061574D01*
X51333465Y-65007573D01*
X51417573Y-64923465D01*
X51471574Y-64817482D01*
X51471724Y-64816535D01*
X51490181Y-64700003D01*
X51490181Y-64699996D01*
X51471575Y-64582522D01*
X51471575Y-64582521D01*
X51471574Y-64582519D01*
X51471574Y-64582518D01*
X51417573Y-64476535D01*
X51417571Y-64476533D01*
X51417568Y-64476529D01*
X51333470Y-64392431D01*
X51333466Y-64392428D01*
X51333465Y-64392427D01*
X51227482Y-64338426D01*
X51227480Y-64338425D01*
X51227477Y-64338424D01*
X51126760Y-64322473D01*
X51110312Y-64314676D01*
X51093240Y-64322473D01*
X50992521Y-64338424D01*
X50886533Y-64392428D01*
X50886529Y-64392431D01*
X50802431Y-64476529D01*
X50802428Y-64476533D01*
X50748424Y-64582521D01*
X50748424Y-64582522D01*
X50729819Y-64699996D01*
X48490181Y-64699996D01*
X48471575Y-64582522D01*
X48471575Y-64582521D01*
X48471574Y-64582519D01*
X48471574Y-64582518D01*
X48417573Y-64476535D01*
X48417571Y-64476533D01*
X48417568Y-64476529D01*
X48333470Y-64392431D01*
X48333466Y-64392428D01*
X48333465Y-64392427D01*
X48227482Y-64338426D01*
X48227271Y-64338392D01*
X48227033Y-64338279D01*
X48218196Y-64335408D01*
X48218566Y-64334266D01*
X48164137Y-64308464D01*
X48127205Y-64249152D01*
X48122690Y-64213663D01*
X48123273Y-64181724D01*
X48144175Y-64115059D01*
X48197804Y-64070274D01*
X48225983Y-64062060D01*
X48227478Y-64061575D01*
X48227479Y-64061574D01*
X48227482Y-64061574D01*
X48333465Y-64007573D01*
X48417573Y-63923465D01*
X48471574Y-63817482D01*
X48475927Y-63790000D01*
X48490181Y-63700003D01*
X48490181Y-63699996D01*
X49229819Y-63699996D01*
X49229819Y-63700003D01*
X49248424Y-63817477D01*
X49248424Y-63817478D01*
X49248425Y-63817481D01*
X49248426Y-63817482D01*
X49294283Y-63907482D01*
X49302428Y-63923466D01*
X49302431Y-63923470D01*
X49386529Y-64007568D01*
X49386533Y-64007571D01*
X49386535Y-64007573D01*
X49492518Y-64061574D01*
X49492520Y-64061574D01*
X49492522Y-64061575D01*
X49609997Y-64080181D01*
X49610000Y-64080181D01*
X49610003Y-64080181D01*
X49727477Y-64061575D01*
X49727478Y-64061575D01*
X49727479Y-64061574D01*
X49727482Y-64061574D01*
X49833465Y-64007573D01*
X49917573Y-63923465D01*
X49971574Y-63817482D01*
X49975927Y-63790000D01*
X49990181Y-63700003D01*
X49990181Y-63699996D01*
X50729819Y-63699996D01*
X50729819Y-63700003D01*
X50748424Y-63817477D01*
X50748424Y-63817478D01*
X50748425Y-63817481D01*
X50748426Y-63817482D01*
X50794283Y-63907482D01*
X50802428Y-63923466D01*
X50802431Y-63923470D01*
X50886529Y-64007568D01*
X50886533Y-64007571D01*
X50886535Y-64007573D01*
X50992518Y-64061574D01*
X50992519Y-64061574D01*
X50992521Y-64061575D01*
X51093240Y-64077527D01*
X51109686Y-64085323D01*
X51126760Y-64077527D01*
X51227477Y-64061575D01*
X51227478Y-64061575D01*
X51227479Y-64061574D01*
X51227482Y-64061574D01*
X51333465Y-64007573D01*
X51417573Y-63923465D01*
X51471574Y-63817482D01*
X51475927Y-63790000D01*
X51490181Y-63700003D01*
X51490181Y-63699996D01*
X51471575Y-63582522D01*
X51471575Y-63582521D01*
X51471574Y-63582519D01*
X51471574Y-63582518D01*
X51417573Y-63476535D01*
X51417571Y-63476533D01*
X51417568Y-63476529D01*
X51333470Y-63392431D01*
X51333466Y-63392428D01*
X51333465Y-63392427D01*
X51227482Y-63338426D01*
X51227480Y-63338425D01*
X51227477Y-63338424D01*
X51110003Y-63319819D01*
X51109997Y-63319819D01*
X50992522Y-63338424D01*
X50992521Y-63338424D01*
X50886533Y-63392428D01*
X50886529Y-63392431D01*
X50802431Y-63476529D01*
X50802428Y-63476533D01*
X50748424Y-63582521D01*
X50748424Y-63582522D01*
X50729819Y-63699996D01*
X49990181Y-63699996D01*
X49971575Y-63582522D01*
X49971575Y-63582521D01*
X49971574Y-63582519D01*
X49971574Y-63582518D01*
X49917573Y-63476535D01*
X49917571Y-63476533D01*
X49917568Y-63476529D01*
X49833470Y-63392431D01*
X49833466Y-63392428D01*
X49833465Y-63392427D01*
X49727482Y-63338426D01*
X49727480Y-63338425D01*
X49727477Y-63338424D01*
X49610003Y-63319819D01*
X49609997Y-63319819D01*
X49492522Y-63338424D01*
X49492521Y-63338424D01*
X49386533Y-63392428D01*
X49386529Y-63392431D01*
X49302431Y-63476529D01*
X49302428Y-63476533D01*
X49248424Y-63582521D01*
X49248424Y-63582522D01*
X49229819Y-63699996D01*
X48490181Y-63699996D01*
X48471575Y-63582522D01*
X48471575Y-63582521D01*
X48471574Y-63582519D01*
X48471574Y-63582518D01*
X48417573Y-63476535D01*
X48417571Y-63476533D01*
X48417568Y-63476529D01*
X48333470Y-63392431D01*
X48333467Y-63392429D01*
X48333465Y-63392427D01*
X48227482Y-63338426D01*
X48227480Y-63338425D01*
X48227477Y-63338424D01*
X48226508Y-63338109D01*
X48225481Y-63337407D01*
X48218787Y-63333996D01*
X48219227Y-63333130D01*
X48168834Y-63298669D01*
X48141640Y-63234309D01*
X48140853Y-63217919D01*
X48146806Y-62891575D01*
X48273847Y-55926725D01*
X48337529Y-52435397D01*
X48340315Y-52411432D01*
X48357167Y-52333596D01*
X48376239Y-52289499D01*
X48379341Y-52284996D01*
X55694819Y-52284996D01*
X55694819Y-52285003D01*
X55713424Y-52402477D01*
X55713424Y-52402478D01*
X55767428Y-52508466D01*
X55767431Y-52508470D01*
X55851529Y-52592568D01*
X55851533Y-52592571D01*
X55851535Y-52592573D01*
X55957518Y-52646574D01*
X55957520Y-52646574D01*
X55957522Y-52646575D01*
X56074997Y-52665181D01*
X56075000Y-52665181D01*
X56075003Y-52665181D01*
X56192477Y-52646575D01*
X56192478Y-52646575D01*
X56192479Y-52646574D01*
X56192482Y-52646574D01*
X56298465Y-52592573D01*
X56382573Y-52508465D01*
X56436574Y-52402482D01*
X56436575Y-52402477D01*
X56455181Y-52285003D01*
X56455181Y-52284996D01*
X56436575Y-52167522D01*
X56436575Y-52167521D01*
X56436574Y-52167519D01*
X56436574Y-52167518D01*
X56382573Y-52061535D01*
X56382571Y-52061533D01*
X56382568Y-52061529D01*
X56298470Y-51977431D01*
X56298466Y-51977428D01*
X56298465Y-51977427D01*
X56192482Y-51923426D01*
X56192480Y-51923425D01*
X56192477Y-51923424D01*
X56075003Y-51904819D01*
X56074997Y-51904819D01*
X55957522Y-51923424D01*
X55957521Y-51923424D01*
X55851533Y-51977428D01*
X55851529Y-51977431D01*
X55767431Y-52061529D01*
X55767428Y-52061533D01*
X55713424Y-52167521D01*
X55713424Y-52167522D01*
X55694819Y-52284996D01*
X48379341Y-52284996D01*
X48421411Y-52223917D01*
X48436971Y-52205467D01*
X49252972Y-51409996D01*
X60069819Y-51409996D01*
X60069819Y-51410003D01*
X60088424Y-51527477D01*
X60088424Y-51527478D01*
X60142428Y-51633466D01*
X60142431Y-51633470D01*
X60226529Y-51717568D01*
X60226533Y-51717571D01*
X60226535Y-51717573D01*
X60332518Y-51771574D01*
X60332520Y-51771574D01*
X60332522Y-51771575D01*
X60449997Y-51790181D01*
X60450000Y-51790181D01*
X60450003Y-51790181D01*
X60567477Y-51771575D01*
X60567478Y-51771575D01*
X60567479Y-51771574D01*
X60567482Y-51771574D01*
X60673465Y-51717573D01*
X60757573Y-51633465D01*
X60811574Y-51527482D01*
X60827527Y-51426760D01*
X60835323Y-51410312D01*
X60835037Y-51409686D01*
X61064676Y-51409686D01*
X61072473Y-51426760D01*
X61088424Y-51527477D01*
X61088424Y-51527478D01*
X61142428Y-51633466D01*
X61142431Y-51633470D01*
X61226529Y-51717568D01*
X61226533Y-51717571D01*
X61226535Y-51717573D01*
X61332518Y-51771574D01*
X61332520Y-51771574D01*
X61332522Y-51771575D01*
X61449997Y-51790181D01*
X61450000Y-51790181D01*
X61450003Y-51790181D01*
X61567477Y-51771575D01*
X61567478Y-51771575D01*
X61567479Y-51771574D01*
X61567482Y-51771574D01*
X61673465Y-51717573D01*
X61757573Y-51633465D01*
X61811574Y-51527482D01*
X61827527Y-51426760D01*
X61835323Y-51410312D01*
X61835037Y-51409686D01*
X62064676Y-51409686D01*
X62072473Y-51426760D01*
X62088424Y-51527477D01*
X62088424Y-51527478D01*
X62142428Y-51633466D01*
X62142431Y-51633470D01*
X62226529Y-51717568D01*
X62226533Y-51717571D01*
X62226535Y-51717573D01*
X62332518Y-51771574D01*
X62332520Y-51771574D01*
X62332522Y-51771575D01*
X62449997Y-51790181D01*
X62450000Y-51790181D01*
X62450003Y-51790181D01*
X62567477Y-51771575D01*
X62567478Y-51771575D01*
X62567479Y-51771574D01*
X62567482Y-51771574D01*
X62673465Y-51717573D01*
X62757573Y-51633465D01*
X62811574Y-51527482D01*
X62830181Y-51410000D01*
X62830181Y-51409996D01*
X62811575Y-51292522D01*
X62811575Y-51292521D01*
X62811574Y-51292519D01*
X62811574Y-51292518D01*
X62757573Y-51186535D01*
X62757571Y-51186533D01*
X62757568Y-51186529D01*
X62673470Y-51102431D01*
X62673466Y-51102428D01*
X62673465Y-51102427D01*
X62567482Y-51048426D01*
X62567480Y-51048425D01*
X62567477Y-51048424D01*
X62450003Y-51029819D01*
X62449997Y-51029819D01*
X62332522Y-51048424D01*
X62332521Y-51048424D01*
X62226533Y-51102428D01*
X62226529Y-51102431D01*
X62142431Y-51186529D01*
X62142428Y-51186533D01*
X62088424Y-51292521D01*
X62072473Y-51393240D01*
X62064676Y-51409686D01*
X61835037Y-51409686D01*
X61827527Y-51393240D01*
X61811575Y-51292521D01*
X61811574Y-51292519D01*
X61811574Y-51292518D01*
X61757573Y-51186535D01*
X61757571Y-51186533D01*
X61757568Y-51186529D01*
X61673470Y-51102431D01*
X61673466Y-51102428D01*
X61673465Y-51102427D01*
X61567482Y-51048426D01*
X61567480Y-51048425D01*
X61567477Y-51048424D01*
X61450003Y-51029819D01*
X61449997Y-51029819D01*
X61332522Y-51048424D01*
X61332521Y-51048424D01*
X61226533Y-51102428D01*
X61226529Y-51102431D01*
X61142431Y-51186529D01*
X61142428Y-51186533D01*
X61088424Y-51292521D01*
X61072473Y-51393240D01*
X61064676Y-51409686D01*
X60835037Y-51409686D01*
X60827527Y-51393240D01*
X60811575Y-51292521D01*
X60811574Y-51292519D01*
X60811574Y-51292518D01*
X60757573Y-51186535D01*
X60757571Y-51186533D01*
X60757568Y-51186529D01*
X60673470Y-51102431D01*
X60673466Y-51102428D01*
X60673465Y-51102427D01*
X60567482Y-51048426D01*
X60567480Y-51048425D01*
X60567477Y-51048424D01*
X60450003Y-51029819D01*
X60449997Y-51029819D01*
X60332522Y-51048424D01*
X60332521Y-51048424D01*
X60226533Y-51102428D01*
X60226529Y-51102431D01*
X60142431Y-51186529D01*
X60142428Y-51186533D01*
X60088424Y-51292521D01*
X60088424Y-51292522D01*
X60069819Y-51409996D01*
X49252972Y-51409996D01*
X49338366Y-51326750D01*
X50689100Y-50009996D01*
X60069819Y-50009996D01*
X60069819Y-50010003D01*
X60088424Y-50127477D01*
X60088424Y-50127478D01*
X60142428Y-50233466D01*
X60142431Y-50233470D01*
X60226529Y-50317568D01*
X60226533Y-50317571D01*
X60226535Y-50317573D01*
X60332518Y-50371574D01*
X60332520Y-50371574D01*
X60332522Y-50371575D01*
X60449997Y-50390181D01*
X60450000Y-50390181D01*
X60450003Y-50390181D01*
X60567477Y-50371575D01*
X60567478Y-50371575D01*
X60567479Y-50371574D01*
X60567482Y-50371574D01*
X60673465Y-50317573D01*
X60757573Y-50233465D01*
X60811574Y-50127482D01*
X60830181Y-50010000D01*
X60830181Y-50009996D01*
X62069819Y-50009996D01*
X62069819Y-50010003D01*
X62088424Y-50127477D01*
X62088424Y-50127478D01*
X62142428Y-50233466D01*
X62142431Y-50233470D01*
X62226529Y-50317568D01*
X62226533Y-50317571D01*
X62226535Y-50317573D01*
X62332518Y-50371574D01*
X62332520Y-50371574D01*
X62332522Y-50371575D01*
X62449997Y-50390181D01*
X62450000Y-50390181D01*
X62450003Y-50390181D01*
X62567477Y-50371575D01*
X62567478Y-50371575D01*
X62567479Y-50371574D01*
X62567482Y-50371574D01*
X62673465Y-50317573D01*
X62757573Y-50233465D01*
X62811574Y-50127482D01*
X62830181Y-50010000D01*
X62830181Y-50009996D01*
X62811575Y-49892522D01*
X62811575Y-49892521D01*
X62811574Y-49892519D01*
X62811574Y-49892518D01*
X62757573Y-49786535D01*
X62757571Y-49786533D01*
X62757568Y-49786529D01*
X62673470Y-49702431D01*
X62673466Y-49702428D01*
X62673465Y-49702427D01*
X62567482Y-49648426D01*
X62567480Y-49648425D01*
X62567477Y-49648424D01*
X62450003Y-49629819D01*
X62449997Y-49629819D01*
X62332522Y-49648424D01*
X62332521Y-49648424D01*
X62226533Y-49702428D01*
X62226529Y-49702431D01*
X62142431Y-49786529D01*
X62142428Y-49786533D01*
X62088424Y-49892521D01*
X62088424Y-49892522D01*
X62069819Y-50009996D01*
X60830181Y-50009996D01*
X60811575Y-49892522D01*
X60811575Y-49892521D01*
X60811574Y-49892519D01*
X60811574Y-49892518D01*
X60757573Y-49786535D01*
X60757571Y-49786533D01*
X60757568Y-49786529D01*
X60673470Y-49702431D01*
X60673466Y-49702428D01*
X60673465Y-49702427D01*
X60567482Y-49648426D01*
X60567480Y-49648425D01*
X60567477Y-49648424D01*
X60450003Y-49629819D01*
X60449997Y-49629819D01*
X60332522Y-49648424D01*
X60332521Y-49648424D01*
X60226533Y-49702428D01*
X60226529Y-49702431D01*
X60142431Y-49786529D01*
X60142428Y-49786533D01*
X60088424Y-49892521D01*
X60088424Y-49892522D01*
X60069819Y-50009996D01*
X50689100Y-50009996D01*
X52125229Y-48609996D01*
X60069819Y-48609996D01*
X60069819Y-48610003D01*
X60088424Y-48727477D01*
X60088424Y-48727478D01*
X60142428Y-48833466D01*
X60142431Y-48833470D01*
X60226529Y-48917568D01*
X60226533Y-48917571D01*
X60226535Y-48917573D01*
X60332518Y-48971574D01*
X60332520Y-48971574D01*
X60332522Y-48971575D01*
X60449997Y-48990181D01*
X60450000Y-48990181D01*
X60450003Y-48990181D01*
X60567477Y-48971575D01*
X60567478Y-48971575D01*
X60567479Y-48971574D01*
X60567482Y-48971574D01*
X60673465Y-48917573D01*
X60757573Y-48833465D01*
X60811574Y-48727482D01*
X60827527Y-48626760D01*
X60835323Y-48610312D01*
X60835037Y-48609686D01*
X61064676Y-48609686D01*
X61072473Y-48626760D01*
X61088424Y-48727477D01*
X61088424Y-48727478D01*
X61142428Y-48833466D01*
X61142431Y-48833470D01*
X61226529Y-48917568D01*
X61226533Y-48917571D01*
X61226535Y-48917573D01*
X61332518Y-48971574D01*
X61332520Y-48971574D01*
X61332522Y-48971575D01*
X61449997Y-48990181D01*
X61450000Y-48990181D01*
X61450003Y-48990181D01*
X61567477Y-48971575D01*
X61567478Y-48971575D01*
X61567479Y-48971574D01*
X61567482Y-48971574D01*
X61673465Y-48917573D01*
X61757573Y-48833465D01*
X61811574Y-48727482D01*
X61827527Y-48626760D01*
X61835323Y-48610312D01*
X61835037Y-48609686D01*
X62064676Y-48609686D01*
X62072473Y-48626760D01*
X62088424Y-48727477D01*
X62088424Y-48727478D01*
X62142428Y-48833466D01*
X62142431Y-48833470D01*
X62226529Y-48917568D01*
X62226533Y-48917571D01*
X62226535Y-48917573D01*
X62332518Y-48971574D01*
X62332520Y-48971574D01*
X62332522Y-48971575D01*
X62449997Y-48990181D01*
X62450000Y-48990181D01*
X62450003Y-48990181D01*
X62567477Y-48971575D01*
X62567478Y-48971575D01*
X62567479Y-48971574D01*
X62567482Y-48971574D01*
X62673465Y-48917573D01*
X62757573Y-48833465D01*
X62811574Y-48727482D01*
X62827527Y-48626760D01*
X62830181Y-48610003D01*
X62830181Y-48609996D01*
X62811575Y-48492522D01*
X62811575Y-48492521D01*
X62811574Y-48492519D01*
X62811574Y-48492518D01*
X62757573Y-48386535D01*
X62757571Y-48386533D01*
X62757568Y-48386529D01*
X62673470Y-48302431D01*
X62673466Y-48302428D01*
X62673465Y-48302427D01*
X62567482Y-48248426D01*
X62567480Y-48248425D01*
X62567477Y-48248424D01*
X62450003Y-48229819D01*
X62449997Y-48229819D01*
X62332522Y-48248424D01*
X62332521Y-48248424D01*
X62226533Y-48302428D01*
X62226529Y-48302431D01*
X62142431Y-48386529D01*
X62142428Y-48386533D01*
X62088424Y-48492521D01*
X62072473Y-48593240D01*
X62064676Y-48609686D01*
X61835037Y-48609686D01*
X61827527Y-48593240D01*
X61811575Y-48492521D01*
X61811574Y-48492519D01*
X61811574Y-48492518D01*
X61757573Y-48386535D01*
X61757571Y-48386533D01*
X61757568Y-48386529D01*
X61673470Y-48302431D01*
X61673466Y-48302428D01*
X61673465Y-48302427D01*
X61567482Y-48248426D01*
X61567480Y-48248425D01*
X61567477Y-48248424D01*
X61450003Y-48229819D01*
X61449997Y-48229819D01*
X61332522Y-48248424D01*
X61332521Y-48248424D01*
X61226533Y-48302428D01*
X61226529Y-48302431D01*
X61142431Y-48386529D01*
X61142428Y-48386533D01*
X61088424Y-48492521D01*
X61072473Y-48593240D01*
X61064676Y-48609686D01*
X60835037Y-48609686D01*
X60827527Y-48593240D01*
X60811575Y-48492521D01*
X60811574Y-48492519D01*
X60811574Y-48492518D01*
X60757573Y-48386535D01*
X60757571Y-48386533D01*
X60757568Y-48386529D01*
X60673470Y-48302431D01*
X60673466Y-48302428D01*
X60673465Y-48302427D01*
X60567482Y-48248426D01*
X60567480Y-48248425D01*
X60567477Y-48248424D01*
X60450003Y-48229819D01*
X60449997Y-48229819D01*
X60332522Y-48248424D01*
X60332521Y-48248424D01*
X60226533Y-48302428D01*
X60226529Y-48302431D01*
X60142431Y-48386529D01*
X60142428Y-48386533D01*
X60088424Y-48492521D01*
X60088424Y-48492522D01*
X60069819Y-48609996D01*
X52125229Y-48609996D01*
X52638132Y-48109996D01*
X64869819Y-48109996D01*
X64869819Y-48110003D01*
X64888424Y-48227477D01*
X64888424Y-48227478D01*
X64888425Y-48227481D01*
X64888426Y-48227482D01*
X64926614Y-48302431D01*
X64942428Y-48333466D01*
X64942431Y-48333470D01*
X65026529Y-48417568D01*
X65026533Y-48417571D01*
X65026535Y-48417573D01*
X65132518Y-48471574D01*
X65132520Y-48471574D01*
X65132522Y-48471575D01*
X65249997Y-48490181D01*
X65250000Y-48490181D01*
X65250003Y-48490181D01*
X65367477Y-48471575D01*
X65367478Y-48471575D01*
X65367479Y-48471574D01*
X65367482Y-48471574D01*
X65473465Y-48417573D01*
X65557573Y-48333465D01*
X65611574Y-48227482D01*
X65630181Y-48110000D01*
X65630181Y-48109996D01*
X65611575Y-47992522D01*
X65611575Y-47992521D01*
X65611574Y-47992519D01*
X65611574Y-47992518D01*
X65557573Y-47886535D01*
X65557571Y-47886533D01*
X65557568Y-47886529D01*
X65473470Y-47802431D01*
X65473466Y-47802428D01*
X65473465Y-47802427D01*
X65367482Y-47748426D01*
X65367480Y-47748425D01*
X65367477Y-47748424D01*
X65250003Y-47729819D01*
X65249997Y-47729819D01*
X65132522Y-47748424D01*
X65132521Y-47748424D01*
X65026533Y-47802428D01*
X65026529Y-47802431D01*
X64942431Y-47886529D01*
X64942428Y-47886533D01*
X64888424Y-47992521D01*
X64888424Y-47992522D01*
X64869819Y-48109996D01*
X52638132Y-48109996D01*
X53048455Y-47709996D01*
X55669819Y-47709996D01*
X55669819Y-47710003D01*
X55688424Y-47827477D01*
X55688424Y-47827478D01*
X55742428Y-47933466D01*
X55742431Y-47933470D01*
X55826529Y-48017568D01*
X55826533Y-48017571D01*
X55826535Y-48017573D01*
X55932518Y-48071574D01*
X55932520Y-48071574D01*
X55932522Y-48071575D01*
X56049997Y-48090181D01*
X56050000Y-48090181D01*
X56050003Y-48090181D01*
X56167477Y-48071575D01*
X56167478Y-48071575D01*
X56167479Y-48071574D01*
X56167482Y-48071574D01*
X56273465Y-48017573D01*
X56357573Y-47933465D01*
X56411574Y-47827482D01*
X56411575Y-47827477D01*
X56430181Y-47710003D01*
X56430181Y-47709996D01*
X56411575Y-47592522D01*
X56411575Y-47592521D01*
X56411574Y-47592519D01*
X56411574Y-47592518D01*
X56357573Y-47486535D01*
X56357571Y-47486533D01*
X56357568Y-47486529D01*
X56273470Y-47402431D01*
X56273466Y-47402428D01*
X56273465Y-47402427D01*
X56167482Y-47348426D01*
X56167480Y-47348425D01*
X56167477Y-47348424D01*
X56050003Y-47329819D01*
X56049997Y-47329819D01*
X55932522Y-47348424D01*
X55932521Y-47348424D01*
X55826533Y-47402428D01*
X55826529Y-47402431D01*
X55742431Y-47486529D01*
X55742428Y-47486533D01*
X55688424Y-47592521D01*
X55688424Y-47592522D01*
X55669819Y-47709996D01*
X53048455Y-47709996D01*
X54605221Y-46192393D01*
X54623637Y-46177586D01*
X54688846Y-46134705D01*
X54732363Y-46116780D01*
X54808851Y-46101292D01*
X54832362Y-46098832D01*
X55150866Y-46096021D01*
X56272670Y-46086122D01*
X56398086Y-46085016D01*
X56398335Y-46085086D01*
X56398335Y-46085015D01*
X56399654Y-46085006D01*
X56400264Y-46085003D01*
X56401596Y-46085003D01*
X64531684Y-46099767D01*
G37*
%TD.AperFunction*%
%TD*%
%TA.AperFunction,Conductor*%
%TO.N,+5V*%
G36*
X97316585Y-67072932D02*
G01*
X97394513Y-67088102D01*
X97438874Y-67106161D01*
X97443556Y-67109235D01*
X97488792Y-67162483D01*
X97499500Y-67212890D01*
X97499500Y-86594078D01*
X97479815Y-86661117D01*
X97478636Y-86662918D01*
X97445952Y-86711885D01*
X97411791Y-86746091D01*
X97355555Y-86783733D01*
X97310909Y-86802277D01*
X97232353Y-86817995D01*
X97208186Y-86820404D01*
X95008686Y-86823265D01*
X93733271Y-86824924D01*
X93733268Y-86824924D01*
X93675000Y-86825000D01*
X93620998Y-86846881D01*
X93620997Y-86846882D01*
X90961250Y-87924658D01*
X90961249Y-87924658D01*
X90800000Y-87990000D01*
X90776635Y-88162406D01*
X90776635Y-88162408D01*
X89886694Y-94729230D01*
X89881746Y-94750902D01*
X89859040Y-94820771D01*
X89838056Y-94859762D01*
X89799319Y-94908334D01*
X89765970Y-94937469D01*
X89712636Y-94969332D01*
X89671182Y-94984889D01*
X89625519Y-94993175D01*
X89601650Y-94997507D01*
X89579512Y-94999500D01*
X74429089Y-94999500D01*
X74404928Y-94997123D01*
X74328903Y-94982020D01*
X74284249Y-94963550D01*
X74227976Y-94926009D01*
X74193774Y-94891874D01*
X74156125Y-94835679D01*
X74137567Y-94791063D01*
X74121807Y-94712544D01*
X74119384Y-94688406D01*
X74116982Y-93470099D01*
X74136535Y-93403022D01*
X74189248Y-93357163D01*
X74258387Y-93347084D01*
X74322000Y-93375983D01*
X74359890Y-93434687D01*
X74363455Y-93450458D01*
X74378317Y-93544293D01*
X74434251Y-93716444D01*
X74434252Y-93716447D01*
X74516434Y-93877734D01*
X74622823Y-94024169D01*
X74750830Y-94152176D01*
X74897265Y-94258565D01*
X75058552Y-94340747D01*
X75058555Y-94340748D01*
X75230699Y-94396680D01*
X75230712Y-94396683D01*
X75250000Y-94399738D01*
X75250000Y-93554145D01*
X75316657Y-93592630D01*
X75437465Y-93625000D01*
X75562535Y-93625000D01*
X75683343Y-93592630D01*
X75750000Y-93554145D01*
X75750000Y-94399737D01*
X75769287Y-94396683D01*
X75769300Y-94396680D01*
X75941444Y-94340748D01*
X75941447Y-94340747D01*
X76102734Y-94258565D01*
X76249169Y-94152176D01*
X76377176Y-94024169D01*
X76483565Y-93877734D01*
X76565747Y-93716447D01*
X76565748Y-93716444D01*
X76621682Y-93544293D01*
X76644537Y-93400000D01*
X75904146Y-93400000D01*
X75942630Y-93333343D01*
X75975000Y-93212535D01*
X75975000Y-93087465D01*
X75942630Y-92966657D01*
X75904146Y-92900000D01*
X76644537Y-92900000D01*
X76621682Y-92755706D01*
X76565748Y-92583555D01*
X76565747Y-92583552D01*
X76483565Y-92422265D01*
X76462648Y-92393475D01*
X80499500Y-92393475D01*
X80499500Y-93906517D01*
X80510271Y-93974520D01*
X80514354Y-94000304D01*
X80571950Y-94113342D01*
X80571952Y-94113344D01*
X80571954Y-94113347D01*
X80661652Y-94203045D01*
X80661654Y-94203046D01*
X80661658Y-94203050D01*
X80770612Y-94258565D01*
X80774698Y-94260647D01*
X80868475Y-94275499D01*
X80868481Y-94275500D01*
X82131518Y-94275499D01*
X82225304Y-94260646D01*
X82338342Y-94203050D01*
X82428050Y-94113342D01*
X82485646Y-94000304D01*
X82485646Y-94000302D01*
X82485647Y-94000301D01*
X82498298Y-93920421D01*
X82500500Y-93906519D01*
X82500500Y-93373543D01*
X82999499Y-93373543D01*
X83037947Y-93566829D01*
X83037950Y-93566839D01*
X83113364Y-93748907D01*
X83113371Y-93748920D01*
X83222860Y-93912781D01*
X83222863Y-93912785D01*
X83362214Y-94052136D01*
X83362218Y-94052139D01*
X83526079Y-94161628D01*
X83526092Y-94161635D01*
X83708160Y-94237049D01*
X83708165Y-94237051D01*
X83708169Y-94237051D01*
X83708170Y-94237052D01*
X83901456Y-94275500D01*
X83901459Y-94275500D01*
X84098543Y-94275500D01*
X84228582Y-94249632D01*
X84291835Y-94237051D01*
X84473914Y-94161632D01*
X84637782Y-94052139D01*
X84777139Y-93912782D01*
X84886632Y-93748914D01*
X84962051Y-93566835D01*
X84995237Y-93400000D01*
X85000500Y-93373543D01*
X85000500Y-92926456D01*
X84995237Y-92900000D01*
X85355463Y-92900000D01*
X86095854Y-92900000D01*
X86057370Y-92966657D01*
X86025000Y-93087465D01*
X86025000Y-93212535D01*
X86057370Y-93333343D01*
X86095854Y-93400000D01*
X85355463Y-93400000D01*
X85378317Y-93544293D01*
X85434251Y-93716444D01*
X85434252Y-93716447D01*
X85516434Y-93877734D01*
X85622823Y-94024169D01*
X85750830Y-94152176D01*
X85897265Y-94258565D01*
X86058552Y-94340747D01*
X86058555Y-94340748D01*
X86230699Y-94396680D01*
X86230712Y-94396683D01*
X86250000Y-94399738D01*
X86250000Y-93554145D01*
X86316657Y-93592630D01*
X86437465Y-93625000D01*
X86562535Y-93625000D01*
X86683343Y-93592630D01*
X86750000Y-93554145D01*
X86750000Y-94399737D01*
X86769287Y-94396683D01*
X86769300Y-94396680D01*
X86941444Y-94340748D01*
X86941447Y-94340747D01*
X87102734Y-94258565D01*
X87249169Y-94152176D01*
X87377176Y-94024169D01*
X87483565Y-93877734D01*
X87565747Y-93716447D01*
X87565748Y-93716444D01*
X87621682Y-93544293D01*
X87644537Y-93400000D01*
X86904146Y-93400000D01*
X86942630Y-93333343D01*
X86975000Y-93212535D01*
X86975000Y-93087465D01*
X86942630Y-92966657D01*
X86904146Y-92900000D01*
X87644537Y-92900000D01*
X87621682Y-92755706D01*
X87565748Y-92583555D01*
X87565747Y-92583552D01*
X87483565Y-92422265D01*
X87377176Y-92275830D01*
X87249169Y-92147823D01*
X87102734Y-92041434D01*
X86941447Y-91959252D01*
X86941441Y-91959250D01*
X86769295Y-91903318D01*
X86769285Y-91903315D01*
X86750000Y-91900260D01*
X86750000Y-92745854D01*
X86683343Y-92707370D01*
X86562535Y-92675000D01*
X86437465Y-92675000D01*
X86316657Y-92707370D01*
X86250000Y-92745854D01*
X86250000Y-91900260D01*
X86230714Y-91903315D01*
X86230704Y-91903318D01*
X86058558Y-91959250D01*
X86058552Y-91959252D01*
X85897265Y-92041434D01*
X85750830Y-92147823D01*
X85622823Y-92275830D01*
X85516434Y-92422265D01*
X85434252Y-92583552D01*
X85434251Y-92583555D01*
X85378317Y-92755706D01*
X85355463Y-92900000D01*
X84995237Y-92900000D01*
X84962052Y-92733170D01*
X84962051Y-92733169D01*
X84962051Y-92733165D01*
X84962049Y-92733160D01*
X84886635Y-92551092D01*
X84886628Y-92551079D01*
X84777139Y-92387218D01*
X84777136Y-92387214D01*
X84637785Y-92247863D01*
X84637781Y-92247860D01*
X84473920Y-92138371D01*
X84473907Y-92138364D01*
X84291839Y-92062950D01*
X84291829Y-92062947D01*
X84098543Y-92024500D01*
X84098541Y-92024500D01*
X83901459Y-92024500D01*
X83901457Y-92024500D01*
X83708170Y-92062947D01*
X83708160Y-92062950D01*
X83526092Y-92138364D01*
X83526079Y-92138371D01*
X83362218Y-92247860D01*
X83362214Y-92247863D01*
X83222863Y-92387214D01*
X83222860Y-92387218D01*
X83113371Y-92551079D01*
X83113364Y-92551092D01*
X83037950Y-92733160D01*
X83037947Y-92733170D01*
X82999500Y-92926456D01*
X82999500Y-92926459D01*
X82999500Y-93373541D01*
X82999500Y-93373543D01*
X82999499Y-93373543D01*
X82500500Y-93373543D01*
X82500499Y-92393482D01*
X82485646Y-92299696D01*
X82428050Y-92186658D01*
X82428046Y-92186654D01*
X82428045Y-92186652D01*
X82338347Y-92096954D01*
X82338344Y-92096952D01*
X82338342Y-92096950D01*
X82261517Y-92057805D01*
X82225301Y-92039352D01*
X82131524Y-92024500D01*
X80868482Y-92024500D01*
X80787519Y-92037323D01*
X80774696Y-92039354D01*
X80661658Y-92096950D01*
X80661657Y-92096951D01*
X80661652Y-92096954D01*
X80571954Y-92186652D01*
X80571951Y-92186657D01*
X80514352Y-92299698D01*
X80499500Y-92393475D01*
X76462648Y-92393475D01*
X76377176Y-92275830D01*
X76249169Y-92147823D01*
X76102734Y-92041434D01*
X75941447Y-91959252D01*
X75941441Y-91959250D01*
X75769295Y-91903318D01*
X75769285Y-91903315D01*
X75750000Y-91900260D01*
X75750000Y-92745854D01*
X75683343Y-92707370D01*
X75562535Y-92675000D01*
X75437465Y-92675000D01*
X75316657Y-92707370D01*
X75250000Y-92745854D01*
X75250000Y-91900260D01*
X75230714Y-91903315D01*
X75230704Y-91903318D01*
X75058558Y-91959250D01*
X75058552Y-91959252D01*
X74897265Y-92041434D01*
X74750830Y-92147823D01*
X74622823Y-92275830D01*
X74516434Y-92422265D01*
X74434252Y-92583552D01*
X74434251Y-92583555D01*
X74378317Y-92755706D01*
X74362208Y-92857410D01*
X74332278Y-92920544D01*
X74272966Y-92957475D01*
X74203104Y-92956477D01*
X74144871Y-92917866D01*
X74116758Y-92853902D01*
X74115735Y-92838269D01*
X74110630Y-90249706D01*
X74113037Y-90225153D01*
X74128996Y-90145355D01*
X74147972Y-90100064D01*
X74186556Y-90043192D01*
X74221632Y-90008817D01*
X74222133Y-90008492D01*
X74279263Y-89971389D01*
X74324933Y-89953327D01*
X74405028Y-89938979D01*
X74429632Y-89937067D01*
X78124820Y-90018763D01*
X79990000Y-90060000D01*
X81279661Y-89209996D01*
X83309819Y-89209996D01*
X83309819Y-89210003D01*
X83328424Y-89327477D01*
X83328424Y-89327478D01*
X83382428Y-89433466D01*
X83382431Y-89433470D01*
X83466529Y-89517568D01*
X83466533Y-89517571D01*
X83466535Y-89517573D01*
X83572518Y-89571574D01*
X83572520Y-89571574D01*
X83572522Y-89571575D01*
X83689997Y-89590181D01*
X83690000Y-89590181D01*
X83690003Y-89590181D01*
X83807477Y-89571575D01*
X83807478Y-89571575D01*
X83807479Y-89571574D01*
X83807482Y-89571574D01*
X83913465Y-89517573D01*
X83997573Y-89433465D01*
X84051574Y-89327482D01*
X84070181Y-89210000D01*
X84070181Y-89209996D01*
X84051575Y-89092522D01*
X84051575Y-89092521D01*
X84051574Y-89092519D01*
X84051574Y-89092518D01*
X83997573Y-88986535D01*
X83997571Y-88986533D01*
X83997568Y-88986529D01*
X83913470Y-88902431D01*
X83913466Y-88902428D01*
X83913465Y-88902427D01*
X83807482Y-88848426D01*
X83807480Y-88848425D01*
X83807477Y-88848424D01*
X83690003Y-88829819D01*
X83689997Y-88829819D01*
X83572522Y-88848424D01*
X83572521Y-88848424D01*
X83466533Y-88902428D01*
X83466529Y-88902431D01*
X83382431Y-88986529D01*
X83382428Y-88986533D01*
X83328424Y-89092521D01*
X83328424Y-89092522D01*
X83309819Y-89209996D01*
X81279661Y-89209996D01*
X83510000Y-87740000D01*
X83871744Y-86079996D01*
X89639819Y-86079996D01*
X89639819Y-86080003D01*
X89658424Y-86197477D01*
X89658424Y-86197478D01*
X89712428Y-86303466D01*
X89712431Y-86303470D01*
X89796529Y-86387568D01*
X89796533Y-86387571D01*
X89796535Y-86387573D01*
X89902518Y-86441574D01*
X89902520Y-86441574D01*
X89902522Y-86441575D01*
X90019997Y-86460181D01*
X90020000Y-86460181D01*
X90020003Y-86460181D01*
X90137477Y-86441575D01*
X90137478Y-86441575D01*
X90137479Y-86441574D01*
X90137482Y-86441574D01*
X90243465Y-86387573D01*
X90327573Y-86303465D01*
X90381574Y-86197482D01*
X90400181Y-86080000D01*
X90400181Y-86079996D01*
X90381575Y-85962522D01*
X90381575Y-85962521D01*
X90381574Y-85962519D01*
X90381574Y-85962518D01*
X90327573Y-85856535D01*
X90327571Y-85856533D01*
X90327568Y-85856529D01*
X90243470Y-85772431D01*
X90243466Y-85772428D01*
X90243465Y-85772427D01*
X90137482Y-85718426D01*
X90137480Y-85718425D01*
X90137477Y-85718424D01*
X90020003Y-85699819D01*
X90019997Y-85699819D01*
X89902522Y-85718424D01*
X89902521Y-85718424D01*
X89796533Y-85772428D01*
X89796529Y-85772431D01*
X89712431Y-85856529D01*
X89712428Y-85856533D01*
X89658424Y-85962521D01*
X89658424Y-85962522D01*
X89639819Y-86079996D01*
X83871744Y-86079996D01*
X84194588Y-84598501D01*
X84228094Y-84537194D01*
X84289429Y-84503731D01*
X84359119Y-84508741D01*
X84415037Y-84550633D01*
X84426225Y-84568606D01*
X84427426Y-84570963D01*
X84427431Y-84570970D01*
X84511529Y-84655068D01*
X84511533Y-84655071D01*
X84511535Y-84655073D01*
X84617518Y-84709074D01*
X84617520Y-84709074D01*
X84617522Y-84709075D01*
X84698605Y-84721917D01*
X84761740Y-84751846D01*
X84798672Y-84811157D01*
X84797674Y-84881019D01*
X84766893Y-84932067D01*
X84762432Y-84936527D01*
X84762428Y-84936533D01*
X84708424Y-85042521D01*
X84708424Y-85042522D01*
X84689819Y-85159996D01*
X84689819Y-85160003D01*
X84708424Y-85277477D01*
X84708424Y-85277478D01*
X84762428Y-85383466D01*
X84762431Y-85383470D01*
X84846529Y-85467568D01*
X84846533Y-85467571D01*
X84846535Y-85467573D01*
X84952518Y-85521574D01*
X84952520Y-85521574D01*
X84952522Y-85521575D01*
X85069997Y-85540181D01*
X85070000Y-85540181D01*
X85070003Y-85540181D01*
X85187477Y-85521575D01*
X85187478Y-85521575D01*
X85187479Y-85521574D01*
X85187482Y-85521574D01*
X85293465Y-85467573D01*
X85377573Y-85383465D01*
X85431574Y-85277482D01*
X85435912Y-85250095D01*
X85450181Y-85160003D01*
X85450181Y-85159996D01*
X85431575Y-85042522D01*
X85431575Y-85042521D01*
X85431574Y-85042519D01*
X85431574Y-85042518D01*
X85377573Y-84936535D01*
X85377571Y-84936533D01*
X85377568Y-84936529D01*
X85293470Y-84852431D01*
X85293466Y-84852428D01*
X85293465Y-84852427D01*
X85187482Y-84798426D01*
X85187481Y-84798425D01*
X85187478Y-84798424D01*
X85106393Y-84785582D01*
X85043258Y-84755653D01*
X85006327Y-84696341D01*
X85007325Y-84626478D01*
X85038114Y-84575424D01*
X85042570Y-84570968D01*
X85042573Y-84570965D01*
X85096574Y-84464982D01*
X85115181Y-84347500D01*
X85115181Y-84347496D01*
X85096575Y-84230022D01*
X85096575Y-84230021D01*
X85096574Y-84230019D01*
X85096574Y-84230018D01*
X85095009Y-84226946D01*
X94405000Y-84226946D01*
X94405000Y-84620000D01*
X95275854Y-84620000D01*
X95237370Y-84686657D01*
X95205000Y-84807465D01*
X95205000Y-84932535D01*
X95237370Y-85053343D01*
X95275854Y-85120000D01*
X94405000Y-85120000D01*
X94405000Y-85513053D01*
X94415613Y-85601443D01*
X94471079Y-85742095D01*
X94562435Y-85862564D01*
X94682904Y-85953920D01*
X94823556Y-86009386D01*
X94911946Y-86020000D01*
X95430000Y-86020000D01*
X95430000Y-85274145D01*
X95496657Y-85312630D01*
X95617465Y-85345000D01*
X95742535Y-85345000D01*
X95863343Y-85312630D01*
X95930000Y-85274145D01*
X95930000Y-86020000D01*
X96448054Y-86020000D01*
X96536443Y-86009386D01*
X96677095Y-85953920D01*
X96797564Y-85862564D01*
X96888920Y-85742095D01*
X96944386Y-85601443D01*
X96955000Y-85513053D01*
X96955000Y-85120000D01*
X96084146Y-85120000D01*
X96122630Y-85053343D01*
X96155000Y-84932535D01*
X96155000Y-84807465D01*
X96122630Y-84686657D01*
X96084146Y-84620000D01*
X96955000Y-84620000D01*
X96955000Y-84226946D01*
X96944386Y-84138556D01*
X96888920Y-83997904D01*
X96797564Y-83877435D01*
X96677095Y-83786079D01*
X96536443Y-83730613D01*
X96448054Y-83720000D01*
X95930000Y-83720000D01*
X95930000Y-84465854D01*
X95863343Y-84427370D01*
X95742535Y-84395000D01*
X95617465Y-84395000D01*
X95496657Y-84427370D01*
X95430000Y-84465854D01*
X95430000Y-83720000D01*
X94911946Y-83720000D01*
X94823556Y-83730613D01*
X94682904Y-83786079D01*
X94562435Y-83877435D01*
X94471079Y-83997904D01*
X94415613Y-84138556D01*
X94405000Y-84226946D01*
X85095009Y-84226946D01*
X85042573Y-84124035D01*
X85042571Y-84124033D01*
X85042568Y-84124029D01*
X84958470Y-84039931D01*
X84958466Y-84039928D01*
X84958465Y-84039927D01*
X84852482Y-83985926D01*
X84852480Y-83985925D01*
X84852477Y-83985924D01*
X84735003Y-83967319D01*
X84734997Y-83967319D01*
X84617522Y-83985924D01*
X84617518Y-83985925D01*
X84525098Y-84033016D01*
X84456429Y-84045912D01*
X84391689Y-84019635D01*
X84351432Y-83962529D01*
X84347647Y-83896129D01*
X84386029Y-83720000D01*
X84410000Y-83610000D01*
X84407461Y-82795132D01*
X84426936Y-82728033D01*
X84479597Y-82682114D01*
X84548724Y-82671955D01*
X84550857Y-82672274D01*
X84584997Y-82677681D01*
X84585000Y-82677681D01*
X84585003Y-82677681D01*
X84702477Y-82659075D01*
X84702478Y-82659075D01*
X84702479Y-82659074D01*
X84702482Y-82659074D01*
X84808465Y-82605073D01*
X84892573Y-82520965D01*
X84919283Y-82468543D01*
X94554499Y-82468543D01*
X94592947Y-82661829D01*
X94592950Y-82661839D01*
X94668364Y-82843907D01*
X94668371Y-82843920D01*
X94777860Y-83007781D01*
X94777863Y-83007785D01*
X94917214Y-83147136D01*
X94917218Y-83147139D01*
X95081079Y-83256628D01*
X95081092Y-83256635D01*
X95263160Y-83332049D01*
X95263165Y-83332051D01*
X95263169Y-83332051D01*
X95263170Y-83332052D01*
X95456456Y-83370500D01*
X95456459Y-83370500D01*
X95903543Y-83370500D01*
X96033582Y-83344632D01*
X96096835Y-83332051D01*
X96278914Y-83256632D01*
X96442782Y-83147139D01*
X96582139Y-83007782D01*
X96691632Y-82843914D01*
X96767051Y-82661835D01*
X96805500Y-82468541D01*
X96805500Y-82271459D01*
X96805500Y-82271456D01*
X96767052Y-82078170D01*
X96767051Y-82078169D01*
X96767051Y-82078165D01*
X96765340Y-82074035D01*
X96691635Y-81896092D01*
X96691628Y-81896079D01*
X96582139Y-81732218D01*
X96582136Y-81732214D01*
X96442785Y-81592863D01*
X96442781Y-81592860D01*
X96278920Y-81483371D01*
X96278907Y-81483364D01*
X96096839Y-81407950D01*
X96096829Y-81407947D01*
X95903543Y-81369500D01*
X95903541Y-81369500D01*
X95456459Y-81369500D01*
X95456457Y-81369500D01*
X95263170Y-81407947D01*
X95263160Y-81407950D01*
X95081092Y-81483364D01*
X95081079Y-81483371D01*
X94917218Y-81592860D01*
X94917214Y-81592863D01*
X94777863Y-81732214D01*
X94777860Y-81732218D01*
X94668371Y-81896079D01*
X94668364Y-81896092D01*
X94592950Y-82078160D01*
X94592947Y-82078170D01*
X94554500Y-82271456D01*
X94554500Y-82271459D01*
X94554500Y-82468541D01*
X94554500Y-82468543D01*
X94554499Y-82468543D01*
X84919283Y-82468543D01*
X84946574Y-82414982D01*
X84965181Y-82297500D01*
X84965181Y-82297496D01*
X84946575Y-82180022D01*
X84946575Y-82180021D01*
X84946574Y-82180019D01*
X84946574Y-82180018D01*
X84892573Y-82074035D01*
X84892571Y-82074033D01*
X84892568Y-82074029D01*
X84808470Y-81989931D01*
X84808466Y-81989928D01*
X84808465Y-81989927D01*
X84702482Y-81935926D01*
X84702480Y-81935925D01*
X84702477Y-81935924D01*
X84585003Y-81917319D01*
X84585001Y-81917319D01*
X84585000Y-81917319D01*
X84571940Y-81919387D01*
X84547759Y-81923217D01*
X84478466Y-81914261D01*
X84425014Y-81869264D01*
X84404376Y-81802512D01*
X84404365Y-81801288D01*
X84400000Y-80400000D01*
X84297279Y-80310677D01*
X84297277Y-80310675D01*
X83903825Y-79968543D01*
X94554499Y-79968543D01*
X94592947Y-80161829D01*
X94592950Y-80161839D01*
X94668364Y-80343907D01*
X94668371Y-80343920D01*
X94777860Y-80507781D01*
X94777863Y-80507785D01*
X94917214Y-80647136D01*
X94917218Y-80647139D01*
X95081079Y-80756628D01*
X95081092Y-80756635D01*
X95263160Y-80832049D01*
X95263165Y-80832051D01*
X95263169Y-80832051D01*
X95263170Y-80832052D01*
X95456456Y-80870500D01*
X95456459Y-80870500D01*
X95903543Y-80870500D01*
X96033582Y-80844632D01*
X96096835Y-80832051D01*
X96278914Y-80756632D01*
X96442782Y-80647139D01*
X96582139Y-80507782D01*
X96691632Y-80343914D01*
X96767051Y-80161835D01*
X96805500Y-79968541D01*
X96805500Y-79771459D01*
X96805500Y-79771456D01*
X96767052Y-79578170D01*
X96767051Y-79578169D01*
X96767051Y-79578165D01*
X96722648Y-79470965D01*
X96691635Y-79396092D01*
X96691628Y-79396079D01*
X96582139Y-79232218D01*
X96582136Y-79232214D01*
X96442785Y-79092863D01*
X96442781Y-79092860D01*
X96278920Y-78983371D01*
X96278907Y-78983364D01*
X96096839Y-78907950D01*
X96096829Y-78907947D01*
X95903543Y-78869500D01*
X95903541Y-78869500D01*
X95456459Y-78869500D01*
X95456457Y-78869500D01*
X95263170Y-78907947D01*
X95263160Y-78907950D01*
X95081092Y-78983364D01*
X95081079Y-78983371D01*
X94917218Y-79092860D01*
X94917214Y-79092863D01*
X94777863Y-79232214D01*
X94777860Y-79232218D01*
X94668371Y-79396079D01*
X94668364Y-79396092D01*
X94592950Y-79578160D01*
X94592947Y-79578170D01*
X94554500Y-79771456D01*
X94554500Y-79771459D01*
X94554500Y-79968541D01*
X94554500Y-79968543D01*
X94554499Y-79968543D01*
X83903825Y-79968543D01*
X83334660Y-79473617D01*
X83334658Y-79473616D01*
X83250000Y-79400000D01*
X83137807Y-79400000D01*
X77886213Y-79400000D01*
X77819174Y-79380315D01*
X77773419Y-79327511D01*
X77763475Y-79258353D01*
X77763739Y-79256604D01*
X77765181Y-79247498D01*
X77765181Y-79247496D01*
X77746575Y-79130022D01*
X77746575Y-79130021D01*
X77746574Y-79130019D01*
X77746574Y-79130018D01*
X77692573Y-79024035D01*
X77692571Y-79024033D01*
X77692568Y-79024029D01*
X77608470Y-78939931D01*
X77608466Y-78939928D01*
X77608465Y-78939927D01*
X77502482Y-78885926D01*
X77502480Y-78885925D01*
X77502477Y-78885924D01*
X77385003Y-78867319D01*
X77384997Y-78867319D01*
X77267522Y-78885924D01*
X77267521Y-78885924D01*
X77161533Y-78939928D01*
X77161529Y-78939931D01*
X77077431Y-79024029D01*
X77077428Y-79024033D01*
X77023424Y-79130021D01*
X77023424Y-79130022D01*
X77004819Y-79247496D01*
X77004819Y-79247498D01*
X77006261Y-79256604D01*
X76997305Y-79325897D01*
X76952308Y-79379349D01*
X76885556Y-79399987D01*
X76883787Y-79400000D01*
X74309716Y-79400000D01*
X74285651Y-79397642D01*
X74251830Y-79390950D01*
X74207392Y-79382158D01*
X74162886Y-79363828D01*
X74106741Y-79326561D01*
X74072566Y-79292665D01*
X74049386Y-79258353D01*
X74034841Y-79236823D01*
X74016151Y-79192467D01*
X74000032Y-79114341D01*
X73997478Y-79090295D01*
X73996561Y-78977681D01*
X73993465Y-78597496D01*
X82404819Y-78597496D01*
X82404819Y-78597503D01*
X82423424Y-78714977D01*
X82423424Y-78714978D01*
X82477428Y-78820966D01*
X82477431Y-78820970D01*
X82561529Y-78905068D01*
X82561533Y-78905071D01*
X82561535Y-78905073D01*
X82667518Y-78959074D01*
X82667520Y-78959074D01*
X82667522Y-78959075D01*
X82784997Y-78977681D01*
X82785000Y-78977681D01*
X82785003Y-78977681D01*
X82902477Y-78959075D01*
X82902478Y-78959075D01*
X82902479Y-78959074D01*
X82902482Y-78959074D01*
X83008465Y-78905073D01*
X83092573Y-78820965D01*
X83146574Y-78714982D01*
X83165181Y-78597500D01*
X83165181Y-78597496D01*
X83146575Y-78480022D01*
X83146575Y-78480021D01*
X83146574Y-78480019D01*
X83146574Y-78480018D01*
X83092573Y-78374035D01*
X83092571Y-78374033D01*
X83092568Y-78374029D01*
X83008470Y-78289931D01*
X83008466Y-78289928D01*
X83008465Y-78289927D01*
X82902482Y-78235926D01*
X82902480Y-78235925D01*
X82902477Y-78235924D01*
X82785003Y-78217319D01*
X82784997Y-78217319D01*
X82667522Y-78235924D01*
X82667521Y-78235924D01*
X82561533Y-78289928D01*
X82561529Y-78289931D01*
X82477431Y-78374029D01*
X82477428Y-78374033D01*
X82423424Y-78480021D01*
X82423424Y-78480022D01*
X82404819Y-78597496D01*
X73993465Y-78597496D01*
X73987215Y-77829996D01*
X80169819Y-77829996D01*
X80169819Y-77830003D01*
X80188424Y-77947477D01*
X80188424Y-77947478D01*
X80188425Y-77947481D01*
X80188426Y-77947482D01*
X80219150Y-78007782D01*
X80242428Y-78053466D01*
X80242431Y-78053470D01*
X80326529Y-78137568D01*
X80326533Y-78137571D01*
X80326535Y-78137573D01*
X80432518Y-78191574D01*
X80432520Y-78191574D01*
X80432522Y-78191575D01*
X80549997Y-78210181D01*
X80550000Y-78210181D01*
X80550003Y-78210181D01*
X80667477Y-78191575D01*
X80667478Y-78191575D01*
X80667479Y-78191574D01*
X80667482Y-78191574D01*
X80773465Y-78137573D01*
X80857573Y-78053465D01*
X80911574Y-77947482D01*
X80911575Y-77947477D01*
X80930181Y-77830003D01*
X80930181Y-77829996D01*
X80911575Y-77712522D01*
X80911575Y-77712521D01*
X80911574Y-77712519D01*
X80911574Y-77712518D01*
X80857573Y-77606535D01*
X80857571Y-77606533D01*
X80857568Y-77606529D01*
X80773470Y-77522431D01*
X80773466Y-77522428D01*
X80773465Y-77522427D01*
X80667712Y-77468543D01*
X94554499Y-77468543D01*
X94592947Y-77661829D01*
X94592950Y-77661839D01*
X94668364Y-77843907D01*
X94668371Y-77843920D01*
X94777860Y-78007781D01*
X94777863Y-78007785D01*
X94917214Y-78147136D01*
X94917218Y-78147139D01*
X95081079Y-78256628D01*
X95081092Y-78256635D01*
X95263160Y-78332049D01*
X95263165Y-78332051D01*
X95263169Y-78332051D01*
X95263170Y-78332052D01*
X95456456Y-78370500D01*
X95456459Y-78370500D01*
X95903543Y-78370500D01*
X96033582Y-78344632D01*
X96096835Y-78332051D01*
X96278914Y-78256632D01*
X96442782Y-78147139D01*
X96582139Y-78007782D01*
X96691632Y-77843914D01*
X96767051Y-77661835D01*
X96779632Y-77598582D01*
X96805500Y-77468543D01*
X96805500Y-77271456D01*
X96767052Y-77078170D01*
X96767051Y-77078169D01*
X96767051Y-77078165D01*
X96740880Y-77014982D01*
X96691635Y-76896092D01*
X96691628Y-76896079D01*
X96582139Y-76732218D01*
X96582136Y-76732214D01*
X96442785Y-76592863D01*
X96442781Y-76592860D01*
X96278920Y-76483371D01*
X96278907Y-76483364D01*
X96096839Y-76407950D01*
X96096829Y-76407947D01*
X95903543Y-76369500D01*
X95903541Y-76369500D01*
X95456459Y-76369500D01*
X95456457Y-76369500D01*
X95263170Y-76407947D01*
X95263160Y-76407950D01*
X95081092Y-76483364D01*
X95081079Y-76483371D01*
X94917218Y-76592860D01*
X94917214Y-76592863D01*
X94777863Y-76732214D01*
X94777860Y-76732218D01*
X94668371Y-76896079D01*
X94668364Y-76896092D01*
X94592950Y-77078160D01*
X94592947Y-77078170D01*
X94554500Y-77271456D01*
X94554500Y-77271459D01*
X94554500Y-77468541D01*
X94554500Y-77468543D01*
X94554499Y-77468543D01*
X80667712Y-77468543D01*
X80667482Y-77468426D01*
X80667480Y-77468425D01*
X80667477Y-77468424D01*
X80550003Y-77449819D01*
X80549997Y-77449819D01*
X80432522Y-77468424D01*
X80432521Y-77468424D01*
X80326533Y-77522428D01*
X80326529Y-77522431D01*
X80242431Y-77606529D01*
X80242428Y-77606533D01*
X80188424Y-77712521D01*
X80188424Y-77712522D01*
X80169819Y-77829996D01*
X73987215Y-77829996D01*
X73979621Y-76897496D01*
X82704819Y-76897496D01*
X82704819Y-76897503D01*
X82723424Y-77014977D01*
X82723424Y-77014978D01*
X82723425Y-77014981D01*
X82723426Y-77014982D01*
X82755619Y-77078165D01*
X82777428Y-77120966D01*
X82777431Y-77120970D01*
X82861529Y-77205068D01*
X82861533Y-77205071D01*
X82861535Y-77205073D01*
X82967518Y-77259074D01*
X82967520Y-77259074D01*
X82967522Y-77259075D01*
X83084997Y-77277681D01*
X83085000Y-77277681D01*
X83085003Y-77277681D01*
X83202477Y-77259075D01*
X83202478Y-77259075D01*
X83202479Y-77259074D01*
X83202482Y-77259074D01*
X83308465Y-77205073D01*
X83392573Y-77120965D01*
X83446574Y-77014982D01*
X83465181Y-76897500D01*
X83465181Y-76897496D01*
X83446575Y-76780022D01*
X83446575Y-76780021D01*
X83446574Y-76780019D01*
X83446574Y-76780018D01*
X83392573Y-76674035D01*
X83392571Y-76674033D01*
X83392568Y-76674029D01*
X83308470Y-76589931D01*
X83308466Y-76589928D01*
X83308465Y-76589927D01*
X83202482Y-76535926D01*
X83202480Y-76535925D01*
X83202477Y-76535924D01*
X83085003Y-76517319D01*
X83084997Y-76517319D01*
X82967522Y-76535924D01*
X82967521Y-76535924D01*
X82861533Y-76589928D01*
X82861529Y-76589931D01*
X82777431Y-76674029D01*
X82777428Y-76674033D01*
X82723424Y-76780021D01*
X82723424Y-76780022D01*
X82704819Y-76897496D01*
X73979621Y-76897496D01*
X73963913Y-74968543D01*
X94554499Y-74968543D01*
X94592947Y-75161829D01*
X94592950Y-75161839D01*
X94668364Y-75343907D01*
X94668371Y-75343920D01*
X94777860Y-75507781D01*
X94777863Y-75507785D01*
X94917214Y-75647136D01*
X94917218Y-75647139D01*
X95081079Y-75756628D01*
X95081092Y-75756635D01*
X95263160Y-75832049D01*
X95263165Y-75832051D01*
X95263169Y-75832051D01*
X95263170Y-75832052D01*
X95456456Y-75870500D01*
X95456459Y-75870500D01*
X95903543Y-75870500D01*
X96033582Y-75844632D01*
X96096835Y-75832051D01*
X96278914Y-75756632D01*
X96442782Y-75647139D01*
X96582139Y-75507782D01*
X96691632Y-75343914D01*
X96767051Y-75161835D01*
X96805500Y-74968541D01*
X96805500Y-74771459D01*
X96805500Y-74771456D01*
X96767052Y-74578170D01*
X96767051Y-74578169D01*
X96767051Y-74578165D01*
X96700902Y-74418465D01*
X96691635Y-74396092D01*
X96691628Y-74396079D01*
X96582139Y-74232218D01*
X96582136Y-74232214D01*
X96442785Y-74092863D01*
X96442781Y-74092860D01*
X96278920Y-73983371D01*
X96278907Y-73983364D01*
X96096839Y-73907950D01*
X96096829Y-73907947D01*
X95903543Y-73869500D01*
X95903541Y-73869500D01*
X95456459Y-73869500D01*
X95456457Y-73869500D01*
X95263170Y-73907947D01*
X95263160Y-73907950D01*
X95081092Y-73983364D01*
X95081079Y-73983371D01*
X94917218Y-74092860D01*
X94917214Y-74092863D01*
X94777863Y-74232214D01*
X94777860Y-74232218D01*
X94668371Y-74396079D01*
X94668364Y-74396092D01*
X94592950Y-74578160D01*
X94592947Y-74578170D01*
X94554500Y-74771456D01*
X94554500Y-74771459D01*
X94554500Y-74968541D01*
X94554500Y-74968543D01*
X94554499Y-74968543D01*
X73963913Y-74968543D01*
X73957614Y-74194996D01*
X78744819Y-74194996D01*
X78744819Y-74195003D01*
X78763424Y-74312477D01*
X78763424Y-74312478D01*
X78763425Y-74312481D01*
X78763426Y-74312482D01*
X78806027Y-74396092D01*
X78817428Y-74418466D01*
X78817431Y-74418470D01*
X78901529Y-74502568D01*
X78901533Y-74502571D01*
X78901535Y-74502573D01*
X79007518Y-74556574D01*
X79007520Y-74556574D01*
X79007522Y-74556575D01*
X79124997Y-74575181D01*
X79125000Y-74575181D01*
X79125003Y-74575181D01*
X79242477Y-74556575D01*
X79242478Y-74556575D01*
X79242479Y-74556574D01*
X79242482Y-74556574D01*
X79348465Y-74502573D01*
X79432573Y-74418465D01*
X79486574Y-74312482D01*
X79486575Y-74312477D01*
X79505181Y-74195003D01*
X79505181Y-74194996D01*
X79486575Y-74077522D01*
X79486575Y-74077521D01*
X79486574Y-74077519D01*
X79486574Y-74077518D01*
X79432573Y-73971535D01*
X79432571Y-73971533D01*
X79432568Y-73971529D01*
X79348470Y-73887431D01*
X79348466Y-73887428D01*
X79348465Y-73887427D01*
X79242482Y-73833426D01*
X79242480Y-73833425D01*
X79242477Y-73833424D01*
X79125003Y-73814819D01*
X79124997Y-73814819D01*
X79007522Y-73833424D01*
X79007521Y-73833424D01*
X78901533Y-73887428D01*
X78901529Y-73887431D01*
X78817431Y-73971529D01*
X78817428Y-73971533D01*
X78763424Y-74077521D01*
X78763424Y-74077522D01*
X78744819Y-74194996D01*
X73957614Y-74194996D01*
X73943404Y-72449996D01*
X78979819Y-72449996D01*
X78979819Y-72450003D01*
X78998424Y-72567477D01*
X78998424Y-72567478D01*
X78998425Y-72567481D01*
X78998426Y-72567482D01*
X79046503Y-72661839D01*
X79052428Y-72673466D01*
X79052431Y-72673470D01*
X79136529Y-72757568D01*
X79136533Y-72757571D01*
X79136535Y-72757573D01*
X79242518Y-72811574D01*
X79242520Y-72811574D01*
X79242522Y-72811575D01*
X79359997Y-72830181D01*
X79360000Y-72830181D01*
X79360003Y-72830181D01*
X79477477Y-72811575D01*
X79477478Y-72811575D01*
X79477479Y-72811574D01*
X79477482Y-72811574D01*
X79583465Y-72757573D01*
X79667573Y-72673465D01*
X79721574Y-72567482D01*
X79721575Y-72567477D01*
X79737245Y-72468543D01*
X94554499Y-72468543D01*
X94592947Y-72661829D01*
X94592950Y-72661839D01*
X94668364Y-72843907D01*
X94668371Y-72843920D01*
X94777860Y-73007781D01*
X94777863Y-73007785D01*
X94917214Y-73147136D01*
X94917218Y-73147139D01*
X95081079Y-73256628D01*
X95081092Y-73256635D01*
X95263160Y-73332049D01*
X95263165Y-73332051D01*
X95263169Y-73332051D01*
X95263170Y-73332052D01*
X95456456Y-73370500D01*
X95456459Y-73370500D01*
X95903543Y-73370500D01*
X96033582Y-73344632D01*
X96096835Y-73332051D01*
X96278914Y-73256632D01*
X96442782Y-73147139D01*
X96582139Y-73007782D01*
X96691632Y-72843914D01*
X96767051Y-72661835D01*
X96805500Y-72468541D01*
X96805500Y-72271459D01*
X96805500Y-72271456D01*
X96767052Y-72078170D01*
X96767051Y-72078169D01*
X96767051Y-72078165D01*
X96763594Y-72069819D01*
X96691635Y-71896092D01*
X96691628Y-71896079D01*
X96582139Y-71732218D01*
X96582136Y-71732214D01*
X96442785Y-71592863D01*
X96442781Y-71592860D01*
X96278920Y-71483371D01*
X96278907Y-71483364D01*
X96096839Y-71407950D01*
X96096829Y-71407947D01*
X95903543Y-71369500D01*
X95903541Y-71369500D01*
X95456459Y-71369500D01*
X95456457Y-71369500D01*
X95263170Y-71407947D01*
X95263160Y-71407950D01*
X95081092Y-71483364D01*
X95081079Y-71483371D01*
X94917218Y-71592860D01*
X94917214Y-71592863D01*
X94777863Y-71732214D01*
X94777860Y-71732218D01*
X94668371Y-71896079D01*
X94668364Y-71896092D01*
X94592950Y-72078160D01*
X94592947Y-72078170D01*
X94554500Y-72271456D01*
X94554500Y-72271459D01*
X94554500Y-72468541D01*
X94554500Y-72468543D01*
X94554499Y-72468543D01*
X79737245Y-72468543D01*
X79740181Y-72450003D01*
X79740181Y-72449996D01*
X79721575Y-72332522D01*
X79721575Y-72332521D01*
X79721574Y-72332519D01*
X79721574Y-72332518D01*
X79667573Y-72226535D01*
X79667571Y-72226533D01*
X79667568Y-72226529D01*
X79583470Y-72142431D01*
X79583466Y-72142428D01*
X79583465Y-72142427D01*
X79477482Y-72088426D01*
X79477480Y-72088425D01*
X79477477Y-72088424D01*
X79360003Y-72069819D01*
X79359997Y-72069819D01*
X79242522Y-72088424D01*
X79242521Y-72088424D01*
X79136533Y-72142428D01*
X79136529Y-72142431D01*
X79052431Y-72226529D01*
X79052428Y-72226533D01*
X78998424Y-72332521D01*
X78998424Y-72332522D01*
X78979819Y-72449996D01*
X73943404Y-72449996D01*
X73936093Y-71552178D01*
X82219819Y-71552178D01*
X82219819Y-71552185D01*
X82238424Y-71669659D01*
X82238424Y-71669660D01*
X82292428Y-71775648D01*
X82292431Y-71775652D01*
X82376529Y-71859750D01*
X82376533Y-71859753D01*
X82376535Y-71859755D01*
X82482518Y-71913756D01*
X82482520Y-71913756D01*
X82482522Y-71913757D01*
X82599997Y-71932363D01*
X82600000Y-71932363D01*
X82600003Y-71932363D01*
X82717477Y-71913757D01*
X82717478Y-71913757D01*
X82717479Y-71913756D01*
X82717482Y-71913756D01*
X82823465Y-71859755D01*
X82907573Y-71775647D01*
X82961574Y-71669664D01*
X82973738Y-71592863D01*
X82980181Y-71552185D01*
X82980181Y-71552178D01*
X82961575Y-71434704D01*
X82961575Y-71434703D01*
X82961574Y-71434701D01*
X82961574Y-71434700D01*
X82907573Y-71328717D01*
X82907571Y-71328715D01*
X82907568Y-71328711D01*
X82823470Y-71244613D01*
X82823466Y-71244610D01*
X82823465Y-71244609D01*
X82717482Y-71190608D01*
X82717480Y-71190607D01*
X82717477Y-71190606D01*
X82600003Y-71172001D01*
X82599997Y-71172001D01*
X82482522Y-71190606D01*
X82482521Y-71190606D01*
X82376533Y-71244610D01*
X82376529Y-71244613D01*
X82292431Y-71328711D01*
X82292428Y-71328715D01*
X82238424Y-71434703D01*
X82238424Y-71434704D01*
X82219819Y-71552178D01*
X73936093Y-71552178D01*
X73924267Y-70099996D01*
X90619819Y-70099996D01*
X90619819Y-70100003D01*
X90638424Y-70217477D01*
X90638424Y-70217478D01*
X90692428Y-70323466D01*
X90692431Y-70323470D01*
X90776529Y-70407568D01*
X90776533Y-70407571D01*
X90776535Y-70407573D01*
X90882518Y-70461574D01*
X90882520Y-70461574D01*
X90882522Y-70461575D01*
X90999997Y-70480181D01*
X91000000Y-70480181D01*
X91000003Y-70480181D01*
X91117477Y-70461575D01*
X91117478Y-70461575D01*
X91117479Y-70461574D01*
X91117482Y-70461574D01*
X91223465Y-70407573D01*
X91307573Y-70323465D01*
X91361574Y-70217482D01*
X91370387Y-70161839D01*
X91380181Y-70100003D01*
X91380181Y-70099996D01*
X91361575Y-69982522D01*
X91361575Y-69982521D01*
X91361574Y-69982519D01*
X91361574Y-69982518D01*
X91354453Y-69968543D01*
X94554499Y-69968543D01*
X94592947Y-70161829D01*
X94592950Y-70161839D01*
X94668364Y-70343907D01*
X94668371Y-70343920D01*
X94777860Y-70507781D01*
X94777863Y-70507785D01*
X94917214Y-70647136D01*
X94917218Y-70647139D01*
X95081079Y-70756628D01*
X95081092Y-70756635D01*
X95263160Y-70832049D01*
X95263165Y-70832051D01*
X95263169Y-70832051D01*
X95263170Y-70832052D01*
X95456456Y-70870500D01*
X95456459Y-70870500D01*
X95903543Y-70870500D01*
X96033582Y-70844632D01*
X96096835Y-70832051D01*
X96278914Y-70756632D01*
X96442782Y-70647139D01*
X96582139Y-70507782D01*
X96691632Y-70343914D01*
X96767051Y-70161835D01*
X96802719Y-69982522D01*
X96805500Y-69968543D01*
X96805500Y-69771456D01*
X96767052Y-69578170D01*
X96767051Y-69578169D01*
X96767051Y-69578165D01*
X96698048Y-69411575D01*
X96691635Y-69396092D01*
X96691628Y-69396079D01*
X96582139Y-69232218D01*
X96582136Y-69232214D01*
X96442785Y-69092863D01*
X96442781Y-69092860D01*
X96278920Y-68983371D01*
X96278907Y-68983364D01*
X96096839Y-68907950D01*
X96096829Y-68907947D01*
X95903543Y-68869500D01*
X95903541Y-68869500D01*
X95456459Y-68869500D01*
X95456457Y-68869500D01*
X95263170Y-68907947D01*
X95263160Y-68907950D01*
X95081092Y-68983364D01*
X95081079Y-68983371D01*
X94917218Y-69092860D01*
X94917214Y-69092863D01*
X94777863Y-69232214D01*
X94777860Y-69232218D01*
X94668371Y-69396079D01*
X94668364Y-69396092D01*
X94592950Y-69578160D01*
X94592947Y-69578170D01*
X94554500Y-69771456D01*
X94554500Y-69771459D01*
X94554500Y-69968541D01*
X94554500Y-69968543D01*
X94554499Y-69968543D01*
X91354453Y-69968543D01*
X91307573Y-69876535D01*
X91307571Y-69876533D01*
X91307568Y-69876529D01*
X91223470Y-69792431D01*
X91223466Y-69792428D01*
X91223465Y-69792427D01*
X91117482Y-69738426D01*
X91117480Y-69738425D01*
X91117477Y-69738424D01*
X91000003Y-69719819D01*
X90999997Y-69719819D01*
X90882522Y-69738424D01*
X90882521Y-69738424D01*
X90776533Y-69792428D01*
X90776529Y-69792431D01*
X90692431Y-69876529D01*
X90692428Y-69876533D01*
X90638424Y-69982521D01*
X90638424Y-69982522D01*
X90619819Y-70099996D01*
X73924267Y-70099996D01*
X73913680Y-68799996D01*
X78269819Y-68799996D01*
X78269819Y-68800003D01*
X78288424Y-68917477D01*
X78288424Y-68917478D01*
X78342428Y-69023466D01*
X78342431Y-69023470D01*
X78426529Y-69107568D01*
X78426533Y-69107571D01*
X78426535Y-69107573D01*
X78532518Y-69161574D01*
X78532520Y-69161574D01*
X78532522Y-69161575D01*
X78649997Y-69180181D01*
X78650000Y-69180181D01*
X78650003Y-69180181D01*
X78767477Y-69161575D01*
X78767478Y-69161575D01*
X78767479Y-69161574D01*
X78767482Y-69161574D01*
X78873465Y-69107573D01*
X78931042Y-69049996D01*
X88969819Y-69049996D01*
X88969819Y-69050003D01*
X88988424Y-69167477D01*
X88988424Y-69167478D01*
X88988425Y-69167481D01*
X88988426Y-69167482D01*
X88994896Y-69180181D01*
X89042428Y-69273466D01*
X89042431Y-69273470D01*
X89126529Y-69357568D01*
X89126533Y-69357571D01*
X89126535Y-69357573D01*
X89232518Y-69411574D01*
X89232520Y-69411574D01*
X89232522Y-69411575D01*
X89349997Y-69430181D01*
X89350000Y-69430181D01*
X89350003Y-69430181D01*
X89467477Y-69411575D01*
X89467478Y-69411575D01*
X89467479Y-69411574D01*
X89467482Y-69411574D01*
X89573465Y-69357573D01*
X89657573Y-69273465D01*
X89711574Y-69167482D01*
X89712510Y-69161574D01*
X89730181Y-69050003D01*
X89730181Y-69049996D01*
X89711575Y-68932522D01*
X89711575Y-68932521D01*
X89711574Y-68932519D01*
X89711574Y-68932518D01*
X89657573Y-68826535D01*
X89657571Y-68826533D01*
X89657568Y-68826529D01*
X89573470Y-68742431D01*
X89573466Y-68742428D01*
X89573465Y-68742427D01*
X89467482Y-68688426D01*
X89467480Y-68688425D01*
X89467477Y-68688424D01*
X89350003Y-68669819D01*
X89349997Y-68669819D01*
X89232522Y-68688424D01*
X89232521Y-68688424D01*
X89126533Y-68742428D01*
X89126529Y-68742431D01*
X89042431Y-68826529D01*
X89042428Y-68826533D01*
X88988424Y-68932521D01*
X88988424Y-68932522D01*
X88969819Y-69049996D01*
X78931042Y-69049996D01*
X78957573Y-69023465D01*
X79011574Y-68917482D01*
X79013084Y-68907947D01*
X79030181Y-68800003D01*
X79030181Y-68799996D01*
X79011575Y-68682522D01*
X79011575Y-68682521D01*
X79011574Y-68682519D01*
X79011574Y-68682518D01*
X78957573Y-68576535D01*
X78957571Y-68576533D01*
X78957568Y-68576529D01*
X78873470Y-68492431D01*
X78873466Y-68492428D01*
X78873465Y-68492427D01*
X78767482Y-68438426D01*
X78767480Y-68438425D01*
X78767477Y-68438424D01*
X78650003Y-68419819D01*
X78649997Y-68419819D01*
X78532522Y-68438424D01*
X78532521Y-68438424D01*
X78426533Y-68492428D01*
X78426529Y-68492431D01*
X78342431Y-68576529D01*
X78342428Y-68576533D01*
X78288424Y-68682521D01*
X78288424Y-68682522D01*
X78269819Y-68799996D01*
X73913680Y-68799996D01*
X73902557Y-67434056D01*
X73904759Y-67409772D01*
X73919878Y-67330713D01*
X73938162Y-67285732D01*
X73975596Y-67228988D01*
X74009757Y-67194476D01*
X74057187Y-67162483D01*
X74066112Y-67156463D01*
X74110910Y-67137716D01*
X74156048Y-67128602D01*
X74189799Y-67121789D01*
X74214074Y-67119337D01*
X93665222Y-67078301D01*
X94441891Y-67076662D01*
X94508971Y-67096205D01*
X94554837Y-67148913D01*
X94564927Y-67218050D01*
X94563770Y-67224851D01*
X94554500Y-67271457D01*
X94554500Y-67271459D01*
X94554500Y-67468541D01*
X94554500Y-67468543D01*
X94554499Y-67468543D01*
X94592947Y-67661829D01*
X94592950Y-67661839D01*
X94668364Y-67843907D01*
X94668371Y-67843920D01*
X94777860Y-68007781D01*
X94777863Y-68007785D01*
X94917214Y-68147136D01*
X94917218Y-68147139D01*
X95081079Y-68256628D01*
X95081092Y-68256635D01*
X95263160Y-68332049D01*
X95263165Y-68332051D01*
X95263169Y-68332051D01*
X95263170Y-68332052D01*
X95456456Y-68370500D01*
X95456459Y-68370500D01*
X95903543Y-68370500D01*
X96033582Y-68344632D01*
X96096835Y-68332051D01*
X96278914Y-68256632D01*
X96442782Y-68147139D01*
X96582139Y-68007782D01*
X96691632Y-67843914D01*
X96767051Y-67661835D01*
X96805500Y-67468541D01*
X96805500Y-67271459D01*
X96795191Y-67219633D01*
X96801418Y-67150042D01*
X96844280Y-67094864D01*
X96910170Y-67071619D01*
X96916511Y-67071441D01*
X97292641Y-67070648D01*
X97316585Y-67072932D01*
G37*
%TD.AperFunction*%
%TD*%
M02*
