%TF.GenerationSoftware,KiCad,Pcbnew,8.0.5*%
%TF.CreationDate,2024-10-23T09:29:27+02:00*%
%TF.ProjectId,Pojet_V-NOM_KiCAD,506f6a65-745f-4562-9d4e-4f4d5f4b6943,rev?*%
%TF.SameCoordinates,Original*%
%TF.FileFunction,Copper,L4,Bot*%
%TF.FilePolarity,Positive*%
%FSLAX46Y46*%
G04 Gerber Fmt 4.6, Leading zero omitted, Abs format (unit mm)*
G04 Created by KiCad (PCBNEW 8.0.5) date 2024-10-23 09:29:27*
%MOMM*%
%LPD*%
G01*
G04 APERTURE LIST*
G04 Aperture macros list*
%AMRoundRect*
0 Rectangle with rounded corners*
0 $1 Rounding radius*
0 $2 $3 $4 $5 $6 $7 $8 $9 X,Y pos of 4 corners*
0 Add a 4 corners polygon primitive as box body*
4,1,4,$2,$3,$4,$5,$6,$7,$8,$9,$2,$3,0*
0 Add four circle primitives for the rounded corners*
1,1,$1+$1,$2,$3*
1,1,$1+$1,$4,$5*
1,1,$1+$1,$6,$7*
1,1,$1+$1,$8,$9*
0 Add four rect primitives between the rounded corners*
20,1,$1+$1,$2,$3,$4,$5,0*
20,1,$1+$1,$4,$5,$6,$7,0*
20,1,$1+$1,$6,$7,$8,$9,0*
20,1,$1+$1,$8,$9,$2,$3,0*%
G04 Aperture macros list end*
%TA.AperFunction,ComponentPad*%
%ADD10RoundRect,0.250000X0.725000X-0.600000X0.725000X0.600000X-0.725000X0.600000X-0.725000X-0.600000X0*%
%TD*%
%TA.AperFunction,ComponentPad*%
%ADD11O,1.950000X1.700000*%
%TD*%
%TA.AperFunction,ComponentPad*%
%ADD12RoundRect,0.250000X-0.600000X-0.725000X0.600000X-0.725000X0.600000X0.725000X-0.600000X0.725000X0*%
%TD*%
%TA.AperFunction,ComponentPad*%
%ADD13O,1.700000X1.950000*%
%TD*%
%TA.AperFunction,ComponentPad*%
%ADD14C,0.800000*%
%TD*%
%TA.AperFunction,ComponentPad*%
%ADD15C,6.400000*%
%TD*%
%TA.AperFunction,ComponentPad*%
%ADD16RoundRect,0.250000X-0.600000X-0.750000X0.600000X-0.750000X0.600000X0.750000X-0.600000X0.750000X0*%
%TD*%
%TA.AperFunction,ComponentPad*%
%ADD17O,1.700000X2.000000*%
%TD*%
%TA.AperFunction,ComponentPad*%
%ADD18RoundRect,0.250000X0.600000X0.725000X-0.600000X0.725000X-0.600000X-0.725000X0.600000X-0.725000X0*%
%TD*%
%TA.AperFunction,ComponentPad*%
%ADD19RoundRect,0.250000X-0.725000X0.600000X-0.725000X-0.600000X0.725000X-0.600000X0.725000X0.600000X0*%
%TD*%
%TA.AperFunction,ViaPad*%
%ADD20C,0.450000*%
%TD*%
%TA.AperFunction,Conductor*%
%ADD21C,0.250000*%
%TD*%
%TA.AperFunction,Conductor*%
%ADD22C,0.200000*%
%TD*%
G04 APERTURE END LIST*
D10*
%TO.P,J3,1,Pin_1*%
%TO.N,+5V*%
X95680000Y-84870000D03*
D11*
%TO.P,J3,2,Pin_2*%
%TO.N,/acquisition/TX_LIDAR*%
X95680000Y-82370000D03*
%TO.P,J3,3,Pin_3*%
%TO.N,/acquisition/RX_LIDAR*%
X95680000Y-79870000D03*
%TO.P,J3,4,Pin_4*%
%TO.N,GND*%
X95680000Y-77370000D03*
%TO.P,J3,5,Pin_5*%
%TO.N,/acquisition/EN_MOT*%
X95680000Y-74870000D03*
%TO.P,J3,6,Pin_6*%
%TO.N,/acquisition/EN_LIDAR*%
X95680000Y-72370000D03*
%TO.P,J3,7,Pin_7*%
%TO.N,/acquisition/VIT_MOT_LIDAR*%
X95680000Y-69870000D03*
%TO.P,J3,8,Pin_8*%
%TO.N,unconnected-(J3-Pin_8-Pad8)*%
X95680000Y-67370000D03*
%TD*%
D12*
%TO.P,J4,1,Pin_1*%
%TO.N,/acquisition/TOF1*%
X70500000Y-93150000D03*
D13*
%TO.P,J4,2,Pin_2*%
%TO.N,GND*%
X73000000Y-93150000D03*
%TO.P,J4,3,Pin_3*%
%TO.N,+5V*%
X75500000Y-93150000D03*
%TD*%
D14*
%TO.P,H4,1,1*%
%TO.N,GND*%
X91600000Y-45500000D03*
X92302944Y-43802944D03*
X92302944Y-47197056D03*
X94000000Y-43100000D03*
D15*
X94000000Y-45500000D03*
D14*
X94000000Y-47900000D03*
X95697056Y-43802944D03*
X95697056Y-47197056D03*
X96400000Y-45500000D03*
%TD*%
%TO.P,H2,1,1*%
%TO.N,GND*%
X42600000Y-91500000D03*
X43302944Y-89802944D03*
X43302944Y-93197056D03*
X45000000Y-89100000D03*
D15*
X45000000Y-91500000D03*
D14*
X45000000Y-93900000D03*
X46697056Y-89802944D03*
X46697056Y-93197056D03*
X47400000Y-91500000D03*
%TD*%
D16*
%TO.P,BT1,1,+*%
%TO.N,Net-(BT1-+)*%
X52750000Y-93150000D03*
D17*
%TO.P,BT1,2,-*%
%TO.N,GND*%
X55250000Y-93150000D03*
%TD*%
D16*
%TO.P,J6,1,Pin_1*%
%TO.N,Net-(BT1-+)*%
X61700000Y-93100000D03*
D17*
%TO.P,J6,2,Pin_2*%
%TO.N,+BATT*%
X64200000Y-93100000D03*
%TD*%
D14*
%TO.P,H3,1,1*%
%TO.N,GND*%
X91600000Y-91500000D03*
X92302944Y-89802944D03*
X92302944Y-93197056D03*
X94000000Y-89100000D03*
D15*
X94000000Y-91500000D03*
D14*
X94000000Y-93900000D03*
X95697056Y-89802944D03*
X95697056Y-93197056D03*
X96400000Y-91500000D03*
%TD*%
D18*
%TO.P,J301,1,Pin_1*%
%TO.N,/Deplacement/Driver_Motor1/OUT2*%
X71290000Y-43940000D03*
D13*
%TO.P,J301,2,Pin_2*%
%TO.N,GND*%
X68790000Y-43940000D03*
%TO.P,J301,3,Pin_3*%
%TO.N,/Deplacement/Encoder B phase 1*%
X66290000Y-43940000D03*
%TO.P,J301,4,Pin_4*%
%TO.N,/Deplacement/Encoder A phase 1*%
X63790000Y-43940000D03*
%TO.P,J301,5,Pin_5*%
%TO.N,+3.3V*%
X61290000Y-43940000D03*
%TO.P,J301,6,Pin_6*%
%TO.N,/Deplacement/Driver_Motor1/OUT1*%
X58790000Y-43940000D03*
%TD*%
D12*
%TO.P,J5,1,Pin_1*%
%TO.N,/acquisition/TOF2*%
X81500000Y-93150000D03*
D13*
%TO.P,J5,2,Pin_2*%
%TO.N,GND*%
X84000000Y-93150000D03*
%TO.P,J5,3,Pin_3*%
%TO.N,+5V*%
X86500000Y-93150000D03*
%TD*%
D19*
%TO.P,J302,1,Pin_1*%
%TO.N,/Deplacement/Driver_Motor2/OUT2*%
X43510000Y-59000000D03*
D11*
%TO.P,J302,2,Pin_2*%
%TO.N,GND*%
X43510000Y-61500000D03*
%TO.P,J302,3,Pin_3*%
%TO.N,/Deplacement/Encoder B phase 2*%
X43510000Y-64000000D03*
%TO.P,J302,4,Pin_4*%
%TO.N,/Deplacement/Encoder A phase 2*%
X43510000Y-66500000D03*
%TO.P,J302,5,Pin_5*%
%TO.N,+3.3V*%
X43510000Y-69000000D03*
%TO.P,J302,6,Pin_6*%
%TO.N,/Deplacement/Driver_Motor2/OUT1*%
X43510000Y-71500000D03*
%TD*%
D14*
%TO.P,H1,1,1*%
%TO.N,GND*%
X42600000Y-45500000D03*
X43302944Y-43802944D03*
X43302944Y-47197056D03*
X45000000Y-43100000D03*
D15*
X45000000Y-45500000D03*
D14*
X45000000Y-47900000D03*
X46697056Y-43802944D03*
X46697056Y-47197056D03*
X47400000Y-45500000D03*
%TD*%
D20*
%TO.N,/acquisition/TOF1*%
X66783603Y-66543603D03*
X68010000Y-70160000D03*
%TO.N,GND*%
X72200000Y-57200000D03*
X47277500Y-70760000D03*
X73200000Y-65050000D03*
X62200000Y-69700000D03*
X96460000Y-56810000D03*
X52000000Y-77400000D03*
X51110000Y-65700000D03*
X53900000Y-81030000D03*
X62450000Y-50010000D03*
X65940000Y-74270000D03*
X56650000Y-71940000D03*
X61450000Y-51410000D03*
X67350000Y-73100000D03*
X48110000Y-64700000D03*
X82495000Y-87207500D03*
X89350000Y-69050000D03*
X51110000Y-63700000D03*
X47702500Y-60900000D03*
X77700000Y-44650000D03*
X60450000Y-50010000D03*
X60450000Y-48610000D03*
X62200000Y-66900000D03*
X83690000Y-89210000D03*
X42350000Y-79150000D03*
X49610000Y-65700000D03*
X63600000Y-66900000D03*
X65000000Y-56800000D03*
X90000000Y-62550000D03*
X70600000Y-57150000D03*
X63600000Y-68300000D03*
X60800000Y-68300000D03*
X96420000Y-58080000D03*
X72400000Y-70600000D03*
X62450000Y-48610000D03*
X56075000Y-52285000D03*
X85070000Y-85160000D03*
X56050000Y-47710000D03*
X77385000Y-79247500D03*
X96450000Y-54270000D03*
X60450000Y-51410000D03*
X62450000Y-51410000D03*
X83085000Y-76897500D03*
X79150000Y-47400000D03*
X52920000Y-69100000D03*
X60750000Y-61580000D03*
X91000000Y-70100000D03*
X59660000Y-61560000D03*
X48110000Y-63700000D03*
X61450000Y-48610000D03*
X60800000Y-66900000D03*
X65250000Y-48110000D03*
X51110000Y-64700000D03*
X88500000Y-48600000D03*
X60800000Y-69700000D03*
X48110000Y-65700000D03*
X62550000Y-56800000D03*
X49610000Y-63700000D03*
X72150000Y-68900000D03*
X68600000Y-67675000D03*
X63600000Y-69700000D03*
X84735000Y-84347500D03*
X62200000Y-68300000D03*
X84585000Y-82297500D03*
%TO.N,+3.3V*%
X61450000Y-63790000D03*
X76000000Y-44650000D03*
X64975000Y-72710000D03*
X56450000Y-70980000D03*
X66440000Y-71120000D03*
X59650000Y-63770000D03*
X54760000Y-84710000D03*
X69800000Y-57250000D03*
X59765000Y-60050000D03*
X96590000Y-59350000D03*
X73800000Y-57280000D03*
X57891644Y-70608771D03*
X88400000Y-64600000D03*
%TO.N,+BATT*%
X65240000Y-50640000D03*
X50400000Y-68300000D03*
X82150000Y-83400000D03*
X48975000Y-68300000D03*
X80700000Y-86117500D03*
X80600000Y-83947500D03*
X50250000Y-60840000D03*
X81535000Y-85400000D03*
X57800000Y-49375000D03*
X57900000Y-50735000D03*
%TO.N,+5V*%
X80795000Y-75297500D03*
X82575000Y-75277500D03*
X75955000Y-75287500D03*
X88400000Y-69000000D03*
X88705000Y-84800000D03*
X87600000Y-84800000D03*
X90300000Y-69000000D03*
X88000000Y-89100000D03*
X89800000Y-84800000D03*
%TO.N,Net-(IC1002-VCC)*%
X75430000Y-82297500D03*
X80550000Y-77830000D03*
%TO.N,Net-(IC1002-EN{slash}SYNC)*%
X77930000Y-83940000D03*
X82785000Y-78597500D03*
%TO.N,/controle/SWCLK*%
X58980000Y-76180000D03*
X78650000Y-68800000D03*
%TO.N,/controle/VCP_RX*%
X82050000Y-60850000D03*
X63717500Y-73322500D03*
%TO.N,/controle/NRST*%
X87800000Y-54300000D03*
X70010000Y-66590000D03*
%TO.N,/controle/SWDIO*%
X89000000Y-59410000D03*
X58800000Y-71980000D03*
%TO.N,/controle/VCP_TX*%
X63820000Y-74490000D03*
X83031091Y-60021091D03*
%TO.N,/acquisition/EN_MOT*%
X61000000Y-75150000D03*
X63674805Y-75123578D03*
X63723924Y-77773894D03*
X79125000Y-74195000D03*
%TO.N,/acquisition/EN_LIDAR*%
X63173924Y-77240070D03*
X60450000Y-75700000D03*
X79360000Y-72450000D03*
X63173924Y-75700000D03*
%TO.N,/acquisition/VIT_MOT_LIDAR*%
X55960000Y-68740000D03*
X82600000Y-71552182D03*
%TO.N,/acquisition/RX_LIDAR*%
X61450000Y-79300000D03*
X90020000Y-86080000D03*
%TO.N,/acquisition/TX_LIDAR*%
X59600000Y-79070000D03*
%TO.N,/Deplacement/Encoder B phase 1*%
X56510000Y-69450000D03*
%TO.N,/Deplacement/Encoder A phase 1*%
X60405134Y-80832952D03*
%TO.N,/Deplacement/Encoder A phase 2*%
X60478768Y-81478768D03*
%TO.N,/Deplacement/Encoder B phase 2*%
X54850000Y-70050000D03*
%TO.N,/controle/BTN_START*%
X77575000Y-62475000D03*
X66855330Y-70620000D03*
%TO.N,/acquisition/AG_MISO*%
X69070000Y-52520000D03*
X68100000Y-53700000D03*
%TO.N,/acquisition/AG_CSN*%
X68300000Y-60200000D03*
X64650000Y-62500000D03*
%TO.N,/Deplacement/FWD1*%
X54440000Y-65040000D03*
X54450000Y-62530000D03*
%TO.N,/acquisition/AG_INT1*%
X78775000Y-56050000D03*
X77427500Y-54702500D03*
%TD*%
D21*
%TO.N,/acquisition/TOF1*%
X67783603Y-66543603D02*
X68020000Y-66780000D01*
X66783603Y-66543603D02*
X67783603Y-66543603D01*
X68020000Y-66780000D02*
X68020000Y-70150000D01*
X68020000Y-70150000D02*
X68010000Y-70160000D01*
%TO.N,/controle/BTN_START*%
X77575000Y-62525000D02*
X77575000Y-62475000D01*
X69430000Y-70670000D02*
X77575000Y-62525000D01*
X66905330Y-70670000D02*
X69430000Y-70670000D01*
X66855330Y-70620000D02*
X66905330Y-70670000D01*
%TO.N,/controle/NRST*%
X76300000Y-62100000D02*
X84100000Y-54300000D01*
X72500000Y-62100000D02*
X76300000Y-62100000D01*
X70010000Y-66590000D02*
X70010000Y-64590000D01*
X70010000Y-64590000D02*
X72500000Y-62100000D01*
X84100000Y-54300000D02*
X87800000Y-54300000D01*
D22*
%TO.N,Net-(IC1002-VCC)*%
X77222500Y-77760000D02*
X75430000Y-79552500D01*
X80480000Y-77760000D02*
X77222500Y-77760000D01*
X80550000Y-77830000D02*
X80480000Y-77760000D01*
X75430000Y-79552500D02*
X75430000Y-82297500D01*
%TO.N,Net-(IC1002-EN{slash}SYNC)*%
X77930000Y-83940000D02*
X77930000Y-82350000D01*
X81682500Y-78597500D02*
X82785000Y-78597500D01*
X77930000Y-82350000D02*
X81682500Y-78597500D01*
D21*
%TO.N,/controle/SWCLK*%
X71200000Y-76250000D02*
X78650000Y-68800000D01*
X58980000Y-76180000D02*
X59050000Y-76250000D01*
X59050000Y-76250000D02*
X71200000Y-76250000D01*
%TO.N,/controle/VCP_RX*%
X69830000Y-74850000D02*
X82050000Y-62630000D01*
X82050000Y-62630000D02*
X82050000Y-60850000D01*
X63822500Y-73322500D02*
X65350000Y-74850000D01*
X63717500Y-73322500D02*
X63822500Y-73322500D01*
X65350000Y-74850000D02*
X69830000Y-74850000D01*
%TO.N,/controle/SWDIO*%
X70130000Y-71980000D02*
X82720000Y-59390000D01*
X84910000Y-59410000D02*
X89000000Y-59410000D01*
X82720000Y-59390000D02*
X84890000Y-59390000D01*
X84890000Y-59390000D02*
X84910000Y-59410000D01*
X58800000Y-71980000D02*
X70130000Y-71980000D01*
%TO.N,/controle/VCP_TX*%
X83031091Y-62928909D02*
X70510000Y-75450000D01*
X64780000Y-75450000D02*
X63820000Y-74490000D01*
X70510000Y-75450000D02*
X64780000Y-75450000D01*
X83031091Y-60021091D02*
X83031091Y-62928909D01*
%TO.N,/acquisition/EN_MOT*%
X61000000Y-75150000D02*
X63648383Y-75150000D01*
X75400000Y-77920000D02*
X63870030Y-77920000D01*
X63648383Y-75150000D02*
X63674805Y-75123578D01*
X79125000Y-74195000D02*
X75400000Y-77920000D01*
X63870030Y-77920000D02*
X63723924Y-77773894D01*
%TO.N,/acquisition/EN_LIDAR*%
X60450000Y-75700000D02*
X63173924Y-75700000D01*
X63263994Y-77150000D02*
X71970000Y-77150000D01*
X76670000Y-72450000D02*
X79360000Y-72450000D01*
X63173924Y-77240070D02*
X63263994Y-77150000D01*
X71970000Y-77150000D02*
X76670000Y-72450000D01*
%TO.N,/acquisition/VIT_MOT_LIDAR*%
X60200000Y-78600000D02*
X55900000Y-74300000D01*
X55900000Y-74300000D02*
X55900000Y-68800000D01*
X55900000Y-68800000D02*
X55960000Y-68740000D01*
X82600000Y-71552182D02*
X75552182Y-78600000D01*
X75552182Y-78600000D02*
X60200000Y-78600000D01*
%TO.N,/acquisition/RX_LIDAR*%
X90020000Y-86080000D02*
X88310000Y-87790000D01*
X61450000Y-80110000D02*
X61450000Y-79300000D01*
X69130000Y-87790000D02*
X61450000Y-80110000D01*
X88310000Y-87790000D02*
X69130000Y-87790000D01*
%TO.N,/acquisition/TX_LIDAR*%
X59600000Y-79250000D02*
X68630000Y-88280000D01*
X68630000Y-88280000D02*
X90220000Y-88280000D01*
X95870000Y-82630000D02*
X95870000Y-82360000D01*
X59600000Y-79070000D02*
X59600000Y-79250000D01*
X90220000Y-88280000D02*
X95870000Y-82630000D01*
%TO.N,/Deplacement/Encoder B phase 1*%
X56580000Y-69380000D02*
X56580000Y-60590000D01*
X66250000Y-43980000D02*
X66290000Y-43940000D01*
X66250000Y-50920000D02*
X66250000Y-43980000D01*
X56510000Y-69450000D02*
X56580000Y-69380000D01*
X56580000Y-60590000D02*
X66250000Y-50920000D01*
%TO.N,/Deplacement/Encoder A phase 1*%
X63790000Y-50910000D02*
X63790000Y-43940000D01*
X55400000Y-59300000D02*
X63790000Y-50910000D01*
X55400000Y-76100000D02*
X55400000Y-59300000D01*
X63790000Y-43410000D02*
X63750000Y-43450000D01*
X60132952Y-80832952D02*
X55400000Y-76100000D01*
X60405134Y-80832952D02*
X60132952Y-80832952D01*
%TO.N,/Deplacement/Encoder A phase 2*%
X43925000Y-66500000D02*
X43510000Y-66500000D01*
X58903768Y-81478768D02*
X43925000Y-66500000D01*
X60478768Y-81478768D02*
X58903768Y-81478768D01*
%TO.N,/Deplacement/Encoder B phase 2*%
X43510000Y-64410000D02*
X49220000Y-70120000D01*
X43510000Y-64000000D02*
X43510000Y-64410000D01*
X49220000Y-70120000D02*
X54780000Y-70120000D01*
X54780000Y-70120000D02*
X54850000Y-70050000D01*
%TO.N,/acquisition/AG_MISO*%
X69070000Y-52730000D02*
X68100000Y-53700000D01*
X69070000Y-52520000D02*
X69070000Y-52730000D01*
%TO.N,/acquisition/AG_CSN*%
X66000000Y-62500000D02*
X64650000Y-62500000D01*
X68300000Y-60200000D02*
X66000000Y-62500000D01*
%TO.N,/Deplacement/FWD1*%
X54440000Y-65040000D02*
X54440000Y-62540000D01*
X54440000Y-62540000D02*
X54450000Y-62530000D01*
%TO.N,/acquisition/AG_INT1*%
X77427500Y-54702500D02*
X78775000Y-56050000D01*
%TD*%
%TA.AperFunction,Conductor*%
%TO.N,GND*%
G36*
X92748006Y-42020185D02*
G01*
X92793761Y-42072989D01*
X92803705Y-42142147D01*
X92774680Y-42205703D01*
X92725405Y-42240264D01*
X92574464Y-42298204D01*
X92247594Y-42464754D01*
X91939924Y-42664557D01*
X91706849Y-42853296D01*
X91706849Y-42853297D01*
X93059301Y-44205748D01*
X92957670Y-44279588D01*
X92779588Y-44457670D01*
X92705748Y-44559300D01*
X91353297Y-43206849D01*
X91353296Y-43206849D01*
X91164557Y-43439924D01*
X90964754Y-43747594D01*
X90798204Y-44074464D01*
X90666736Y-44416948D01*
X90571784Y-44771313D01*
X90571784Y-44771315D01*
X90514397Y-45133646D01*
X90495197Y-45499999D01*
X90495197Y-45500000D01*
X90514397Y-45866353D01*
X90571784Y-46228684D01*
X90571784Y-46228686D01*
X90666736Y-46583051D01*
X90798204Y-46925535D01*
X90964754Y-47252406D01*
X91164553Y-47560070D01*
X91353297Y-47793148D01*
X92705748Y-46440698D01*
X92779588Y-46542330D01*
X92957670Y-46720412D01*
X93059300Y-46794251D01*
X91706850Y-48146701D01*
X91939929Y-48335446D01*
X92247593Y-48535245D01*
X92574464Y-48701795D01*
X92916948Y-48833263D01*
X93271314Y-48928215D01*
X93633646Y-48985602D01*
X93999999Y-49004803D01*
X94000001Y-49004803D01*
X94366353Y-48985602D01*
X94728684Y-48928215D01*
X94728686Y-48928215D01*
X95083051Y-48833263D01*
X95425535Y-48701795D01*
X95752406Y-48535245D01*
X96060064Y-48335450D01*
X96293148Y-48146701D01*
X94940698Y-46794251D01*
X95042330Y-46720412D01*
X95220412Y-46542330D01*
X95294251Y-46440698D01*
X96646701Y-47793148D01*
X96835450Y-47560064D01*
X97035245Y-47252406D01*
X97201795Y-46925535D01*
X97259736Y-46774595D01*
X97302138Y-46719063D01*
X97367832Y-46695270D01*
X97435960Y-46710772D01*
X97484893Y-46760645D01*
X97499500Y-46819033D01*
X97499500Y-90180966D01*
X97479815Y-90248005D01*
X97427011Y-90293760D01*
X97357853Y-90303704D01*
X97294297Y-90274679D01*
X97259736Y-90225404D01*
X97201795Y-90074464D01*
X97035245Y-89747594D01*
X96835446Y-89439929D01*
X96646701Y-89206850D01*
X95294251Y-90559300D01*
X95220412Y-90457670D01*
X95042330Y-90279588D01*
X94940698Y-90205748D01*
X96293149Y-88853297D01*
X96060070Y-88664553D01*
X95752406Y-88464754D01*
X95425535Y-88298204D01*
X95083051Y-88166736D01*
X94728685Y-88071784D01*
X94366353Y-88014397D01*
X94000001Y-87995197D01*
X93999999Y-87995197D01*
X93633646Y-88014397D01*
X93271315Y-88071784D01*
X93271313Y-88071784D01*
X92916948Y-88166736D01*
X92574464Y-88298204D01*
X92247594Y-88464754D01*
X91939924Y-88664557D01*
X91706849Y-88853296D01*
X91706849Y-88853297D01*
X93059301Y-90205748D01*
X92957670Y-90279588D01*
X92779588Y-90457670D01*
X92705748Y-90559300D01*
X91353297Y-89206849D01*
X91353296Y-89206849D01*
X91164557Y-89439924D01*
X90964754Y-89747594D01*
X90798204Y-90074464D01*
X90666736Y-90416948D01*
X90571784Y-90771313D01*
X90571784Y-90771315D01*
X90514397Y-91133646D01*
X90495197Y-91499999D01*
X90495197Y-91500000D01*
X90514397Y-91866353D01*
X90571784Y-92228684D01*
X90571784Y-92228686D01*
X90666736Y-92583051D01*
X90798204Y-92925535D01*
X90964754Y-93252406D01*
X91164553Y-93560070D01*
X91353297Y-93793148D01*
X92705748Y-92440698D01*
X92779588Y-92542330D01*
X92957670Y-92720412D01*
X93059300Y-92794251D01*
X91706850Y-94146701D01*
X91939929Y-94335446D01*
X92247593Y-94535245D01*
X92574464Y-94701795D01*
X92725405Y-94759736D01*
X92780937Y-94802138D01*
X92804730Y-94867832D01*
X92789228Y-94935960D01*
X92739355Y-94984893D01*
X92680967Y-94999500D01*
X46319033Y-94999500D01*
X46251994Y-94979815D01*
X46206239Y-94927011D01*
X46196295Y-94857853D01*
X46225320Y-94794297D01*
X46274595Y-94759736D01*
X46425535Y-94701795D01*
X46752406Y-94535245D01*
X47060064Y-94335450D01*
X47293148Y-94146701D01*
X45940698Y-92794251D01*
X46042330Y-92720412D01*
X46220412Y-92542330D01*
X46294251Y-92440698D01*
X47646701Y-93793148D01*
X47835450Y-93560064D01*
X48035245Y-93252406D01*
X48201795Y-92925535D01*
X48333263Y-92583051D01*
X48396853Y-92345730D01*
X51699500Y-92345730D01*
X51699500Y-93954269D01*
X51702353Y-93984699D01*
X51702353Y-93984701D01*
X51738458Y-94087880D01*
X51747207Y-94112882D01*
X51827850Y-94222150D01*
X51937118Y-94302793D01*
X51979845Y-94317744D01*
X52065299Y-94347646D01*
X52095730Y-94350500D01*
X52095734Y-94350500D01*
X53404270Y-94350500D01*
X53434699Y-94347646D01*
X53434701Y-94347646D01*
X53506145Y-94322646D01*
X53562882Y-94302793D01*
X53672150Y-94222150D01*
X53752793Y-94112882D01*
X53783835Y-94024169D01*
X53797646Y-93984701D01*
X53797646Y-93984699D01*
X53800500Y-93954269D01*
X53800500Y-92900000D01*
X54101504Y-92900000D01*
X54816988Y-92900000D01*
X54784075Y-92957007D01*
X54750000Y-93084174D01*
X54750000Y-93215826D01*
X54784075Y-93342993D01*
X54816988Y-93400000D01*
X54101504Y-93400000D01*
X54128317Y-93569293D01*
X54184251Y-93741444D01*
X54184252Y-93741447D01*
X54266434Y-93902734D01*
X54372823Y-94049169D01*
X54500830Y-94177176D01*
X54647265Y-94283565D01*
X54808552Y-94365747D01*
X54808555Y-94365748D01*
X54980699Y-94421680D01*
X54980712Y-94421683D01*
X55000000Y-94424738D01*
X55000000Y-93583012D01*
X55057007Y-93615925D01*
X55184174Y-93650000D01*
X55315826Y-93650000D01*
X55442993Y-93615925D01*
X55500000Y-93583012D01*
X55500000Y-94424737D01*
X55519287Y-94421683D01*
X55519300Y-94421680D01*
X55691444Y-94365748D01*
X55691447Y-94365747D01*
X55852734Y-94283565D01*
X55999169Y-94177176D01*
X56127176Y-94049169D01*
X56233565Y-93902734D01*
X56315747Y-93741447D01*
X56315748Y-93741444D01*
X56371682Y-93569293D01*
X56398496Y-93400000D01*
X55683012Y-93400000D01*
X55715925Y-93342993D01*
X55750000Y-93215826D01*
X55750000Y-93084174D01*
X55715925Y-92957007D01*
X55683012Y-92900000D01*
X56398496Y-92900000D01*
X56371682Y-92730706D01*
X56315748Y-92558555D01*
X56315747Y-92558552D01*
X56233565Y-92397265D01*
X56159797Y-92295730D01*
X60649500Y-92295730D01*
X60649500Y-93904269D01*
X60652353Y-93934699D01*
X60652353Y-93934701D01*
X60697206Y-94062880D01*
X60697207Y-94062882D01*
X60777850Y-94172150D01*
X60887118Y-94252793D01*
X60908089Y-94260131D01*
X61015299Y-94297646D01*
X61045730Y-94300500D01*
X61045734Y-94300500D01*
X62354270Y-94300500D01*
X62384699Y-94297646D01*
X62384701Y-94297646D01*
X62448790Y-94275219D01*
X62512882Y-94252793D01*
X62622150Y-94172150D01*
X62702793Y-94062882D01*
X62733712Y-93974520D01*
X62747646Y-93934701D01*
X62747646Y-93934699D01*
X62750500Y-93904269D01*
X62750500Y-92846530D01*
X63149500Y-92846530D01*
X63149500Y-93353469D01*
X63189868Y-93556412D01*
X63189870Y-93556420D01*
X63256154Y-93716444D01*
X63269059Y-93747598D01*
X63299494Y-93793148D01*
X63384024Y-93919657D01*
X63530342Y-94065975D01*
X63530345Y-94065977D01*
X63702402Y-94180941D01*
X63893580Y-94260130D01*
X64082187Y-94297646D01*
X64096530Y-94300499D01*
X64096534Y-94300500D01*
X64096535Y-94300500D01*
X64303466Y-94300500D01*
X64303467Y-94300499D01*
X64506420Y-94260130D01*
X64697598Y-94180941D01*
X64869655Y-94065977D01*
X65015977Y-93919655D01*
X65130941Y-93747598D01*
X65210130Y-93556420D01*
X65250500Y-93353465D01*
X65250500Y-92846535D01*
X65210130Y-92643580D01*
X65130941Y-92452402D01*
X65076370Y-92370730D01*
X69449500Y-92370730D01*
X69449500Y-93929269D01*
X69452353Y-93959699D01*
X69452353Y-93959701D01*
X69488458Y-94062880D01*
X69497207Y-94087882D01*
X69577850Y-94197150D01*
X69687118Y-94277793D01*
X69708089Y-94285131D01*
X69815299Y-94322646D01*
X69845730Y-94325500D01*
X69845734Y-94325500D01*
X71154270Y-94325500D01*
X71184699Y-94322646D01*
X71184701Y-94322646D01*
X71256145Y-94297646D01*
X71312882Y-94277793D01*
X71422150Y-94197150D01*
X71502793Y-94087882D01*
X71525219Y-94023790D01*
X71547646Y-93959701D01*
X71547646Y-93959699D01*
X71550500Y-93929269D01*
X71550500Y-92900000D01*
X71855463Y-92900000D01*
X72595854Y-92900000D01*
X72557370Y-92966657D01*
X72525000Y-93087465D01*
X72525000Y-93212535D01*
X72557370Y-93333343D01*
X72595854Y-93400000D01*
X71855463Y-93400000D01*
X71878317Y-93544293D01*
X71934251Y-93716444D01*
X71934252Y-93716447D01*
X72016434Y-93877734D01*
X72122823Y-94024169D01*
X72250830Y-94152176D01*
X72397265Y-94258565D01*
X72558552Y-94340747D01*
X72558555Y-94340748D01*
X72730699Y-94396680D01*
X72730712Y-94396683D01*
X72750000Y-94399738D01*
X72750000Y-93554145D01*
X72816657Y-93592630D01*
X72937465Y-93625000D01*
X73062535Y-93625000D01*
X73183343Y-93592630D01*
X73250000Y-93554145D01*
X73250000Y-94399737D01*
X73269287Y-94396683D01*
X73269300Y-94396680D01*
X73441444Y-94340748D01*
X73441447Y-94340747D01*
X73602734Y-94258565D01*
X73749169Y-94152176D01*
X73877176Y-94024169D01*
X73983565Y-93877734D01*
X74065747Y-93716447D01*
X74065748Y-93716444D01*
X74121682Y-93544293D01*
X74144537Y-93400000D01*
X73404146Y-93400000D01*
X73442630Y-93333343D01*
X73475000Y-93212535D01*
X73475000Y-93087465D01*
X73442630Y-92966657D01*
X73416576Y-92921530D01*
X74449500Y-92921530D01*
X74449500Y-93378469D01*
X74489868Y-93581412D01*
X74489870Y-93581420D01*
X74569058Y-93772596D01*
X74684024Y-93944657D01*
X74830342Y-94090975D01*
X74830345Y-94090977D01*
X75002402Y-94205941D01*
X75193580Y-94285130D01*
X75382187Y-94322646D01*
X75396530Y-94325499D01*
X75396534Y-94325500D01*
X75396535Y-94325500D01*
X75603466Y-94325500D01*
X75603467Y-94325499D01*
X75806420Y-94285130D01*
X75997598Y-94205941D01*
X76169655Y-94090977D01*
X76315977Y-93944655D01*
X76430941Y-93772598D01*
X76510130Y-93581420D01*
X76550500Y-93378465D01*
X76550500Y-92921535D01*
X76510130Y-92718580D01*
X76430941Y-92527402D01*
X76326257Y-92370730D01*
X80449500Y-92370730D01*
X80449500Y-93929269D01*
X80452353Y-93959699D01*
X80452353Y-93959701D01*
X80488458Y-94062880D01*
X80497207Y-94087882D01*
X80577850Y-94197150D01*
X80687118Y-94277793D01*
X80708089Y-94285131D01*
X80815299Y-94322646D01*
X80845730Y-94325500D01*
X80845734Y-94325500D01*
X82154270Y-94325500D01*
X82184699Y-94322646D01*
X82184701Y-94322646D01*
X82256145Y-94297646D01*
X82312882Y-94277793D01*
X82422150Y-94197150D01*
X82502793Y-94087882D01*
X82525219Y-94023790D01*
X82547646Y-93959701D01*
X82547646Y-93959699D01*
X82550500Y-93929269D01*
X82550500Y-92900000D01*
X82855463Y-92900000D01*
X83595854Y-92900000D01*
X83557370Y-92966657D01*
X83525000Y-93087465D01*
X83525000Y-93212535D01*
X83557370Y-93333343D01*
X83595854Y-93400000D01*
X82855463Y-93400000D01*
X82878317Y-93544293D01*
X82934251Y-93716444D01*
X82934252Y-93716447D01*
X83016434Y-93877734D01*
X83122823Y-94024169D01*
X83250830Y-94152176D01*
X83397265Y-94258565D01*
X83558552Y-94340747D01*
X83558555Y-94340748D01*
X83730699Y-94396680D01*
X83730712Y-94396683D01*
X83750000Y-94399738D01*
X83750000Y-93554145D01*
X83816657Y-93592630D01*
X83937465Y-93625000D01*
X84062535Y-93625000D01*
X84183343Y-93592630D01*
X84250000Y-93554145D01*
X84250000Y-94399737D01*
X84269287Y-94396683D01*
X84269300Y-94396680D01*
X84441444Y-94340748D01*
X84441447Y-94340747D01*
X84602734Y-94258565D01*
X84749169Y-94152176D01*
X84877176Y-94024169D01*
X84983565Y-93877734D01*
X85065747Y-93716447D01*
X85065748Y-93716444D01*
X85121682Y-93544293D01*
X85144537Y-93400000D01*
X84404146Y-93400000D01*
X84442630Y-93333343D01*
X84475000Y-93212535D01*
X84475000Y-93087465D01*
X84442630Y-92966657D01*
X84416576Y-92921530D01*
X85449500Y-92921530D01*
X85449500Y-93378469D01*
X85489868Y-93581412D01*
X85489870Y-93581420D01*
X85569058Y-93772596D01*
X85684024Y-93944657D01*
X85830342Y-94090975D01*
X85830345Y-94090977D01*
X86002402Y-94205941D01*
X86193580Y-94285130D01*
X86382187Y-94322646D01*
X86396530Y-94325499D01*
X86396534Y-94325500D01*
X86396535Y-94325500D01*
X86603466Y-94325500D01*
X86603467Y-94325499D01*
X86806420Y-94285130D01*
X86997598Y-94205941D01*
X87169655Y-94090977D01*
X87315977Y-93944655D01*
X87430941Y-93772598D01*
X87510130Y-93581420D01*
X87550500Y-93378465D01*
X87550500Y-92921535D01*
X87510130Y-92718580D01*
X87430941Y-92527402D01*
X87315977Y-92355345D01*
X87315975Y-92355342D01*
X87169657Y-92209024D01*
X87057409Y-92134023D01*
X86997598Y-92094059D01*
X86982953Y-92087993D01*
X86806420Y-92014870D01*
X86806412Y-92014868D01*
X86603469Y-91974500D01*
X86603465Y-91974500D01*
X86396535Y-91974500D01*
X86396530Y-91974500D01*
X86193587Y-92014868D01*
X86193579Y-92014870D01*
X86002403Y-92094058D01*
X85830342Y-92209024D01*
X85684024Y-92355342D01*
X85569058Y-92527403D01*
X85489870Y-92718579D01*
X85489868Y-92718587D01*
X85449500Y-92921530D01*
X84416576Y-92921530D01*
X84404146Y-92900000D01*
X85144537Y-92900000D01*
X85121682Y-92755706D01*
X85065748Y-92583555D01*
X85065747Y-92583552D01*
X84983565Y-92422265D01*
X84877176Y-92275830D01*
X84749169Y-92147823D01*
X84602734Y-92041434D01*
X84441447Y-91959252D01*
X84441441Y-91959250D01*
X84269295Y-91903318D01*
X84269285Y-91903315D01*
X84250000Y-91900260D01*
X84250000Y-92745854D01*
X84183343Y-92707370D01*
X84062535Y-92675000D01*
X83937465Y-92675000D01*
X83816657Y-92707370D01*
X83750000Y-92745854D01*
X83750000Y-91900260D01*
X83730714Y-91903315D01*
X83730704Y-91903318D01*
X83558558Y-91959250D01*
X83558552Y-91959252D01*
X83397265Y-92041434D01*
X83250830Y-92147823D01*
X83122823Y-92275830D01*
X83016434Y-92422265D01*
X82934252Y-92583552D01*
X82934251Y-92583555D01*
X82878317Y-92755706D01*
X82855463Y-92900000D01*
X82550500Y-92900000D01*
X82550500Y-92370730D01*
X82547646Y-92340300D01*
X82547646Y-92340298D01*
X82502793Y-92212119D01*
X82502792Y-92212117D01*
X82422150Y-92102850D01*
X82312882Y-92022207D01*
X82312880Y-92022206D01*
X82184700Y-91977353D01*
X82154270Y-91974500D01*
X82154266Y-91974500D01*
X80845734Y-91974500D01*
X80845730Y-91974500D01*
X80815300Y-91977353D01*
X80815298Y-91977353D01*
X80687119Y-92022206D01*
X80687117Y-92022207D01*
X80577850Y-92102850D01*
X80497207Y-92212117D01*
X80497206Y-92212119D01*
X80452353Y-92340298D01*
X80452353Y-92340300D01*
X80449500Y-92370730D01*
X76326257Y-92370730D01*
X76315977Y-92355345D01*
X76315975Y-92355342D01*
X76169657Y-92209024D01*
X76057409Y-92134023D01*
X75997598Y-92094059D01*
X75982953Y-92087993D01*
X75806420Y-92014870D01*
X75806412Y-92014868D01*
X75603469Y-91974500D01*
X75603465Y-91974500D01*
X75396535Y-91974500D01*
X75396530Y-91974500D01*
X75193587Y-92014868D01*
X75193579Y-92014870D01*
X75002403Y-92094058D01*
X74830342Y-92209024D01*
X74684024Y-92355342D01*
X74569058Y-92527403D01*
X74489870Y-92718579D01*
X74489868Y-92718587D01*
X74449500Y-92921530D01*
X73416576Y-92921530D01*
X73404146Y-92900000D01*
X74144537Y-92900000D01*
X74121682Y-92755706D01*
X74065748Y-92583555D01*
X74065747Y-92583552D01*
X73983565Y-92422265D01*
X73877176Y-92275830D01*
X73749169Y-92147823D01*
X73602734Y-92041434D01*
X73441447Y-91959252D01*
X73441441Y-91959250D01*
X73269295Y-91903318D01*
X73269285Y-91903315D01*
X73250000Y-91900260D01*
X73250000Y-92745854D01*
X73183343Y-92707370D01*
X73062535Y-92675000D01*
X72937465Y-92675000D01*
X72816657Y-92707370D01*
X72750000Y-92745854D01*
X72750000Y-91900260D01*
X72730714Y-91903315D01*
X72730704Y-91903318D01*
X72558558Y-91959250D01*
X72558552Y-91959252D01*
X72397265Y-92041434D01*
X72250830Y-92147823D01*
X72122823Y-92275830D01*
X72016434Y-92422265D01*
X71934252Y-92583552D01*
X71934251Y-92583555D01*
X71878317Y-92755706D01*
X71855463Y-92900000D01*
X71550500Y-92900000D01*
X71550500Y-92370730D01*
X71547646Y-92340300D01*
X71547646Y-92340298D01*
X71502793Y-92212119D01*
X71502792Y-92212117D01*
X71422150Y-92102850D01*
X71312882Y-92022207D01*
X71312880Y-92022206D01*
X71184700Y-91977353D01*
X71154270Y-91974500D01*
X71154266Y-91974500D01*
X69845734Y-91974500D01*
X69845730Y-91974500D01*
X69815300Y-91977353D01*
X69815298Y-91977353D01*
X69687119Y-92022206D01*
X69687117Y-92022207D01*
X69577850Y-92102850D01*
X69497207Y-92212117D01*
X69497206Y-92212119D01*
X69452353Y-92340298D01*
X69452353Y-92340300D01*
X69449500Y-92370730D01*
X65076370Y-92370730D01*
X65015977Y-92280345D01*
X65015975Y-92280342D01*
X64869657Y-92134024D01*
X64783626Y-92076541D01*
X64697598Y-92019059D01*
X64596911Y-91977353D01*
X64506420Y-91939870D01*
X64506412Y-91939868D01*
X64303469Y-91899500D01*
X64303465Y-91899500D01*
X64096535Y-91899500D01*
X64096530Y-91899500D01*
X63893587Y-91939868D01*
X63893579Y-91939870D01*
X63702403Y-92019058D01*
X63530342Y-92134024D01*
X63384024Y-92280342D01*
X63269058Y-92452403D01*
X63189870Y-92643579D01*
X63189868Y-92643587D01*
X63149500Y-92846530D01*
X62750500Y-92846530D01*
X62750500Y-92295730D01*
X62747646Y-92265300D01*
X62747646Y-92265298D01*
X62702793Y-92137119D01*
X62702792Y-92137117D01*
X62622150Y-92027850D01*
X62512882Y-91947207D01*
X62512880Y-91947206D01*
X62384700Y-91902353D01*
X62354270Y-91899500D01*
X62354266Y-91899500D01*
X61045734Y-91899500D01*
X61045730Y-91899500D01*
X61015300Y-91902353D01*
X61015298Y-91902353D01*
X60887119Y-91947206D01*
X60887117Y-91947207D01*
X60777850Y-92027850D01*
X60697207Y-92137117D01*
X60697206Y-92137119D01*
X60652353Y-92265298D01*
X60652353Y-92265300D01*
X60649500Y-92295730D01*
X56159797Y-92295730D01*
X56127176Y-92250830D01*
X55999169Y-92122823D01*
X55852734Y-92016434D01*
X55691447Y-91934252D01*
X55691441Y-91934250D01*
X55519295Y-91878318D01*
X55519285Y-91878315D01*
X55500000Y-91875260D01*
X55500000Y-92716988D01*
X55442993Y-92684075D01*
X55315826Y-92650000D01*
X55184174Y-92650000D01*
X55057007Y-92684075D01*
X55000000Y-92716988D01*
X55000000Y-91875260D01*
X54980714Y-91878315D01*
X54980704Y-91878318D01*
X54808558Y-91934250D01*
X54808552Y-91934252D01*
X54647265Y-92016434D01*
X54500830Y-92122823D01*
X54372823Y-92250830D01*
X54266434Y-92397265D01*
X54184252Y-92558552D01*
X54184251Y-92558555D01*
X54128317Y-92730706D01*
X54101504Y-92900000D01*
X53800500Y-92900000D01*
X53800500Y-92345730D01*
X53797646Y-92315300D01*
X53797646Y-92315298D01*
X53752793Y-92187119D01*
X53752792Y-92187117D01*
X53715892Y-92137119D01*
X53672150Y-92077850D01*
X53562882Y-91997207D01*
X53562880Y-91997206D01*
X53434700Y-91952353D01*
X53404270Y-91949500D01*
X53404266Y-91949500D01*
X52095734Y-91949500D01*
X52095730Y-91949500D01*
X52065300Y-91952353D01*
X52065298Y-91952353D01*
X51937119Y-91997206D01*
X51937117Y-91997207D01*
X51827850Y-92077850D01*
X51747207Y-92187117D01*
X51747206Y-92187119D01*
X51702353Y-92315298D01*
X51702353Y-92315300D01*
X51699500Y-92345730D01*
X48396853Y-92345730D01*
X48428215Y-92228686D01*
X48428215Y-92228684D01*
X48485602Y-91866353D01*
X48504803Y-91500000D01*
X48504803Y-91499999D01*
X48485602Y-91133646D01*
X48428215Y-90771315D01*
X48428215Y-90771313D01*
X48333263Y-90416948D01*
X48201795Y-90074464D01*
X48035245Y-89747594D01*
X47835446Y-89439929D01*
X47646701Y-89206850D01*
X46294251Y-90559300D01*
X46220412Y-90457670D01*
X46042330Y-90279588D01*
X45940698Y-90205748D01*
X47293149Y-88853297D01*
X47060070Y-88664553D01*
X46752406Y-88464754D01*
X46425535Y-88298204D01*
X46083051Y-88166736D01*
X45728685Y-88071784D01*
X45366353Y-88014397D01*
X45000001Y-87995197D01*
X44999999Y-87995197D01*
X44633646Y-88014397D01*
X44271315Y-88071784D01*
X44271313Y-88071784D01*
X43916948Y-88166736D01*
X43574464Y-88298204D01*
X43247594Y-88464754D01*
X42939924Y-88664557D01*
X42706849Y-88853296D01*
X42706849Y-88853297D01*
X44059301Y-90205748D01*
X43957670Y-90279588D01*
X43779588Y-90457670D01*
X43705748Y-90559301D01*
X42353297Y-89206849D01*
X42353296Y-89206849D01*
X42164557Y-89439924D01*
X41964754Y-89747594D01*
X41798204Y-90074464D01*
X41740264Y-90225404D01*
X41697862Y-90280936D01*
X41632168Y-90304729D01*
X41564039Y-90289227D01*
X41515107Y-90239354D01*
X41500500Y-90180966D01*
X41500500Y-84709997D01*
X54329196Y-84709997D01*
X54329196Y-84710002D01*
X54350279Y-84843121D01*
X54350280Y-84843124D01*
X54350281Y-84843126D01*
X54411472Y-84963220D01*
X54411473Y-84963221D01*
X54411476Y-84963225D01*
X54506774Y-85058523D01*
X54506778Y-85058526D01*
X54506780Y-85058528D01*
X54626874Y-85119719D01*
X54626876Y-85119719D01*
X54626878Y-85119720D01*
X54759998Y-85140804D01*
X54760000Y-85140804D01*
X54760002Y-85140804D01*
X54893121Y-85119720D01*
X54893121Y-85119719D01*
X54893126Y-85119719D01*
X55013220Y-85058528D01*
X55108528Y-84963220D01*
X55169719Y-84843126D01*
X55176549Y-84800002D01*
X55190804Y-84710002D01*
X55190804Y-84709997D01*
X55169720Y-84576878D01*
X55169719Y-84576876D01*
X55169719Y-84576874D01*
X55108528Y-84456780D01*
X55108526Y-84456778D01*
X55108523Y-84456774D01*
X55013225Y-84361476D01*
X55013221Y-84361473D01*
X55013220Y-84361472D01*
X54893126Y-84300281D01*
X54893124Y-84300280D01*
X54893121Y-84300279D01*
X54760002Y-84279196D01*
X54759998Y-84279196D01*
X54626878Y-84300279D01*
X54506778Y-84361473D01*
X54506774Y-84361476D01*
X54411476Y-84456774D01*
X54411473Y-84456778D01*
X54350279Y-84576878D01*
X54329196Y-84709997D01*
X41500500Y-84709997D01*
X41500500Y-71396530D01*
X42334500Y-71396530D01*
X42334500Y-71603469D01*
X42374868Y-71806412D01*
X42374870Y-71806420D01*
X42446769Y-71980000D01*
X42454059Y-71997598D01*
X42498151Y-72063587D01*
X42569024Y-72169657D01*
X42715342Y-72315975D01*
X42715345Y-72315977D01*
X42887402Y-72430941D01*
X43078580Y-72510130D01*
X43281530Y-72550499D01*
X43281534Y-72550500D01*
X43281535Y-72550500D01*
X43738466Y-72550500D01*
X43738467Y-72550499D01*
X43941420Y-72510130D01*
X44132598Y-72430941D01*
X44304655Y-72315977D01*
X44450977Y-72169655D01*
X44565941Y-71997598D01*
X44645130Y-71806420D01*
X44685500Y-71603465D01*
X44685500Y-71396535D01*
X44645130Y-71193580D01*
X44565941Y-71002402D01*
X44450977Y-70830345D01*
X44450975Y-70830342D01*
X44304657Y-70684024D01*
X44204105Y-70616838D01*
X44132598Y-70569059D01*
X44115655Y-70562041D01*
X43941420Y-70489870D01*
X43941412Y-70489868D01*
X43738469Y-70449500D01*
X43738465Y-70449500D01*
X43281535Y-70449500D01*
X43281530Y-70449500D01*
X43078587Y-70489868D01*
X43078579Y-70489870D01*
X42887403Y-70569058D01*
X42715342Y-70684024D01*
X42569024Y-70830342D01*
X42454058Y-71002403D01*
X42374870Y-71193579D01*
X42374868Y-71193587D01*
X42334500Y-71396530D01*
X41500500Y-71396530D01*
X41500500Y-68896530D01*
X42334500Y-68896530D01*
X42334500Y-69103469D01*
X42374868Y-69306412D01*
X42374870Y-69306420D01*
X42417658Y-69409720D01*
X42454059Y-69497598D01*
X42498151Y-69563587D01*
X42569024Y-69669657D01*
X42715342Y-69815975D01*
X42715345Y-69815977D01*
X42887402Y-69930941D01*
X43078580Y-70010130D01*
X43281530Y-70050499D01*
X43281534Y-70050500D01*
X43281535Y-70050500D01*
X43738466Y-70050500D01*
X43738467Y-70050499D01*
X43941420Y-70010130D01*
X44132598Y-69930941D01*
X44304655Y-69815977D01*
X44450977Y-69669655D01*
X44565941Y-69497598D01*
X44645130Y-69306420D01*
X44685500Y-69103465D01*
X44685500Y-68896535D01*
X44645130Y-68693580D01*
X44565941Y-68502402D01*
X44450977Y-68330345D01*
X44450975Y-68330342D01*
X44304657Y-68184024D01*
X44218626Y-68126541D01*
X44132598Y-68069059D01*
X44078807Y-68046778D01*
X43941420Y-67989870D01*
X43941412Y-67989868D01*
X43738469Y-67949500D01*
X43738465Y-67949500D01*
X43281535Y-67949500D01*
X43281530Y-67949500D01*
X43078587Y-67989868D01*
X43078579Y-67989870D01*
X42887403Y-68069058D01*
X42715342Y-68184024D01*
X42569024Y-68330342D01*
X42454058Y-68502403D01*
X42374870Y-68693579D01*
X42374868Y-68693587D01*
X42334500Y-68896530D01*
X41500500Y-68896530D01*
X41500500Y-63896530D01*
X42334500Y-63896530D01*
X42334500Y-64103469D01*
X42374868Y-64306412D01*
X42374870Y-64306420D01*
X42441332Y-64466874D01*
X42454059Y-64497598D01*
X42476375Y-64530996D01*
X42569024Y-64669657D01*
X42715342Y-64815975D01*
X42887405Y-64930943D01*
X43008472Y-64981090D01*
X43018742Y-64985905D01*
X43314292Y-65141373D01*
X43455699Y-65215757D01*
X43505866Y-65264389D01*
X43521778Y-65332422D01*
X43498381Y-65398258D01*
X43443105Y-65440994D01*
X43397971Y-65449500D01*
X43281530Y-65449500D01*
X43078587Y-65489868D01*
X43078579Y-65489870D01*
X42887403Y-65569058D01*
X42715342Y-65684024D01*
X42569024Y-65830342D01*
X42454058Y-66002403D01*
X42374870Y-66193579D01*
X42374868Y-66193587D01*
X42334500Y-66396530D01*
X42334500Y-66603469D01*
X42374868Y-66806412D01*
X42374870Y-66806420D01*
X42435719Y-66953323D01*
X42454059Y-66997598D01*
X42498151Y-67063587D01*
X42569024Y-67169657D01*
X42715342Y-67315975D01*
X42715345Y-67315977D01*
X42887402Y-67430941D01*
X43078580Y-67510130D01*
X43110622Y-67516503D01*
X43161743Y-67526672D01*
X43182329Y-67532656D01*
X43197333Y-67538466D01*
X43197336Y-67538466D01*
X43197338Y-67538467D01*
X43751069Y-67635286D01*
X44741231Y-67808416D01*
X44803879Y-67839353D01*
X44807555Y-67842882D01*
X58703906Y-81739233D01*
X58778129Y-81782086D01*
X58860915Y-81804268D01*
X59969769Y-81804268D01*
X59997303Y-81807364D01*
X60231088Y-81860605D01*
X60324250Y-81881822D01*
X60336139Y-81886133D01*
X60336355Y-81885469D01*
X60345638Y-81888485D01*
X60345642Y-81888487D01*
X60412205Y-81899029D01*
X60478766Y-81909572D01*
X60478768Y-81909572D01*
X60478770Y-81909572D01*
X60611889Y-81888488D01*
X60611889Y-81888487D01*
X60611894Y-81888487D01*
X60731988Y-81827296D01*
X60827296Y-81731988D01*
X60888487Y-81611894D01*
X60909572Y-81478768D01*
X60903283Y-81439058D01*
X60888488Y-81345644D01*
X60883618Y-81336087D01*
X60870721Y-81267417D01*
X60896997Y-81202677D01*
X60954103Y-81162419D01*
X61023909Y-81159427D01*
X61081783Y-81192110D01*
X68369534Y-88479861D01*
X68369535Y-88479862D01*
X68430138Y-88540465D01*
X68430140Y-88540466D01*
X68430144Y-88540469D01*
X68504355Y-88583314D01*
X68504362Y-88583318D01*
X68587147Y-88605500D01*
X68587149Y-88605500D01*
X87593389Y-88605500D01*
X87660428Y-88625185D01*
X87706183Y-88677989D01*
X87716127Y-88747147D01*
X87687102Y-88810703D01*
X87681070Y-88817181D01*
X87651476Y-88846774D01*
X87651473Y-88846778D01*
X87590279Y-88966878D01*
X87569196Y-89099997D01*
X87569196Y-89100002D01*
X87590279Y-89233121D01*
X87590280Y-89233124D01*
X87590281Y-89233126D01*
X87651472Y-89353220D01*
X87651473Y-89353221D01*
X87651476Y-89353225D01*
X87746774Y-89448523D01*
X87746778Y-89448526D01*
X87746780Y-89448528D01*
X87866874Y-89509719D01*
X87866876Y-89509719D01*
X87866878Y-89509720D01*
X87999998Y-89530804D01*
X88000000Y-89530804D01*
X88000002Y-89530804D01*
X88133121Y-89509720D01*
X88133121Y-89509719D01*
X88133126Y-89509719D01*
X88253220Y-89448528D01*
X88348528Y-89353220D01*
X88409719Y-89233126D01*
X88430804Y-89100000D01*
X88409719Y-88966874D01*
X88348528Y-88846780D01*
X88348526Y-88846778D01*
X88348523Y-88846774D01*
X88318930Y-88817181D01*
X88285445Y-88755858D01*
X88290429Y-88686166D01*
X88332301Y-88630233D01*
X88397765Y-88605816D01*
X88406611Y-88605500D01*
X90262851Y-88605500D01*
X90262853Y-88605500D01*
X90345639Y-88583318D01*
X90419862Y-88540465D01*
X94292819Y-84667506D01*
X94354142Y-84634022D01*
X94423834Y-84639006D01*
X94479767Y-84680878D01*
X94504184Y-84746342D01*
X94504500Y-84755188D01*
X94504500Y-85524269D01*
X94507353Y-85554699D01*
X94507353Y-85554701D01*
X94552206Y-85682880D01*
X94552207Y-85682882D01*
X94632850Y-85792150D01*
X94742118Y-85872793D01*
X94784463Y-85887610D01*
X94870299Y-85917646D01*
X94900730Y-85920500D01*
X94900734Y-85920500D01*
X96459270Y-85920500D01*
X96489699Y-85917646D01*
X96489701Y-85917646D01*
X96560688Y-85892806D01*
X96617882Y-85872793D01*
X96727150Y-85792150D01*
X96807793Y-85682882D01*
X96830219Y-85618790D01*
X96852646Y-85554701D01*
X96852646Y-85554699D01*
X96855500Y-85524269D01*
X96855500Y-84215730D01*
X96852646Y-84185300D01*
X96852646Y-84185298D01*
X96813394Y-84073126D01*
X96807793Y-84057118D01*
X96727150Y-83947850D01*
X96617882Y-83867207D01*
X96617880Y-83867206D01*
X96489700Y-83822353D01*
X96459270Y-83819500D01*
X96459266Y-83819500D01*
X95813132Y-83819500D01*
X95746093Y-83799815D01*
X95700338Y-83747011D01*
X95690394Y-83677853D01*
X95719419Y-83614297D01*
X95753849Y-83586589D01*
X95985370Y-83460566D01*
X96196542Y-83345619D01*
X96208366Y-83339973D01*
X96211314Y-83338751D01*
X96302598Y-83300941D01*
X96474655Y-83185977D01*
X96620977Y-83039655D01*
X96735941Y-82867598D01*
X96815130Y-82676420D01*
X96855500Y-82473465D01*
X96855500Y-82266535D01*
X96815130Y-82063580D01*
X96735941Y-81872402D01*
X96620977Y-81700345D01*
X96620975Y-81700342D01*
X96474657Y-81554024D01*
X96362027Y-81478768D01*
X96302598Y-81439059D01*
X96111420Y-81359870D01*
X96111412Y-81359868D01*
X95908469Y-81319500D01*
X95908465Y-81319500D01*
X95451535Y-81319500D01*
X95451530Y-81319500D01*
X95248587Y-81359868D01*
X95248579Y-81359870D01*
X95057403Y-81439058D01*
X94885342Y-81554024D01*
X94739024Y-81700342D01*
X94624058Y-81872403D01*
X94544870Y-82063579D01*
X94544868Y-82063587D01*
X94504500Y-82266530D01*
X94504500Y-82442741D01*
X94504267Y-82450340D01*
X94436165Y-83559510D01*
X94412409Y-83625217D01*
X94400079Y-83639592D01*
X90121492Y-87918181D01*
X90060169Y-87951666D01*
X90033811Y-87954500D01*
X88905189Y-87954500D01*
X88838150Y-87934815D01*
X88792395Y-87882011D01*
X88782451Y-87812853D01*
X88811476Y-87749297D01*
X88817508Y-87742819D01*
X88966731Y-87593595D01*
X89890251Y-86670074D01*
X89911902Y-86652799D01*
X90207195Y-86467057D01*
X90209384Y-86465157D01*
X90234354Y-86448330D01*
X90273220Y-86428528D01*
X90368528Y-86333220D01*
X90429719Y-86213126D01*
X90429720Y-86213121D01*
X90450804Y-86080002D01*
X90450804Y-86079997D01*
X90429720Y-85946878D01*
X90429719Y-85946876D01*
X90429719Y-85946874D01*
X90368528Y-85826780D01*
X90368526Y-85826778D01*
X90368523Y-85826774D01*
X90273225Y-85731476D01*
X90273221Y-85731473D01*
X90273220Y-85731472D01*
X90153126Y-85670281D01*
X90153124Y-85670280D01*
X90153121Y-85670279D01*
X90020002Y-85649196D01*
X90019998Y-85649196D01*
X89886878Y-85670279D01*
X89766778Y-85731473D01*
X89766774Y-85731476D01*
X89671472Y-85826778D01*
X89651654Y-85865673D01*
X89636176Y-85887610D01*
X89636672Y-85887995D01*
X89632940Y-85892806D01*
X89447200Y-86188094D01*
X89429919Y-86209752D01*
X88211492Y-87428181D01*
X88150169Y-87461666D01*
X88123811Y-87464500D01*
X69316189Y-87464500D01*
X69249150Y-87444815D01*
X69228508Y-87428181D01*
X67917824Y-86117497D01*
X80269196Y-86117497D01*
X80269196Y-86117502D01*
X80290279Y-86250621D01*
X80290280Y-86250624D01*
X80290281Y-86250626D01*
X80351472Y-86370720D01*
X80351473Y-86370721D01*
X80351476Y-86370725D01*
X80446774Y-86466023D01*
X80446778Y-86466026D01*
X80446780Y-86466028D01*
X80566874Y-86527219D01*
X80566876Y-86527219D01*
X80566878Y-86527220D01*
X80699998Y-86548304D01*
X80700000Y-86548304D01*
X80700002Y-86548304D01*
X80833121Y-86527220D01*
X80833121Y-86527219D01*
X80833126Y-86527219D01*
X80953220Y-86466028D01*
X81048528Y-86370720D01*
X81109719Y-86250626D01*
X81109720Y-86250621D01*
X81130804Y-86117502D01*
X81130804Y-86117497D01*
X81109720Y-85984378D01*
X81109719Y-85984376D01*
X81109719Y-85984374D01*
X81048528Y-85864280D01*
X81048525Y-85864277D01*
X81047364Y-85862678D01*
X81046553Y-85860405D01*
X81044097Y-85855585D01*
X81044720Y-85855267D01*
X81037895Y-85836140D01*
X81011592Y-85825898D01*
X80999635Y-85815386D01*
X80953225Y-85768976D01*
X80953221Y-85768973D01*
X80953220Y-85768972D01*
X80833126Y-85707781D01*
X80833124Y-85707780D01*
X80833121Y-85707779D01*
X80700002Y-85686696D01*
X80699998Y-85686696D01*
X80566878Y-85707779D01*
X80446778Y-85768973D01*
X80446774Y-85768976D01*
X80351476Y-85864274D01*
X80351473Y-85864278D01*
X80290279Y-85984378D01*
X80269196Y-86117497D01*
X67917824Y-86117497D01*
X67200324Y-85399997D01*
X81104196Y-85399997D01*
X81104196Y-85400002D01*
X81125279Y-85533121D01*
X81125280Y-85533124D01*
X81125281Y-85533126D01*
X81184422Y-85649196D01*
X81186473Y-85653221D01*
X81187637Y-85654823D01*
X81188448Y-85657097D01*
X81190903Y-85661915D01*
X81190280Y-85662232D01*
X81197103Y-85681358D01*
X81223405Y-85691599D01*
X81235364Y-85702113D01*
X81281774Y-85748523D01*
X81281778Y-85748526D01*
X81281780Y-85748528D01*
X81401874Y-85809719D01*
X81401876Y-85809719D01*
X81401878Y-85809720D01*
X81534998Y-85830804D01*
X81535000Y-85830804D01*
X81535002Y-85830804D01*
X81668121Y-85809720D01*
X81668121Y-85809719D01*
X81668126Y-85809719D01*
X81788220Y-85748528D01*
X81883528Y-85653220D01*
X81944719Y-85533126D01*
X81965804Y-85400000D01*
X81944719Y-85266874D01*
X81883528Y-85146780D01*
X81883526Y-85146778D01*
X81883523Y-85146774D01*
X81788225Y-85051476D01*
X81788221Y-85051473D01*
X81788220Y-85051472D01*
X81668126Y-84990281D01*
X81668124Y-84990280D01*
X81668121Y-84990279D01*
X81535002Y-84969196D01*
X81534998Y-84969196D01*
X81401878Y-84990279D01*
X81281778Y-85051473D01*
X81281774Y-85051476D01*
X81186476Y-85146774D01*
X81186473Y-85146778D01*
X81125279Y-85266878D01*
X81104196Y-85399997D01*
X67200324Y-85399997D01*
X66600324Y-84799997D01*
X87169196Y-84799997D01*
X87169196Y-84800002D01*
X87190279Y-84933121D01*
X87190280Y-84933124D01*
X87190281Y-84933126D01*
X87251472Y-85053220D01*
X87251473Y-85053221D01*
X87251476Y-85053225D01*
X87346774Y-85148523D01*
X87346778Y-85148526D01*
X87346780Y-85148528D01*
X87466874Y-85209719D01*
X87466876Y-85209719D01*
X87466878Y-85209720D01*
X87599998Y-85230804D01*
X87600000Y-85230804D01*
X87600002Y-85230804D01*
X87733121Y-85209720D01*
X87733121Y-85209719D01*
X87733126Y-85209719D01*
X87853220Y-85148528D01*
X87948528Y-85053220D01*
X88009719Y-84933126D01*
X88023974Y-84843126D01*
X88030027Y-84804908D01*
X88032310Y-84800091D01*
X88032226Y-84799907D01*
X88272689Y-84799907D01*
X88274973Y-84804908D01*
X88295279Y-84933121D01*
X88295280Y-84933124D01*
X88295281Y-84933126D01*
X88356472Y-85053220D01*
X88356473Y-85053221D01*
X88356476Y-85053225D01*
X88451774Y-85148523D01*
X88451778Y-85148526D01*
X88451780Y-85148528D01*
X88571874Y-85209719D01*
X88571876Y-85209719D01*
X88571878Y-85209720D01*
X88704998Y-85230804D01*
X88705000Y-85230804D01*
X88705002Y-85230804D01*
X88838121Y-85209720D01*
X88838121Y-85209719D01*
X88838126Y-85209719D01*
X88958220Y-85148528D01*
X89053528Y-85053220D01*
X89114719Y-84933126D01*
X89128974Y-84843126D01*
X89130027Y-84836478D01*
X89146996Y-84800680D01*
X89146374Y-84799318D01*
X89358003Y-84799318D01*
X89374973Y-84836478D01*
X89390279Y-84933121D01*
X89390280Y-84933124D01*
X89390281Y-84933126D01*
X89451472Y-85053220D01*
X89451473Y-85053221D01*
X89451476Y-85053225D01*
X89546774Y-85148523D01*
X89546778Y-85148526D01*
X89546780Y-85148528D01*
X89666874Y-85209719D01*
X89666876Y-85209719D01*
X89666878Y-85209720D01*
X89799998Y-85230804D01*
X89800000Y-85230804D01*
X89800002Y-85230804D01*
X89933121Y-85209720D01*
X89933121Y-85209719D01*
X89933126Y-85209719D01*
X90053220Y-85148528D01*
X90148528Y-85053220D01*
X90209719Y-84933126D01*
X90223974Y-84843126D01*
X90230804Y-84800002D01*
X90230804Y-84799997D01*
X90209720Y-84666878D01*
X90209719Y-84666876D01*
X90209719Y-84666874D01*
X90148528Y-84546780D01*
X90148526Y-84546778D01*
X90148523Y-84546774D01*
X90053225Y-84451476D01*
X90053221Y-84451473D01*
X90053220Y-84451472D01*
X89933126Y-84390281D01*
X89933124Y-84390280D01*
X89933121Y-84390279D01*
X89800002Y-84369196D01*
X89799998Y-84369196D01*
X89666878Y-84390279D01*
X89546778Y-84451473D01*
X89546774Y-84451476D01*
X89451476Y-84546774D01*
X89451473Y-84546778D01*
X89390279Y-84666878D01*
X89374973Y-84763522D01*
X89358003Y-84799318D01*
X89146374Y-84799318D01*
X89130027Y-84763522D01*
X89114720Y-84666878D01*
X89114719Y-84666876D01*
X89114719Y-84666874D01*
X89053528Y-84546780D01*
X89053526Y-84546778D01*
X89053523Y-84546774D01*
X88958225Y-84451476D01*
X88958221Y-84451473D01*
X88958220Y-84451472D01*
X88838126Y-84390281D01*
X88838124Y-84390280D01*
X88838121Y-84390279D01*
X88705002Y-84369196D01*
X88704998Y-84369196D01*
X88571878Y-84390279D01*
X88451778Y-84451473D01*
X88451774Y-84451476D01*
X88356476Y-84546774D01*
X88356473Y-84546778D01*
X88295279Y-84666878D01*
X88274973Y-84795091D01*
X88272689Y-84799907D01*
X88032226Y-84799907D01*
X88030027Y-84795091D01*
X88009720Y-84666878D01*
X88009719Y-84666876D01*
X88009719Y-84666874D01*
X87948528Y-84546780D01*
X87948526Y-84546778D01*
X87948523Y-84546774D01*
X87853225Y-84451476D01*
X87853221Y-84451473D01*
X87853220Y-84451472D01*
X87733126Y-84390281D01*
X87733124Y-84390280D01*
X87733121Y-84390279D01*
X87600002Y-84369196D01*
X87599998Y-84369196D01*
X87466878Y-84390279D01*
X87346778Y-84451473D01*
X87346774Y-84451476D01*
X87251476Y-84546774D01*
X87251473Y-84546778D01*
X87190279Y-84666878D01*
X87169196Y-84799997D01*
X66600324Y-84799997D01*
X65740324Y-83939997D01*
X77499196Y-83939997D01*
X77499196Y-83940002D01*
X77520279Y-84073121D01*
X77520280Y-84073124D01*
X77520281Y-84073126D01*
X77581472Y-84193220D01*
X77581473Y-84193221D01*
X77581476Y-84193225D01*
X77676774Y-84288523D01*
X77676778Y-84288526D01*
X77676780Y-84288528D01*
X77796874Y-84349719D01*
X77796876Y-84349719D01*
X77796878Y-84349720D01*
X77929998Y-84370804D01*
X77930000Y-84370804D01*
X77930002Y-84370804D01*
X78063121Y-84349720D01*
X78063121Y-84349719D01*
X78063126Y-84349719D01*
X78183220Y-84288528D01*
X78278528Y-84193220D01*
X78339719Y-84073126D01*
X78342254Y-84057119D01*
X78359617Y-83947497D01*
X80169196Y-83947497D01*
X80169196Y-83947502D01*
X80190279Y-84080621D01*
X80190280Y-84080624D01*
X80190281Y-84080626D01*
X80251472Y-84200720D01*
X80251473Y-84200721D01*
X80251476Y-84200725D01*
X80346774Y-84296023D01*
X80346778Y-84296026D01*
X80346780Y-84296028D01*
X80466874Y-84357219D01*
X80466876Y-84357219D01*
X80466878Y-84357220D01*
X80599998Y-84378304D01*
X80600000Y-84378304D01*
X80600002Y-84378304D01*
X80733121Y-84357220D01*
X80733121Y-84357219D01*
X80733126Y-84357219D01*
X80853220Y-84296028D01*
X80948528Y-84200720D01*
X81009719Y-84080626D01*
X81013442Y-84057119D01*
X81030804Y-83947502D01*
X81030804Y-83947497D01*
X81009720Y-83814378D01*
X81009719Y-83814376D01*
X81009719Y-83814374D01*
X80948528Y-83694280D01*
X80948526Y-83694278D01*
X80948523Y-83694274D01*
X80853225Y-83598976D01*
X80853221Y-83598973D01*
X80853220Y-83598972D01*
X80733126Y-83537781D01*
X80733124Y-83537780D01*
X80733121Y-83537779D01*
X80600002Y-83516696D01*
X80599998Y-83516696D01*
X80466878Y-83537779D01*
X80466874Y-83537780D01*
X80466874Y-83537781D01*
X80386811Y-83578575D01*
X80346778Y-83598973D01*
X80346774Y-83598976D01*
X80251476Y-83694274D01*
X80251473Y-83694278D01*
X80251472Y-83694280D01*
X80203118Y-83789181D01*
X80190279Y-83814378D01*
X80169196Y-83947497D01*
X78359617Y-83947497D01*
X78360804Y-83940002D01*
X78360804Y-83939996D01*
X78339720Y-83806880D01*
X78339719Y-83806879D01*
X78339719Y-83806874D01*
X78339716Y-83806868D01*
X78338094Y-83801875D01*
X78333025Y-83789173D01*
X78235614Y-83460566D01*
X78230500Y-83425324D01*
X78230500Y-83399997D01*
X81719196Y-83399997D01*
X81719196Y-83400002D01*
X81740279Y-83533121D01*
X81740280Y-83533124D01*
X81740281Y-83533126D01*
X81801472Y-83653220D01*
X81801473Y-83653221D01*
X81801476Y-83653225D01*
X81896774Y-83748523D01*
X81896778Y-83748526D01*
X81896780Y-83748528D01*
X82016874Y-83809719D01*
X82016876Y-83809719D01*
X82016878Y-83809720D01*
X82149998Y-83830804D01*
X82150000Y-83830804D01*
X82150002Y-83830804D01*
X82283121Y-83809720D01*
X82283121Y-83809719D01*
X82283126Y-83809719D01*
X82403220Y-83748528D01*
X82498528Y-83653220D01*
X82559719Y-83533126D01*
X82562321Y-83516696D01*
X82580804Y-83400002D01*
X82580804Y-83399997D01*
X82559720Y-83266878D01*
X82559719Y-83266876D01*
X82559719Y-83266874D01*
X82498528Y-83146780D01*
X82498526Y-83146778D01*
X82498523Y-83146774D01*
X82403225Y-83051476D01*
X82403221Y-83051473D01*
X82403220Y-83051472D01*
X82283126Y-82990281D01*
X82283124Y-82990280D01*
X82283121Y-82990279D01*
X82150002Y-82969196D01*
X82149998Y-82969196D01*
X82016878Y-82990279D01*
X81896778Y-83051473D01*
X81896774Y-83051476D01*
X81801476Y-83146774D01*
X81801473Y-83146778D01*
X81740279Y-83266878D01*
X81719196Y-83399997D01*
X78230500Y-83399997D01*
X78230500Y-82525833D01*
X78250185Y-82458794D01*
X78266819Y-82438152D01*
X80938441Y-79766530D01*
X94504500Y-79766530D01*
X94504500Y-79973469D01*
X94535160Y-80127605D01*
X94544870Y-80176420D01*
X94624059Y-80367598D01*
X94681541Y-80453626D01*
X94739024Y-80539657D01*
X94885342Y-80685975D01*
X94885345Y-80685977D01*
X95057402Y-80800941D01*
X95248580Y-80880130D01*
X95451530Y-80920499D01*
X95451534Y-80920500D01*
X95451535Y-80920500D01*
X95908466Y-80920500D01*
X95908467Y-80920499D01*
X96111420Y-80880130D01*
X96302598Y-80800941D01*
X96474655Y-80685977D01*
X96620977Y-80539655D01*
X96735941Y-80367598D01*
X96815130Y-80176420D01*
X96855500Y-79973465D01*
X96855500Y-79766535D01*
X96815130Y-79563580D01*
X96735941Y-79372402D01*
X96620977Y-79200345D01*
X96620975Y-79200342D01*
X96474657Y-79054024D01*
X96318110Y-78949424D01*
X96302598Y-78939059D01*
X96285865Y-78932128D01*
X96111420Y-78859870D01*
X96111412Y-78859868D01*
X95908469Y-78819500D01*
X95908465Y-78819500D01*
X95451535Y-78819500D01*
X95451530Y-78819500D01*
X95248587Y-78859868D01*
X95248579Y-78859870D01*
X95057403Y-78939058D01*
X94885342Y-79054024D01*
X94739024Y-79200342D01*
X94624058Y-79372403D01*
X94544870Y-79563579D01*
X94544868Y-79563587D01*
X94504500Y-79766530D01*
X80938441Y-79766530D01*
X81770652Y-78934319D01*
X81831975Y-78900834D01*
X81858333Y-78898000D01*
X82270327Y-78898000D01*
X82305570Y-78903114D01*
X82634173Y-79000525D01*
X82646890Y-79005599D01*
X82651872Y-79007218D01*
X82651874Y-79007219D01*
X82696249Y-79014247D01*
X82784998Y-79028304D01*
X82785000Y-79028304D01*
X82785002Y-79028304D01*
X82918121Y-79007220D01*
X82918121Y-79007219D01*
X82918126Y-79007219D01*
X83038220Y-78946028D01*
X83133528Y-78850720D01*
X83194719Y-78730626D01*
X83209200Y-78639196D01*
X83215804Y-78597502D01*
X83215804Y-78597497D01*
X83194720Y-78464378D01*
X83194719Y-78464376D01*
X83194719Y-78464374D01*
X83133528Y-78344280D01*
X83133526Y-78344278D01*
X83133523Y-78344274D01*
X83038225Y-78248976D01*
X83038221Y-78248973D01*
X83038220Y-78248972D01*
X82918126Y-78187781D01*
X82918124Y-78187780D01*
X82918121Y-78187779D01*
X82785002Y-78166696D01*
X82784998Y-78166696D01*
X82651878Y-78187779D01*
X82646878Y-78189404D01*
X82634179Y-78194472D01*
X82305565Y-78291886D01*
X82270322Y-78297000D01*
X81642938Y-78297000D01*
X81612367Y-78305191D01*
X81566508Y-78317479D01*
X81566507Y-78317480D01*
X81528310Y-78339534D01*
X81497992Y-78357037D01*
X81497987Y-78357041D01*
X77689541Y-82165487D01*
X77689535Y-82165495D01*
X77649982Y-82234004D01*
X77649979Y-82234009D01*
X77629500Y-82310439D01*
X77629500Y-83425323D01*
X77624386Y-83460566D01*
X77526971Y-83789181D01*
X77521905Y-83801875D01*
X77520279Y-83806878D01*
X77499196Y-83939997D01*
X65740324Y-83939997D01*
X61811819Y-80011492D01*
X61778334Y-79950169D01*
X61775500Y-79923811D01*
X61775500Y-79809002D01*
X61778596Y-79781468D01*
X61839749Y-79512939D01*
X61853055Y-79454515D01*
X61857365Y-79442628D01*
X61856701Y-79442413D01*
X61859716Y-79433131D01*
X61859719Y-79433126D01*
X61880804Y-79300000D01*
X61875319Y-79265372D01*
X61859720Y-79166878D01*
X61859719Y-79166876D01*
X61859719Y-79166874D01*
X61828596Y-79105792D01*
X61815701Y-79037125D01*
X61841978Y-78972385D01*
X61899084Y-78932128D01*
X61939082Y-78925500D01*
X75332667Y-78925500D01*
X75399706Y-78945185D01*
X75445461Y-78997989D01*
X75455405Y-79067147D01*
X75426380Y-79130703D01*
X75420348Y-79137181D01*
X75189541Y-79367987D01*
X75189535Y-79367995D01*
X75149982Y-79436504D01*
X75149979Y-79436509D01*
X75129500Y-79512939D01*
X75129500Y-81782823D01*
X75124386Y-81818066D01*
X75026971Y-82146681D01*
X75021905Y-82159375D01*
X75020279Y-82164378D01*
X74999196Y-82297497D01*
X74999196Y-82297502D01*
X75020279Y-82430621D01*
X75020280Y-82430624D01*
X75020281Y-82430626D01*
X75081472Y-82550720D01*
X75081473Y-82550721D01*
X75081476Y-82550725D01*
X75176774Y-82646023D01*
X75176778Y-82646026D01*
X75176780Y-82646028D01*
X75296874Y-82707219D01*
X75296876Y-82707219D01*
X75296878Y-82707220D01*
X75429998Y-82728304D01*
X75430000Y-82728304D01*
X75430002Y-82728304D01*
X75563121Y-82707220D01*
X75563121Y-82707219D01*
X75563126Y-82707219D01*
X75683220Y-82646028D01*
X75778528Y-82550720D01*
X75839719Y-82430626D01*
X75860804Y-82297500D01*
X75860804Y-82297497D01*
X75860804Y-82297496D01*
X75839720Y-82164380D01*
X75839719Y-82164379D01*
X75839719Y-82164374D01*
X75839716Y-82164368D01*
X75838094Y-82159375D01*
X75833025Y-82146673D01*
X75735614Y-81818066D01*
X75730500Y-81782824D01*
X75730500Y-79728333D01*
X75750185Y-79661294D01*
X75766819Y-79640652D01*
X77310652Y-78096819D01*
X77371975Y-78063334D01*
X77398333Y-78060500D01*
X80025158Y-78060500D01*
X80081341Y-78073958D01*
X80359561Y-78215363D01*
X80366265Y-78218619D01*
X80366274Y-78218623D01*
X80367039Y-78218978D01*
X80367040Y-78218978D01*
X80367044Y-78218980D01*
X80367903Y-78219171D01*
X80372711Y-78220899D01*
X80373362Y-78221120D01*
X80373357Y-78221132D01*
X80397256Y-78229723D01*
X80416874Y-78239719D01*
X80416878Y-78239719D01*
X80416879Y-78239720D01*
X80416876Y-78239720D01*
X80549998Y-78260804D01*
X80550000Y-78260804D01*
X80550002Y-78260804D01*
X80683121Y-78239720D01*
X80683121Y-78239719D01*
X80683126Y-78239719D01*
X80803220Y-78178528D01*
X80898528Y-78083220D01*
X80959719Y-77963126D01*
X80959720Y-77963121D01*
X80980804Y-77830002D01*
X80980804Y-77829997D01*
X80959720Y-77696878D01*
X80959719Y-77696876D01*
X80959719Y-77696874D01*
X80898528Y-77576780D01*
X80898526Y-77576778D01*
X80898523Y-77576774D01*
X80803225Y-77481476D01*
X80803221Y-77481473D01*
X80803220Y-77481472D01*
X80683126Y-77420281D01*
X80683124Y-77420280D01*
X80683121Y-77420279D01*
X80550002Y-77399196D01*
X80549999Y-77399196D01*
X80536434Y-77401344D01*
X80517256Y-77402172D01*
X80517268Y-77402601D01*
X80511176Y-77402767D01*
X80098448Y-77454822D01*
X80093439Y-77455880D01*
X80093318Y-77455308D01*
X80064663Y-77459500D01*
X77452370Y-77459500D01*
X77385331Y-77439815D01*
X77339576Y-77387011D01*
X77329632Y-77317853D01*
X77358657Y-77254297D01*
X77364689Y-77247819D01*
X77492508Y-77120000D01*
X94430261Y-77120000D01*
X95275854Y-77120000D01*
X95237370Y-77186657D01*
X95205000Y-77307465D01*
X95205000Y-77432535D01*
X95237370Y-77553343D01*
X95275854Y-77620000D01*
X94430261Y-77620000D01*
X94433315Y-77639285D01*
X94433318Y-77639295D01*
X94489250Y-77811441D01*
X94489252Y-77811447D01*
X94571434Y-77972734D01*
X94677823Y-78119169D01*
X94805830Y-78247176D01*
X94952265Y-78353565D01*
X95113552Y-78435747D01*
X95113555Y-78435748D01*
X95285705Y-78491682D01*
X95430000Y-78514536D01*
X95430000Y-77774145D01*
X95496657Y-77812630D01*
X95617465Y-77845000D01*
X95742535Y-77845000D01*
X95863343Y-77812630D01*
X95930000Y-77774145D01*
X95930000Y-78514535D01*
X96074292Y-78491682D01*
X96074295Y-78491682D01*
X96246444Y-78435748D01*
X96246447Y-78435747D01*
X96407734Y-78353565D01*
X96554169Y-78247176D01*
X96682176Y-78119169D01*
X96788565Y-77972734D01*
X96870747Y-77811447D01*
X96870749Y-77811441D01*
X96926681Y-77639295D01*
X96926684Y-77639285D01*
X96929739Y-77620000D01*
X96084146Y-77620000D01*
X96122630Y-77553343D01*
X96155000Y-77432535D01*
X96155000Y-77307465D01*
X96122630Y-77186657D01*
X96084146Y-77120000D01*
X96929739Y-77120000D01*
X96926684Y-77100714D01*
X96926681Y-77100704D01*
X96870749Y-76928558D01*
X96870747Y-76928552D01*
X96788565Y-76767265D01*
X96682176Y-76620830D01*
X96554169Y-76492823D01*
X96407734Y-76386434D01*
X96246447Y-76304252D01*
X96246444Y-76304251D01*
X96074293Y-76248317D01*
X95930000Y-76225462D01*
X95930000Y-76965854D01*
X95863343Y-76927370D01*
X95742535Y-76895000D01*
X95617465Y-76895000D01*
X95496657Y-76927370D01*
X95430000Y-76965854D01*
X95430000Y-76225462D01*
X95285706Y-76248317D01*
X95113555Y-76304251D01*
X95113552Y-76304252D01*
X94952265Y-76386434D01*
X94805830Y-76492823D01*
X94677823Y-76620830D01*
X94571434Y-76767265D01*
X94489252Y-76928552D01*
X94489250Y-76928558D01*
X94433318Y-77100704D01*
X94433315Y-77100714D01*
X94430261Y-77120000D01*
X77492508Y-77120000D01*
X78611016Y-76001492D01*
X79315011Y-75297497D01*
X80364196Y-75297497D01*
X80364196Y-75297502D01*
X80385279Y-75430621D01*
X80385280Y-75430624D01*
X80385281Y-75430626D01*
X80446472Y-75550720D01*
X80446473Y-75550721D01*
X80446476Y-75550725D01*
X80541774Y-75646023D01*
X80541778Y-75646026D01*
X80541780Y-75646028D01*
X80661874Y-75707219D01*
X80661876Y-75707219D01*
X80661878Y-75707220D01*
X80794998Y-75728304D01*
X80795000Y-75728304D01*
X80795002Y-75728304D01*
X80928121Y-75707220D01*
X80928121Y-75707219D01*
X80928126Y-75707219D01*
X81048220Y-75646028D01*
X81143528Y-75550720D01*
X81204719Y-75430626D01*
X81207887Y-75410626D01*
X81225804Y-75297502D01*
X81225804Y-75297497D01*
X81222636Y-75277497D01*
X82144196Y-75277497D01*
X82144196Y-75277502D01*
X82165279Y-75410621D01*
X82165280Y-75410624D01*
X82165281Y-75410626D01*
X82196606Y-75472104D01*
X82226473Y-75530721D01*
X82226476Y-75530725D01*
X82321774Y-75626023D01*
X82321778Y-75626026D01*
X82321780Y-75626028D01*
X82441874Y-75687219D01*
X82441876Y-75687219D01*
X82441878Y-75687220D01*
X82574998Y-75708304D01*
X82575000Y-75708304D01*
X82575002Y-75708304D01*
X82708121Y-75687220D01*
X82708121Y-75687219D01*
X82708126Y-75687219D01*
X82828220Y-75626028D01*
X82923528Y-75530720D01*
X82984719Y-75410626D01*
X82991534Y-75367596D01*
X83005804Y-75277502D01*
X83005804Y-75277497D01*
X82984720Y-75144378D01*
X82984719Y-75144376D01*
X82984719Y-75144374D01*
X82923528Y-75024280D01*
X82923526Y-75024278D01*
X82923523Y-75024274D01*
X82828225Y-74928976D01*
X82828221Y-74928973D01*
X82828220Y-74928972D01*
X82708126Y-74867781D01*
X82708124Y-74867780D01*
X82708121Y-74867779D01*
X82575002Y-74846696D01*
X82574998Y-74846696D01*
X82441878Y-74867779D01*
X82321778Y-74928973D01*
X82321774Y-74928976D01*
X82226476Y-75024274D01*
X82226473Y-75024278D01*
X82165279Y-75144378D01*
X82144196Y-75277497D01*
X81222636Y-75277497D01*
X81204720Y-75164378D01*
X81204719Y-75164376D01*
X81204719Y-75164374D01*
X81143528Y-75044280D01*
X81143526Y-75044278D01*
X81143523Y-75044274D01*
X81048225Y-74948976D01*
X81048221Y-74948973D01*
X81048220Y-74948972D01*
X80928126Y-74887781D01*
X80928124Y-74887780D01*
X80928121Y-74887779D01*
X80795002Y-74866696D01*
X80794998Y-74866696D01*
X80661878Y-74887779D01*
X80661874Y-74887780D01*
X80661874Y-74887781D01*
X80612734Y-74912819D01*
X80541778Y-74948973D01*
X80541774Y-74948976D01*
X80446476Y-75044274D01*
X80446473Y-75044278D01*
X80446472Y-75044280D01*
X80395470Y-75144378D01*
X80385279Y-75164378D01*
X80364196Y-75297497D01*
X79315011Y-75297497D01*
X79845978Y-74766530D01*
X94504500Y-74766530D01*
X94504500Y-74973469D01*
X94544868Y-75176412D01*
X94544870Y-75176420D01*
X94624059Y-75367598D01*
X94630210Y-75376803D01*
X94739024Y-75539657D01*
X94885342Y-75685975D01*
X94885345Y-75685977D01*
X95057402Y-75800941D01*
X95248580Y-75880130D01*
X95372681Y-75904815D01*
X95451530Y-75920499D01*
X95451534Y-75920500D01*
X95451535Y-75920500D01*
X95908466Y-75920500D01*
X95908467Y-75920499D01*
X96111420Y-75880130D01*
X96302598Y-75800941D01*
X96474655Y-75685977D01*
X96620977Y-75539655D01*
X96735941Y-75367598D01*
X96815130Y-75176420D01*
X96855500Y-74973465D01*
X96855500Y-74766535D01*
X96815130Y-74563580D01*
X96735941Y-74372402D01*
X96620977Y-74200345D01*
X96620975Y-74200342D01*
X96474657Y-74054024D01*
X96306670Y-73941780D01*
X96302598Y-73939059D01*
X96111420Y-73859870D01*
X96111412Y-73859868D01*
X95908469Y-73819500D01*
X95908465Y-73819500D01*
X95451535Y-73819500D01*
X95451530Y-73819500D01*
X95248587Y-73859868D01*
X95248579Y-73859870D01*
X95057403Y-73939058D01*
X94885342Y-74054024D01*
X94739024Y-74200342D01*
X94624058Y-74372403D01*
X94544870Y-74563579D01*
X94544868Y-74563587D01*
X94504500Y-74766530D01*
X79845978Y-74766530D01*
X82345976Y-72266530D01*
X94504500Y-72266530D01*
X94504500Y-72473469D01*
X94544868Y-72676412D01*
X94544870Y-72676420D01*
X94624058Y-72867596D01*
X94739024Y-73039657D01*
X94885342Y-73185975D01*
X94885345Y-73185977D01*
X95057402Y-73300941D01*
X95248580Y-73380130D01*
X95451530Y-73420499D01*
X95451534Y-73420500D01*
X95451535Y-73420500D01*
X95908466Y-73420500D01*
X95908467Y-73420499D01*
X96111420Y-73380130D01*
X96302598Y-73300941D01*
X96474655Y-73185977D01*
X96620977Y-73039655D01*
X96735941Y-72867598D01*
X96815130Y-72676420D01*
X96855500Y-72473465D01*
X96855500Y-72266535D01*
X96815130Y-72063580D01*
X96735941Y-71872402D01*
X96620977Y-71700345D01*
X96620975Y-71700342D01*
X96474657Y-71554024D01*
X96308225Y-71442819D01*
X96302598Y-71439059D01*
X96254316Y-71419060D01*
X96111420Y-71359870D01*
X96111412Y-71359868D01*
X95908469Y-71319500D01*
X95908465Y-71319500D01*
X95451535Y-71319500D01*
X95451530Y-71319500D01*
X95248587Y-71359868D01*
X95248579Y-71359870D01*
X95057403Y-71439058D01*
X94885342Y-71554024D01*
X94739024Y-71700342D01*
X94624058Y-71872403D01*
X94544870Y-72063579D01*
X94544868Y-72063587D01*
X94504500Y-72266530D01*
X82345976Y-72266530D01*
X82470249Y-72142257D01*
X82491898Y-72124984D01*
X82787195Y-71939239D01*
X82789384Y-71937339D01*
X82814354Y-71920512D01*
X82853220Y-71900710D01*
X82948528Y-71805402D01*
X83009719Y-71685308D01*
X83013683Y-71660279D01*
X83030804Y-71552184D01*
X83030804Y-71552179D01*
X83009720Y-71419060D01*
X83009719Y-71419058D01*
X83009719Y-71419056D01*
X82948528Y-71298962D01*
X82948526Y-71298960D01*
X82948523Y-71298956D01*
X82853225Y-71203658D01*
X82853221Y-71203655D01*
X82853220Y-71203654D01*
X82733126Y-71142463D01*
X82733124Y-71142462D01*
X82733121Y-71142461D01*
X82600002Y-71121378D01*
X82599998Y-71121378D01*
X82466878Y-71142461D01*
X82346778Y-71203655D01*
X82346774Y-71203658D01*
X82251472Y-71298960D01*
X82231654Y-71337855D01*
X82216176Y-71359792D01*
X82216672Y-71360177D01*
X82212940Y-71364988D01*
X82027198Y-71660279D01*
X82009917Y-71681937D01*
X79687556Y-74004298D01*
X79626233Y-74037783D01*
X79556541Y-74032799D01*
X79500608Y-73990927D01*
X79489393Y-73972916D01*
X79473528Y-73941780D01*
X79473524Y-73941776D01*
X79473523Y-73941774D01*
X79378225Y-73846476D01*
X79378221Y-73846473D01*
X79378220Y-73846472D01*
X79258126Y-73785281D01*
X79258124Y-73785280D01*
X79258121Y-73785279D01*
X79125002Y-73764196D01*
X79124998Y-73764196D01*
X78991878Y-73785279D01*
X78871778Y-73846473D01*
X78871774Y-73846476D01*
X78776472Y-73941778D01*
X78756654Y-73980673D01*
X78741176Y-74002610D01*
X78741672Y-74002995D01*
X78737937Y-74007810D01*
X78552202Y-74303091D01*
X78534921Y-74324750D01*
X75301492Y-77558181D01*
X75240169Y-77591666D01*
X75213811Y-77594500D01*
X72285189Y-77594500D01*
X72218150Y-77574815D01*
X72172395Y-77522011D01*
X72162451Y-77452853D01*
X72191476Y-77389297D01*
X72197508Y-77382819D01*
X74292830Y-75287497D01*
X75524196Y-75287497D01*
X75524196Y-75287502D01*
X75545279Y-75420621D01*
X75545280Y-75420624D01*
X75545281Y-75420626D01*
X75606472Y-75540720D01*
X75606473Y-75540721D01*
X75606476Y-75540725D01*
X75701774Y-75636023D01*
X75701778Y-75636026D01*
X75701780Y-75636028D01*
X75821874Y-75697219D01*
X75821876Y-75697219D01*
X75821878Y-75697220D01*
X75954998Y-75718304D01*
X75955000Y-75718304D01*
X75955002Y-75718304D01*
X76088121Y-75697220D01*
X76088121Y-75697219D01*
X76088126Y-75697219D01*
X76208220Y-75636028D01*
X76303528Y-75540720D01*
X76364719Y-75420626D01*
X76373118Y-75367596D01*
X76385804Y-75287502D01*
X76385804Y-75287497D01*
X76364720Y-75154378D01*
X76364719Y-75154376D01*
X76364719Y-75154374D01*
X76303528Y-75034280D01*
X76303526Y-75034278D01*
X76303523Y-75034274D01*
X76208225Y-74938976D01*
X76208221Y-74938973D01*
X76208220Y-74938972D01*
X76088126Y-74877781D01*
X76088124Y-74877780D01*
X76088121Y-74877779D01*
X75955002Y-74856696D01*
X75954998Y-74856696D01*
X75821878Y-74877779D01*
X75701778Y-74938973D01*
X75701774Y-74938976D01*
X75606476Y-75034274D01*
X75606473Y-75034278D01*
X75545279Y-75154378D01*
X75524196Y-75287497D01*
X74292830Y-75287497D01*
X76768507Y-72811819D01*
X76829830Y-72778334D01*
X76856188Y-72775500D01*
X78851001Y-72775500D01*
X78878535Y-72778596D01*
X79024418Y-72811819D01*
X79205482Y-72853054D01*
X79217371Y-72857365D01*
X79217587Y-72856701D01*
X79226870Y-72859717D01*
X79226874Y-72859719D01*
X79293437Y-72870261D01*
X79359998Y-72880804D01*
X79360000Y-72880804D01*
X79360002Y-72880804D01*
X79493121Y-72859720D01*
X79493121Y-72859719D01*
X79493126Y-72859719D01*
X79613220Y-72798528D01*
X79708528Y-72703220D01*
X79769719Y-72583126D01*
X79770709Y-72576874D01*
X79790804Y-72450002D01*
X79790804Y-72449997D01*
X79769720Y-72316878D01*
X79769719Y-72316876D01*
X79769719Y-72316874D01*
X79708528Y-72196780D01*
X79708526Y-72196778D01*
X79708523Y-72196774D01*
X79613225Y-72101476D01*
X79613221Y-72101473D01*
X79613220Y-72101472D01*
X79493126Y-72040281D01*
X79493124Y-72040280D01*
X79493121Y-72040279D01*
X79360002Y-72019196D01*
X79359998Y-72019196D01*
X79226874Y-72040280D01*
X79217592Y-72043296D01*
X79217378Y-72042637D01*
X79205490Y-72046942D01*
X78949910Y-72105148D01*
X78878530Y-72121404D01*
X78850998Y-72124500D01*
X76720465Y-72124500D01*
X76720449Y-72124499D01*
X76712853Y-72124499D01*
X76627147Y-72124499D01*
X76571956Y-72139287D01*
X76544360Y-72146682D01*
X76522203Y-72159475D01*
X76516263Y-72162905D01*
X76504572Y-72169655D01*
X76470138Y-72189534D01*
X76470136Y-72189536D01*
X71871492Y-76788181D01*
X71810169Y-76821666D01*
X71783811Y-76824500D01*
X63634476Y-76824500D01*
X63607481Y-76821526D01*
X63602995Y-76820525D01*
X63541851Y-76786718D01*
X63508690Y-76725219D01*
X63514041Y-76655554D01*
X63556207Y-76599842D01*
X63621799Y-76575771D01*
X63629993Y-76575500D01*
X71242851Y-76575500D01*
X71242853Y-76575500D01*
X71325639Y-76553318D01*
X71399862Y-76510465D01*
X78143795Y-69766530D01*
X94504500Y-69766530D01*
X94504500Y-69973469D01*
X94544868Y-70176412D01*
X94544870Y-70176420D01*
X94613317Y-70341666D01*
X94624059Y-70367598D01*
X94632659Y-70380469D01*
X94739024Y-70539657D01*
X94885342Y-70685975D01*
X94885345Y-70685977D01*
X95057402Y-70800941D01*
X95248580Y-70880130D01*
X95451530Y-70920499D01*
X95451534Y-70920500D01*
X95451535Y-70920500D01*
X95908466Y-70920500D01*
X95908467Y-70920499D01*
X96111420Y-70880130D01*
X96302598Y-70800941D01*
X96474655Y-70685977D01*
X96620977Y-70539655D01*
X96735941Y-70367598D01*
X96815130Y-70176420D01*
X96855500Y-69973465D01*
X96855500Y-69766535D01*
X96815130Y-69563580D01*
X96735941Y-69372402D01*
X96620977Y-69200345D01*
X96620975Y-69200342D01*
X96474657Y-69054024D01*
X96355589Y-68974466D01*
X96302598Y-68939059D01*
X96288262Y-68933121D01*
X96111420Y-68859870D01*
X96111412Y-68859868D01*
X95908469Y-68819500D01*
X95908465Y-68819500D01*
X95451535Y-68819500D01*
X95451530Y-68819500D01*
X95248587Y-68859868D01*
X95248579Y-68859870D01*
X95057403Y-68939058D01*
X94885342Y-69054024D01*
X94739024Y-69200342D01*
X94624058Y-69372403D01*
X94544870Y-69563579D01*
X94544868Y-69563587D01*
X94504500Y-69766530D01*
X78143795Y-69766530D01*
X78520251Y-69390074D01*
X78541902Y-69372799D01*
X78837195Y-69187057D01*
X78839384Y-69185157D01*
X78864354Y-69168330D01*
X78903220Y-69148528D01*
X78998528Y-69053220D01*
X79025646Y-68999997D01*
X87969196Y-68999997D01*
X87969196Y-69000002D01*
X87990279Y-69133121D01*
X87990280Y-69133124D01*
X87990281Y-69133126D01*
X88024531Y-69200345D01*
X88051473Y-69253221D01*
X88051476Y-69253225D01*
X88146774Y-69348523D01*
X88146778Y-69348526D01*
X88146780Y-69348528D01*
X88266874Y-69409719D01*
X88266876Y-69409719D01*
X88266878Y-69409720D01*
X88399998Y-69430804D01*
X88400000Y-69430804D01*
X88400002Y-69430804D01*
X88533121Y-69409720D01*
X88533121Y-69409719D01*
X88533126Y-69409719D01*
X88653220Y-69348528D01*
X88748528Y-69253220D01*
X88809719Y-69133126D01*
X88814417Y-69103465D01*
X88830804Y-69000002D01*
X88830804Y-68999997D01*
X89869196Y-68999997D01*
X89869196Y-69000002D01*
X89890279Y-69133121D01*
X89890280Y-69133124D01*
X89890281Y-69133126D01*
X89924531Y-69200345D01*
X89951473Y-69253221D01*
X89951476Y-69253225D01*
X90046774Y-69348523D01*
X90046778Y-69348526D01*
X90046780Y-69348528D01*
X90166874Y-69409719D01*
X90166876Y-69409719D01*
X90166878Y-69409720D01*
X90299998Y-69430804D01*
X90300000Y-69430804D01*
X90300002Y-69430804D01*
X90433121Y-69409720D01*
X90433121Y-69409719D01*
X90433126Y-69409719D01*
X90553220Y-69348528D01*
X90648528Y-69253220D01*
X90709719Y-69133126D01*
X90714417Y-69103465D01*
X90730804Y-69000002D01*
X90730804Y-68999997D01*
X90709720Y-68866878D01*
X90709719Y-68866876D01*
X90709719Y-68866874D01*
X90648528Y-68746780D01*
X90648526Y-68746778D01*
X90648523Y-68746774D01*
X90553225Y-68651476D01*
X90553221Y-68651473D01*
X90553220Y-68651472D01*
X90433126Y-68590281D01*
X90433124Y-68590280D01*
X90433121Y-68590279D01*
X90300002Y-68569196D01*
X90299998Y-68569196D01*
X90166878Y-68590279D01*
X90046778Y-68651473D01*
X90046774Y-68651476D01*
X89951476Y-68746774D01*
X89951473Y-68746778D01*
X89890279Y-68866878D01*
X89869196Y-68999997D01*
X88830804Y-68999997D01*
X88809720Y-68866878D01*
X88809719Y-68866876D01*
X88809719Y-68866874D01*
X88748528Y-68746780D01*
X88748526Y-68746778D01*
X88748523Y-68746774D01*
X88653225Y-68651476D01*
X88653221Y-68651473D01*
X88653220Y-68651472D01*
X88533126Y-68590281D01*
X88533124Y-68590280D01*
X88533121Y-68590279D01*
X88400002Y-68569196D01*
X88399998Y-68569196D01*
X88266878Y-68590279D01*
X88146778Y-68651473D01*
X88146774Y-68651476D01*
X88051476Y-68746774D01*
X88051473Y-68746778D01*
X87990279Y-68866878D01*
X87969196Y-68999997D01*
X79025646Y-68999997D01*
X79059719Y-68933126D01*
X79059720Y-68933121D01*
X79080804Y-68800002D01*
X79080804Y-68799997D01*
X79059720Y-68666878D01*
X79059719Y-68666876D01*
X79059719Y-68666874D01*
X78998528Y-68546780D01*
X78998526Y-68546778D01*
X78998523Y-68546774D01*
X78903225Y-68451476D01*
X78903221Y-68451473D01*
X78903220Y-68451472D01*
X78783126Y-68390281D01*
X78783124Y-68390280D01*
X78783121Y-68390279D01*
X78650002Y-68369196D01*
X78649998Y-68369196D01*
X78516878Y-68390279D01*
X78396778Y-68451473D01*
X78396774Y-68451476D01*
X78301472Y-68546778D01*
X78281654Y-68585673D01*
X78266176Y-68607610D01*
X78266672Y-68607995D01*
X78262940Y-68612806D01*
X78077200Y-68908094D01*
X78059919Y-68929752D01*
X71101492Y-75888181D01*
X71040169Y-75921666D01*
X71013811Y-75924500D01*
X70795189Y-75924500D01*
X70728150Y-75904815D01*
X70682395Y-75852011D01*
X70672451Y-75782853D01*
X70701476Y-75719297D01*
X70707508Y-75712819D01*
X72749299Y-73671028D01*
X79153795Y-67266530D01*
X94504500Y-67266530D01*
X94504500Y-67473469D01*
X94544868Y-67676412D01*
X94544870Y-67676420D01*
X94624058Y-67867596D01*
X94739024Y-68039657D01*
X94885342Y-68185975D01*
X94885345Y-68185977D01*
X95057402Y-68300941D01*
X95248580Y-68380130D01*
X95451530Y-68420499D01*
X95451534Y-68420500D01*
X95451535Y-68420500D01*
X95908466Y-68420500D01*
X95908467Y-68420499D01*
X96111420Y-68380130D01*
X96302598Y-68300941D01*
X96474655Y-68185977D01*
X96620977Y-68039655D01*
X96735941Y-67867598D01*
X96815130Y-67676420D01*
X96855500Y-67473465D01*
X96855500Y-67266535D01*
X96815130Y-67063580D01*
X96735941Y-66872402D01*
X96620977Y-66700345D01*
X96620975Y-66700342D01*
X96474657Y-66554024D01*
X96388626Y-66496541D01*
X96302598Y-66439059D01*
X96233595Y-66410477D01*
X96111420Y-66359870D01*
X96111412Y-66359868D01*
X95908469Y-66319500D01*
X95908465Y-66319500D01*
X95451535Y-66319500D01*
X95451530Y-66319500D01*
X95248587Y-66359868D01*
X95248579Y-66359870D01*
X95057403Y-66439058D01*
X94885342Y-66554024D01*
X94739024Y-66700342D01*
X94624058Y-66872403D01*
X94544870Y-67063579D01*
X94544868Y-67063587D01*
X94504500Y-67266530D01*
X79153795Y-67266530D01*
X81820327Y-64599997D01*
X87969196Y-64599997D01*
X87969196Y-64600002D01*
X87990279Y-64733121D01*
X87990280Y-64733124D01*
X87990281Y-64733126D01*
X88023769Y-64798849D01*
X88051473Y-64853221D01*
X88051476Y-64853225D01*
X88146774Y-64948523D01*
X88146778Y-64948526D01*
X88146780Y-64948528D01*
X88266874Y-65009719D01*
X88266876Y-65009719D01*
X88266878Y-65009720D01*
X88399998Y-65030804D01*
X88400000Y-65030804D01*
X88400002Y-65030804D01*
X88533121Y-65009720D01*
X88533121Y-65009719D01*
X88533126Y-65009719D01*
X88653220Y-64948528D01*
X88748528Y-64853220D01*
X88809719Y-64733126D01*
X88816786Y-64688507D01*
X88830804Y-64600002D01*
X88830804Y-64599997D01*
X88809720Y-64466878D01*
X88809719Y-64466876D01*
X88809719Y-64466874D01*
X88748528Y-64346780D01*
X88748526Y-64346778D01*
X88748523Y-64346774D01*
X88653225Y-64251476D01*
X88653221Y-64251473D01*
X88653220Y-64251472D01*
X88533126Y-64190281D01*
X88533124Y-64190280D01*
X88533121Y-64190279D01*
X88400002Y-64169196D01*
X88399998Y-64169196D01*
X88266878Y-64190279D01*
X88266874Y-64190280D01*
X88266874Y-64190281D01*
X88206969Y-64220804D01*
X88146778Y-64251473D01*
X88146774Y-64251476D01*
X88051476Y-64346774D01*
X88051473Y-64346778D01*
X87990279Y-64466878D01*
X87969196Y-64599997D01*
X81820327Y-64599997D01*
X83220743Y-63199581D01*
X83220748Y-63199578D01*
X83230951Y-63189374D01*
X83230953Y-63189374D01*
X83291556Y-63128771D01*
X83320797Y-63078124D01*
X83334409Y-63054548D01*
X83356592Y-62971762D01*
X83356592Y-62886056D01*
X83356592Y-62878461D01*
X83356591Y-62878443D01*
X83356591Y-60530093D01*
X83359687Y-60502559D01*
X83405434Y-60301681D01*
X83434144Y-60175609D01*
X83438456Y-60163719D01*
X83437792Y-60163504D01*
X83440807Y-60154222D01*
X83440810Y-60154217D01*
X83461895Y-60021091D01*
X83460582Y-60012804D01*
X83440810Y-59887966D01*
X83437796Y-59878689D01*
X83441364Y-59877529D01*
X83431906Y-59827097D01*
X83458197Y-59762363D01*
X83515313Y-59722119D01*
X83555284Y-59715500D01*
X84776180Y-59715500D01*
X84808272Y-59719725D01*
X84867147Y-59735500D01*
X84952853Y-59735500D01*
X88491001Y-59735500D01*
X88518535Y-59738596D01*
X88752320Y-59791837D01*
X88845482Y-59813054D01*
X88857371Y-59817365D01*
X88857587Y-59816701D01*
X88866870Y-59819717D01*
X88866874Y-59819719D01*
X88933437Y-59830261D01*
X88999998Y-59840804D01*
X89000000Y-59840804D01*
X89000002Y-59840804D01*
X89133121Y-59819720D01*
X89133121Y-59819719D01*
X89133126Y-59819719D01*
X89253220Y-59758528D01*
X89348528Y-59663220D01*
X89409719Y-59543126D01*
X89430804Y-59410000D01*
X89421301Y-59350002D01*
X89421300Y-59349997D01*
X96159196Y-59349997D01*
X96159196Y-59350002D01*
X96180279Y-59483121D01*
X96180280Y-59483124D01*
X96180281Y-59483126D01*
X96210853Y-59543126D01*
X96241473Y-59603221D01*
X96241476Y-59603225D01*
X96336774Y-59698523D01*
X96336778Y-59698526D01*
X96336780Y-59698528D01*
X96456874Y-59759719D01*
X96456876Y-59759719D01*
X96456878Y-59759720D01*
X96589998Y-59780804D01*
X96590000Y-59780804D01*
X96590002Y-59780804D01*
X96723121Y-59759720D01*
X96723121Y-59759719D01*
X96723126Y-59759719D01*
X96843220Y-59698528D01*
X96938528Y-59603220D01*
X96999719Y-59483126D01*
X97011301Y-59410000D01*
X97020804Y-59350002D01*
X97020804Y-59349997D01*
X96999720Y-59216878D01*
X96999719Y-59216876D01*
X96999719Y-59216874D01*
X96938528Y-59096780D01*
X96938526Y-59096778D01*
X96938523Y-59096774D01*
X96843225Y-59001476D01*
X96843221Y-59001473D01*
X96843220Y-59001472D01*
X96723126Y-58940281D01*
X96723124Y-58940280D01*
X96723121Y-58940279D01*
X96590002Y-58919196D01*
X96589998Y-58919196D01*
X96456878Y-58940279D01*
X96336778Y-59001473D01*
X96336774Y-59001476D01*
X96241476Y-59096774D01*
X96241473Y-59096778D01*
X96180279Y-59216878D01*
X96159196Y-59349997D01*
X89421300Y-59349997D01*
X89409720Y-59276878D01*
X89409719Y-59276876D01*
X89409719Y-59276874D01*
X89348528Y-59156780D01*
X89348526Y-59156778D01*
X89348523Y-59156774D01*
X89253225Y-59061476D01*
X89253221Y-59061473D01*
X89253220Y-59061472D01*
X89133126Y-59000281D01*
X89133124Y-59000280D01*
X89133121Y-59000279D01*
X89000002Y-58979196D01*
X88999998Y-58979196D01*
X88866874Y-59000280D01*
X88857592Y-59003296D01*
X88857378Y-59002637D01*
X88845490Y-59006942D01*
X88592762Y-59064499D01*
X88518530Y-59081404D01*
X88490998Y-59084500D01*
X85023820Y-59084500D01*
X84991728Y-59080275D01*
X84932854Y-59064500D01*
X84932853Y-59064500D01*
X82770465Y-59064500D01*
X82770449Y-59064499D01*
X82762853Y-59064499D01*
X82677147Y-59064499D01*
X82602504Y-59084500D01*
X82594361Y-59086682D01*
X82594359Y-59086683D01*
X82571054Y-59100137D01*
X82571055Y-59100138D01*
X82520138Y-59129535D01*
X82520135Y-59129537D01*
X70031492Y-71618181D01*
X69970169Y-71651666D01*
X69943811Y-71654500D01*
X66806611Y-71654500D01*
X66739572Y-71634815D01*
X66693817Y-71582011D01*
X66683873Y-71512853D01*
X66712898Y-71449297D01*
X66718930Y-71442819D01*
X66788523Y-71373225D01*
X66788528Y-71373220D01*
X66849719Y-71253126D01*
X66857554Y-71203658D01*
X66867329Y-71141943D01*
X66897258Y-71078808D01*
X66956569Y-71041876D01*
X66975797Y-71038134D01*
X67172013Y-71015839D01*
X67308199Y-71000366D01*
X67308202Y-71000365D01*
X67308205Y-71000365D01*
X67308207Y-71000364D01*
X67313310Y-70999345D01*
X67313368Y-70999637D01*
X67342596Y-70995500D01*
X69472851Y-70995500D01*
X69472853Y-70995500D01*
X69555639Y-70973318D01*
X69629862Y-70930465D01*
X77480046Y-63080279D01*
X77503736Y-63061749D01*
X77506066Y-63060343D01*
X77506079Y-63060338D01*
X77805871Y-62836901D01*
X77823679Y-62825841D01*
X77828220Y-62823528D01*
X77832605Y-62819142D01*
X77834868Y-62816880D01*
X77845002Y-62807801D01*
X77850776Y-62803172D01*
X77857376Y-62797883D01*
X77858620Y-62796812D01*
X77860788Y-62794918D01*
X77864852Y-62789243D01*
X77877971Y-62773776D01*
X77923528Y-62728220D01*
X77984719Y-62608126D01*
X77988042Y-62587147D01*
X78005804Y-62475002D01*
X78005804Y-62474997D01*
X77984720Y-62341878D01*
X77984719Y-62341876D01*
X77984719Y-62341874D01*
X77923528Y-62221780D01*
X77923526Y-62221778D01*
X77923523Y-62221774D01*
X77828225Y-62126476D01*
X77828221Y-62126473D01*
X77828220Y-62126472D01*
X77708126Y-62065281D01*
X77708124Y-62065280D01*
X77708121Y-62065279D01*
X77575002Y-62044196D01*
X77574998Y-62044196D01*
X77441878Y-62065279D01*
X77321778Y-62126473D01*
X77321774Y-62126476D01*
X77226472Y-62221778D01*
X77197765Y-62278118D01*
X77185103Y-62298024D01*
X77178628Y-62306335D01*
X77031474Y-62599300D01*
X77008348Y-62631323D01*
X69331492Y-70308181D01*
X69270169Y-70341666D01*
X69243811Y-70344500D01*
X68556768Y-70344500D01*
X68489729Y-70324815D01*
X68443974Y-70272011D01*
X68434030Y-70202853D01*
X68434294Y-70201104D01*
X68438203Y-70176420D01*
X68440804Y-70160000D01*
X68419719Y-70026874D01*
X68359014Y-69907734D01*
X68345500Y-69851442D01*
X68345500Y-66737149D01*
X68345499Y-66737145D01*
X68341741Y-66723121D01*
X68334804Y-66697229D01*
X68323318Y-66654361D01*
X68293933Y-66603465D01*
X68286157Y-66589997D01*
X69579196Y-66589997D01*
X69579196Y-66590002D01*
X69600279Y-66723121D01*
X69600280Y-66723124D01*
X69600281Y-66723126D01*
X69661472Y-66843220D01*
X69661473Y-66843221D01*
X69661476Y-66843225D01*
X69756774Y-66938523D01*
X69756778Y-66938526D01*
X69756780Y-66938528D01*
X69876874Y-66999719D01*
X69876876Y-66999719D01*
X69876878Y-66999720D01*
X70009998Y-67020804D01*
X70010000Y-67020804D01*
X70010002Y-67020804D01*
X70143121Y-66999720D01*
X70143121Y-66999719D01*
X70143126Y-66999719D01*
X70263220Y-66938528D01*
X70358528Y-66843220D01*
X70419719Y-66723126D01*
X70423821Y-66697229D01*
X70440804Y-66590002D01*
X70440804Y-66589998D01*
X70419719Y-66456876D01*
X70419719Y-66456874D01*
X70419717Y-66456870D01*
X70416701Y-66447587D01*
X70417363Y-66447371D01*
X70413054Y-66435480D01*
X70338596Y-66108530D01*
X70335500Y-66080996D01*
X70335500Y-64776188D01*
X70355185Y-64709149D01*
X70371819Y-64688507D01*
X72598507Y-62461819D01*
X72659830Y-62428334D01*
X72686188Y-62425500D01*
X76342851Y-62425500D01*
X76342853Y-62425500D01*
X76425639Y-62403318D01*
X76499862Y-62360465D01*
X84198507Y-54661818D01*
X84259830Y-54628334D01*
X84286188Y-54625500D01*
X87291001Y-54625500D01*
X87318535Y-54628596D01*
X87464418Y-54661819D01*
X87645482Y-54703054D01*
X87657371Y-54707365D01*
X87657587Y-54706701D01*
X87666870Y-54709717D01*
X87666874Y-54709719D01*
X87733437Y-54720261D01*
X87799998Y-54730804D01*
X87800000Y-54730804D01*
X87800002Y-54730804D01*
X87933121Y-54709720D01*
X87933121Y-54709719D01*
X87933126Y-54709719D01*
X88053220Y-54648528D01*
X88148528Y-54553220D01*
X88209719Y-54433126D01*
X88230804Y-54300000D01*
X88229660Y-54292779D01*
X88209720Y-54166878D01*
X88209719Y-54166876D01*
X88209719Y-54166874D01*
X88148528Y-54046780D01*
X88148526Y-54046778D01*
X88148523Y-54046774D01*
X88053225Y-53951476D01*
X88053221Y-53951473D01*
X88053220Y-53951472D01*
X87933126Y-53890281D01*
X87933124Y-53890280D01*
X87933121Y-53890279D01*
X87800002Y-53869196D01*
X87799998Y-53869196D01*
X87666874Y-53890280D01*
X87657592Y-53893296D01*
X87657378Y-53892637D01*
X87645490Y-53896942D01*
X87398382Y-53953219D01*
X87318530Y-53971404D01*
X87290998Y-53974500D01*
X84057147Y-53974500D01*
X83974360Y-53996682D01*
X83952203Y-54009475D01*
X83946263Y-54012905D01*
X83932559Y-54020816D01*
X83900138Y-54039534D01*
X83900136Y-54039536D01*
X76201492Y-61738181D01*
X76140169Y-61771666D01*
X76113811Y-61774500D01*
X72550465Y-61774500D01*
X72550449Y-61774499D01*
X72542853Y-61774499D01*
X72457147Y-61774499D01*
X72401956Y-61789287D01*
X72374360Y-61796682D01*
X72355805Y-61807395D01*
X72337250Y-61818108D01*
X72300138Y-61839535D01*
X72300135Y-61839537D01*
X69749537Y-64390135D01*
X69749535Y-64390138D01*
X69706682Y-64464359D01*
X69684500Y-64547147D01*
X69684500Y-66080994D01*
X69681404Y-66108529D01*
X69606943Y-66435486D01*
X69602639Y-66447377D01*
X69603297Y-66447591D01*
X69600280Y-66456877D01*
X69579196Y-66589997D01*
X68286157Y-66589997D01*
X68280465Y-66580138D01*
X68219862Y-66519535D01*
X68219860Y-66519533D01*
X67983465Y-66283138D01*
X67946353Y-66261711D01*
X67909243Y-66240285D01*
X67867849Y-66229194D01*
X67826456Y-66218103D01*
X67826455Y-66218103D01*
X67108808Y-66218103D01*
X67041769Y-66198418D01*
X67037047Y-66195190D01*
X67036824Y-66195076D01*
X67036823Y-66195075D01*
X66916729Y-66133884D01*
X66916727Y-66133883D01*
X66916724Y-66133882D01*
X66783605Y-66112799D01*
X66783601Y-66112799D01*
X66650481Y-66133882D01*
X66530381Y-66195076D01*
X66530377Y-66195079D01*
X66435079Y-66290377D01*
X66435076Y-66290381D01*
X66373882Y-66410481D01*
X66352799Y-66543600D01*
X66352799Y-66543605D01*
X66373882Y-66676724D01*
X66373883Y-66676727D01*
X66373884Y-66676729D01*
X66404668Y-66737145D01*
X66435076Y-66796824D01*
X66435079Y-66796828D01*
X66530377Y-66892126D01*
X66530381Y-66892129D01*
X66530383Y-66892131D01*
X66650477Y-66953322D01*
X66650479Y-66953322D01*
X66650481Y-66953323D01*
X66783601Y-66974407D01*
X66783603Y-66974407D01*
X66783605Y-66974407D01*
X66916724Y-66953323D01*
X66916724Y-66953322D01*
X66916729Y-66953322D01*
X67036823Y-66892131D01*
X67036824Y-66892129D01*
X67045518Y-66887700D01*
X67046234Y-66889105D01*
X67101731Y-66869305D01*
X67108808Y-66869103D01*
X67570500Y-66869103D01*
X67637539Y-66888788D01*
X67683294Y-66941592D01*
X67694500Y-66993103D01*
X67694500Y-69822389D01*
X67674815Y-69889428D01*
X67667202Y-69898874D01*
X67667211Y-69898881D01*
X67661473Y-69906778D01*
X67600279Y-70026878D01*
X67579196Y-70159997D01*
X67579196Y-70160000D01*
X67581797Y-70176420D01*
X67585706Y-70201104D01*
X67576750Y-70270397D01*
X67531753Y-70323848D01*
X67465001Y-70344487D01*
X67463232Y-70344500D01*
X67368514Y-70344500D01*
X67324934Y-70336590D01*
X67024199Y-70223694D01*
X67018607Y-70222173D01*
X67018853Y-70221265D01*
X66993261Y-70212729D01*
X66988455Y-70210280D01*
X66988453Y-70210279D01*
X66855332Y-70189196D01*
X66855328Y-70189196D01*
X66722208Y-70210279D01*
X66602108Y-70271473D01*
X66602104Y-70271476D01*
X66506806Y-70366774D01*
X66506803Y-70366778D01*
X66506802Y-70366780D01*
X66449542Y-70479160D01*
X66445609Y-70486878D01*
X66426979Y-70604508D01*
X66397050Y-70667643D01*
X66337738Y-70704574D01*
X66323904Y-70707583D01*
X66306876Y-70710279D01*
X66244834Y-70741892D01*
X66186780Y-70771472D01*
X66186779Y-70771473D01*
X66186774Y-70771476D01*
X66091476Y-70866774D01*
X66091473Y-70866778D01*
X66091472Y-70866780D01*
X66033784Y-70980000D01*
X66030279Y-70986878D01*
X66009196Y-71119997D01*
X66009196Y-71120002D01*
X66030279Y-71253121D01*
X66030280Y-71253124D01*
X66030281Y-71253126D01*
X66087277Y-71364986D01*
X66091473Y-71373221D01*
X66091476Y-71373225D01*
X66161070Y-71442819D01*
X66194555Y-71504142D01*
X66189571Y-71573834D01*
X66147699Y-71629767D01*
X66082235Y-71654184D01*
X66073389Y-71654500D01*
X59309005Y-71654500D01*
X59281470Y-71651404D01*
X58954512Y-71576943D01*
X58942623Y-71572636D01*
X58942409Y-71573297D01*
X58933127Y-71570281D01*
X58933126Y-71570281D01*
X58933124Y-71570280D01*
X58933122Y-71570280D01*
X58800002Y-71549196D01*
X58799998Y-71549196D01*
X58666878Y-71570279D01*
X58546778Y-71631473D01*
X58546774Y-71631476D01*
X58451476Y-71726774D01*
X58451473Y-71726778D01*
X58390279Y-71846878D01*
X58369196Y-71979997D01*
X58369196Y-71980002D01*
X58390279Y-72113121D01*
X58390280Y-72113124D01*
X58390281Y-72113126D01*
X58429214Y-72189536D01*
X58451473Y-72233221D01*
X58451476Y-72233225D01*
X58546774Y-72328523D01*
X58546778Y-72328526D01*
X58546780Y-72328528D01*
X58666874Y-72389719D01*
X58666876Y-72389719D01*
X58666878Y-72389720D01*
X58799998Y-72410804D01*
X58800000Y-72410804D01*
X58800002Y-72410804D01*
X58853250Y-72402370D01*
X58933126Y-72389719D01*
X58933131Y-72389716D01*
X58942413Y-72386701D01*
X58942628Y-72387365D01*
X58954519Y-72383054D01*
X59281466Y-72308596D01*
X59309000Y-72305500D01*
X64501204Y-72305500D01*
X64568243Y-72325185D01*
X64613998Y-72377989D01*
X64623942Y-72447147D01*
X64611690Y-72485790D01*
X64565281Y-72576874D01*
X64565279Y-72576878D01*
X64544196Y-72709997D01*
X64544196Y-72710002D01*
X64565279Y-72843121D01*
X64565280Y-72843124D01*
X64565281Y-72843126D01*
X64626472Y-72963220D01*
X64626473Y-72963221D01*
X64626476Y-72963225D01*
X64721774Y-73058523D01*
X64721778Y-73058526D01*
X64721780Y-73058528D01*
X64841874Y-73119719D01*
X64841876Y-73119719D01*
X64841878Y-73119720D01*
X64974998Y-73140804D01*
X64975000Y-73140804D01*
X64975002Y-73140804D01*
X65108121Y-73119720D01*
X65108121Y-73119719D01*
X65108126Y-73119719D01*
X65228220Y-73058528D01*
X65323528Y-72963220D01*
X65384719Y-72843126D01*
X65391783Y-72798526D01*
X65405804Y-72710002D01*
X65405804Y-72709997D01*
X65384720Y-72576878D01*
X65384719Y-72576876D01*
X65384719Y-72576874D01*
X65338310Y-72485792D01*
X65325415Y-72417126D01*
X65351691Y-72352385D01*
X65408798Y-72312128D01*
X65448796Y-72305500D01*
X70172851Y-72305500D01*
X70172853Y-72305500D01*
X70255639Y-72283318D01*
X70329862Y-72240465D01*
X81473159Y-61097165D01*
X81534480Y-61063682D01*
X81604172Y-61068666D01*
X81660105Y-61110538D01*
X81681742Y-61157313D01*
X81721404Y-61331466D01*
X81724500Y-61359001D01*
X81724500Y-62443811D01*
X81704815Y-62510850D01*
X81688181Y-62531492D01*
X69731492Y-74488181D01*
X69670169Y-74521666D01*
X69643811Y-74524500D01*
X65536189Y-74524500D01*
X65469150Y-74504815D01*
X65448508Y-74488181D01*
X64334308Y-73373981D01*
X64315002Y-73348989D01*
X64312459Y-73344648D01*
X64312455Y-73344643D01*
X64312456Y-73344643D01*
X64112662Y-73119719D01*
X64038441Y-73036162D01*
X64036984Y-73034565D01*
X64034771Y-73032139D01*
X64034307Y-73031644D01*
X64023979Y-73024464D01*
X64007080Y-73010332D01*
X63970724Y-72973975D01*
X63970721Y-72973973D01*
X63970720Y-72973972D01*
X63850626Y-72912781D01*
X63850624Y-72912780D01*
X63850621Y-72912779D01*
X63717502Y-72891696D01*
X63717498Y-72891696D01*
X63584378Y-72912779D01*
X63464278Y-72973973D01*
X63464274Y-72973976D01*
X63368976Y-73069274D01*
X63368973Y-73069278D01*
X63307779Y-73189378D01*
X63286696Y-73322497D01*
X63286696Y-73322502D01*
X63307779Y-73455621D01*
X63307780Y-73455624D01*
X63307781Y-73455626D01*
X63368972Y-73575720D01*
X63464280Y-73671028D01*
X63547574Y-73713468D01*
X63557011Y-73718810D01*
X63569749Y-73726776D01*
X63569752Y-73726777D01*
X63569751Y-73726777D01*
X63825549Y-73823795D01*
X63881250Y-73865974D01*
X63905306Y-73931572D01*
X63890078Y-73999762D01*
X63840401Y-74048894D01*
X63800973Y-74062209D01*
X63686878Y-74080279D01*
X63566778Y-74141473D01*
X63566774Y-74141476D01*
X63471476Y-74236774D01*
X63471473Y-74236778D01*
X63410279Y-74356878D01*
X63389196Y-74489997D01*
X63389196Y-74490002D01*
X63410280Y-74623128D01*
X63410314Y-74623231D01*
X63410317Y-74623362D01*
X63411807Y-74632765D01*
X63410591Y-74632957D01*
X63412307Y-74693073D01*
X63376224Y-74752904D01*
X63328530Y-74780159D01*
X63200705Y-74819114D01*
X63164557Y-74824500D01*
X61509005Y-74824500D01*
X61481470Y-74821404D01*
X61154512Y-74746943D01*
X61142623Y-74742636D01*
X61142409Y-74743297D01*
X61133127Y-74740281D01*
X61133126Y-74740281D01*
X61133124Y-74740280D01*
X61133122Y-74740280D01*
X61000002Y-74719196D01*
X60999998Y-74719196D01*
X60866878Y-74740279D01*
X60866874Y-74740280D01*
X60866874Y-74740281D01*
X60815350Y-74766534D01*
X60746778Y-74801473D01*
X60746774Y-74801476D01*
X60651476Y-74896774D01*
X60651473Y-74896778D01*
X60651472Y-74896780D01*
X60612399Y-74973466D01*
X60590279Y-75016878D01*
X60567669Y-75159639D01*
X60565075Y-75159228D01*
X60549511Y-75212235D01*
X60496707Y-75257990D01*
X60459391Y-75266107D01*
X60459639Y-75267669D01*
X60316878Y-75290279D01*
X60196778Y-75351473D01*
X60196774Y-75351476D01*
X60101476Y-75446774D01*
X60101473Y-75446778D01*
X60040279Y-75566878D01*
X60019196Y-75699997D01*
X60019196Y-75700002D01*
X60032041Y-75781102D01*
X60023086Y-75850396D01*
X59978090Y-75903847D01*
X59911339Y-75924487D01*
X59909568Y-75924500D01*
X59496348Y-75924500D01*
X59446712Y-75914132D01*
X59159247Y-75788563D01*
X59157937Y-75787997D01*
X59157857Y-75787963D01*
X59157779Y-75787929D01*
X59157773Y-75787927D01*
X59157169Y-75787802D01*
X59155415Y-75787185D01*
X59151848Y-75786064D01*
X59151885Y-75785945D01*
X59126061Y-75776872D01*
X59113123Y-75770279D01*
X58980002Y-75749196D01*
X58979998Y-75749196D01*
X58846878Y-75770279D01*
X58846874Y-75770280D01*
X58846874Y-75770281D01*
X58825637Y-75781102D01*
X58726778Y-75831473D01*
X58726774Y-75831476D01*
X58631476Y-75926774D01*
X58631473Y-75926778D01*
X58570279Y-76046878D01*
X58549196Y-76179997D01*
X58549196Y-76189507D01*
X58529511Y-76256546D01*
X58476707Y-76302301D01*
X58407549Y-76312245D01*
X58343993Y-76283220D01*
X58337515Y-76277188D01*
X56261819Y-74201492D01*
X56228334Y-74140169D01*
X56225500Y-74113811D01*
X56225500Y-71520432D01*
X56245185Y-71453393D01*
X56297989Y-71407638D01*
X56367147Y-71397694D01*
X56368898Y-71397959D01*
X56449998Y-71410804D01*
X56450000Y-71410804D01*
X56450002Y-71410804D01*
X56583121Y-71389720D01*
X56583121Y-71389719D01*
X56583126Y-71389719D01*
X56703220Y-71328528D01*
X56798528Y-71233220D01*
X56859719Y-71113126D01*
X56859720Y-71113121D01*
X56880804Y-70980002D01*
X56880804Y-70979997D01*
X56859720Y-70846878D01*
X56859719Y-70846876D01*
X56859719Y-70846874D01*
X56798528Y-70726780D01*
X56798526Y-70726778D01*
X56798523Y-70726774D01*
X56703225Y-70631476D01*
X56703221Y-70631473D01*
X56703220Y-70631472D01*
X56658661Y-70608768D01*
X57460840Y-70608768D01*
X57460840Y-70608773D01*
X57481923Y-70741892D01*
X57481924Y-70741895D01*
X57481925Y-70741897D01*
X57535416Y-70846878D01*
X57543117Y-70861992D01*
X57543120Y-70861996D01*
X57638418Y-70957294D01*
X57638422Y-70957297D01*
X57638424Y-70957299D01*
X57758518Y-71018490D01*
X57758520Y-71018490D01*
X57758522Y-71018491D01*
X57891642Y-71039575D01*
X57891644Y-71039575D01*
X57891646Y-71039575D01*
X58024765Y-71018491D01*
X58024765Y-71018490D01*
X58024770Y-71018490D01*
X58144864Y-70957299D01*
X58240172Y-70861991D01*
X58301363Y-70741897D01*
X58301364Y-70741892D01*
X58322448Y-70608773D01*
X58322448Y-70608768D01*
X58301364Y-70475649D01*
X58301363Y-70475647D01*
X58301363Y-70475645D01*
X58240172Y-70355551D01*
X58240170Y-70355549D01*
X58240167Y-70355545D01*
X58144869Y-70260247D01*
X58144865Y-70260244D01*
X58144864Y-70260243D01*
X58024770Y-70199052D01*
X58024768Y-70199051D01*
X58024765Y-70199050D01*
X57891646Y-70177967D01*
X57891642Y-70177967D01*
X57758522Y-70199050D01*
X57758518Y-70199051D01*
X57758518Y-70199052D01*
X57714923Y-70221265D01*
X57638422Y-70260244D01*
X57638418Y-70260247D01*
X57543120Y-70355545D01*
X57543117Y-70355549D01*
X57481923Y-70475649D01*
X57460840Y-70608768D01*
X56658661Y-70608768D01*
X56583126Y-70570281D01*
X56583124Y-70570280D01*
X56583121Y-70570279D01*
X56450002Y-70549196D01*
X56450000Y-70549196D01*
X56425446Y-70553085D01*
X56368897Y-70562041D01*
X56299603Y-70553085D01*
X56246152Y-70508088D01*
X56225513Y-70441336D01*
X56225500Y-70439567D01*
X56225500Y-69980929D01*
X56245185Y-69913890D01*
X56297989Y-69868135D01*
X56367147Y-69858191D01*
X56368898Y-69858456D01*
X56509998Y-69880804D01*
X56510000Y-69880804D01*
X56510002Y-69880804D01*
X56643121Y-69859720D01*
X56643121Y-69859719D01*
X56643126Y-69859719D01*
X56763220Y-69798528D01*
X56858528Y-69703220D01*
X56919719Y-69583126D01*
X56931370Y-69509567D01*
X56940804Y-69450002D01*
X56940571Y-69448532D01*
X56939098Y-69425464D01*
X56939156Y-69423458D01*
X56939158Y-69423448D01*
X56910765Y-69010717D01*
X56909289Y-69004883D01*
X56905500Y-68974466D01*
X56905500Y-63769997D01*
X59219196Y-63769997D01*
X59219196Y-63770002D01*
X59240279Y-63903121D01*
X59240280Y-63903124D01*
X59240281Y-63903126D01*
X59301472Y-64023220D01*
X59301473Y-64023221D01*
X59301476Y-64023225D01*
X59396774Y-64118523D01*
X59396778Y-64118526D01*
X59396780Y-64118528D01*
X59516874Y-64179719D01*
X59516876Y-64179719D01*
X59516878Y-64179720D01*
X59649998Y-64200804D01*
X59650000Y-64200804D01*
X59650002Y-64200804D01*
X59783121Y-64179720D01*
X59783121Y-64179719D01*
X59783126Y-64179719D01*
X59903220Y-64118528D01*
X59998528Y-64023220D01*
X60059719Y-63903126D01*
X60077636Y-63790002D01*
X60077637Y-63789997D01*
X61019196Y-63789997D01*
X61019196Y-63790002D01*
X61040279Y-63923121D01*
X61040280Y-63923124D01*
X61040281Y-63923126D01*
X61101472Y-64043220D01*
X61101473Y-64043221D01*
X61101476Y-64043225D01*
X61196774Y-64138523D01*
X61196778Y-64138526D01*
X61196780Y-64138528D01*
X61316874Y-64199719D01*
X61316876Y-64199719D01*
X61316878Y-64199720D01*
X61449998Y-64220804D01*
X61450000Y-64220804D01*
X61450002Y-64220804D01*
X61583121Y-64199720D01*
X61583121Y-64199719D01*
X61583126Y-64199719D01*
X61703220Y-64138528D01*
X61798528Y-64043220D01*
X61859719Y-63923126D01*
X61862887Y-63903126D01*
X61880804Y-63790002D01*
X61880804Y-63789997D01*
X61859720Y-63656878D01*
X61859719Y-63656876D01*
X61859719Y-63656874D01*
X61798528Y-63536780D01*
X61798526Y-63536778D01*
X61798523Y-63536774D01*
X61703225Y-63441476D01*
X61703221Y-63441473D01*
X61703220Y-63441472D01*
X61583126Y-63380281D01*
X61583124Y-63380280D01*
X61583121Y-63380279D01*
X61450002Y-63359196D01*
X61449998Y-63359196D01*
X61316878Y-63380279D01*
X61196778Y-63441473D01*
X61196774Y-63441476D01*
X61101476Y-63536774D01*
X61101473Y-63536778D01*
X61101472Y-63536780D01*
X61050470Y-63636878D01*
X61040279Y-63656878D01*
X61019196Y-63789997D01*
X60077637Y-63789997D01*
X60080804Y-63770002D01*
X60080804Y-63769997D01*
X60059720Y-63636878D01*
X60059719Y-63636876D01*
X60059719Y-63636874D01*
X59998528Y-63516780D01*
X59998526Y-63516778D01*
X59998523Y-63516774D01*
X59903225Y-63421476D01*
X59903221Y-63421473D01*
X59903220Y-63421472D01*
X59783126Y-63360281D01*
X59783124Y-63360280D01*
X59783121Y-63360279D01*
X59650002Y-63339196D01*
X59649998Y-63339196D01*
X59516878Y-63360279D01*
X59396778Y-63421473D01*
X59396774Y-63421476D01*
X59301476Y-63516774D01*
X59301473Y-63516778D01*
X59240279Y-63636878D01*
X59219196Y-63769997D01*
X56905500Y-63769997D01*
X56905500Y-62499997D01*
X64219196Y-62499997D01*
X64219196Y-62500002D01*
X64240279Y-62633121D01*
X64240280Y-62633124D01*
X64240281Y-62633126D01*
X64296122Y-62742720D01*
X64301473Y-62753221D01*
X64301476Y-62753225D01*
X64396774Y-62848523D01*
X64396778Y-62848526D01*
X64396780Y-62848528D01*
X64516874Y-62909719D01*
X64516876Y-62909719D01*
X64516878Y-62909720D01*
X64649998Y-62930804D01*
X64650000Y-62930804D01*
X64650002Y-62930804D01*
X64703250Y-62922370D01*
X64783126Y-62909719D01*
X64783131Y-62909716D01*
X64792413Y-62906701D01*
X64792628Y-62907365D01*
X64804519Y-62903054D01*
X65131466Y-62828596D01*
X65159000Y-62825500D01*
X66042851Y-62825500D01*
X66042853Y-62825500D01*
X66125639Y-62803318D01*
X66199862Y-62760465D01*
X68170251Y-60790074D01*
X68191902Y-60772799D01*
X68487195Y-60587057D01*
X68489384Y-60585157D01*
X68514354Y-60568330D01*
X68553220Y-60548528D01*
X68648528Y-60453220D01*
X68709719Y-60333126D01*
X68709720Y-60333121D01*
X68730804Y-60200002D01*
X68730804Y-60199997D01*
X68709720Y-60066878D01*
X68709719Y-60066876D01*
X68709719Y-60066874D01*
X68648528Y-59946780D01*
X68648526Y-59946778D01*
X68648523Y-59946774D01*
X68553225Y-59851476D01*
X68553221Y-59851473D01*
X68553220Y-59851472D01*
X68433126Y-59790281D01*
X68433124Y-59790280D01*
X68433121Y-59790279D01*
X68300002Y-59769196D01*
X68299998Y-59769196D01*
X68166878Y-59790279D01*
X68046778Y-59851473D01*
X68046774Y-59851476D01*
X67951472Y-59946778D01*
X67931654Y-59985673D01*
X67916176Y-60007610D01*
X67916672Y-60007995D01*
X67912940Y-60012806D01*
X67727200Y-60308094D01*
X67709919Y-60329752D01*
X65901492Y-62138181D01*
X65840169Y-62171666D01*
X65813811Y-62174500D01*
X65159005Y-62174500D01*
X65131470Y-62171404D01*
X64804512Y-62096943D01*
X64792623Y-62092636D01*
X64792409Y-62093297D01*
X64783127Y-62090281D01*
X64783126Y-62090281D01*
X64783124Y-62090280D01*
X64783122Y-62090280D01*
X64650002Y-62069196D01*
X64649998Y-62069196D01*
X64516878Y-62090279D01*
X64396778Y-62151473D01*
X64396774Y-62151476D01*
X64301476Y-62246774D01*
X64301473Y-62246778D01*
X64240279Y-62366878D01*
X64219196Y-62499997D01*
X56905500Y-62499997D01*
X56905500Y-60776189D01*
X56925185Y-60709150D01*
X56941819Y-60688508D01*
X57580330Y-60049997D01*
X59334196Y-60049997D01*
X59334196Y-60050002D01*
X59355279Y-60183121D01*
X59355280Y-60183124D01*
X59355281Y-60183126D01*
X59363879Y-60200000D01*
X59416473Y-60303221D01*
X59416476Y-60303225D01*
X59511774Y-60398523D01*
X59511778Y-60398526D01*
X59511780Y-60398528D01*
X59631874Y-60459719D01*
X59631876Y-60459719D01*
X59631878Y-60459720D01*
X59764998Y-60480804D01*
X59765000Y-60480804D01*
X59765002Y-60480804D01*
X59898121Y-60459720D01*
X59898121Y-60459719D01*
X59898126Y-60459719D01*
X60018220Y-60398528D01*
X60113528Y-60303220D01*
X60174719Y-60183126D01*
X60177827Y-60163504D01*
X60195804Y-60050002D01*
X60195804Y-60049997D01*
X60174720Y-59916878D01*
X60174719Y-59916876D01*
X60174719Y-59916874D01*
X60113528Y-59796780D01*
X60113526Y-59796778D01*
X60113523Y-59796774D01*
X60018225Y-59701476D01*
X60018221Y-59701473D01*
X60018220Y-59701472D01*
X59898126Y-59640281D01*
X59898124Y-59640280D01*
X59898121Y-59640279D01*
X59765002Y-59619196D01*
X59764998Y-59619196D01*
X59631878Y-59640279D01*
X59511778Y-59701473D01*
X59511774Y-59701476D01*
X59416476Y-59796774D01*
X59416473Y-59796778D01*
X59355279Y-59916878D01*
X59334196Y-60049997D01*
X57580330Y-60049997D01*
X60380330Y-57249997D01*
X69369196Y-57249997D01*
X69369196Y-57250002D01*
X69390279Y-57383121D01*
X69390280Y-57383124D01*
X69390281Y-57383126D01*
X69405567Y-57413126D01*
X69451473Y-57503221D01*
X69451476Y-57503225D01*
X69546774Y-57598523D01*
X69546778Y-57598526D01*
X69546780Y-57598528D01*
X69666874Y-57659719D01*
X69666876Y-57659719D01*
X69666878Y-57659720D01*
X69799998Y-57680804D01*
X69800000Y-57680804D01*
X69800002Y-57680804D01*
X69933121Y-57659720D01*
X69933121Y-57659719D01*
X69933126Y-57659719D01*
X70053220Y-57598528D01*
X70148528Y-57503220D01*
X70209719Y-57383126D01*
X70226052Y-57280002D01*
X70226053Y-57279997D01*
X73369196Y-57279997D01*
X73369196Y-57280002D01*
X73390279Y-57413121D01*
X73390280Y-57413124D01*
X73390281Y-57413126D01*
X73436187Y-57503221D01*
X73451473Y-57533221D01*
X73451476Y-57533225D01*
X73546774Y-57628523D01*
X73546778Y-57628526D01*
X73546780Y-57628528D01*
X73666874Y-57689719D01*
X73666876Y-57689719D01*
X73666878Y-57689720D01*
X73799998Y-57710804D01*
X73800000Y-57710804D01*
X73800002Y-57710804D01*
X73933121Y-57689720D01*
X73933121Y-57689719D01*
X73933126Y-57689719D01*
X74053220Y-57628528D01*
X74148528Y-57533220D01*
X74209719Y-57413126D01*
X74214471Y-57383126D01*
X74230804Y-57280002D01*
X74230804Y-57279997D01*
X74209720Y-57146878D01*
X74209719Y-57146876D01*
X74209719Y-57146874D01*
X74148528Y-57026780D01*
X74148526Y-57026778D01*
X74148523Y-57026774D01*
X74053225Y-56931476D01*
X74053221Y-56931473D01*
X74053220Y-56931472D01*
X73933126Y-56870281D01*
X73933124Y-56870280D01*
X73933121Y-56870279D01*
X73800002Y-56849196D01*
X73799998Y-56849196D01*
X73666878Y-56870279D01*
X73546778Y-56931473D01*
X73546774Y-56931476D01*
X73451476Y-57026774D01*
X73451473Y-57026778D01*
X73390279Y-57146878D01*
X73369196Y-57279997D01*
X70226053Y-57279997D01*
X70230804Y-57250002D01*
X70230804Y-57249997D01*
X70209720Y-57116878D01*
X70209719Y-57116876D01*
X70209719Y-57116874D01*
X70148528Y-56996780D01*
X70148526Y-56996778D01*
X70148523Y-56996774D01*
X70053225Y-56901476D01*
X70053221Y-56901473D01*
X70053220Y-56901472D01*
X69933126Y-56840281D01*
X69933124Y-56840280D01*
X69933121Y-56840279D01*
X69800002Y-56819196D01*
X69799998Y-56819196D01*
X69666878Y-56840279D01*
X69546778Y-56901473D01*
X69546774Y-56901476D01*
X69451476Y-56996774D01*
X69451473Y-56996778D01*
X69390279Y-57116878D01*
X69369196Y-57249997D01*
X60380330Y-57249997D01*
X61713453Y-55916874D01*
X62927830Y-54702497D01*
X76996696Y-54702497D01*
X76996696Y-54702502D01*
X77017779Y-54835621D01*
X77017780Y-54835624D01*
X77017781Y-54835626D01*
X77078972Y-54955720D01*
X77174280Y-55051028D01*
X77174282Y-55051029D01*
X77213170Y-55070843D01*
X77235109Y-55086324D01*
X77235495Y-55085827D01*
X77240300Y-55089553D01*
X77240304Y-55089557D01*
X77240306Y-55089558D01*
X77535595Y-55275299D01*
X77557254Y-55292580D01*
X78184919Y-55920245D01*
X78202197Y-55941900D01*
X78387942Y-56237195D01*
X78387945Y-56237198D01*
X78389855Y-56239400D01*
X78406669Y-56264356D01*
X78426473Y-56303222D01*
X78521774Y-56398523D01*
X78521778Y-56398526D01*
X78521780Y-56398528D01*
X78641874Y-56459719D01*
X78641876Y-56459719D01*
X78641878Y-56459720D01*
X78774998Y-56480804D01*
X78775000Y-56480804D01*
X78775002Y-56480804D01*
X78908121Y-56459720D01*
X78908121Y-56459719D01*
X78908126Y-56459719D01*
X79028220Y-56398528D01*
X79123528Y-56303220D01*
X79184719Y-56183126D01*
X79205804Y-56050000D01*
X79188683Y-55941903D01*
X79184720Y-55916878D01*
X79184719Y-55916876D01*
X79184719Y-55916874D01*
X79123528Y-55796780D01*
X79123526Y-55796778D01*
X79123523Y-55796774D01*
X79028225Y-55701476D01*
X79028220Y-55701472D01*
X78989324Y-55681653D01*
X78967389Y-55666174D01*
X78967004Y-55666672D01*
X78962197Y-55662943D01*
X78666904Y-55477200D01*
X78645246Y-55459919D01*
X78017578Y-54832251D01*
X78000297Y-54810592D01*
X77814560Y-54515308D01*
X77814556Y-54515303D01*
X77812649Y-54513105D01*
X77795826Y-54488137D01*
X77776029Y-54449282D01*
X77776028Y-54449280D01*
X77680720Y-54353972D01*
X77560626Y-54292781D01*
X77560624Y-54292780D01*
X77560621Y-54292779D01*
X77427502Y-54271696D01*
X77427498Y-54271696D01*
X77294378Y-54292779D01*
X77174278Y-54353973D01*
X77174274Y-54353976D01*
X77078976Y-54449274D01*
X77078973Y-54449278D01*
X77017779Y-54569378D01*
X76996696Y-54702497D01*
X62927830Y-54702497D01*
X63930330Y-53699997D01*
X67669196Y-53699997D01*
X67669196Y-53700002D01*
X67690279Y-53833121D01*
X67690280Y-53833124D01*
X67690281Y-53833126D01*
X67751472Y-53953220D01*
X67751473Y-53953221D01*
X67751476Y-53953225D01*
X67846774Y-54048523D01*
X67846778Y-54048526D01*
X67846780Y-54048528D01*
X67966874Y-54109719D01*
X67966876Y-54109719D01*
X67966878Y-54109720D01*
X68099998Y-54130804D01*
X68100000Y-54130804D01*
X68100002Y-54130804D01*
X68233121Y-54109720D01*
X68233121Y-54109719D01*
X68233126Y-54109719D01*
X68353220Y-54048528D01*
X68448528Y-53953220D01*
X68468346Y-53914322D01*
X68483822Y-53892399D01*
X68483322Y-53892011D01*
X68487056Y-53887196D01*
X68498379Y-53869196D01*
X68672799Y-53591903D01*
X68690075Y-53570250D01*
X69135038Y-53125287D01*
X69141662Y-53119131D01*
X69156995Y-53105890D01*
X69156994Y-53105890D01*
X69157000Y-53105886D01*
X69161341Y-53100315D01*
X69171446Y-53088879D01*
X69330465Y-52929862D01*
X69373318Y-52855639D01*
X69378336Y-52836906D01*
X69410434Y-52781314D01*
X69418526Y-52773222D01*
X69418526Y-52773221D01*
X69418528Y-52773220D01*
X69479719Y-52653126D01*
X69479719Y-52653124D01*
X69479720Y-52653123D01*
X69500804Y-52520002D01*
X69500804Y-52519997D01*
X69479720Y-52386878D01*
X69479719Y-52386876D01*
X69479719Y-52386874D01*
X69418528Y-52266780D01*
X69418526Y-52266778D01*
X69418523Y-52266774D01*
X69323225Y-52171476D01*
X69323221Y-52171473D01*
X69323220Y-52171472D01*
X69203126Y-52110281D01*
X69203124Y-52110280D01*
X69203121Y-52110279D01*
X69070002Y-52089196D01*
X69069998Y-52089196D01*
X68936878Y-52110279D01*
X68816778Y-52171473D01*
X68816774Y-52171476D01*
X68721476Y-52266774D01*
X68721473Y-52266779D01*
X68660280Y-52386876D01*
X68644571Y-52486056D01*
X68639996Y-52505078D01*
X68639721Y-52505920D01*
X68639720Y-52505924D01*
X68620989Y-52662861D01*
X68620989Y-52662863D01*
X68618511Y-52683622D01*
X68591019Y-52747855D01*
X68583066Y-52756605D01*
X68229755Y-53109916D01*
X68208097Y-53127197D01*
X67939356Y-53296240D01*
X67912804Y-53312941D01*
X67910590Y-53314862D01*
X67885643Y-53331669D01*
X67846780Y-53351472D01*
X67846774Y-53351476D01*
X67751476Y-53446774D01*
X67751473Y-53446778D01*
X67690279Y-53566878D01*
X67669196Y-53699997D01*
X63930330Y-53699997D01*
X66510465Y-51119862D01*
X66553318Y-51045639D01*
X66575500Y-50962853D01*
X66575500Y-50877147D01*
X66575500Y-45838027D01*
X66589181Y-45781408D01*
X67175326Y-44639347D01*
X67175327Y-44639344D01*
X67175332Y-44639335D01*
X67176280Y-44636608D01*
X67190286Y-44608474D01*
X67220941Y-44562598D01*
X67300130Y-44371420D01*
X67340500Y-44168465D01*
X67340500Y-43711535D01*
X67336216Y-43690000D01*
X67645463Y-43690000D01*
X68385854Y-43690000D01*
X68347370Y-43756657D01*
X68315000Y-43877465D01*
X68315000Y-44002535D01*
X68347370Y-44123343D01*
X68385854Y-44190000D01*
X67645463Y-44190000D01*
X67668317Y-44334293D01*
X67724251Y-44506444D01*
X67724252Y-44506447D01*
X67806434Y-44667734D01*
X67912823Y-44814169D01*
X68040830Y-44942176D01*
X68187265Y-45048565D01*
X68348552Y-45130747D01*
X68348555Y-45130748D01*
X68520699Y-45186680D01*
X68520712Y-45186683D01*
X68540000Y-45189738D01*
X68540000Y-44344145D01*
X68606657Y-44382630D01*
X68727465Y-44415000D01*
X68852535Y-44415000D01*
X68973343Y-44382630D01*
X69040000Y-44344145D01*
X69040000Y-45189737D01*
X69059287Y-45186683D01*
X69059300Y-45186680D01*
X69231444Y-45130748D01*
X69231447Y-45130747D01*
X69392734Y-45048565D01*
X69539169Y-44942176D01*
X69667176Y-44814169D01*
X69773565Y-44667734D01*
X69855747Y-44506447D01*
X69855748Y-44506444D01*
X69911682Y-44334293D01*
X69934537Y-44190000D01*
X69194146Y-44190000D01*
X69232630Y-44123343D01*
X69265000Y-44002535D01*
X69265000Y-43877465D01*
X69232630Y-43756657D01*
X69194146Y-43690000D01*
X69934537Y-43690000D01*
X69911682Y-43545706D01*
X69855748Y-43373555D01*
X69855747Y-43373552D01*
X69773565Y-43212265D01*
X69736123Y-43160730D01*
X70239500Y-43160730D01*
X70239500Y-44719269D01*
X70242353Y-44749699D01*
X70242353Y-44749701D01*
X70287206Y-44877880D01*
X70287207Y-44877882D01*
X70367850Y-44987150D01*
X70477118Y-45067793D01*
X70519845Y-45082744D01*
X70605299Y-45112646D01*
X70635730Y-45115500D01*
X70635734Y-45115500D01*
X71944270Y-45115500D01*
X71974699Y-45112646D01*
X71974701Y-45112646D01*
X72038790Y-45090219D01*
X72102882Y-45067793D01*
X72212150Y-44987150D01*
X72292793Y-44877882D01*
X72315219Y-44813790D01*
X72337646Y-44749701D01*
X72337646Y-44749699D01*
X72340500Y-44719269D01*
X72340500Y-44649997D01*
X75569196Y-44649997D01*
X75569196Y-44650002D01*
X75590279Y-44783121D01*
X75590280Y-44783124D01*
X75590281Y-44783126D01*
X75607684Y-44817281D01*
X75651473Y-44903221D01*
X75651476Y-44903225D01*
X75746774Y-44998523D01*
X75746778Y-44998526D01*
X75746780Y-44998528D01*
X75866874Y-45059719D01*
X75866876Y-45059719D01*
X75866878Y-45059720D01*
X75999998Y-45080804D01*
X76000000Y-45080804D01*
X76000002Y-45080804D01*
X76133121Y-45059720D01*
X76133121Y-45059719D01*
X76133126Y-45059719D01*
X76253220Y-44998528D01*
X76348528Y-44903220D01*
X76409719Y-44783126D01*
X76415013Y-44749701D01*
X76430804Y-44650002D01*
X76430804Y-44649997D01*
X76409720Y-44516878D01*
X76409719Y-44516876D01*
X76409719Y-44516874D01*
X76348528Y-44396780D01*
X76348526Y-44396778D01*
X76348523Y-44396774D01*
X76253225Y-44301476D01*
X76253221Y-44301473D01*
X76253220Y-44301472D01*
X76133126Y-44240281D01*
X76133124Y-44240280D01*
X76133121Y-44240279D01*
X76000002Y-44219196D01*
X75999998Y-44219196D01*
X75866878Y-44240279D01*
X75746778Y-44301473D01*
X75746774Y-44301476D01*
X75651476Y-44396774D01*
X75651473Y-44396778D01*
X75590279Y-44516878D01*
X75569196Y-44649997D01*
X72340500Y-44649997D01*
X72340500Y-43160730D01*
X72337646Y-43130300D01*
X72337646Y-43130298D01*
X72292793Y-43002119D01*
X72292792Y-43002117D01*
X72212150Y-42892850D01*
X72102882Y-42812207D01*
X72102880Y-42812206D01*
X71974700Y-42767353D01*
X71944270Y-42764500D01*
X71944266Y-42764500D01*
X70635734Y-42764500D01*
X70635730Y-42764500D01*
X70605300Y-42767353D01*
X70605298Y-42767353D01*
X70477119Y-42812206D01*
X70477117Y-42812207D01*
X70367850Y-42892850D01*
X70287207Y-43002117D01*
X70287206Y-43002119D01*
X70242353Y-43130298D01*
X70242353Y-43130300D01*
X70239500Y-43160730D01*
X69736123Y-43160730D01*
X69667176Y-43065830D01*
X69539169Y-42937823D01*
X69392734Y-42831434D01*
X69231447Y-42749252D01*
X69231441Y-42749250D01*
X69059295Y-42693318D01*
X69059285Y-42693315D01*
X69040000Y-42690260D01*
X69040000Y-43535854D01*
X68973343Y-43497370D01*
X68852535Y-43465000D01*
X68727465Y-43465000D01*
X68606657Y-43497370D01*
X68540000Y-43535854D01*
X68540000Y-42690260D01*
X68520714Y-42693315D01*
X68520704Y-42693318D01*
X68348558Y-42749250D01*
X68348552Y-42749252D01*
X68187265Y-42831434D01*
X68040830Y-42937823D01*
X67912823Y-43065830D01*
X67806434Y-43212265D01*
X67724252Y-43373552D01*
X67724251Y-43373555D01*
X67668317Y-43545706D01*
X67645463Y-43690000D01*
X67336216Y-43690000D01*
X67300130Y-43508580D01*
X67220941Y-43317402D01*
X67105977Y-43145345D01*
X67105975Y-43145342D01*
X66959657Y-42999024D01*
X66868062Y-42937823D01*
X66787598Y-42884059D01*
X66713332Y-42853297D01*
X66596420Y-42804870D01*
X66596412Y-42804868D01*
X66393469Y-42764500D01*
X66393465Y-42764500D01*
X66186535Y-42764500D01*
X66186530Y-42764500D01*
X65983587Y-42804868D01*
X65983579Y-42804870D01*
X65792403Y-42884058D01*
X65620342Y-42999024D01*
X65474024Y-43145342D01*
X65359058Y-43317403D01*
X65279870Y-43508579D01*
X65279868Y-43508587D01*
X65239500Y-43711530D01*
X65239500Y-44168469D01*
X65279868Y-44371412D01*
X65279870Y-44371420D01*
X65359059Y-44562599D01*
X65385718Y-44602498D01*
X65396183Y-44623846D01*
X65396756Y-44623591D01*
X65399241Y-44629149D01*
X65399242Y-44629151D01*
X65751412Y-45416654D01*
X65913697Y-45779547D01*
X65924500Y-45830166D01*
X65924500Y-50733811D01*
X65904815Y-50800850D01*
X65888179Y-50821494D01*
X65865593Y-50844079D01*
X65804269Y-50877563D01*
X65734578Y-50872577D01*
X65678645Y-50830704D01*
X65654230Y-50765239D01*
X65655441Y-50736998D01*
X65655758Y-50735000D01*
X65670804Y-50640000D01*
X65664766Y-50601878D01*
X65649720Y-50506878D01*
X65649719Y-50506876D01*
X65649719Y-50506874D01*
X65588528Y-50386780D01*
X65588526Y-50386778D01*
X65588523Y-50386774D01*
X65493225Y-50291476D01*
X65493221Y-50291473D01*
X65493220Y-50291472D01*
X65373126Y-50230281D01*
X65373124Y-50230280D01*
X65373121Y-50230279D01*
X65240002Y-50209196D01*
X65239998Y-50209196D01*
X65106878Y-50230279D01*
X64986778Y-50291473D01*
X64986774Y-50291476D01*
X64891476Y-50386774D01*
X64891473Y-50386778D01*
X64830279Y-50506878D01*
X64809196Y-50639997D01*
X64809196Y-50640002D01*
X64830279Y-50773121D01*
X64830280Y-50773124D01*
X64830281Y-50773126D01*
X64891472Y-50893220D01*
X64891473Y-50893221D01*
X64891476Y-50893225D01*
X64986774Y-50988523D01*
X64986778Y-50988526D01*
X64986780Y-50988528D01*
X65106874Y-51049719D01*
X65106876Y-51049719D01*
X65106878Y-51049720D01*
X65239998Y-51070804D01*
X65240000Y-51070804D01*
X65240002Y-51070804D01*
X65315639Y-51058823D01*
X65336998Y-51055441D01*
X65406291Y-51064395D01*
X65459743Y-51109391D01*
X65480383Y-51176143D01*
X65461658Y-51243457D01*
X65444077Y-51265595D01*
X56319537Y-60390135D01*
X56319533Y-60390141D01*
X56276681Y-60464362D01*
X56276680Y-60464363D01*
X56263099Y-60515054D01*
X56263099Y-60515055D01*
X56254500Y-60547146D01*
X56254500Y-68212043D01*
X56234815Y-68279082D01*
X56182011Y-68324837D01*
X56112853Y-68334781D01*
X56094303Y-68330466D01*
X55960002Y-68309196D01*
X55960000Y-68309196D01*
X55925445Y-68314669D01*
X55868897Y-68323625D01*
X55799604Y-68314669D01*
X55746152Y-68269672D01*
X55725513Y-68202921D01*
X55725500Y-68201151D01*
X55725500Y-59486187D01*
X55745185Y-59419148D01*
X55761814Y-59398511D01*
X63979652Y-51180672D01*
X63979657Y-51180669D01*
X63989860Y-51170465D01*
X63989862Y-51170465D01*
X64050465Y-51109862D01*
X64073015Y-51070804D01*
X64093318Y-51035639D01*
X64115500Y-50952853D01*
X64115500Y-50867147D01*
X64115500Y-45834091D01*
X64127721Y-45780413D01*
X64438309Y-45133646D01*
X64678081Y-44634346D01*
X64678083Y-44634340D01*
X64679616Y-44630519D01*
X64680078Y-44630704D01*
X64692415Y-44605289D01*
X64720941Y-44562598D01*
X64800130Y-44371420D01*
X64840500Y-44168465D01*
X64840500Y-43711535D01*
X64800130Y-43508580D01*
X64720941Y-43317402D01*
X64605977Y-43145345D01*
X64605975Y-43145342D01*
X64459657Y-42999024D01*
X64368062Y-42937823D01*
X64287598Y-42884059D01*
X64213332Y-42853297D01*
X64096420Y-42804870D01*
X64096412Y-42804868D01*
X63893469Y-42764500D01*
X63893465Y-42764500D01*
X63686535Y-42764500D01*
X63686530Y-42764500D01*
X63483587Y-42804868D01*
X63483579Y-42804870D01*
X63292403Y-42884058D01*
X63120342Y-42999024D01*
X62974024Y-43145342D01*
X62859058Y-43317403D01*
X62779870Y-43508579D01*
X62779868Y-43508587D01*
X62739500Y-43711530D01*
X62739500Y-44168469D01*
X62779868Y-44371412D01*
X62779870Y-44371420D01*
X62859058Y-44562596D01*
X62887529Y-44605207D01*
X62900924Y-44631622D01*
X62901915Y-44634340D01*
X63336164Y-45538617D01*
X63452279Y-45780414D01*
X63464500Y-45834092D01*
X63464500Y-50723811D01*
X63444815Y-50790850D01*
X63428181Y-50811492D01*
X55139537Y-59100135D01*
X55139535Y-59100138D01*
X55096683Y-59174358D01*
X55096682Y-59174360D01*
X55096682Y-59174361D01*
X55085291Y-59216874D01*
X55085291Y-59216875D01*
X55085290Y-59216874D01*
X55074500Y-59257145D01*
X55074500Y-62301909D01*
X55054815Y-62368948D01*
X55002011Y-62414703D01*
X54932853Y-62424647D01*
X54869297Y-62395622D01*
X54840016Y-62358206D01*
X54798528Y-62276780D01*
X54798524Y-62276776D01*
X54798523Y-62276774D01*
X54703225Y-62181476D01*
X54703221Y-62181473D01*
X54703220Y-62181472D01*
X54583126Y-62120281D01*
X54583124Y-62120280D01*
X54583121Y-62120279D01*
X54450002Y-62099196D01*
X54449998Y-62099196D01*
X54316878Y-62120279D01*
X54316874Y-62120280D01*
X54316874Y-62120281D01*
X54304722Y-62126473D01*
X54196778Y-62181473D01*
X54196774Y-62181476D01*
X54101476Y-62276774D01*
X54101473Y-62276778D01*
X54040279Y-62396878D01*
X54019196Y-62529997D01*
X54019196Y-62530002D01*
X54040280Y-62663126D01*
X54042512Y-62669996D01*
X54046136Y-62683822D01*
X54112060Y-63011213D01*
X54114500Y-63035691D01*
X54114500Y-64530994D01*
X54111404Y-64558529D01*
X54036943Y-64885486D01*
X54032639Y-64897377D01*
X54033297Y-64897591D01*
X54030280Y-64906877D01*
X54009196Y-65039997D01*
X54009196Y-65040002D01*
X54030279Y-65173121D01*
X54030280Y-65173124D01*
X54030281Y-65173126D01*
X54076782Y-65264389D01*
X54091473Y-65293221D01*
X54091476Y-65293225D01*
X54186774Y-65388523D01*
X54186778Y-65388526D01*
X54186780Y-65388528D01*
X54306874Y-65449719D01*
X54306876Y-65449719D01*
X54306878Y-65449720D01*
X54439998Y-65470804D01*
X54440000Y-65470804D01*
X54440002Y-65470804D01*
X54573121Y-65449720D01*
X54573121Y-65449719D01*
X54573126Y-65449719D01*
X54693220Y-65388528D01*
X54788528Y-65293220D01*
X54840017Y-65192166D01*
X54887989Y-65141373D01*
X54955810Y-65124578D01*
X55021945Y-65147115D01*
X55065397Y-65201830D01*
X55074500Y-65248464D01*
X55074500Y-69509567D01*
X55054815Y-69576606D01*
X55002011Y-69622361D01*
X54932853Y-69632305D01*
X54931103Y-69632041D01*
X54894019Y-69626167D01*
X54850000Y-69619196D01*
X54849998Y-69619196D01*
X54849997Y-69619196D01*
X54716875Y-69640280D01*
X54716871Y-69640281D01*
X54702907Y-69647396D01*
X54673133Y-69658041D01*
X54670749Y-69658562D01*
X54383286Y-69784132D01*
X54333650Y-69794500D01*
X49406189Y-69794500D01*
X49339150Y-69774815D01*
X49318508Y-69758181D01*
X47860324Y-68299997D01*
X48544196Y-68299997D01*
X48544196Y-68300002D01*
X48565279Y-68433121D01*
X48565280Y-68433124D01*
X48565281Y-68433126D01*
X48623188Y-68546774D01*
X48626473Y-68553221D01*
X48626476Y-68553225D01*
X48721774Y-68648523D01*
X48721778Y-68648526D01*
X48721780Y-68648528D01*
X48841874Y-68709719D01*
X48841876Y-68709719D01*
X48841878Y-68709720D01*
X48974998Y-68730804D01*
X48975000Y-68730804D01*
X48975002Y-68730804D01*
X49108121Y-68709720D01*
X49108121Y-68709719D01*
X49108126Y-68709719D01*
X49228220Y-68648528D01*
X49323528Y-68553220D01*
X49384719Y-68433126D01*
X49386719Y-68420499D01*
X49405804Y-68300002D01*
X49405804Y-68299997D01*
X49969196Y-68299997D01*
X49969196Y-68300002D01*
X49990279Y-68433121D01*
X49990280Y-68433124D01*
X49990281Y-68433126D01*
X50048188Y-68546774D01*
X50051473Y-68553221D01*
X50051476Y-68553225D01*
X50146774Y-68648523D01*
X50146778Y-68648526D01*
X50146780Y-68648528D01*
X50266874Y-68709719D01*
X50266876Y-68709719D01*
X50266878Y-68709720D01*
X50399998Y-68730804D01*
X50400000Y-68730804D01*
X50400002Y-68730804D01*
X50533121Y-68709720D01*
X50533121Y-68709719D01*
X50533126Y-68709719D01*
X50653220Y-68648528D01*
X50748528Y-68553220D01*
X50809719Y-68433126D01*
X50811719Y-68420499D01*
X50830804Y-68300002D01*
X50830804Y-68299997D01*
X50809720Y-68166878D01*
X50809719Y-68166876D01*
X50809719Y-68166874D01*
X50748528Y-68046780D01*
X50748526Y-68046778D01*
X50748523Y-68046774D01*
X50653225Y-67951476D01*
X50653221Y-67951473D01*
X50653220Y-67951472D01*
X50533126Y-67890281D01*
X50533124Y-67890280D01*
X50533121Y-67890279D01*
X50400002Y-67869196D01*
X50399998Y-67869196D01*
X50266878Y-67890279D01*
X50146778Y-67951473D01*
X50146774Y-67951476D01*
X50051476Y-68046774D01*
X50051473Y-68046778D01*
X49990279Y-68166878D01*
X49969196Y-68299997D01*
X49405804Y-68299997D01*
X49384720Y-68166878D01*
X49384719Y-68166876D01*
X49384719Y-68166874D01*
X49323528Y-68046780D01*
X49323526Y-68046778D01*
X49323523Y-68046774D01*
X49228225Y-67951476D01*
X49228221Y-67951473D01*
X49228220Y-67951472D01*
X49108126Y-67890281D01*
X49108124Y-67890280D01*
X49108121Y-67890279D01*
X48975002Y-67869196D01*
X48974998Y-67869196D01*
X48841878Y-67890279D01*
X48721778Y-67951473D01*
X48721774Y-67951476D01*
X48626476Y-68046774D01*
X48626473Y-68046778D01*
X48565279Y-68166878D01*
X48544196Y-68299997D01*
X47860324Y-68299997D01*
X44815754Y-65255427D01*
X44782269Y-65194104D01*
X44779841Y-65177778D01*
X44759046Y-64921587D01*
X44704655Y-64251476D01*
X44685906Y-64020489D01*
X44685500Y-64010457D01*
X44685500Y-63896534D01*
X44685499Y-63896530D01*
X44645131Y-63693587D01*
X44645130Y-63693580D01*
X44565941Y-63502402D01*
X44450977Y-63330345D01*
X44450975Y-63330342D01*
X44304657Y-63184024D01*
X44149396Y-63080283D01*
X44132598Y-63069059D01*
X44124889Y-63065866D01*
X43941420Y-62989870D01*
X43941412Y-62989868D01*
X43738469Y-62949500D01*
X43738465Y-62949500D01*
X43281535Y-62949500D01*
X43281530Y-62949500D01*
X43078587Y-62989868D01*
X43078579Y-62989870D01*
X42887403Y-63069058D01*
X42715342Y-63184024D01*
X42569024Y-63330342D01*
X42454058Y-63502403D01*
X42374870Y-63693579D01*
X42374868Y-63693587D01*
X42334500Y-63896530D01*
X41500500Y-63896530D01*
X41500500Y-61250000D01*
X42260261Y-61250000D01*
X43105854Y-61250000D01*
X43067370Y-61316657D01*
X43035000Y-61437465D01*
X43035000Y-61562535D01*
X43067370Y-61683343D01*
X43105854Y-61750000D01*
X42260261Y-61750000D01*
X42263315Y-61769285D01*
X42263318Y-61769295D01*
X42319250Y-61941441D01*
X42319252Y-61941447D01*
X42401434Y-62102734D01*
X42507823Y-62249169D01*
X42635830Y-62377176D01*
X42782265Y-62483565D01*
X42943552Y-62565747D01*
X42943555Y-62565748D01*
X43115705Y-62621682D01*
X43260000Y-62644536D01*
X43260000Y-61904145D01*
X43326657Y-61942630D01*
X43447465Y-61975000D01*
X43572535Y-61975000D01*
X43693343Y-61942630D01*
X43760000Y-61904145D01*
X43760000Y-62644535D01*
X43904292Y-62621682D01*
X43904295Y-62621682D01*
X44076444Y-62565748D01*
X44076447Y-62565747D01*
X44237734Y-62483565D01*
X44384169Y-62377176D01*
X44512176Y-62249169D01*
X44618565Y-62102734D01*
X44700747Y-61941447D01*
X44700749Y-61941441D01*
X44756681Y-61769295D01*
X44756684Y-61769285D01*
X44759739Y-61750000D01*
X43914146Y-61750000D01*
X43952630Y-61683343D01*
X43985000Y-61562535D01*
X43985000Y-61437465D01*
X43952630Y-61316657D01*
X43914146Y-61250000D01*
X44759739Y-61250000D01*
X44756684Y-61230714D01*
X44756681Y-61230704D01*
X44700749Y-61058558D01*
X44700747Y-61058552D01*
X44618565Y-60897265D01*
X44576958Y-60839997D01*
X49819196Y-60839997D01*
X49819196Y-60840002D01*
X49840279Y-60973121D01*
X49840280Y-60973124D01*
X49840281Y-60973126D01*
X49901472Y-61093220D01*
X49901473Y-61093221D01*
X49901476Y-61093225D01*
X49996774Y-61188523D01*
X49996778Y-61188526D01*
X49996780Y-61188528D01*
X50116874Y-61249719D01*
X50116876Y-61249719D01*
X50116878Y-61249720D01*
X50249998Y-61270804D01*
X50250000Y-61270804D01*
X50250002Y-61270804D01*
X50383121Y-61249720D01*
X50383121Y-61249719D01*
X50383126Y-61249719D01*
X50503220Y-61188528D01*
X50598528Y-61093220D01*
X50659719Y-60973126D01*
X50667110Y-60926461D01*
X50680804Y-60840002D01*
X50680804Y-60839997D01*
X50659720Y-60706878D01*
X50659719Y-60706876D01*
X50659719Y-60706874D01*
X50598528Y-60586780D01*
X50598526Y-60586778D01*
X50598523Y-60586774D01*
X50503225Y-60491476D01*
X50503221Y-60491473D01*
X50503220Y-60491472D01*
X50383126Y-60430281D01*
X50383124Y-60430280D01*
X50383121Y-60430279D01*
X50250002Y-60409196D01*
X50249998Y-60409196D01*
X50116878Y-60430279D01*
X50116874Y-60430280D01*
X50116874Y-60430281D01*
X50097248Y-60440281D01*
X49996778Y-60491473D01*
X49996774Y-60491476D01*
X49901476Y-60586774D01*
X49901473Y-60586778D01*
X49840279Y-60706878D01*
X49819196Y-60839997D01*
X44576958Y-60839997D01*
X44512176Y-60750830D01*
X44384169Y-60622823D01*
X44237734Y-60516434D01*
X44076447Y-60434252D01*
X44076444Y-60434251D01*
X43904293Y-60378317D01*
X43760000Y-60355462D01*
X43760000Y-61095854D01*
X43693343Y-61057370D01*
X43572535Y-61025000D01*
X43447465Y-61025000D01*
X43326657Y-61057370D01*
X43260000Y-61095854D01*
X43260000Y-60355462D01*
X43115706Y-60378317D01*
X42943555Y-60434251D01*
X42943552Y-60434252D01*
X42782265Y-60516434D01*
X42635830Y-60622823D01*
X42507823Y-60750830D01*
X42401434Y-60897265D01*
X42319252Y-61058552D01*
X42319250Y-61058558D01*
X42263318Y-61230704D01*
X42263315Y-61230714D01*
X42260261Y-61250000D01*
X41500500Y-61250000D01*
X41500500Y-58345730D01*
X42334500Y-58345730D01*
X42334500Y-59654269D01*
X42337353Y-59684699D01*
X42337353Y-59684701D01*
X42382206Y-59812880D01*
X42382207Y-59812882D01*
X42462850Y-59922150D01*
X42572118Y-60002793D01*
X42586985Y-60007995D01*
X42700299Y-60047646D01*
X42730730Y-60050500D01*
X42730734Y-60050500D01*
X44289270Y-60050500D01*
X44319699Y-60047646D01*
X44319701Y-60047646D01*
X44395589Y-60021091D01*
X44447882Y-60002793D01*
X44557150Y-59922150D01*
X44637793Y-59812882D01*
X44663787Y-59738596D01*
X44682646Y-59684701D01*
X44682646Y-59684699D01*
X44685500Y-59654269D01*
X44685500Y-58345730D01*
X44682646Y-58315300D01*
X44682646Y-58315298D01*
X44637793Y-58187119D01*
X44637792Y-58187117D01*
X44557150Y-58077850D01*
X44447882Y-57997207D01*
X44447880Y-57997206D01*
X44319700Y-57952353D01*
X44289270Y-57949500D01*
X44289266Y-57949500D01*
X42730734Y-57949500D01*
X42730730Y-57949500D01*
X42700300Y-57952353D01*
X42700298Y-57952353D01*
X42572119Y-57997206D01*
X42572117Y-57997207D01*
X42462850Y-58077850D01*
X42382207Y-58187117D01*
X42382206Y-58187119D01*
X42337353Y-58315298D01*
X42337353Y-58315300D01*
X42334500Y-58345730D01*
X41500500Y-58345730D01*
X41500500Y-50734997D01*
X57469196Y-50734997D01*
X57469196Y-50735002D01*
X57490279Y-50868121D01*
X57490280Y-50868124D01*
X57490281Y-50868126D01*
X57538547Y-50962853D01*
X57551473Y-50988221D01*
X57551476Y-50988225D01*
X57646774Y-51083523D01*
X57646778Y-51083526D01*
X57646780Y-51083528D01*
X57766874Y-51144719D01*
X57766876Y-51144719D01*
X57766878Y-51144720D01*
X57899998Y-51165804D01*
X57900000Y-51165804D01*
X57900002Y-51165804D01*
X58033121Y-51144720D01*
X58033121Y-51144719D01*
X58033126Y-51144719D01*
X58153220Y-51083528D01*
X58248528Y-50988220D01*
X58309719Y-50868126D01*
X58318689Y-50811492D01*
X58330804Y-50735002D01*
X58330804Y-50734997D01*
X58309720Y-50601878D01*
X58309719Y-50601876D01*
X58309719Y-50601874D01*
X58248528Y-50481780D01*
X58248526Y-50481778D01*
X58248523Y-50481774D01*
X58153225Y-50386476D01*
X58153221Y-50386473D01*
X58153220Y-50386472D01*
X58033126Y-50325281D01*
X58033124Y-50325280D01*
X58033121Y-50325279D01*
X57900002Y-50304196D01*
X57899998Y-50304196D01*
X57766878Y-50325279D01*
X57646778Y-50386473D01*
X57646774Y-50386476D01*
X57551476Y-50481774D01*
X57551473Y-50481778D01*
X57490279Y-50601878D01*
X57469196Y-50734997D01*
X41500500Y-50734997D01*
X41500500Y-49374997D01*
X57369196Y-49374997D01*
X57369196Y-49375002D01*
X57390279Y-49508121D01*
X57390280Y-49508124D01*
X57390281Y-49508126D01*
X57451472Y-49628220D01*
X57451473Y-49628221D01*
X57451476Y-49628225D01*
X57546774Y-49723523D01*
X57546778Y-49723526D01*
X57546780Y-49723528D01*
X57666874Y-49784719D01*
X57666876Y-49784719D01*
X57666878Y-49784720D01*
X57799998Y-49805804D01*
X57800000Y-49805804D01*
X57800002Y-49805804D01*
X57933121Y-49784720D01*
X57933121Y-49784719D01*
X57933126Y-49784719D01*
X58053220Y-49723528D01*
X58148528Y-49628220D01*
X58209719Y-49508126D01*
X58230804Y-49375000D01*
X58209719Y-49241874D01*
X58148528Y-49121780D01*
X58148526Y-49121778D01*
X58148523Y-49121774D01*
X58053225Y-49026476D01*
X58053221Y-49026473D01*
X58053220Y-49026472D01*
X57933126Y-48965281D01*
X57933124Y-48965280D01*
X57933121Y-48965279D01*
X57800002Y-48944196D01*
X57799998Y-48944196D01*
X57666878Y-48965279D01*
X57546778Y-49026473D01*
X57546774Y-49026476D01*
X57451476Y-49121774D01*
X57451473Y-49121778D01*
X57390279Y-49241878D01*
X57369196Y-49374997D01*
X41500500Y-49374997D01*
X41500500Y-46819033D01*
X41520185Y-46751994D01*
X41572989Y-46706239D01*
X41642147Y-46696295D01*
X41705703Y-46725320D01*
X41740264Y-46774595D01*
X41798204Y-46925535D01*
X41964754Y-47252406D01*
X42164553Y-47560070D01*
X42353297Y-47793148D01*
X43705747Y-46440698D01*
X43779588Y-46542330D01*
X43957670Y-46720412D01*
X44059300Y-46794251D01*
X42706850Y-48146701D01*
X42939929Y-48335446D01*
X43247593Y-48535245D01*
X43574464Y-48701795D01*
X43916948Y-48833263D01*
X44271314Y-48928215D01*
X44633646Y-48985602D01*
X44999999Y-49004803D01*
X45000001Y-49004803D01*
X45366353Y-48985602D01*
X45728684Y-48928215D01*
X45728686Y-48928215D01*
X46083051Y-48833263D01*
X46425535Y-48701795D01*
X46752406Y-48535245D01*
X47060064Y-48335450D01*
X47293148Y-48146701D01*
X45940698Y-46794251D01*
X46042330Y-46720412D01*
X46220412Y-46542330D01*
X46294251Y-46440698D01*
X47646701Y-47793148D01*
X47835450Y-47560064D01*
X48035245Y-47252406D01*
X48201795Y-46925535D01*
X48333263Y-46583051D01*
X48428215Y-46228686D01*
X48428215Y-46228684D01*
X48485602Y-45866353D01*
X48504803Y-45500000D01*
X48504803Y-45499999D01*
X48485602Y-45133646D01*
X48428215Y-44771315D01*
X48428215Y-44771313D01*
X48333263Y-44416948D01*
X48201795Y-44074464D01*
X48035245Y-43747594D01*
X48011825Y-43711530D01*
X57739500Y-43711530D01*
X57739500Y-44168469D01*
X57779868Y-44371412D01*
X57779870Y-44371420D01*
X57797921Y-44415000D01*
X57859059Y-44562598D01*
X57898510Y-44621641D01*
X57974024Y-44734657D01*
X58120342Y-44880975D01*
X58120345Y-44880977D01*
X58292402Y-44995941D01*
X58483580Y-45075130D01*
X58672187Y-45112646D01*
X58686530Y-45115499D01*
X58686534Y-45115500D01*
X58686535Y-45115500D01*
X58893466Y-45115500D01*
X58893467Y-45115499D01*
X59096420Y-45075130D01*
X59287598Y-44995941D01*
X59459655Y-44880977D01*
X59605977Y-44734655D01*
X59720941Y-44562598D01*
X59800130Y-44371420D01*
X59840500Y-44168465D01*
X59840500Y-43711535D01*
X59840499Y-43711530D01*
X60239500Y-43711530D01*
X60239500Y-44168469D01*
X60279868Y-44371412D01*
X60279870Y-44371420D01*
X60297921Y-44415000D01*
X60359059Y-44562598D01*
X60398510Y-44621641D01*
X60474024Y-44734657D01*
X60620342Y-44880975D01*
X60620345Y-44880977D01*
X60792402Y-44995941D01*
X60983580Y-45075130D01*
X61172187Y-45112646D01*
X61186530Y-45115499D01*
X61186534Y-45115500D01*
X61186535Y-45115500D01*
X61393466Y-45115500D01*
X61393467Y-45115499D01*
X61596420Y-45075130D01*
X61787598Y-44995941D01*
X61959655Y-44880977D01*
X62105977Y-44734655D01*
X62220941Y-44562598D01*
X62300130Y-44371420D01*
X62340500Y-44168465D01*
X62340500Y-43711535D01*
X62300130Y-43508580D01*
X62220941Y-43317402D01*
X62105977Y-43145345D01*
X62105975Y-43145342D01*
X61959657Y-42999024D01*
X61868062Y-42937823D01*
X61787598Y-42884059D01*
X61713332Y-42853297D01*
X61596420Y-42804870D01*
X61596412Y-42804868D01*
X61393469Y-42764500D01*
X61393465Y-42764500D01*
X61186535Y-42764500D01*
X61186530Y-42764500D01*
X60983587Y-42804868D01*
X60983579Y-42804870D01*
X60792403Y-42884058D01*
X60620342Y-42999024D01*
X60474024Y-43145342D01*
X60359058Y-43317403D01*
X60279870Y-43508579D01*
X60279868Y-43508587D01*
X60239500Y-43711530D01*
X59840499Y-43711530D01*
X59800130Y-43508580D01*
X59720941Y-43317402D01*
X59605977Y-43145345D01*
X59605975Y-43145342D01*
X59459657Y-42999024D01*
X59368062Y-42937823D01*
X59287598Y-42884059D01*
X59213332Y-42853297D01*
X59096420Y-42804870D01*
X59096412Y-42804868D01*
X58893469Y-42764500D01*
X58893465Y-42764500D01*
X58686535Y-42764500D01*
X58686530Y-42764500D01*
X58483587Y-42804868D01*
X58483579Y-42804870D01*
X58292403Y-42884058D01*
X58120342Y-42999024D01*
X57974024Y-43145342D01*
X57859058Y-43317403D01*
X57779870Y-43508579D01*
X57779868Y-43508587D01*
X57739500Y-43711530D01*
X48011825Y-43711530D01*
X47835446Y-43439929D01*
X47646701Y-43206850D01*
X46294251Y-44559300D01*
X46220412Y-44457670D01*
X46042330Y-44279588D01*
X45940698Y-44205748D01*
X47293148Y-42853297D01*
X47060070Y-42664553D01*
X46752406Y-42464754D01*
X46425535Y-42298204D01*
X46274595Y-42240264D01*
X46219063Y-42197862D01*
X46195270Y-42132168D01*
X46210772Y-42064040D01*
X46260645Y-42015107D01*
X46319033Y-42000500D01*
X92680967Y-42000500D01*
X92748006Y-42020185D01*
G37*
%TD.AperFunction*%
%TD*%
%TA.AperFunction,Conductor*%
%TO.N,/controle/BTN_START*%
G36*
X77377150Y-62392999D02*
G01*
X77573506Y-62473392D01*
X77577382Y-62475983D01*
X77724616Y-62624531D01*
X77728006Y-62632819D01*
X77724542Y-62641077D01*
X77723298Y-62642148D01*
X77383275Y-62895567D01*
X77374593Y-62897763D01*
X77368010Y-62894459D01*
X77204361Y-62730810D01*
X77200934Y-62722537D01*
X77202178Y-62717288D01*
X77362265Y-62398574D01*
X77369039Y-62392722D01*
X77377150Y-62392999D01*
G37*
%TD.AperFunction*%
%TD*%
%TA.AperFunction,Conductor*%
%TO.N,/controle/BTN_START*%
G36*
X67287796Y-70542151D02*
G01*
X67294337Y-70548267D01*
X67295384Y-70553105D01*
X67295384Y-70784554D01*
X67291957Y-70792827D01*
X67285005Y-70796179D01*
X66868293Y-70843527D01*
X66859686Y-70841056D01*
X66855347Y-70833223D01*
X66855272Y-70831954D01*
X66855061Y-70784554D01*
X66854340Y-70622376D01*
X66855248Y-70617808D01*
X66937080Y-70422516D01*
X66943437Y-70416212D01*
X66951980Y-70416086D01*
X67287796Y-70542151D01*
G37*
%TD.AperFunction*%
%TD*%
%TA.AperFunction,Conductor*%
%TO.N,/controle/NRST*%
G36*
X70133938Y-66143427D02*
G01*
X70137073Y-66149102D01*
X70215689Y-66494307D01*
X70214185Y-66503135D01*
X70208803Y-66507696D01*
X70014522Y-66589105D01*
X70005567Y-66589142D01*
X70005478Y-66589105D01*
X69811196Y-66507696D01*
X69804890Y-66501338D01*
X69804310Y-66494309D01*
X69882927Y-66149101D01*
X69888105Y-66141796D01*
X69894335Y-66140000D01*
X70125665Y-66140000D01*
X70133938Y-66143427D01*
G37*
%TD.AperFunction*%
%TD*%
%TA.AperFunction,Conductor*%
%TO.N,/controle/NRST*%
G36*
X87713135Y-54095814D02*
G01*
X87717696Y-54101196D01*
X87799105Y-54295478D01*
X87799142Y-54304433D01*
X87799105Y-54304522D01*
X87717696Y-54498803D01*
X87711338Y-54505109D01*
X87704307Y-54505689D01*
X87359102Y-54427072D01*
X87351796Y-54421894D01*
X87350000Y-54415664D01*
X87350000Y-54184335D01*
X87353427Y-54176062D01*
X87359101Y-54172927D01*
X87704308Y-54094310D01*
X87713135Y-54095814D01*
G37*
%TD.AperFunction*%
%TD*%
%TA.AperFunction,Conductor*%
%TO.N,Net-(IC1002-VCC)*%
G36*
X80545531Y-77609017D02*
G01*
X80549966Y-77616796D01*
X80550058Y-77618208D01*
X80550989Y-77827620D01*
X80550080Y-77832194D01*
X80468762Y-78026259D01*
X80462404Y-78032565D01*
X80453449Y-78032528D01*
X80452670Y-78032167D01*
X80120323Y-77863252D01*
X80114500Y-77856449D01*
X80113924Y-77852822D01*
X80113924Y-77670316D01*
X80117351Y-77662043D01*
X80124157Y-77658709D01*
X80536896Y-77606652D01*
X80545531Y-77609017D01*
G37*
%TD.AperFunction*%
%TD*%
%TA.AperFunction,Conductor*%
%TO.N,Net-(IC1002-VCC)*%
G36*
X75529538Y-81850927D02*
G01*
X75532483Y-81855875D01*
X75634890Y-82201335D01*
X75633955Y-82210241D01*
X75628194Y-82215451D01*
X75434522Y-82296605D01*
X75425567Y-82296642D01*
X75425478Y-82296605D01*
X75231805Y-82215451D01*
X75225499Y-82209093D01*
X75225109Y-82201335D01*
X75327517Y-81855875D01*
X75333154Y-81848917D01*
X75338735Y-81847500D01*
X75521265Y-81847500D01*
X75529538Y-81850927D01*
G37*
%TD.AperFunction*%
%TD*%
%TA.AperFunction,Conductor*%
%TO.N,Net-(IC1002-EN{slash}SYNC)*%
G36*
X78029538Y-83493427D02*
G01*
X78032483Y-83498375D01*
X78134890Y-83843835D01*
X78133955Y-83852741D01*
X78128194Y-83857951D01*
X77934522Y-83939105D01*
X77925567Y-83939142D01*
X77925478Y-83939105D01*
X77731805Y-83857951D01*
X77725499Y-83851593D01*
X77725109Y-83843835D01*
X77827517Y-83498375D01*
X77833154Y-83491417D01*
X77838735Y-83490000D01*
X78021265Y-83490000D01*
X78029538Y-83493427D01*
G37*
%TD.AperFunction*%
%TD*%
%TA.AperFunction,Conductor*%
%TO.N,Net-(IC1002-EN{slash}SYNC)*%
G36*
X82697741Y-78393544D02*
G01*
X82702951Y-78399305D01*
X82784105Y-78592978D01*
X82784142Y-78601933D01*
X82784105Y-78602022D01*
X82702951Y-78795694D01*
X82696593Y-78802000D01*
X82688835Y-78802390D01*
X82343375Y-78699982D01*
X82336417Y-78694345D01*
X82335000Y-78688764D01*
X82335000Y-78506235D01*
X82338427Y-78497962D01*
X82343373Y-78495017D01*
X82688836Y-78392609D01*
X82697741Y-78393544D01*
G37*
%TD.AperFunction*%
%TD*%
%TA.AperFunction,Conductor*%
%TO.N,/controle/SWCLK*%
G36*
X78451228Y-68717622D02*
G01*
X78646169Y-68797435D01*
X78652527Y-68803741D01*
X78652564Y-68803830D01*
X78732377Y-68998771D01*
X78732340Y-69007726D01*
X78727779Y-69013108D01*
X78428092Y-69201615D01*
X78419264Y-69203119D01*
X78413589Y-69199984D01*
X78250015Y-69036410D01*
X78246588Y-69028137D01*
X78248384Y-69021907D01*
X78436891Y-68722220D01*
X78444197Y-68717042D01*
X78451228Y-68717622D01*
G37*
%TD.AperFunction*%
%TD*%
%TA.AperFunction,Conductor*%
%TO.N,/controle/SWCLK*%
G36*
X59076826Y-75976812D02*
G01*
X59076987Y-75976881D01*
X59409060Y-76121935D01*
X59415269Y-76128386D01*
X59416076Y-76132656D01*
X59416076Y-76364077D01*
X59412649Y-76372350D01*
X59405179Y-76375749D01*
X58992447Y-76404143D01*
X58983958Y-76401292D01*
X58979972Y-76393274D01*
X58979944Y-76392539D01*
X58979010Y-76182376D01*
X58979918Y-76177808D01*
X59061514Y-75983079D01*
X59067871Y-75976775D01*
X59076826Y-75976812D01*
G37*
%TD.AperFunction*%
%TD*%
%TA.AperFunction,Conductor*%
%TO.N,/controle/VCP_RX*%
G36*
X82248803Y-60932303D02*
G01*
X82255109Y-60938661D01*
X82255689Y-60945692D01*
X82177073Y-61290898D01*
X82171895Y-61298204D01*
X82165665Y-61300000D01*
X81934335Y-61300000D01*
X81926062Y-61296573D01*
X81922927Y-61290898D01*
X81844310Y-60945690D01*
X81845814Y-60936864D01*
X81851193Y-60932304D01*
X82045480Y-60850893D01*
X82054431Y-60850857D01*
X82248803Y-60932303D01*
G37*
%TD.AperFunction*%
%TD*%
%TA.AperFunction,Conductor*%
%TO.N,/controle/VCP_RX*%
G36*
X63884368Y-73172173D02*
G01*
X63884801Y-73172635D01*
X64158819Y-73481121D01*
X64161752Y-73489581D01*
X64158345Y-73497163D01*
X63994715Y-73660793D01*
X63986442Y-73664220D01*
X63982293Y-73663460D01*
X63642625Y-73534632D01*
X63636105Y-73528494D01*
X63635834Y-73519543D01*
X63635946Y-73519259D01*
X63715893Y-73323990D01*
X63718481Y-73320119D01*
X63867824Y-73172098D01*
X63876110Y-73168709D01*
X63884368Y-73172173D01*
G37*
%TD.AperFunction*%
%TD*%
%TA.AperFunction,Conductor*%
%TO.N,/controle/SWDIO*%
G36*
X88913135Y-59205814D02*
G01*
X88917696Y-59211196D01*
X88999105Y-59405478D01*
X88999142Y-59414433D01*
X88999105Y-59414522D01*
X88917696Y-59608803D01*
X88911338Y-59615109D01*
X88904307Y-59615689D01*
X88559102Y-59537072D01*
X88551796Y-59531894D01*
X88550000Y-59525664D01*
X88550000Y-59294335D01*
X88553427Y-59286062D01*
X88559101Y-59282927D01*
X88904308Y-59204310D01*
X88913135Y-59205814D01*
G37*
%TD.AperFunction*%
%TD*%
%TA.AperFunction,Conductor*%
%TO.N,/controle/SWDIO*%
G36*
X59240898Y-71852927D02*
G01*
X59248204Y-71858105D01*
X59250000Y-71864335D01*
X59250000Y-72095664D01*
X59246573Y-72103937D01*
X59240898Y-72107072D01*
X58895692Y-72185689D01*
X58886864Y-72184185D01*
X58882303Y-72178803D01*
X58851378Y-72105000D01*
X58800893Y-71984519D01*
X58800857Y-71975568D01*
X58882304Y-71781194D01*
X58888661Y-71774890D01*
X58895690Y-71774310D01*
X59240898Y-71852927D01*
G37*
%TD.AperFunction*%
%TD*%
%TA.AperFunction,Conductor*%
%TO.N,/controle/VCP_TX*%
G36*
X64027726Y-74407659D02*
G01*
X64033108Y-74412220D01*
X64221615Y-74711907D01*
X64223119Y-74720735D01*
X64219984Y-74726410D01*
X64056410Y-74889984D01*
X64048137Y-74893411D01*
X64041907Y-74891615D01*
X63742220Y-74703108D01*
X63737042Y-74695802D01*
X63737621Y-74688772D01*
X63817435Y-74493829D01*
X63823741Y-74487472D01*
X63823757Y-74487465D01*
X64018772Y-74407622D01*
X64027726Y-74407659D01*
G37*
%TD.AperFunction*%
%TD*%
%TA.AperFunction,Conductor*%
%TO.N,/controle/VCP_TX*%
G36*
X83229894Y-60103394D02*
G01*
X83236200Y-60109752D01*
X83236780Y-60116783D01*
X83158164Y-60461989D01*
X83152986Y-60469295D01*
X83146756Y-60471091D01*
X82915426Y-60471091D01*
X82907153Y-60467664D01*
X82904018Y-60461989D01*
X82825401Y-60116781D01*
X82826905Y-60107955D01*
X82832284Y-60103395D01*
X83026571Y-60021984D01*
X83035522Y-60021948D01*
X83229894Y-60103394D01*
G37*
%TD.AperFunction*%
%TD*%
%TA.AperFunction,Conductor*%
%TO.N,/acquisition/EN_MOT*%
G36*
X61440898Y-75022927D02*
G01*
X61448204Y-75028105D01*
X61450000Y-75034335D01*
X61450000Y-75265664D01*
X61446573Y-75273937D01*
X61440898Y-75277072D01*
X61095692Y-75355689D01*
X61086864Y-75354185D01*
X61082303Y-75348803D01*
X61051378Y-75275000D01*
X61000893Y-75154519D01*
X61000857Y-75145568D01*
X61082304Y-74951194D01*
X61088661Y-74944890D01*
X61095690Y-74944310D01*
X61440898Y-75022927D01*
G37*
%TD.AperFunction*%
%TD*%
%TA.AperFunction,Conductor*%
%TO.N,/acquisition/EN_MOT*%
G36*
X63587498Y-74919653D02*
G01*
X63592787Y-74925457D01*
X63674885Y-75121383D01*
X63675794Y-75125957D01*
X63674866Y-75334845D01*
X63671402Y-75343103D01*
X63663114Y-75346493D01*
X63661256Y-75346336D01*
X63239851Y-75276619D01*
X63232248Y-75271888D01*
X63230061Y-75265076D01*
X63230061Y-75033665D01*
X63233488Y-75025392D01*
X63238346Y-75022474D01*
X63578587Y-74918787D01*
X63587498Y-74919653D01*
G37*
%TD.AperFunction*%
%TD*%
%TA.AperFunction,Conductor*%
%TO.N,/acquisition/EN_MOT*%
G36*
X63891141Y-77621055D02*
G01*
X64112150Y-77791487D01*
X64116609Y-77799253D01*
X64116705Y-77800752D01*
X64116705Y-78031846D01*
X64113278Y-78040119D01*
X64105005Y-78043546D01*
X64103641Y-78043466D01*
X63734213Y-78000101D01*
X63726396Y-77995733D01*
X63723877Y-77988535D01*
X63722945Y-77778789D01*
X63726334Y-77770505D01*
X63875750Y-77622021D01*
X63884034Y-77618621D01*
X63891141Y-77621055D01*
G37*
%TD.AperFunction*%
%TD*%
%TA.AperFunction,Conductor*%
%TO.N,/acquisition/EN_MOT*%
G36*
X78926228Y-74112622D02*
G01*
X79121169Y-74192435D01*
X79127527Y-74198741D01*
X79127564Y-74198830D01*
X79207377Y-74393771D01*
X79207340Y-74402726D01*
X79202779Y-74408108D01*
X78903092Y-74596615D01*
X78894264Y-74598119D01*
X78888589Y-74594984D01*
X78725015Y-74431410D01*
X78721588Y-74423137D01*
X78723384Y-74416907D01*
X78911891Y-74117220D01*
X78919197Y-74112042D01*
X78926228Y-74112622D01*
G37*
%TD.AperFunction*%
%TD*%
%TA.AperFunction,Conductor*%
%TO.N,/acquisition/EN_LIDAR*%
G36*
X63087059Y-75495814D02*
G01*
X63091620Y-75501196D01*
X63173029Y-75695478D01*
X63173066Y-75704433D01*
X63173029Y-75704522D01*
X63091620Y-75898803D01*
X63085262Y-75905109D01*
X63078231Y-75905689D01*
X62733026Y-75827072D01*
X62725720Y-75821894D01*
X62723924Y-75815664D01*
X62723924Y-75584335D01*
X62727351Y-75576062D01*
X62733025Y-75572927D01*
X63078232Y-75494310D01*
X63087059Y-75495814D01*
G37*
%TD.AperFunction*%
%TD*%
%TA.AperFunction,Conductor*%
%TO.N,/acquisition/EN_LIDAR*%
G36*
X60890898Y-75572927D02*
G01*
X60898204Y-75578105D01*
X60900000Y-75584335D01*
X60900000Y-75815664D01*
X60896573Y-75823937D01*
X60890898Y-75827072D01*
X60545692Y-75905689D01*
X60536864Y-75904185D01*
X60532303Y-75898803D01*
X60501378Y-75825000D01*
X60450893Y-75704519D01*
X60450857Y-75695568D01*
X60532304Y-75501194D01*
X60538661Y-75494890D01*
X60545690Y-75494310D01*
X60890898Y-75572927D01*
G37*
%TD.AperFunction*%
%TD*%
%TA.AperFunction,Conductor*%
%TO.N,/acquisition/EN_LIDAR*%
G36*
X63185834Y-77015344D02*
G01*
X63592717Y-77024736D01*
X63600909Y-77028353D01*
X63604147Y-77036433D01*
X63604147Y-77267785D01*
X63600720Y-77276058D01*
X63597701Y-77278239D01*
X63271228Y-77442313D01*
X63262297Y-77442966D01*
X63255520Y-77437113D01*
X63255183Y-77436381D01*
X63173842Y-77242262D01*
X63172934Y-77237692D01*
X63173871Y-77026989D01*
X63177335Y-77018732D01*
X63185623Y-77015342D01*
X63185834Y-77015344D01*
G37*
%TD.AperFunction*%
%TD*%
%TA.AperFunction,Conductor*%
%TO.N,/acquisition/EN_LIDAR*%
G36*
X79273135Y-72245814D02*
G01*
X79277696Y-72251196D01*
X79359105Y-72445478D01*
X79359142Y-72454433D01*
X79359105Y-72454522D01*
X79277696Y-72648803D01*
X79271338Y-72655109D01*
X79264307Y-72655689D01*
X78919102Y-72577072D01*
X78911796Y-72571894D01*
X78910000Y-72565664D01*
X78910000Y-72334335D01*
X78913427Y-72326062D01*
X78919101Y-72322927D01*
X79264308Y-72244310D01*
X79273135Y-72245814D01*
G37*
%TD.AperFunction*%
%TD*%
%TA.AperFunction,Conductor*%
%TO.N,/acquisition/VIT_MOT_LIDAR*%
G36*
X55962192Y-68739918D02*
G01*
X56157202Y-68821632D01*
X56163508Y-68827990D01*
X56163521Y-68836824D01*
X56027963Y-69170766D01*
X56021676Y-69177142D01*
X56017122Y-69178065D01*
X55785681Y-69178065D01*
X55777408Y-69174638D01*
X55774029Y-69167429D01*
X55736160Y-68752707D01*
X55738821Y-68744156D01*
X55746748Y-68739991D01*
X55747753Y-68739943D01*
X55957622Y-68739010D01*
X55962192Y-68739918D01*
G37*
%TD.AperFunction*%
%TD*%
%TA.AperFunction,Conductor*%
%TO.N,/acquisition/VIT_MOT_LIDAR*%
G36*
X82401228Y-71469804D02*
G01*
X82596169Y-71549617D01*
X82602527Y-71555923D01*
X82602564Y-71556012D01*
X82682377Y-71750953D01*
X82682340Y-71759908D01*
X82677779Y-71765290D01*
X82378092Y-71953797D01*
X82369264Y-71955301D01*
X82363589Y-71952166D01*
X82200015Y-71788592D01*
X82196588Y-71780319D01*
X82198384Y-71774089D01*
X82386891Y-71474402D01*
X82394197Y-71469224D01*
X82401228Y-71469804D01*
G37*
%TD.AperFunction*%
%TD*%
%TA.AperFunction,Conductor*%
%TO.N,/acquisition/RX_LIDAR*%
G36*
X89821228Y-85997622D02*
G01*
X90016169Y-86077435D01*
X90022527Y-86083741D01*
X90022564Y-86083830D01*
X90102377Y-86278771D01*
X90102340Y-86287726D01*
X90097779Y-86293108D01*
X89798092Y-86481615D01*
X89789264Y-86483119D01*
X89783589Y-86479984D01*
X89620015Y-86316410D01*
X89616588Y-86308137D01*
X89618384Y-86301907D01*
X89806891Y-86002220D01*
X89814197Y-85997042D01*
X89821228Y-85997622D01*
G37*
%TD.AperFunction*%
%TD*%
%TA.AperFunction,Conductor*%
%TO.N,/acquisition/RX_LIDAR*%
G36*
X61648803Y-79382303D02*
G01*
X61655109Y-79388661D01*
X61655689Y-79395692D01*
X61577073Y-79740898D01*
X61571895Y-79748204D01*
X61565665Y-79750000D01*
X61334335Y-79750000D01*
X61326062Y-79746573D01*
X61322927Y-79740898D01*
X61244310Y-79395690D01*
X61245814Y-79386864D01*
X61251193Y-79382304D01*
X61445480Y-79300893D01*
X61454431Y-79300857D01*
X61648803Y-79382303D01*
G37*
%TD.AperFunction*%
%TD*%
%TA.AperFunction,Conductor*%
%TO.N,/acquisition/TX_LIDAR*%
G36*
X59803781Y-78989274D02*
G01*
X59810087Y-78995632D01*
X59810718Y-78997703D01*
X59883748Y-79352067D01*
X59882062Y-79360862D01*
X59880562Y-79362702D01*
X59717092Y-79526172D01*
X59708819Y-79529599D01*
X59700546Y-79526172D01*
X59700009Y-79525598D01*
X59448067Y-79237299D01*
X59445203Y-79228814D01*
X59448566Y-79221365D01*
X59597619Y-79070981D01*
X59601490Y-79068393D01*
X59794827Y-78989237D01*
X59803781Y-78989274D01*
G37*
%TD.AperFunction*%
%TD*%
%TA.AperFunction,Conductor*%
%TO.N,/acquisition/TX_LIDAR*%
G36*
X94733448Y-82269541D02*
G01*
X95675481Y-82368742D01*
X95683349Y-82373017D01*
X95683767Y-82373566D01*
X96200186Y-83094710D01*
X96202217Y-83103432D01*
X96197486Y-83111034D01*
X96196268Y-83111798D01*
X94818555Y-83861722D01*
X94809650Y-83862668D01*
X94804688Y-83859719D01*
X94637824Y-83692855D01*
X94634397Y-83684582D01*
X94634419Y-83683865D01*
X94714868Y-82373566D01*
X94720584Y-82280463D01*
X94724511Y-82272416D01*
X94732979Y-82269503D01*
X94733448Y-82269541D01*
G37*
%TD.AperFunction*%
%TD*%
%TA.AperFunction,Conductor*%
%TO.N,/Deplacement/Encoder B phase 1*%
G36*
X56702351Y-69017351D02*
G01*
X56705750Y-69024821D01*
X56734143Y-69437552D01*
X56731292Y-69446041D01*
X56723274Y-69450027D01*
X56722523Y-69450055D01*
X56512379Y-69450989D01*
X56507805Y-69450080D01*
X56313081Y-69368486D01*
X56306775Y-69362128D01*
X56306812Y-69353173D01*
X56306881Y-69353012D01*
X56451935Y-69020941D01*
X56458387Y-69014731D01*
X56462657Y-69013924D01*
X56694078Y-69013924D01*
X56702351Y-69017351D01*
G37*
%TD.AperFunction*%
%TD*%
%TA.AperFunction,Conductor*%
%TO.N,/Deplacement/Encoder B phase 1*%
G36*
X66297559Y-43945398D02*
G01*
X66989655Y-44531230D01*
X66993756Y-44539190D01*
X66992505Y-44545502D01*
X66378263Y-45742309D01*
X66371437Y-45748105D01*
X66367854Y-45748667D01*
X66132585Y-45748667D01*
X66124312Y-45745240D01*
X66121904Y-45741743D01*
X65939008Y-45332761D01*
X65586838Y-44545258D01*
X65586590Y-44536309D01*
X65589958Y-44531557D01*
X66282441Y-43945397D01*
X66290970Y-43942668D01*
X66297559Y-43945398D01*
G37*
%TD.AperFunction*%
%TD*%
%TA.AperFunction,Conductor*%
%TO.N,/Deplacement/Encoder A phase 1*%
G36*
X63797559Y-43945398D02*
G01*
X64489846Y-44531392D01*
X64493947Y-44539352D01*
X64492834Y-44545387D01*
X63918186Y-45742032D01*
X63911515Y-45748006D01*
X63907639Y-45748667D01*
X63672361Y-45748667D01*
X63664088Y-45745240D01*
X63661814Y-45742032D01*
X63521411Y-45449658D01*
X63087164Y-44545385D01*
X63086673Y-44536446D01*
X63090151Y-44531393D01*
X63782441Y-43945397D01*
X63790970Y-43942668D01*
X63797559Y-43945398D01*
G37*
%TD.AperFunction*%
%TD*%
%TA.AperFunction,Conductor*%
%TO.N,/Deplacement/Encoder A phase 1*%
G36*
X60401449Y-80611510D02*
G01*
X60405164Y-80619658D01*
X60405171Y-80620032D01*
X60405833Y-80831286D01*
X60404924Y-80835845D01*
X60324302Y-81028243D01*
X60317944Y-81034549D01*
X60308989Y-81034512D01*
X60307398Y-81033697D01*
X59984500Y-80835845D01*
X59931481Y-80803358D01*
X59926218Y-80796115D01*
X59927619Y-80787270D01*
X59929318Y-80785114D01*
X60092347Y-80622085D01*
X60100207Y-80618666D01*
X60393060Y-80608376D01*
X60401449Y-80611510D01*
G37*
%TD.AperFunction*%
%TD*%
%TA.AperFunction,Conductor*%
%TO.N,/Deplacement/Encoder A phase 2*%
G36*
X44359554Y-66068598D02*
G01*
X44359649Y-66068785D01*
X45043662Y-67438111D01*
X45044293Y-67447043D01*
X45041468Y-67451612D01*
X44874951Y-67618129D01*
X44866678Y-67621556D01*
X44864663Y-67621381D01*
X43232728Y-67336037D01*
X43225169Y-67331237D01*
X43223218Y-67322497D01*
X43223690Y-67320675D01*
X43507769Y-66503674D01*
X43513405Y-66497146D01*
X44343768Y-66063640D01*
X44352687Y-66062850D01*
X44359554Y-66068598D01*
G37*
%TD.AperFunction*%
%TD*%
%TA.AperFunction,Conductor*%
%TO.N,/Deplacement/Encoder A phase 2*%
G36*
X60391903Y-81274582D02*
G01*
X60396464Y-81279964D01*
X60477873Y-81474246D01*
X60477910Y-81483201D01*
X60477873Y-81483290D01*
X60396464Y-81677571D01*
X60390106Y-81683877D01*
X60383075Y-81684457D01*
X60037870Y-81605840D01*
X60030564Y-81600662D01*
X60028768Y-81594432D01*
X60028768Y-81363103D01*
X60032195Y-81354830D01*
X60037869Y-81351695D01*
X60383076Y-81273078D01*
X60391903Y-81274582D01*
G37*
%TD.AperFunction*%
%TD*%
%TA.AperFunction,Conductor*%
%TO.N,/Deplacement/Encoder B phase 2*%
G36*
X44465217Y-63888044D02*
G01*
X44469605Y-63895850D01*
X44469650Y-63896297D01*
X44583750Y-65302017D01*
X44581003Y-65310541D01*
X44580361Y-65311237D01*
X44413504Y-65478094D01*
X44405231Y-65481521D01*
X44399784Y-65480176D01*
X43003102Y-64745481D01*
X42997376Y-64738596D01*
X42998194Y-64729679D01*
X42998953Y-64728433D01*
X43506294Y-64003577D01*
X43513844Y-63998765D01*
X43514479Y-63998670D01*
X44456595Y-63885627D01*
X44465217Y-63888044D01*
G37*
%TD.AperFunction*%
%TD*%
%TA.AperFunction,Conductor*%
%TO.N,/Deplacement/Encoder B phase 2*%
G36*
X54768417Y-69852920D02*
G01*
X54768486Y-69853081D01*
X54850080Y-70047805D01*
X54850989Y-70052379D01*
X54850055Y-70262523D01*
X54846591Y-70270781D01*
X54838303Y-70274171D01*
X54837552Y-70274143D01*
X54424821Y-70245749D01*
X54416803Y-70241763D01*
X54413924Y-70234077D01*
X54413924Y-70002656D01*
X54417351Y-69994383D01*
X54420937Y-69991936D01*
X54753012Y-69846880D01*
X54761965Y-69846710D01*
X54768417Y-69852920D01*
G37*
%TD.AperFunction*%
%TD*%
%TA.AperFunction,Conductor*%
%TO.N,/acquisition/AG_MISO*%
G36*
X69074092Y-52522709D02*
G01*
X69074155Y-52522772D01*
X69221853Y-52671788D01*
X69225243Y-52680076D01*
X69222771Y-52687217D01*
X68994917Y-52979555D01*
X68987128Y-52983973D01*
X68978496Y-52981590D01*
X68977416Y-52980635D01*
X68814020Y-52817239D01*
X68810593Y-52808966D01*
X68810675Y-52807579D01*
X68825041Y-52687217D01*
X68843773Y-52530277D01*
X68848156Y-52522472D01*
X68855351Y-52519967D01*
X69065808Y-52519308D01*
X69074092Y-52522709D01*
G37*
%TD.AperFunction*%
%TD*%
%TA.AperFunction,Conductor*%
%TO.N,/acquisition/AG_MISO*%
G36*
X68336410Y-53300015D02*
G01*
X68499984Y-53463589D01*
X68503411Y-53471862D01*
X68501615Y-53478092D01*
X68313108Y-53777779D01*
X68305802Y-53782957D01*
X68298771Y-53782377D01*
X68103830Y-53702564D01*
X68097472Y-53696258D01*
X68097435Y-53696169D01*
X68017622Y-53501228D01*
X68017659Y-53492273D01*
X68022220Y-53486891D01*
X68048770Y-53470191D01*
X68321907Y-53298383D01*
X68330735Y-53296880D01*
X68336410Y-53300015D01*
G37*
%TD.AperFunction*%
%TD*%
%TA.AperFunction,Conductor*%
%TO.N,/acquisition/AG_CSN*%
G36*
X65090898Y-62372927D02*
G01*
X65098204Y-62378105D01*
X65100000Y-62384335D01*
X65100000Y-62615664D01*
X65096573Y-62623937D01*
X65090898Y-62627072D01*
X64745692Y-62705689D01*
X64736864Y-62704185D01*
X64732303Y-62698803D01*
X64701378Y-62625000D01*
X64650893Y-62504519D01*
X64650857Y-62495568D01*
X64732304Y-62301194D01*
X64738661Y-62294890D01*
X64745690Y-62294310D01*
X65090898Y-62372927D01*
G37*
%TD.AperFunction*%
%TD*%
%TA.AperFunction,Conductor*%
%TO.N,/acquisition/AG_CSN*%
G36*
X68101228Y-60117622D02*
G01*
X68296169Y-60197435D01*
X68302527Y-60203741D01*
X68302564Y-60203830D01*
X68382377Y-60398771D01*
X68382340Y-60407726D01*
X68377779Y-60413108D01*
X68078092Y-60601615D01*
X68069264Y-60603119D01*
X68063589Y-60599984D01*
X67900015Y-60436410D01*
X67896588Y-60428137D01*
X67898384Y-60421907D01*
X68086891Y-60122220D01*
X68094197Y-60117042D01*
X68101228Y-60117622D01*
G37*
%TD.AperFunction*%
%TD*%
%TA.AperFunction,Conductor*%
%TO.N,/Deplacement/FWD1*%
G36*
X54563938Y-64593427D02*
G01*
X54567073Y-64599102D01*
X54645689Y-64944307D01*
X54644185Y-64953135D01*
X54638803Y-64957696D01*
X54444522Y-65039105D01*
X54435567Y-65039142D01*
X54435478Y-65039105D01*
X54241196Y-64957696D01*
X54234890Y-64951338D01*
X54234310Y-64944309D01*
X54312927Y-64599101D01*
X54318105Y-64591796D01*
X54324335Y-64590000D01*
X54555665Y-64590000D01*
X54563938Y-64593427D01*
G37*
%TD.AperFunction*%
%TD*%
%TA.AperFunction,Conductor*%
%TO.N,/Deplacement/FWD1*%
G36*
X54648549Y-62612197D02*
G01*
X54654855Y-62618555D01*
X54655360Y-62625896D01*
X54567256Y-62969219D01*
X54561880Y-62976381D01*
X54555923Y-62978011D01*
X54324579Y-62978011D01*
X54316306Y-62974584D01*
X54313109Y-62968621D01*
X54244019Y-62625500D01*
X54245746Y-62616713D01*
X54250964Y-62612400D01*
X54445480Y-62530893D01*
X54454431Y-62530857D01*
X54648549Y-62612197D01*
G37*
%TD.AperFunction*%
%TD*%
%TA.AperFunction,Conductor*%
%TO.N,/acquisition/AG_INT1*%
G36*
X77635226Y-54620159D02*
G01*
X77640608Y-54624720D01*
X77829115Y-54924407D01*
X77830619Y-54933235D01*
X77827484Y-54938910D01*
X77663910Y-55102484D01*
X77655637Y-55105911D01*
X77649407Y-55104115D01*
X77349720Y-54915608D01*
X77344542Y-54908302D01*
X77345121Y-54901272D01*
X77424935Y-54706329D01*
X77431241Y-54699972D01*
X77431257Y-54699965D01*
X77626272Y-54620122D01*
X77635226Y-54620159D01*
G37*
%TD.AperFunction*%
%TD*%
%TA.AperFunction,Conductor*%
%TO.N,/acquisition/AG_INT1*%
G36*
X78553092Y-55648384D02*
G01*
X78852779Y-55836891D01*
X78857957Y-55844197D01*
X78857377Y-55851228D01*
X78777564Y-56046169D01*
X78771258Y-56052527D01*
X78771169Y-56052564D01*
X78576228Y-56132377D01*
X78567273Y-56132340D01*
X78561891Y-56127779D01*
X78373384Y-55828092D01*
X78371880Y-55819264D01*
X78375013Y-55813591D01*
X78538590Y-55650014D01*
X78546862Y-55646588D01*
X78553092Y-55648384D01*
G37*
%TD.AperFunction*%
%TD*%
M02*
