M48
; DRILL file {KiCad 8.0.5} date 2024-10-23T09:03:42+0200
; FORMAT={-:-/ absolute / inch / decimal}
; #@! TF.CreationDate,2024-10-23T09:03:42+02:00
; #@! TF.GenerationSoftware,Kicad,Pcbnew,8.0.5
; #@! TF.FileFunction,Plated,1,4,PTH
FMAT,2
INCH
; #@! TA.AperFunction,Plated,PTH,ViaDrill
T1C0.0118
; #@! TA.AperFunction,Plated,PTH,ComponentDrill
T2C0.0197
; #@! TA.AperFunction,Plated,PTH,ComponentDrill
T3C0.0374
; #@! TA.AperFunction,Plated,PTH,ComponentDrill
T4C0.0394
; #@! TA.AperFunction,Plated,PTH,ComponentDrill
T5C0.1260
%
G90
G05
T1
X1.6673Y-3.1161
X1.8613Y-2.7858
X1.8781Y-2.3976
X1.8941Y-2.5079
X1.8941Y-2.5472
X1.8941Y-2.5866
X1.9281Y-2.689
X1.9531Y-2.5079
X1.9531Y-2.5866
X1.9783Y-2.3953
X1.9843Y-2.689
X2.0122Y-2.5079
X2.0122Y-2.5472
X2.0122Y-2.5866
X2.0472Y-3.0472
X2.0835Y-2.7205
X2.122Y-3.1902
X2.1433Y-2.5606
X2.1437Y-2.4618
X2.1559Y-3.335
X2.1594Y-2.7579
X2.2031Y-2.7063
X2.2067Y-1.8783
X2.2077Y-2.0585
X2.2224Y-2.7945
X2.2248Y-2.7343
X2.2303Y-2.8323
X2.2756Y-1.9439
X2.2792Y-2.7799
X2.2795Y-1.9974
X2.315Y-2.8339
X2.322Y-2.9992
X2.3465Y-3.113
X2.3484Y-2.5106
X2.3488Y-2.4236
X2.353Y-2.3642
X2.3782Y-3.1824
X2.3799Y-1.9138
X2.3799Y-1.9689
X2.3799Y-2.024
X2.3799Y-2.9803
X2.3811Y-3.2078
X2.3917Y-2.4244
X2.3937Y-2.6339
X2.3937Y-2.689
X2.3937Y-2.7441
X2.4016Y-2.9587
X2.4193Y-1.9138
X2.4193Y-2.024
X2.4193Y-2.5114
X2.4193Y-3.122
X2.4488Y-2.6339
X2.4488Y-2.689
X2.4488Y-2.7441
X2.4587Y-1.9138
X2.4587Y-1.9689
X2.4587Y-2.024
X2.4626Y-2.2362
X2.4872Y-2.9803
X2.4872Y-3.0409
X2.5039Y-2.6339
X2.5039Y-2.689
X2.5039Y-2.7441
X2.5069Y-2.9576
X2.5086Y-2.8867
X2.5088Y-3.062
X2.5126Y-2.9327
X2.5453Y-2.4606
X2.5581Y-2.8626
X2.5591Y-2.2362
X2.5685Y-1.9937
X2.5689Y-1.8941
X2.5961Y-2.924
X2.6157Y-2.8
X2.6321Y-2.7803
X2.6516Y-2.878
X2.6811Y-2.1142
X2.689Y-2.3701
X2.7008Y-2.6644
X2.7193Y-2.0677
X2.7362Y-2.563
X2.748Y-2.2539
X2.7795Y-2.25
X2.8406Y-2.7126
X2.8425Y-2.252
X2.8504Y-2.7795
X2.8819Y-2.561
X2.9055Y-2.2551
X2.9697Y-3.2401
X2.9904Y-2.9641
X2.9921Y-1.7579
X3.0467Y-3.12
X3.0483Y-2.1536
X3.0541Y-2.4596
X3.0591Y-1.7579
X3.0681Y-3.3047
X3.0965Y-2.7087
X3.1014Y-2.2067
X3.1152Y-2.9211
X3.1161Y-1.8661
X3.1244Y-2.8524
X3.1713Y-3.0642
X3.1732Y-3.305
X3.1772Y-3.3905
X3.1809Y-2.9645
X3.21Y-3.3622
X3.2303Y-2.3957
X3.2343Y-3.2835
X3.2478Y-3.4334
X3.251Y-2.9637
X3.252Y-2.817
X3.2593Y-3.0944
X3.2689Y-2.363
X3.2711Y-3.0275
X3.2949Y-3.5122
X3.3301Y-3.2401
X3.336Y-3.3208
X3.3492Y-3.3528
X3.4488Y-3.3386
X3.4567Y-2.1378
X3.4646Y-3.5079
X3.4803Y-2.5433
X3.4803Y-2.7165
X3.4843Y-1.9134
X3.4923Y-3.3386
X3.5039Y-2.339
X3.5177Y-2.7185
X3.5354Y-3.3386
X3.5433Y-2.4626
X3.5441Y-3.389
X3.5551Y-2.7165
X3.5827Y-2.7598
X3.7961Y-2.2866
X3.7972Y-2.1366
X3.7976Y-2.2366
X3.8028Y-2.3366
T2
X1.6772Y-1.7913
X1.6772Y-3.6024
X1.7048Y-1.7245
X1.7048Y-1.8582
X1.7048Y-3.5355
X1.7048Y-3.6692
X1.7717Y-1.6969
X1.7717Y-1.8858
X1.7717Y-3.5079
X1.7717Y-3.6969
X1.8385Y-1.7245
X1.8385Y-1.8582
X1.8385Y-3.5355
X1.8385Y-3.6692
X1.8661Y-1.7913
X1.8661Y-3.6024
X3.6063Y-1.7913
X3.6063Y-3.6024
X3.634Y-1.7245
X3.634Y-1.8582
X3.634Y-3.5355
X3.634Y-3.6692
X3.7008Y-1.6969
X3.7008Y-1.8858
X3.7008Y-3.5079
X3.7008Y-3.6969
X3.7676Y-1.7245
X3.7676Y-1.8582
X3.7676Y-3.5355
X3.7676Y-3.6692
X3.7953Y-1.7913
X3.7953Y-3.6024
T3
X1.713Y-2.3228
X1.713Y-2.4213
X1.713Y-2.5197
X1.713Y-2.6181
X1.713Y-2.7165
X1.713Y-2.815
X2.3146Y-1.7299
X2.413Y-1.7299
X2.5114Y-1.7299
X2.6098Y-1.7299
X2.7083Y-1.7299
X2.7756Y-3.6673
X2.8067Y-1.7299
X2.874Y-3.6673
X2.9724Y-3.6673
X3.2087Y-3.6673
X3.3071Y-3.6673
X3.4055Y-3.6673
X3.7669Y-2.6524
X3.7669Y-2.7508
X3.7669Y-2.8492
X3.7669Y-2.9476
X3.7669Y-3.0461
X3.7669Y-3.1445
X3.7669Y-3.2429
X3.7669Y-3.3413
T4
X2.0768Y-3.6673
X2.1752Y-3.6673
X2.4291Y-3.6654
X2.5276Y-3.6654
T5
X1.7717Y-1.7913
X1.7717Y-3.6024
X3.7008Y-1.7913
X3.7008Y-3.6024
M30
